<?xml version="1.0" encoding="UTF-8" standalone="no"?>
<svg width="52.9167mm" height="33.0729mm"
 viewBox="0 0 200 125"
 xmlns="http://www.w3.org/2000/svg" xmlns:xlink="http://www.w3.org/1999/xlink"  version="1.2" baseProfile="tiny">
<defs>
</defs>
<g fill="none" stroke="black" stroke-width="1" fill-rule="evenodd" stroke-linecap="square" stroke-linejoin="bevel" >

<g fill="#ffffff" fill-opacity="0" stroke="none" transform="matrix(1,0,0,1,0,0)"
font-family="Helvetica" font-size="16" font-weight="400" font-style="normal" 
>
<path vector-effect="non-scaling-stroke" fill-rule="evenodd" d="M0,0 L200,0 L200,125 L0,125 L0,0z "/>
</g>

<g fill="none" stroke="#000000" stroke-opacity="1" stroke-width="1" stroke-linecap="square" stroke-linejoin="bevel" transform="matrix(1,0,0,1,0,0)"
font-family="Helvetica" font-size="16" font-weight="400" font-style="normal" 
>
</g>

<g fill="none" stroke="#000000" stroke-opacity="1" stroke-width="1" stroke-linecap="square" stroke-linejoin="bevel" transform="matrix(1,0,0,1,0,0)"
font-family="Helvetica" font-size="16" font-weight="400" font-style="normal" 
clip-path="url(#clip29349)" >
<defs><clipPath id="clip29349"><path vector-effect="non-scaling-stroke" fill-rule="evenodd" d="M0,0 L200,0 L200,125.843 L0,125.843 L0,0z "/>
</clipPath></defs></g>

<g fill="none" stroke="#000000" stroke-opacity="1" stroke-width="1" stroke-linecap="square" stroke-linejoin="bevel" transform="matrix(2.24719,0,0,2.24719,184.27,62.9213)"
font-family="Helvetica" font-size="16" font-weight="400" font-style="normal" 
clip-path="url(#clip29350)" >
<defs><clipPath id="clip29350"><path vector-effect="non-scaling-stroke" fill-rule="evenodd" d="M-82,-28 L7,-28 L7,28 L-82,28 L-82,-28z "/>
</clipPath></defs></g>

<g fill="#000000" fill-opacity="0" stroke="#000000" stroke-opacity="1" stroke-width="2" stroke-linecap="round" stroke-linejoin="miter" stroke-miterlimit="2" transform="matrix(2.24719,0,0,2.24719,184.27,62.9213)"
font-family="Helvetica" font-size="16" font-weight="400" font-style="normal" 
clip-path="url(#clip29350)" >
<path vector-effect="none" fill-rule="evenodd" d="M0,-5 L5,0 L0,5"/>
</g>

<g fill="none" stroke="#000000" stroke-opacity="1" stroke-width="1" stroke-linecap="square" stroke-linejoin="bevel" transform="matrix(2.24719,0,0,2.24719,184.27,62.9213)"
font-family="Helvetica" font-size="16" font-weight="400" font-style="normal" 
clip-path="url(#clip29350)" >
</g>

<g fill="none" stroke="#000000" stroke-opacity="1" stroke-width="1" stroke-linecap="square" stroke-linejoin="bevel" transform="matrix(-2.24719,0,0,-2.24719,15.7303,62.9213)"
font-family="Helvetica" font-size="16" font-weight="400" font-style="normal" 
clip-path="url(#clip29351)" >
<defs><clipPath id="clip29351"><path vector-effect="non-scaling-stroke" fill-rule="evenodd" d="M7,28 L-82,28 L-82,-28 L7,-28 L7,28z "/>
</clipPath></defs></g>

<g fill="#000000" fill-opacity="0" stroke="#000000" stroke-opacity="1" stroke-width="2" stroke-linecap="round" stroke-linejoin="miter" stroke-miterlimit="2" transform="matrix(-2.24719,0,0,-2.24719,15.7303,62.9213)"
font-family="Helvetica" font-size="16" font-weight="400" font-style="normal" 
clip-path="url(#clip29351)" >
<path vector-effect="none" fill-rule="evenodd" d="M5,-5 L0,0 L5,5"/>
</g>

<g fill="none" stroke="#000000" stroke-opacity="1" stroke-width="1" stroke-linecap="square" stroke-linejoin="bevel" transform="matrix(-2.24719,0,0,-2.24719,15.7303,62.9213)"
font-family="Helvetica" font-size="16" font-weight="400" font-style="normal" 
clip-path="url(#clip29351)" >
</g>

<g fill="none" stroke="#000000" stroke-opacity="1" stroke-width="1" stroke-linecap="square" stroke-linejoin="bevel" transform="matrix(2.24719,0,0,2.24719,15.7303,4.49438)"
font-family="Helvetica" font-size="16" font-weight="400" font-style="normal" 
clip-path="url(#clip29352)" >
<defs><clipPath id="clip29352"><path vector-effect="non-scaling-stroke" fill-rule="evenodd" d="M-7,-2 L82,-2 L82,54 L-7,54 L-7,-2z "/>
</clipPath></defs></g>

<g fill="#ffffff" fill-opacity="1" stroke="none" transform="matrix(2.24719,0,0,2.24719,15.7303,4.49438)"
font-family="Helvetica" font-size="16" font-weight="400" font-style="normal" 
clip-path="url(#clip29352)" >
<path vector-effect="none" fill-rule="evenodd" d="M0,0 L75,0 L75,52 L0,52 L0,0z "/>
</g>

<g fill="none" stroke="#000000" stroke-opacity="1" stroke-width="1" stroke-linecap="square" stroke-linejoin="bevel" transform="matrix(2.24719,0,0,2.24719,15.7303,4.49438)"
font-family="Helvetica" font-size="16" font-weight="400" font-style="normal" 
clip-path="url(#clip29352)" >
</g>

<g fill="none" stroke="#000000" stroke-opacity="1" stroke-width="1" stroke-linecap="square" stroke-linejoin="bevel" transform="matrix(2.24719,0,0,2.24719,15.7303,4.49438)"
font-family="Helvetica" font-size="16" font-weight="400" font-style="normal" 
clip-path="url(#clip29352)" >
</g>

<g fill="none" stroke="#000000" stroke-opacity="1" stroke-width="1" stroke-linecap="square" stroke-linejoin="bevel" transform="matrix(2.24719,0,0,2.24719,15.7303,4.49438)"
font-family="Helvetica" font-size="16" font-weight="400" font-style="normal" 
clip-path="url(#clip29353)" >
<defs><clipPath id="clip29353"><path vector-effect="non-scaling-stroke" fill-rule="evenodd" d="M0,0 L75,0 L75,52 L0,52 L0,0z "/>
</clipPath></defs></g>

<g fill="none" stroke="#000000" stroke-opacity="1" stroke-width="1" stroke-linecap="square" stroke-linejoin="bevel" transform="matrix(2.24719,0,0,2.24719,-117.978,-812.36)"
font-family="Helvetica" font-size="16" font-weight="400" font-style="normal" 
clip-path="url(#clip29354)" >
<defs><clipPath id="clip29354"><path vector-effect="none" fill-rule="evenodd" d="M60,364 L135,364 L135,416 L60,416 L60,364z "/>
</clipPath></defs><polyline fill="none" vector-effect="none" points="66,370 77,370 " />
</g>

<g fill="none" stroke="#000000" stroke-opacity="1" stroke-width="1" stroke-linecap="square" stroke-linejoin="bevel" transform="matrix(2.24719,0,0,2.24719,-117.978,-812.36)"
font-family="Helvetica" font-size="16" font-weight="400" font-style="normal" 
clip-path="url(#clip29354)" >
<polyline fill="none" vector-effect="none" points="77,370 77,378 " />
</g>

<g fill="none" stroke="#000000" stroke-opacity="1" stroke-width="1" stroke-linecap="square" stroke-linejoin="bevel" transform="matrix(2.24719,0,0,2.24719,-117.978,-812.36)"
font-family="Helvetica" font-size="16" font-weight="400" font-style="normal" 
clip-path="url(#clip29354)" >
<polyline fill="none" vector-effect="none" points="77,378 87,378 " />
</g>

<g fill="none" stroke="#000000" stroke-opacity="1" stroke-width="1" stroke-linecap="square" stroke-linejoin="bevel" transform="matrix(2.24719,0,0,2.24719,-117.978,-812.36)"
font-family="Helvetica" font-size="16" font-weight="400" font-style="normal" 
clip-path="url(#clip29354)" >
<polyline fill="none" vector-effect="none" points="87,378 87,370 " />
</g>

<g fill="none" stroke="#000000" stroke-opacity="1" stroke-width="1" stroke-linecap="square" stroke-linejoin="bevel" transform="matrix(2.24719,0,0,2.24719,-117.978,-812.36)"
font-family="Helvetica" font-size="16" font-weight="400" font-style="normal" 
clip-path="url(#clip29354)" >
<polyline fill="none" vector-effect="none" points="87,370 98,370 " />
</g>

<g fill="none" stroke="#000000" stroke-opacity="1" stroke-width="1" stroke-linecap="square" stroke-linejoin="bevel" transform="matrix(2.24719,0,0,2.24719,-117.978,-812.36)"
font-family="Helvetica" font-size="16" font-weight="400" font-style="normal" 
clip-path="url(#clip29354)" >
<polyline fill="none" vector-effect="none" points="98,370 98,374 " />
</g>

<g fill="none" stroke="#000000" stroke-opacity="1" stroke-width="1" stroke-linecap="square" stroke-linejoin="bevel" transform="matrix(2.24719,0,0,2.24719,-117.978,-812.36)"
font-family="Helvetica" font-size="16" font-weight="400" font-style="normal" 
clip-path="url(#clip29354)" >
<polyline fill="none" vector-effect="none" points="98,374 98,367 " />
</g>

<g fill="none" stroke="#000000" stroke-opacity="1" stroke-width="1" stroke-linecap="square" stroke-linejoin="bevel" transform="matrix(2.24719,0,0,2.24719,-117.978,-812.36)"
font-family="Helvetica" font-size="16" font-weight="400" font-style="normal" 
clip-path="url(#clip29354)" >
<polyline fill="none" vector-effect="none" points="98,367 98,379 " />
</g>

<g fill="none" stroke="#000000" stroke-opacity="1" stroke-width="1" stroke-linecap="square" stroke-linejoin="bevel" transform="matrix(2.24719,0,0,2.24719,-117.978,-812.36)"
font-family="Helvetica" font-size="16" font-weight="400" font-style="normal" 
clip-path="url(#clip29354)" >
<polyline fill="none" vector-effect="none" points="98,379 98,374 " />
</g>

<g fill="none" stroke="#000000" stroke-opacity="1" stroke-width="1" stroke-linecap="square" stroke-linejoin="bevel" transform="matrix(2.24719,0,0,2.24719,-117.978,-812.36)"
font-family="Helvetica" font-size="16" font-weight="400" font-style="normal" 
clip-path="url(#clip29354)" >
<polyline fill="none" vector-effect="none" points="98,374 98,370 " />
</g>

<g fill="none" stroke="#000000" stroke-opacity="1" stroke-width="1" stroke-linecap="square" stroke-linejoin="bevel" transform="matrix(2.24719,0,0,2.24719,-117.978,-812.36)"
font-family="Helvetica" font-size="16" font-weight="400" font-style="normal" 
clip-path="url(#clip29354)" >
<polyline fill="none" vector-effect="none" points="98,370 99,370 " />
</g>

<g fill="none" stroke="#000000" stroke-opacity="1" stroke-width="1" stroke-linecap="square" stroke-linejoin="bevel" transform="matrix(2.24719,0,0,2.24719,-117.978,-812.36)"
font-family="Helvetica" font-size="16" font-weight="400" font-style="normal" 
clip-path="url(#clip29354)" >
<polyline fill="none" vector-effect="none" points="99,370 100,373 " />
</g>

<g fill="none" stroke="#000000" stroke-opacity="1" stroke-width="1" stroke-linecap="square" stroke-linejoin="bevel" transform="matrix(2.24719,0,0,2.24719,-117.978,-812.36)"
font-family="Helvetica" font-size="16" font-weight="400" font-style="normal" 
clip-path="url(#clip29354)" >
<polyline fill="none" vector-effect="none" points="100,373 101,377 " />
</g>

<g fill="none" stroke="#000000" stroke-opacity="1" stroke-width="1" stroke-linecap="square" stroke-linejoin="bevel" transform="matrix(2.24719,0,0,2.24719,-117.978,-812.36)"
font-family="Helvetica" font-size="16" font-weight="400" font-style="normal" 
clip-path="url(#clip29354)" >
<polyline fill="none" vector-effect="none" points="101,377 102,378 " />
</g>

<g fill="none" stroke="#000000" stroke-opacity="1" stroke-width="1" stroke-linecap="square" stroke-linejoin="bevel" transform="matrix(2.24719,0,0,2.24719,-117.978,-812.36)"
font-family="Helvetica" font-size="16" font-weight="400" font-style="normal" 
clip-path="url(#clip29354)" >
<polyline fill="none" vector-effect="none" points="102,378 102,375 " />
</g>

<g fill="none" stroke="#000000" stroke-opacity="1" stroke-width="1" stroke-linecap="square" stroke-linejoin="bevel" transform="matrix(2.24719,0,0,2.24719,-117.978,-812.36)"
font-family="Helvetica" font-size="16" font-weight="400" font-style="normal" 
clip-path="url(#clip29354)" >
<polyline fill="none" vector-effect="none" points="102,375 103,371 " />
</g>

<g fill="none" stroke="#000000" stroke-opacity="1" stroke-width="1" stroke-linecap="square" stroke-linejoin="bevel" transform="matrix(2.24719,0,0,2.24719,-117.978,-812.36)"
font-family="Helvetica" font-size="16" font-weight="400" font-style="normal" 
clip-path="url(#clip29354)" >
<polyline fill="none" vector-effect="none" points="103,371 104,369 " />
</g>

<g fill="none" stroke="#000000" stroke-opacity="1" stroke-width="1" stroke-linecap="square" stroke-linejoin="bevel" transform="matrix(2.24719,0,0,2.24719,-117.978,-812.36)"
font-family="Helvetica" font-size="16" font-weight="400" font-style="normal" 
clip-path="url(#clip29354)" >
<polyline fill="none" vector-effect="none" points="104,369 105,372 " />
</g>

<g fill="none" stroke="#000000" stroke-opacity="1" stroke-width="1" stroke-linecap="square" stroke-linejoin="bevel" transform="matrix(2.24719,0,0,2.24719,-117.978,-812.36)"
font-family="Helvetica" font-size="16" font-weight="400" font-style="normal" 
clip-path="url(#clip29354)" >
<polyline fill="none" vector-effect="none" points="105,372 106,377 " />
</g>

<g fill="none" stroke="#000000" stroke-opacity="1" stroke-width="1" stroke-linecap="square" stroke-linejoin="bevel" transform="matrix(2.24719,0,0,2.24719,-117.978,-812.36)"
font-family="Helvetica" font-size="16" font-weight="400" font-style="normal" 
clip-path="url(#clip29354)" >
<polyline fill="none" vector-effect="none" points="106,377 107,378 " />
</g>

<g fill="none" stroke="#000000" stroke-opacity="1" stroke-width="1" stroke-linecap="square" stroke-linejoin="bevel" transform="matrix(2.24719,0,0,2.24719,-117.978,-812.36)"
font-family="Helvetica" font-size="16" font-weight="400" font-style="normal" 
clip-path="url(#clip29354)" >
<polyline fill="none" vector-effect="none" points="107,378 107,376 " />
</g>

<g fill="none" stroke="#000000" stroke-opacity="1" stroke-width="1" stroke-linecap="square" stroke-linejoin="bevel" transform="matrix(2.24719,0,0,2.24719,-117.978,-812.36)"
font-family="Helvetica" font-size="16" font-weight="400" font-style="normal" 
clip-path="url(#clip29354)" >
<polyline fill="none" vector-effect="none" points="107,376 108,374 " />
</g>

<g fill="none" stroke="#000000" stroke-opacity="1" stroke-width="1" stroke-linecap="square" stroke-linejoin="bevel" transform="matrix(2.24719,0,0,2.24719,-117.978,-812.36)"
font-family="Helvetica" font-size="16" font-weight="400" font-style="normal" 
clip-path="url(#clip29354)" >
<polyline fill="none" vector-effect="none" points="108,374 110,370 " />
</g>

<g fill="none" stroke="#000000" stroke-opacity="1" stroke-width="1" stroke-linecap="square" stroke-linejoin="bevel" transform="matrix(2.24719,0,0,2.24719,-117.978,-812.36)"
font-family="Helvetica" font-size="16" font-weight="400" font-style="normal" 
clip-path="url(#clip29354)" >
<polyline fill="none" vector-effect="none" points="110,370 111,370 " />
</g>

<g fill="none" stroke="#000000" stroke-opacity="1" stroke-width="1" stroke-linecap="square" stroke-linejoin="bevel" transform="matrix(2.24719,0,0,2.24719,-117.978,-812.36)"
font-family="Helvetica" font-size="16" font-weight="400" font-style="normal" 
clip-path="url(#clip29354)" >
<polyline fill="none" vector-effect="none" points="111,370 113,373 " />
</g>

<g fill="none" stroke="#000000" stroke-opacity="1" stroke-width="1" stroke-linecap="square" stroke-linejoin="bevel" transform="matrix(2.24719,0,0,2.24719,-117.978,-812.36)"
font-family="Helvetica" font-size="16" font-weight="400" font-style="normal" 
clip-path="url(#clip29354)" >
<polyline fill="none" vector-effect="none" points="113,373 114,377 " />
</g>

<g fill="none" stroke="#000000" stroke-opacity="1" stroke-width="1" stroke-linecap="square" stroke-linejoin="bevel" transform="matrix(2.24719,0,0,2.24719,-117.978,-812.36)"
font-family="Helvetica" font-size="16" font-weight="400" font-style="normal" 
clip-path="url(#clip29354)" >
<polyline fill="none" vector-effect="none" points="114,377 116,378 " />
</g>

<g fill="none" stroke="#000000" stroke-opacity="1" stroke-width="1" stroke-linecap="square" stroke-linejoin="bevel" transform="matrix(2.24719,0,0,2.24719,-117.978,-812.36)"
font-family="Helvetica" font-size="16" font-weight="400" font-style="normal" 
clip-path="url(#clip29354)" >
<polyline fill="none" vector-effect="none" points="116,378 118,375 " />
</g>

<g fill="none" stroke="#000000" stroke-opacity="1" stroke-width="1" stroke-linecap="square" stroke-linejoin="bevel" transform="matrix(2.24719,0,0,2.24719,-117.978,-812.36)"
font-family="Helvetica" font-size="16" font-weight="400" font-style="normal" 
clip-path="url(#clip29354)" >
<polyline fill="none" vector-effect="none" points="118,375 118,374 " />
</g>

<g fill="none" stroke="#000000" stroke-opacity="1" stroke-width="1" stroke-linecap="square" stroke-linejoin="bevel" transform="matrix(2.24719,0,0,2.24719,-117.978,-812.36)"
font-family="Helvetica" font-size="16" font-weight="400" font-style="normal" 
clip-path="url(#clip29354)" >
<polyline fill="none" vector-effect="none" points="118,374 119,370 " />
</g>

<g fill="none" stroke="#000000" stroke-opacity="1" stroke-width="1" stroke-linecap="square" stroke-linejoin="bevel" transform="matrix(2.24719,0,0,2.24719,-117.978,-812.36)"
font-family="Helvetica" font-size="16" font-weight="400" font-style="normal" 
clip-path="url(#clip29354)" >
<polyline fill="none" vector-effect="none" points="119,370 120,370 " />
</g>

<g fill="none" stroke="#000000" stroke-opacity="1" stroke-width="1" stroke-linecap="square" stroke-linejoin="bevel" transform="matrix(2.24719,0,0,2.24719,-117.978,-812.36)"
font-family="Helvetica" font-size="16" font-weight="400" font-style="normal" 
clip-path="url(#clip29354)" >
<polyline fill="none" vector-effect="none" points="120,370 121,373 " />
</g>

<g fill="none" stroke="#000000" stroke-opacity="1" stroke-width="1" stroke-linecap="square" stroke-linejoin="bevel" transform="matrix(2.24719,0,0,2.24719,-117.978,-812.36)"
font-family="Helvetica" font-size="16" font-weight="400" font-style="normal" 
clip-path="url(#clip29354)" >
<polyline fill="none" vector-effect="none" points="121,373 122,377 " />
</g>

<g fill="none" stroke="#000000" stroke-opacity="1" stroke-width="1" stroke-linecap="square" stroke-linejoin="bevel" transform="matrix(2.24719,0,0,2.24719,-117.978,-812.36)"
font-family="Helvetica" font-size="16" font-weight="400" font-style="normal" 
clip-path="url(#clip29354)" >
<polyline fill="none" vector-effect="none" points="122,377 122,378 " />
</g>

<g fill="none" stroke="#000000" stroke-opacity="1" stroke-width="1" stroke-linecap="square" stroke-linejoin="bevel" transform="matrix(2.24719,0,0,2.24719,-117.978,-812.36)"
font-family="Helvetica" font-size="16" font-weight="400" font-style="normal" 
clip-path="url(#clip29354)" >
<polyline fill="none" vector-effect="none" points="122,378 123,375 " />
</g>

<g fill="none" stroke="#000000" stroke-opacity="1" stroke-width="1" stroke-linecap="square" stroke-linejoin="bevel" transform="matrix(2.24719,0,0,2.24719,-117.978,-812.36)"
font-family="Helvetica" font-size="16" font-weight="400" font-style="normal" 
clip-path="url(#clip29354)" >
<polyline fill="none" vector-effect="none" points="123,375 124,371 " />
</g>

<g fill="none" stroke="#000000" stroke-opacity="1" stroke-width="1" stroke-linecap="square" stroke-linejoin="bevel" transform="matrix(2.24719,0,0,2.24719,-117.978,-812.36)"
font-family="Helvetica" font-size="16" font-weight="400" font-style="normal" 
clip-path="url(#clip29354)" >
<polyline fill="none" vector-effect="none" points="124,371 125,369 " />
</g>

<g fill="none" stroke="#000000" stroke-opacity="1" stroke-width="1" stroke-linecap="square" stroke-linejoin="bevel" transform="matrix(2.24719,0,0,2.24719,-117.978,-812.36)"
font-family="Helvetica" font-size="16" font-weight="400" font-style="normal" 
clip-path="url(#clip29354)" >
<polyline fill="none" vector-effect="none" points="125,369 126,372 " />
</g>

<g fill="none" stroke="#000000" stroke-opacity="1" stroke-width="1" stroke-linecap="square" stroke-linejoin="bevel" transform="matrix(2.24719,0,0,2.24719,-117.978,-812.36)"
font-family="Helvetica" font-size="16" font-weight="400" font-style="normal" 
clip-path="url(#clip29354)" >
<polyline fill="none" vector-effect="none" points="126,372 126,377 " />
</g>

<g fill="none" stroke="#000000" stroke-opacity="1" stroke-width="1" stroke-linecap="square" stroke-linejoin="bevel" transform="matrix(2.24719,0,0,2.24719,-117.978,-812.36)"
font-family="Helvetica" font-size="16" font-weight="400" font-style="normal" 
clip-path="url(#clip29354)" >
<polyline fill="none" vector-effect="none" points="126,377 127,378 " />
</g>

<g fill="none" stroke="#000000" stroke-opacity="1" stroke-width="1" stroke-linecap="square" stroke-linejoin="bevel" transform="matrix(2.24719,0,0,2.24719,-117.978,-812.36)"
font-family="Helvetica" font-size="16" font-weight="400" font-style="normal" 
clip-path="url(#clip29354)" >
<polyline fill="none" vector-effect="none" points="127,378 128,376 " />
</g>

<g fill="none" stroke="#000000" stroke-opacity="1" stroke-width="1" stroke-linecap="square" stroke-linejoin="bevel" transform="matrix(2.24719,0,0,2.24719,98.8764,65.1685)"
font-family="FreeSans" font-size="13.7143" font-weight="400" font-style="normal" 
clip-path="url(#clip29355)" >
<defs><clipPath id="clip29355"><path vector-effect="none" fill-rule="evenodd" d="M-37,-27 L38,-27 L38,25 L-37,25 L-37,-27z "/>
</clipPath></defs></g>

<g fill="none" stroke="#000000" stroke-opacity="1" stroke-width="1" stroke-linecap="square" stroke-linejoin="bevel" transform="matrix(1.63858,0,0,1.63858,98.8764,65.1685)"
font-family="FreeSans" font-size="13.7143" font-weight="400" font-style="normal" 
clip-path="url(#clip29356)" >
<defs><clipPath id="clip29356"><path vector-effect="none" fill-rule="evenodd" d="M-51,-37 L52,-37 L52,34 L-51,34 L-51,-37z "/>
</clipPath></defs><text textLength="44" fill="#000000" fill-opacity="1" stroke="none" xml:space="preserve" x="-21.9375" y="4.125" font-family="FreeSans" font-size="13.7143" font-weight="400" font-style="normal" 
 >CPFSK</text>
</g>

<g fill="none" stroke="#000000" stroke-opacity="1" stroke-width="1" stroke-linecap="square" stroke-linejoin="bevel" transform="matrix(2.24719,0,0,2.24719,98.8764,65.1685)"
font-family="FreeSans" font-size="13.7143" font-weight="400" font-style="normal" 
clip-path="url(#clip29357)" >
<defs><clipPath id="clip29357"><path vector-effect="none" fill-rule="evenodd" d="M-37,-27 L38,-27 L38,25 L-37,25 L-37,-27z "/>
</clipPath></defs></g>

<g fill="none" stroke="#000000" stroke-opacity="1" stroke-width="1" stroke-linecap="square" stroke-linejoin="bevel" transform="matrix(3.08186,0,0,3.08186,98.8764,65.1685)"
font-family="FreeSans" font-size="13.7143" font-weight="400" font-style="normal" 
clip-path="url(#clip29358)" >
<defs><clipPath id="clip29358"><path vector-effect="none" fill-rule="evenodd" d="M-7,-2 L82,-2 L82,54 L-7,54 L-7,-2z "/>
</clipPath></defs></g>

<g fill="none" stroke="#000000" stroke-opacity="1" stroke-width="1" stroke-linecap="square" stroke-linejoin="bevel" transform="matrix(1,0,0,1,0,0)"
font-family="FreeSans" font-size="13.7143" font-weight="400" font-style="normal" 
clip-path="url(#clip29358)" >
</g>

<g fill="none" stroke="#000000" stroke-opacity="1" stroke-width="1" stroke-linecap="square" stroke-linejoin="bevel" transform="matrix(2.24719,0,0,2.24719,15.7303,4.49438)"
font-family="Helvetica" font-size="16" font-weight="400" font-style="normal" 
clip-path="url(#clip29358)" >
</g>

<g fill="none" stroke="#000000" stroke-opacity="1" stroke-width="1" stroke-linecap="square" stroke-linejoin="bevel" transform="matrix(2.24719,0,0,2.24719,15.7303,4.49438)"
font-family="Helvetica" font-size="16" font-weight="400" font-style="normal" 
clip-path="url(#clip29358)" >
</g>

<g fill="none" stroke="#000000" stroke-opacity="1" stroke-width="0.723343" stroke-linecap="butt" stroke-linejoin="miter" stroke-miterlimit="2" transform="matrix(2.24719,0,0,2.24719,15.7303,4.49438)"
font-family="Helvetica" font-size="16" font-weight="400" font-style="normal" 
clip-path="url(#clip29358)" >
<path vector-effect="none" fill-rule="evenodd" d="M0,0 L75,0 L75,52 L0,52 L0,0z "/>
</g>

<g fill="none" stroke="#000000" stroke-opacity="1" stroke-width="1" stroke-linecap="square" stroke-linejoin="bevel" transform="matrix(2.24719,0,0,2.24719,15.7303,4.49438)"
font-family="Helvetica" font-size="16" font-weight="400" font-style="normal" 
clip-path="url(#clip29358)" >
</g>

<g fill="none" stroke="#000000" stroke-opacity="1" stroke-width="1" stroke-linecap="square" stroke-linejoin="bevel" transform="matrix(2.24719,0,0,2.24719,15.7303,4.49438)"
font-family="Helvetica" font-size="16" font-weight="400" font-style="normal" 
clip-path="url(#clip29358)" >
</g>

<g fill="none" stroke="#000000" stroke-opacity="1" stroke-width="0.445" stroke-linecap="butt" stroke-linejoin="miter" stroke-miterlimit="2" transform="matrix(2.24719,0,0,2.24719,15.7303,4.49438)"
font-family="Helvetica" font-size="16" font-weight="400" font-style="normal" 
clip-path="url(#clip29358)" >
</g>

<g fill="none" stroke="#000000" stroke-opacity="1" stroke-width="1" stroke-linecap="square" stroke-linejoin="bevel" transform="matrix(2.24719,0,0,2.24719,15.7303,4.49438)"
font-family="Helvetica" font-size="16" font-weight="400" font-style="normal" 
clip-path="url(#clip29358)" >
</g>

<g fill="none" stroke="#000000" stroke-opacity="1" stroke-width="1" stroke-linecap="square" stroke-linejoin="bevel" transform="matrix(2.24719,0,0,2.24719,100,125.843)"
font-family="Helvetica" font-size="16" font-weight="400" font-style="normal" 
clip-path="url(#clip29359)" >
<defs><clipPath id="clip29359"><path vector-effect="non-scaling-stroke" fill-rule="evenodd" d="M-44.5,-56 L44.5,-56 L44.5,0 L-44.5,0 L-44.5,-56z "/>
</clipPath></defs></g>

<g fill="none" stroke="#000000" stroke-opacity="1" stroke-width="1" stroke-linecap="square" stroke-linejoin="bevel" transform="matrix(2.24719,0,0,2.24719,100,125.843)"
font-family="Helvetica" font-size="16" font-weight="400" font-style="normal" 
clip-path="url(#clip29359)" >
</g>

<g fill="none" stroke="#000000" stroke-opacity="1" stroke-width="1" stroke-linecap="square" stroke-linejoin="bevel" transform="matrix(1,0,0,1,0,0)"
font-family="Helvetica" font-size="16" font-weight="400" font-style="normal" 
>
</g>

<g fill="none" stroke="#000000" stroke-opacity="1" stroke-width="1" stroke-linecap="square" stroke-linejoin="bevel" transform="matrix(1,0,0,1,0,0)"
font-family="Helvetica" font-size="16" font-weight="400" font-style="normal" 
>
</g>

<g fill="none" stroke="#000000" stroke-opacity="1" stroke-width="1" stroke-linecap="square" stroke-linejoin="bevel" transform="matrix(1,0,0,1,0,0)"
font-family="Helvetica" font-size="16" font-weight="400" font-style="normal" 
clip-path="url(#clip29360)" >
<defs><clipPath id="clip29360"><path vector-effect="non-scaling-stroke" fill-rule="evenodd" d="M0,0 L200,0 L200,125 L0,125 L0,0z "/>
</clipPath></defs></g>

<g fill="none" stroke="#000000" stroke-opacity="1" stroke-width="1" stroke-linecap="square" stroke-linejoin="bevel" transform="matrix(1,0,0,1,0,0)"
font-family="Helvetica" font-size="16" font-weight="400" font-style="normal" 
>
</g>

<g fill="none" stroke="#000000" stroke-opacity="1" stroke-width="1" stroke-linecap="square" stroke-linejoin="bevel" transform="matrix(1,0,0,1,0,0)"
font-family="Helvetica" font-size="16" font-weight="400" font-style="normal" 
>
</g>

<g fill="none" stroke="#000000" stroke-opacity="1" stroke-width="1" stroke-linecap="square" stroke-linejoin="bevel" transform="matrix(1,0,0,1,0,0)"
font-family="Helvetica" font-size="16" font-weight="400" font-style="normal" 
clip-path="url(#clip29361)" >
<defs><clipPath id="clip29361"><path vector-effect="non-scaling-stroke" fill-rule="evenodd" d="M0,0 L1,0 L1,1 L0,1 L0,0z "/>
</clipPath></defs></g>

<g fill="none" stroke="#000000" stroke-opacity="1" stroke-width="1" stroke-linecap="square" stroke-linejoin="bevel" transform="matrix(1,0,0,1,0,0)"
font-family="Helvetica" font-size="16" font-weight="400" font-style="normal" 
>
</g>

<g fill="none" stroke="#000000" stroke-opacity="1" stroke-width="1" stroke-linecap="square" stroke-linejoin="bevel" transform="matrix(1,0,0,1,0,0)"
font-family="Helvetica" font-size="16" font-weight="400" font-style="normal" 
>
</g>
</g>
</svg>
