<?xml version="1.0" encoding="UTF-8" standalone="no"?>
<svg width="52.9167mm" height="21.6958mm"
 viewBox="0 0 200 82"
 xmlns="http://www.w3.org/2000/svg" xmlns:xlink="http://www.w3.org/1999/xlink"  version="1.2" baseProfile="tiny">
<defs>
</defs>
<g fill="none" stroke="black" stroke-width="1" fill-rule="evenodd" stroke-linecap="square" stroke-linejoin="bevel" >

<g fill="#ffffff" fill-opacity="0" stroke="none" transform="matrix(1,0,0,1,0,0)"
font-family="Helvetica" font-size="16" font-weight="400" font-style="normal" 
>
<path vector-effect="non-scaling-stroke" fill-rule="evenodd" d="M0,0 L200,0 L200,82 L0,82 L0,0z "/>
</g>

<g fill="none" stroke="#000000" stroke-opacity="1" stroke-width="1" stroke-linecap="square" stroke-linejoin="bevel" transform="matrix(1,0,0,1,0,0)"
font-family="Helvetica" font-size="16" font-weight="400" font-style="normal" 
>
</g>

<g fill="none" stroke="#000000" stroke-opacity="1" stroke-width="1" stroke-linecap="square" stroke-linejoin="bevel" transform="matrix(1,0,0,1,0,0)"
font-family="Helvetica" font-size="16" font-weight="400" font-style="normal" 
clip-path="url(#clip161)" >
<defs><clipPath id="clip161"><path vector-effect="non-scaling-stroke" fill-rule="evenodd" d="M0,0 L200,0 L200,82.0513 L0,82.0513 L0,0z "/>
</clipPath></defs></g>

<g fill="none" stroke="#000000" stroke-opacity="1" stroke-width="1" stroke-linecap="square" stroke-linejoin="bevel" transform="matrix(0.854701,0,0,0.854701,194.017,41.0256)"
font-family="Helvetica" font-size="16" font-weight="400" font-style="normal" 
clip-path="url(#clip162)" >
<defs><clipPath id="clip162"><path vector-effect="non-scaling-stroke" fill-rule="evenodd" d="M-227,-48 L7,-48 L7,48 L-227,48 L-227,-48z "/>
</clipPath></defs></g>

<g fill="#000000" fill-opacity="0" stroke="#000000" stroke-opacity="1" stroke-width="2" stroke-linecap="round" stroke-linejoin="miter" stroke-miterlimit="2" transform="matrix(0.854701,0,0,0.854701,194.017,41.0256)"
font-family="Helvetica" font-size="16" font-weight="400" font-style="normal" 
clip-path="url(#clip162)" >
<path vector-effect="none" fill-rule="evenodd" d="M0,-5 L5,0 L0,5"/>
</g>

<g fill="none" stroke="#000000" stroke-opacity="1" stroke-width="1" stroke-linecap="square" stroke-linejoin="bevel" transform="matrix(0.854701,0,0,0.854701,194.017,41.0256)"
font-family="Helvetica" font-size="16" font-weight="400" font-style="normal" 
clip-path="url(#clip162)" >
</g>

<g fill="none" stroke="#000000" stroke-opacity="1" stroke-width="1" stroke-linecap="square" stroke-linejoin="bevel" transform="matrix(-0.854701,0,0,-0.854701,5.98291,41.0256)"
font-family="Helvetica" font-size="16" font-weight="400" font-style="normal" 
clip-path="url(#clip163)" >
<defs><clipPath id="clip163"><path vector-effect="non-scaling-stroke" fill-rule="evenodd" d="M7,48 L-227,48 L-227,-48 L7,-48 L7,48z "/>
</clipPath></defs></g>

<g fill="#000000" fill-opacity="0" stroke="#000000" stroke-opacity="1" stroke-width="2" stroke-linecap="round" stroke-linejoin="miter" stroke-miterlimit="2" transform="matrix(-0.854701,0,0,-0.854701,5.98291,41.0256)"
font-family="Helvetica" font-size="16" font-weight="400" font-style="normal" 
clip-path="url(#clip163)" >
<path vector-effect="none" fill-rule="evenodd" d="M5,-5 L0,0 L5,5"/>
</g>

<g fill="none" stroke="#000000" stroke-opacity="1" stroke-width="1" stroke-linecap="square" stroke-linejoin="bevel" transform="matrix(-0.854701,0,0,-0.854701,5.98291,41.0256)"
font-family="Helvetica" font-size="16" font-weight="400" font-style="normal" 
clip-path="url(#clip163)" >
</g>

<g fill="none" stroke="#000000" stroke-opacity="1" stroke-width="1" stroke-linecap="square" stroke-linejoin="bevel" transform="matrix(0.854701,0,0,0.854701,5.98291,1.7094)"
font-family="Helvetica" font-size="16" font-weight="400" font-style="normal" 
clip-path="url(#clip164)" >
<defs><clipPath id="clip164"><path vector-effect="non-scaling-stroke" fill-rule="evenodd" d="M-7,-2 L227,-2 L227,94 L-7,94 L-7,-2z "/>
</clipPath></defs></g>

<g fill="#ffffff" fill-opacity="1" stroke="#000000" stroke-opacity="1" stroke-width="1" stroke-linecap="butt" stroke-linejoin="miter" stroke-miterlimit="2" transform="matrix(0.854701,0,0,0.854701,5.98291,1.7094)"
font-family="Helvetica" font-size="16" font-weight="400" font-style="normal" 
clip-path="url(#clip164)" >
<path vector-effect="none" fill-rule="evenodd" d="M0,0 L220,0 L220,92 L0,92 L0,0z "/>
</g>

<g fill="none" stroke="#000000" stroke-opacity="1" stroke-width="1" stroke-linecap="square" stroke-linejoin="bevel" transform="matrix(0.854701,0,0,0.854701,5.98291,1.7094)"
font-family="Helvetica" font-size="16" font-weight="400" font-style="normal" 
clip-path="url(#clip164)" >
</g>

<g fill="none" stroke="#000000" stroke-opacity="1" stroke-width="1" stroke-linecap="square" stroke-linejoin="bevel" transform="matrix(0.854701,0,0,0.854701,5.98291,1.7094)"
font-family="Helvetica" font-size="16" font-weight="400" font-style="normal" 
clip-path="url(#clip164)" >
</g>

<g fill="none" stroke="#000000" stroke-opacity="1" stroke-width="1" stroke-linecap="square" stroke-linejoin="bevel" transform="matrix(0.854701,0,0,0.854701,5.98291,1.7094)"
font-family="Helvetica" font-size="16" font-weight="400" font-style="normal" 
clip-path="url(#clip165)" >
<defs><clipPath id="clip165"><path vector-effect="non-scaling-stroke" fill-rule="evenodd" d="M0,0 L220,0 L220,92 L0,92 L0,0z "/>
</clipPath></defs></g>

<g fill="none" stroke="#000000" stroke-opacity="1" stroke-width="1" stroke-linecap="square" stroke-linejoin="bevel" transform="matrix(0.854701,0,0,0.854701,100,41.0256)"
font-family="FreeSans" font-size="10" font-weight="400" font-style="normal" 
clip-path="url(#clip166)" >
<defs><clipPath id="clip166"><path vector-effect="none" fill-rule="evenodd" d="M-110,-46 L110,-46 L110,46 L-110,46 L-110,-46z "/>
</clipPath></defs></g>

<g fill="none" stroke="#000000" stroke-opacity="1" stroke-width="1" stroke-linecap="square" stroke-linejoin="bevel" transform="matrix(0.854701,0,0,0.854701,100,41.0256)"
font-family="FreeSans" font-size="10" font-weight="400" font-style="normal" 
clip-path="url(#clip166)" >
<text textLength="50" fill="#000000" fill-opacity="1" stroke="none" xml:space="preserve" x="-24.5" y="3" font-family="FreeSans" font-size="10" font-weight="400" font-style="normal" 
 >DC Blocker</text>
</g>

<g fill="none" stroke="#000000" stroke-opacity="1" stroke-width="1" stroke-linecap="square" stroke-linejoin="bevel" transform="matrix(0.854701,0,0,0.854701,100,41.0256)"
font-family="FreeSans" font-size="10" font-weight="400" font-style="normal" 
clip-path="url(#clip166)" >
</g>

<g fill="none" stroke="#000000" stroke-opacity="1" stroke-width="1" stroke-linecap="square" stroke-linejoin="bevel" transform="matrix(0.854701,0,0,0.854701,100,41.0256)"
font-family="FreeSans" font-size="10" font-weight="400" font-style="normal" 
clip-path="url(#clip167)" >
<defs><clipPath id="clip167"><path vector-effect="none" fill-rule="evenodd" d="M-7,-2 L227,-2 L227,94 L-7,94 L-7,-2z "/>
</clipPath></defs></g>

<g fill="none" stroke="#000000" stroke-opacity="1" stroke-width="1" stroke-linecap="square" stroke-linejoin="bevel" transform="matrix(1,0,0,1,0,0)"
font-family="FreeSans" font-size="10" font-weight="400" font-style="normal" 
clip-path="url(#clip167)" >
</g>

<g fill="none" stroke="#000000" stroke-opacity="1" stroke-width="1" stroke-linecap="square" stroke-linejoin="bevel" transform="matrix(0.854701,0,0,0.854701,5.98291,1.7094)"
font-family="Helvetica" font-size="16" font-weight="400" font-style="normal" 
clip-path="url(#clip167)" >
</g>

<g fill="none" stroke="#000000" stroke-opacity="1" stroke-width="1" stroke-linecap="square" stroke-linejoin="bevel" transform="matrix(0.854701,0,0,0.854701,5.98291,1.7094)"
font-family="Helvetica" font-size="16" font-weight="400" font-style="normal" 
clip-path="url(#clip167)" >
</g>

<g fill="none" stroke="#000000" stroke-opacity="1" stroke-width="1" stroke-linecap="butt" stroke-linejoin="miter" stroke-miterlimit="2" transform="matrix(0.854701,0,0,0.854701,5.98291,1.7094)"
font-family="Helvetica" font-size="16" font-weight="400" font-style="normal" 
clip-path="url(#clip167)" >
<path vector-effect="none" fill-rule="evenodd" d="M0,0 L220,0 L220,92 L0,92 L0,0z "/>
</g>

<g fill="none" stroke="#000000" stroke-opacity="1" stroke-width="1" stroke-linecap="square" stroke-linejoin="bevel" transform="matrix(0.854701,0,0,0.854701,5.98291,1.7094)"
font-family="Helvetica" font-size="16" font-weight="400" font-style="normal" 
clip-path="url(#clip167)" >
</g>

<g fill="none" stroke="#000000" stroke-opacity="1" stroke-width="1" stroke-linecap="square" stroke-linejoin="bevel" transform="matrix(0.854701,0,0,0.854701,100,82.0513)"
font-family="Helvetica" font-size="16" font-weight="400" font-style="normal" 
clip-path="url(#clip168)" >
<defs><clipPath id="clip168"><path vector-effect="non-scaling-stroke" fill-rule="evenodd" d="M-117,-96 L117,-96 L117,0 L-117,0 L-117,-96z "/>
</clipPath></defs></g>

<g fill="none" stroke="#000000" stroke-opacity="1" stroke-width="1" stroke-linecap="square" stroke-linejoin="bevel" transform="matrix(0.854701,0,0,0.854701,100,82.0513)"
font-family="Helvetica" font-size="16" font-weight="400" font-style="normal" 
clip-path="url(#clip168)" >
</g>

<g fill="none" stroke="#000000" stroke-opacity="1" stroke-width="1" stroke-linecap="square" stroke-linejoin="bevel" transform="matrix(1,0,0,1,0,0)"
font-family="Helvetica" font-size="16" font-weight="400" font-style="normal" 
>
</g>

<g fill="none" stroke="#000000" stroke-opacity="1" stroke-width="1" stroke-linecap="square" stroke-linejoin="bevel" transform="matrix(1,0,0,1,0,0)"
font-family="Helvetica" font-size="16" font-weight="400" font-style="normal" 
>
</g>

<g fill="none" stroke="#000000" stroke-opacity="1" stroke-width="1" stroke-linecap="square" stroke-linejoin="bevel" transform="matrix(1,0,0,1,0,0)"
font-family="Helvetica" font-size="16" font-weight="400" font-style="normal" 
clip-path="url(#clip169)" >
<defs><clipPath id="clip169"><path vector-effect="non-scaling-stroke" fill-rule="evenodd" d="M0,0 L200,0 L200,82 L0,82 L0,0z "/>
</clipPath></defs></g>

<g fill="none" stroke="#000000" stroke-opacity="1" stroke-width="1" stroke-linecap="square" stroke-linejoin="bevel" transform="matrix(1,0,0,1,0,0)"
font-family="Helvetica" font-size="16" font-weight="400" font-style="normal" 
>
</g>

<g fill="none" stroke="#000000" stroke-opacity="1" stroke-width="1" stroke-linecap="square" stroke-linejoin="bevel" transform="matrix(1,0,0,1,0,0)"
font-family="Helvetica" font-size="16" font-weight="400" font-style="normal" 
>
</g>

<g fill="none" stroke="#000000" stroke-opacity="1" stroke-width="1" stroke-linecap="square" stroke-linejoin="bevel" transform="matrix(1,0,0,1,0,0)"
font-family="Helvetica" font-size="16" font-weight="400" font-style="normal" 
clip-path="url(#clip170)" >
<defs><clipPath id="clip170"><path vector-effect="non-scaling-stroke" fill-rule="evenodd" d="M0,0 L1,0 L1,1 L0,1 L0,0z "/>
</clipPath></defs></g>

<g fill="none" stroke="#000000" stroke-opacity="1" stroke-width="1" stroke-linecap="square" stroke-linejoin="bevel" transform="matrix(1,0,0,1,0,0)"
font-family="Helvetica" font-size="16" font-weight="400" font-style="normal" 
>
</g>

<g fill="none" stroke="#000000" stroke-opacity="1" stroke-width="1" stroke-linecap="square" stroke-linejoin="bevel" transform="matrix(1,0,0,1,0,0)"
font-family="Helvetica" font-size="16" font-weight="400" font-style="normal" 
>
</g>
</g>
</svg>
