<?xml version="1.0" encoding="UTF-8" standalone="no"?>
<svg width="67.7333mm" height="46.0587mm"
 viewBox="0 0 200 136"
 xmlns="http://www.w3.org/2000/svg" xmlns:xlink="http://www.w3.org/1999/xlink"  version="1.2" baseProfile="tiny">
<defs>
</defs>
<g fill="none" stroke="black" stroke-width="1" fill-rule="evenodd" stroke-linecap="square" stroke-linejoin="bevel" >

<g fill="#ffffff" fill-opacity="0" stroke="none" transform="matrix(1,0,0,1,0,0)"
font-family="Helvetica" font-size="12.5" font-weight="400" font-style="normal" 
>
<path vector-effect="non-scaling-stroke" fill-rule="evenodd" d="M0,0 L200,0 L200,136 L0,136 L0,0z "/>
</g>

<g fill="none" stroke="#000000" stroke-opacity="1" stroke-width="1" stroke-linecap="square" stroke-linejoin="bevel" transform="matrix(1,0,0,1,0,0)"
font-family="Helvetica" font-size="12.5" font-weight="400" font-style="normal" 
>
</g>

<g fill="none" stroke="#000000" stroke-opacity="1" stroke-width="1" stroke-linecap="square" stroke-linejoin="bevel" transform="matrix(1,0,0,1,0,0)"
font-family="Helvetica" font-size="12.5" font-weight="400" font-style="normal" 
clip-path="url(#clip19)" >
<defs><clipPath id="clip19"><path vector-effect="non-scaling-stroke" fill-rule="evenodd" d="M0,0 L200,0 L200,136.434 L0,136.434 L0,0z "/>
</clipPath></defs></g>

<g fill="none" stroke="#000000" stroke-opacity="1" stroke-width="1" stroke-linecap="square" stroke-linejoin="bevel" transform="matrix(1.55039,0,0,1.55039,189.147,114.729)"
font-family="Helvetica" font-size="12.5" font-weight="400" font-style="normal" 
clip-path="url(#clip20)" >
<defs><clipPath id="clip20"><path vector-effect="non-scaling-stroke" fill-rule="evenodd" d="M-122,-74 L7,-74 L7,14 L-122,14 L-122,-74z "/>
</clipPath></defs></g>

<g fill="#000000" fill-opacity="0" stroke="#000000" stroke-opacity="1" stroke-width="2" stroke-linecap="round" stroke-linejoin="miter" stroke-miterlimit="2" transform="matrix(1.55039,0,0,1.55039,189.147,114.729)"
font-family="Helvetica" font-size="12.5" font-weight="400" font-style="normal" 
clip-path="url(#clip20)" >
<path vector-effect="none" fill-rule="evenodd" d="M0,-5 L5,0 L0,5"/>
</g>

<g fill="none" stroke="#000000" stroke-opacity="1" stroke-width="1" stroke-linecap="square" stroke-linejoin="bevel" transform="matrix(1.55039,0,0,1.55039,189.147,114.729)"
font-family="Helvetica" font-size="12.5" font-weight="400" font-style="normal" 
clip-path="url(#clip20)" >
</g>

<g fill="none" stroke="#000000" stroke-opacity="1" stroke-width="1" stroke-linecap="square" stroke-linejoin="bevel" transform="matrix(1.55039,0,0,1.55039,189.147,68.2171)"
font-family="Helvetica" font-size="12.5" font-weight="400" font-style="normal" 
clip-path="url(#clip21)" >
<defs><clipPath id="clip21"><path vector-effect="non-scaling-stroke" fill-rule="evenodd" d="M-122,-44 L7,-44 L7,44 L-122,44 L-122,-44z "/>
</clipPath></defs></g>

<g fill="#000000" fill-opacity="0" stroke="#000000" stroke-opacity="1" stroke-width="2" stroke-linecap="round" stroke-linejoin="miter" stroke-miterlimit="2" transform="matrix(1.55039,0,0,1.55039,189.147,68.2171)"
font-family="Helvetica" font-size="12.5" font-weight="400" font-style="normal" 
clip-path="url(#clip21)" >
<path vector-effect="none" fill-rule="evenodd" d="M0,-5 L5,0 L0,5"/>
</g>

<g fill="none" stroke="#000000" stroke-opacity="1" stroke-width="1" stroke-linecap="square" stroke-linejoin="bevel" transform="matrix(1.55039,0,0,1.55039,189.147,68.2171)"
font-family="Helvetica" font-size="12.5" font-weight="400" font-style="normal" 
clip-path="url(#clip21)" >
</g>

<g fill="none" stroke="#000000" stroke-opacity="1" stroke-width="1" stroke-linecap="square" stroke-linejoin="bevel" transform="matrix(1.55039,0,0,1.55039,189.147,21.7054)"
font-family="Helvetica" font-size="12.5" font-weight="400" font-style="normal" 
clip-path="url(#clip22)" >
<defs><clipPath id="clip22"><path vector-effect="non-scaling-stroke" fill-rule="evenodd" d="M-122,-14 L7,-14 L7,74 L-122,74 L-122,-14z "/>
</clipPath></defs></g>

<g fill="#000000" fill-opacity="0" stroke="#000000" stroke-opacity="1" stroke-width="2" stroke-linecap="round" stroke-linejoin="miter" stroke-miterlimit="2" transform="matrix(1.55039,0,0,1.55039,189.147,21.7054)"
font-family="Helvetica" font-size="12.5" font-weight="400" font-style="normal" 
clip-path="url(#clip22)" >
<path vector-effect="none" fill-rule="evenodd" d="M0,-5 L5,0 L0,5"/>
</g>

<g fill="none" stroke="#000000" stroke-opacity="1" stroke-width="1" stroke-linecap="square" stroke-linejoin="bevel" transform="matrix(1.55039,0,0,1.55039,189.147,21.7054)"
font-family="Helvetica" font-size="12.5" font-weight="400" font-style="normal" 
clip-path="url(#clip22)" >
</g>

<g fill="none" stroke="#000000" stroke-opacity="1" stroke-width="1" stroke-linecap="square" stroke-linejoin="bevel" transform="matrix(-1.55039,0,0,-1.55039,10.8527,99.2248)"
font-family="Helvetica" font-size="12.5" font-weight="400" font-style="normal" 
clip-path="url(#clip23)" >
<defs><clipPath id="clip23"><path vector-effect="non-scaling-stroke" fill-rule="evenodd" d="M7,64 L-122,64 L-122,-24 L7,-24 L7,64z "/>
</clipPath></defs></g>

<g fill="#000000" fill-opacity="0" stroke="#000000" stroke-opacity="1" stroke-width="2" stroke-linecap="round" stroke-linejoin="miter" stroke-miterlimit="2" transform="matrix(-1.55039,0,0,-1.55039,10.8527,99.2248)"
font-family="Helvetica" font-size="12.5" font-weight="400" font-style="normal" 
clip-path="url(#clip23)" >
<path vector-effect="none" fill-rule="evenodd" d="M5,-5 L0,0 L5,5"/>
</g>

<g fill="none" stroke="#000000" stroke-opacity="1" stroke-width="1" stroke-linecap="square" stroke-linejoin="bevel" transform="matrix(-1.55039,0,0,-1.55039,10.8527,99.2248)"
font-family="Helvetica" font-size="12.5" font-weight="400" font-style="normal" 
clip-path="url(#clip23)" >
</g>

<g fill="none" stroke="#000000" stroke-opacity="1" stroke-width="1" stroke-linecap="square" stroke-linejoin="bevel" transform="matrix(-1.55039,0,0,-1.55039,10.8527,37.2093)"
font-family="Helvetica" font-size="12.5" font-weight="400" font-style="normal" 
clip-path="url(#clip24)" >
<defs><clipPath id="clip24"><path vector-effect="non-scaling-stroke" fill-rule="evenodd" d="M7,24 L-122,24 L-122,-64 L7,-64 L7,24z "/>
</clipPath></defs></g>

<g fill="#000000" fill-opacity="0" stroke="#000000" stroke-opacity="1" stroke-width="2" stroke-linecap="round" stroke-linejoin="miter" stroke-miterlimit="2" transform="matrix(-1.55039,0,0,-1.55039,10.8527,37.2093)"
font-family="Helvetica" font-size="12.5" font-weight="400" font-style="normal" 
clip-path="url(#clip24)" >
<path vector-effect="none" fill-rule="evenodd" d="M5,-5 L0,0 L5,5"/>
</g>

<g fill="none" stroke="#000000" stroke-opacity="1" stroke-width="1" stroke-linecap="square" stroke-linejoin="bevel" transform="matrix(-1.55039,0,0,-1.55039,10.8527,37.2093)"
font-family="Helvetica" font-size="12.5" font-weight="400" font-style="normal" 
clip-path="url(#clip24)" >
</g>

<g fill="none" stroke="#000000" stroke-opacity="1" stroke-width="1" stroke-linecap="square" stroke-linejoin="bevel" transform="matrix(1.55039,0,0,1.55039,10.8527,3.10078)"
font-family="Helvetica" font-size="12.5" font-weight="400" font-style="normal" 
clip-path="url(#clip25)" >
<defs><clipPath id="clip25"><path vector-effect="non-scaling-stroke" fill-rule="evenodd" d="M-7,-2 L122,-2 L122,86 L-7,86 L-7,-2z "/>
</clipPath></defs></g>

<g fill="#ffffff" fill-opacity="1" stroke="none" transform="matrix(1.55039,0,0,1.55039,10.8527,3.10078)"
font-family="Helvetica" font-size="12.5" font-weight="400" font-style="normal" 
clip-path="url(#clip25)" >
<path vector-effect="none" fill-rule="evenodd" d="M0,0 L115,0 L115,84 L0,84 L0,0z "/>
</g>

<g fill="none" stroke="#000000" stroke-opacity="1" stroke-width="1" stroke-linecap="square" stroke-linejoin="bevel" transform="matrix(1.55039,0,0,1.55039,10.8527,3.10078)"
font-family="Helvetica" font-size="12.5" font-weight="400" font-style="normal" 
clip-path="url(#clip25)" >
</g>

<g fill="none" stroke="#000000" stroke-opacity="1" stroke-width="1" stroke-linecap="square" stroke-linejoin="bevel" transform="matrix(1.55039,0,0,1.55039,10.8527,3.10078)"
font-family="Helvetica" font-size="12.5" font-weight="400" font-style="normal" 
clip-path="url(#clip25)" >
</g>

<g fill="none" stroke="#000000" stroke-opacity="1" stroke-width="1" stroke-linecap="square" stroke-linejoin="bevel" transform="matrix(1.55039,0,0,1.55039,10.8527,3.10078)"
font-family="Helvetica" font-size="12.5" font-weight="400" font-style="normal" 
clip-path="url(#clip26)" >
<defs><clipPath id="clip26"><path vector-effect="non-scaling-stroke" fill-rule="evenodd" d="M0,0 L115,0 L115,84 L0,84 L0,0z "/>
</clipPath></defs></g>

<g fill="none" stroke="#000000" stroke-opacity="1" stroke-width="1" stroke-linecap="square" stroke-linejoin="bevel" transform="matrix(1.55039,0,0,1.55039,15.5039,37.2093)"
font-family="Liberation Sans" font-size="9" font-weight="400" font-style="normal" 
clip-path="url(#clip27)" >
<defs><clipPath id="clip27"><path vector-effect="none" fill-rule="evenodd" d="M-3,-22 L112,-22 L112,62 L-3,62 L-3,-22z "/>
</clipPath></defs></g>

<g fill="none" stroke="#000000" stroke-opacity="1" stroke-width="1" stroke-linecap="square" stroke-linejoin="bevel" transform="matrix(1.55039,0,0,1.55039,15.5039,37.2093)"
font-family="Liberation Sans" font-size="9" font-weight="400" font-style="normal" 
clip-path="url(#clip27)" >
<text textLength="21" fill="#000000" fill-opacity="1" stroke="none" xml:space="preserve" x="0" y="3" font-family="Liberation Sans" font-size="9" font-weight="400" font-style="normal" 
 >Input</text>
</g>

<g fill="none" stroke="#000000" stroke-opacity="1" stroke-width="1" stroke-linecap="square" stroke-linejoin="bevel" transform="matrix(1.55039,0,0,1.55039,15.5039,37.2093)"
font-family="Liberation Sans" font-size="9" font-weight="400" font-style="normal" 
clip-path="url(#clip27)" >
</g>

<g fill="none" stroke="#000000" stroke-opacity="1" stroke-width="1" stroke-linecap="square" stroke-linejoin="bevel" transform="matrix(1.55039,0,0,1.55039,15.5039,99.2248)"
font-family="Liberation Sans" font-size="9" font-weight="400" font-style="normal" 
clip-path="url(#clip28)" >
<defs><clipPath id="clip28"><path vector-effect="none" fill-rule="evenodd" d="M-3,-62 L112,-62 L112,22 L-3,22 L-3,-62z "/>
</clipPath></defs></g>

<g fill="none" stroke="#000000" stroke-opacity="1" stroke-width="1" stroke-linecap="square" stroke-linejoin="bevel" transform="matrix(1.55039,0,0,1.55039,15.5039,99.2248)"
font-family="Liberation Sans" font-size="9" font-weight="400" font-style="normal" 
clip-path="url(#clip28)" >
<text textLength="32" fill="#000000" fill-opacity="1" stroke="none" xml:space="preserve" x="0" y="3" font-family="Liberation Sans" font-size="9" font-weight="400" font-style="normal" 
 >Desired</text>
</g>

<g fill="none" stroke="#000000" stroke-opacity="1" stroke-width="1" stroke-linecap="square" stroke-linejoin="bevel" transform="matrix(1.55039,0,0,1.55039,15.5039,99.2248)"
font-family="Liberation Sans" font-size="9" font-weight="400" font-style="normal" 
clip-path="url(#clip28)" >
</g>

<g fill="none" stroke="#000000" stroke-opacity="1" stroke-width="1" stroke-linecap="square" stroke-linejoin="bevel" transform="matrix(1.55039,0,0,1.55039,184.496,21.7054)"
font-family="Liberation Sans" font-size="9" font-weight="400" font-style="normal" 
clip-path="url(#clip29)" >
<defs><clipPath id="clip29"><path vector-effect="none" fill-rule="evenodd" d="M-112,-12 L3,-12 L3,72 L-112,72 L-112,-12z "/>
</clipPath></defs></g>

<g fill="none" stroke="#000000" stroke-opacity="1" stroke-width="1" stroke-linecap="square" stroke-linejoin="bevel" transform="matrix(1.55039,0,0,1.55039,184.496,21.7054)"
font-family="Liberation Sans" font-size="9" font-weight="400" font-style="normal" 
clip-path="url(#clip29)" >
<text textLength="28" fill="#000000" fill-opacity="1" stroke="none" xml:space="preserve" x="-28" y="3" font-family="Liberation Sans" font-size="9" font-weight="400" font-style="normal" 
 >Output</text>
</g>

<g fill="none" stroke="#000000" stroke-opacity="1" stroke-width="1" stroke-linecap="square" stroke-linejoin="bevel" transform="matrix(1.55039,0,0,1.55039,184.496,21.7054)"
font-family="Liberation Sans" font-size="9" font-weight="400" font-style="normal" 
clip-path="url(#clip29)" >
</g>

<g fill="none" stroke="#000000" stroke-opacity="1" stroke-width="1" stroke-linecap="square" stroke-linejoin="bevel" transform="matrix(1.55039,0,0,1.55039,184.496,68.2171)"
font-family="Liberation Sans" font-size="9" font-weight="400" font-style="normal" 
clip-path="url(#clip30)" >
<defs><clipPath id="clip30"><path vector-effect="none" fill-rule="evenodd" d="M-112,-42 L3,-42 L3,42 L-112,42 L-112,-42z "/>
</clipPath></defs></g>

<g fill="none" stroke="#000000" stroke-opacity="1" stroke-width="1" stroke-linecap="square" stroke-linejoin="bevel" transform="matrix(1.55039,0,0,1.55039,184.496,68.2171)"
font-family="Liberation Sans" font-size="9" font-weight="400" font-style="normal" 
clip-path="url(#clip30)" >
<text textLength="20" fill="#000000" fill-opacity="1" stroke="none" xml:space="preserve" x="-20" y="3" font-family="Liberation Sans" font-size="9" font-weight="400" font-style="normal" 
 >Error</text>
</g>

<g fill="none" stroke="#000000" stroke-opacity="1" stroke-width="1" stroke-linecap="square" stroke-linejoin="bevel" transform="matrix(1.55039,0,0,1.55039,184.496,68.2171)"
font-family="Liberation Sans" font-size="9" font-weight="400" font-style="normal" 
clip-path="url(#clip30)" >
</g>

<g fill="none" stroke="#000000" stroke-opacity="1" stroke-width="1" stroke-linecap="square" stroke-linejoin="bevel" transform="matrix(1.55039,0,0,1.55039,184.496,114.729)"
font-family="Liberation Sans" font-size="9" font-weight="400" font-style="normal" 
clip-path="url(#clip31)" >
<defs><clipPath id="clip31"><path vector-effect="none" fill-rule="evenodd" d="M-112,-72 L3,-72 L3,12 L-112,12 L-112,-72z "/>
</clipPath></defs></g>

<g fill="none" stroke="#000000" stroke-opacity="1" stroke-width="1" stroke-linecap="square" stroke-linejoin="bevel" transform="matrix(1.55039,0,0,1.55039,184.496,114.729)"
font-family="Liberation Sans" font-size="9" font-weight="400" font-style="normal" 
clip-path="url(#clip31)" >
<text textLength="17" fill="#000000" fill-opacity="1" stroke="none" xml:space="preserve" x="-17" y="3" font-family="Liberation Sans" font-size="9" font-weight="400" font-style="normal" 
 >Wts</text>
</g>

<g fill="none" stroke="#000000" stroke-opacity="1" stroke-width="1" stroke-linecap="square" stroke-linejoin="bevel" transform="matrix(1.55039,0,0,1.55039,184.496,114.729)"
font-family="Liberation Sans" font-size="9" font-weight="400" font-style="normal" 
clip-path="url(#clip31)" >
</g>

<g fill="none" stroke="#000000" stroke-opacity="1" stroke-width="1" stroke-linecap="square" stroke-linejoin="bevel" transform="matrix(1.55039,0,0,1.55039,99.2248,60.4651)"
font-family="Liberation Sans" font-size="10" font-weight="400" font-style="normal" 
clip-path="url(#clip32)" >
<defs><clipPath id="clip32"><path vector-effect="none" fill-rule="evenodd" d="M-57,-37 L58,-37 L58,47 L-57,47 L-57,-37z "/>
</clipPath></defs></g>

<g fill="none" stroke="#000000" stroke-opacity="1" stroke-width="1" stroke-linecap="square" stroke-linejoin="bevel" transform="matrix(1.55039,0,0,1.55039,99.2248,60.4651)"
font-family="Liberation Sans" font-size="10" font-weight="400" font-style="normal" 
clip-path="url(#clip32)" >
<text textLength="48" fill="#000000" fill-opacity="1" stroke="none" xml:space="preserve" x="-24" y="3" font-family="Liberation Sans" font-size="10" font-weight="400" font-style="normal" 
 >Fast Block</text>
</g>

<g fill="none" stroke="#000000" stroke-opacity="1" stroke-width="1" stroke-linecap="square" stroke-linejoin="bevel" transform="matrix(1.55039,0,0,1.55039,99.2248,60.4651)"
font-family="Liberation Sans" font-size="10" font-weight="400" font-style="normal" 
clip-path="url(#clip32)" >
</g>

<g fill="none" stroke="#000000" stroke-opacity="1" stroke-width="1" stroke-linecap="square" stroke-linejoin="bevel" transform="matrix(1.55039,0,0,1.55039,99.2248,75.969)"
font-family="Liberation Sans" font-size="10" font-weight="400" font-style="normal" 
clip-path="url(#clip33)" >
<defs><clipPath id="clip33"><path vector-effect="none" fill-rule="evenodd" d="M-57,-47 L58,-47 L58,37 L-57,37 L-57,-47z "/>
</clipPath></defs></g>

<g fill="none" stroke="#000000" stroke-opacity="1" stroke-width="1" stroke-linecap="square" stroke-linejoin="bevel" transform="matrix(1.55039,0,0,1.55039,99.2248,75.969)"
font-family="Liberation Sans" font-size="10" font-weight="400" font-style="normal" 
clip-path="url(#clip33)" >
<text textLength="22" fill="#000000" fill-opacity="1" stroke="none" xml:space="preserve" x="-11" y="3" font-family="Liberation Sans" font-size="10" font-weight="400" font-style="normal" 
 >LMS</text>
</g>

<g fill="none" stroke="#000000" stroke-opacity="1" stroke-width="1" stroke-linecap="square" stroke-linejoin="bevel" transform="matrix(1.55039,0,0,1.55039,99.2248,75.969)"
font-family="Liberation Sans" font-size="10" font-weight="400" font-style="normal" 
clip-path="url(#clip33)" >
</g>

<g fill="none" stroke="#000000" stroke-opacity="1" stroke-width="1" stroke-linecap="square" stroke-linejoin="bevel" transform="matrix(1.55039,0,0,1.55039,99.2248,75.969)"
font-family="Liberation Sans" font-size="10" font-weight="400" font-style="normal" 
clip-path="url(#clip34)" >
<defs><clipPath id="clip34"><path vector-effect="none" fill-rule="evenodd" d="M-7,-2 L122,-2 L122,86 L-7,86 L-7,-2z "/>
</clipPath></defs></g>

<g fill="none" stroke="#000000" stroke-opacity="1" stroke-width="1" stroke-linecap="square" stroke-linejoin="bevel" transform="matrix(1,0,0,1,0,0)"
font-family="Liberation Sans" font-size="10" font-weight="400" font-style="normal" 
clip-path="url(#clip34)" >
</g>

<g fill="none" stroke="#000000" stroke-opacity="1" stroke-width="1" stroke-linecap="square" stroke-linejoin="bevel" transform="matrix(1.55039,0,0,1.55039,10.8527,3.10078)"
font-family="Helvetica" font-size="12.5" font-weight="400" font-style="normal" 
clip-path="url(#clip34)" >
</g>

<g fill="none" stroke="#000000" stroke-opacity="1" stroke-width="1" stroke-linecap="square" stroke-linejoin="bevel" transform="matrix(1.55039,0,0,1.55039,10.8527,3.10078)"
font-family="Helvetica" font-size="12.5" font-weight="400" font-style="normal" 
clip-path="url(#clip34)" >
</g>

<g fill="none" stroke="#000000" stroke-opacity="1" stroke-width="0.83912" stroke-linecap="butt" stroke-linejoin="miter" stroke-miterlimit="2" transform="matrix(1.55039,0,0,1.55039,10.8527,3.10078)"
font-family="Helvetica" font-size="12.5" font-weight="400" font-style="normal" 
clip-path="url(#clip34)" >
<path vector-effect="none" fill-rule="evenodd" d="M0,0 L115,0 L115,84 L0,84 L0,0z "/>
</g>

<g fill="none" stroke="#000000" stroke-opacity="1" stroke-width="1" stroke-linecap="square" stroke-linejoin="bevel" transform="matrix(1.55039,0,0,1.55039,10.8527,3.10078)"
font-family="Helvetica" font-size="12.5" font-weight="400" font-style="normal" 
clip-path="url(#clip34)" >
</g>

<g fill="none" stroke="#000000" stroke-opacity="1" stroke-width="1" stroke-linecap="square" stroke-linejoin="bevel" transform="matrix(1,0,0,1,0,0)"
font-family="Helvetica" font-size="12.5" font-weight="400" font-style="normal" 
>
</g>

<g fill="none" stroke="#000000" stroke-opacity="1" stroke-width="1" stroke-linecap="square" stroke-linejoin="bevel" transform="matrix(1,0,0,1,0,0)"
font-family="Helvetica" font-size="12.5" font-weight="400" font-style="normal" 
>
</g>

<g fill="none" stroke="#000000" stroke-opacity="1" stroke-width="1" stroke-linecap="square" stroke-linejoin="bevel" transform="matrix(1,0,0,1,0,0)"
font-family="Helvetica" font-size="12.5" font-weight="400" font-style="normal" 
clip-path="url(#clip35)" >
<defs><clipPath id="clip35"><path vector-effect="non-scaling-stroke" fill-rule="evenodd" d="M0,0 L200,0 L200,136 L0,136 L0,0z "/>
</clipPath></defs></g>

<g fill="none" stroke="#000000" stroke-opacity="1" stroke-width="1" stroke-linecap="square" stroke-linejoin="bevel" transform="matrix(1,0,0,1,0,0)"
font-family="Helvetica" font-size="12.5" font-weight="400" font-style="normal" 
>
</g>

<g fill="none" stroke="#000000" stroke-opacity="1" stroke-width="1" stroke-linecap="square" stroke-linejoin="bevel" transform="matrix(1,0,0,1,0,0)"
font-family="Helvetica" font-size="12.5" font-weight="400" font-style="normal" 
>
</g>

<g fill="none" stroke="#000000" stroke-opacity="1" stroke-width="1" stroke-linecap="square" stroke-linejoin="bevel" transform="matrix(1,0,0,1,0,0)"
font-family="Helvetica" font-size="12.5" font-weight="400" font-style="normal" 
clip-path="url(#clip36)" >
<defs><clipPath id="clip36"><path vector-effect="non-scaling-stroke" fill-rule="evenodd" d="M0,0 L1,0 L1,1 L0,1 L0,0z "/>
</clipPath></defs></g>

<g fill="none" stroke="#000000" stroke-opacity="1" stroke-width="1" stroke-linecap="square" stroke-linejoin="bevel" transform="matrix(1,0,0,1,0,0)"
font-family="Helvetica" font-size="12.5" font-weight="400" font-style="normal" 
>
</g>

<g fill="none" stroke="#000000" stroke-opacity="1" stroke-width="1" stroke-linecap="square" stroke-linejoin="bevel" transform="matrix(1,0,0,1,0,0)"
font-family="Helvetica" font-size="12.5" font-weight="400" font-style="normal" 
>
</g>
</g>
</svg>
