<?xml version="1.0" encoding="UTF-8" standalone="no"?>
<svg width="52.9167mm" height="17.9917mm"
 viewBox="0 0 200 68"
 xmlns="http://www.w3.org/2000/svg" xmlns:xlink="http://www.w3.org/1999/xlink"  version="1.2" baseProfile="tiny">
<defs>
</defs>
<g fill="none" stroke="black" stroke-width="1" fill-rule="evenodd" stroke-linecap="square" stroke-linejoin="bevel" >

<g fill="#ffffff" fill-opacity="0" stroke="none" transform="matrix(1,0,0,1,0,0)"
font-family="Helvetica" font-size="16" font-weight="400" font-style="normal" 
>
<path vector-effect="non-scaling-stroke" fill-rule="evenodd" d="M0,0 L200,0 L200,68 L0,68 L0,0z "/>
</g>

<g fill="none" stroke="#000000" stroke-opacity="1" stroke-width="1" stroke-linecap="square" stroke-linejoin="bevel" transform="matrix(1,0,0,1,0,0)"
font-family="Helvetica" font-size="16" font-weight="400" font-style="normal" 
>
</g>

<g fill="none" stroke="#000000" stroke-opacity="1" stroke-width="1" stroke-linecap="square" stroke-linejoin="bevel" transform="matrix(1,0,0,1,0,0)"
font-family="Helvetica" font-size="16" font-weight="400" font-style="normal" 
clip-path="url(#clip714)" >
<defs><clipPath id="clip714"><path vector-effect="non-scaling-stroke" fill-rule="evenodd" d="M0,0 L200,0 L200,68.2171 L0,68.2171 L0,0z "/>
</clipPath></defs></g>

<g fill="none" stroke="#000000" stroke-opacity="1" stroke-width="1" stroke-linecap="square" stroke-linejoin="bevel" transform="matrix(1.55039,0,0,1.55039,189.147,34.1085)"
font-family="Helvetica" font-size="16" font-weight="400" font-style="normal" 
clip-path="url(#clip715)" >
<defs><clipPath id="clip715"><path vector-effect="non-scaling-stroke" fill-rule="evenodd" d="M-122,-22 L7,-22 L7,22 L-122,22 L-122,-22z "/>
</clipPath></defs></g>

<g fill="#000000" fill-opacity="0" stroke="#000000" stroke-opacity="1" stroke-width="2" stroke-linecap="round" stroke-linejoin="miter" stroke-miterlimit="2" transform="matrix(1.55039,0,0,1.55039,189.147,34.1085)"
font-family="Helvetica" font-size="16" font-weight="400" font-style="normal" 
clip-path="url(#clip715)" >
<path vector-effect="none" fill-rule="evenodd" d="M0,-5 L5,0 L0,5"/>
</g>

<g fill="none" stroke="#000000" stroke-opacity="1" stroke-width="1" stroke-linecap="square" stroke-linejoin="bevel" transform="matrix(1.55039,0,0,1.55039,189.147,34.1085)"
font-family="Helvetica" font-size="16" font-weight="400" font-style="normal" 
clip-path="url(#clip715)" >
</g>

<g fill="none" stroke="#000000" stroke-opacity="1" stroke-width="1" stroke-linecap="square" stroke-linejoin="bevel" transform="matrix(-1.55039,0,0,-1.55039,10.8527,49.6124)"
font-family="Helvetica" font-size="16" font-weight="400" font-style="normal" 
clip-path="url(#clip716)" >
<defs><clipPath id="clip716"><path vector-effect="non-scaling-stroke" fill-rule="evenodd" d="M7,32 L-122,32 L-122,-12 L7,-12 L7,32z "/>
</clipPath></defs></g>

<g fill="#000000" fill-opacity="0" stroke="#000000" stroke-opacity="1" stroke-width="2" stroke-linecap="round" stroke-linejoin="miter" stroke-miterlimit="2" transform="matrix(-1.55039,0,0,-1.55039,10.8527,49.6124)"
font-family="Helvetica" font-size="16" font-weight="400" font-style="normal" 
clip-path="url(#clip716)" >
<path vector-effect="none" fill-rule="evenodd" d="M5,-5 L0,0 L5,5"/>
</g>

<g fill="none" stroke="#000000" stroke-opacity="1" stroke-width="1" stroke-linecap="square" stroke-linejoin="bevel" transform="matrix(-1.55039,0,0,-1.55039,10.8527,49.6124)"
font-family="Helvetica" font-size="16" font-weight="400" font-style="normal" 
clip-path="url(#clip716)" >
</g>

<g fill="none" stroke="#000000" stroke-opacity="1" stroke-width="1" stroke-linecap="square" stroke-linejoin="bevel" transform="matrix(-1.55039,0,0,-1.55039,10.8527,18.6047)"
font-family="Helvetica" font-size="16" font-weight="400" font-style="normal" 
clip-path="url(#clip717)" >
<defs><clipPath id="clip717"><path vector-effect="non-scaling-stroke" fill-rule="evenodd" d="M7,12 L-122,12 L-122,-32 L7,-32 L7,12z "/>
</clipPath></defs></g>

<g fill="#000000" fill-opacity="0" stroke="#000000" stroke-opacity="1" stroke-width="2" stroke-linecap="round" stroke-linejoin="miter" stroke-miterlimit="2" transform="matrix(-1.55039,0,0,-1.55039,10.8527,18.6047)"
font-family="Helvetica" font-size="16" font-weight="400" font-style="normal" 
clip-path="url(#clip717)" >
<path vector-effect="none" fill-rule="evenodd" d="M5,-5 L0,0 L5,5"/>
</g>

<g fill="none" stroke="#000000" stroke-opacity="1" stroke-width="1" stroke-linecap="square" stroke-linejoin="bevel" transform="matrix(-1.55039,0,0,-1.55039,10.8527,18.6047)"
font-family="Helvetica" font-size="16" font-weight="400" font-style="normal" 
clip-path="url(#clip717)" >
</g>

<g fill="none" stroke="#000000" stroke-opacity="1" stroke-width="1" stroke-linecap="square" stroke-linejoin="bevel" transform="matrix(1.55039,0,0,1.55039,10.8527,3.10078)"
font-family="Helvetica" font-size="16" font-weight="400" font-style="normal" 
clip-path="url(#clip718)" >
<defs><clipPath id="clip718"><path vector-effect="non-scaling-stroke" fill-rule="evenodd" d="M-7,-2 L122,-2 L122,42 L-7,42 L-7,-2z "/>
</clipPath></defs></g>

<g fill="#ffffff" fill-opacity="1" stroke="#000000" stroke-opacity="1" stroke-width="0.83912" stroke-linecap="butt" stroke-linejoin="miter" stroke-miterlimit="2" transform="matrix(1.55039,0,0,1.55039,10.8527,3.10078)"
font-family="Helvetica" font-size="16" font-weight="400" font-style="normal" 
clip-path="url(#clip718)" >
<path vector-effect="none" fill-rule="evenodd" d="M0,0 L115,0 L115,40 L0,40 L0,0z "/>
</g>

<g fill="none" stroke="#000000" stroke-opacity="1" stroke-width="1" stroke-linecap="square" stroke-linejoin="bevel" transform="matrix(1.55039,0,0,1.55039,10.8527,3.10078)"
font-family="Helvetica" font-size="16" font-weight="400" font-style="normal" 
clip-path="url(#clip718)" >
</g>

<g fill="none" stroke="#000000" stroke-opacity="1" stroke-width="1" stroke-linecap="square" stroke-linejoin="bevel" transform="matrix(1.55039,0,0,1.55039,10.8527,3.10078)"
font-family="Helvetica" font-size="16" font-weight="400" font-style="normal" 
clip-path="url(#clip718)" >
</g>

<g fill="none" stroke="#000000" stroke-opacity="1" stroke-width="1" stroke-linecap="square" stroke-linejoin="bevel" transform="matrix(1.55039,0,0,1.55039,10.8527,3.10078)"
font-family="Helvetica" font-size="16" font-weight="400" font-style="normal" 
clip-path="url(#clip719)" >
<defs><clipPath id="clip719"><path vector-effect="non-scaling-stroke" fill-rule="evenodd" d="M0,0 L115,0 L115,40 L0,40 L0,0z "/>
</clipPath></defs></g>

<g fill="none" stroke="#000000" stroke-opacity="1" stroke-width="1" stroke-linecap="square" stroke-linejoin="bevel" transform="matrix(1.55039,0,0,1.55039,99.2248,26.3566)"
font-family="FreeSans" font-size="11.1628" font-weight="400" font-style="normal" 
clip-path="url(#clip720)" >
<defs><clipPath id="clip720"><path vector-effect="none" fill-rule="evenodd" d="M-57,-15 L58,-15 L58,25 L-57,25 L-57,-15z "/>
</clipPath></defs></g>

<g fill="none" stroke="#000000" stroke-opacity="1" stroke-width="1" stroke-linecap="square" stroke-linejoin="bevel" transform="matrix(1.38889,0,0,1.38889,99.2248,26.3566)"
font-family="FreeSans" font-size="11.1628" font-weight="400" font-style="normal" 
clip-path="url(#clip721)" >
<defs><clipPath id="clip721"><path vector-effect="none" fill-rule="evenodd" d="M-64,-17 L64,-17 L64,28 L-64,28 L-64,-17z "/>
</clipPath></defs><text textLength="23" fill="#000000" fill-opacity="1" stroke="none" xml:space="preserve" x="-11.1562" y="3.35938" font-family="FreeSans" font-size="11.1628" font-weight="400" font-style="normal" 
 >ULA</text>
</g>

<g fill="none" stroke="#000000" stroke-opacity="1" stroke-width="1" stroke-linecap="square" stroke-linejoin="bevel" transform="matrix(1.55039,0,0,1.55039,99.2248,26.3566)"
font-family="FreeSans" font-size="11.1628" font-weight="400" font-style="normal" 
clip-path="url(#clip722)" >
<defs><clipPath id="clip722"><path vector-effect="none" fill-rule="evenodd" d="M-57,-15 L58,-15 L58,25 L-57,25 L-57,-15z "/>
</clipPath></defs></g>

<g fill="none" stroke="#000000" stroke-opacity="1" stroke-width="1" stroke-linecap="square" stroke-linejoin="bevel" transform="matrix(1.55039,0,0,1.55039,99.2248,41.8605)"
font-family="FreeSans" font-size="11.1628" font-weight="400" font-style="normal" 
clip-path="url(#clip723)" >
<defs><clipPath id="clip723"><path vector-effect="none" fill-rule="evenodd" d="M-57,-25 L58,-25 L58,15 L-57,15 L-57,-25z "/>
</clipPath></defs></g>

<g fill="none" stroke="#000000" stroke-opacity="1" stroke-width="1" stroke-linecap="square" stroke-linejoin="bevel" transform="matrix(1.38889,0,0,1.38889,99.2248,41.8605)"
font-family="FreeSans" font-size="11.1628" font-weight="400" font-style="normal" 
clip-path="url(#clip724)" >
<defs><clipPath id="clip724"><path vector-effect="none" fill-rule="evenodd" d="M-64,-28 L64,-28 L64,17 L-64,17 L-64,-28z "/>
</clipPath></defs><text textLength="54" fill="#000000" fill-opacity="1" stroke="none" xml:space="preserve" x="-26.2188" y="3.35938" font-family="FreeSans" font-size="11.1628" font-weight="400" font-style="normal" 
 >Monopulse</text>
</g>

<g fill="none" stroke="#000000" stroke-opacity="1" stroke-width="1" stroke-linecap="square" stroke-linejoin="bevel" transform="matrix(1.55039,0,0,1.55039,99.2248,41.8605)"
font-family="FreeSans" font-size="11.1628" font-weight="400" font-style="normal" 
clip-path="url(#clip725)" >
<defs><clipPath id="clip725"><path vector-effect="none" fill-rule="evenodd" d="M-57,-25 L58,-25 L58,15 L-57,15 L-57,-25z "/>
</clipPath></defs></g>

<g fill="none" stroke="#000000" stroke-opacity="1" stroke-width="1" stroke-linecap="square" stroke-linejoin="bevel" transform="matrix(1.55039,0,0,1.55039,15.5039,18.6047)"
font-family="FreeSans" font-size="11.1628" font-weight="400" font-style="normal" 
clip-path="url(#clip726)" >
<defs><clipPath id="clip726"><path vector-effect="none" fill-rule="evenodd" d="M-3,-10 L112,-10 L112,30 L-3,30 L-3,-10z "/>
</clipPath></defs></g>

<g fill="none" stroke="#000000" stroke-opacity="1" stroke-width="1" stroke-linecap="square" stroke-linejoin="bevel" transform="matrix(1.38889,0,0,1.38889,15.5039,18.6047)"
font-family="FreeSans" font-size="11.1628" font-weight="400" font-style="normal" 
clip-path="url(#clip727)" >
<defs><clipPath id="clip727"><path vector-effect="none" fill-rule="evenodd" d="M-3,-11 L125,-11 L125,34 L-3,34 L-3,-11z "/>
</clipPath></defs><text textLength="9" fill="#000000" fill-opacity="1" stroke="none" xml:space="preserve" x="0" y="3.35938" font-family="FreeSans" font-size="11.1628" font-weight="400" font-style="normal" 
 >X</text>
</g>

<g fill="none" stroke="#000000" stroke-opacity="1" stroke-width="1" stroke-linecap="square" stroke-linejoin="bevel" transform="matrix(1.55039,0,0,1.55039,15.5039,18.6047)"
font-family="FreeSans" font-size="11.1628" font-weight="400" font-style="normal" 
clip-path="url(#clip728)" >
<defs><clipPath id="clip728"><path vector-effect="none" fill-rule="evenodd" d="M-3,-10 L112,-10 L112,30 L-3,30 L-3,-10z "/>
</clipPath></defs></g>

<g fill="none" stroke="#000000" stroke-opacity="1" stroke-width="1" stroke-linecap="square" stroke-linejoin="bevel" transform="matrix(1.55039,0,0,1.55039,15.5039,49.6124)"
font-family="FreeSans" font-size="11.1628" font-weight="400" font-style="normal" 
clip-path="url(#clip729)" >
<defs><clipPath id="clip729"><path vector-effect="none" fill-rule="evenodd" d="M-3,-30 L112,-30 L112,10 L-3,10 L-3,-30z "/>
</clipPath></defs></g>

<g fill="none" stroke="#000000" stroke-opacity="1" stroke-width="1" stroke-linecap="square" stroke-linejoin="bevel" transform="matrix(1.38889,0,0,1.38889,15.5039,49.6124)"
font-family="FreeSans" font-size="11.1628" font-weight="400" font-style="normal" 
clip-path="url(#clip730)" >
<defs><clipPath id="clip730"><path vector-effect="none" fill-rule="evenodd" d="M-3,-33 L125,-33 L125,12 L-3,12 L-3,-33z "/>
</clipPath></defs><text textLength="27" fill="#000000" fill-opacity="1" stroke="none" xml:space="preserve" x="0" y="3.35938" font-family="FreeSans" font-size="11.1628" font-weight="400" font-style="normal" 
 >Steer</text>
</g>

<g fill="none" stroke="#000000" stroke-opacity="1" stroke-width="1" stroke-linecap="square" stroke-linejoin="bevel" transform="matrix(1.55039,0,0,1.55039,15.5039,49.6124)"
font-family="FreeSans" font-size="11.1628" font-weight="400" font-style="normal" 
clip-path="url(#clip731)" >
<defs><clipPath id="clip731"><path vector-effect="none" fill-rule="evenodd" d="M-3,-30 L112,-30 L112,10 L-3,10 L-3,-30z "/>
</clipPath></defs></g>

<g fill="none" stroke="#000000" stroke-opacity="1" stroke-width="1" stroke-linecap="square" stroke-linejoin="bevel" transform="matrix(1.55039,0,0,1.55039,184.496,34.1085)"
font-family="FreeSans" font-size="11.1628" font-weight="400" font-style="normal" 
clip-path="url(#clip732)" >
<defs><clipPath id="clip732"><path vector-effect="none" fill-rule="evenodd" d="M-112,-20 L3,-20 L3,20 L-112,20 L-112,-20z "/>
</clipPath></defs></g>

<g fill="none" stroke="#000000" stroke-opacity="1" stroke-width="1" stroke-linecap="square" stroke-linejoin="bevel" transform="matrix(1.38889,0,0,1.38889,184.496,34.1085)"
font-family="FreeSans" font-size="11.1628" font-weight="400" font-style="normal" 
clip-path="url(#clip733)" >
<defs><clipPath id="clip733"><path vector-effect="none" fill-rule="evenodd" d="M-125,-22 L3,-22 L3,23 L-125,23 L-125,-22z "/>
</clipPath></defs><text textLength="20" fill="#000000" fill-opacity="1" stroke="none" xml:space="preserve" x="-19.5469" y="3.35938" font-family="FreeSans" font-size="11.1628" font-weight="400" font-style="normal" 
 >Ang</text>
</g>

<g fill="none" stroke="#000000" stroke-opacity="1" stroke-width="1" stroke-linecap="square" stroke-linejoin="bevel" transform="matrix(1.55039,0,0,1.55039,184.496,34.1085)"
font-family="FreeSans" font-size="11.1628" font-weight="400" font-style="normal" 
clip-path="url(#clip734)" >
<defs><clipPath id="clip734"><path vector-effect="none" fill-rule="evenodd" d="M-112,-20 L3,-20 L3,20 L-112,20 L-112,-20z "/>
</clipPath></defs></g>

<g fill="none" stroke="#000000" stroke-opacity="1" stroke-width="1" stroke-linecap="square" stroke-linejoin="bevel" transform="matrix(1.75103,0,0,1.73067,184.496,34.1085)"
font-family="FreeSans" font-size="11.1628" font-weight="400" font-style="normal" 
clip-path="url(#clip735)" >
<defs><clipPath id="clip735"><path vector-effect="none" fill-rule="evenodd" d="M-7,-2 L122,-2 L122,42 L-7,42 L-7,-2z "/>
</clipPath></defs></g>

<g fill="none" stroke="#000000" stroke-opacity="1" stroke-width="1" stroke-linecap="square" stroke-linejoin="bevel" transform="matrix(1,0,0,1,0,0)"
font-family="FreeSans" font-size="11.1628" font-weight="400" font-style="normal" 
clip-path="url(#clip735)" >
</g>

<g fill="none" stroke="#000000" stroke-opacity="1" stroke-width="1" stroke-linecap="square" stroke-linejoin="bevel" transform="matrix(1.55039,0,0,1.55039,10.8527,3.10078)"
font-family="Helvetica" font-size="16" font-weight="400" font-style="normal" 
clip-path="url(#clip735)" >
</g>

<g fill="none" stroke="#000000" stroke-opacity="1" stroke-width="1" stroke-linecap="square" stroke-linejoin="bevel" transform="matrix(1.55039,0,0,1.55039,10.8527,3.10078)"
font-family="Helvetica" font-size="16" font-weight="400" font-style="normal" 
clip-path="url(#clip735)" >
</g>

<g fill="none" stroke="#000000" stroke-opacity="1" stroke-width="0.83912" stroke-linecap="butt" stroke-linejoin="miter" stroke-miterlimit="2" transform="matrix(1.55039,0,0,1.55039,10.8527,3.10078)"
font-family="Helvetica" font-size="16" font-weight="400" font-style="normal" 
clip-path="url(#clip735)" >
<path vector-effect="none" fill-rule="evenodd" d="M0,0 L115,0 L115,40 L0,40 L0,0z "/>
</g>

<g fill="none" stroke="#000000" stroke-opacity="1" stroke-width="1" stroke-linecap="square" stroke-linejoin="bevel" transform="matrix(1.55039,0,0,1.55039,10.8527,3.10078)"
font-family="Helvetica" font-size="16" font-weight="400" font-style="normal" 
clip-path="url(#clip735)" >
</g>

<g fill="none" stroke="#000000" stroke-opacity="1" stroke-width="1" stroke-linecap="square" stroke-linejoin="bevel" transform="matrix(1.55039,0,0,1.55039,100,68.2171)"
font-family="Helvetica" font-size="16" font-weight="400" font-style="normal" 
clip-path="url(#clip736)" >
<defs><clipPath id="clip736"><path vector-effect="non-scaling-stroke" fill-rule="evenodd" d="M-64.5,-44 L64.5,-44 L64.5,0 L-64.5,0 L-64.5,-44z "/>
</clipPath></defs></g>

<g fill="none" stroke="#000000" stroke-opacity="1" stroke-width="1" stroke-linecap="square" stroke-linejoin="bevel" transform="matrix(1.55039,0,0,1.55039,100,68.2171)"
font-family="Helvetica" font-size="16" font-weight="400" font-style="normal" 
clip-path="url(#clip736)" >
</g>

<g fill="none" stroke="#000000" stroke-opacity="1" stroke-width="1" stroke-linecap="square" stroke-linejoin="bevel" transform="matrix(1,0,0,1,0,0)"
font-family="Helvetica" font-size="16" font-weight="400" font-style="normal" 
>
</g>

<g fill="none" stroke="#000000" stroke-opacity="1" stroke-width="1" stroke-linecap="square" stroke-linejoin="bevel" transform="matrix(1,0,0,1,0,0)"
font-family="Helvetica" font-size="16" font-weight="400" font-style="normal" 
>
</g>

<g fill="none" stroke="#000000" stroke-opacity="1" stroke-width="1" stroke-linecap="square" stroke-linejoin="bevel" transform="matrix(1,0,0,1,0,0)"
font-family="Helvetica" font-size="16" font-weight="400" font-style="normal" 
clip-path="url(#clip737)" >
<defs><clipPath id="clip737"><path vector-effect="non-scaling-stroke" fill-rule="evenodd" d="M0,0 L200,0 L200,68 L0,68 L0,0z "/>
</clipPath></defs></g>

<g fill="none" stroke="#000000" stroke-opacity="1" stroke-width="1" stroke-linecap="square" stroke-linejoin="bevel" transform="matrix(1,0,0,1,0,0)"
font-family="Helvetica" font-size="16" font-weight="400" font-style="normal" 
>
</g>

<g fill="none" stroke="#000000" stroke-opacity="1" stroke-width="1" stroke-linecap="square" stroke-linejoin="bevel" transform="matrix(1,0,0,1,0,0)"
font-family="Helvetica" font-size="16" font-weight="400" font-style="normal" 
>
</g>

<g fill="none" stroke="#000000" stroke-opacity="1" stroke-width="1" stroke-linecap="square" stroke-linejoin="bevel" transform="matrix(1,0,0,1,0,0)"
font-family="Helvetica" font-size="16" font-weight="400" font-style="normal" 
clip-path="url(#clip738)" >
<defs><clipPath id="clip738"><path vector-effect="non-scaling-stroke" fill-rule="evenodd" d="M0,0 L1,0 L1,1 L0,1 L0,0z "/>
</clipPath></defs></g>

<g fill="none" stroke="#000000" stroke-opacity="1" stroke-width="1" stroke-linecap="square" stroke-linejoin="bevel" transform="matrix(1,0,0,1,0,0)"
font-family="Helvetica" font-size="16" font-weight="400" font-style="normal" 
>
</g>

<g fill="none" stroke="#000000" stroke-opacity="1" stroke-width="1" stroke-linecap="square" stroke-linejoin="bevel" transform="matrix(1,0,0,1,0,0)"
font-family="Helvetica" font-size="16" font-weight="400" font-style="normal" 
>
</g>
</g>
</svg>
