<?xml version="1.0" encoding="UTF-8" standalone="no"?>
<svg width="70.5556mm" height="24.3417mm"
 viewBox="0 0 200 69"
 xmlns="http://www.w3.org/2000/svg" xmlns:xlink="http://www.w3.org/1999/xlink"  version="1.2" baseProfile="tiny">
<defs>
</defs>
<g fill="none" stroke="black" stroke-width="1" fill-rule="evenodd" stroke-linecap="square" stroke-linejoin="bevel" >

<g fill="#ffffff" fill-opacity="0" stroke="none" transform="matrix(1,0,0,1,0,0)"
font-family="Helvetica" font-size="12" font-weight="400" font-style="normal" 
>
<path vector-effect="non-scaling-stroke" fill-rule="evenodd" d="M0,0 L200,0 L200,69 L0,69 L0,0z "/>
</g>

<g fill="none" stroke="#000000" stroke-opacity="1" stroke-width="1" stroke-linecap="square" stroke-linejoin="bevel" transform="matrix(1,0,0,1,0,0)"
font-family="Helvetica" font-size="12" font-weight="400" font-style="normal" 
>
</g>

<g fill="none" stroke="#000000" stroke-opacity="1" stroke-width="1" stroke-linecap="square" stroke-linejoin="bevel" transform="matrix(1,0,0,1,0,0)"
font-family="Helvetica" font-size="12" font-weight="400" font-style="normal" 
clip-path="url(#clip424)" >
<defs><clipPath id="clip424"><path vector-effect="non-scaling-stroke" fill-rule="evenodd" d="M0,0 L200,0 L200,69.5122 L0,69.5122 L0,0z "/>
</clipPath></defs></g>

<g fill="none" stroke="#000000" stroke-opacity="1" stroke-width="1" stroke-linecap="square" stroke-linejoin="bevel" transform="matrix(-1.21951,0,0,-1.21951,8.53659,19.5122)"
font-family="Helvetica" font-size="12" font-weight="400" font-style="normal" 
clip-path="url(#clip425)" >
<defs><clipPath id="clip425"><path vector-effect="non-scaling-stroke" fill-rule="evenodd" d="M7,16 L-157,16 L-157,-41 L7,-41 L7,16z "/>
</clipPath></defs></g>

<g fill="#000000" fill-opacity="0" stroke="#000000" stroke-opacity="1" stroke-width="2" stroke-linecap="round" stroke-linejoin="miter" stroke-miterlimit="2" transform="matrix(-1.21951,0,0,-1.21951,8.53659,19.5122)"
font-family="Helvetica" font-size="12" font-weight="400" font-style="normal" 
clip-path="url(#clip425)" >
<path vector-effect="none" fill-rule="evenodd" d="M5,-5 L0,0 L5,5"/>
</g>

<g fill="none" stroke="#000000" stroke-opacity="1" stroke-width="1" stroke-linecap="square" stroke-linejoin="bevel" transform="matrix(-1.21951,0,0,-1.21951,8.53659,19.5122)"
font-family="Helvetica" font-size="12" font-weight="400" font-style="normal" 
clip-path="url(#clip425)" >
</g>

<g fill="none" stroke="#000000" stroke-opacity="1" stroke-width="1" stroke-linecap="square" stroke-linejoin="bevel" transform="matrix(1.21951,0,0,1.21951,191.463,37.8049)"
font-family="Helvetica" font-size="12" font-weight="400" font-style="normal" 
clip-path="url(#clip426)" >
<defs><clipPath id="clip426"><path vector-effect="non-scaling-stroke" fill-rule="evenodd" d="M-157,-31 L7,-31 L7,26 L-157,26 L-157,-31z "/>
</clipPath></defs></g>

<g fill="#000000" fill-opacity="0" stroke="#000000" stroke-opacity="1" stroke-width="2" stroke-linecap="round" stroke-linejoin="miter" stroke-miterlimit="2" transform="matrix(1.21951,0,0,1.21951,191.463,37.8049)"
font-family="Helvetica" font-size="12" font-weight="400" font-style="normal" 
clip-path="url(#clip426)" >
<path vector-effect="none" fill-rule="evenodd" d="M0,-5 L5,0 L0,5"/>
</g>

<g fill="none" stroke="#000000" stroke-opacity="1" stroke-width="1" stroke-linecap="square" stroke-linejoin="bevel" transform="matrix(1.21951,0,0,1.21951,191.463,37.8049)"
font-family="Helvetica" font-size="12" font-weight="400" font-style="normal" 
clip-path="url(#clip426)" >
</g>

<g fill="none" stroke="#000000" stroke-opacity="1" stroke-width="1" stroke-linecap="square" stroke-linejoin="bevel" transform="matrix(-1.21951,0,0,-1.21951,8.53659,50)"
font-family="Helvetica" font-size="12" font-weight="400" font-style="normal" 
clip-path="url(#clip427)" >
<defs><clipPath id="clip427"><path vector-effect="non-scaling-stroke" fill-rule="evenodd" d="M7,41 L-157,41 L-157,-16 L7,-16 L7,41z "/>
</clipPath></defs></g>

<g fill="#000000" fill-opacity="0" stroke="#000000" stroke-opacity="1" stroke-width="2" stroke-linecap="round" stroke-linejoin="miter" stroke-miterlimit="2" transform="matrix(-1.21951,0,0,-1.21951,8.53659,50)"
font-family="Helvetica" font-size="12" font-weight="400" font-style="normal" 
clip-path="url(#clip427)" >
<path vector-effect="none" fill-rule="evenodd" d="M5,-5 L0,0 L5,5"/>
</g>

<g fill="none" stroke="#000000" stroke-opacity="1" stroke-width="1" stroke-linecap="square" stroke-linejoin="bevel" transform="matrix(-1.21951,0,0,-1.21951,8.53659,50)"
font-family="Helvetica" font-size="12" font-weight="400" font-style="normal" 
clip-path="url(#clip427)" >
</g>

<g fill="none" stroke="#000000" stroke-opacity="1" stroke-width="1" stroke-linecap="square" stroke-linejoin="bevel" transform="matrix(1.21951,0,0,1.21951,8.53659,2.43902)"
font-family="Helvetica" font-size="12" font-weight="400" font-style="normal" 
clip-path="url(#clip428)" >
<defs><clipPath id="clip428"><path vector-effect="non-scaling-stroke" fill-rule="evenodd" d="M-7,-2 L157,-2 L157,55 L-7,55 L-7,-2z "/>
</clipPath></defs></g>

<g fill="#ffffff" fill-opacity="1" stroke="none" transform="matrix(1.21951,0,0,1.21951,8.53659,2.43902)"
font-family="Helvetica" font-size="12" font-weight="400" font-style="normal" 
clip-path="url(#clip428)" >
<path vector-effect="none" fill-rule="evenodd" d="M0,0 L150,0 L150,53 L0,53 L0,0z "/>
</g>

<g fill="none" stroke="#000000" stroke-opacity="1" stroke-width="1" stroke-linecap="square" stroke-linejoin="bevel" transform="matrix(1.21951,0,0,1.21951,8.53659,2.43902)"
font-family="Helvetica" font-size="12" font-weight="400" font-style="normal" 
clip-path="url(#clip428)" >
</g>

<g fill="none" stroke="#000000" stroke-opacity="1" stroke-width="1" stroke-linecap="square" stroke-linejoin="bevel" transform="matrix(1.21951,0,0,1.21951,8.53659,2.43902)"
font-family="Helvetica" font-size="12" font-weight="400" font-style="normal" 
clip-path="url(#clip428)" >
</g>

<g fill="none" stroke="#000000" stroke-opacity="1" stroke-width="1" stroke-linecap="square" stroke-linejoin="bevel" transform="matrix(1.21951,0,0,1.21951,8.53659,2.43902)"
font-family="Helvetica" font-size="12" font-weight="400" font-style="normal" 
clip-path="url(#clip429)" >
<defs><clipPath id="clip429"><path vector-effect="non-scaling-stroke" fill-rule="evenodd" d="M0,0 L150,0 L150,53 L0,53 L0,0z "/>
</clipPath></defs></g>

<g fill="none" stroke="#000000" stroke-opacity="1" stroke-width="1" stroke-linecap="square" stroke-linejoin="bevel" transform="matrix(1.21951,0,0,1.21951,12.1951,19.5122)"
font-family="Liberation Sans" font-size="8.37209" font-weight="400" font-style="normal" 
clip-path="url(#clip430)" >
<defs><clipPath id="clip430"><path vector-effect="none" fill-rule="evenodd" d="M-3,-14 L147,-14 L147,39 L-3,39 L-3,-14z "/>
</clipPath></defs></g>

<g fill="none" stroke="#000000" stroke-opacity="1" stroke-width="1" stroke-linecap="square" stroke-linejoin="bevel" transform="matrix(1.45664,0,0,1.45664,12.1951,19.5122)"
font-family="Liberation Sans" font-size="8.37209" font-weight="400" font-style="normal" 
clip-path="url(#clip431)" >
<defs><clipPath id="clip431"><path vector-effect="none" fill-rule="evenodd" d="M-3,-12 L123,-12 L123,32 L-3,32 L-3,-12z "/>
</clipPath></defs><text textLength="8.4375" fill="#000000" fill-opacity="1" stroke="none" xml:space="preserve" x="0" y="2.51562" font-family="Liberation Sans" font-size="8.37209" font-weight="400" font-style="normal" 
 >az</text>
</g>

<g fill="none" stroke="#000000" stroke-opacity="1" stroke-width="1" stroke-linecap="square" stroke-linejoin="bevel" transform="matrix(1.21951,0,0,1.21951,12.1951,19.5122)"
font-family="Liberation Sans" font-size="8.37209" font-weight="400" font-style="normal" 
clip-path="url(#clip432)" >
<defs><clipPath id="clip432"><path vector-effect="none" fill-rule="evenodd" d="M-3,-14 L147,-14 L147,39 L-3,39 L-3,-14z "/>
</clipPath></defs></g>

<g fill="none" stroke="#000000" stroke-opacity="1" stroke-width="1" stroke-linecap="square" stroke-linejoin="bevel" transform="matrix(1.21951,0,0,1.21951,12.1951,50)"
font-family="Liberation Sans" font-size="8.37209" font-weight="400" font-style="normal" 
clip-path="url(#clip433)" >
<defs><clipPath id="clip433"><path vector-effect="none" fill-rule="evenodd" d="M-3,-39 L147,-39 L147,14 L-3,14 L-3,-39z "/>
</clipPath></defs></g>

<g fill="none" stroke="#000000" stroke-opacity="1" stroke-width="1" stroke-linecap="square" stroke-linejoin="bevel" transform="matrix(1.45664,0,0,1.45664,12.1951,50)"
font-family="Liberation Sans" font-size="8.37209" font-weight="400" font-style="normal" 
clip-path="url(#clip434)" >
<defs><clipPath id="clip434"><path vector-effect="none" fill-rule="evenodd" d="M-3,-33 L123,-33 L123,11 L-3,11 L-3,-33z "/>
</clipPath></defs><text textLength="6.20312" fill="#000000" fill-opacity="1" stroke="none" xml:space="preserve" x="0" y="2.51562" font-family="Liberation Sans" font-size="8.37209" font-weight="400" font-style="normal" 
 >el</text>
</g>

<g fill="none" stroke="#000000" stroke-opacity="1" stroke-width="1" stroke-linecap="square" stroke-linejoin="bevel" transform="matrix(1.21951,0,0,1.21951,12.1951,50)"
font-family="Liberation Sans" font-size="8.37209" font-weight="400" font-style="normal" 
clip-path="url(#clip435)" >
<defs><clipPath id="clip435"><path vector-effect="none" fill-rule="evenodd" d="M-3,-39 L147,-39 L147,14 L-3,14 L-3,-39z "/>
</clipPath></defs></g>

<g fill="none" stroke="#000000" stroke-opacity="1" stroke-width="1" stroke-linecap="square" stroke-linejoin="bevel" transform="matrix(1.21951,0,0,1.21951,187.805,37.8049)"
font-family="Liberation Sans" font-size="8.37209" font-weight="400" font-style="normal" 
clip-path="url(#clip436)" >
<defs><clipPath id="clip436"><path vector-effect="none" fill-rule="evenodd" d="M-147,-29 L3,-29 L3,24 L-147,24 L-147,-29z "/>
</clipPath></defs></g>

<g fill="none" stroke="#000000" stroke-opacity="1" stroke-width="1" stroke-linecap="square" stroke-linejoin="bevel" transform="matrix(1.45664,0,0,1.45664,187.805,37.8049)"
font-family="Liberation Sans" font-size="8.37209" font-weight="400" font-style="normal" 
clip-path="url(#clip437)" >
<defs><clipPath id="clip437"><path vector-effect="none" fill-rule="evenodd" d="M-123,-24 L3,-24 L3,20 L-123,20 L-123,-24z "/>
</clipPath></defs><text textLength="12.875" fill="#000000" fill-opacity="1" stroke="none" xml:space="preserve" x="-13.4688" y="2.51562" font-family="Liberation Sans" font-size="8.37209" font-weight="400" font-style="normal" 
 >bsd</text>
</g>

<g fill="none" stroke="#000000" stroke-opacity="1" stroke-width="1" stroke-linecap="square" stroke-linejoin="bevel" transform="matrix(1.21951,0,0,1.21951,187.805,37.8049)"
font-family="Liberation Sans" font-size="8.37209" font-weight="400" font-style="normal" 
clip-path="url(#clip438)" >
<defs><clipPath id="clip438"><path vector-effect="none" fill-rule="evenodd" d="M-147,-29 L3,-29 L3,24 L-147,24 L-147,-29z "/>
</clipPath></defs></g>

<g fill="none" stroke="#000000" stroke-opacity="1" stroke-width="1" stroke-linecap="square" stroke-linejoin="bevel" transform="matrix(1.21951,0,0,1.21951,100,34.1463)"
font-family="Liberation Sans" font-size="8.37209" font-weight="400" font-style="normal" 
clip-path="url(#clip439)" >
<defs><clipPath id="clip439"><path vector-effect="none" fill-rule="evenodd" d="M-75,-26 L75,-26 L75,27 L-75,27 L-75,-26z "/>
</clipPath></defs></g>

<g fill="none" stroke="#000000" stroke-opacity="1" stroke-width="1" stroke-linecap="square" stroke-linejoin="bevel" transform="matrix(1.45664,0,0,1.45664,100,34.1463)"
font-family="Liberation Sans" font-size="8.37209" font-weight="400" font-style="normal" 
clip-path="url(#clip440)" >
<defs><clipPath id="clip440"><path vector-effect="none" fill-rule="evenodd" d="M-63,-22 L63,-22 L63,22 L-63,22 L-63,-22z "/>
</clipPath></defs><text textLength="28.6406" fill="#000000" fill-opacity="1" stroke="none" xml:space="preserve" x="-15.0625" y="2.51562" font-family="Liberation Sans" font-size="8.37209" font-weight="400" font-style="normal" 
 >az-&gt;bsd</text>
</g>

<g fill="none" stroke="#000000" stroke-opacity="1" stroke-width="1" stroke-linecap="square" stroke-linejoin="bevel" transform="matrix(1.21951,0,0,1.21951,100,34.1463)"
font-family="Liberation Sans" font-size="8.37209" font-weight="400" font-style="normal" 
clip-path="url(#clip441)" >
<defs><clipPath id="clip441"><path vector-effect="none" fill-rule="evenodd" d="M-75,-26 L75,-26 L75,27 L-75,27 L-75,-26z "/>
</clipPath></defs></g>

<g fill="none" stroke="#000000" stroke-opacity="1" stroke-width="1" stroke-linecap="square" stroke-linejoin="bevel" transform="matrix(1.033,0,0,1.02099,100,34.1463)"
font-family="Liberation Sans" font-size="8.37209" font-weight="400" font-style="normal" 
clip-path="url(#clip442)" >
<defs><clipPath id="clip442"><path vector-effect="none" fill-rule="evenodd" d="M-7,-2 L157,-2 L157,55 L-7,55 L-7,-2z "/>
</clipPath></defs></g>

<g fill="none" stroke="#000000" stroke-opacity="1" stroke-width="1" stroke-linecap="square" stroke-linejoin="bevel" transform="matrix(1,0,0,1,0,0)"
font-family="Liberation Sans" font-size="8.37209" font-weight="400" font-style="normal" 
clip-path="url(#clip442)" >
</g>

<g fill="none" stroke="#000000" stroke-opacity="1" stroke-width="1" stroke-linecap="square" stroke-linejoin="bevel" transform="matrix(1.21951,0,0,1.21951,8.53659,2.43902)"
font-family="Helvetica" font-size="12" font-weight="400" font-style="normal" 
clip-path="url(#clip442)" >
</g>

<g fill="none" stroke="#000000" stroke-opacity="1" stroke-width="1" stroke-linecap="square" stroke-linejoin="bevel" transform="matrix(1.21951,0,0,1.21951,8.53659,2.43902)"
font-family="Helvetica" font-size="12" font-weight="400" font-style="normal" 
clip-path="url(#clip442)" >
</g>

<g fill="none" stroke="#000000" stroke-opacity="1" stroke-width="0.923689" stroke-linecap="butt" stroke-linejoin="miter" stroke-miterlimit="2" transform="matrix(1.21951,0,0,1.21951,8.53659,2.43902)"
font-family="Helvetica" font-size="12" font-weight="400" font-style="normal" 
clip-path="url(#clip442)" >
<path vector-effect="none" fill-rule="evenodd" d="M0,0 L150,0 L150,53 L0,53 L0,0z "/>
</g>

<g fill="none" stroke="#000000" stroke-opacity="1" stroke-width="1" stroke-linecap="square" stroke-linejoin="bevel" transform="matrix(1.21951,0,0,1.21951,8.53659,2.43902)"
font-family="Helvetica" font-size="12" font-weight="400" font-style="normal" 
clip-path="url(#clip442)" >
</g>

<g fill="none" stroke="#000000" stroke-opacity="1" stroke-width="1" stroke-linecap="square" stroke-linejoin="bevel" transform="matrix(1,0,0,1,0,0)"
font-family="Helvetica" font-size="12" font-weight="400" font-style="normal" 
>
</g>

<g fill="none" stroke="#000000" stroke-opacity="1" stroke-width="1" stroke-linecap="square" stroke-linejoin="bevel" transform="matrix(1,0,0,1,0,0)"
font-family="Helvetica" font-size="12" font-weight="400" font-style="normal" 
>
</g>

<g fill="none" stroke="#000000" stroke-opacity="1" stroke-width="1" stroke-linecap="square" stroke-linejoin="bevel" transform="matrix(1,0,0,1,0,0)"
font-family="Helvetica" font-size="12" font-weight="400" font-style="normal" 
clip-path="url(#clip443)" >
<defs><clipPath id="clip443"><path vector-effect="non-scaling-stroke" fill-rule="evenodd" d="M0,0 L200,0 L200,69 L0,69 L0,0z "/>
</clipPath></defs></g>

<g fill="none" stroke="#000000" stroke-opacity="1" stroke-width="1" stroke-linecap="square" stroke-linejoin="bevel" transform="matrix(1,0,0,1,0,0)"
font-family="Helvetica" font-size="12" font-weight="400" font-style="normal" 
>
</g>

<g fill="none" stroke="#000000" stroke-opacity="1" stroke-width="1" stroke-linecap="square" stroke-linejoin="bevel" transform="matrix(1,0,0,1,0,0)"
font-family="Helvetica" font-size="12" font-weight="400" font-style="normal" 
>
</g>

<g fill="none" stroke="#000000" stroke-opacity="1" stroke-width="1" stroke-linecap="square" stroke-linejoin="bevel" transform="matrix(1,0,0,1,0,0)"
font-family="Helvetica" font-size="12" font-weight="400" font-style="normal" 
clip-path="url(#clip444)" >
<defs><clipPath id="clip444"><path vector-effect="non-scaling-stroke" fill-rule="evenodd" d="M0,0 L1,0 L1,1 L0,1 L0,0z "/>
</clipPath></defs></g>

<g fill="none" stroke="#000000" stroke-opacity="1" stroke-width="1" stroke-linecap="square" stroke-linejoin="bevel" transform="matrix(1,0,0,1,0,0)"
font-family="Helvetica" font-size="12" font-weight="400" font-style="normal" 
>
</g>

<g fill="none" stroke="#000000" stroke-opacity="1" stroke-width="1" stroke-linecap="square" stroke-linejoin="bevel" transform="matrix(1,0,0,1,0,0)"
font-family="Helvetica" font-size="12" font-weight="400" font-style="normal" 
>
</g>
</g>
</svg>
