<?xml version="1.0" encoding="UTF-8" standalone="no"?>
<svg width="61.976mm" height="67.7333mm"
 viewBox="0 0 183 200"
 xmlns="http://www.w3.org/2000/svg" xmlns:xlink="http://www.w3.org/1999/xlink"  version="1.2" baseProfile="tiny">
<defs>
</defs>
<g fill="none" stroke="black" stroke-width="1" fill-rule="evenodd" stroke-linecap="square" stroke-linejoin="bevel" >

<g fill="#ffffff" fill-opacity="0" stroke="none" transform="matrix(1,0,0,1,0,0)"
font-family="Helvetica" font-size="12.5" font-weight="400" font-style="normal" 
>
<path vector-effect="non-scaling-stroke" fill-rule="evenodd" d="M0,0 L183,0 L183,200 L0,200 L0,0z "/>
</g>

<g fill="none" stroke="#000000" stroke-opacity="1" stroke-width="1" stroke-linecap="square" stroke-linejoin="bevel" transform="matrix(1,0,0,1,0,0)"
font-family="Helvetica" font-size="12.5" font-weight="400" font-style="normal" 
>
</g>

<g fill="none" stroke="#000000" stroke-opacity="1" stroke-width="1" stroke-linecap="square" stroke-linejoin="bevel" transform="matrix(1,0,0,1,0,0)"
font-family="Helvetica" font-size="12.5" font-weight="400" font-style="normal" 
clip-path="url(#clip1334)" >
<defs><clipPath id="clip1334"><path vector-effect="non-scaling-stroke" fill-rule="evenodd" d="M0,0 L183.784,0 L183.784,200 L0,200 L0,0z "/>
</clipPath></defs></g>

<g fill="none" stroke="#000000" stroke-opacity="1" stroke-width="1" stroke-linecap="square" stroke-linejoin="bevel" transform="matrix(3.30975e-16,-5.40541,5.40541,3.30975e-16,70.2703,54.0541)"
font-family="Helvetica" font-size="12.5" font-weight="400" font-style="normal" 
clip-path="url(#clip1335)" >
<defs><clipPath id="clip1335"><path vector-effect="non-scaling-stroke" fill-rule="evenodd" d="M10,-13 L10,21 L-27,21 L-27,-13 L10,-13z "/>
</clipPath></defs></g>

<g fill="#000000" fill-opacity="1" stroke="#000000" stroke-opacity="1" stroke-width="1" stroke-linecap="square" stroke-linejoin="miter" stroke-miterlimit="2" transform="matrix(3.30975e-16,-5.40541,5.40541,3.30975e-16,70.2703,54.0541)"
font-family="Helvetica" font-size="12.5" font-weight="400" font-style="normal" 
clip-path="url(#clip1335)" >
</g>

<g fill="#000000" fill-opacity="1" stroke="#000000" stroke-opacity="1" stroke-width="1" stroke-linecap="square" stroke-linejoin="miter" stroke-miterlimit="2" transform="matrix(3.30975e-16,-5.40541,5.40541,3.30975e-16,70.2703,54.0541)"
font-family="Helvetica" font-size="12.5" font-weight="400" font-style="normal" 
clip-path="url(#clip1336)" >
<defs><clipPath id="clip1336"><path vector-effect="non-scaling-stroke" fill-rule="evenodd" d="M0,0 L10,0 L10,10 L0,10 L0,0z "/>
</clipPath></defs></g>

<g fill="#000000" fill-opacity="1" stroke="#000000" stroke-opacity="1" stroke-width="1" stroke-linecap="square" stroke-linejoin="miter" stroke-miterlimit="2" transform="matrix(3.30975e-16,-5.40541,5.40541,3.30975e-16,70.2703,54.0541)"
font-family="Helvetica" font-size="12.5" font-weight="400" font-style="normal" 
clip-path="url(#clip1336)" >
</g>

<g fill="#000000" fill-opacity="1" stroke="#000000" stroke-opacity="1" stroke-width="1" stroke-linecap="square" stroke-linejoin="miter" stroke-miterlimit="2" transform="matrix(3.30975e-16,-5.40541,5.40541,3.30975e-16,70.2703,54.0541)"
font-family="Helvetica" font-size="12.5" font-weight="400" font-style="normal" 
clip-path="url(#clip1336)" >
</g>

<g fill="#000000" fill-opacity="1" stroke="#000000" stroke-opacity="1" stroke-width="1" stroke-linecap="square" stroke-linejoin="miter" stroke-miterlimit="2" transform="matrix(1,0,0,1,0,0)"
font-family="Helvetica" font-size="12.5" font-weight="400" font-style="normal" 
clip-path="url(#clip1336)" >
</g>

<g fill="#000000" fill-opacity="1" stroke="#000000" stroke-opacity="1" stroke-width="1" stroke-linecap="square" stroke-linejoin="miter" stroke-miterlimit="2" transform="matrix(3.30975e-16,-5.40541,5.40541,3.30975e-16,70.2703,54.0541)"
font-family="Helvetica" font-size="12.5" font-weight="400" font-style="normal" 
clip-path="url(#clip1336)" >
</g>

<g fill="#000000" fill-opacity="1" stroke="#000000" stroke-opacity="1" stroke-width="1" stroke-linecap="square" stroke-linejoin="miter" stroke-miterlimit="2" transform="matrix(3.30975e-16,-5.40541,5.40541,3.30975e-16,70.2703,54.0541)"
font-family="Helvetica" font-size="12.5" font-weight="400" font-style="normal" 
clip-path="url(#clip1336)" >
</g>

<g fill="#000000" fill-opacity="1" stroke="#000000" stroke-opacity="1" stroke-width="1" stroke-linecap="square" stroke-linejoin="miter" stroke-miterlimit="2" transform="matrix(3.30975e-16,-5.40541,5.40541,3.30975e-16,70.2703,54.0541)"
font-family="Helvetica" font-size="12.5" font-weight="400" font-style="normal" 
clip-path="url(#clip1336)" >
</g>

<g fill="#000000" fill-opacity="1" stroke="#000000" stroke-opacity="1" stroke-width="1" stroke-linecap="square" stroke-linejoin="miter" stroke-miterlimit="2" transform="matrix(3.30975e-16,-5.40541,5.40541,3.30975e-16,70.2703,54.0541)"
font-family="Helvetica" font-size="12.5" font-weight="400" font-style="normal" 
clip-path="url(#clip1336)" >
</g>

<g fill="#000000" fill-opacity="1" stroke="#000000" stroke-opacity="1" stroke-width="1" stroke-linecap="square" stroke-linejoin="miter" stroke-miterlimit="2" transform="matrix(1,0,0,1,0,0)"
font-family="Helvetica" font-size="12.5" font-weight="400" font-style="normal" 
clip-path="url(#clip1336)" >
</g>

<g fill="#000000" fill-opacity="1" stroke="#000000" stroke-opacity="1" stroke-width="1" stroke-linecap="square" stroke-linejoin="miter" stroke-miterlimit="2" transform="matrix(3.30975e-16,-5.40541,5.40541,3.30975e-16,70.2703,54.0541)"
font-family="Helvetica" font-size="12.5" font-weight="400" font-style="normal" 
clip-path="url(#clip1336)" >
</g>

<g fill="#000000" fill-opacity="1" stroke="#000000" stroke-opacity="1" stroke-width="1" stroke-linecap="square" stroke-linejoin="miter" stroke-miterlimit="2" transform="matrix(3.30975e-16,-5.40541,5.40541,3.30975e-16,70.2703,54.0541)"
font-family="Helvetica" font-size="12.5" font-weight="400" font-style="normal" 
clip-path="url(#clip1336)" >
</g>

<g fill="#000000" fill-opacity="1" stroke="#000000" stroke-opacity="1" stroke-width="1" stroke-linecap="square" stroke-linejoin="miter" stroke-miterlimit="2" transform="matrix(3.30975e-16,-5.40541,5.40541,3.30975e-16,70.2703,54.0541)"
font-family="Helvetica" font-size="12.5" font-weight="400" font-style="normal" 
clip-path="url(#clip1336)" >
</g>

<g fill="#b3b3b3" fill-opacity="1" stroke="none" transform="matrix(3.30975e-16,-5.40541,5.40541,3.30975e-16,70.2703,54.0541)"
font-family="Helvetica" font-size="12.5" font-weight="400" font-style="normal" 
clip-path="url(#clip1336)" >
<path vector-effect="non-scaling-stroke" fill-rule="evenodd" d="M0.5,3.5 L3.5,3.5 L3.5,6.5 L0.5,6.5 L0.5,3.5z "/>
</g>

<g fill="#000000" fill-opacity="1" stroke="#000000" stroke-opacity="1" stroke-width="1" stroke-linecap="square" stroke-linejoin="miter" stroke-miterlimit="2" transform="matrix(3.30975e-16,-5.40541,5.40541,3.30975e-16,70.2703,54.0541)"
font-family="Helvetica" font-size="12.5" font-weight="400" font-style="normal" 
clip-path="url(#clip1336)" >
</g>

<g fill="#000000" fill-opacity="1" stroke="none" transform="matrix(3.30975e-16,-5.40541,5.40541,3.30975e-16,70.2703,54.0541)"
font-family="Helvetica" font-size="12.5" font-weight="400" font-style="normal" 
clip-path="url(#clip1336)" >
<path vector-effect="non-scaling-stroke" fill-rule="nonzero" d="M3,4 L3,6 L1,6 L1,4 L3,4 M4,3 L0,3 L0,7 L4,7 L4,3"/>
</g>

<g fill="#000000" fill-opacity="1" stroke="#000000" stroke-opacity="1" stroke-width="1" stroke-linecap="square" stroke-linejoin="miter" stroke-miterlimit="2" transform="matrix(3.30975e-16,-5.40541,5.40541,3.30975e-16,70.2703,54.0541)"
font-family="Helvetica" font-size="12.5" font-weight="400" font-style="normal" 
clip-path="url(#clip1336)" >
</g>

<g fill="#000000" fill-opacity="1" stroke="#000000" stroke-opacity="1" stroke-width="1" stroke-linecap="square" stroke-linejoin="miter" stroke-miterlimit="2" transform="matrix(3.30975e-16,-5.40541,5.40541,3.30975e-16,70.2703,54.0541)"
font-family="Helvetica" font-size="12.5" font-weight="400" font-style="normal" 
clip-path="url(#clip1336)" >
</g>

<g fill="#000000" fill-opacity="1" stroke="#000000" stroke-opacity="1" stroke-width="1" stroke-linecap="square" stroke-linejoin="miter" stroke-miterlimit="2" transform="matrix(1,0,0,1,0,0)"
font-family="Helvetica" font-size="12.5" font-weight="400" font-style="normal" 
clip-path="url(#clip1336)" >
</g>

<g fill="#000000" fill-opacity="1" stroke="#000000" stroke-opacity="1" stroke-width="1" stroke-linecap="square" stroke-linejoin="miter" stroke-miterlimit="2" transform="matrix(3.30975e-16,-5.40541,5.40541,3.30975e-16,70.2703,54.0541)"
font-family="Helvetica" font-size="12.5" font-weight="400" font-style="normal" 
clip-path="url(#clip1336)" >
</g>

<g fill="#000000" fill-opacity="1" stroke="#000000" stroke-opacity="1" stroke-width="1" stroke-linecap="square" stroke-linejoin="miter" stroke-miterlimit="2" transform="matrix(3.30975e-16,-5.40541,5.40541,3.30975e-16,70.2703,54.0541)"
font-family="Helvetica" font-size="12.5" font-weight="400" font-style="normal" 
clip-path="url(#clip1336)" >
</g>

<g fill="#000000" fill-opacity="1" stroke="#000000" stroke-opacity="1" stroke-width="1" stroke-linecap="square" stroke-linejoin="miter" stroke-miterlimit="2" transform="matrix(3.30975e-16,-5.40541,5.40541,3.30975e-16,70.2703,54.0541)"
font-family="Helvetica" font-size="12.5" font-weight="400" font-style="normal" 
clip-path="url(#clip1336)" >
</g>

<g fill="#000000" fill-opacity="1" stroke="#000000" stroke-opacity="1" stroke-width="1" stroke-linecap="square" stroke-linejoin="miter" stroke-miterlimit="2" transform="matrix(3.30975e-16,-5.40541,5.40541,3.30975e-16,70.2703,54.0541)"
font-family="Helvetica" font-size="12.5" font-weight="400" font-style="normal" 
clip-path="url(#clip1336)" >
</g>

<g fill="#000000" fill-opacity="1" stroke="#000000" stroke-opacity="1" stroke-width="1" stroke-linecap="square" stroke-linejoin="miter" stroke-miterlimit="2" transform="matrix(1,0,0,1,0,0)"
font-family="Helvetica" font-size="12.5" font-weight="400" font-style="normal" 
clip-path="url(#clip1336)" >
</g>

<g fill="#000000" fill-opacity="1" stroke="#000000" stroke-opacity="1" stroke-width="1" stroke-linecap="square" stroke-linejoin="miter" stroke-miterlimit="2" transform="matrix(3.30975e-16,-5.40541,5.40541,3.30975e-16,70.2703,54.0541)"
font-family="Helvetica" font-size="12.5" font-weight="400" font-style="normal" 
clip-path="url(#clip1336)" >
</g>

<g fill="#000000" fill-opacity="1" stroke="#000000" stroke-opacity="1" stroke-width="1" stroke-linecap="square" stroke-linejoin="miter" stroke-miterlimit="2" transform="matrix(3.30975e-16,-5.40541,5.40541,3.30975e-16,70.2703,54.0541)"
font-family="Helvetica" font-size="12.5" font-weight="400" font-style="normal" 
clip-path="url(#clip1336)" >
</g>

<g fill="#000000" fill-opacity="1" stroke="#000000" stroke-opacity="1" stroke-width="1" stroke-linecap="square" stroke-linejoin="miter" stroke-miterlimit="2" transform="matrix(3.30975e-16,-5.40541,5.40541,3.30975e-16,70.2703,54.0541)"
font-family="Helvetica" font-size="12.5" font-weight="400" font-style="normal" 
clip-path="url(#clip1336)" >
</g>

<g fill="#000000" fill-opacity="1" stroke="#000000" stroke-opacity="1" stroke-width="1" stroke-linecap="square" stroke-linejoin="miter" stroke-miterlimit="2" transform="matrix(3.30975e-16,-5.40541,5.40541,3.30975e-16,70.2703,54.0541)"
font-family="Helvetica" font-size="12.5" font-weight="400" font-style="normal" 
clip-path="url(#clip1336)" >
</g>

<g fill="#000000" fill-opacity="1" stroke="#000000" stroke-opacity="1" stroke-width="1" stroke-linecap="square" stroke-linejoin="miter" stroke-miterlimit="2" transform="matrix(1,0,0,1,0,0)"
font-family="Helvetica" font-size="12.5" font-weight="400" font-style="normal" 
clip-path="url(#clip1336)" >
</g>

<g fill="#000000" fill-opacity="1" stroke="#000000" stroke-opacity="1" stroke-width="1" stroke-linecap="square" stroke-linejoin="miter" stroke-miterlimit="2" transform="matrix(3.30975e-16,-5.40541,5.40541,3.30975e-16,70.2703,54.0541)"
font-family="Helvetica" font-size="12.5" font-weight="400" font-style="normal" 
clip-path="url(#clip1336)" >
</g>

<g fill="#000000" fill-opacity="1" stroke="#000000" stroke-opacity="1" stroke-width="1" stroke-linecap="square" stroke-linejoin="miter" stroke-miterlimit="2" transform="matrix(3.30975e-16,-5.40541,5.40541,3.30975e-16,70.2703,54.0541)"
font-family="Helvetica" font-size="12.5" font-weight="400" font-style="normal" 
clip-path="url(#clip1336)" >
</g>

<g fill="#000000" fill-opacity="1" stroke="#000000" stroke-opacity="1" stroke-width="1" stroke-linecap="square" stroke-linejoin="miter" stroke-miterlimit="2" transform="matrix(3.30975e-16,-5.40541,5.40541,3.30975e-16,70.2703,54.0541)"
font-family="Helvetica" font-size="12.5" font-weight="400" font-style="normal" 
clip-path="url(#clip1337)" >
<defs><clipPath id="clip1337"><path vector-effect="non-scaling-stroke" fill-rule="evenodd" d="M10,-13 L10,21 L-27,21 L-27,-13 L10,-13z "/>
</clipPath></defs></g>

<g fill="#000000" fill-opacity="1" stroke="#000000" stroke-opacity="1" stroke-width="1" stroke-linecap="square" stroke-linejoin="miter" stroke-miterlimit="2" transform="matrix(1,0,0,1,0,0)"
font-family="Helvetica" font-size="12.5" font-weight="400" font-style="normal" 
clip-path="url(#clip1337)" >
</g>

<g fill="#000000" fill-opacity="1" stroke="#000000" stroke-opacity="1" stroke-width="1" stroke-linecap="square" stroke-linejoin="miter" stroke-miterlimit="2" transform="matrix(3.30975e-16,-5.40541,5.40541,3.30975e-16,70.2703,54.0541)"
font-family="Helvetica" font-size="12.5" font-weight="400" font-style="normal" 
clip-path="url(#clip1337)" >
</g>

<g fill="none" stroke="#000000" stroke-opacity="1" stroke-width="1" stroke-linecap="square" stroke-linejoin="bevel" transform="matrix(3.30975e-16,-5.40541,5.40541,3.30975e-16,70.2703,54.0541)"
font-family="Helvetica" font-size="12.5" font-weight="400" font-style="normal" 
clip-path="url(#clip1337)" >
</g>

<g fill="none" stroke="#000000" stroke-opacity="1" stroke-width="1" stroke-linecap="square" stroke-linejoin="bevel" transform="matrix(3.30975e-16,-5.40541,5.40541,3.30975e-16,70.2703,54.0541)"
font-family="Helvetica" font-size="12.5" font-weight="400" font-style="normal" 
clip-path="url(#clip1337)" >
</g>

<g fill="none" stroke="#000000" stroke-opacity="1" stroke-width="1" stroke-linecap="square" stroke-linejoin="bevel" transform="matrix(5.40541,0,0,5.40541,10.8108,54.0541)"
font-family="Helvetica" font-size="12.5" font-weight="400" font-style="normal" 
clip-path="url(#clip1338)" >
<defs><clipPath id="clip1338"><path vector-effect="non-scaling-stroke" fill-rule="evenodd" d="M-2,-10 L32,-10 L32,27 L-2,27 L-2,-10z "/>
</clipPath></defs></g>

<g fill="#ffffff" fill-opacity="1" stroke="none" transform="matrix(5.40541,0,0,5.40541,10.8108,54.0541)"
font-family="Helvetica" font-size="12.5" font-weight="400" font-style="normal" 
clip-path="url(#clip1338)" >
<path vector-effect="none" fill-rule="evenodd" d="M0,0 L30,0 L30,20 L0,20 L0,0z "/>
</g>

<g fill="none" stroke="#000000" stroke-opacity="1" stroke-width="1" stroke-linecap="square" stroke-linejoin="bevel" transform="matrix(5.40541,0,0,5.40541,10.8108,54.0541)"
font-family="Helvetica" font-size="12.5" font-weight="400" font-style="normal" 
clip-path="url(#clip1338)" >
</g>

<g fill="none" stroke="#000000" stroke-opacity="1" stroke-width="1" stroke-linecap="square" stroke-linejoin="bevel" transform="matrix(5.40541,0,0,5.40541,10.8108,54.0541)"
font-family="Helvetica" font-size="12.5" font-weight="400" font-style="normal" 
clip-path="url(#clip1338)" >
</g>

<g fill="none" stroke="#000000" stroke-opacity="1" stroke-width="1" stroke-linecap="square" stroke-linejoin="bevel" transform="matrix(5.40541,0,0,5.40541,10.8108,54.0541)"
font-family="Helvetica" font-size="12.5" font-weight="400" font-style="normal" 
clip-path="url(#clip1339)" >
<defs><clipPath id="clip1339"><path vector-effect="non-scaling-stroke" fill-rule="evenodd" d="M0,0 L30,0 L30,20 L0,20 L0,0z "/>
</clipPath></defs></g>

<g fill="none" stroke="none" transform="matrix(5.40541,0,0,5.40541,10.8108,54.0541)"
font-family="Helvetica" font-size="12.5" font-weight="400" font-style="normal" 
clip-path="url(#clip1339)" >
<path vector-effect="none" fill-rule="evenodd" d="M0,0 L30,0 L30,20 L0,20 L0,0z "/>
</g>

<g fill="none" stroke="none" transform="matrix(5.40541,0,0,5.40541,10.8108,54.0541)"
font-family="Helvetica" font-size="12.5" font-weight="400" font-style="normal" 
clip-path="url(#clip1340)" >
<defs><clipPath id="clip1340"><path vector-effect="none" fill-rule="evenodd" d="M-2,-10 L32,-10 L32,27 L-2,27 L-2,-10z "/>
</clipPath></defs></g>

<g fill="none" stroke="none" transform="matrix(1,0,0,1,0,0)"
font-family="Helvetica" font-size="12.5" font-weight="400" font-style="normal" 
clip-path="url(#clip1340)" >
</g>

<g fill="none" stroke="#000000" stroke-opacity="1" stroke-width="1" stroke-linecap="square" stroke-linejoin="bevel" transform="matrix(5.40541,0,0,5.40541,10.8108,54.0541)"
font-family="Helvetica" font-size="12.5" font-weight="400" font-style="normal" 
clip-path="url(#clip1340)" >
</g>

<g fill="none" stroke="#000000" stroke-opacity="1" stroke-width="1" stroke-linecap="square" stroke-linejoin="bevel" transform="matrix(5.40541,0,0,5.40541,10.8108,54.0541)"
font-family="Helvetica" font-size="12.5" font-weight="400" font-style="normal" 
clip-path="url(#clip1341)" >
<defs><clipPath id="clip1341"><path vector-effect="non-scaling-stroke" fill-rule="evenodd" d="M0,0 L30,0 L30,20 L0,20 L0,0z "/>
</clipPath></defs></g>

<g fill="none" stroke="#000000" stroke-opacity="1" stroke-width="1" stroke-linecap="square" stroke-linejoin="bevel" transform="matrix(9.92924e-16,5.40541,5.40541,-9.92924e-16,5.40541,48.6486)"
font-family="Helvetica" font-size="12.5" font-weight="400" font-style="normal" 
clip-path="url(#clip1342)" >
<defs><clipPath id="clip1342"><path vector-effect="non-scaling-stroke" fill-rule="evenodd" d="M1,1 L21,1 L21,31 L1,31 L1,1z "/>
</clipPath></defs></g>

<g fill="none" stroke="#000000" stroke-opacity="1" stroke-width="1" stroke-linecap="square" stroke-linejoin="bevel" transform="matrix(9.92924e-16,5.40541,5.40541,-9.92924e-16,5.40541,48.6486)"
font-family="Helvetica" font-size="12.5" font-weight="400" font-style="normal" 
clip-path="url(#clip1343)" >
<defs><clipPath id="clip1343"><path vector-effect="non-scaling-stroke" fill-rule="evenodd" d="M1,6 L21,6 L21,26 L1,26 L1,6z "/>
</clipPath></defs></g>

<g fill="none" stroke="#000000" stroke-opacity="1" stroke-width="1" stroke-linecap="square" stroke-linejoin="bevel" transform="matrix(9.92924e-16,5.40541,5.40541,-9.92924e-16,5.40541,48.6486)"
font-family="Helvetica" font-size="12.5" font-weight="400" font-style="normal" 
clip-path="url(#clip1344)" >
<defs><clipPath id="clip1344"><path vector-effect="non-scaling-stroke" fill-rule="evenodd" d="M-4,6 L26,6 L26,26 L-4,26 L-4,6z "/>
</clipPath></defs></g>

<g fill="#000000" fill-opacity="1" stroke="#000000" stroke-opacity="1" stroke-width="1" stroke-linecap="square" stroke-linejoin="miter" stroke-miterlimit="2" transform="matrix(9.92924e-16,5.40541,5.40541,-9.92924e-16,5.40541,48.6486)"
font-family="Helvetica" font-size="12.5" font-weight="400" font-style="normal" 
clip-path="url(#clip1345)" >
<defs><clipPath id="clip1345"><path vector-effect="non-scaling-stroke" fill-rule="evenodd" d="M0,6 L23,6 L23,26 L0,26 L0,6z "/>
</clipPath></defs></g>

<g fill="#000000" fill-opacity="1" stroke="#000000" stroke-opacity="1" stroke-width="1" stroke-linecap="square" stroke-linejoin="miter" stroke-miterlimit="2" transform="matrix(9.92924e-16,5.40541,5.40541,-9.92924e-16,5.40541,48.6486)"
font-family="Helvetica" font-size="12.5" font-weight="400" font-style="normal" 
clip-path="url(#clip1345)" >
</g>

<g fill="#000000" fill-opacity="1" stroke="#000000" stroke-opacity="1" stroke-width="1" stroke-linecap="square" stroke-linejoin="miter" stroke-miterlimit="2" transform="matrix(9.92924e-16,5.40541,5.40541,-9.92924e-16,5.40541,48.6486)"
font-family="Helvetica" font-size="12.5" font-weight="400" font-style="normal" 
>
</g>

<g fill="#000000" fill-opacity="1" stroke="#000000" stroke-opacity="1" stroke-width="1" stroke-linecap="square" stroke-linejoin="miter" stroke-miterlimit="2" transform="matrix(9.92924e-16,5.40541,5.40541,-9.92924e-16,5.40541,48.6486)"
font-family="Helvetica" font-size="12.5" font-weight="400" font-style="normal" 
clip-path="url(#clip1346)" >
<defs><clipPath id="clip1346"><path vector-effect="non-scaling-stroke" fill-rule="evenodd" d="M-4,6 L26,6 L26,26 L-4,26 L-4,6z "/>
</clipPath></defs></g>

<g fill="#000000" fill-opacity="1" stroke="#000000" stroke-opacity="1" stroke-width="1" stroke-linecap="square" stroke-linejoin="miter" stroke-miterlimit="2" transform="matrix(9.92924e-16,5.40541,5.40541,-9.92924e-16,5.40541,48.6486)"
font-family="Helvetica" font-size="12.5" font-weight="400" font-style="normal" 
clip-path="url(#clip1347)" >
<defs><clipPath id="clip1347"><path vector-effect="non-scaling-stroke" fill-rule="evenodd" d="M0,6 L23,6 L23,26 L0,26 L0,6z "/>
</clipPath></defs></g>

<g fill="#000000" fill-opacity="1" stroke="#000000" stroke-opacity="1" stroke-width="1" stroke-linecap="square" stroke-linejoin="miter" stroke-miterlimit="2" transform="matrix(9.92924e-16,5.40541,5.40541,-9.92924e-16,5.40541,48.6486)"
font-family="Helvetica" font-size="12.5" font-weight="400" font-style="normal" 
clip-path="url(#clip1347)" >
</g>

<g fill="#000000" fill-opacity="1" stroke="#000000" stroke-opacity="1" stroke-width="1" stroke-linecap="square" stroke-linejoin="miter" stroke-miterlimit="2" transform="matrix(9.92924e-16,5.40541,5.40541,-9.92924e-16,5.40541,48.6486)"
font-family="Helvetica" font-size="12.5" font-weight="400" font-style="normal" 
>
</g>

<g fill="#000000" fill-opacity="1" stroke="#000000" stroke-opacity="1" stroke-width="1" stroke-linecap="square" stroke-linejoin="miter" stroke-miterlimit="2" transform="matrix(9.92924e-16,5.40541,5.40541,-9.92924e-16,5.40541,48.6486)"
font-family="Helvetica" font-size="12.5" font-weight="400" font-style="normal" 
clip-path="url(#clip1348)" >
<defs><clipPath id="clip1348"><path vector-effect="non-scaling-stroke" fill-rule="evenodd" d="M-4,6 L26,6 L26,26 L-4,26 L-4,6z "/>
</clipPath></defs></g>

<g fill="#000000" fill-opacity="1" stroke="#000000" stroke-opacity="1" stroke-width="1" stroke-linecap="square" stroke-linejoin="miter" stroke-miterlimit="2" transform="matrix(9.92924e-16,5.40541,5.40541,-9.92924e-16,5.40541,48.6486)"
font-family="Helvetica" font-size="12.5" font-weight="400" font-style="normal" 
clip-path="url(#clip1349)" >
<defs><clipPath id="clip1349"><path vector-effect="non-scaling-stroke" fill-rule="evenodd" d="M0,6 L23,6 L23,26 L0,26 L0,6z "/>
</clipPath></defs></g>

<g fill="#000000" fill-opacity="1" stroke="#000000" stroke-opacity="1" stroke-width="1" stroke-linecap="square" stroke-linejoin="miter" stroke-miterlimit="2" transform="matrix(9.92924e-16,5.40541,5.40541,-9.92924e-16,5.40541,48.6486)"
font-family="Helvetica" font-size="12.5" font-weight="400" font-style="normal" 
clip-path="url(#clip1349)" >
</g>

<g fill="none" stroke="#000000" stroke-opacity="1" stroke-width="1" stroke-linecap="butt" stroke-linejoin="miter" stroke-miterlimit="20" transform="matrix(9.92924e-16,5.40541,5.40541,-9.92924e-16,5.40541,48.6486)"
font-family="Helvetica" font-size="12.5" font-weight="400" font-style="normal" 
clip-path="url(#clip1349)" >
<path vector-effect="none" fill-rule="nonzero" d="M1.14223,16.0334 L8.58227,16.0334"/>
</g>

<g fill="none" stroke="#000000" stroke-opacity="1" stroke-width="1" stroke-linecap="butt" stroke-linejoin="miter" stroke-miterlimit="4" transform="matrix(9.92924e-16,5.40541,5.40541,-9.92924e-16,5.40541,48.6486)"
font-family="Helvetica" font-size="12.5" font-weight="400" font-style="normal" 
clip-path="url(#clip1349)" >
<path vector-effect="none" fill-rule="nonzero" d="M9.2045,12.0001 C9.22592,10.9376 9.47453,9.90177 9.9245,9.00004 "/>
</g>

<g fill="none" stroke="#000000" stroke-opacity="1" stroke-width="1" stroke-linecap="butt" stroke-linejoin="miter" stroke-miterlimit="4" transform="matrix(9.92924e-16,5.40541,5.40541,-9.92924e-16,5.40541,48.6486)"
font-family="Helvetica" font-size="12.5" font-weight="400" font-style="normal" 
clip-path="url(#clip1349)" >
<path vector-effect="none" fill-rule="nonzero" d="M9.9245,23.0001 C9.47453,22.0984 9.22592,21.0625 9.2045,20.0001 "/>
</g>

<g fill="none" stroke="#000000" stroke-opacity="1" stroke-width="1" stroke-linecap="butt" stroke-linejoin="miter" stroke-miterlimit="4" transform="matrix(9.92924e-16,5.40541,5.40541,-9.92924e-16,5.40541,48.6486)"
font-family="Helvetica" font-size="12.5" font-weight="400" font-style="normal" 
clip-path="url(#clip1349)" >
<path vector-effect="none" fill-rule="nonzero" d="M11.0001,7.15559 C11.2765,6.71138 11.6519,6.37938 12.079,6.20142 C12.5061,6.02347 12.9657,6.00751 13.4001,6.15559 "/>
</g>

<g fill="none" stroke="#000000" stroke-opacity="1" stroke-width="1" stroke-linecap="butt" stroke-linejoin="miter" stroke-miterlimit="4" transform="matrix(9.92924e-16,5.40541,5.40541,-9.92924e-16,5.40541,48.6486)"
font-family="Helvetica" font-size="12.5" font-weight="400" font-style="normal" 
clip-path="url(#clip1349)" >
<path vector-effect="none" fill-rule="nonzero" d="M13.4001,25.8557 C12.9657,26.0038 12.5061,25.9877 12.079,25.8097 C11.6519,25.632 11.2765,25.2999 11.0001,24.8557 "/>
</g>

<g fill="none" stroke="#000000" stroke-opacity="1" stroke-width="1" stroke-linecap="butt" stroke-linejoin="miter" stroke-miterlimit="4" transform="matrix(9.92924e-16,5.40541,5.40541,-9.92924e-16,5.40541,48.6486)"
font-family="Helvetica" font-size="12.5" font-weight="400" font-style="normal" 
clip-path="url(#clip1349)" >
<path vector-effect="none" fill-rule="nonzero" d="M9.00005,18.0001 C8.73931,16.6867 8.73931,15.3135 9.00005,14.0001 "/>
</g>

<g fill="none" stroke="#000000" stroke-opacity="1" stroke-width="1" stroke-linecap="butt" stroke-linejoin="miter" stroke-miterlimit="4" transform="matrix(9.92924e-16,5.40541,5.40541,-9.92924e-16,5.40541,48.6486)"
font-family="Helvetica" font-size="12.5" font-weight="400" font-style="normal" 
clip-path="url(#clip1349)" >
<path vector-effect="none" fill-rule="nonzero" d="M10.9645,17.5001 C10.6919,16.5291 10.6919,15.4711 10.9645,14.5001 "/>
</g>

<g fill="none" stroke="#000000" stroke-opacity="1" stroke-width="1" stroke-linecap="butt" stroke-linejoin="miter" stroke-miterlimit="4" transform="matrix(9.92924e-16,5.40541,5.40541,-9.92924e-16,5.40541,48.6486)"
font-family="Helvetica" font-size="12.5" font-weight="400" font-style="normal" 
clip-path="url(#clip1349)" >
<path vector-effect="none" fill-rule="nonzero" d="M11.8001,22.0001 C11.3414,21.2951 11.0987,20.4086 11.1156,19.5001 "/>
</g>

<g fill="none" stroke="#000000" stroke-opacity="1" stroke-width="1" stroke-linecap="butt" stroke-linejoin="miter" stroke-miterlimit="4" transform="matrix(9.92924e-16,5.40541,5.40541,-9.92924e-16,5.40541,48.6486)"
font-family="Helvetica" font-size="12.5" font-weight="400" font-style="normal" 
clip-path="url(#clip1349)" >
<path vector-effect="none" fill-rule="nonzero" d="M11.1156,13.0001 C11.0987,12.0915 11.3414,11.2051 11.8001,10.5 "/>
</g>

<g fill="none" stroke="#000000" stroke-opacity="1" stroke-width="1" stroke-linecap="butt" stroke-linejoin="miter" stroke-miterlimit="4" transform="matrix(9.92924e-16,5.40541,5.40541,-9.92924e-16,5.40541,48.6486)"
font-family="Helvetica" font-size="12.5" font-weight="400" font-style="normal" 
clip-path="url(#clip1349)" >
<path vector-effect="none" fill-rule="nonzero" d="M12.6001,8.7556 C12.801,8.48217 13.0504,8.27139 13.3283,8.14019 C13.6061,8.00898 13.9047,7.96098 14.2001,8.00004 "/>
</g>

<g fill="none" stroke="#000000" stroke-opacity="1" stroke-width="1" stroke-linecap="butt" stroke-linejoin="miter" stroke-miterlimit="4" transform="matrix(9.92924e-16,5.40541,5.40541,-9.92924e-16,5.40541,48.6486)"
font-family="Helvetica" font-size="12.5" font-weight="400" font-style="normal" 
clip-path="url(#clip1349)" >
<path vector-effect="none" fill-rule="nonzero" d="M14.2001,24.2557 C13.9047,24.2947 13.6061,24.2468 13.3283,24.1155 C13.0504,23.9844 12.801,23.7736 12.6001,23.5001 "/>
</g>

<g fill="none" stroke="#000000" stroke-opacity="1" stroke-width="1" stroke-linecap="butt" stroke-linejoin="miter" stroke-miterlimit="4" transform="matrix(9.92924e-16,5.40541,5.40541,-9.92924e-16,5.40541,48.6486)"
font-family="Helvetica" font-size="12.5" font-weight="400" font-style="normal" 
clip-path="url(#clip1349)" >
<path vector-effect="none" fill-rule="nonzero" d="M13.1245,18.0001 C12.8464,16.8593 12.8464,15.6408 13.1245,14.5001 "/>
</g>

<g fill="none" stroke="#000000" stroke-opacity="1" stroke-width="1" stroke-linecap="butt" stroke-linejoin="miter" stroke-miterlimit="4" transform="matrix(9.92924e-16,5.40541,5.40541,-9.92924e-16,5.40541,48.6486)"
font-family="Helvetica" font-size="12.5" font-weight="400" font-style="normal" 
clip-path="url(#clip1349)" >
<path vector-effect="none" fill-rule="nonzero" d="M13.5245,12.6556 C13.5545,12.0407 13.7606,11.4599 14.1049,11.0192 C14.4493,10.5786 14.909,10.3075 15.4001,10.2556 "/>
</g>

<g fill="none" stroke="#000000" stroke-opacity="1" stroke-width="1" stroke-linecap="butt" stroke-linejoin="miter" stroke-miterlimit="4" transform="matrix(9.92924e-16,5.40541,5.40541,-9.92924e-16,5.40541,48.6486)"
font-family="Helvetica" font-size="12.5" font-weight="400" font-style="normal" 
clip-path="url(#clip1349)" >
<path vector-effect="none" fill-rule="nonzero" d="M15.4001,22.0001 C14.9681,21.9862 14.555,21.7751 14.239,21.4066 C13.9229,21.0382 13.7257,20.5379 13.6845,20.0001 "/>
</g>

<g fill="none" stroke="#000000" stroke-opacity="1" stroke-width="1" stroke-linecap="butt" stroke-linejoin="miter" stroke-miterlimit="4" transform="matrix(9.92924e-16,5.40541,5.40541,-9.92924e-16,5.40541,48.6486)"
font-family="Helvetica" font-size="12.5" font-weight="400" font-style="normal" 
clip-path="url(#clip1349)" >
<path vector-effect="none" fill-rule="nonzero" d="M15.009,17.0001 C14.9034,16.6832 14.849,16.3433 14.849,16.0001 C14.849,15.6568 14.9034,15.3169 15.009,15.0001 "/>
</g>

<g fill="none" stroke="#000000" stroke-opacity="1" stroke-width="1" stroke-linecap="butt" stroke-linejoin="miter" stroke-miterlimit="4" transform="matrix(9.92924e-16,5.40541,5.40541,-9.92924e-16,5.40541,48.6486)"
font-family="Helvetica" font-size="12.5" font-weight="400" font-style="normal" 
clip-path="url(#clip1349)" >
<path vector-effect="none" fill-rule="nonzero" d="M16.6001,20.0001 C16.3514,19.9627 16.1131,19.8527 15.9047,19.679 C15.6962,19.5053 15.5233,19.2727 15.4001,19.0001 "/>
</g>

<g fill="none" stroke="#000000" stroke-opacity="1" stroke-width="1" stroke-linecap="butt" stroke-linejoin="miter" stroke-miterlimit="4" transform="matrix(9.92924e-16,5.40541,5.40541,-9.92924e-16,5.40541,48.6486)"
font-family="Helvetica" font-size="12.5" font-weight="400" font-style="normal" 
clip-path="url(#clip1349)" >
<path vector-effect="none" fill-rule="nonzero" d="M15.4001,13.0001 C15.5275,12.7317 15.7014,12.5025 15.9091,12.3295 C16.1168,12.1564 16.353,12.0438 16.6001,12.0001 "/>
</g>

<g fill="none" stroke="#ffffff" stroke-opacity="1" stroke-width="1" stroke-linecap="butt" stroke-linejoin="miter" stroke-miterlimit="20" transform="matrix(9.92924e-16,5.40541,5.40541,-9.92924e-16,5.40541,48.6486)"
font-family="Helvetica" font-size="12.5" font-weight="400" font-style="normal" 
clip-path="url(#clip1349)" >
<path vector-effect="none" fill-rule="nonzero" d="M1,1.00001 L21.0001,1.00001 L21.0001,31.0001 L1,31.0001 L1,1.00001z "/>
</g>

<g fill="#000000" fill-opacity="1" stroke="#000000" stroke-opacity="1" stroke-width="1" stroke-linecap="square" stroke-linejoin="miter" stroke-miterlimit="2" transform="matrix(9.92924e-16,5.40541,5.40541,-9.92924e-16,5.40541,48.6486)"
font-family="Helvetica" font-size="12.5" font-weight="400" font-style="normal" 
>
</g>

<g fill="#000000" fill-opacity="1" stroke="#000000" stroke-opacity="1" stroke-width="1" stroke-linecap="square" stroke-linejoin="miter" stroke-miterlimit="2" transform="matrix(9.92924e-16,5.40541,5.40541,-9.92924e-16,5.40541,48.6486)"
font-family="Helvetica" font-size="12.5" font-weight="400" font-style="normal" 
clip-path="url(#clip1350)" >
<defs><clipPath id="clip1350"><path vector-effect="non-scaling-stroke" fill-rule="evenodd" d="M-4,6 L26,6 L26,26 L-4,26 L-4,6z "/>
</clipPath></defs></g>

<g fill="#000000" fill-opacity="1" stroke="#000000" stroke-opacity="1" stroke-width="1" stroke-linecap="square" stroke-linejoin="miter" stroke-miterlimit="2" transform="matrix(9.92924e-16,5.40541,5.40541,-9.92924e-16,5.40541,48.6486)"
font-family="Helvetica" font-size="12.5" font-weight="400" font-style="normal" 
clip-path="url(#clip1351)" >
<defs><clipPath id="clip1351"><path vector-effect="non-scaling-stroke" fill-rule="evenodd" d="M0,6 L23,6 L23,26 L0,26 L0,6z "/>
</clipPath></defs></g>

<g fill="#000000" fill-opacity="1" stroke="#000000" stroke-opacity="1" stroke-width="1" stroke-linecap="square" stroke-linejoin="miter" stroke-miterlimit="2" transform="matrix(9.92924e-16,5.40541,5.40541,-9.92924e-16,5.40541,48.6486)"
font-family="Helvetica" font-size="12.5" font-weight="400" font-style="normal" 
clip-path="url(#clip1351)" >
</g>

<g fill="#000000" fill-opacity="1" stroke="#000000" stroke-opacity="1" stroke-width="1" stroke-linecap="square" stroke-linejoin="miter" stroke-miterlimit="2" transform="matrix(9.92924e-16,5.40541,5.40541,-9.92924e-16,5.40541,48.6486)"
font-family="Helvetica" font-size="12.5" font-weight="400" font-style="normal" 
>
</g>

<g fill="#000000" fill-opacity="1" stroke="#000000" stroke-opacity="1" stroke-width="1" stroke-linecap="square" stroke-linejoin="miter" stroke-miterlimit="2" transform="matrix(9.92924e-16,5.40541,5.40541,-9.92924e-16,5.40541,48.6486)"
font-family="Helvetica" font-size="12.5" font-weight="400" font-style="normal" 
clip-path="url(#clip1352)" >
<defs><clipPath id="clip1352"><path vector-effect="non-scaling-stroke" fill-rule="evenodd" d="M-4,6 L26,6 L26,26 L-4,26 L-4,6z "/>
</clipPath></defs></g>

<g fill="#000000" fill-opacity="1" stroke="#000000" stroke-opacity="1" stroke-width="1" stroke-linecap="square" stroke-linejoin="miter" stroke-miterlimit="2" transform="matrix(9.92924e-16,5.40541,5.40541,-9.92924e-16,5.40541,48.6486)"
font-family="Helvetica" font-size="12.5" font-weight="400" font-style="normal" 
clip-path="url(#clip1353)" >
<defs><clipPath id="clip1353"><path vector-effect="non-scaling-stroke" fill-rule="evenodd" d="M0,6 L23,6 L23,26 L0,26 L0,6z "/>
</clipPath></defs></g>

<g fill="#000000" fill-opacity="1" stroke="#000000" stroke-opacity="1" stroke-width="1" stroke-linecap="square" stroke-linejoin="miter" stroke-miterlimit="2" transform="matrix(9.92924e-16,5.40541,5.40541,-9.92924e-16,5.40541,48.6486)"
font-family="Helvetica" font-size="12.5" font-weight="400" font-style="normal" 
clip-path="url(#clip1353)" >
</g>

<g fill="#000000" fill-opacity="1" stroke="#000000" stroke-opacity="1" stroke-width="1" stroke-linecap="square" stroke-linejoin="miter" stroke-miterlimit="2" transform="matrix(9.92924e-16,5.40541,5.40541,-9.92924e-16,5.40541,48.6486)"
font-family="Helvetica" font-size="12.5" font-weight="400" font-style="normal" 
>
</g>

<g fill="#000000" fill-opacity="1" stroke="#000000" stroke-opacity="1" stroke-width="1" stroke-linecap="square" stroke-linejoin="miter" stroke-miterlimit="2" transform="matrix(9.92924e-16,5.40541,5.40541,-9.92924e-16,5.40541,48.6486)"
font-family="Helvetica" font-size="12.5" font-weight="400" font-style="normal" 
clip-path="url(#clip1354)" >
<defs><clipPath id="clip1354"><path vector-effect="non-scaling-stroke" fill-rule="evenodd" d="M-4,6 L26,6 L26,26 L-4,26 L-4,6z "/>
</clipPath></defs></g>

<g fill="#000000" fill-opacity="1" stroke="#000000" stroke-opacity="1" stroke-width="1" stroke-linecap="square" stroke-linejoin="miter" stroke-miterlimit="2" transform="matrix(9.92924e-16,5.40541,5.40541,-9.92924e-16,5.40541,48.6486)"
font-family="Helvetica" font-size="12.5" font-weight="400" font-style="normal" 
clip-path="url(#clip1355)" >
<defs><clipPath id="clip1355"><path vector-effect="non-scaling-stroke" fill-rule="evenodd" d="M0,6 L23,6 L23,26 L0,26 L0,6z "/>
</clipPath></defs></g>

<g fill="#000000" fill-opacity="1" stroke="#000000" stroke-opacity="1" stroke-width="1" stroke-linecap="square" stroke-linejoin="miter" stroke-miterlimit="2" transform="matrix(9.92924e-16,5.40541,5.40541,-9.92924e-16,5.40541,48.6486)"
font-family="Helvetica" font-size="12.5" font-weight="400" font-style="normal" 
>
</g>

<g fill="#000000" fill-opacity="1" stroke="#000000" stroke-opacity="1" stroke-width="1" stroke-linecap="square" stroke-linejoin="miter" stroke-miterlimit="2" transform="matrix(9.92924e-16,5.40541,5.40541,-9.92924e-16,5.40541,48.6486)"
font-family="Helvetica" font-size="12.5" font-weight="400" font-style="normal" 
clip-path="url(#clip1356)" >
<defs><clipPath id="clip1356"><path vector-effect="non-scaling-stroke" fill-rule="evenodd" d="M-4,6 L26,6 L26,26 L-4,26 L-4,6z "/>
</clipPath></defs></g>

<g fill="#000000" fill-opacity="1" stroke="#000000" stroke-opacity="1" stroke-width="1" stroke-linecap="square" stroke-linejoin="miter" stroke-miterlimit="2" transform="matrix(9.92924e-16,5.40541,5.40541,-9.92924e-16,5.40541,48.6486)"
font-family="Helvetica" font-size="12.5" font-weight="400" font-style="normal" 
clip-path="url(#clip1357)" >
<defs><clipPath id="clip1357"><path vector-effect="non-scaling-stroke" fill-rule="evenodd" d="M1,1 L21,1 L21,31 L1,31 L1,1z "/>
</clipPath></defs></g>

<g fill="#000000" fill-opacity="1" stroke="#000000" stroke-opacity="1" stroke-width="1" stroke-linecap="square" stroke-linejoin="miter" stroke-miterlimit="2" transform="matrix(1,0,0,1,0,0)"
font-family="Helvetica" font-size="12.5" font-weight="400" font-style="normal" 
clip-path="url(#clip1357)" >
</g>

<g fill="#000000" fill-opacity="1" stroke="#000000" stroke-opacity="1" stroke-width="1" stroke-linecap="square" stroke-linejoin="miter" stroke-miterlimit="2" transform="matrix(5.40541,0,0,5.40541,10.8108,54.0541)"
font-family="Helvetica" font-size="12.5" font-weight="400" font-style="normal" 
clip-path="url(#clip1357)" >
</g>

<g fill="none" stroke="#000000" stroke-opacity="1" stroke-width="1" stroke-linecap="square" stroke-linejoin="bevel" transform="matrix(9.92924e-16,5.40541,5.40541,-9.92924e-16,5.40541,48.6486)"
font-family="Helvetica" font-size="12.5" font-weight="400" font-style="normal" 
clip-path="url(#clip1357)" >
</g>

<g fill="none" stroke="#000000" stroke-opacity="1" stroke-width="1" stroke-linecap="square" stroke-linejoin="bevel" transform="matrix(9.92924e-16,5.40541,5.40541,-9.92924e-16,5.40541,48.6486)"
font-family="Helvetica" font-size="12.5" font-weight="400" font-style="normal" 
clip-path="url(#clip1358)" >
<defs><clipPath id="clip1358"><path vector-effect="non-scaling-stroke" fill-rule="evenodd" d="M-2,-10 L32,-10 L32,27 L-2,27 L-2,-10z "/>
</clipPath></defs></g>

<g fill="none" stroke="#000000" stroke-opacity="1" stroke-width="1" stroke-linecap="square" stroke-linejoin="bevel" transform="matrix(1,0,0,1,0,0)"
font-family="Helvetica" font-size="12.5" font-weight="400" font-style="normal" 
clip-path="url(#clip1358)" >
</g>

<g fill="none" stroke="#000000" stroke-opacity="1" stroke-width="1" stroke-linecap="square" stroke-linejoin="bevel" transform="matrix(5.40541,0,0,5.40541,10.8108,54.0541)"
font-family="Helvetica" font-size="12.5" font-weight="400" font-style="normal" 
clip-path="url(#clip1358)" >
</g>

<g fill="none" stroke="#000000" stroke-opacity="1" stroke-width="1" stroke-linecap="square" stroke-linejoin="bevel" transform="matrix(5.40541,0,0,5.40541,10.8108,54.0541)"
font-family="Helvetica" font-size="12.5" font-weight="400" font-style="normal" 
clip-path="url(#clip1358)" >
</g>

<g fill="none" stroke="#000000" stroke-opacity="1" stroke-width="1" stroke-linecap="square" stroke-linejoin="bevel" transform="matrix(5.40541,0,0,5.40541,10.8108,54.0541)"
font-family="Helvetica" font-size="12.5" font-weight="400" font-style="normal" 
clip-path="url(#clip1359)" >
<defs><clipPath id="clip1359"><path vector-effect="non-scaling-stroke" fill-rule="evenodd" d="M0,0 L30,0 L30,20 L0,20 L0,0z "/>
</clipPath></defs></g>

<g fill="none" stroke="#000000" stroke-opacity="1" stroke-width="1" stroke-linecap="square" stroke-linejoin="bevel" transform="matrix(5.40541,0,0,5.40541,10.8108,54.0541)"
font-family="Helvetica" font-size="12.5" font-weight="400" font-style="normal" 
clip-path="url(#clip1360)" >
<defs><clipPath id="clip1360"><path vector-effect="non-scaling-stroke" fill-rule="evenodd" d="M-2,-10 L32,-10 L32,27 L-2,27 L-2,-10z "/>
</clipPath></defs></g>

<g fill="none" stroke="#000000" stroke-opacity="1" stroke-width="1" stroke-linecap="square" stroke-linejoin="bevel" transform="matrix(1,0,0,1,0,0)"
font-family="Helvetica" font-size="12.5" font-weight="400" font-style="normal" 
clip-path="url(#clip1360)" >
</g>

<g fill="none" stroke="#000000" stroke-opacity="1" stroke-width="1" stroke-linecap="square" stroke-linejoin="bevel" transform="matrix(5.40541,0,0,5.40541,10.8108,54.0541)"
font-family="Helvetica" font-size="12.5" font-weight="400" font-style="normal" 
clip-path="url(#clip1360)" >
</g>

<g fill="none" stroke="#000000" stroke-opacity="1" stroke-width="1" stroke-linecap="square" stroke-linejoin="bevel" transform="matrix(5.40541,0,0,5.40541,10.8108,54.0541)"
font-family="Helvetica" font-size="12.5" font-weight="400" font-style="normal" 
clip-path="url(#clip1360)" >
</g>

<g fill="none" stroke="none" transform="matrix(5.40541,0,0,5.40541,10.8108,54.0541)"
font-family="Helvetica" font-size="12.5" font-weight="400" font-style="normal" 
clip-path="url(#clip1360)" >
<path vector-effect="none" fill-rule="evenodd" d="M0,0 L30,0 L30,20 L0,20 L0,0z "/>
</g>

<g fill="none" stroke="#000000" stroke-opacity="1" stroke-width="1" stroke-linecap="square" stroke-linejoin="bevel" transform="matrix(5.40541,0,0,5.40541,10.8108,54.0541)"
font-family="Helvetica" font-size="12.5" font-weight="400" font-style="normal" 
clip-path="url(#clip1360)" >
</g>

<g fill="none" stroke="#000000" stroke-opacity="1" stroke-width="1" stroke-linecap="square" stroke-linejoin="bevel" transform="matrix(1,0,0,1,0,0)"
font-family="Helvetica" font-size="12.5" font-weight="400" font-style="normal" 
>
</g>

<g fill="none" stroke="#000000" stroke-opacity="1" stroke-width="1" stroke-linecap="square" stroke-linejoin="bevel" transform="matrix(1,0,0,1,0,0)"
font-family="Helvetica" font-size="12.5" font-weight="400" font-style="normal" 
>
</g>

<g fill="none" stroke="#000000" stroke-opacity="1" stroke-width="1" stroke-linecap="square" stroke-linejoin="bevel" transform="matrix(1,0,0,1,0,0)"
font-family="Helvetica" font-size="12.5" font-weight="400" font-style="normal" 
clip-path="url(#clip1361)" >
<defs><clipPath id="clip1361"><path vector-effect="non-scaling-stroke" fill-rule="evenodd" d="M0,0 L183,0 L183,200 L0,200 L0,0z "/>
</clipPath></defs></g>

<g fill="none" stroke="#000000" stroke-opacity="1" stroke-width="1" stroke-linecap="square" stroke-linejoin="bevel" transform="matrix(1,0,0,1,0,0)"
font-family="Helvetica" font-size="12.5" font-weight="400" font-style="normal" 
>
</g>

<g fill="none" stroke="#000000" stroke-opacity="1" stroke-width="1" stroke-linecap="square" stroke-linejoin="bevel" transform="matrix(1,0,0,1,0,0)"
font-family="Helvetica" font-size="12.5" font-weight="400" font-style="normal" 
>
</g>

<g fill="none" stroke="#000000" stroke-opacity="1" stroke-width="1" stroke-linecap="square" stroke-linejoin="bevel" transform="matrix(1,0,0,1,0,0)"
font-family="Helvetica" font-size="12.5" font-weight="400" font-style="normal" 
clip-path="url(#clip1362)" >
<defs><clipPath id="clip1362"><path vector-effect="non-scaling-stroke" fill-rule="evenodd" d="M0,0 L1,0 L1,1 L0,1 L0,0z "/>
</clipPath></defs></g>

<g fill="none" stroke="#000000" stroke-opacity="1" stroke-width="1" stroke-linecap="square" stroke-linejoin="bevel" transform="matrix(1,0,0,1,0,0)"
font-family="Helvetica" font-size="12.5" font-weight="400" font-style="normal" 
>
</g>

<g fill="none" stroke="#000000" stroke-opacity="1" stroke-width="1" stroke-linecap="square" stroke-linejoin="bevel" transform="matrix(1,0,0,1,0,0)"
font-family="Helvetica" font-size="12.5" font-weight="400" font-style="normal" 
>
</g>
</g>
</svg>
