<?xml version="1.0" encoding="UTF-8" standalone="no"?>
<svg width="67.7333mm" height="37.592mm"
 viewBox="0 0 200 111"
 xmlns="http://www.w3.org/2000/svg" xmlns:xlink="http://www.w3.org/1999/xlink"  version="1.2" baseProfile="tiny">
<defs>
</defs>
<g fill="none" stroke="black" stroke-width="1" fill-rule="evenodd" stroke-linecap="square" stroke-linejoin="bevel" >

<g fill="#ffffff" fill-opacity="0" stroke="none" transform="matrix(1,0,0,1,0,0)"
font-family="Helvetica" font-size="12.5" font-weight="400" font-style="normal" 
>
<path vector-effect="non-scaling-stroke" fill-rule="evenodd" d="M0,0 L200,0 L200,111 L0,111 L0,0z "/>
</g>

<g fill="none" stroke="#000000" stroke-opacity="1" stroke-width="1" stroke-linecap="square" stroke-linejoin="bevel" transform="matrix(1,0,0,1,0,0)"
font-family="Helvetica" font-size="12.5" font-weight="400" font-style="normal" 
>
</g>

<g fill="none" stroke="#000000" stroke-opacity="1" stroke-width="1" stroke-linecap="square" stroke-linejoin="bevel" transform="matrix(1,0,0,1,0,0)"
font-family="Helvetica" font-size="12.5" font-weight="400" font-style="normal" 
clip-path="url(#clip25)" >
<defs><clipPath id="clip25"><path vector-effect="non-scaling-stroke" fill-rule="evenodd" d="M0,0 L200,0 L200,111.364 L0,111.364 L0,0z "/>
</clipPath></defs></g>

<g fill="none" stroke="#000000" stroke-opacity="1" stroke-width="1" stroke-linecap="square" stroke-linejoin="bevel" transform="matrix(2.27273,0,0,2.27273,4.54545,4.54545)"
font-family="Helvetica" font-size="12.5" font-weight="400" font-style="normal" 
clip-path="url(#clip26)" >
<defs><clipPath id="clip26"><path vector-effect="non-scaling-stroke" fill-rule="evenodd" d="M-2,-2 L86,-2 L86,47 L-2,47 L-2,-2z "/>
</clipPath></defs></g>

<g fill="#ff42d1" fill-opacity="1" stroke="none" transform="matrix(2.27273,0,0,2.27273,4.54545,4.54545)"
font-family="Helvetica" font-size="12.5" font-weight="400" font-style="normal" 
clip-path="url(#clip26)" >
<path vector-effect="none" fill-rule="evenodd" d="M0,0 L84,0 L84,45 L0,45 L0,0z "/>
</g>

<g fill="none" stroke="#000000" stroke-opacity="1" stroke-width="1" stroke-linecap="square" stroke-linejoin="bevel" transform="matrix(2.27273,0,0,2.27273,4.54545,4.54545)"
font-family="Helvetica" font-size="12.5" font-weight="400" font-style="normal" 
clip-path="url(#clip26)" >
</g>

<g fill="none" stroke="#000000" stroke-opacity="1" stroke-width="1" stroke-linecap="square" stroke-linejoin="bevel" transform="matrix(2.27273,0,0,2.27273,4.54545,4.54545)"
font-family="Helvetica" font-size="12.5" font-weight="400" font-style="normal" 
clip-path="url(#clip26)" >
</g>

<g fill="none" stroke="#000000" stroke-opacity="1" stroke-width="1" stroke-linecap="square" stroke-linejoin="bevel" transform="matrix(2.27273,0,0,2.27273,4.54545,4.54545)"
font-family="Helvetica" font-size="12.5" font-weight="400" font-style="normal" 
clip-path="url(#clip27)" >
<defs><clipPath id="clip27"><path vector-effect="non-scaling-stroke" fill-rule="evenodd" d="M0,0 L84,0 L84,45 L0,45 L0,0z "/>
</clipPath></defs></g>

<g fill="none" stroke="#000000" stroke-opacity="1" stroke-width="1" stroke-linecap="square" stroke-linejoin="bevel" transform="matrix(2.27273,0,0,2.27273,100,40.9091)"
font-family="Liberation Serif" font-size="12" font-weight="700" font-style="normal" 
clip-path="url(#clip28)" >
<defs><clipPath id="clip28"><path vector-effect="none" fill-rule="evenodd" d="M-42,-16 L42,-16 L42,29 L-42,29 L-42,-16z "/>
</clipPath></defs></g>

<g fill="none" stroke="#000000" stroke-opacity="1" stroke-width="1" stroke-linecap="square" stroke-linejoin="bevel" transform="matrix(2.27273,0,0,2.27273,100,40.9091)"
font-family="Liberation Serif" font-size="12" font-weight="700" font-style="normal" 
clip-path="url(#clip28)" >
<text textLength="39" fill="#000000" fill-opacity="1" stroke="none" xml:space="preserve" x="-19.5" y="4" font-family="Liberation Serif" font-size="12" font-weight="700" font-style="normal" 
 >System</text>
</g>

<g fill="none" stroke="#000000" stroke-opacity="1" stroke-width="1" stroke-linecap="square" stroke-linejoin="bevel" transform="matrix(2.27273,0,0,2.27273,100,40.9091)"
font-family="Liberation Serif" font-size="12" font-weight="700" font-style="normal" 
clip-path="url(#clip28)" >
</g>

<g fill="none" stroke="#000000" stroke-opacity="1" stroke-width="1" stroke-linecap="square" stroke-linejoin="bevel" transform="matrix(2.27273,0,0,2.27273,100,70.4545)"
font-family="Liberation Serif" font-size="12" font-weight="700" font-style="normal" 
clip-path="url(#clip29)" >
<defs><clipPath id="clip29"><path vector-effect="none" fill-rule="evenodd" d="M-42,-29 L42,-29 L42,16 L-42,16 L-42,-29z "/>
</clipPath></defs></g>

<g fill="none" stroke="#000000" stroke-opacity="1" stroke-width="1" stroke-linecap="square" stroke-linejoin="bevel" transform="matrix(2.27273,0,0,2.27273,100,70.4545)"
font-family="Liberation Serif" font-size="12" font-weight="700" font-style="normal" 
clip-path="url(#clip29)" >
<text textLength="40" fill="#000000" fill-opacity="1" stroke="none" xml:space="preserve" x="-20" y="4" font-family="Liberation Serif" font-size="12" font-weight="700" font-style="normal" 
 >Disable</text>
</g>

<g fill="none" stroke="#000000" stroke-opacity="1" stroke-width="1" stroke-linecap="square" stroke-linejoin="bevel" transform="matrix(2.27273,0,0,2.27273,100,70.4545)"
font-family="Liberation Serif" font-size="12" font-weight="700" font-style="normal" 
clip-path="url(#clip29)" >
</g>

<g fill="none" stroke="#000000" stroke-opacity="1" stroke-width="1" stroke-linecap="square" stroke-linejoin="bevel" transform="matrix(2.27273,0,0,2.27273,100,70.4545)"
font-family="Liberation Serif" font-size="12" font-weight="700" font-style="normal" 
clip-path="url(#clip30)" >
<defs><clipPath id="clip30"><path vector-effect="none" fill-rule="evenodd" d="M-2,-2 L86,-2 L86,47 L-2,47 L-2,-2z "/>
</clipPath></defs></g>

<g fill="none" stroke="#000000" stroke-opacity="1" stroke-width="1" stroke-linecap="square" stroke-linejoin="bevel" transform="matrix(1,0,0,1,0,0)"
font-family="Liberation Serif" font-size="12" font-weight="700" font-style="normal" 
clip-path="url(#clip30)" >
</g>

<g fill="none" stroke="#000000" stroke-opacity="1" stroke-width="1" stroke-linecap="square" stroke-linejoin="bevel" transform="matrix(2.27273,0,0,2.27273,4.54545,4.54545)"
font-family="Helvetica" font-size="12.5" font-weight="400" font-style="normal" 
clip-path="url(#clip30)" >
</g>

<g fill="none" stroke="#000000" stroke-opacity="1" stroke-width="1" stroke-linecap="square" stroke-linejoin="bevel" transform="matrix(2.27273,0,0,2.27273,4.54545,4.54545)"
font-family="Helvetica" font-size="12.5" font-weight="400" font-style="normal" 
clip-path="url(#clip30)" >
</g>

<g fill="none" stroke="#000000" stroke-opacity="1" stroke-width="0.720081" stroke-linecap="butt" stroke-linejoin="miter" stroke-miterlimit="2" transform="matrix(2.27273,0,0,2.27273,4.54545,4.54545)"
font-family="Helvetica" font-size="12.5" font-weight="400" font-style="normal" 
clip-path="url(#clip30)" >
<path vector-effect="none" fill-rule="evenodd" d="M0,0 L84,0 L84,45 L0,45 L0,0z "/>
</g>

<g fill="none" stroke="#000000" stroke-opacity="1" stroke-width="1" stroke-linecap="square" stroke-linejoin="bevel" transform="matrix(2.27273,0,0,2.27273,4.54545,4.54545)"
font-family="Helvetica" font-size="12.5" font-weight="400" font-style="normal" 
clip-path="url(#clip30)" >
</g>

<g fill="none" stroke="#000000" stroke-opacity="1" stroke-width="1" stroke-linecap="square" stroke-linejoin="bevel" transform="matrix(1,0,0,1,0,0)"
font-family="Helvetica" font-size="12.5" font-weight="400" font-style="normal" 
>
</g>

<g fill="none" stroke="#000000" stroke-opacity="1" stroke-width="1" stroke-linecap="square" stroke-linejoin="bevel" transform="matrix(1,0,0,1,0,0)"
font-family="Helvetica" font-size="12.5" font-weight="400" font-style="normal" 
>
</g>

<g fill="none" stroke="#000000" stroke-opacity="1" stroke-width="1" stroke-linecap="square" stroke-linejoin="bevel" transform="matrix(1,0,0,1,0,0)"
font-family="Helvetica" font-size="12.5" font-weight="400" font-style="normal" 
clip-path="url(#clip31)" >
<defs><clipPath id="clip31"><path vector-effect="non-scaling-stroke" fill-rule="evenodd" d="M0,0 L200,0 L200,111 L0,111 L0,0z "/>
</clipPath></defs></g>

<g fill="none" stroke="#000000" stroke-opacity="1" stroke-width="1" stroke-linecap="square" stroke-linejoin="bevel" transform="matrix(1,0,0,1,0,0)"
font-family="Helvetica" font-size="12.5" font-weight="400" font-style="normal" 
>
</g>

<g fill="none" stroke="#000000" stroke-opacity="1" stroke-width="1" stroke-linecap="square" stroke-linejoin="bevel" transform="matrix(1,0,0,1,0,0)"
font-family="Helvetica" font-size="12.5" font-weight="400" font-style="normal" 
>
</g>

<g fill="none" stroke="#000000" stroke-opacity="1" stroke-width="1" stroke-linecap="square" stroke-linejoin="bevel" transform="matrix(1,0,0,1,0,0)"
font-family="Helvetica" font-size="12.5" font-weight="400" font-style="normal" 
clip-path="url(#clip32)" >
<defs><clipPath id="clip32"><path vector-effect="non-scaling-stroke" fill-rule="evenodd" d="M0,0 L1,0 L1,1 L0,1 L0,0z "/>
</clipPath></defs></g>

<g fill="none" stroke="#000000" stroke-opacity="1" stroke-width="1" stroke-linecap="square" stroke-linejoin="bevel" transform="matrix(1,0,0,1,0,0)"
font-family="Helvetica" font-size="12.5" font-weight="400" font-style="normal" 
>
</g>

<g fill="none" stroke="#000000" stroke-opacity="1" stroke-width="1" stroke-linecap="square" stroke-linejoin="bevel" transform="matrix(1,0,0,1,0,0)"
font-family="Helvetica" font-size="12.5" font-weight="400" font-style="normal" 
>
</g>
</g>
</svg>
