<?xml version="1.0" encoding="UTF-8" standalone="no"?>
<svg width="70.5556mm" height="36.6889mm"
 viewBox="0 0 200 104"
 xmlns="http://www.w3.org/2000/svg" xmlns:xlink="http://www.w3.org/1999/xlink"  version="1.2" baseProfile="tiny">
<defs>
</defs>
<g fill="none" stroke="black" stroke-width="1" fill-rule="evenodd" stroke-linecap="square" stroke-linejoin="bevel" >

<g fill="#ffffff" fill-opacity="0" stroke="none" transform="matrix(1,0,0,1,0,0)"
font-family="Helvetica" font-size="12" font-weight="400" font-style="normal" 
>
<path vector-effect="non-scaling-stroke" fill-rule="evenodd" d="M0,0 L200,0 L200,104 L0,104 L0,0z "/>
</g>

<g fill="none" stroke="#000000" stroke-opacity="1" stroke-width="1" stroke-linecap="square" stroke-linejoin="bevel" transform="matrix(1,0,0,1,0,0)"
font-family="Helvetica" font-size="12" font-weight="400" font-style="normal" 
>
</g>

<g fill="none" stroke="#000000" stroke-opacity="1" stroke-width="1" stroke-linecap="square" stroke-linejoin="bevel" transform="matrix(1,0,0,1,0,0)"
font-family="Helvetica" font-size="12" font-weight="400" font-style="normal" 
clip-path="url(#clip2574)" >
<defs><clipPath id="clip2574"><path vector-effect="non-scaling-stroke" fill-rule="evenodd" d="M0,0 L200,0 L200,104.348 L0,104.348 L0,0z "/>
</clipPath></defs></g>

<g fill="none" stroke="#000000" stroke-opacity="1" stroke-width="1" stroke-linecap="square" stroke-linejoin="bevel" transform="matrix(-2.89855,0,0,-2.89855,20.2899,52.1739)"
font-family="Helvetica" font-size="12" font-weight="400" font-style="normal" 
clip-path="url(#clip2575)" >
<defs><clipPath id="clip2575"><path vector-effect="non-scaling-stroke" fill-rule="evenodd" d="M7,18 L-62,18 L-62,-18 L7,-18 L7,18z "/>
</clipPath></defs></g>

<g fill="#000000" fill-opacity="0" stroke="#000000" stroke-opacity="1" stroke-width="2" stroke-linecap="round" stroke-linejoin="miter" stroke-miterlimit="2" transform="matrix(-2.89855,0,0,-2.89855,20.2899,52.1739)"
font-family="Helvetica" font-size="12" font-weight="400" font-style="normal" 
clip-path="url(#clip2575)" >
<path vector-effect="none" fill-rule="evenodd" d="M5,-5 L0,0 L5,5"/>
</g>

<g fill="none" stroke="#000000" stroke-opacity="1" stroke-width="1" stroke-linecap="square" stroke-linejoin="bevel" transform="matrix(-2.89855,0,0,-2.89855,20.2899,52.1739)"
font-family="Helvetica" font-size="12" font-weight="400" font-style="normal" 
clip-path="url(#clip2575)" >
</g>

<g fill="none" stroke="#000000" stroke-opacity="1" stroke-width="1" stroke-linecap="square" stroke-linejoin="bevel" transform="matrix(2.89855,0,0,2.89855,179.71,52.1739)"
font-family="Helvetica" font-size="12" font-weight="400" font-style="normal" 
clip-path="url(#clip2576)" >
<defs><clipPath id="clip2576"><path vector-effect="non-scaling-stroke" fill-rule="evenodd" d="M-62,-18 L7,-18 L7,18 L-62,18 L-62,-18z "/>
</clipPath></defs></g>

<g fill="#000000" fill-opacity="0" stroke="#000000" stroke-opacity="1" stroke-width="2" stroke-linecap="round" stroke-linejoin="miter" stroke-miterlimit="2" transform="matrix(2.89855,0,0,2.89855,179.71,52.1739)"
font-family="Helvetica" font-size="12" font-weight="400" font-style="normal" 
clip-path="url(#clip2576)" >
<path vector-effect="none" fill-rule="evenodd" d="M0,-5 L5,0 L0,5"/>
</g>

<g fill="none" stroke="#000000" stroke-opacity="1" stroke-width="1" stroke-linecap="square" stroke-linejoin="bevel" transform="matrix(2.89855,0,0,2.89855,179.71,52.1739)"
font-family="Helvetica" font-size="12" font-weight="400" font-style="normal" 
clip-path="url(#clip2576)" >
</g>

<g fill="none" stroke="#000000" stroke-opacity="1" stroke-width="1" stroke-linecap="square" stroke-linejoin="bevel" transform="matrix(2.89855,0,0,2.89855,20.2899,5.7971)"
font-family="Helvetica" font-size="12" font-weight="400" font-style="normal" 
clip-path="url(#clip2577)" >
<defs><clipPath id="clip2577"><path vector-effect="non-scaling-stroke" fill-rule="evenodd" d="M-7,-2 L62,-2 L62,34 L-7,34 L-7,-2z "/>
</clipPath></defs></g>

<g fill="#ffffff" fill-opacity="1" stroke="none" transform="matrix(2.89855,0,0,2.89855,20.2899,5.7971)"
font-family="Helvetica" font-size="12" font-weight="400" font-style="normal" 
clip-path="url(#clip2577)" >
<path vector-effect="none" fill-rule="evenodd" d="M0,0 L55,0 L55,32 L0,32 L0,0z "/>
</g>

<g fill="none" stroke="#000000" stroke-opacity="1" stroke-width="1" stroke-linecap="square" stroke-linejoin="bevel" transform="matrix(2.89855,0,0,2.89855,20.2899,5.7971)"
font-family="Helvetica" font-size="12" font-weight="400" font-style="normal" 
clip-path="url(#clip2577)" >
</g>

<g fill="none" stroke="#000000" stroke-opacity="1" stroke-width="1" stroke-linecap="square" stroke-linejoin="bevel" transform="matrix(2.89855,0,0,2.89855,20.2899,5.7971)"
font-family="Helvetica" font-size="12" font-weight="400" font-style="normal" 
clip-path="url(#clip2577)" >
</g>

<g fill="none" stroke="#000000" stroke-opacity="1" stroke-width="1" stroke-linecap="square" stroke-linejoin="bevel" transform="matrix(2.89855,0,0,2.89855,20.2899,5.7971)"
font-family="Helvetica" font-size="12" font-weight="400" font-style="normal" 
clip-path="url(#clip2578)" >
<defs><clipPath id="clip2578"><path vector-effect="non-scaling-stroke" fill-rule="evenodd" d="M0,0 L55,0 L55,32 L0,32 L0,0z "/>
</clipPath></defs></g>

<g fill="none" stroke="#000000" stroke-opacity="1" stroke-width="1" stroke-linecap="square" stroke-linejoin="bevel" transform="matrix(2.89855,0,0,2.89855,98.5507,52.1739)"
font-family="Helvetica" font-size="10" font-weight="400" font-style="normal" 
clip-path="url(#clip2579)" >
<defs><clipPath id="clip2579"><path vector-effect="none" fill-rule="evenodd" d="M-27,-16 L28,-16 L28,16 L-27,16 L-27,-16z "/>
</clipPath></defs><text textLength="42.7188" fill="#000000" fill-opacity="1" stroke="none" xml:space="preserve" x="-21" y="2.375" font-family="Helvetica" font-size="10" font-weight="400" font-style="normal" 
 >matlabfile</text>
</g>

<g fill="none" stroke="#000000" stroke-opacity="1" stroke-width="1" stroke-linecap="square" stroke-linejoin="bevel" transform="matrix(2.89855,0,0,2.89855,98.5507,52.1739)"
font-family="Helvetica" font-size="10" font-weight="400" font-style="normal" 
clip-path="url(#clip2580)" >
<defs><clipPath id="clip2580"><path vector-effect="none" fill-rule="evenodd" d="M-7,-2 L62,-2 L62,34 L-7,34 L-7,-2z "/>
</clipPath></defs></g>

<g fill="none" stroke="#000000" stroke-opacity="1" stroke-width="1" stroke-linecap="square" stroke-linejoin="bevel" transform="matrix(1,0,0,1,0,0)"
font-family="Helvetica" font-size="10" font-weight="400" font-style="normal" 
clip-path="url(#clip2580)" >
</g>

<g fill="none" stroke="#000000" stroke-opacity="1" stroke-width="1" stroke-linecap="square" stroke-linejoin="bevel" transform="matrix(2.89855,0,0,2.89855,20.2899,5.7971)"
font-family="Helvetica" font-size="12" font-weight="400" font-style="normal" 
clip-path="url(#clip2580)" >
</g>

<g fill="none" stroke="#000000" stroke-opacity="1" stroke-width="1" stroke-linecap="square" stroke-linejoin="bevel" transform="matrix(2.89855,0,0,2.89855,20.2899,5.7971)"
font-family="Helvetica" font-size="12" font-weight="400" font-style="normal" 
clip-path="url(#clip2580)" >
</g>

<g fill="none" stroke="#000000" stroke-opacity="1" stroke-width="0.653323" stroke-linecap="butt" stroke-linejoin="miter" stroke-miterlimit="2" transform="matrix(2.89855,0,0,2.89855,20.2899,5.7971)"
font-family="Helvetica" font-size="12" font-weight="400" font-style="normal" 
clip-path="url(#clip2580)" >
<path vector-effect="none" fill-rule="evenodd" d="M0,0 L55,0 L55,32 L0,32 L0,0z "/>
</g>

<g fill="none" stroke="#000000" stroke-opacity="1" stroke-width="1" stroke-linecap="square" stroke-linejoin="bevel" transform="matrix(2.89855,0,0,2.89855,20.2899,5.7971)"
font-family="Helvetica" font-size="12" font-weight="400" font-style="normal" 
clip-path="url(#clip2580)" >
</g>

<g fill="none" stroke="#000000" stroke-opacity="1" stroke-width="1" stroke-linecap="square" stroke-linejoin="bevel" transform="matrix(1,0,0,1,0,0)"
font-family="Helvetica" font-size="12" font-weight="400" font-style="normal" 
>
</g>

<g fill="none" stroke="#000000" stroke-opacity="1" stroke-width="1" stroke-linecap="square" stroke-linejoin="bevel" transform="matrix(1,0,0,1,0,0)"
font-family="Helvetica" font-size="12" font-weight="400" font-style="normal" 
>
</g>

<g fill="none" stroke="#000000" stroke-opacity="1" stroke-width="1" stroke-linecap="square" stroke-linejoin="bevel" transform="matrix(1,0,0,1,0,0)"
font-family="Helvetica" font-size="12" font-weight="400" font-style="normal" 
clip-path="url(#clip2581)" >
<defs><clipPath id="clip2581"><path vector-effect="non-scaling-stroke" fill-rule="evenodd" d="M0,0 L200,0 L200,104 L0,104 L0,0z "/>
</clipPath></defs></g>

<g fill="none" stroke="#000000" stroke-opacity="1" stroke-width="1" stroke-linecap="square" stroke-linejoin="bevel" transform="matrix(1,0,0,1,0,0)"
font-family="Helvetica" font-size="12" font-weight="400" font-style="normal" 
>
</g>

<g fill="none" stroke="#000000" stroke-opacity="1" stroke-width="1" stroke-linecap="square" stroke-linejoin="bevel" transform="matrix(1,0,0,1,0,0)"
font-family="Helvetica" font-size="12" font-weight="400" font-style="normal" 
>
</g>

<g fill="none" stroke="#000000" stroke-opacity="1" stroke-width="1" stroke-linecap="square" stroke-linejoin="bevel" transform="matrix(1,0,0,1,0,0)"
font-family="Helvetica" font-size="12" font-weight="400" font-style="normal" 
clip-path="url(#clip2582)" >
<defs><clipPath id="clip2582"><path vector-effect="non-scaling-stroke" fill-rule="evenodd" d="M0,0 L1,0 L1,1 L0,1 L0,0z "/>
</clipPath></defs></g>

<g fill="none" stroke="#000000" stroke-opacity="1" stroke-width="1" stroke-linecap="square" stroke-linejoin="bevel" transform="matrix(1,0,0,1,0,0)"
font-family="Helvetica" font-size="12" font-weight="400" font-style="normal" 
>
</g>

<g fill="none" stroke="#000000" stroke-opacity="1" stroke-width="1" stroke-linecap="square" stroke-linejoin="bevel" transform="matrix(1,0,0,1,0,0)"
font-family="Helvetica" font-size="12" font-weight="400" font-style="normal" 
>
</g>
</g>
</svg>
