<?xml version="1.0" encoding="UTF-8" standalone="no"?>
<svg width="52.9167mm" height="52.9167mm"
 viewBox="0 0 200 200"
 xmlns="http://www.w3.org/2000/svg" xmlns:xlink="http://www.w3.org/1999/xlink"  version="1.2" baseProfile="tiny">
<defs>
</defs>
<g fill="none" stroke="black" stroke-width="1" fill-rule="evenodd" stroke-linecap="square" stroke-linejoin="bevel" >

<g fill="#ffffff" fill-opacity="0" stroke="none" transform="matrix(1,0,0,1,0,0)"
font-family="Helvetica" font-size="16" font-weight="400" font-style="normal" 
>
<path vector-effect="non-scaling-stroke" fill-rule="evenodd" d="M0,0 L200,0 L200,200 L0,200 L0,0z "/>
</g>

<g fill="none" stroke="#000000" stroke-opacity="1" stroke-width="1" stroke-linecap="square" stroke-linejoin="bevel" transform="matrix(1,0,0,1,0,0)"
font-family="Helvetica" font-size="16" font-weight="400" font-style="normal" 
>
</g>

<g fill="none" stroke="#000000" stroke-opacity="1" stroke-width="1" stroke-linecap="square" stroke-linejoin="bevel" transform="matrix(1,0,0,1,0,0)"
font-family="Helvetica" font-size="16" font-weight="400" font-style="normal" 
clip-path="url(#clip3966)" >
<defs><clipPath id="clip3966"><path vector-effect="non-scaling-stroke" fill-rule="evenodd" d="M0,0 L200,0 L200,200 L0,200 L0,0z "/>
</clipPath></defs></g>

<g fill="none" stroke="#000000" stroke-opacity="1" stroke-width="1" stroke-linecap="square" stroke-linejoin="bevel" transform="matrix(3.125,0,0,3.125,6.25,6.25)"
font-family="Helvetica" font-size="16" font-weight="400" font-style="normal" 
clip-path="url(#clip3967)" >
<defs><clipPath id="clip3967"><path vector-effect="non-scaling-stroke" fill-rule="evenodd" d="M-2,-2 L62,-2 L62,62 L-2,62 L-2,-2z "/>
</clipPath></defs></g>

<g fill="#e8d152" fill-opacity="1" stroke="none" transform="matrix(3.125,0,0,3.125,6.25,6.25)"
font-family="Helvetica" font-size="16" font-weight="400" font-style="normal" 
clip-path="url(#clip3967)" >
<path vector-effect="none" fill-rule="evenodd" d="M0,0 L60,0 L60,60 L0,60 L0,0z "/>
</g>

<g fill="none" stroke="#000000" stroke-opacity="1" stroke-width="1" stroke-linecap="square" stroke-linejoin="bevel" transform="matrix(3.125,0,0,3.125,6.25,6.25)"
font-family="Helvetica" font-size="16" font-weight="400" font-style="normal" 
clip-path="url(#clip3967)" >
</g>

<g fill="none" stroke="#000000" stroke-opacity="1" stroke-width="1" stroke-linecap="square" stroke-linejoin="bevel" transform="matrix(3.125,0,0,3.125,6.25,6.25)"
font-family="Helvetica" font-size="16" font-weight="400" font-style="normal" 
clip-path="url(#clip3967)" >
</g>

<g fill="none" stroke="#000000" stroke-opacity="1" stroke-width="1" stroke-linecap="square" stroke-linejoin="bevel" transform="matrix(3.125,0,0,3.125,6.25,6.25)"
font-family="Helvetica" font-size="16" font-weight="400" font-style="normal" 
clip-path="url(#clip3968)" >
<defs><clipPath id="clip3968"><path vector-effect="non-scaling-stroke" fill-rule="evenodd" d="M0,0 L60,0 L60,60 L0,60 L0,0z "/>
</clipPath></defs></g>

<g fill="none" stroke="#000000" stroke-opacity="1" stroke-width="1" stroke-linecap="square" stroke-linejoin="bevel" transform="matrix(3.125,0,0,3.125,-54.6875,-367.187)"
font-family="Helvetica" font-size="16" font-weight="400" font-style="normal" 
clip-path="url(#clip3969)" >
<defs><clipPath id="clip3969"><path vector-effect="none" fill-rule="evenodd" d="M20,120 L80,120 L80,180 L20,180 L20,120z "/>
</clipPath></defs><polyline fill="none" vector-effect="none" points="34,131 66,156 " />
</g>

<g fill="none" stroke="#000000" stroke-opacity="1" stroke-width="1" stroke-linecap="square" stroke-linejoin="bevel" transform="matrix(3.125,0,0,3.125,-54.6875,-367.187)"
font-family="Helvetica" font-size="16" font-weight="400" font-style="normal" 
clip-path="url(#clip3969)" >
<polyline fill="none" vector-effect="none" points="34,144 66,169 " />
</g>

<g fill="none" stroke="#000000" stroke-opacity="1" stroke-width="1" stroke-linecap="square" stroke-linejoin="bevel" transform="matrix(3.125,0,0,3.125,-54.6875,-367.187)"
font-family="Helvetica" font-size="16" font-weight="400" font-style="normal" 
clip-path="url(#clip3969)" >
<polyline fill="none" vector-effect="none" points="34,156 66,144 " />
</g>

<g fill="none" stroke="#000000" stroke-opacity="1" stroke-width="1" stroke-linecap="square" stroke-linejoin="bevel" transform="matrix(3.125,0,0,3.125,-54.6875,-367.187)"
font-family="Helvetica" font-size="16" font-weight="400" font-style="normal" 
clip-path="url(#clip3969)" >
<polyline fill="none" vector-effect="none" points="34,169 66,131 " />
</g>

<g fill="none" stroke="#000000" stroke-opacity="1" stroke-width="1" stroke-linecap="square" stroke-linejoin="bevel" transform="matrix(3.125,0,0,3.125,21.875,125)"
font-family="FreeSans" font-size="16.4571" font-weight="400" font-style="normal" 
clip-path="url(#clip3970)" >
<defs><clipPath id="clip3970"><path vector-effect="none" fill-rule="evenodd" d="M-5,-38 L55,-38 L55,22 L-5,22 L-5,-38z "/>
</clipPath></defs></g>

<g fill="none" stroke="#000000" stroke-opacity="1" stroke-width="1" stroke-linecap="square" stroke-linejoin="bevel" transform="matrix(2.27865,0,0,2.27865,21.875,125)"
font-family="FreeSans" font-size="16.4571" font-weight="400" font-style="normal" 
clip-path="url(#clip3971)" >
<defs><clipPath id="clip3971"><path vector-effect="none" fill-rule="evenodd" d="M-7,-52 L75,-52 L75,30 L-7,30 L-7,-52z "/>
</clipPath></defs><text textLength="10" fill="#000000" fill-opacity="1" stroke="none" xml:space="preserve" x="0" y="5.5" font-family="FreeSans" font-size="16.4571" font-weight="400" font-style="normal" 
 >2</text>
</g>

<g fill="none" stroke="#000000" stroke-opacity="1" stroke-width="1" stroke-linecap="square" stroke-linejoin="bevel" transform="matrix(3.125,0,0,3.125,21.875,125)"
font-family="FreeSans" font-size="16.4571" font-weight="400" font-style="normal" 
clip-path="url(#clip3972)" >
<defs><clipPath id="clip3972"><path vector-effect="none" fill-rule="evenodd" d="M-5,-38 L55,-38 L55,22 L-5,22 L-5,-38z "/>
</clipPath></defs></g>

<g fill="none" stroke="#000000" stroke-opacity="1" stroke-width="1" stroke-linecap="square" stroke-linejoin="bevel" transform="matrix(3.125,0,0,3.125,21.875,168.75)"
font-family="FreeSans" font-size="16.4571" font-weight="400" font-style="normal" 
clip-path="url(#clip3973)" >
<defs><clipPath id="clip3973"><path vector-effect="none" fill-rule="evenodd" d="M-5,-52 L55,-52 L55,8 L-5,8 L-5,-52z "/>
</clipPath></defs></g>

<g fill="none" stroke="#000000" stroke-opacity="1" stroke-width="1" stroke-linecap="square" stroke-linejoin="bevel" transform="matrix(2.27865,0,0,2.27865,21.875,168.75)"
font-family="FreeSans" font-size="16.4571" font-weight="400" font-style="normal" 
clip-path="url(#clip3974)" >
<defs><clipPath id="clip3974"><path vector-effect="none" fill-rule="evenodd" d="M-7,-71 L75,-71 L75,11 L-7,11 L-7,-71z "/>
</clipPath></defs><text textLength="9" fill="#000000" fill-opacity="1" stroke="none" xml:space="preserve" x="0" y="5.5" font-family="FreeSans" font-size="16.4571" font-weight="400" font-style="normal" 
 >3</text>
</g>

<g fill="none" stroke="#000000" stroke-opacity="1" stroke-width="1" stroke-linecap="square" stroke-linejoin="bevel" transform="matrix(3.125,0,0,3.125,21.875,168.75)"
font-family="FreeSans" font-size="16.4571" font-weight="400" font-style="normal" 
clip-path="url(#clip3975)" >
<defs><clipPath id="clip3975"><path vector-effect="none" fill-rule="evenodd" d="M-5,-52 L55,-52 L55,8 L-5,8 L-5,-52z "/>
</clipPath></defs></g>

<g fill="none" stroke="#000000" stroke-opacity="1" stroke-width="1" stroke-linecap="square" stroke-linejoin="bevel" transform="matrix(3.125,0,0,3.125,21.875,81.25)"
font-family="FreeSans" font-size="16.4571" font-weight="400" font-style="normal" 
clip-path="url(#clip3976)" >
<defs><clipPath id="clip3976"><path vector-effect="none" fill-rule="evenodd" d="M-5,-24 L55,-24 L55,36 L-5,36 L-5,-24z "/>
</clipPath></defs></g>

<g fill="none" stroke="#000000" stroke-opacity="1" stroke-width="1" stroke-linecap="square" stroke-linejoin="bevel" transform="matrix(2.27865,0,0,2.27865,21.875,81.25)"
font-family="FreeSans" font-size="16.4571" font-weight="400" font-style="normal" 
clip-path="url(#clip3977)" >
<defs><clipPath id="clip3977"><path vector-effect="none" fill-rule="evenodd" d="M-7,-33 L75,-33 L75,49 L-7,49 L-7,-33z "/>
</clipPath></defs><text textLength="10" fill="#000000" fill-opacity="1" stroke="none" xml:space="preserve" x="0" y="5.5" font-family="FreeSans" font-size="16.4571" font-weight="400" font-style="normal" 
 >1</text>
</g>

<g fill="none" stroke="#000000" stroke-opacity="1" stroke-width="1" stroke-linecap="square" stroke-linejoin="bevel" transform="matrix(3.125,0,0,3.125,21.875,81.25)"
font-family="FreeSans" font-size="16.4571" font-weight="400" font-style="normal" 
clip-path="url(#clip3978)" >
<defs><clipPath id="clip3978"><path vector-effect="none" fill-rule="evenodd" d="M-5,-24 L55,-24 L55,36 L-5,36 L-5,-24z "/>
</clipPath></defs></g>

<g fill="none" stroke="#000000" stroke-opacity="1" stroke-width="1" stroke-linecap="square" stroke-linejoin="bevel" transform="matrix(3.125,0,0,3.125,21.875,37.5)"
font-family="FreeSans" font-size="16.4571" font-weight="400" font-style="normal" 
clip-path="url(#clip3979)" >
<defs><clipPath id="clip3979"><path vector-effect="none" fill-rule="evenodd" d="M-5,-10 L55,-10 L55,50 L-5,50 L-5,-10z "/>
</clipPath></defs></g>

<g fill="none" stroke="#000000" stroke-opacity="1" stroke-width="1" stroke-linecap="square" stroke-linejoin="bevel" transform="matrix(2.27865,0,0,2.27865,21.875,37.5)"
font-family="FreeSans" font-size="16.4571" font-weight="400" font-style="normal" 
clip-path="url(#clip3980)" >
<defs><clipPath id="clip3980"><path vector-effect="none" fill-rule="evenodd" d="M-7,-14 L75,-14 L75,68 L-7,68 L-7,-14z "/>
</clipPath></defs><text textLength="9" fill="#000000" fill-opacity="1" stroke="none" xml:space="preserve" x="0" y="5.5" font-family="FreeSans" font-size="16.4571" font-weight="400" font-style="normal" 
 >0</text>
</g>

<g fill="none" stroke="#000000" stroke-opacity="1" stroke-width="1" stroke-linecap="square" stroke-linejoin="bevel" transform="matrix(3.125,0,0,3.125,21.875,37.5)"
font-family="FreeSans" font-size="16.4571" font-weight="400" font-style="normal" 
clip-path="url(#clip3981)" >
<defs><clipPath id="clip3981"><path vector-effect="none" fill-rule="evenodd" d="M-5,-10 L55,-10 L55,50 L-5,50 L-5,-10z "/>
</clipPath></defs></g>

<g fill="none" stroke="#000000" stroke-opacity="1" stroke-width="1" stroke-linecap="square" stroke-linejoin="bevel" transform="matrix(3.125,0,0,3.125,162.5,37.5)"
font-family="FreeSans" font-size="16.4571" font-weight="400" font-style="normal" 
clip-path="url(#clip3982)" >
<defs><clipPath id="clip3982"><path vector-effect="none" fill-rule="evenodd" d="M-50,-10 L10,-10 L10,50 L-50,50 L-50,-10z "/>
</clipPath></defs></g>

<g fill="none" stroke="#000000" stroke-opacity="1" stroke-width="1" stroke-linecap="square" stroke-linejoin="bevel" transform="matrix(2.27865,0,0,2.27865,162.5,37.5)"
font-family="FreeSans" font-size="16.4571" font-weight="400" font-style="normal" 
clip-path="url(#clip3983)" >
<defs><clipPath id="clip3983"><path vector-effect="none" fill-rule="evenodd" d="M-69,-14 L13,-14 L13,68 L-69,68 L-69,-14z "/>
</clipPath></defs><text textLength="9" fill="#000000" fill-opacity="1" stroke="none" xml:space="preserve" x="0" y="5.5" font-family="FreeSans" font-size="16.4571" font-weight="400" font-style="normal" 
 >3</text>
</g>

<g fill="none" stroke="#000000" stroke-opacity="1" stroke-width="1" stroke-linecap="square" stroke-linejoin="bevel" transform="matrix(3.125,0,0,3.125,162.5,37.5)"
font-family="FreeSans" font-size="16.4571" font-weight="400" font-style="normal" 
clip-path="url(#clip3984)" >
<defs><clipPath id="clip3984"><path vector-effect="none" fill-rule="evenodd" d="M-50,-10 L10,-10 L10,50 L-50,50 L-50,-10z "/>
</clipPath></defs></g>

<g fill="none" stroke="#000000" stroke-opacity="1" stroke-width="1" stroke-linecap="square" stroke-linejoin="bevel" transform="matrix(3.125,0,0,3.125,162.5,81.25)"
font-family="FreeSans" font-size="16.4571" font-weight="400" font-style="normal" 
clip-path="url(#clip3985)" >
<defs><clipPath id="clip3985"><path vector-effect="none" fill-rule="evenodd" d="M-50,-24 L10,-24 L10,36 L-50,36 L-50,-24z "/>
</clipPath></defs></g>

<g fill="none" stroke="#000000" stroke-opacity="1" stroke-width="1" stroke-linecap="square" stroke-linejoin="bevel" transform="matrix(2.27865,0,0,2.27865,162.5,81.25)"
font-family="FreeSans" font-size="16.4571" font-weight="400" font-style="normal" 
clip-path="url(#clip3986)" >
<defs><clipPath id="clip3986"><path vector-effect="none" fill-rule="evenodd" d="M-69,-33 L13,-33 L13,49 L-69,49 L-69,-33z "/>
</clipPath></defs><text textLength="10" fill="#000000" fill-opacity="1" stroke="none" xml:space="preserve" x="0" y="5.5" font-family="FreeSans" font-size="16.4571" font-weight="400" font-style="normal" 
 >2</text>
</g>

<g fill="none" stroke="#000000" stroke-opacity="1" stroke-width="1" stroke-linecap="square" stroke-linejoin="bevel" transform="matrix(3.125,0,0,3.125,162.5,81.25)"
font-family="FreeSans" font-size="16.4571" font-weight="400" font-style="normal" 
clip-path="url(#clip3987)" >
<defs><clipPath id="clip3987"><path vector-effect="none" fill-rule="evenodd" d="M-50,-24 L10,-24 L10,36 L-50,36 L-50,-24z "/>
</clipPath></defs></g>

<g fill="none" stroke="#000000" stroke-opacity="1" stroke-width="1" stroke-linecap="square" stroke-linejoin="bevel" transform="matrix(3.125,0,0,3.125,162.5,125)"
font-family="FreeSans" font-size="16.4571" font-weight="400" font-style="normal" 
clip-path="url(#clip3988)" >
<defs><clipPath id="clip3988"><path vector-effect="none" fill-rule="evenodd" d="M-50,-38 L10,-38 L10,22 L-50,22 L-50,-38z "/>
</clipPath></defs></g>

<g fill="none" stroke="#000000" stroke-opacity="1" stroke-width="1" stroke-linecap="square" stroke-linejoin="bevel" transform="matrix(2.27865,0,0,2.27865,162.5,125)"
font-family="FreeSans" font-size="16.4571" font-weight="400" font-style="normal" 
clip-path="url(#clip3989)" >
<defs><clipPath id="clip3989"><path vector-effect="none" fill-rule="evenodd" d="M-69,-52 L13,-52 L13,30 L-69,30 L-69,-52z "/>
</clipPath></defs><text textLength="9" fill="#000000" fill-opacity="1" stroke="none" xml:space="preserve" x="0" y="5.5" font-family="FreeSans" font-size="16.4571" font-weight="400" font-style="normal" 
 >0</text>
</g>

<g fill="none" stroke="#000000" stroke-opacity="1" stroke-width="1" stroke-linecap="square" stroke-linejoin="bevel" transform="matrix(3.125,0,0,3.125,162.5,125)"
font-family="FreeSans" font-size="16.4571" font-weight="400" font-style="normal" 
clip-path="url(#clip3990)" >
<defs><clipPath id="clip3990"><path vector-effect="none" fill-rule="evenodd" d="M-50,-38 L10,-38 L10,22 L-50,22 L-50,-38z "/>
</clipPath></defs></g>

<g fill="none" stroke="#000000" stroke-opacity="1" stroke-width="1" stroke-linecap="square" stroke-linejoin="bevel" transform="matrix(3.125,0,0,3.125,162.5,168.75)"
font-family="FreeSans" font-size="16.4571" font-weight="400" font-style="normal" 
clip-path="url(#clip3991)" >
<defs><clipPath id="clip3991"><path vector-effect="none" fill-rule="evenodd" d="M-50,-52 L10,-52 L10,8 L-50,8 L-50,-52z "/>
</clipPath></defs></g>

<g fill="none" stroke="#000000" stroke-opacity="1" stroke-width="1" stroke-linecap="square" stroke-linejoin="bevel" transform="matrix(2.27865,0,0,2.27865,162.5,168.75)"
font-family="FreeSans" font-size="16.4571" font-weight="400" font-style="normal" 
clip-path="url(#clip3992)" >
<defs><clipPath id="clip3992"><path vector-effect="none" fill-rule="evenodd" d="M-69,-71 L13,-71 L13,11 L-69,11 L-69,-71z "/>
</clipPath></defs><text textLength="10" fill="#000000" fill-opacity="1" stroke="none" xml:space="preserve" x="0" y="5.5" font-family="FreeSans" font-size="16.4571" font-weight="400" font-style="normal" 
 >1</text>
</g>

<g fill="none" stroke="#000000" stroke-opacity="1" stroke-width="1" stroke-linecap="square" stroke-linejoin="bevel" transform="matrix(3.125,0,0,3.125,162.5,168.75)"
font-family="FreeSans" font-size="16.4571" font-weight="400" font-style="normal" 
clip-path="url(#clip3993)" >
<defs><clipPath id="clip3993"><path vector-effect="none" fill-rule="evenodd" d="M-50,-52 L10,-52 L10,8 L-50,8 L-50,-52z "/>
</clipPath></defs></g>

<g fill="none" stroke="#000000" stroke-opacity="1" stroke-width="1" stroke-linecap="square" stroke-linejoin="bevel" transform="matrix(4.28571,0,0,4.28571,162.5,168.75)"
font-family="FreeSans" font-size="16.4571" font-weight="400" font-style="normal" 
clip-path="url(#clip3994)" >
<defs><clipPath id="clip3994"><path vector-effect="none" fill-rule="evenodd" d="M-2,-2 L62,-2 L62,62 L-2,62 L-2,-2z "/>
</clipPath></defs></g>

<g fill="none" stroke="#000000" stroke-opacity="1" stroke-width="1" stroke-linecap="square" stroke-linejoin="bevel" transform="matrix(1,0,0,1,0,0)"
font-family="FreeSans" font-size="16.4571" font-weight="400" font-style="normal" 
clip-path="url(#clip3994)" >
</g>

<g fill="none" stroke="#000000" stroke-opacity="1" stroke-width="1" stroke-linecap="square" stroke-linejoin="bevel" transform="matrix(3.125,0,0,3.125,6.25,6.25)"
font-family="Helvetica" font-size="16" font-weight="400" font-style="normal" 
clip-path="url(#clip3994)" >
</g>

<g fill="none" stroke="#000000" stroke-opacity="1" stroke-width="1" stroke-linecap="square" stroke-linejoin="bevel" transform="matrix(3.125,0,0,3.125,6.25,6.25)"
font-family="Helvetica" font-size="16" font-weight="400" font-style="normal" 
clip-path="url(#clip3994)" >
</g>

<g fill="none" stroke="#000000" stroke-opacity="1" stroke-width="0.633957" stroke-linecap="butt" stroke-linejoin="miter" stroke-miterlimit="2" transform="matrix(3.125,0,0,3.125,6.25,6.25)"
font-family="Helvetica" font-size="16" font-weight="400" font-style="normal" 
clip-path="url(#clip3994)" >
<path vector-effect="none" fill-rule="evenodd" d="M0,0 L60,0 L60,60 L0,60 L0,0z "/>
</g>

<g fill="none" stroke="#000000" stroke-opacity="1" stroke-width="1" stroke-linecap="square" stroke-linejoin="bevel" transform="matrix(3.125,0,0,3.125,6.25,6.25)"
font-family="Helvetica" font-size="16" font-weight="400" font-style="normal" 
clip-path="url(#clip3994)" >
</g>

<g fill="none" stroke="#000000" stroke-opacity="1" stroke-width="1" stroke-linecap="square" stroke-linejoin="bevel" transform="matrix(3.125,0,0,3.125,6.25,6.25)"
font-family="Helvetica" font-size="16" font-weight="400" font-style="normal" 
clip-path="url(#clip3994)" >
</g>

<g fill="none" stroke="#000000" stroke-opacity="1" stroke-width="0.32" stroke-linecap="butt" stroke-linejoin="miter" stroke-miterlimit="2" transform="matrix(3.125,0,0,3.125,6.25,6.25)"
font-family="Helvetica" font-size="16" font-weight="400" font-style="normal" 
clip-path="url(#clip3994)" >
</g>

<g fill="none" stroke="#000000" stroke-opacity="1" stroke-width="1" stroke-linecap="square" stroke-linejoin="bevel" transform="matrix(3.125,0,0,3.125,6.25,6.25)"
font-family="Helvetica" font-size="16" font-weight="400" font-style="normal" 
clip-path="url(#clip3994)" >
</g>

<g fill="none" stroke="#000000" stroke-opacity="1" stroke-width="1" stroke-linecap="square" stroke-linejoin="bevel" transform="matrix(3.125,0,0,3.125,100,200)"
font-family="Helvetica" font-size="16" font-weight="400" font-style="normal" 
clip-path="url(#clip3995)" >
<defs><clipPath id="clip3995"><path vector-effect="non-scaling-stroke" fill-rule="evenodd" d="M-32,-64 L32,-64 L32,0 L-32,0 L-32,-64z "/>
</clipPath></defs></g>

<g fill="none" stroke="#000000" stroke-opacity="1" stroke-width="1" stroke-linecap="square" stroke-linejoin="bevel" transform="matrix(3.125,0,0,3.125,100,200)"
font-family="Helvetica" font-size="16" font-weight="400" font-style="normal" 
clip-path="url(#clip3995)" >
</g>

<g fill="none" stroke="#000000" stroke-opacity="1" stroke-width="1" stroke-linecap="square" stroke-linejoin="bevel" transform="matrix(1,0,0,1,0,0)"
font-family="Helvetica" font-size="16" font-weight="400" font-style="normal" 
>
</g>

<g fill="none" stroke="#000000" stroke-opacity="1" stroke-width="1" stroke-linecap="square" stroke-linejoin="bevel" transform="matrix(1,0,0,1,0,0)"
font-family="Helvetica" font-size="16" font-weight="400" font-style="normal" 
>
</g>

<g fill="none" stroke="#000000" stroke-opacity="1" stroke-width="1" stroke-linecap="square" stroke-linejoin="bevel" transform="matrix(1,0,0,1,0,0)"
font-family="Helvetica" font-size="16" font-weight="400" font-style="normal" 
clip-path="url(#clip3996)" >
<defs><clipPath id="clip3996"><path vector-effect="non-scaling-stroke" fill-rule="evenodd" d="M0,0 L200,0 L200,200 L0,200 L0,0z "/>
</clipPath></defs></g>

<g fill="none" stroke="#000000" stroke-opacity="1" stroke-width="1" stroke-linecap="square" stroke-linejoin="bevel" transform="matrix(1,0,0,1,0,0)"
font-family="Helvetica" font-size="16" font-weight="400" font-style="normal" 
>
</g>

<g fill="none" stroke="#000000" stroke-opacity="1" stroke-width="1" stroke-linecap="square" stroke-linejoin="bevel" transform="matrix(1,0,0,1,0,0)"
font-family="Helvetica" font-size="16" font-weight="400" font-style="normal" 
>
</g>

<g fill="none" stroke="#000000" stroke-opacity="1" stroke-width="1" stroke-linecap="square" stroke-linejoin="bevel" transform="matrix(1,0,0,1,0,0)"
font-family="Helvetica" font-size="16" font-weight="400" font-style="normal" 
clip-path="url(#clip3997)" >
<defs><clipPath id="clip3997"><path vector-effect="non-scaling-stroke" fill-rule="evenodd" d="M0,0 L1,0 L1,1 L0,1 L0,0z "/>
</clipPath></defs></g>

<g fill="none" stroke="#000000" stroke-opacity="1" stroke-width="1" stroke-linecap="square" stroke-linejoin="bevel" transform="matrix(1,0,0,1,0,0)"
font-family="Helvetica" font-size="16" font-weight="400" font-style="normal" 
>
</g>

<g fill="none" stroke="#000000" stroke-opacity="1" stroke-width="1" stroke-linecap="square" stroke-linejoin="bevel" transform="matrix(1,0,0,1,0,0)"
font-family="Helvetica" font-size="16" font-weight="400" font-style="normal" 
>
</g>
</g>
</svg>
