<?xml version="1.0" encoding="UTF-8" standalone="no"?>
<svg width="52.9167mm" height="52.9167mm"
 viewBox="0 0 200 200"
 xmlns="http://www.w3.org/2000/svg" xmlns:xlink="http://www.w3.org/1999/xlink"  version="1.2" baseProfile="tiny">
<defs>
</defs>
<g fill="none" stroke="black" stroke-width="1" fill-rule="evenodd" stroke-linecap="square" stroke-linejoin="bevel" >

<g fill="#ffffff" fill-opacity="0" stroke="none" transform="matrix(1,0,0,1,0,0)"
font-family="Helvetica" font-size="16" font-weight="400" font-style="normal" 
>
<path vector-effect="non-scaling-stroke" fill-rule="evenodd" d="M0,0 L200,0 L200,200 L0,200 L0,0z "/>
</g>

<g fill="none" stroke="#000000" stroke-opacity="1" stroke-width="1" stroke-linecap="square" stroke-linejoin="bevel" transform="matrix(1,0,0,1,0,0)"
font-family="Helvetica" font-size="16" font-weight="400" font-style="normal" 
>
</g>

<g fill="none" stroke="#000000" stroke-opacity="1" stroke-width="1" stroke-linecap="square" stroke-linejoin="bevel" transform="matrix(1,0,0,1,0,0)"
font-family="Helvetica" font-size="16" font-weight="400" font-style="normal" 
clip-path="url(#clip4043)" >
<defs><clipPath id="clip4043"><path vector-effect="non-scaling-stroke" fill-rule="evenodd" d="M0,0 L200,0 L200,200 L0,200 L0,0z "/>
</clipPath></defs></g>

<g fill="none" stroke="#000000" stroke-opacity="1" stroke-width="1" stroke-linecap="square" stroke-linejoin="bevel" transform="matrix(3.125,0,0,3.125,6.25,6.25)"
font-family="Helvetica" font-size="16" font-weight="400" font-style="normal" 
clip-path="url(#clip4044)" >
<defs><clipPath id="clip4044"><path vector-effect="non-scaling-stroke" fill-rule="evenodd" d="M-2,-2 L62,-2 L62,62 L-2,62 L-2,-2z "/>
</clipPath></defs></g>

<g fill="#e8d152" fill-opacity="1" stroke="none" transform="matrix(3.125,0,0,3.125,6.25,6.25)"
font-family="Helvetica" font-size="16" font-weight="400" font-style="normal" 
clip-path="url(#clip4044)" >
<path vector-effect="none" fill-rule="evenodd" d="M0,0 L60,0 L60,60 L0,60 L0,0z "/>
</g>

<g fill="none" stroke="#000000" stroke-opacity="1" stroke-width="1" stroke-linecap="square" stroke-linejoin="bevel" transform="matrix(3.125,0,0,3.125,6.25,6.25)"
font-family="Helvetica" font-size="16" font-weight="400" font-style="normal" 
clip-path="url(#clip4044)" >
</g>

<g fill="none" stroke="#000000" stroke-opacity="1" stroke-width="1" stroke-linecap="square" stroke-linejoin="bevel" transform="matrix(3.125,0,0,3.125,6.25,6.25)"
font-family="Helvetica" font-size="16" font-weight="400" font-style="normal" 
clip-path="url(#clip4044)" >
</g>

<g fill="none" stroke="#000000" stroke-opacity="1" stroke-width="1" stroke-linecap="square" stroke-linejoin="bevel" transform="matrix(3.125,0,0,3.125,6.25,6.25)"
font-family="Helvetica" font-size="16" font-weight="400" font-style="normal" 
clip-path="url(#clip4045)" >
<defs><clipPath id="clip4045"><path vector-effect="non-scaling-stroke" fill-rule="evenodd" d="M0,0 L60,0 L60,60 L0,60 L0,0z "/>
</clipPath></defs></g>

<g fill="none" stroke="#000000" stroke-opacity="1" stroke-width="1" stroke-linecap="square" stroke-linejoin="bevel" transform="matrix(3.125,0,0,3.125,-367.187,-992.187)"
font-family="Helvetica" font-size="16" font-weight="400" font-style="normal" 
clip-path="url(#clip4046)" >
<defs><clipPath id="clip4046"><path vector-effect="none" fill-rule="evenodd" d="M120,320 L180,320 L180,380 L120,380 L120,320z "/>
</clipPath></defs><polyline fill="none" vector-effect="none" points="146,331 155,331 " />
</g>

<g fill="none" stroke="#000000" stroke-opacity="1" stroke-width="1" stroke-linecap="square" stroke-linejoin="bevel" transform="matrix(3.125,0,0,3.125,-367.187,-992.187)"
font-family="Helvetica" font-size="16" font-weight="400" font-style="normal" 
clip-path="url(#clip4046)" >
<polyline fill="none" vector-effect="none" points="155,331 154,328 " />
</g>

<g fill="none" stroke="#000000" stroke-opacity="1" stroke-width="1" stroke-linecap="square" stroke-linejoin="bevel" transform="matrix(3.125,0,0,3.125,-367.187,-992.187)"
font-family="Helvetica" font-size="16" font-weight="400" font-style="normal" 
clip-path="url(#clip4046)" >
<polyline fill="none" vector-effect="none" points="154,328 156,331 " />
</g>

<g fill="none" stroke="#000000" stroke-opacity="1" stroke-width="1" stroke-linecap="square" stroke-linejoin="bevel" transform="matrix(3.125,0,0,3.125,-367.187,-992.187)"
font-family="Helvetica" font-size="16" font-weight="400" font-style="normal" 
clip-path="url(#clip4046)" >
<polyline fill="none" vector-effect="none" points="156,331 154,334 " />
</g>

<g fill="none" stroke="#000000" stroke-opacity="1" stroke-width="1" stroke-linecap="square" stroke-linejoin="bevel" transform="matrix(3.125,0,0,3.125,-367.187,-992.187)"
font-family="Helvetica" font-size="16" font-weight="400" font-style="normal" 
clip-path="url(#clip4046)" >
<polyline fill="none" vector-effect="none" points="154,334 155,332 " />
</g>

<g fill="none" stroke="#000000" stroke-opacity="1" stroke-width="1" stroke-linecap="square" stroke-linejoin="bevel" transform="matrix(3.125,0,0,3.125,-367.187,-992.187)"
font-family="Helvetica" font-size="16" font-weight="400" font-style="normal" 
clip-path="url(#clip4046)" >
<polyline fill="none" vector-effect="none" points="155,332 146,332 " />
</g>

<g fill="none" stroke="#000000" stroke-opacity="1" stroke-width="1" stroke-linecap="square" stroke-linejoin="bevel" transform="matrix(3.125,0,0,3.125,-367.187,-992.187)"
font-family="Helvetica" font-size="16" font-weight="400" font-style="normal" 
clip-path="url(#clip4046)" >
<polyline fill="none" vector-effect="none" points="146,332 146,331 " />
</g>

<g fill="none" stroke="#000000" stroke-opacity="1" stroke-width="1" stroke-linecap="square" stroke-linejoin="bevel" transform="matrix(3.125,0,0,3.125,-367.187,-992.187)"
font-family="Helvetica" font-size="16" font-weight="400" font-style="normal" 
clip-path="url(#clip4046)" >
<polyline fill="none" vector-effect="none" points="146,339 156,349 " />
</g>

<g fill="none" stroke="#000000" stroke-opacity="1" stroke-width="1" stroke-linecap="square" stroke-linejoin="bevel" transform="matrix(3.125,0,0,3.125,-367.187,-992.187)"
font-family="Helvetica" font-size="16" font-weight="400" font-style="normal" 
clip-path="url(#clip4046)" >
<polyline fill="none" vector-effect="none" points="156,349 156,345 " />
</g>

<g fill="none" stroke="#000000" stroke-opacity="1" stroke-width="1" stroke-linecap="square" stroke-linejoin="bevel" transform="matrix(3.125,0,0,3.125,-367.187,-992.187)"
font-family="Helvetica" font-size="16" font-weight="400" font-style="normal" 
clip-path="url(#clip4046)" >
<polyline fill="none" vector-effect="none" points="156,345 156,350 " />
</g>

<g fill="none" stroke="#000000" stroke-opacity="1" stroke-width="1" stroke-linecap="square" stroke-linejoin="bevel" transform="matrix(3.125,0,0,3.125,-367.187,-992.187)"
font-family="Helvetica" font-size="16" font-weight="400" font-style="normal" 
clip-path="url(#clip4046)" >
<polyline fill="none" vector-effect="none" points="156,350 152,349 " />
</g>

<g fill="none" stroke="#000000" stroke-opacity="1" stroke-width="1" stroke-linecap="square" stroke-linejoin="bevel" transform="matrix(3.125,0,0,3.125,-367.187,-992.187)"
font-family="Helvetica" font-size="16" font-weight="400" font-style="normal" 
clip-path="url(#clip4046)" >
<polyline fill="none" vector-effect="none" points="152,349 155,349 " />
</g>

<g fill="none" stroke="#000000" stroke-opacity="1" stroke-width="1" stroke-linecap="square" stroke-linejoin="bevel" transform="matrix(3.125,0,0,3.125,-367.187,-992.187)"
font-family="Helvetica" font-size="16" font-weight="400" font-style="normal" 
clip-path="url(#clip4046)" >
<polyline fill="none" vector-effect="none" points="155,349 145,340 " />
</g>

<g fill="none" stroke="#000000" stroke-opacity="1" stroke-width="1" stroke-linecap="square" stroke-linejoin="bevel" transform="matrix(3.125,0,0,3.125,-367.187,-992.187)"
font-family="Helvetica" font-size="16" font-weight="400" font-style="normal" 
clip-path="url(#clip4046)" >
<polyline fill="none" vector-effect="none" points="145,340 146,339 " />
</g>

<g fill="none" stroke="#000000" stroke-opacity="1" stroke-width="1" stroke-linecap="square" stroke-linejoin="bevel" transform="matrix(3.125,0,0,3.125,-367.187,-992.187)"
font-family="Helvetica" font-size="16" font-weight="400" font-style="normal" 
clip-path="url(#clip4046)" >
<polyline fill="none" vector-effect="none" points="146,350 156,367 " />
</g>

<g fill="none" stroke="#000000" stroke-opacity="1" stroke-width="1" stroke-linecap="square" stroke-linejoin="bevel" transform="matrix(3.125,0,0,3.125,-367.187,-992.187)"
font-family="Helvetica" font-size="16" font-weight="400" font-style="normal" 
clip-path="url(#clip4046)" >
<polyline fill="none" vector-effect="none" points="156,367 156,363 " />
</g>

<g fill="none" stroke="#000000" stroke-opacity="1" stroke-width="1" stroke-linecap="square" stroke-linejoin="bevel" transform="matrix(3.125,0,0,3.125,-367.187,-992.187)"
font-family="Helvetica" font-size="16" font-weight="400" font-style="normal" 
clip-path="url(#clip4046)" >
<polyline fill="none" vector-effect="none" points="156,363 156,369 " />
</g>

<g fill="none" stroke="#000000" stroke-opacity="1" stroke-width="1" stroke-linecap="square" stroke-linejoin="bevel" transform="matrix(3.125,0,0,3.125,-367.187,-992.187)"
font-family="Helvetica" font-size="16" font-weight="400" font-style="normal" 
clip-path="url(#clip4046)" >
<polyline fill="none" vector-effect="none" points="156,369 151,365 " />
</g>

<g fill="none" stroke="#000000" stroke-opacity="1" stroke-width="1" stroke-linecap="square" stroke-linejoin="bevel" transform="matrix(3.125,0,0,3.125,-367.187,-992.187)"
font-family="Helvetica" font-size="16" font-weight="400" font-style="normal" 
clip-path="url(#clip4046)" >
<polyline fill="none" vector-effect="none" points="151,365 155,367 " />
</g>

<g fill="none" stroke="#000000" stroke-opacity="1" stroke-width="1" stroke-linecap="square" stroke-linejoin="bevel" transform="matrix(3.125,0,0,3.125,-367.187,-992.187)"
font-family="Helvetica" font-size="16" font-weight="400" font-style="normal" 
clip-path="url(#clip4046)" >
<polyline fill="none" vector-effect="none" points="155,367 145,350 " />
</g>

<g fill="none" stroke="#000000" stroke-opacity="1" stroke-width="1" stroke-linecap="square" stroke-linejoin="bevel" transform="matrix(3.125,0,0,3.125,-367.187,-992.187)"
font-family="Helvetica" font-size="16" font-weight="400" font-style="normal" 
clip-path="url(#clip4046)" >
<polyline fill="none" vector-effect="none" points="145,350 146,350 " />
</g>

<g fill="none" stroke="#000000" stroke-opacity="1" stroke-width="1" stroke-linecap="square" stroke-linejoin="bevel" transform="matrix(3.125,0,0,3.125,-367.187,-992.187)"
font-family="Helvetica" font-size="16" font-weight="400" font-style="normal" 
clip-path="url(#clip4046)" >
<polyline fill="none" vector-effect="none" points="146,361 152,375 " />
</g>

<g fill="none" stroke="#000000" stroke-opacity="1" stroke-width="1" stroke-linecap="square" stroke-linejoin="bevel" transform="matrix(3.125,0,0,3.125,-367.187,-992.187)"
font-family="Helvetica" font-size="16" font-weight="400" font-style="normal" 
clip-path="url(#clip4046)" >
<polyline fill="none" vector-effect="none" points="152,375 153,371 " />
</g>

<g fill="none" stroke="#000000" stroke-opacity="1" stroke-width="1" stroke-linecap="square" stroke-linejoin="bevel" transform="matrix(3.125,0,0,3.125,-367.187,-992.187)"
font-family="Helvetica" font-size="16" font-weight="400" font-style="normal" 
clip-path="url(#clip4046)" >
<polyline fill="none" vector-effect="none" points="153,371 152,376 " />
</g>

<g fill="none" stroke="#000000" stroke-opacity="1" stroke-width="1" stroke-linecap="square" stroke-linejoin="bevel" transform="matrix(3.125,0,0,3.125,-367.187,-992.187)"
font-family="Helvetica" font-size="16" font-weight="400" font-style="normal" 
clip-path="url(#clip4046)" >
<polyline fill="none" vector-effect="none" points="152,376 148,374 " />
</g>

<g fill="none" stroke="#000000" stroke-opacity="1" stroke-width="1" stroke-linecap="square" stroke-linejoin="bevel" transform="matrix(3.125,0,0,3.125,-367.187,-992.187)"
font-family="Helvetica" font-size="16" font-weight="400" font-style="normal" 
clip-path="url(#clip4046)" >
<polyline fill="none" vector-effect="none" points="148,374 151,375 " />
</g>

<g fill="none" stroke="#000000" stroke-opacity="1" stroke-width="1" stroke-linecap="square" stroke-linejoin="bevel" transform="matrix(3.125,0,0,3.125,-367.187,-992.187)"
font-family="Helvetica" font-size="16" font-weight="400" font-style="normal" 
clip-path="url(#clip4046)" >
<polyline fill="none" vector-effect="none" points="151,375 145,361 " />
</g>

<g fill="none" stroke="#000000" stroke-opacity="1" stroke-width="1" stroke-linecap="square" stroke-linejoin="bevel" transform="matrix(3.125,0,0,3.125,-367.187,-992.187)"
font-family="Helvetica" font-size="16" font-weight="400" font-style="normal" 
clip-path="url(#clip4046)" >
<polyline fill="none" vector-effect="none" points="145,361 146,361 " />
</g>

<g fill="#404040" fill-opacity="1" stroke="#404040" stroke-opacity="1" stroke-width="1" stroke-linecap="square" stroke-linejoin="bevel" transform="matrix(3.125,0,0,3.125,-368.75,-993.75)"
font-family="Helvetica" font-size="16" font-weight="400" font-style="normal" 
clip-path="url(#clip4046)" >
<path vector-effect="none" fill-rule="evenodd" d="M146,331 L155,331 L154,328 L156,331 L154,334 L155,332 L146,332 L146,331z "/>
</g>

<g fill="#404040" fill-opacity="1" stroke="#404040" stroke-opacity="1" stroke-width="1" stroke-linecap="square" stroke-linejoin="bevel" transform="matrix(3.125,0,0,3.125,-368.75,-993.75)"
font-family="Helvetica" font-size="16" font-weight="400" font-style="normal" 
clip-path="url(#clip4046)" >
<path vector-effect="none" fill-rule="evenodd" d="M146,339 L156,349 L156,345 L156,350 L152,349 L155,349 L145,340 L146,339z "/>
</g>

<g fill="#404040" fill-opacity="1" stroke="#404040" stroke-opacity="1" stroke-width="1" stroke-linecap="square" stroke-linejoin="bevel" transform="matrix(3.125,0,0,3.125,-368.75,-993.75)"
font-family="Helvetica" font-size="16" font-weight="400" font-style="normal" 
clip-path="url(#clip4046)" >
<path vector-effect="none" fill-rule="evenodd" d="M146,350 L156,367 L156,363 L156,369 L151,365 L155,367 L145,350 L146,350z "/>
</g>

<g fill="#404040" fill-opacity="1" stroke="#404040" stroke-opacity="1" stroke-width="1" stroke-linecap="square" stroke-linejoin="bevel" transform="matrix(3.125,0,0,3.125,-368.75,-993.75)"
font-family="Helvetica" font-size="16" font-weight="400" font-style="normal" 
clip-path="url(#clip4046)" >
<path vector-effect="none" fill-rule="evenodd" d="M146,361 L152,375 L153,371 L152,376 L148,374 L151,375 L145,361 L146,361z "/>
</g>

<g fill="#404040" fill-opacity="1" stroke="#000000" stroke-opacity="1" stroke-width="1" stroke-linecap="square" stroke-linejoin="bevel" transform="matrix(3.125,0,0,3.125,50,28.125)"
font-family="FreeSans" font-size="16.4571" font-weight="400" font-style="normal" 
clip-path="url(#clip4047)" >
<defs><clipPath id="clip4047"><path vector-effect="none" fill-rule="evenodd" d="M-14,-7 L46,-7 L46,53 L-14,53 L-14,-7z "/>
</clipPath></defs></g>

<g fill="#404040" fill-opacity="1" stroke="#000000" stroke-opacity="1" stroke-width="1" stroke-linecap="square" stroke-linejoin="bevel" transform="matrix(2.27865,0,0,2.27865,50,28.125)"
font-family="FreeSans" font-size="16.4571" font-weight="400" font-style="normal" 
clip-path="url(#clip4048)" >
<defs><clipPath id="clip4048"><path vector-effect="none" fill-rule="evenodd" d="M-19,-10 L63,-10 L63,72 L-19,72 L-19,-10z "/>
</clipPath></defs><text textLength="10" fill="#000000" fill-opacity="1" stroke="none" xml:space="preserve" x="0" y="5.5" font-family="FreeSans" font-size="16.4571" font-weight="400" font-style="normal" 
 >1</text>
</g>

<g fill="#404040" fill-opacity="1" stroke="#000000" stroke-opacity="1" stroke-width="1" stroke-linecap="square" stroke-linejoin="bevel" transform="matrix(3.125,0,0,3.125,50,28.125)"
font-family="FreeSans" font-size="16.4571" font-weight="400" font-style="normal" 
clip-path="url(#clip4049)" >
<defs><clipPath id="clip4049"><path vector-effect="none" fill-rule="evenodd" d="M-14,-7 L46,-7 L46,53 L-14,53 L-14,-7z "/>
</clipPath></defs></g>

<g fill="#404040" fill-opacity="1" stroke="#000000" stroke-opacity="1" stroke-width="1" stroke-linecap="square" stroke-linejoin="bevel" transform="matrix(3.125,0,0,3.125,50,65.625)"
font-family="FreeSans" font-size="16.4571" font-weight="400" font-style="normal" 
clip-path="url(#clip4050)" >
<defs><clipPath id="clip4050"><path vector-effect="none" fill-rule="evenodd" d="M-14,-19 L46,-19 L46,41 L-14,41 L-14,-19z "/>
</clipPath></defs></g>

<g fill="#404040" fill-opacity="1" stroke="#000000" stroke-opacity="1" stroke-width="1" stroke-linecap="square" stroke-linejoin="bevel" transform="matrix(2.27865,0,0,2.27865,50,65.625)"
font-family="FreeSans" font-size="16.4571" font-weight="400" font-style="normal" 
clip-path="url(#clip4051)" >
<defs><clipPath id="clip4051"><path vector-effect="none" fill-rule="evenodd" d="M-19,-26 L63,-26 L63,56 L-19,56 L-19,-26z "/>
</clipPath></defs><text textLength="10" fill="#000000" fill-opacity="1" stroke="none" xml:space="preserve" x="0" y="5.5" font-family="FreeSans" font-size="16.4571" font-weight="400" font-style="normal" 
 >2</text>
</g>

<g fill="#404040" fill-opacity="1" stroke="#000000" stroke-opacity="1" stroke-width="1" stroke-linecap="square" stroke-linejoin="bevel" transform="matrix(3.125,0,0,3.125,50,65.625)"
font-family="FreeSans" font-size="16.4571" font-weight="400" font-style="normal" 
clip-path="url(#clip4052)" >
<defs><clipPath id="clip4052"><path vector-effect="none" fill-rule="evenodd" d="M-14,-19 L46,-19 L46,41 L-14,41 L-14,-19z "/>
</clipPath></defs></g>

<g fill="#404040" fill-opacity="1" stroke="#000000" stroke-opacity="1" stroke-width="1" stroke-linecap="square" stroke-linejoin="bevel" transform="matrix(3.125,0,0,3.125,50,103.125)"
font-family="FreeSans" font-size="16.4571" font-weight="400" font-style="normal" 
clip-path="url(#clip4053)" >
<defs><clipPath id="clip4053"><path vector-effect="none" fill-rule="evenodd" d="M-14,-31 L46,-31 L46,29 L-14,29 L-14,-31z "/>
</clipPath></defs></g>

<g fill="#404040" fill-opacity="1" stroke="#000000" stroke-opacity="1" stroke-width="1" stroke-linecap="square" stroke-linejoin="bevel" transform="matrix(2.27865,0,0,2.27865,50,103.125)"
font-family="FreeSans" font-size="16.4571" font-weight="400" font-style="normal" 
clip-path="url(#clip4054)" >
<defs><clipPath id="clip4054"><path vector-effect="none" fill-rule="evenodd" d="M-19,-43 L63,-43 L63,39 L-19,39 L-19,-43z "/>
</clipPath></defs><text textLength="9" fill="#000000" fill-opacity="1" stroke="none" xml:space="preserve" x="0" y="5.5" font-family="FreeSans" font-size="16.4571" font-weight="400" font-style="normal" 
 >3</text>
</g>

<g fill="#404040" fill-opacity="1" stroke="#000000" stroke-opacity="1" stroke-width="1" stroke-linecap="square" stroke-linejoin="bevel" transform="matrix(3.125,0,0,3.125,50,103.125)"
font-family="FreeSans" font-size="16.4571" font-weight="400" font-style="normal" 
clip-path="url(#clip4055)" >
<defs><clipPath id="clip4055"><path vector-effect="none" fill-rule="evenodd" d="M-14,-31 L46,-31 L46,29 L-14,29 L-14,-31z "/>
</clipPath></defs></g>

<g fill="#404040" fill-opacity="1" stroke="#000000" stroke-opacity="1" stroke-width="1" stroke-linecap="square" stroke-linejoin="bevel" transform="matrix(3.125,0,0,3.125,50,140.625)"
font-family="FreeSans" font-size="16.4571" font-weight="400" font-style="normal" 
clip-path="url(#clip4056)" >
<defs><clipPath id="clip4056"><path vector-effect="none" fill-rule="evenodd" d="M-14,-43 L46,-43 L46,17 L-14,17 L-14,-43z "/>
</clipPath></defs></g>

<g fill="#404040" fill-opacity="1" stroke="#000000" stroke-opacity="1" stroke-width="1" stroke-linecap="square" stroke-linejoin="bevel" transform="matrix(2.27865,0,0,2.27865,50,140.625)"
font-family="FreeSans" font-size="16.4571" font-weight="400" font-style="normal" 
clip-path="url(#clip4057)" >
<defs><clipPath id="clip4057"><path vector-effect="none" fill-rule="evenodd" d="M-19,-59 L63,-59 L63,23 L-19,23 L-19,-59z "/>
</clipPath></defs><text textLength="10" fill="#000000" fill-opacity="1" stroke="none" xml:space="preserve" x="0" y="5.5" font-family="FreeSans" font-size="16.4571" font-weight="400" font-style="normal" 
 >4</text>
</g>

<g fill="#404040" fill-opacity="1" stroke="#000000" stroke-opacity="1" stroke-width="1" stroke-linecap="square" stroke-linejoin="bevel" transform="matrix(3.125,0,0,3.125,50,140.625)"
font-family="FreeSans" font-size="16.4571" font-weight="400" font-style="normal" 
clip-path="url(#clip4058)" >
<defs><clipPath id="clip4058"><path vector-effect="none" fill-rule="evenodd" d="M-14,-43 L46,-43 L46,17 L-14,17 L-14,-43z "/>
</clipPath></defs></g>

<g fill="#404040" fill-opacity="1" stroke="#000000" stroke-opacity="1" stroke-width="1" stroke-linecap="square" stroke-linejoin="bevel" transform="matrix(3.125,0,0,3.125,50,178.125)"
font-family="FreeSans" font-size="16.4571" font-weight="400" font-style="normal" 
clip-path="url(#clip4059)" >
<defs><clipPath id="clip4059"><path vector-effect="none" fill-rule="evenodd" d="M-14,-55 L46,-55 L46,5 L-14,5 L-14,-55z "/>
</clipPath></defs></g>

<g fill="#404040" fill-opacity="1" stroke="#000000" stroke-opacity="1" stroke-width="1" stroke-linecap="square" stroke-linejoin="bevel" transform="matrix(2.27865,0,0,2.27865,50,178.125)"
font-family="FreeSans" font-size="16.4571" font-weight="400" font-style="normal" 
clip-path="url(#clip4060)" >
<defs><clipPath id="clip4060"><path vector-effect="none" fill-rule="evenodd" d="M-19,-75 L63,-75 L63,7 L-19,7 L-19,-75z "/>
</clipPath></defs><text textLength="9" fill="#000000" fill-opacity="1" stroke="none" xml:space="preserve" x="0" y="5.5" font-family="FreeSans" font-size="16.4571" font-weight="400" font-style="normal" 
 >5</text>
</g>

<g fill="#404040" fill-opacity="1" stroke="#000000" stroke-opacity="1" stroke-width="1" stroke-linecap="square" stroke-linejoin="bevel" transform="matrix(3.125,0,0,3.125,50,178.125)"
font-family="FreeSans" font-size="16.4571" font-weight="400" font-style="normal" 
clip-path="url(#clip4061)" >
<defs><clipPath id="clip4061"><path vector-effect="none" fill-rule="evenodd" d="M-14,-55 L46,-55 L46,5 L-14,5 L-14,-55z "/>
</clipPath></defs></g>

<g fill="#404040" fill-opacity="1" stroke="#000000" stroke-opacity="1" stroke-width="1" stroke-linecap="square" stroke-linejoin="bevel" transform="matrix(3.125,0,0,3.125,125,28.125)"
font-family="FreeSans" font-size="16.4571" font-weight="400" font-style="normal" 
clip-path="url(#clip4062)" >
<defs><clipPath id="clip4062"><path vector-effect="none" fill-rule="evenodd" d="M-38,-7 L22,-7 L22,53 L-38,53 L-38,-7z "/>
</clipPath></defs></g>

<g fill="#404040" fill-opacity="1" stroke="#000000" stroke-opacity="1" stroke-width="1" stroke-linecap="square" stroke-linejoin="bevel" transform="matrix(2.27865,0,0,2.27865,125,28.125)"
font-family="FreeSans" font-size="16.4571" font-weight="400" font-style="normal" 
clip-path="url(#clip4063)" >
<defs><clipPath id="clip4063"><path vector-effect="none" fill-rule="evenodd" d="M-52,-10 L30,-10 L30,72 L-52,72 L-52,-10z "/>
</clipPath></defs><text textLength="10" fill="#000000" fill-opacity="1" stroke="none" xml:space="preserve" x="0" y="5.5" font-family="FreeSans" font-size="16.4571" font-weight="400" font-style="normal" 
 >1</text>
</g>

<g fill="#404040" fill-opacity="1" stroke="#000000" stroke-opacity="1" stroke-width="1" stroke-linecap="square" stroke-linejoin="bevel" transform="matrix(3.125,0,0,3.125,125,28.125)"
font-family="FreeSans" font-size="16.4571" font-weight="400" font-style="normal" 
clip-path="url(#clip4064)" >
<defs><clipPath id="clip4064"><path vector-effect="none" fill-rule="evenodd" d="M-38,-7 L22,-7 L22,53 L-38,53 L-38,-7z "/>
</clipPath></defs></g>

<g fill="#404040" fill-opacity="1" stroke="#000000" stroke-opacity="1" stroke-width="1" stroke-linecap="square" stroke-linejoin="bevel" transform="matrix(3.125,0,0,3.125,125,65.625)"
font-family="FreeSans" font-size="16.4571" font-weight="400" font-style="normal" 
clip-path="url(#clip4065)" >
<defs><clipPath id="clip4065"><path vector-effect="none" fill-rule="evenodd" d="M-38,-19 L22,-19 L22,41 L-38,41 L-38,-19z "/>
</clipPath></defs></g>

<g fill="#404040" fill-opacity="1" stroke="#000000" stroke-opacity="1" stroke-width="1" stroke-linecap="square" stroke-linejoin="bevel" transform="matrix(2.27865,0,0,2.27865,125,65.625)"
font-family="FreeSans" font-size="16.4571" font-weight="400" font-style="normal" 
clip-path="url(#clip4066)" >
<defs><clipPath id="clip4066"><path vector-effect="none" fill-rule="evenodd" d="M-52,-26 L30,-26 L30,56 L-52,56 L-52,-26z "/>
</clipPath></defs><text textLength="10" fill="#000000" fill-opacity="1" stroke="none" xml:space="preserve" x="0" y="5.5" font-family="FreeSans" font-size="16.4571" font-weight="400" font-style="normal" 
 >1</text>
</g>

<g fill="#404040" fill-opacity="1" stroke="#000000" stroke-opacity="1" stroke-width="1" stroke-linecap="square" stroke-linejoin="bevel" transform="matrix(3.125,0,0,3.125,125,65.625)"
font-family="FreeSans" font-size="16.4571" font-weight="400" font-style="normal" 
clip-path="url(#clip4067)" >
<defs><clipPath id="clip4067"><path vector-effect="none" fill-rule="evenodd" d="M-38,-19 L22,-19 L22,41 L-38,41 L-38,-19z "/>
</clipPath></defs></g>

<g fill="#404040" fill-opacity="1" stroke="#000000" stroke-opacity="1" stroke-width="1" stroke-linecap="square" stroke-linejoin="bevel" transform="matrix(3.125,0,0,3.125,125,103.125)"
font-family="FreeSans" font-size="16.4571" font-weight="400" font-style="normal" 
clip-path="url(#clip4068)" >
<defs><clipPath id="clip4068"><path vector-effect="none" fill-rule="evenodd" d="M-38,-31 L22,-31 L22,29 L-38,29 L-38,-31z "/>
</clipPath></defs></g>

<g fill="#404040" fill-opacity="1" stroke="#000000" stroke-opacity="1" stroke-width="1" stroke-linecap="square" stroke-linejoin="bevel" transform="matrix(2.27865,0,0,2.27865,125,103.125)"
font-family="FreeSans" font-size="16.4571" font-weight="400" font-style="normal" 
clip-path="url(#clip4069)" >
<defs><clipPath id="clip4069"><path vector-effect="none" fill-rule="evenodd" d="M-52,-43 L30,-43 L30,39 L-52,39 L-52,-43z "/>
</clipPath></defs><text textLength="10" fill="#000000" fill-opacity="1" stroke="none" xml:space="preserve" x="0" y="5.5" font-family="FreeSans" font-size="16.4571" font-weight="400" font-style="normal" 
 >2</text>
</g>

<g fill="#404040" fill-opacity="1" stroke="#000000" stroke-opacity="1" stroke-width="1" stroke-linecap="square" stroke-linejoin="bevel" transform="matrix(3.125,0,0,3.125,125,103.125)"
font-family="FreeSans" font-size="16.4571" font-weight="400" font-style="normal" 
clip-path="url(#clip4070)" >
<defs><clipPath id="clip4070"><path vector-effect="none" fill-rule="evenodd" d="M-38,-31 L22,-31 L22,29 L-38,29 L-38,-31z "/>
</clipPath></defs></g>

<g fill="#404040" fill-opacity="1" stroke="#000000" stroke-opacity="1" stroke-width="1" stroke-linecap="square" stroke-linejoin="bevel" transform="matrix(3.125,0,0,3.125,125,140.625)"
font-family="FreeSans" font-size="16.4571" font-weight="400" font-style="normal" 
clip-path="url(#clip4071)" >
<defs><clipPath id="clip4071"><path vector-effect="none" fill-rule="evenodd" d="M-38,-43 L22,-43 L22,17 L-38,17 L-38,-43z "/>
</clipPath></defs></g>

<g fill="#404040" fill-opacity="1" stroke="#000000" stroke-opacity="1" stroke-width="1" stroke-linecap="square" stroke-linejoin="bevel" transform="matrix(2.27865,0,0,2.27865,125,140.625)"
font-family="FreeSans" font-size="16.4571" font-weight="400" font-style="normal" 
clip-path="url(#clip4072)" >
<defs><clipPath id="clip4072"><path vector-effect="none" fill-rule="evenodd" d="M-52,-59 L30,-59 L30,23 L-52,23 L-52,-59z "/>
</clipPath></defs><text textLength="10" fill="#000000" fill-opacity="1" stroke="none" xml:space="preserve" x="0" y="5.5" font-family="FreeSans" font-size="16.4571" font-weight="400" font-style="normal" 
 >2</text>
</g>

<g fill="#404040" fill-opacity="1" stroke="#000000" stroke-opacity="1" stroke-width="1" stroke-linecap="square" stroke-linejoin="bevel" transform="matrix(3.125,0,0,3.125,125,140.625)"
font-family="FreeSans" font-size="16.4571" font-weight="400" font-style="normal" 
clip-path="url(#clip4073)" >
<defs><clipPath id="clip4073"><path vector-effect="none" fill-rule="evenodd" d="M-38,-43 L22,-43 L22,17 L-38,17 L-38,-43z "/>
</clipPath></defs></g>

<g fill="#404040" fill-opacity="1" stroke="#000000" stroke-opacity="1" stroke-width="1" stroke-linecap="square" stroke-linejoin="bevel" transform="matrix(3.125,0,0,3.125,125,178.125)"
font-family="FreeSans" font-size="16.4571" font-weight="400" font-style="normal" 
clip-path="url(#clip4074)" >
<defs><clipPath id="clip4074"><path vector-effect="none" fill-rule="evenodd" d="M-38,-55 L22,-55 L22,5 L-38,5 L-38,-55z "/>
</clipPath></defs></g>

<g fill="#404040" fill-opacity="1" stroke="#000000" stroke-opacity="1" stroke-width="1" stroke-linecap="square" stroke-linejoin="bevel" transform="matrix(2.27865,0,0,2.27865,125,178.125)"
font-family="FreeSans" font-size="16.4571" font-weight="400" font-style="normal" 
clip-path="url(#clip4075)" >
<defs><clipPath id="clip4075"><path vector-effect="none" fill-rule="evenodd" d="M-52,-75 L30,-75 L30,7 L-52,7 L-52,-75z "/>
</clipPath></defs><text textLength="9" fill="#000000" fill-opacity="1" stroke="none" xml:space="preserve" x="0" y="5.5" font-family="FreeSans" font-size="16.4571" font-weight="400" font-style="normal" 
 >3</text>
</g>

<g fill="#404040" fill-opacity="1" stroke="#000000" stroke-opacity="1" stroke-width="1" stroke-linecap="square" stroke-linejoin="bevel" transform="matrix(3.125,0,0,3.125,125,178.125)"
font-family="FreeSans" font-size="16.4571" font-weight="400" font-style="normal" 
clip-path="url(#clip4076)" >
<defs><clipPath id="clip4076"><path vector-effect="none" fill-rule="evenodd" d="M-38,-55 L22,-55 L22,5 L-38,5 L-38,-55z "/>
</clipPath></defs></g>

<g fill="#404040" fill-opacity="1" stroke="#000000" stroke-opacity="1" stroke-width="1" stroke-linecap="square" stroke-linejoin="bevel" transform="matrix(4.28571,0,0,4.28571,125,178.125)"
font-family="FreeSans" font-size="16.4571" font-weight="400" font-style="normal" 
clip-path="url(#clip4077)" >
<defs><clipPath id="clip4077"><path vector-effect="none" fill-rule="evenodd" d="M-2,-2 L62,-2 L62,62 L-2,62 L-2,-2z "/>
</clipPath></defs></g>

<g fill="#404040" fill-opacity="1" stroke="#000000" stroke-opacity="1" stroke-width="1" stroke-linecap="square" stroke-linejoin="bevel" transform="matrix(1,0,0,1,0,0)"
font-family="FreeSans" font-size="16.4571" font-weight="400" font-style="normal" 
clip-path="url(#clip4077)" >
</g>

<g fill="none" stroke="#000000" stroke-opacity="1" stroke-width="1" stroke-linecap="square" stroke-linejoin="bevel" transform="matrix(3.125,0,0,3.125,6.25,6.25)"
font-family="Helvetica" font-size="16" font-weight="400" font-style="normal" 
clip-path="url(#clip4077)" >
</g>

<g fill="none" stroke="#000000" stroke-opacity="1" stroke-width="1" stroke-linecap="square" stroke-linejoin="bevel" transform="matrix(3.125,0,0,3.125,6.25,6.25)"
font-family="Helvetica" font-size="16" font-weight="400" font-style="normal" 
clip-path="url(#clip4077)" >
</g>

<g fill="none" stroke="#000000" stroke-opacity="1" stroke-width="0.633957" stroke-linecap="butt" stroke-linejoin="miter" stroke-miterlimit="2" transform="matrix(3.125,0,0,3.125,6.25,6.25)"
font-family="Helvetica" font-size="16" font-weight="400" font-style="normal" 
clip-path="url(#clip4077)" >
<path vector-effect="none" fill-rule="evenodd" d="M0,0 L60,0 L60,60 L0,60 L0,0z "/>
</g>

<g fill="none" stroke="#000000" stroke-opacity="1" stroke-width="1" stroke-linecap="square" stroke-linejoin="bevel" transform="matrix(3.125,0,0,3.125,6.25,6.25)"
font-family="Helvetica" font-size="16" font-weight="400" font-style="normal" 
clip-path="url(#clip4077)" >
</g>

<g fill="none" stroke="#000000" stroke-opacity="1" stroke-width="1" stroke-linecap="square" stroke-linejoin="bevel" transform="matrix(3.125,0,0,3.125,6.25,6.25)"
font-family="Helvetica" font-size="16" font-weight="400" font-style="normal" 
clip-path="url(#clip4077)" >
</g>

<g fill="none" stroke="#000000" stroke-opacity="1" stroke-width="0.32" stroke-linecap="butt" stroke-linejoin="miter" stroke-miterlimit="2" transform="matrix(3.125,0,0,3.125,6.25,6.25)"
font-family="Helvetica" font-size="16" font-weight="400" font-style="normal" 
clip-path="url(#clip4077)" >
</g>

<g fill="none" stroke="#000000" stroke-opacity="1" stroke-width="1" stroke-linecap="square" stroke-linejoin="bevel" transform="matrix(3.125,0,0,3.125,6.25,6.25)"
font-family="Helvetica" font-size="16" font-weight="400" font-style="normal" 
clip-path="url(#clip4077)" >
</g>

<g fill="none" stroke="#000000" stroke-opacity="1" stroke-width="1" stroke-linecap="square" stroke-linejoin="bevel" transform="matrix(3.125,0,0,3.125,100,200)"
font-family="Helvetica" font-size="16" font-weight="400" font-style="normal" 
clip-path="url(#clip4078)" >
<defs><clipPath id="clip4078"><path vector-effect="non-scaling-stroke" fill-rule="evenodd" d="M-32,-64 L32,-64 L32,0 L-32,0 L-32,-64z "/>
</clipPath></defs></g>

<g fill="none" stroke="#000000" stroke-opacity="1" stroke-width="1" stroke-linecap="square" stroke-linejoin="bevel" transform="matrix(3.125,0,0,3.125,100,200)"
font-family="Helvetica" font-size="16" font-weight="400" font-style="normal" 
clip-path="url(#clip4078)" >
</g>

<g fill="none" stroke="#000000" stroke-opacity="1" stroke-width="1" stroke-linecap="square" stroke-linejoin="bevel" transform="matrix(1,0,0,1,0,0)"
font-family="Helvetica" font-size="16" font-weight="400" font-style="normal" 
>
</g>

<g fill="none" stroke="#000000" stroke-opacity="1" stroke-width="1" stroke-linecap="square" stroke-linejoin="bevel" transform="matrix(1,0,0,1,0,0)"
font-family="Helvetica" font-size="16" font-weight="400" font-style="normal" 
>
</g>

<g fill="none" stroke="#000000" stroke-opacity="1" stroke-width="1" stroke-linecap="square" stroke-linejoin="bevel" transform="matrix(1,0,0,1,0,0)"
font-family="Helvetica" font-size="16" font-weight="400" font-style="normal" 
clip-path="url(#clip4079)" >
<defs><clipPath id="clip4079"><path vector-effect="non-scaling-stroke" fill-rule="evenodd" d="M0,0 L200,0 L200,200 L0,200 L0,0z "/>
</clipPath></defs></g>

<g fill="none" stroke="#000000" stroke-opacity="1" stroke-width="1" stroke-linecap="square" stroke-linejoin="bevel" transform="matrix(1,0,0,1,0,0)"
font-family="Helvetica" font-size="16" font-weight="400" font-style="normal" 
>
</g>

<g fill="none" stroke="#000000" stroke-opacity="1" stroke-width="1" stroke-linecap="square" stroke-linejoin="bevel" transform="matrix(1,0,0,1,0,0)"
font-family="Helvetica" font-size="16" font-weight="400" font-style="normal" 
>
</g>

<g fill="none" stroke="#000000" stroke-opacity="1" stroke-width="1" stroke-linecap="square" stroke-linejoin="bevel" transform="matrix(1,0,0,1,0,0)"
font-family="Helvetica" font-size="16" font-weight="400" font-style="normal" 
clip-path="url(#clip4080)" >
<defs><clipPath id="clip4080"><path vector-effect="non-scaling-stroke" fill-rule="evenodd" d="M0,0 L1,0 L1,1 L0,1 L0,0z "/>
</clipPath></defs></g>

<g fill="none" stroke="#000000" stroke-opacity="1" stroke-width="1" stroke-linecap="square" stroke-linejoin="bevel" transform="matrix(1,0,0,1,0,0)"
font-family="Helvetica" font-size="16" font-weight="400" font-style="normal" 
>
</g>

<g fill="none" stroke="#000000" stroke-opacity="1" stroke-width="1" stroke-linecap="square" stroke-linejoin="bevel" transform="matrix(1,0,0,1,0,0)"
font-family="Helvetica" font-size="16" font-weight="400" font-style="normal" 
>
</g>
</g>
</svg>
