<?xml version="1.0" encoding="UTF-8" standalone="no"?>
<svg width="70.5556mm" height="57.5028mm"
 viewBox="0 0 200 163"
 xmlns="http://www.w3.org/2000/svg" xmlns:xlink="http://www.w3.org/1999/xlink"  version="1.2" baseProfile="tiny">
<defs>
</defs>
<g fill="none" stroke="black" stroke-width="1" fill-rule="evenodd" stroke-linecap="square" stroke-linejoin="bevel" >

<g fill="#ffffff" fill-opacity="0" stroke="none" transform="matrix(1,0,0,1,0,0)"
font-family="Helvetica" font-size="12" font-weight="400" font-style="normal" 
>
<path vector-effect="non-scaling-stroke" fill-rule="evenodd" d="M0,0 L200,0 L200,163 L0,163 L0,0z "/>
</g>

<g fill="none" stroke="#000000" stroke-opacity="1" stroke-width="1" stroke-linecap="square" stroke-linejoin="bevel" transform="matrix(1,0,0,1,0,0)"
font-family="Helvetica" font-size="12" font-weight="400" font-style="normal" 
>
</g>

<g fill="none" stroke="#000000" stroke-opacity="1" stroke-width="1" stroke-linecap="square" stroke-linejoin="bevel" transform="matrix(1,0,0,1,0,0)"
font-family="Helvetica" font-size="12" font-weight="400" font-style="normal" 
clip-path="url(#clip3042)" >
<defs><clipPath id="clip3042"><path vector-effect="non-scaling-stroke" fill-rule="evenodd" d="M0,0 L200,0 L200,163.265 L0,163.265 L0,0z "/>
</clipPath></defs></g>

<g fill="none" stroke="#000000" stroke-opacity="1" stroke-width="1" stroke-linecap="square" stroke-linejoin="bevel" transform="matrix(-4.08163,0,0,-4.08163,28.5714,81.6327)"
font-family="Helvetica" font-size="12" font-weight="400" font-style="normal" 
clip-path="url(#clip3043)" >
<defs><clipPath id="clip3043"><path vector-effect="non-scaling-stroke" fill-rule="evenodd" d="M7,20 L-42,20 L-42,-20 L7,-20 L7,20z "/>
</clipPath></defs></g>

<g fill="#000000" fill-opacity="0" stroke="#000000" stroke-opacity="1" stroke-width="2" stroke-linecap="round" stroke-linejoin="miter" stroke-miterlimit="2" transform="matrix(-4.08163,0,0,-4.08163,28.5714,81.6327)"
font-family="Helvetica" font-size="12" font-weight="400" font-style="normal" 
clip-path="url(#clip3043)" >
<path vector-effect="none" fill-rule="evenodd" d="M5,-5 L0,0 L5,5"/>
</g>

<g fill="none" stroke="#000000" stroke-opacity="1" stroke-width="1" stroke-linecap="square" stroke-linejoin="bevel" transform="matrix(-4.08163,0,0,-4.08163,28.5714,81.6327)"
font-family="Helvetica" font-size="12" font-weight="400" font-style="normal" 
clip-path="url(#clip3043)" >
</g>

<g fill="none" stroke="#000000" stroke-opacity="1" stroke-width="1" stroke-linecap="square" stroke-linejoin="bevel" transform="matrix(4.08163,0,0,4.08163,171.429,81.6327)"
font-family="Helvetica" font-size="12" font-weight="400" font-style="normal" 
clip-path="url(#clip3044)" >
<defs><clipPath id="clip3044"><path vector-effect="non-scaling-stroke" fill-rule="evenodd" d="M-42,-20 L7,-20 L7,20 L-42,20 L-42,-20z "/>
</clipPath></defs></g>

<g fill="#000000" fill-opacity="0" stroke="#000000" stroke-opacity="1" stroke-width="2" stroke-linecap="round" stroke-linejoin="miter" stroke-miterlimit="2" transform="matrix(4.08163,0,0,4.08163,171.429,81.6327)"
font-family="Helvetica" font-size="12" font-weight="400" font-style="normal" 
clip-path="url(#clip3044)" >
<path vector-effect="none" fill-rule="evenodd" d="M0,-5 L5,0 L0,5"/>
</g>

<g fill="none" stroke="#000000" stroke-opacity="1" stroke-width="1" stroke-linecap="square" stroke-linejoin="bevel" transform="matrix(4.08163,0,0,4.08163,171.429,81.6327)"
font-family="Helvetica" font-size="12" font-weight="400" font-style="normal" 
clip-path="url(#clip3044)" >
</g>

<g fill="none" stroke="#000000" stroke-opacity="1" stroke-width="1" stroke-linecap="square" stroke-linejoin="bevel" transform="matrix(4.08163,0,0,4.08163,28.5714,8.16327)"
font-family="Helvetica" font-size="12" font-weight="400" font-style="normal" 
clip-path="url(#clip3045)" >
<defs><clipPath id="clip3045"><path vector-effect="non-scaling-stroke" fill-rule="evenodd" d="M-7,-2 L42,-2 L42,38 L-7,38 L-7,-2z "/>
</clipPath></defs></g>

<g fill="#ffffff" fill-opacity="1" stroke="none" transform="matrix(4.08163,0,0,4.08163,28.5714,8.16327)"
font-family="Helvetica" font-size="12" font-weight="400" font-style="normal" 
clip-path="url(#clip3045)" >
<path vector-effect="none" fill-rule="evenodd" d="M0,0 L35,0 L35,36 L0,36 L0,0z "/>
</g>

<g fill="none" stroke="#000000" stroke-opacity="1" stroke-width="1" stroke-linecap="square" stroke-linejoin="bevel" transform="matrix(4.08163,0,0,4.08163,28.5714,8.16327)"
font-family="Helvetica" font-size="12" font-weight="400" font-style="normal" 
clip-path="url(#clip3045)" >
</g>

<g fill="none" stroke="#000000" stroke-opacity="1" stroke-width="1" stroke-linecap="square" stroke-linejoin="bevel" transform="matrix(4.08163,0,0,4.08163,28.5714,8.16327)"
font-family="Helvetica" font-size="12" font-weight="400" font-style="normal" 
clip-path="url(#clip3045)" >
</g>

<g fill="none" stroke="#000000" stroke-opacity="1" stroke-width="1" stroke-linecap="square" stroke-linejoin="bevel" transform="matrix(4.08163,0,0,4.08163,28.5714,8.16327)"
font-family="Helvetica" font-size="12" font-weight="400" font-style="normal" 
clip-path="url(#clip3046)" >
<defs><clipPath id="clip3046"><path vector-effect="non-scaling-stroke" fill-rule="evenodd" d="M0,0 L35,0 L35,36 L0,36 L0,0z "/>
</clipPath></defs></g>

<g fill="none" stroke="#000000" stroke-opacity="1" stroke-width="1" stroke-linecap="square" stroke-linejoin="bevel" transform="matrix(4.08163,0,0,4.08163,97.9592,40.8163)"
font-family="system" font-size="7.57895" font-weight="400" font-style="normal" 
clip-path="url(#clip3047)" >
<defs><clipPath id="clip3047"><path vector-effect="none" fill-rule="evenodd" d="M-17,-8 L18,-8 L18,28 L-17,28 L-17,-8z "/>
</clipPath></defs></g>

<g fill="none" stroke="#000000" stroke-opacity="1" stroke-width="1" stroke-linecap="square" stroke-linejoin="bevel" transform="matrix(5.38549,0,0,5.38549,97.9592,40.8163)"
font-family="system" font-size="7.57895" font-weight="400" font-style="normal" 
clip-path="url(#clip3048)" >
<defs><clipPath id="clip3048"><path vector-effect="none" fill-rule="evenodd" d="M-13,-6 L14,-6 L14,21 L-13,21 L-13,-6z "/>
</clipPath></defs><text textLength="8" fill="#000000" fill-opacity="1" stroke="none" xml:space="preserve" x="-3.03125" y="2.28125" font-family="system" font-size="7.57895" font-weight="400" font-style="normal" 
 > 4</text>
</g>

<g fill="none" stroke="#000000" stroke-opacity="1" stroke-width="1" stroke-linecap="square" stroke-linejoin="bevel" transform="matrix(4.08163,0,0,4.08163,97.9592,40.8163)"
font-family="system" font-size="7.57895" font-weight="400" font-style="normal" 
clip-path="url(#clip3049)" >
<defs><clipPath id="clip3049"><path vector-effect="none" fill-rule="evenodd" d="M-17,-8 L18,-8 L18,28 L-17,28 L-17,-8z "/>
</clipPath></defs></g>

<g fill="none" stroke="#000000" stroke-opacity="1" stroke-width="1" stroke-linecap="square" stroke-linejoin="bevel" transform="matrix(4.08163,0,0,4.08163,97.9592,81.6327)"
font-family="system" font-size="7.57895" font-weight="400" font-style="normal" 
clip-path="url(#clip3050)" >
<defs><clipPath id="clip3050"><path vector-effect="none" fill-rule="evenodd" d="M-17,-18 L18,-18 L18,18 L-17,18 L-17,-18z "/>
</clipPath></defs></g>

<g fill="none" stroke="#000000" stroke-opacity="1" stroke-width="1" stroke-linecap="square" stroke-linejoin="bevel" transform="matrix(5.38549,0,0,5.38549,97.9592,81.6327)"
font-family="system" font-size="7.57895" font-weight="400" font-style="normal" 
clip-path="url(#clip3051)" >
<defs><clipPath id="clip3051"><path vector-effect="none" fill-rule="evenodd" d="M-13,-14 L14,-14 L14,13 L-13,13 L-13,-14z "/>
</clipPath></defs><text textLength="28" fill="#000000" fill-opacity="1" stroke="none" xml:space="preserve" x="-12.5" y="2.28125" font-family="system" font-size="7.57895" font-weight="400" font-style="normal" 
 >Delays</text>
</g>

<g fill="none" stroke="#000000" stroke-opacity="1" stroke-width="1" stroke-linecap="square" stroke-linejoin="bevel" transform="matrix(4.08163,0,0,4.08163,97.9592,81.6327)"
font-family="system" font-size="7.57895" font-weight="400" font-style="normal" 
clip-path="url(#clip3052)" >
<defs><clipPath id="clip3052"><path vector-effect="none" fill-rule="evenodd" d="M-17,-18 L18,-18 L18,18 L-17,18 L-17,-18z "/>
</clipPath></defs></g>

<g fill="none" stroke="#000000" stroke-opacity="1" stroke-width="1" stroke-linecap="square" stroke-linejoin="bevel" transform="matrix(3.15997,0,0,3.09345,97.9592,81.6327)"
font-family="system" font-size="7.57895" font-weight="400" font-style="normal" 
clip-path="url(#clip3053)" >
<defs><clipPath id="clip3053"><path vector-effect="none" fill-rule="evenodd" d="M-7,-2 L42,-2 L42,38 L-7,38 L-7,-2z "/>
</clipPath></defs></g>

<g fill="none" stroke="#000000" stroke-opacity="1" stroke-width="1" stroke-linecap="square" stroke-linejoin="bevel" transform="matrix(1,0,0,1,0,0)"
font-family="system" font-size="7.57895" font-weight="400" font-style="normal" 
clip-path="url(#clip3053)" >
</g>

<g fill="none" stroke="#000000" stroke-opacity="1" stroke-width="1" stroke-linecap="square" stroke-linejoin="bevel" transform="matrix(4.08163,0,0,4.08163,28.5714,8.16327)"
font-family="Helvetica" font-size="12" font-weight="400" font-style="normal" 
clip-path="url(#clip3053)" >
</g>

<g fill="none" stroke="#000000" stroke-opacity="1" stroke-width="1" stroke-linecap="square" stroke-linejoin="bevel" transform="matrix(4.08163,0,0,4.08163,28.5714,8.16327)"
font-family="Helvetica" font-size="12" font-weight="400" font-style="normal" 
clip-path="url(#clip3053)" >
</g>

<g fill="none" stroke="#000000" stroke-opacity="1" stroke-width="0.569727" stroke-linecap="butt" stroke-linejoin="miter" stroke-miterlimit="2" transform="matrix(4.08163,0,0,4.08163,28.5714,8.16327)"
font-family="Helvetica" font-size="12" font-weight="400" font-style="normal" 
clip-path="url(#clip3053)" >
<path vector-effect="none" fill-rule="evenodd" d="M0,0 L35,0 L35,36 L0,36 L0,0z "/>
</g>

<g fill="none" stroke="#000000" stroke-opacity="1" stroke-width="1" stroke-linecap="square" stroke-linejoin="bevel" transform="matrix(4.08163,0,0,4.08163,28.5714,8.16327)"
font-family="Helvetica" font-size="12" font-weight="400" font-style="normal" 
clip-path="url(#clip3053)" >
</g>

<g fill="none" stroke="#000000" stroke-opacity="1" stroke-width="1" stroke-linecap="square" stroke-linejoin="bevel" transform="matrix(4.08163,0,0,4.08163,100,163.265)"
font-family="Helvetica" font-size="12" font-weight="400" font-style="normal" 
clip-path="url(#clip3054)" >
<defs><clipPath id="clip3054"><path vector-effect="non-scaling-stroke" fill-rule="evenodd" d="M-24.5,-40 L24.5,-40 L24.5,0 L-24.5,0 L-24.5,-40z "/>
</clipPath></defs></g>

<g fill="none" stroke="#000000" stroke-opacity="1" stroke-width="1" stroke-linecap="square" stroke-linejoin="bevel" transform="matrix(4.08163,0,0,4.08163,100,163.265)"
font-family="Helvetica" font-size="12" font-weight="400" font-style="normal" 
clip-path="url(#clip3054)" >
</g>

<g fill="none" stroke="#000000" stroke-opacity="1" stroke-width="1" stroke-linecap="square" stroke-linejoin="bevel" transform="matrix(1,0,0,1,0,0)"
font-family="Helvetica" font-size="12" font-weight="400" font-style="normal" 
>
</g>

<g fill="none" stroke="#000000" stroke-opacity="1" stroke-width="1" stroke-linecap="square" stroke-linejoin="bevel" transform="matrix(1,0,0,1,0,0)"
font-family="Helvetica" font-size="12" font-weight="400" font-style="normal" 
>
</g>

<g fill="none" stroke="#000000" stroke-opacity="1" stroke-width="1" stroke-linecap="square" stroke-linejoin="bevel" transform="matrix(1,0,0,1,0,0)"
font-family="Helvetica" font-size="12" font-weight="400" font-style="normal" 
clip-path="url(#clip3055)" >
<defs><clipPath id="clip3055"><path vector-effect="non-scaling-stroke" fill-rule="evenodd" d="M0,0 L200,0 L200,163 L0,163 L0,0z "/>
</clipPath></defs></g>

<g fill="none" stroke="#000000" stroke-opacity="1" stroke-width="1" stroke-linecap="square" stroke-linejoin="bevel" transform="matrix(1,0,0,1,0,0)"
font-family="Helvetica" font-size="12" font-weight="400" font-style="normal" 
>
</g>

<g fill="none" stroke="#000000" stroke-opacity="1" stroke-width="1" stroke-linecap="square" stroke-linejoin="bevel" transform="matrix(1,0,0,1,0,0)"
font-family="Helvetica" font-size="12" font-weight="400" font-style="normal" 
>
</g>

<g fill="none" stroke="#000000" stroke-opacity="1" stroke-width="1" stroke-linecap="square" stroke-linejoin="bevel" transform="matrix(1,0,0,1,0,0)"
font-family="Helvetica" font-size="12" font-weight="400" font-style="normal" 
clip-path="url(#clip3056)" >
<defs><clipPath id="clip3056"><path vector-effect="non-scaling-stroke" fill-rule="evenodd" d="M0,0 L1,0 L1,1 L0,1 L0,0z "/>
</clipPath></defs></g>

<g fill="none" stroke="#000000" stroke-opacity="1" stroke-width="1" stroke-linecap="square" stroke-linejoin="bevel" transform="matrix(1,0,0,1,0,0)"
font-family="Helvetica" font-size="12" font-weight="400" font-style="normal" 
>
</g>

<g fill="none" stroke="#000000" stroke-opacity="1" stroke-width="1" stroke-linecap="square" stroke-linejoin="bevel" transform="matrix(1,0,0,1,0,0)"
font-family="Helvetica" font-size="12" font-weight="400" font-style="normal" 
>
</g>
</g>
</svg>
