<?xml version="1.0" encoding="UTF-8" standalone="no"?>
<svg width="70.5556mm" height="59.9722mm"
 viewBox="0 0 200 170"
 xmlns="http://www.w3.org/2000/svg" xmlns:xlink="http://www.w3.org/1999/xlink"  version="1.2" baseProfile="tiny">
<defs>
</defs>
<g fill="none" stroke="black" stroke-width="1" fill-rule="evenodd" stroke-linecap="square" stroke-linejoin="bevel" >

<g fill="#ffffff" fill-opacity="0" stroke="none" transform="matrix(1,0,0,1,0,0)"
font-family="Helvetica" font-size="12" font-weight="400" font-style="normal" 
>
<path vector-effect="non-scaling-stroke" fill-rule="evenodd" d="M0,0 L200,0 L200,170 L0,170 L0,0z "/>
</g>

<g fill="none" stroke="#000000" stroke-opacity="1" stroke-width="1" stroke-linecap="square" stroke-linejoin="bevel" transform="matrix(1,0,0,1,0,0)"
font-family="Helvetica" font-size="12" font-weight="400" font-style="normal" 
>
</g>

<g fill="none" stroke="#000000" stroke-opacity="1" stroke-width="1" stroke-linecap="square" stroke-linejoin="bevel" transform="matrix(1,0,0,1,0,0)"
font-family="Helvetica" font-size="12" font-weight="400" font-style="normal" 
clip-path="url(#clip4694)" >
<defs><clipPath id="clip4694"><path vector-effect="non-scaling-stroke" fill-rule="evenodd" d="M0,0 L200,0 L200,170.37 L0,170.37 L0,0z "/>
</clipPath></defs></g>

<g fill="none" stroke="#000000" stroke-opacity="1" stroke-width="1" stroke-linecap="square" stroke-linejoin="bevel" transform="matrix(-3.7037,0,0,-3.7037,25.9259,85.1852)"
font-family="Helvetica" font-size="12" font-weight="400" font-style="normal" 
clip-path="url(#clip4695)" >
<defs><clipPath id="clip4695"><path vector-effect="non-scaling-stroke" fill-rule="evenodd" d="M7,23 L-47,23 L-47,-23 L7,-23 L7,23z "/>
</clipPath></defs></g>

<g fill="#000000" fill-opacity="0" stroke="#000000" stroke-opacity="1" stroke-width="2" stroke-linecap="round" stroke-linejoin="miter" stroke-miterlimit="2" transform="matrix(-3.7037,0,0,-3.7037,25.9259,85.1852)"
font-family="Helvetica" font-size="12" font-weight="400" font-style="normal" 
clip-path="url(#clip4695)" >
<path vector-effect="none" fill-rule="evenodd" d="M5,-5 L0,0 L5,5"/>
</g>

<g fill="none" stroke="#000000" stroke-opacity="1" stroke-width="1" stroke-linecap="square" stroke-linejoin="bevel" transform="matrix(-3.7037,0,0,-3.7037,25.9259,85.1852)"
font-family="Helvetica" font-size="12" font-weight="400" font-style="normal" 
clip-path="url(#clip4695)" >
</g>

<g fill="none" stroke="#000000" stroke-opacity="1" stroke-width="1" stroke-linecap="square" stroke-linejoin="bevel" transform="matrix(3.7037,0,0,3.7037,174.074,85.1852)"
font-family="Helvetica" font-size="12" font-weight="400" font-style="normal" 
clip-path="url(#clip4696)" >
<defs><clipPath id="clip4696"><path vector-effect="non-scaling-stroke" fill-rule="evenodd" d="M-47,-23 L7,-23 L7,23 L-47,23 L-47,-23z "/>
</clipPath></defs></g>

<g fill="#000000" fill-opacity="0" stroke="#000000" stroke-opacity="1" stroke-width="2" stroke-linecap="round" stroke-linejoin="miter" stroke-miterlimit="2" transform="matrix(3.7037,0,0,3.7037,174.074,85.1852)"
font-family="Helvetica" font-size="12" font-weight="400" font-style="normal" 
clip-path="url(#clip4696)" >
<path vector-effect="none" fill-rule="evenodd" d="M0,-5 L5,0 L0,5"/>
</g>

<g fill="none" stroke="#000000" stroke-opacity="1" stroke-width="1" stroke-linecap="square" stroke-linejoin="bevel" transform="matrix(3.7037,0,0,3.7037,174.074,85.1852)"
font-family="Helvetica" font-size="12" font-weight="400" font-style="normal" 
clip-path="url(#clip4696)" >
</g>

<g fill="none" stroke="#000000" stroke-opacity="1" stroke-width="1" stroke-linecap="square" stroke-linejoin="bevel" transform="matrix(3.7037,0,0,3.7037,25.9259,7.40741)"
font-family="Helvetica" font-size="12" font-weight="400" font-style="normal" 
clip-path="url(#clip4697)" >
<defs><clipPath id="clip4697"><path vector-effect="non-scaling-stroke" fill-rule="evenodd" d="M-7,-2 L47,-2 L47,44 L-7,44 L-7,-2z "/>
</clipPath></defs></g>

<g fill="#ffffff" fill-opacity="1" stroke="none" transform="matrix(3.7037,0,0,3.7037,25.9259,7.40741)"
font-family="Helvetica" font-size="12" font-weight="400" font-style="normal" 
clip-path="url(#clip4697)" >
<path vector-effect="none" fill-rule="evenodd" d="M0,0 L40,0 L40,42 L0,42 L0,0z "/>
</g>

<g fill="none" stroke="#000000" stroke-opacity="1" stroke-width="1" stroke-linecap="square" stroke-linejoin="bevel" transform="matrix(3.7037,0,0,3.7037,25.9259,7.40741)"
font-family="Helvetica" font-size="12" font-weight="400" font-style="normal" 
clip-path="url(#clip4697)" >
</g>

<g fill="none" stroke="#000000" stroke-opacity="1" stroke-width="1" stroke-linecap="square" stroke-linejoin="bevel" transform="matrix(3.7037,0,0,3.7037,25.9259,7.40741)"
font-family="Helvetica" font-size="12" font-weight="400" font-style="normal" 
clip-path="url(#clip4697)" >
</g>

<g fill="none" stroke="#000000" stroke-opacity="1" stroke-width="1" stroke-linecap="square" stroke-linejoin="bevel" transform="matrix(3.7037,0,0,3.7037,25.9259,7.40741)"
font-family="Helvetica" font-size="12" font-weight="400" font-style="normal" 
clip-path="url(#clip4698)" >
<defs><clipPath id="clip4698"><path vector-effect="non-scaling-stroke" fill-rule="evenodd" d="M0,0 L40,0 L40,42 L0,42 L0,0z "/>
</clipPath></defs></g>

<g fill="#808080" fill-opacity="1" stroke="none" transform="matrix(3.7037,0,0,3.7037,-251.852,-377.778)"
font-family="Helvetica" font-size="12" font-weight="400" font-style="normal" 
clip-path="url(#clip4699)" >
<defs><clipPath id="clip4699"><path vector-effect="non-scaling-stroke" fill-rule="evenodd" d="M75,104 L115,104 L115,146 L75,146 L75,104z "/>
</clipPath></defs><path vector-effect="non-scaling-stroke" fill-rule="evenodd" d="M79,108 L87,108 L87,116 L79,116 L79,108z "/>
</g>

<g fill="#808080" fill-opacity="1" stroke="none" transform="matrix(3.7037,0,0,3.7037,-251.852,-377.778)"
font-family="Helvetica" font-size="12" font-weight="400" font-style="normal" 
clip-path="url(#clip4699)" >
<path vector-effect="non-scaling-stroke" fill-rule="evenodd" d="M79,120 L87,120 L87,129 L79,129 L79,120z "/>
</g>

<g fill="#808080" fill-opacity="1" stroke="none" transform="matrix(3.7037,0,0,3.7037,-251.852,-377.778)"
font-family="Helvetica" font-size="12" font-weight="400" font-style="normal" 
clip-path="url(#clip4699)" >
<path vector-effect="non-scaling-stroke" fill-rule="evenodd" d="M79,133 L87,133 L87,141 L79,141 L79,133z "/>
</g>

<g fill="#808080" fill-opacity="1" stroke="#000000" stroke-opacity="1" stroke-width="1" stroke-linecap="square" stroke-linejoin="bevel" transform="matrix(3.7037,0,0,3.7037,-250,-375.926)"
font-family="Helvetica" font-size="12" font-weight="400" font-style="normal" 
clip-path="url(#clip4699)" >
<path vector-effect="none" fill-rule="evenodd" d="M79,108 L87,108 L87,116 L79,116 L79,108z "/>
</g>

<g fill="#808080" fill-opacity="1" stroke="#000000" stroke-opacity="1" stroke-width="1" stroke-linecap="square" stroke-linejoin="bevel" transform="matrix(3.7037,0,0,3.7037,-250,-375.926)"
font-family="Helvetica" font-size="12" font-weight="400" font-style="normal" 
clip-path="url(#clip4699)" >
<path vector-effect="none" fill-rule="evenodd" d="M79,120 L87,120 L87,129 L79,129 L79,120z "/>
</g>

<g fill="#808080" fill-opacity="1" stroke="#000000" stroke-opacity="1" stroke-width="1" stroke-linecap="square" stroke-linejoin="bevel" transform="matrix(3.7037,0,0,3.7037,-250,-375.926)"
font-family="Helvetica" font-size="12" font-weight="400" font-style="normal" 
clip-path="url(#clip4699)" >
<path vector-effect="none" fill-rule="evenodd" d="M79,133 L87,133 L87,141 L79,141 L79,133z "/>
</g>

<g fill="#808080" fill-opacity="1" stroke="none" transform="matrix(3.7037,0,0,3.7037,-251.852,-377.778)"
font-family="Helvetica" font-size="12" font-weight="400" font-style="normal" 
clip-path="url(#clip4699)" >
<path vector-effect="non-scaling-stroke" fill-rule="evenodd" d="M103,112 L111,112 L111,137 L103,137 L103,112z "/>
</g>

<g fill="#808080" fill-opacity="1" stroke="#000000" stroke-opacity="1" stroke-width="1" stroke-linecap="square" stroke-linejoin="bevel" transform="matrix(3.7037,0,0,3.7037,-250,-375.926)"
font-family="Helvetica" font-size="12" font-weight="400" font-style="normal" 
clip-path="url(#clip4699)" >
<path vector-effect="none" fill-rule="evenodd" d="M103,112 L111,112 L111,137 L103,137 L103,112z "/>
</g>

<g fill="#808080" fill-opacity="1" stroke="#000000" stroke-opacity="1" stroke-width="1" stroke-linecap="square" stroke-linejoin="bevel" transform="matrix(3.7037,0,0,3.7037,-250,-375.926)"
font-family="Helvetica" font-size="12" font-weight="400" font-style="normal" 
clip-path="url(#clip4699)" >
<polyline fill="none" vector-effect="none" points="103,120 111,120 " />
</g>

<g fill="#808080" fill-opacity="1" stroke="#000000" stroke-opacity="1" stroke-width="1" stroke-linecap="square" stroke-linejoin="bevel" transform="matrix(3.7037,0,0,3.7037,-250,-375.926)"
font-family="Helvetica" font-size="12" font-weight="400" font-style="normal" 
clip-path="url(#clip4699)" >
<polyline fill="none" vector-effect="none" points="103,129 111,129 " />
</g>

<g fill="#808080" fill-opacity="1" stroke="#000000" stroke-opacity="1" stroke-width="1" stroke-linecap="square" stroke-linejoin="bevel" transform="matrix(3.7037,0,0,3.7037,-250,-375.926)"
font-family="Helvetica" font-size="12" font-weight="400" font-style="normal" 
clip-path="url(#clip4699)" >
<polyline fill="none" vector-effect="none" points="87,112 103,116 " />
</g>

<g fill="#808080" fill-opacity="1" stroke="#000000" stroke-opacity="1" stroke-width="1" stroke-linecap="square" stroke-linejoin="bevel" transform="matrix(3.7037,0,0,3.7037,-250,-375.926)"
font-family="Helvetica" font-size="12" font-weight="400" font-style="normal" 
clip-path="url(#clip4699)" >
<polyline fill="none" vector-effect="none" points="87,125 103,125 " />
</g>

<g fill="#808080" fill-opacity="1" stroke="#000000" stroke-opacity="1" stroke-width="1" stroke-linecap="square" stroke-linejoin="bevel" transform="matrix(3.7037,0,0,3.7037,-250,-375.926)"
font-family="Helvetica" font-size="12" font-weight="400" font-style="normal" 
clip-path="url(#clip4699)" >
<polyline fill="none" vector-effect="none" points="87,137 103,133 " />
</g>

<g fill="#808080" fill-opacity="1" stroke="#000000" stroke-opacity="1" stroke-width="1" stroke-linecap="square" stroke-linejoin="bevel" transform="matrix(2.86738,0,0,2.80702,-250,-375.926)"
font-family="Helvetica" font-size="12" font-weight="400" font-style="normal" 
clip-path="url(#clip4700)" >
<defs><clipPath id="clip4700"><path vector-effect="none" fill-rule="evenodd" d="M-7,-2 L47,-2 L47,44 L-7,44 L-7,-2z "/>
</clipPath></defs></g>

<g fill="#808080" fill-opacity="1" stroke="#000000" stroke-opacity="1" stroke-width="1" stroke-linecap="square" stroke-linejoin="bevel" transform="matrix(1,0,0,1,0,0)"
font-family="Helvetica" font-size="12" font-weight="400" font-style="normal" 
clip-path="url(#clip4700)" >
</g>

<g fill="none" stroke="#000000" stroke-opacity="1" stroke-width="1" stroke-linecap="square" stroke-linejoin="bevel" transform="matrix(3.7037,0,0,3.7037,25.9259,7.40741)"
font-family="Helvetica" font-size="12" font-weight="400" font-style="normal" 
clip-path="url(#clip4700)" >
</g>

<g fill="none" stroke="#000000" stroke-opacity="1" stroke-width="1" stroke-linecap="square" stroke-linejoin="bevel" transform="matrix(3.7037,0,0,3.7037,25.9259,7.40741)"
font-family="Helvetica" font-size="12" font-weight="400" font-style="normal" 
clip-path="url(#clip4700)" >
</g>

<g fill="none" stroke="#000000" stroke-opacity="1" stroke-width="0.592305" stroke-linecap="butt" stroke-linejoin="miter" stroke-miterlimit="2" transform="matrix(3.7037,0,0,3.7037,25.9259,7.40741)"
font-family="Helvetica" font-size="12" font-weight="400" font-style="normal" 
clip-path="url(#clip4700)" >
<path vector-effect="none" fill-rule="evenodd" d="M0,0 L40,0 L40,42 L0,42 L0,0z "/>
</g>

<g fill="none" stroke="#000000" stroke-opacity="1" stroke-width="1" stroke-linecap="square" stroke-linejoin="bevel" transform="matrix(3.7037,0,0,3.7037,25.9259,7.40741)"
font-family="Helvetica" font-size="12" font-weight="400" font-style="normal" 
clip-path="url(#clip4700)" >
</g>

<g fill="none" stroke="#000000" stroke-opacity="1" stroke-width="1" stroke-linecap="square" stroke-linejoin="bevel" transform="matrix(3.7037,0,0,3.7037,100,170.37)"
font-family="Helvetica" font-size="12" font-weight="400" font-style="normal" 
clip-path="url(#clip4701)" >
<defs><clipPath id="clip4701"><path vector-effect="non-scaling-stroke" fill-rule="evenodd" d="M-27,-46 L27,-46 L27,0 L-27,0 L-27,-46z "/>
</clipPath></defs></g>

<g fill="none" stroke="#000000" stroke-opacity="1" stroke-width="1" stroke-linecap="square" stroke-linejoin="bevel" transform="matrix(3.7037,0,0,3.7037,100,170.37)"
font-family="Helvetica" font-size="12" font-weight="400" font-style="normal" 
clip-path="url(#clip4701)" >
</g>

<g fill="none" stroke="#000000" stroke-opacity="1" stroke-width="1" stroke-linecap="square" stroke-linejoin="bevel" transform="matrix(1,0,0,1,0,0)"
font-family="Helvetica" font-size="12" font-weight="400" font-style="normal" 
>
</g>

<g fill="none" stroke="#000000" stroke-opacity="1" stroke-width="1" stroke-linecap="square" stroke-linejoin="bevel" transform="matrix(1,0,0,1,0,0)"
font-family="Helvetica" font-size="12" font-weight="400" font-style="normal" 
>
</g>

<g fill="none" stroke="#000000" stroke-opacity="1" stroke-width="1" stroke-linecap="square" stroke-linejoin="bevel" transform="matrix(1,0,0,1,0,0)"
font-family="Helvetica" font-size="12" font-weight="400" font-style="normal" 
clip-path="url(#clip4702)" >
<defs><clipPath id="clip4702"><path vector-effect="non-scaling-stroke" fill-rule="evenodd" d="M0,0 L200,0 L200,170 L0,170 L0,0z "/>
</clipPath></defs></g>

<g fill="none" stroke="#000000" stroke-opacity="1" stroke-width="1" stroke-linecap="square" stroke-linejoin="bevel" transform="matrix(1,0,0,1,0,0)"
font-family="Helvetica" font-size="12" font-weight="400" font-style="normal" 
>
</g>

<g fill="none" stroke="#000000" stroke-opacity="1" stroke-width="1" stroke-linecap="square" stroke-linejoin="bevel" transform="matrix(1,0,0,1,0,0)"
font-family="Helvetica" font-size="12" font-weight="400" font-style="normal" 
>
</g>

<g fill="none" stroke="#000000" stroke-opacity="1" stroke-width="1" stroke-linecap="square" stroke-linejoin="bevel" transform="matrix(1,0,0,1,0,0)"
font-family="Helvetica" font-size="12" font-weight="400" font-style="normal" 
clip-path="url(#clip4703)" >
<defs><clipPath id="clip4703"><path vector-effect="non-scaling-stroke" fill-rule="evenodd" d="M0,0 L1,0 L1,1 L0,1 L0,0z "/>
</clipPath></defs></g>

<g fill="none" stroke="#000000" stroke-opacity="1" stroke-width="1" stroke-linecap="square" stroke-linejoin="bevel" transform="matrix(1,0,0,1,0,0)"
font-family="Helvetica" font-size="12" font-weight="400" font-style="normal" 
>
</g>

<g fill="none" stroke="#000000" stroke-opacity="1" stroke-width="1" stroke-linecap="square" stroke-linejoin="bevel" transform="matrix(1,0,0,1,0,0)"
font-family="Helvetica" font-size="12" font-weight="400" font-style="normal" 
>
</g>
</g>
</svg>
