<?xml version="1.0" encoding="UTF-8" standalone="no"?>
<svg width="70.5556mm" height="54.6806mm"
 viewBox="0 0 200 155"
 xmlns="http://www.w3.org/2000/svg" xmlns:xlink="http://www.w3.org/1999/xlink"  version="1.2" baseProfile="tiny">
<defs>
</defs>
<g fill="none" stroke="black" stroke-width="1" fill-rule="evenodd" stroke-linecap="square" stroke-linejoin="bevel" >

<g fill="#ffffff" fill-opacity="0" stroke="none" transform="matrix(1,0,0,1,0,0)"
font-family="Helvetica" font-size="12" font-weight="400" font-style="normal" 
>
<path vector-effect="non-scaling-stroke" fill-rule="evenodd" d="M0,0 L200,0 L200,155 L0,155 L0,0z "/>
</g>

<g fill="none" stroke="#000000" stroke-opacity="1" stroke-width="1" stroke-linecap="square" stroke-linejoin="bevel" transform="matrix(1,0,0,1,0,0)"
font-family="Helvetica" font-size="12" font-weight="400" font-style="normal" 
>
</g>

<g fill="none" stroke="#000000" stroke-opacity="1" stroke-width="1" stroke-linecap="square" stroke-linejoin="bevel" transform="matrix(1,0,0,1,0,0)"
font-family="Helvetica" font-size="12" font-weight="400" font-style="normal" 
clip-path="url(#clip4857)" >
<defs><clipPath id="clip4857"><path vector-effect="non-scaling-stroke" fill-rule="evenodd" d="M0,0 L200,0 L200,155.556 L0,155.556 L0,0z "/>
</clipPath></defs></g>

<g fill="none" stroke="#000000" stroke-opacity="1" stroke-width="1" stroke-linecap="square" stroke-linejoin="bevel" transform="matrix(-3.7037,0,0,-3.7037,25.9259,77.7778)"
font-family="Helvetica" font-size="12" font-weight="400" font-style="normal" 
clip-path="url(#clip4858)" >
<defs><clipPath id="clip4858"><path vector-effect="non-scaling-stroke" fill-rule="evenodd" d="M7,21 L-47,21 L-47,-21 L7,-21 L7,21z "/>
</clipPath></defs></g>

<g fill="#000000" fill-opacity="0" stroke="#000000" stroke-opacity="1" stroke-width="2" stroke-linecap="round" stroke-linejoin="miter" stroke-miterlimit="2" transform="matrix(-3.7037,0,0,-3.7037,25.9259,77.7778)"
font-family="Helvetica" font-size="12" font-weight="400" font-style="normal" 
clip-path="url(#clip4858)" >
<path vector-effect="none" fill-rule="evenodd" d="M5,-5 L0,0 L5,5"/>
</g>

<g fill="none" stroke="#000000" stroke-opacity="1" stroke-width="1" stroke-linecap="square" stroke-linejoin="bevel" transform="matrix(-3.7037,0,0,-3.7037,25.9259,77.7778)"
font-family="Helvetica" font-size="12" font-weight="400" font-style="normal" 
clip-path="url(#clip4858)" >
</g>

<g fill="none" stroke="#000000" stroke-opacity="1" stroke-width="1" stroke-linecap="square" stroke-linejoin="bevel" transform="matrix(3.7037,0,0,3.7037,174.074,77.7778)"
font-family="Helvetica" font-size="12" font-weight="400" font-style="normal" 
clip-path="url(#clip4859)" >
<defs><clipPath id="clip4859"><path vector-effect="non-scaling-stroke" fill-rule="evenodd" d="M-47,-21 L7,-21 L7,21 L-47,21 L-47,-21z "/>
</clipPath></defs></g>

<g fill="#000000" fill-opacity="0" stroke="#000000" stroke-opacity="1" stroke-width="2" stroke-linecap="round" stroke-linejoin="miter" stroke-miterlimit="2" transform="matrix(3.7037,0,0,3.7037,174.074,77.7778)"
font-family="Helvetica" font-size="12" font-weight="400" font-style="normal" 
clip-path="url(#clip4859)" >
<path vector-effect="none" fill-rule="evenodd" d="M0,-5 L5,0 L0,5"/>
</g>

<g fill="none" stroke="#000000" stroke-opacity="1" stroke-width="1" stroke-linecap="square" stroke-linejoin="bevel" transform="matrix(3.7037,0,0,3.7037,174.074,77.7778)"
font-family="Helvetica" font-size="12" font-weight="400" font-style="normal" 
clip-path="url(#clip4859)" >
</g>

<g fill="none" stroke="#000000" stroke-opacity="1" stroke-width="1" stroke-linecap="square" stroke-linejoin="bevel" transform="matrix(3.7037,0,0,3.7037,25.9259,7.40741)"
font-family="Helvetica" font-size="12" font-weight="400" font-style="normal" 
clip-path="url(#clip4860)" >
<defs><clipPath id="clip4860"><path vector-effect="non-scaling-stroke" fill-rule="evenodd" d="M-7,-2 L47,-2 L47,40 L-7,40 L-7,-2z "/>
</clipPath></defs></g>

<g fill="#ffffff" fill-opacity="1" stroke="none" transform="matrix(3.7037,0,0,3.7037,25.9259,7.40741)"
font-family="Helvetica" font-size="12" font-weight="400" font-style="normal" 
clip-path="url(#clip4860)" >
<path vector-effect="none" fill-rule="evenodd" d="M0,0 L40,0 L40,38 L0,38 L0,0z "/>
</g>

<g fill="none" stroke="#000000" stroke-opacity="1" stroke-width="1" stroke-linecap="square" stroke-linejoin="bevel" transform="matrix(3.7037,0,0,3.7037,25.9259,7.40741)"
font-family="Helvetica" font-size="12" font-weight="400" font-style="normal" 
clip-path="url(#clip4860)" >
</g>

<g fill="none" stroke="#000000" stroke-opacity="1" stroke-width="1" stroke-linecap="square" stroke-linejoin="bevel" transform="matrix(3.7037,0,0,3.7037,25.9259,7.40741)"
font-family="Helvetica" font-size="12" font-weight="400" font-style="normal" 
clip-path="url(#clip4860)" >
</g>

<g fill="none" stroke="#000000" stroke-opacity="1" stroke-width="1" stroke-linecap="square" stroke-linejoin="bevel" transform="matrix(3.7037,0,0,3.7037,25.9259,7.40741)"
font-family="Helvetica" font-size="12" font-weight="400" font-style="normal" 
clip-path="url(#clip4861)" >
<defs><clipPath id="clip4861"><path vector-effect="non-scaling-stroke" fill-rule="evenodd" d="M0,0 L40,0 L40,38 L0,38 L0,0z "/>
</clipPath></defs></g>

<g fill="none" stroke="#000000" stroke-opacity="1" stroke-width="1" stroke-linecap="square" stroke-linejoin="bevel" transform="matrix(3.7037,0,0,3.7037,-324.074,-679.63)"
font-family="Helvetica" font-size="12" font-weight="400" font-style="normal" 
clip-path="url(#clip4862)" >
<defs><clipPath id="clip4862"><path vector-effect="none" fill-rule="evenodd" d="M94,186 L134,186 L134,224 L94,224 L94,186z "/>
</clipPath></defs><path vector-effect="none" fill-rule="evenodd" d="M99,191 L103,191 L103,196 L99,196 L99,191z "/>
</g>

<g fill="none" stroke="#000000" stroke-opacity="1" stroke-width="1" stroke-linecap="square" stroke-linejoin="bevel" transform="matrix(3.7037,0,0,3.7037,-324.074,-679.63)"
font-family="Helvetica" font-size="12" font-weight="400" font-style="normal" 
clip-path="url(#clip4862)" >
<path vector-effect="none" fill-rule="evenodd" d="M99,202 L103,202 L103,207 L99,207 L99,202z "/>
</g>

<g fill="none" stroke="#000000" stroke-opacity="1" stroke-width="1" stroke-linecap="square" stroke-linejoin="bevel" transform="matrix(3.7037,0,0,3.7037,-324.074,-679.63)"
font-family="Helvetica" font-size="12" font-weight="400" font-style="normal" 
clip-path="url(#clip4862)" >
<path vector-effect="none" fill-rule="evenodd" d="M99,213 L103,213 L103,218 L99,218 L99,213z "/>
</g>

<g fill="#000000" fill-opacity="1" stroke="none" transform="matrix(3.7037,0,0,3.7037,-325.926,-681.481)"
font-family="Helvetica" font-size="12" font-weight="400" font-style="normal" 
clip-path="url(#clip4863)" >
<defs><clipPath id="clip4863"><path vector-effect="non-scaling-stroke" fill-rule="evenodd" d="M95,186 L135,186 L135,224 L95,224 L95,186z "/>
</clipPath></defs><path vector-effect="non-scaling-stroke" fill-rule="evenodd" d="M99,191 L103,191 L103,196 L99,196 L99,191z "/>
</g>

<g fill="#000000" fill-opacity="1" stroke="#000000" stroke-opacity="1" stroke-width="1" stroke-linecap="square" stroke-linejoin="bevel" transform="matrix(3.7037,0,0,3.7037,-324.074,-679.63)"
font-family="Helvetica" font-size="12" font-weight="400" font-style="normal" 
clip-path="url(#clip4864)" >
<defs><clipPath id="clip4864"><path vector-effect="none" fill-rule="evenodd" d="M94,186 L134,186 L134,224 L94,224 L94,186z "/>
</clipPath></defs><path vector-effect="none" fill-rule="evenodd" d="M99,191 L103,191 L103,196 L99,196 L99,191z "/>
</g>

<g fill="#000000" fill-opacity="1" stroke="none" transform="matrix(3.7037,0,0,3.7037,-325.926,-681.481)"
font-family="Helvetica" font-size="12" font-weight="400" font-style="normal" 
clip-path="url(#clip4865)" >
<defs><clipPath id="clip4865"><path vector-effect="non-scaling-stroke" fill-rule="evenodd" d="M95,186 L135,186 L135,224 L95,224 L95,186z "/>
</clipPath></defs><path vector-effect="non-scaling-stroke" fill-rule="evenodd" d="M99,213 L103,213 L103,218 L99,218 L99,213z "/>
</g>

<g fill="#000000" fill-opacity="1" stroke="#000000" stroke-opacity="1" stroke-width="1" stroke-linecap="square" stroke-linejoin="bevel" transform="matrix(3.7037,0,0,3.7037,-324.074,-679.63)"
font-family="Helvetica" font-size="12" font-weight="400" font-style="normal" 
clip-path="url(#clip4866)" >
<defs><clipPath id="clip4866"><path vector-effect="none" fill-rule="evenodd" d="M94,186 L134,186 L134,224 L94,224 L94,186z "/>
</clipPath></defs><path vector-effect="none" fill-rule="evenodd" d="M99,213 L103,213 L103,218 L99,218 L99,213z "/>
</g>

<g fill="#000000" fill-opacity="1" stroke="none" transform="matrix(3.7037,0,0,3.7037,-325.926,-681.481)"
font-family="Helvetica" font-size="12" font-weight="400" font-style="normal" 
clip-path="url(#clip4867)" >
<defs><clipPath id="clip4867"><path vector-effect="non-scaling-stroke" fill-rule="evenodd" d="M95,186 L135,186 L135,224 L95,224 L95,186z "/>
</clipPath></defs><path vector-effect="non-scaling-stroke" fill-rule="evenodd" d="M127,195 L131,195 L131,200 L127,200 L127,195z "/>
</g>

<g fill="#000000" fill-opacity="1" stroke="#000000" stroke-opacity="1" stroke-width="1" stroke-linecap="square" stroke-linejoin="bevel" transform="matrix(3.7037,0,0,3.7037,-324.074,-679.63)"
font-family="Helvetica" font-size="12" font-weight="400" font-style="normal" 
clip-path="url(#clip4868)" >
<defs><clipPath id="clip4868"><path vector-effect="none" fill-rule="evenodd" d="M94,186 L134,186 L134,224 L94,224 L94,186z "/>
</clipPath></defs><path vector-effect="none" fill-rule="evenodd" d="M127,195 L131,195 L131,200 L127,200 L127,195z "/>
</g>

<g fill="#000000" fill-opacity="1" stroke="none" transform="matrix(3.7037,0,0,3.7037,-325.926,-681.481)"
font-family="Helvetica" font-size="12" font-weight="400" font-style="normal" 
clip-path="url(#clip4869)" >
<defs><clipPath id="clip4869"><path vector-effect="non-scaling-stroke" fill-rule="evenodd" d="M95,186 L135,186 L135,224 L95,224 L95,186z "/>
</clipPath></defs><path vector-effect="non-scaling-stroke" fill-rule="evenodd" d="M127,209 L131,209 L131,214 L127,214 L127,209z "/>
</g>

<g fill="#000000" fill-opacity="1" stroke="#000000" stroke-opacity="1" stroke-width="1" stroke-linecap="square" stroke-linejoin="bevel" transform="matrix(3.7037,0,0,3.7037,-324.074,-679.63)"
font-family="Helvetica" font-size="12" font-weight="400" font-style="normal" 
clip-path="url(#clip4870)" >
<defs><clipPath id="clip4870"><path vector-effect="none" fill-rule="evenodd" d="M94,186 L134,186 L134,224 L94,224 L94,186z "/>
</clipPath></defs><path vector-effect="none" fill-rule="evenodd" d="M127,209 L131,209 L131,214 L127,214 L127,209z "/>
</g>

<g fill="#000000" fill-opacity="1" stroke="#000000" stroke-opacity="1" stroke-width="1" stroke-linecap="square" stroke-linejoin="bevel" transform="matrix(3.7037,0,0,3.7037,-324.074,-679.63)"
font-family="Helvetica" font-size="12" font-weight="400" font-style="normal" 
clip-path="url(#clip4870)" >
<polyline fill="none" vector-effect="none" points="103,194 127,197 " />
</g>

<g fill="#000000" fill-opacity="1" stroke="#000000" stroke-opacity="1" stroke-width="1" stroke-linecap="square" stroke-linejoin="bevel" transform="matrix(3.7037,0,0,3.7037,-324.074,-679.63)"
font-family="Helvetica" font-size="12" font-weight="400" font-style="normal" 
clip-path="url(#clip4870)" >
<polyline fill="none" vector-effect="none" points="103,215 127,212 " />
</g>

<g fill="#000000" fill-opacity="1" stroke="#000000" stroke-opacity="1" stroke-width="1" stroke-linecap="square" stroke-linejoin="bevel" transform="matrix(2.86738,0,0,2.80702,-324.074,-679.63)"
font-family="Helvetica" font-size="12" font-weight="400" font-style="normal" 
clip-path="url(#clip4871)" >
<defs><clipPath id="clip4871"><path vector-effect="none" fill-rule="evenodd" d="M-7,-2 L47,-2 L47,40 L-7,40 L-7,-2z "/>
</clipPath></defs></g>

<g fill="#000000" fill-opacity="1" stroke="#000000" stroke-opacity="1" stroke-width="1" stroke-linecap="square" stroke-linejoin="bevel" transform="matrix(1,0,0,1,0,0)"
font-family="Helvetica" font-size="12" font-weight="400" font-style="normal" 
clip-path="url(#clip4871)" >
</g>

<g fill="none" stroke="#000000" stroke-opacity="1" stroke-width="1" stroke-linecap="square" stroke-linejoin="bevel" transform="matrix(3.7037,0,0,3.7037,25.9259,7.40741)"
font-family="Helvetica" font-size="12" font-weight="400" font-style="normal" 
clip-path="url(#clip4871)" >
</g>

<g fill="none" stroke="#000000" stroke-opacity="1" stroke-width="1" stroke-linecap="square" stroke-linejoin="bevel" transform="matrix(3.7037,0,0,3.7037,25.9259,7.40741)"
font-family="Helvetica" font-size="12" font-weight="400" font-style="normal" 
clip-path="url(#clip4871)" >
</g>

<g fill="none" stroke="#000000" stroke-opacity="1" stroke-width="0.592305" stroke-linecap="butt" stroke-linejoin="miter" stroke-miterlimit="2" transform="matrix(3.7037,0,0,3.7037,25.9259,7.40741)"
font-family="Helvetica" font-size="12" font-weight="400" font-style="normal" 
clip-path="url(#clip4871)" >
<path vector-effect="none" fill-rule="evenodd" d="M0,0 L40,0 L40,38 L0,38 L0,0z "/>
</g>

<g fill="none" stroke="#000000" stroke-opacity="1" stroke-width="1" stroke-linecap="square" stroke-linejoin="bevel" transform="matrix(3.7037,0,0,3.7037,25.9259,7.40741)"
font-family="Helvetica" font-size="12" font-weight="400" font-style="normal" 
clip-path="url(#clip4871)" >
</g>

<g fill="none" stroke="#000000" stroke-opacity="1" stroke-width="1" stroke-linecap="square" stroke-linejoin="bevel" transform="matrix(3.7037,0,0,3.7037,100,155.556)"
font-family="Helvetica" font-size="12" font-weight="400" font-style="normal" 
clip-path="url(#clip4872)" >
<defs><clipPath id="clip4872"><path vector-effect="non-scaling-stroke" fill-rule="evenodd" d="M-27,-42 L27,-42 L27,0 L-27,0 L-27,-42z "/>
</clipPath></defs></g>

<g fill="none" stroke="#000000" stroke-opacity="1" stroke-width="1" stroke-linecap="square" stroke-linejoin="bevel" transform="matrix(3.7037,0,0,3.7037,100,155.556)"
font-family="Helvetica" font-size="12" font-weight="400" font-style="normal" 
clip-path="url(#clip4872)" >
</g>

<g fill="none" stroke="#000000" stroke-opacity="1" stroke-width="1" stroke-linecap="square" stroke-linejoin="bevel" transform="matrix(1,0,0,1,0,0)"
font-family="Helvetica" font-size="12" font-weight="400" font-style="normal" 
>
</g>

<g fill="none" stroke="#000000" stroke-opacity="1" stroke-width="1" stroke-linecap="square" stroke-linejoin="bevel" transform="matrix(1,0,0,1,0,0)"
font-family="Helvetica" font-size="12" font-weight="400" font-style="normal" 
>
</g>

<g fill="none" stroke="#000000" stroke-opacity="1" stroke-width="1" stroke-linecap="square" stroke-linejoin="bevel" transform="matrix(1,0,0,1,0,0)"
font-family="Helvetica" font-size="12" font-weight="400" font-style="normal" 
clip-path="url(#clip4873)" >
<defs><clipPath id="clip4873"><path vector-effect="non-scaling-stroke" fill-rule="evenodd" d="M0,0 L200,0 L200,155 L0,155 L0,0z "/>
</clipPath></defs></g>

<g fill="none" stroke="#000000" stroke-opacity="1" stroke-width="1" stroke-linecap="square" stroke-linejoin="bevel" transform="matrix(1,0,0,1,0,0)"
font-family="Helvetica" font-size="12" font-weight="400" font-style="normal" 
>
</g>

<g fill="none" stroke="#000000" stroke-opacity="1" stroke-width="1" stroke-linecap="square" stroke-linejoin="bevel" transform="matrix(1,0,0,1,0,0)"
font-family="Helvetica" font-size="12" font-weight="400" font-style="normal" 
>
</g>

<g fill="none" stroke="#000000" stroke-opacity="1" stroke-width="1" stroke-linecap="square" stroke-linejoin="bevel" transform="matrix(1,0,0,1,0,0)"
font-family="Helvetica" font-size="12" font-weight="400" font-style="normal" 
clip-path="url(#clip4874)" >
<defs><clipPath id="clip4874"><path vector-effect="non-scaling-stroke" fill-rule="evenodd" d="M0,0 L1,0 L1,1 L0,1 L0,0z "/>
</clipPath></defs></g>

<g fill="none" stroke="#000000" stroke-opacity="1" stroke-width="1" stroke-linecap="square" stroke-linejoin="bevel" transform="matrix(1,0,0,1,0,0)"
font-family="Helvetica" font-size="12" font-weight="400" font-style="normal" 
>
</g>

<g fill="none" stroke="#000000" stroke-opacity="1" stroke-width="1" stroke-linecap="square" stroke-linejoin="bevel" transform="matrix(1,0,0,1,0,0)"
font-family="Helvetica" font-size="12" font-weight="400" font-style="normal" 
>
</g>
</g>
</svg>
