<?xml version="1.0" encoding="UTF-8" standalone="no"?>
<svg width="52.9167mm" height="49.4771mm"
 viewBox="0 0 200 187"
 xmlns="http://www.w3.org/2000/svg" xmlns:xlink="http://www.w3.org/1999/xlink"  version="1.2" baseProfile="tiny">
<defs>
</defs>
<g fill="none" stroke="black" stroke-width="1" fill-rule="evenodd" stroke-linecap="square" stroke-linejoin="bevel" >

<g fill="#ffffff" fill-opacity="0" stroke="none" transform="matrix(1,0,0,1,0,0)"
font-family="Helvetica" font-size="16" font-weight="400" font-style="normal" 
>
<path vector-effect="non-scaling-stroke" fill-rule="evenodd" d="M0,0 L200,0 L200,187 L0,187 L0,0z "/>
</g>

<g fill="none" stroke="#000000" stroke-opacity="1" stroke-width="1" stroke-linecap="square" stroke-linejoin="bevel" transform="matrix(1,0,0,1,0,0)"
font-family="Helvetica" font-size="16" font-weight="400" font-style="normal" 
>
</g>

<g fill="none" stroke="#000000" stroke-opacity="1" stroke-width="1" stroke-linecap="square" stroke-linejoin="bevel" transform="matrix(1,0,0,1,0,0)"
font-family="Helvetica" font-size="16" font-weight="400" font-style="normal" 
clip-path="url(#clip513)" >
<defs><clipPath id="clip513"><path vector-effect="non-scaling-stroke" fill-rule="evenodd" d="M0,0 L200,0 L200,187.879 L0,187.879 L0,0z "/>
</clipPath></defs></g>

<g fill="none" stroke="#000000" stroke-opacity="1" stroke-width="1" stroke-linecap="square" stroke-linejoin="bevel" transform="matrix(3.0303,0,0,3.0303,6.06061,6.06061)"
font-family="Helvetica" font-size="16" font-weight="400" font-style="normal" 
clip-path="url(#clip514)" >
<defs><clipPath id="clip514"><path vector-effect="non-scaling-stroke" fill-rule="evenodd" d="M-2,-2 L64,-2 L64,60 L-2,60 L-2,-2z "/>
</clipPath></defs></g>

<g fill="#ffffff" fill-opacity="1" stroke="none" transform="matrix(3.0303,0,0,3.0303,6.06061,6.06061)"
font-family="Helvetica" font-size="16" font-weight="400" font-style="normal" 
clip-path="url(#clip514)" >
<path vector-effect="none" fill-rule="evenodd" d="M0,0 L62,0 L62,58 L0,58 L0,0z "/>
</g>

<g fill="none" stroke="#000000" stroke-opacity="1" stroke-width="1" stroke-linecap="square" stroke-linejoin="bevel" transform="matrix(3.0303,0,0,3.0303,6.06061,6.06061)"
font-family="Helvetica" font-size="16" font-weight="400" font-style="normal" 
clip-path="url(#clip514)" >
</g>

<g fill="none" stroke="#000000" stroke-opacity="1" stroke-width="1" stroke-linecap="square" stroke-linejoin="bevel" transform="matrix(3.0303,0,0,3.0303,6.06061,6.06061)"
font-family="Helvetica" font-size="16" font-weight="400" font-style="normal" 
clip-path="url(#clip514)" >
</g>

<g fill="none" stroke="#000000" stroke-opacity="1" stroke-width="1" stroke-linecap="square" stroke-linejoin="bevel" transform="matrix(3.0303,0,0,3.0303,6.06061,6.06061)"
font-family="Helvetica" font-size="16" font-weight="400" font-style="normal" 
clip-path="url(#clip515)" >
<defs><clipPath id="clip515"><path vector-effect="non-scaling-stroke" fill-rule="evenodd" d="M0,0 L62,0 L62,58 L0,58 L0,0z "/>
</clipPath></defs></g>

<g fill="#ff8282" fill-opacity="1" stroke="#ff8282" stroke-opacity="1" stroke-width="1" stroke-linecap="square" stroke-linejoin="bevel" transform="matrix(3.0303,0,0,3.0303,-600,-333.333)"
font-family="Helvetica" font-size="16" font-weight="400" font-style="normal" 
clip-path="url(#clip516)" >
<defs><clipPath id="clip516"><path vector-effect="none" fill-rule="evenodd" d="M200,112 L262,112 L262,170 L200,170 L200,112z "/>
</clipPath></defs><path vector-effect="none" fill-rule="evenodd" d="M200,169 L261,169 L261,112 L200,112 L200,169z "/>
</g>

<g fill="#aa5757" fill-opacity="1" stroke="#aa5757" stroke-opacity="1" stroke-width="1" stroke-linecap="square" stroke-linejoin="bevel" transform="matrix(3.0303,0,0,3.0303,-600,-333.333)"
font-family="Helvetica" font-size="16" font-weight="400" font-style="normal" 
clip-path="url(#clip516)" >
<path vector-effect="none" fill-rule="evenodd" d="M200,169 L261,169 L261,112 L257,115 L257,166 L204,166 L200,169z "/>
</g>

<g fill="#ffacac" fill-opacity="1" stroke="#ffacac" stroke-opacity="1" stroke-width="1" stroke-linecap="square" stroke-linejoin="bevel" transform="matrix(3.0303,0,0,3.0303,-600,-333.333)"
font-family="Helvetica" font-size="16" font-weight="400" font-style="normal" 
clip-path="url(#clip516)" >
<path vector-effect="none" fill-rule="evenodd" d="M200,169 L200,112 L261,112 L257,115 L204,115 L204,166 L200,169z "/>
</g>

<g fill="#ffacac" fill-opacity="1" stroke="#000000" stroke-opacity="1" stroke-width="1" stroke-linecap="square" stroke-linejoin="bevel" transform="matrix(3.0303,0,0,3.0303,-598.485,-331.818)"
font-family="Helvetica" font-size="16" font-weight="400" font-style="normal" 
clip-path="url(#clip517)" >
<defs><clipPath id="clip517"><path vector-effect="none" fill-rule="evenodd" d="M199,112 L261,112 L261,170 L199,170 L199,112z "/>
</clipPath></defs><polyline fill="none" vector-effect="none" points="200,169 261,169 " />
</g>

<g fill="#ffacac" fill-opacity="1" stroke="#000000" stroke-opacity="1" stroke-width="1" stroke-linecap="square" stroke-linejoin="bevel" transform="matrix(3.0303,0,0,3.0303,-598.485,-331.818)"
font-family="Helvetica" font-size="16" font-weight="400" font-style="normal" 
clip-path="url(#clip517)" >
<polyline fill="none" vector-effect="none" points="261,169 261,112 " />
</g>

<g fill="#ffacac" fill-opacity="1" stroke="#000000" stroke-opacity="1" stroke-width="1" stroke-linecap="square" stroke-linejoin="bevel" transform="matrix(3.0303,0,0,3.0303,-598.485,-331.818)"
font-family="Helvetica" font-size="16" font-weight="400" font-style="normal" 
clip-path="url(#clip517)" >
<polyline fill="none" vector-effect="none" points="261,112 200,112 " />
</g>

<g fill="#ffacac" fill-opacity="1" stroke="#000000" stroke-opacity="1" stroke-width="1" stroke-linecap="square" stroke-linejoin="bevel" transform="matrix(3.0303,0,0,3.0303,-598.485,-331.818)"
font-family="Helvetica" font-size="16" font-weight="400" font-style="normal" 
clip-path="url(#clip517)" >
<polyline fill="none" vector-effect="none" points="200,112 200,169 " />
</g>

<g fill="#ffacac" fill-opacity="1" stroke="#000000" stroke-opacity="1" stroke-width="1" stroke-linecap="square" stroke-linejoin="bevel" transform="matrix(3.0303,0,0,3.0303,100,93.9394)"
font-family="FreeSans" font-size="10.4348" font-weight="400" font-style="normal" 
clip-path="url(#clip518)" >
<defs><clipPath id="clip518"><path vector-effect="none" fill-rule="evenodd" d="M-31,-29 L31,-29 L31,29 L-31,29 L-31,-29z "/>
</clipPath></defs></g>

<g fill="#ffacac" fill-opacity="1" stroke="#000000" stroke-opacity="1" stroke-width="1" stroke-linecap="square" stroke-linejoin="bevel" transform="matrix(2.90404,0,0,2.90404,100,93.9394)"
font-family="FreeSans" font-size="10.4348" font-weight="400" font-style="normal" 
clip-path="url(#clip519)" >
<defs><clipPath id="clip519"><path vector-effect="none" fill-rule="evenodd" d="M-32,-30 L33,-30 L33,31 L-32,31 L-32,-30z "/>
</clipPath></defs><text textLength="33" fill="#000000" fill-opacity="1" stroke="none" xml:space="preserve" x="-16.6875" y="3.14062" font-family="FreeSans" font-size="10.4348" font-weight="400" font-style="normal" 
 >Control</text>
</g>

<g fill="#ffacac" fill-opacity="1" stroke="#000000" stroke-opacity="1" stroke-width="1" stroke-linecap="square" stroke-linejoin="bevel" transform="matrix(3.0303,0,0,3.0303,100,93.9394)"
font-family="FreeSans" font-size="10.4348" font-weight="400" font-style="normal" 
clip-path="url(#clip520)" >
<defs><clipPath id="clip520"><path vector-effect="none" fill-rule="evenodd" d="M-31,-29 L31,-29 L31,29 L-31,29 L-31,-29z "/>
</clipPath></defs></g>

<g fill="#ffacac" fill-opacity="1" stroke="#000000" stroke-opacity="1" stroke-width="1" stroke-linecap="square" stroke-linejoin="bevel" transform="matrix(3.12805,0,0,3.16206,100,93.9394)"
font-family="FreeSans" font-size="10.4348" font-weight="400" font-style="normal" 
clip-path="url(#clip521)" >
<defs><clipPath id="clip521"><path vector-effect="none" fill-rule="evenodd" d="M-2,-2 L64,-2 L64,60 L-2,60 L-2,-2z "/>
</clipPath></defs></g>

<g fill="#ffacac" fill-opacity="1" stroke="#000000" stroke-opacity="1" stroke-width="1" stroke-linecap="square" stroke-linejoin="bevel" transform="matrix(1,0,0,1,0,0)"
font-family="FreeSans" font-size="10.4348" font-weight="400" font-style="normal" 
clip-path="url(#clip521)" >
</g>

<g fill="none" stroke="#000000" stroke-opacity="1" stroke-width="1" stroke-linecap="square" stroke-linejoin="bevel" transform="matrix(3.0303,0,0,3.0303,6.06061,6.06061)"
font-family="Helvetica" font-size="16" font-weight="400" font-style="normal" 
clip-path="url(#clip521)" >
</g>

<g fill="none" stroke="#000000" stroke-opacity="1" stroke-width="1" stroke-linecap="square" stroke-linejoin="bevel" transform="matrix(3.0303,0,0,3.0303,6.06061,6.06061)"
font-family="Helvetica" font-size="16" font-weight="400" font-style="normal" 
clip-path="url(#clip521)" >
</g>

<g fill="none" stroke="none" transform="matrix(3.0303,0,0,3.0303,6.06061,6.06061)"
font-family="Helvetica" font-size="16" font-weight="400" font-style="normal" 
clip-path="url(#clip521)" >
<path vector-effect="none" fill-rule="evenodd" d="M0,0 L62,0 L62,58 L0,58 L0,0z "/>
</g>

<g fill="none" stroke="#000000" stroke-opacity="1" stroke-width="1" stroke-linecap="square" stroke-linejoin="bevel" transform="matrix(3.0303,0,0,3.0303,6.06061,6.06061)"
font-family="Helvetica" font-size="16" font-weight="400" font-style="normal" 
clip-path="url(#clip521)" >
</g>

<g fill="none" stroke="#000000" stroke-opacity="1" stroke-width="1" stroke-linecap="square" stroke-linejoin="bevel" transform="matrix(3.0303,0,0,3.0303,6.06061,6.06061)"
font-family="Helvetica" font-size="16" font-weight="400" font-style="normal" 
clip-path="url(#clip521)" >
</g>

<g fill="none" stroke="#000000" stroke-opacity="1" stroke-width="0.33" stroke-linecap="butt" stroke-linejoin="miter" stroke-miterlimit="2" transform="matrix(3.0303,0,0,3.0303,6.06061,6.06061)"
font-family="Helvetica" font-size="16" font-weight="400" font-style="normal" 
clip-path="url(#clip521)" >
</g>

<g fill="none" stroke="#000000" stroke-opacity="1" stroke-width="1" stroke-linecap="square" stroke-linejoin="bevel" transform="matrix(3.0303,0,0,3.0303,6.06061,6.06061)"
font-family="Helvetica" font-size="16" font-weight="400" font-style="normal" 
clip-path="url(#clip521)" >
</g>

<g fill="none" stroke="#000000" stroke-opacity="1" stroke-width="1" stroke-linecap="square" stroke-linejoin="bevel" transform="matrix(3.0303,0,0,3.0303,100,187.879)"
font-family="Helvetica" font-size="16" font-weight="400" font-style="normal" 
clip-path="url(#clip522)" >
<defs><clipPath id="clip522"><path vector-effect="non-scaling-stroke" fill-rule="evenodd" d="M-33,-62 L33,-62 L33,-2.13163e-14 L-33,-2.13163e-14 L-33,-62z "/>
</clipPath></defs></g>

<g fill="none" stroke="#000000" stroke-opacity="1" stroke-width="1" stroke-linecap="square" stroke-linejoin="bevel" transform="matrix(3.0303,0,0,3.0303,100,187.879)"
font-family="Helvetica" font-size="16" font-weight="400" font-style="normal" 
clip-path="url(#clip522)" >
</g>

<g fill="none" stroke="#000000" stroke-opacity="1" stroke-width="1" stroke-linecap="square" stroke-linejoin="bevel" transform="matrix(1,0,0,1,0,0)"
font-family="Helvetica" font-size="16" font-weight="400" font-style="normal" 
>
</g>

<g fill="none" stroke="#000000" stroke-opacity="1" stroke-width="1" stroke-linecap="square" stroke-linejoin="bevel" transform="matrix(1,0,0,1,0,0)"
font-family="Helvetica" font-size="16" font-weight="400" font-style="normal" 
>
</g>

<g fill="none" stroke="#000000" stroke-opacity="1" stroke-width="1" stroke-linecap="square" stroke-linejoin="bevel" transform="matrix(1,0,0,1,0,0)"
font-family="Helvetica" font-size="16" font-weight="400" font-style="normal" 
clip-path="url(#clip523)" >
<defs><clipPath id="clip523"><path vector-effect="non-scaling-stroke" fill-rule="evenodd" d="M0,0 L200,0 L200,187 L0,187 L0,0z "/>
</clipPath></defs></g>

<g fill="none" stroke="#000000" stroke-opacity="1" stroke-width="1" stroke-linecap="square" stroke-linejoin="bevel" transform="matrix(1,0,0,1,0,0)"
font-family="Helvetica" font-size="16" font-weight="400" font-style="normal" 
>
</g>

<g fill="none" stroke="#000000" stroke-opacity="1" stroke-width="1" stroke-linecap="square" stroke-linejoin="bevel" transform="matrix(1,0,0,1,0,0)"
font-family="Helvetica" font-size="16" font-weight="400" font-style="normal" 
>
</g>

<g fill="none" stroke="#000000" stroke-opacity="1" stroke-width="1" stroke-linecap="square" stroke-linejoin="bevel" transform="matrix(1,0,0,1,0,0)"
font-family="Helvetica" font-size="16" font-weight="400" font-style="normal" 
clip-path="url(#clip524)" >
<defs><clipPath id="clip524"><path vector-effect="non-scaling-stroke" fill-rule="evenodd" d="M0,0 L1,0 L1,1 L0,1 L0,0z "/>
</clipPath></defs></g>

<g fill="none" stroke="#000000" stroke-opacity="1" stroke-width="1" stroke-linecap="square" stroke-linejoin="bevel" transform="matrix(1,0,0,1,0,0)"
font-family="Helvetica" font-size="16" font-weight="400" font-style="normal" 
>
</g>

<g fill="none" stroke="#000000" stroke-opacity="1" stroke-width="1" stroke-linecap="square" stroke-linejoin="bevel" transform="matrix(1,0,0,1,0,0)"
font-family="Helvetica" font-size="16" font-weight="400" font-style="normal" 
>
</g>
</g>
</svg>
