<?xml version="1.0" encoding="UTF-8" standalone="no"?>
<svg width="52.9167mm" height="48.1542mm"
 viewBox="0 0 200 182"
 xmlns="http://www.w3.org/2000/svg" xmlns:xlink="http://www.w3.org/1999/xlink"  version="1.2" baseProfile="tiny">
<defs>
</defs>
<g fill="none" stroke="black" stroke-width="1" fill-rule="evenodd" stroke-linecap="square" stroke-linejoin="bevel" >

<g fill="#ffffff" fill-opacity="0" stroke="none" transform="matrix(1,0,0,1,0,0)"
font-family="Helvetica" font-size="16" font-weight="400" font-style="normal" 
>
<path vector-effect="non-scaling-stroke" fill-rule="evenodd" d="M0,0 L200,0 L200,182 L0,182 L0,0z "/>
</g>

<g fill="none" stroke="#000000" stroke-opacity="1" stroke-width="1" stroke-linecap="square" stroke-linejoin="bevel" transform="matrix(1,0,0,1,0,0)"
font-family="Helvetica" font-size="16" font-weight="400" font-style="normal" 
>
</g>

<g fill="none" stroke="#000000" stroke-opacity="1" stroke-width="1" stroke-linecap="square" stroke-linejoin="bevel" transform="matrix(1,0,0,1,0,0)"
font-family="Helvetica" font-size="16" font-weight="400" font-style="normal" 
clip-path="url(#clip547)" >
<defs><clipPath id="clip547"><path vector-effect="non-scaling-stroke" fill-rule="evenodd" d="M0,0 L200,0 L200,182.09 L0,182.09 L0,0z "/>
</clipPath></defs></g>

<g fill="none" stroke="#000000" stroke-opacity="1" stroke-width="1" stroke-linecap="square" stroke-linejoin="bevel" transform="matrix(2.98507,0,0,2.98507,5.97015,5.97015)"
font-family="Helvetica" font-size="16" font-weight="400" font-style="normal" 
clip-path="url(#clip548)" >
<defs><clipPath id="clip548"><path vector-effect="non-scaling-stroke" fill-rule="evenodd" d="M-2,-2 L65,-2 L65,59 L-2,59 L-2,-2z "/>
</clipPath></defs></g>

<g fill="#ffffff" fill-opacity="1" stroke="none" transform="matrix(2.98507,0,0,2.98507,5.97015,5.97015)"
font-family="Helvetica" font-size="16" font-weight="400" font-style="normal" 
clip-path="url(#clip548)" >
<path vector-effect="none" fill-rule="evenodd" d="M0,0 L63,0 L63,57 L0,57 L0,0z "/>
</g>

<g fill="none" stroke="#000000" stroke-opacity="1" stroke-width="1" stroke-linecap="square" stroke-linejoin="bevel" transform="matrix(2.98507,0,0,2.98507,5.97015,5.97015)"
font-family="Helvetica" font-size="16" font-weight="400" font-style="normal" 
clip-path="url(#clip548)" >
</g>

<g fill="none" stroke="#000000" stroke-opacity="1" stroke-width="1" stroke-linecap="square" stroke-linejoin="bevel" transform="matrix(2.98507,0,0,2.98507,5.97015,5.97015)"
font-family="Helvetica" font-size="16" font-weight="400" font-style="normal" 
clip-path="url(#clip548)" >
</g>

<g fill="none" stroke="#000000" stroke-opacity="1" stroke-width="1" stroke-linecap="square" stroke-linejoin="bevel" transform="matrix(2.98507,0,0,2.98507,5.97015,5.97015)"
font-family="Helvetica" font-size="16" font-weight="400" font-style="normal" 
clip-path="url(#clip549)" >
<defs><clipPath id="clip549"><path vector-effect="non-scaling-stroke" fill-rule="evenodd" d="M0,0 L63,0 L63,57 L0,57 L0,0z "/>
</clipPath></defs></g>

<g fill="#ff8282" fill-opacity="1" stroke="#ff8282" stroke-opacity="1" stroke-width="1" stroke-linecap="square" stroke-linejoin="bevel" transform="matrix(2.98507,0,0,2.98507,-426.866,-38.806)"
font-family="Helvetica" font-size="16" font-weight="400" font-style="normal" 
clip-path="url(#clip550)" >
<defs><clipPath id="clip550"><path vector-effect="none" fill-rule="evenodd" d="M145,15 L208,15 L208,72 L145,72 L145,15z "/>
</clipPath></defs><path vector-effect="none" fill-rule="evenodd" d="M145,71 L207,71 L207,15 L145,15 L145,71z "/>
</g>

<g fill="#aa5757" fill-opacity="1" stroke="#aa5757" stroke-opacity="1" stroke-width="1" stroke-linecap="square" stroke-linejoin="bevel" transform="matrix(2.98507,0,0,2.98507,-426.866,-38.806)"
font-family="Helvetica" font-size="16" font-weight="400" font-style="normal" 
clip-path="url(#clip550)" >
<path vector-effect="none" fill-rule="evenodd" d="M145,71 L207,71 L207,15 L203,18 L203,68 L149,68 L145,71z "/>
</g>

<g fill="#ffacac" fill-opacity="1" stroke="#ffacac" stroke-opacity="1" stroke-width="1" stroke-linecap="square" stroke-linejoin="bevel" transform="matrix(2.98507,0,0,2.98507,-426.866,-38.806)"
font-family="Helvetica" font-size="16" font-weight="400" font-style="normal" 
clip-path="url(#clip550)" >
<path vector-effect="none" fill-rule="evenodd" d="M145,71 L145,15 L207,15 L203,18 L149,18 L149,68 L145,71z "/>
</g>

<g fill="#ffacac" fill-opacity="1" stroke="#000000" stroke-opacity="1" stroke-width="1" stroke-linecap="square" stroke-linejoin="bevel" transform="matrix(2.98507,0,0,2.98507,-425.373,-37.3134)"
font-family="Helvetica" font-size="16" font-weight="400" font-style="normal" 
clip-path="url(#clip550)" >
<polyline fill="none" vector-effect="none" points="145,71 207,71 " />
</g>

<g fill="#ffacac" fill-opacity="1" stroke="#000000" stroke-opacity="1" stroke-width="1" stroke-linecap="square" stroke-linejoin="bevel" transform="matrix(2.98507,0,0,2.98507,-425.373,-37.3134)"
font-family="Helvetica" font-size="16" font-weight="400" font-style="normal" 
clip-path="url(#clip550)" >
<polyline fill="none" vector-effect="none" points="207,71 207,15 " />
</g>

<g fill="#ffacac" fill-opacity="1" stroke="#000000" stroke-opacity="1" stroke-width="1" stroke-linecap="square" stroke-linejoin="bevel" transform="matrix(2.98507,0,0,2.98507,-425.373,-37.3134)"
font-family="Helvetica" font-size="16" font-weight="400" font-style="normal" 
clip-path="url(#clip550)" >
<polyline fill="none" vector-effect="none" points="207,15 145,15 " />
</g>

<g fill="#ffacac" fill-opacity="1" stroke="#000000" stroke-opacity="1" stroke-width="1" stroke-linecap="square" stroke-linejoin="bevel" transform="matrix(2.98507,0,0,2.98507,-425.373,-37.3134)"
font-family="Helvetica" font-size="16" font-weight="400" font-style="normal" 
clip-path="url(#clip550)" >
<polyline fill="none" vector-effect="none" points="145,15 145,71 " />
</g>

<g fill="#ffacac" fill-opacity="1" stroke="#000000" stroke-opacity="1" stroke-width="1" stroke-linecap="square" stroke-linejoin="bevel" transform="matrix(2.98507,0,0,2.98507,98.5075,89.5522)"
font-family="FreeSans" font-size="10.4348" font-weight="400" font-style="normal" 
clip-path="url(#clip551)" >
<defs><clipPath id="clip551"><path vector-effect="none" fill-rule="evenodd" d="M-31,-28 L32,-28 L32,29 L-31,29 L-31,-28z "/>
</clipPath></defs></g>

<g fill="#ffacac" fill-opacity="1" stroke="#000000" stroke-opacity="1" stroke-width="1" stroke-linecap="square" stroke-linejoin="bevel" transform="matrix(2.8607,0,0,2.8607,98.5075,89.5522)"
font-family="FreeSans" font-size="10.4348" font-weight="400" font-style="normal" 
clip-path="url(#clip552)" >
<defs><clipPath id="clip552"><path vector-effect="none" fill-rule="evenodd" d="M-32,-29 L34,-29 L34,30 L-32,30 L-32,-29z "/>
</clipPath></defs><text textLength="8" fill="#000000" fill-opacity="1" stroke="none" xml:space="preserve" x="-4.17188" y="3.14062" font-family="FreeSans" font-size="10.4348" font-weight="400" font-style="normal" 
 >N</text>
</g>

<g fill="#ffacac" fill-opacity="1" stroke="#000000" stroke-opacity="1" stroke-width="1" stroke-linecap="square" stroke-linejoin="bevel" transform="matrix(2.98507,0,0,2.98507,98.5075,89.5522)"
font-family="FreeSans" font-size="10.4348" font-weight="400" font-style="normal" 
clip-path="url(#clip553)" >
<defs><clipPath id="clip553"><path vector-effect="none" fill-rule="evenodd" d="M-31,-28 L32,-28 L32,29 L-31,29 L-31,-28z "/>
</clipPath></defs></g>

<g fill="#ffacac" fill-opacity="1" stroke="#000000" stroke-opacity="1" stroke-width="1" stroke-linecap="square" stroke-linejoin="bevel" transform="matrix(3.08137,0,0,3.11486,98.5075,89.5522)"
font-family="FreeSans" font-size="10.4348" font-weight="400" font-style="normal" 
clip-path="url(#clip554)" >
<defs><clipPath id="clip554"><path vector-effect="none" fill-rule="evenodd" d="M-2,-2 L65,-2 L65,59 L-2,59 L-2,-2z "/>
</clipPath></defs></g>

<g fill="#ffacac" fill-opacity="1" stroke="#000000" stroke-opacity="1" stroke-width="1" stroke-linecap="square" stroke-linejoin="bevel" transform="matrix(1,0,0,1,0,0)"
font-family="FreeSans" font-size="10.4348" font-weight="400" font-style="normal" 
clip-path="url(#clip554)" >
</g>

<g fill="none" stroke="#000000" stroke-opacity="1" stroke-width="1" stroke-linecap="square" stroke-linejoin="bevel" transform="matrix(2.98507,0,0,2.98507,5.97015,5.97015)"
font-family="Helvetica" font-size="16" font-weight="400" font-style="normal" 
clip-path="url(#clip554)" >
</g>

<g fill="none" stroke="#000000" stroke-opacity="1" stroke-width="1" stroke-linecap="square" stroke-linejoin="bevel" transform="matrix(2.98507,0,0,2.98507,5.97015,5.97015)"
font-family="Helvetica" font-size="16" font-weight="400" font-style="normal" 
clip-path="url(#clip554)" >
</g>

<g fill="none" stroke="none" transform="matrix(2.98507,0,0,2.98507,5.97015,5.97015)"
font-family="Helvetica" font-size="16" font-weight="400" font-style="normal" 
clip-path="url(#clip554)" >
<path vector-effect="none" fill-rule="evenodd" d="M0,0 L63,0 L63,57 L0,57 L0,0z "/>
</g>

<g fill="none" stroke="#000000" stroke-opacity="1" stroke-width="1" stroke-linecap="square" stroke-linejoin="bevel" transform="matrix(2.98507,0,0,2.98507,5.97015,5.97015)"
font-family="Helvetica" font-size="16" font-weight="400" font-style="normal" 
clip-path="url(#clip554)" >
</g>

<g fill="none" stroke="#000000" stroke-opacity="1" stroke-width="1" stroke-linecap="square" stroke-linejoin="bevel" transform="matrix(2.98507,0,0,2.98507,5.97015,5.97015)"
font-family="Helvetica" font-size="16" font-weight="400" font-style="normal" 
clip-path="url(#clip554)" >
</g>

<g fill="none" stroke="#000000" stroke-opacity="1" stroke-width="0.335" stroke-linecap="butt" stroke-linejoin="miter" stroke-miterlimit="2" transform="matrix(2.98507,0,0,2.98507,5.97015,5.97015)"
font-family="Helvetica" font-size="16" font-weight="400" font-style="normal" 
clip-path="url(#clip554)" >
</g>

<g fill="none" stroke="#000000" stroke-opacity="1" stroke-width="1" stroke-linecap="square" stroke-linejoin="bevel" transform="matrix(2.98507,0,0,2.98507,5.97015,5.97015)"
font-family="Helvetica" font-size="16" font-weight="400" font-style="normal" 
clip-path="url(#clip554)" >
</g>

<g fill="none" stroke="#000000" stroke-opacity="1" stroke-width="1" stroke-linecap="square" stroke-linejoin="bevel" transform="matrix(2.98507,0,0,2.98507,100,182.09)"
font-family="Helvetica" font-size="16" font-weight="400" font-style="normal" 
clip-path="url(#clip555)" >
<defs><clipPath id="clip555"><path vector-effect="non-scaling-stroke" fill-rule="evenodd" d="M-33.5,-61 L33.5,-61 L33.5,7.10543e-15 L-33.5,7.10543e-15 L-33.5,-61z "/>
</clipPath></defs></g>

<g fill="none" stroke="none" transform="matrix(2.98507,0,0,2.98507,100,182.09)"
font-family="Helvetica" font-size="16" font-weight="400" font-style="normal" 
clip-path="url(#clip555)" >
<path vector-effect="none" fill-rule="evenodd" d="M-44.2578,0 L44.2578,0 L44.2578,15 L-44.2578,15 L-44.2578,0z "/>
</g>

<g fill="none" stroke="#000000" stroke-opacity="1" stroke-width="1" stroke-linecap="square" stroke-linejoin="bevel" transform="matrix(2.98507,0,0,2.98507,-32.1129,182.09)"
font-family="Helvetica" font-size="10" font-weight="400" font-style="normal" 
clip-path="url(#clip556)" >
<defs><clipPath id="clip556"><path vector-effect="non-scaling-stroke" fill-rule="evenodd" d="M10.7578,-61 L77.7578,-61 L77.7578,7.10543e-15 L10.7578,7.10543e-15 L10.7578,-61z "/>
</clipPath></defs></g>

<g fill="none" stroke="#000000" stroke-opacity="1" stroke-width="1" stroke-linecap="square" stroke-linejoin="bevel" transform="matrix(2.98507,0,0,2.98507,-32.1129,182.09)"
font-family="Helvetica" font-size="10" font-weight="400" font-style="normal" 
clip-path="url(#clip556)" >
</g>

<g fill="none" stroke="#000000" stroke-opacity="1" stroke-width="1" stroke-linecap="square" stroke-linejoin="bevel" transform="matrix(2.98507,0,0,2.98507,-32.1129,182.09)"
font-family="Helvetica" font-size="10" font-weight="400" font-style="normal" 
>
</g>

<g fill="none" stroke="#000000" stroke-opacity="1" stroke-width="1" stroke-linecap="square" stroke-linejoin="bevel" transform="matrix(2.98507,0,0,2.98507,-32.1129,182.09)"
font-family="Helvetica" font-size="10" font-weight="400" font-style="normal" 
clip-path="url(#clip556)" >
</g>

<g fill="none" stroke="#000000" stroke-opacity="1" stroke-width="1" stroke-linecap="square" stroke-linejoin="bevel" transform="matrix(1,0,0,1,0,0)"
font-family="Helvetica" font-size="10" font-weight="400" font-style="normal" 
clip-path="url(#clip556)" >
</g>

<g fill="none" stroke="#000000" stroke-opacity="1" stroke-width="1" stroke-linecap="square" stroke-linejoin="bevel" transform="matrix(2.98507,0,0,2.98507,-32.1129,182.09)"
font-family="Helvetica" font-size="10" font-weight="400" font-style="normal" 
clip-path="url(#clip556)" >
</g>

<g fill="none" stroke="#000000" stroke-opacity="1" stroke-width="1" stroke-linecap="square" stroke-linejoin="bevel" transform="matrix(2.98507,0,0,2.98507,-32.1129,182.09)"
font-family="Helvetica" font-size="10" font-weight="400" font-style="normal" 
clip-path="url(#clip556)" >
</g>

<g fill="none" stroke="#000000" stroke-opacity="1" stroke-width="1" stroke-linecap="square" stroke-linejoin="bevel" transform="matrix(2.98507,0,0,2.98507,100,182.09)"
font-family="Helvetica" font-size="16" font-weight="400" font-style="normal" 
clip-path="url(#clip557)" >
<defs><clipPath id="clip557"><path vector-effect="non-scaling-stroke" fill-rule="evenodd" d="M-33.5,-61 L33.5,-61 L33.5,7.10543e-15 L-33.5,7.10543e-15 L-33.5,-61z "/>
</clipPath></defs></g>

<g fill="none" stroke="#000000" stroke-opacity="1" stroke-width="1" stroke-linecap="square" stroke-linejoin="bevel" transform="matrix(1,0,0,1,0,0)"
font-family="Helvetica" font-size="16" font-weight="400" font-style="normal" 
>
</g>

<g fill="none" stroke="#000000" stroke-opacity="1" stroke-width="1" stroke-linecap="square" stroke-linejoin="bevel" transform="matrix(1,0,0,1,0,0)"
font-family="Helvetica" font-size="16" font-weight="400" font-style="normal" 
>
</g>

<g fill="none" stroke="#000000" stroke-opacity="1" stroke-width="1" stroke-linecap="square" stroke-linejoin="bevel" transform="matrix(1,0,0,1,0,0)"
font-family="Helvetica" font-size="16" font-weight="400" font-style="normal" 
clip-path="url(#clip558)" >
<defs><clipPath id="clip558"><path vector-effect="non-scaling-stroke" fill-rule="evenodd" d="M0,0 L200,0 L200,182 L0,182 L0,0z "/>
</clipPath></defs></g>

<g fill="none" stroke="#000000" stroke-opacity="1" stroke-width="1" stroke-linecap="square" stroke-linejoin="bevel" transform="matrix(1,0,0,1,0,0)"
font-family="Helvetica" font-size="16" font-weight="400" font-style="normal" 
>
</g>

<g fill="none" stroke="#000000" stroke-opacity="1" stroke-width="1" stroke-linecap="square" stroke-linejoin="bevel" transform="matrix(1,0,0,1,0,0)"
font-family="Helvetica" font-size="16" font-weight="400" font-style="normal" 
>
</g>

<g fill="none" stroke="#000000" stroke-opacity="1" stroke-width="1" stroke-linecap="square" stroke-linejoin="bevel" transform="matrix(1,0,0,1,0,0)"
font-family="Helvetica" font-size="16" font-weight="400" font-style="normal" 
clip-path="url(#clip559)" >
<defs><clipPath id="clip559"><path vector-effect="non-scaling-stroke" fill-rule="evenodd" d="M0,0 L1,0 L1,1 L0,1 L0,0z "/>
</clipPath></defs></g>

<g fill="none" stroke="#000000" stroke-opacity="1" stroke-width="1" stroke-linecap="square" stroke-linejoin="bevel" transform="matrix(1,0,0,1,0,0)"
font-family="Helvetica" font-size="16" font-weight="400" font-style="normal" 
>
</g>

<g fill="none" stroke="#000000" stroke-opacity="1" stroke-width="1" stroke-linecap="square" stroke-linejoin="bevel" transform="matrix(1,0,0,1,0,0)"
font-family="Helvetica" font-size="16" font-weight="400" font-style="normal" 
>
</g>
</g>
</svg>
