<?xml version="1.0" encoding="UTF-8" standalone="no"?>
<svg width="52.9167mm" height="48.6833mm"
 viewBox="0 0 200 184"
 xmlns="http://www.w3.org/2000/svg" xmlns:xlink="http://www.w3.org/1999/xlink"  version="1.2" baseProfile="tiny">
<defs>
</defs>
<g fill="none" stroke="black" stroke-width="1" fill-rule="evenodd" stroke-linecap="square" stroke-linejoin="bevel" >

<g fill="#ffffff" fill-opacity="0" stroke="none" transform="matrix(1,0,0,1,0,0)"
font-family="Helvetica" font-size="16" font-weight="400" font-style="normal" 
>
<path vector-effect="non-scaling-stroke" fill-rule="evenodd" d="M0,0 L200,0 L200,184 L0,184 L0,0z "/>
</g>

<g fill="none" stroke="#000000" stroke-opacity="1" stroke-width="1" stroke-linecap="square" stroke-linejoin="bevel" transform="matrix(1,0,0,1,0,0)"
font-family="Helvetica" font-size="16" font-weight="400" font-style="normal" 
>
</g>

<g fill="none" stroke="#000000" stroke-opacity="1" stroke-width="1" stroke-linecap="square" stroke-linejoin="bevel" transform="matrix(1,0,0,1,0,0)"
font-family="Helvetica" font-size="16" font-weight="400" font-style="normal" 
clip-path="url(#clip1119)" >
<defs><clipPath id="clip1119"><path vector-effect="non-scaling-stroke" fill-rule="evenodd" d="M0,0 L200,0 L200,184.848 L0,184.848 L0,0z "/>
</clipPath></defs></g>

<g fill="none" stroke="#000000" stroke-opacity="1" stroke-width="1" stroke-linecap="square" stroke-linejoin="bevel" transform="matrix(3.0303,0,0,3.0303,6.06061,6.06061)"
font-family="Helvetica" font-size="16" font-weight="400" font-style="normal" 
clip-path="url(#clip1120)" >
<defs><clipPath id="clip1120"><path vector-effect="non-scaling-stroke" fill-rule="evenodd" d="M-2,-2 L64,-2 L64,59 L-2,59 L-2,-2z "/>
</clipPath></defs></g>

<g fill="#ffffff" fill-opacity="1" stroke="none" transform="matrix(3.0303,0,0,3.0303,6.06061,6.06061)"
font-family="Helvetica" font-size="16" font-weight="400" font-style="normal" 
clip-path="url(#clip1120)" >
<path vector-effect="none" fill-rule="evenodd" d="M0,0 L62,0 L62,57 L0,57 L0,0z "/>
</g>

<g fill="none" stroke="#000000" stroke-opacity="1" stroke-width="1" stroke-linecap="square" stroke-linejoin="bevel" transform="matrix(3.0303,0,0,3.0303,6.06061,6.06061)"
font-family="Helvetica" font-size="16" font-weight="400" font-style="normal" 
clip-path="url(#clip1120)" >
</g>

<g fill="none" stroke="#000000" stroke-opacity="1" stroke-width="1" stroke-linecap="square" stroke-linejoin="bevel" transform="matrix(3.0303,0,0,3.0303,6.06061,6.06061)"
font-family="Helvetica" font-size="16" font-weight="400" font-style="normal" 
clip-path="url(#clip1120)" >
</g>

<g fill="none" stroke="#000000" stroke-opacity="1" stroke-width="1" stroke-linecap="square" stroke-linejoin="bevel" transform="matrix(3.0303,0,0,3.0303,6.06061,6.06061)"
font-family="Helvetica" font-size="16" font-weight="400" font-style="normal" 
clip-path="url(#clip1121)" >
<defs><clipPath id="clip1121"><path vector-effect="non-scaling-stroke" fill-rule="evenodd" d="M0,0 L62,0 L62,57 L0,57 L0,0z "/>
</clipPath></defs></g>

<g fill="#ff8282" fill-opacity="1" stroke="#ff8282" stroke-opacity="1" stroke-width="1" stroke-linecap="square" stroke-linejoin="bevel" transform="matrix(3.0303,0,0,3.0303,-781.818,-39.3939)"
font-family="Helvetica" font-size="16" font-weight="400" font-style="normal" 
clip-path="url(#clip1122)" >
<defs><clipPath id="clip1122"><path vector-effect="none" fill-rule="evenodd" d="M260,15 L322,15 L322,72 L260,72 L260,15z "/>
</clipPath></defs><path vector-effect="none" fill-rule="evenodd" d="M260,71 L321,71 L321,15 L260,15 L260,71z "/>
</g>

<g fill="#aa5757" fill-opacity="1" stroke="#aa5757" stroke-opacity="1" stroke-width="1" stroke-linecap="square" stroke-linejoin="bevel" transform="matrix(3.0303,0,0,3.0303,-781.818,-39.3939)"
font-family="Helvetica" font-size="16" font-weight="400" font-style="normal" 
clip-path="url(#clip1122)" >
<path vector-effect="none" fill-rule="evenodd" d="M260,71 L321,71 L321,15 L317,18 L317,68 L264,68 L260,71z "/>
</g>

<g fill="#ffacac" fill-opacity="1" stroke="#ffacac" stroke-opacity="1" stroke-width="1" stroke-linecap="square" stroke-linejoin="bevel" transform="matrix(3.0303,0,0,3.0303,-781.818,-39.3939)"
font-family="Helvetica" font-size="16" font-weight="400" font-style="normal" 
clip-path="url(#clip1122)" >
<path vector-effect="none" fill-rule="evenodd" d="M260,71 L260,15 L321,15 L317,18 L264,18 L264,68 L260,71z "/>
</g>

<g fill="#ffacac" fill-opacity="1" stroke="#000000" stroke-opacity="1" stroke-width="1" stroke-linecap="square" stroke-linejoin="bevel" transform="matrix(3.0303,0,0,3.0303,-780.303,-37.8788)"
font-family="Helvetica" font-size="16" font-weight="400" font-style="normal" 
clip-path="url(#clip1122)" >
<polyline fill="none" vector-effect="none" points="260,71 321,71 " />
</g>

<g fill="#ffacac" fill-opacity="1" stroke="#000000" stroke-opacity="1" stroke-width="1" stroke-linecap="square" stroke-linejoin="bevel" transform="matrix(3.0303,0,0,3.0303,-780.303,-37.8788)"
font-family="Helvetica" font-size="16" font-weight="400" font-style="normal" 
clip-path="url(#clip1122)" >
<polyline fill="none" vector-effect="none" points="321,71 321,15 " />
</g>

<g fill="#ffacac" fill-opacity="1" stroke="#000000" stroke-opacity="1" stroke-width="1" stroke-linecap="square" stroke-linejoin="bevel" transform="matrix(3.0303,0,0,3.0303,-780.303,-37.8788)"
font-family="Helvetica" font-size="16" font-weight="400" font-style="normal" 
clip-path="url(#clip1122)" >
<polyline fill="none" vector-effect="none" points="321,15 260,15 " />
</g>

<g fill="#ffacac" fill-opacity="1" stroke="#000000" stroke-opacity="1" stroke-width="1" stroke-linecap="square" stroke-linejoin="bevel" transform="matrix(3.0303,0,0,3.0303,-780.303,-37.8788)"
font-family="Helvetica" font-size="16" font-weight="400" font-style="normal" 
clip-path="url(#clip1122)" >
<polyline fill="none" vector-effect="none" points="260,15 260,71 " />
</g>

<g fill="#ffacac" fill-opacity="1" stroke="#000000" stroke-opacity="1" stroke-width="1" stroke-linecap="square" stroke-linejoin="bevel" transform="matrix(3.0303,0,0,3.0303,100,90.9091)"
font-family="FreeSans" font-size="10.4348" font-weight="400" font-style="normal" 
clip-path="url(#clip1123)" >
<defs><clipPath id="clip1123"><path vector-effect="none" fill-rule="evenodd" d="M-31,-28 L31,-28 L31,29 L-31,29 L-31,-28z "/>
</clipPath></defs></g>

<g fill="#ffacac" fill-opacity="1" stroke="#000000" stroke-opacity="1" stroke-width="1" stroke-linecap="square" stroke-linejoin="bevel" transform="matrix(2.90404,0,0,2.90404,100,90.9091)"
font-family="FreeSans" font-size="10.4348" font-weight="400" font-style="normal" 
clip-path="url(#clip1124)" >
<defs><clipPath id="clip1124"><path vector-effect="none" fill-rule="evenodd" d="M-32,-29 L33,-29 L33,30 L-32,30 L-32,-29z "/>
</clipPath></defs><text textLength="10" fill="#000000" fill-opacity="1" stroke="none" xml:space="preserve" x="-4.6875" y="3.14062" font-family="FreeSans" font-size="10.4348" font-weight="400" font-style="normal" 
 >W</text>
</g>

<g fill="#ffacac" fill-opacity="1" stroke="#000000" stroke-opacity="1" stroke-width="1" stroke-linecap="square" stroke-linejoin="bevel" transform="matrix(3.0303,0,0,3.0303,100,90.9091)"
font-family="FreeSans" font-size="10.4348" font-weight="400" font-style="normal" 
clip-path="url(#clip1125)" >
<defs><clipPath id="clip1125"><path vector-effect="none" fill-rule="evenodd" d="M-31,-28 L31,-28 L31,29 L-31,29 L-31,-28z "/>
</clipPath></defs></g>

<g fill="#ffacac" fill-opacity="1" stroke="#000000" stroke-opacity="1" stroke-width="1" stroke-linecap="square" stroke-linejoin="bevel" transform="matrix(3.12805,0,0,3.16206,100,90.9091)"
font-family="FreeSans" font-size="10.4348" font-weight="400" font-style="normal" 
clip-path="url(#clip1126)" >
<defs><clipPath id="clip1126"><path vector-effect="none" fill-rule="evenodd" d="M-2,-2 L64,-2 L64,59 L-2,59 L-2,-2z "/>
</clipPath></defs></g>

<g fill="#ffacac" fill-opacity="1" stroke="#000000" stroke-opacity="1" stroke-width="1" stroke-linecap="square" stroke-linejoin="bevel" transform="matrix(1,0,0,1,0,0)"
font-family="FreeSans" font-size="10.4348" font-weight="400" font-style="normal" 
clip-path="url(#clip1126)" >
</g>

<g fill="none" stroke="#000000" stroke-opacity="1" stroke-width="1" stroke-linecap="square" stroke-linejoin="bevel" transform="matrix(3.0303,0,0,3.0303,6.06061,6.06061)"
font-family="Helvetica" font-size="16" font-weight="400" font-style="normal" 
clip-path="url(#clip1126)" >
</g>

<g fill="none" stroke="#000000" stroke-opacity="1" stroke-width="1" stroke-linecap="square" stroke-linejoin="bevel" transform="matrix(3.0303,0,0,3.0303,6.06061,6.06061)"
font-family="Helvetica" font-size="16" font-weight="400" font-style="normal" 
clip-path="url(#clip1126)" >
</g>

<g fill="none" stroke="none" transform="matrix(3.0303,0,0,3.0303,6.06061,6.06061)"
font-family="Helvetica" font-size="16" font-weight="400" font-style="normal" 
clip-path="url(#clip1126)" >
<path vector-effect="none" fill-rule="evenodd" d="M0,0 L62,0 L62,57 L0,57 L0,0z "/>
</g>

<g fill="none" stroke="#000000" stroke-opacity="1" stroke-width="1" stroke-linecap="square" stroke-linejoin="bevel" transform="matrix(3.0303,0,0,3.0303,6.06061,6.06061)"
font-family="Helvetica" font-size="16" font-weight="400" font-style="normal" 
clip-path="url(#clip1126)" >
</g>

<g fill="none" stroke="#000000" stroke-opacity="1" stroke-width="1" stroke-linecap="square" stroke-linejoin="bevel" transform="matrix(3.0303,0,0,3.0303,6.06061,6.06061)"
font-family="Helvetica" font-size="16" font-weight="400" font-style="normal" 
clip-path="url(#clip1126)" >
</g>

<g fill="none" stroke="#000000" stroke-opacity="1" stroke-width="0.33" stroke-linecap="butt" stroke-linejoin="miter" stroke-miterlimit="2" transform="matrix(3.0303,0,0,3.0303,6.06061,6.06061)"
font-family="Helvetica" font-size="16" font-weight="400" font-style="normal" 
clip-path="url(#clip1126)" >
</g>

<g fill="none" stroke="#000000" stroke-opacity="1" stroke-width="1" stroke-linecap="square" stroke-linejoin="bevel" transform="matrix(3.0303,0,0,3.0303,6.06061,6.06061)"
font-family="Helvetica" font-size="16" font-weight="400" font-style="normal" 
clip-path="url(#clip1126)" >
</g>

<g fill="none" stroke="#000000" stroke-opacity="1" stroke-width="1" stroke-linecap="square" stroke-linejoin="bevel" transform="matrix(3.0303,0,0,3.0303,100,184.848)"
font-family="Helvetica" font-size="16" font-weight="400" font-style="normal" 
clip-path="url(#clip1127)" >
<defs><clipPath id="clip1127"><path vector-effect="non-scaling-stroke" fill-rule="evenodd" d="M-33,-61 L33,-61 L33,-1.42109e-14 L-33,-1.42109e-14 L-33,-61z "/>
</clipPath></defs></g>

<g fill="none" stroke="#000000" stroke-opacity="1" stroke-width="1" stroke-linecap="square" stroke-linejoin="bevel" transform="matrix(3.0303,0,0,3.0303,100,184.848)"
font-family="Helvetica" font-size="16" font-weight="400" font-style="normal" 
clip-path="url(#clip1127)" >
</g>

<g fill="none" stroke="#000000" stroke-opacity="1" stroke-width="1" stroke-linecap="square" stroke-linejoin="bevel" transform="matrix(1,0,0,1,0,0)"
font-family="Helvetica" font-size="16" font-weight="400" font-style="normal" 
>
</g>

<g fill="none" stroke="#000000" stroke-opacity="1" stroke-width="1" stroke-linecap="square" stroke-linejoin="bevel" transform="matrix(1,0,0,1,0,0)"
font-family="Helvetica" font-size="16" font-weight="400" font-style="normal" 
>
</g>

<g fill="none" stroke="#000000" stroke-opacity="1" stroke-width="1" stroke-linecap="square" stroke-linejoin="bevel" transform="matrix(1,0,0,1,0,0)"
font-family="Helvetica" font-size="16" font-weight="400" font-style="normal" 
clip-path="url(#clip1128)" >
<defs><clipPath id="clip1128"><path vector-effect="non-scaling-stroke" fill-rule="evenodd" d="M0,0 L200,0 L200,184 L0,184 L0,0z "/>
</clipPath></defs></g>

<g fill="none" stroke="#000000" stroke-opacity="1" stroke-width="1" stroke-linecap="square" stroke-linejoin="bevel" transform="matrix(1,0,0,1,0,0)"
font-family="Helvetica" font-size="16" font-weight="400" font-style="normal" 
>
</g>

<g fill="none" stroke="#000000" stroke-opacity="1" stroke-width="1" stroke-linecap="square" stroke-linejoin="bevel" transform="matrix(1,0,0,1,0,0)"
font-family="Helvetica" font-size="16" font-weight="400" font-style="normal" 
>
</g>

<g fill="none" stroke="#000000" stroke-opacity="1" stroke-width="1" stroke-linecap="square" stroke-linejoin="bevel" transform="matrix(1,0,0,1,0,0)"
font-family="Helvetica" font-size="16" font-weight="400" font-style="normal" 
clip-path="url(#clip1129)" >
<defs><clipPath id="clip1129"><path vector-effect="non-scaling-stroke" fill-rule="evenodd" d="M0,0 L1,0 L1,1 L0,1 L0,0z "/>
</clipPath></defs></g>

<g fill="none" stroke="#000000" stroke-opacity="1" stroke-width="1" stroke-linecap="square" stroke-linejoin="bevel" transform="matrix(1,0,0,1,0,0)"
font-family="Helvetica" font-size="16" font-weight="400" font-style="normal" 
>
</g>

<g fill="none" stroke="#000000" stroke-opacity="1" stroke-width="1" stroke-linecap="square" stroke-linejoin="bevel" transform="matrix(1,0,0,1,0,0)"
font-family="Helvetica" font-size="16" font-weight="400" font-style="normal" 
>
</g>
</g>
</svg>
