<?xml version="1.0" encoding="UTF-8" standalone="no"?>
<svg width="46.5667mm" height="52.9167mm"
 viewBox="0 0 176 200"
 xmlns="http://www.w3.org/2000/svg" xmlns:xlink="http://www.w3.org/1999/xlink"  version="1.2" baseProfile="tiny">
<defs>
</defs>
<g fill="none" stroke="black" stroke-width="1" fill-rule="evenodd" stroke-linecap="square" stroke-linejoin="bevel" >

<g fill="#ffffff" fill-opacity="0" stroke="none" transform="matrix(1,0,0,1,0,0)"
font-family="Helvetica" font-size="16" font-weight="400" font-style="normal" 
>
<path vector-effect="non-scaling-stroke" fill-rule="evenodd" d="M0,0 L176,0 L176,200 L0,200 L0,0z "/>
</g>

<g fill="none" stroke="#000000" stroke-opacity="1" stroke-width="1" stroke-linecap="square" stroke-linejoin="bevel" transform="matrix(1,0,0,1,0,0)"
font-family="Helvetica" font-size="16" font-weight="400" font-style="normal" 
>
</g>

<g fill="none" stroke="#000000" stroke-opacity="1" stroke-width="1" stroke-linecap="square" stroke-linejoin="bevel" transform="matrix(1,0,0,1,0,0)"
font-family="Helvetica" font-size="16" font-weight="400" font-style="normal" 
clip-path="url(#clip502)" >
<defs><clipPath id="clip502"><path vector-effect="non-scaling-stroke" fill-rule="evenodd" d="M0,0 L176,0 L176,200 L0,200 L0,0z "/>
</clipPath></defs></g>

<g fill="none" stroke="#000000" stroke-opacity="1" stroke-width="1" stroke-linecap="square" stroke-linejoin="bevel" transform="matrix(-4,0,0,-4,28,160)"
font-family="Helvetica" font-size="16" font-weight="400" font-style="normal" 
clip-path="url(#clip503)" >
<defs><clipPath id="clip503"><path vector-effect="non-scaling-stroke" fill-rule="evenodd" d="M7,40 L-37,40 L-37,-10 L7,-10 L7,40z "/>
</clipPath></defs></g>

<g fill="#000000" fill-opacity="0" stroke="#000000" stroke-opacity="1" stroke-width="2" stroke-linecap="round" stroke-linejoin="miter" stroke-miterlimit="2" transform="matrix(-4,0,0,-4,28,160)"
font-family="Helvetica" font-size="16" font-weight="400" font-style="normal" 
clip-path="url(#clip503)" >
<path vector-effect="none" fill-rule="evenodd" d="M5,-5 L0,0 L5,5"/>
</g>

<g fill="none" stroke="#000000" stroke-opacity="1" stroke-width="1" stroke-linecap="square" stroke-linejoin="bevel" transform="matrix(-4,0,0,-4,28,160)"
font-family="Helvetica" font-size="16" font-weight="400" font-style="normal" 
clip-path="url(#clip503)" >
</g>

<g fill="none" stroke="#000000" stroke-opacity="1" stroke-width="1" stroke-linecap="square" stroke-linejoin="bevel" transform="matrix(-4,0,0,-4,28,100)"
font-family="Helvetica" font-size="16" font-weight="400" font-style="normal" 
clip-path="url(#clip504)" >
<defs><clipPath id="clip504"><path vector-effect="non-scaling-stroke" fill-rule="evenodd" d="M7,25 L-37,25 L-37,-25 L7,-25 L7,25z "/>
</clipPath></defs></g>

<g fill="#000000" fill-opacity="0" stroke="#000000" stroke-opacity="1" stroke-width="2" stroke-linecap="round" stroke-linejoin="miter" stroke-miterlimit="2" transform="matrix(-4,0,0,-4,28,100)"
font-family="Helvetica" font-size="16" font-weight="400" font-style="normal" 
clip-path="url(#clip504)" >
<path vector-effect="none" fill-rule="evenodd" d="M5,-5 L0,0 L5,5"/>
</g>

<g fill="none" stroke="#000000" stroke-opacity="1" stroke-width="1" stroke-linecap="square" stroke-linejoin="bevel" transform="matrix(-4,0,0,-4,28,100)"
font-family="Helvetica" font-size="16" font-weight="400" font-style="normal" 
clip-path="url(#clip504)" >
</g>

<g fill="none" stroke="#000000" stroke-opacity="1" stroke-width="1" stroke-linecap="square" stroke-linejoin="bevel" transform="matrix(-4,0,0,-4,28,40)"
font-family="Helvetica" font-size="16" font-weight="400" font-style="normal" 
clip-path="url(#clip505)" >
<defs><clipPath id="clip505"><path vector-effect="non-scaling-stroke" fill-rule="evenodd" d="M7,10 L-37,10 L-37,-40 L7,-40 L7,10z "/>
</clipPath></defs></g>

<g fill="#000000" fill-opacity="0" stroke="#000000" stroke-opacity="1" stroke-width="2" stroke-linecap="round" stroke-linejoin="miter" stroke-miterlimit="2" transform="matrix(-4,0,0,-4,28,40)"
font-family="Helvetica" font-size="16" font-weight="400" font-style="normal" 
clip-path="url(#clip505)" >
<path vector-effect="none" fill-rule="evenodd" d="M5,-5 L0,0 L5,5"/>
</g>

<g fill="none" stroke="#000000" stroke-opacity="1" stroke-width="1" stroke-linecap="square" stroke-linejoin="bevel" transform="matrix(-4,0,0,-4,28,40)"
font-family="Helvetica" font-size="16" font-weight="400" font-style="normal" 
clip-path="url(#clip505)" >
</g>

<g fill="none" stroke="#000000" stroke-opacity="1" stroke-width="1" stroke-linecap="square" stroke-linejoin="bevel" transform="matrix(4,0,0,4,28,8)"
font-family="Helvetica" font-size="16" font-weight="400" font-style="normal" 
clip-path="url(#clip506)" >
<defs><clipPath id="clip506"><path vector-effect="non-scaling-stroke" fill-rule="evenodd" d="M-7,-2 L37,-2 L37,48 L-7,48 L-7,-2z "/>
</clipPath></defs></g>

<g fill="#ffffff" fill-opacity="1" stroke="none" transform="matrix(4,0,0,4,28,8)"
font-family="Helvetica" font-size="16" font-weight="400" font-style="normal" 
clip-path="url(#clip506)" >
<path vector-effect="none" fill-rule="evenodd" d="M0,0 L35,0 L35,46 L0,46 L0,0z "/>
</g>

<g fill="none" stroke="#000000" stroke-opacity="1" stroke-width="1" stroke-linecap="square" stroke-linejoin="bevel" transform="matrix(4,0,0,4,28,8)"
font-family="Helvetica" font-size="16" font-weight="400" font-style="normal" 
clip-path="url(#clip506)" >
</g>

<g fill="none" stroke="#000000" stroke-opacity="1" stroke-width="1" stroke-linecap="square" stroke-linejoin="bevel" transform="matrix(4,0,0,4,28,8)"
font-family="Helvetica" font-size="16" font-weight="400" font-style="normal" 
clip-path="url(#clip506)" >
</g>

<g fill="none" stroke="#000000" stroke-opacity="1" stroke-width="1" stroke-linecap="square" stroke-linejoin="bevel" transform="matrix(4,0,0,4,28,8)"
font-family="Helvetica" font-size="16" font-weight="400" font-style="normal" 
clip-path="url(#clip507)" >
<defs><clipPath id="clip507"><path vector-effect="non-scaling-stroke" fill-rule="evenodd" d="M0,0 L35,0 L35,46 L0,46 L0,0z "/>
</clipPath></defs></g>

<g fill="#78e6b4" fill-opacity="1" stroke="#78e6b4" stroke-opacity="1" stroke-width="1" stroke-linecap="square" stroke-linejoin="bevel" transform="matrix(4,0,0,4,-2652,-300)"
font-family="Helvetica" font-size="16" font-weight="400" font-style="normal" 
clip-path="url(#clip508)" >
<defs><clipPath id="clip508"><path vector-effect="none" fill-rule="evenodd" d="M670,77 L705,77 L705,123 L670,123 L670,77z "/>
</clipPath></defs><path vector-effect="none" fill-rule="evenodd" d="M670,122 L704,122 L704,77 L670,77 L670,122z "/>
</g>

<g fill="#509978" fill-opacity="1" stroke="#509978" stroke-opacity="1" stroke-width="1" stroke-linecap="square" stroke-linejoin="bevel" transform="matrix(4,0,0,4,-2652,-300)"
font-family="Helvetica" font-size="16" font-weight="400" font-style="normal" 
clip-path="url(#clip508)" >
<path vector-effect="none" fill-rule="evenodd" d="M670,122 L704,122 L704,77 L702,80 L702,119 L672,119 L670,122z "/>
</g>

<g fill="#a5eecd" fill-opacity="1" stroke="#a5eecd" stroke-opacity="1" stroke-width="1" stroke-linecap="square" stroke-linejoin="bevel" transform="matrix(4,0,0,4,-2652,-300)"
font-family="Helvetica" font-size="16" font-weight="400" font-style="normal" 
clip-path="url(#clip508)" >
<path vector-effect="none" fill-rule="evenodd" d="M670,122 L670,77 L704,77 L702,80 L672,80 L672,119 L670,122z "/>
</g>

<g fill="#a5eecd" fill-opacity="1" stroke="#000000" stroke-opacity="1" stroke-width="1" stroke-linecap="square" stroke-linejoin="bevel" transform="matrix(4,0,0,4,-2650,-298)"
font-family="Helvetica" font-size="16" font-weight="400" font-style="normal" 
clip-path="url(#clip508)" >
<polyline fill="none" vector-effect="none" points="670,122 704,122 " />
</g>

<g fill="#a5eecd" fill-opacity="1" stroke="#000000" stroke-opacity="1" stroke-width="1" stroke-linecap="square" stroke-linejoin="bevel" transform="matrix(4,0,0,4,-2650,-298)"
font-family="Helvetica" font-size="16" font-weight="400" font-style="normal" 
clip-path="url(#clip508)" >
<polyline fill="none" vector-effect="none" points="704,122 704,77 " />
</g>

<g fill="#a5eecd" fill-opacity="1" stroke="#000000" stroke-opacity="1" stroke-width="1" stroke-linecap="square" stroke-linejoin="bevel" transform="matrix(4,0,0,4,-2650,-298)"
font-family="Helvetica" font-size="16" font-weight="400" font-style="normal" 
clip-path="url(#clip508)" >
<polyline fill="none" vector-effect="none" points="704,77 670,77 " />
</g>

<g fill="#a5eecd" fill-opacity="1" stroke="#000000" stroke-opacity="1" stroke-width="1" stroke-linecap="square" stroke-linejoin="bevel" transform="matrix(4,0,0,4,-2650,-298)"
font-family="Helvetica" font-size="16" font-weight="400" font-style="normal" 
clip-path="url(#clip508)" >
<polyline fill="none" vector-effect="none" points="670,77 670,122 " />
</g>

<g fill="#a5eecd" fill-opacity="1" stroke="#000000" stroke-opacity="1" stroke-width="1" stroke-linecap="square" stroke-linejoin="bevel" transform="matrix(4,0,0,4,-2650,-298)"
font-family="Helvetica" font-size="16" font-weight="400" font-style="normal" 
clip-path="url(#clip508)" >
<polyline fill="none" vector-effect="none" points="672,102 702,102 " />
</g>

<g fill="#a5eecd" fill-opacity="1" stroke="#000000" stroke-opacity="1" stroke-width="1" stroke-linecap="square" stroke-linejoin="bevel" transform="matrix(4,0,0,4,-2650,-298)"
font-family="Helvetica" font-size="16" font-weight="400" font-style="normal" 
clip-path="url(#clip508)" >
<polyline fill="none" vector-effect="none" points="702,102 702,79 " />
</g>

<g fill="#a5eecd" fill-opacity="1" stroke="#000000" stroke-opacity="1" stroke-width="1" stroke-linecap="square" stroke-linejoin="bevel" transform="matrix(4,0,0,4,-2650,-298)"
font-family="Helvetica" font-size="16" font-weight="400" font-style="normal" 
clip-path="url(#clip508)" >
<polyline fill="none" vector-effect="none" points="702,79 672,79 " />
</g>

<g fill="#a5eecd" fill-opacity="1" stroke="#000000" stroke-opacity="1" stroke-width="1" stroke-linecap="square" stroke-linejoin="bevel" transform="matrix(4,0,0,4,-2650,-298)"
font-family="Helvetica" font-size="16" font-weight="400" font-style="normal" 
clip-path="url(#clip508)" >
<polyline fill="none" vector-effect="none" points="672,79 672,102 " />
</g>

<g fill="#a5eecd" fill-opacity="1" stroke="#000000" stroke-opacity="1" stroke-width="1" stroke-linecap="square" stroke-linejoin="bevel" transform="matrix(4,0,0,4,-2650,-298)"
font-family="Helvetica" font-size="16" font-weight="400" font-style="normal" 
clip-path="url(#clip508)" >
<polyline fill="none" vector-effect="none" points="697,91 697,90 " />
</g>

<g fill="#a5eecd" fill-opacity="1" stroke="#000000" stroke-opacity="1" stroke-width="1" stroke-linecap="square" stroke-linejoin="bevel" transform="matrix(4,0,0,4,-2650,-298)"
font-family="Helvetica" font-size="16" font-weight="400" font-style="normal" 
clip-path="url(#clip508)" >
<polyline fill="none" vector-effect="none" points="697,90 697,89 " />
</g>

<g fill="#a5eecd" fill-opacity="1" stroke="#000000" stroke-opacity="1" stroke-width="1" stroke-linecap="square" stroke-linejoin="bevel" transform="matrix(4,0,0,4,-2650,-298)"
font-family="Helvetica" font-size="16" font-weight="400" font-style="normal" 
clip-path="url(#clip508)" >
<polyline fill="none" vector-effect="none" points="697,89 697,88 " />
</g>

<g fill="#a5eecd" fill-opacity="1" stroke="#000000" stroke-opacity="1" stroke-width="1" stroke-linecap="square" stroke-linejoin="bevel" transform="matrix(4,0,0,4,-2650,-298)"
font-family="Helvetica" font-size="16" font-weight="400" font-style="normal" 
clip-path="url(#clip508)" >
<polyline fill="none" vector-effect="none" points="697,88 696,87 " />
</g>

<g fill="#a5eecd" fill-opacity="1" stroke="#000000" stroke-opacity="1" stroke-width="1" stroke-linecap="square" stroke-linejoin="bevel" transform="matrix(4,0,0,4,-2650,-298)"
font-family="Helvetica" font-size="16" font-weight="400" font-style="normal" 
clip-path="url(#clip508)" >
<polyline fill="none" vector-effect="none" points="696,87 696,86 " />
</g>

<g fill="#a5eecd" fill-opacity="1" stroke="#000000" stroke-opacity="1" stroke-width="1" stroke-linecap="square" stroke-linejoin="bevel" transform="matrix(4,0,0,4,-2650,-298)"
font-family="Helvetica" font-size="16" font-weight="400" font-style="normal" 
clip-path="url(#clip508)" >
<polyline fill="none" vector-effect="none" points="696,86 695,85 " />
</g>

<g fill="#a5eecd" fill-opacity="1" stroke="#000000" stroke-opacity="1" stroke-width="1" stroke-linecap="square" stroke-linejoin="bevel" transform="matrix(4,0,0,4,-2650,-298)"
font-family="Helvetica" font-size="16" font-weight="400" font-style="normal" 
clip-path="url(#clip508)" >
<polyline fill="none" vector-effect="none" points="695,85 694,84 " />
</g>

<g fill="#a5eecd" fill-opacity="1" stroke="#000000" stroke-opacity="1" stroke-width="1" stroke-linecap="square" stroke-linejoin="bevel" transform="matrix(4,0,0,4,-2650,-298)"
font-family="Helvetica" font-size="16" font-weight="400" font-style="normal" 
clip-path="url(#clip508)" >
<polyline fill="none" vector-effect="none" points="694,84 693,83 " />
</g>

<g fill="#a5eecd" fill-opacity="1" stroke="#000000" stroke-opacity="1" stroke-width="1" stroke-linecap="square" stroke-linejoin="bevel" transform="matrix(4,0,0,4,-2650,-298)"
font-family="Helvetica" font-size="16" font-weight="400" font-style="normal" 
clip-path="url(#clip508)" >
<polyline fill="none" vector-effect="none" points="693,83 692,82 " />
</g>

<g fill="#a5eecd" fill-opacity="1" stroke="#000000" stroke-opacity="1" stroke-width="1" stroke-linecap="square" stroke-linejoin="bevel" transform="matrix(4,0,0,4,-2650,-298)"
font-family="Helvetica" font-size="16" font-weight="400" font-style="normal" 
clip-path="url(#clip508)" >
<polyline fill="none" vector-effect="none" points="692,82 691,82 " />
</g>

<g fill="#a5eecd" fill-opacity="1" stroke="#000000" stroke-opacity="1" stroke-width="1" stroke-linecap="square" stroke-linejoin="bevel" transform="matrix(4,0,0,4,-2650,-298)"
font-family="Helvetica" font-size="16" font-weight="400" font-style="normal" 
clip-path="url(#clip508)" >
<polyline fill="none" vector-effect="none" points="691,82 690,82 " />
</g>

<g fill="#a5eecd" fill-opacity="1" stroke="#000000" stroke-opacity="1" stroke-width="1" stroke-linecap="square" stroke-linejoin="bevel" transform="matrix(4,0,0,4,-2650,-298)"
font-family="Helvetica" font-size="16" font-weight="400" font-style="normal" 
clip-path="url(#clip508)" >
<polyline fill="none" vector-effect="none" points="690,82 689,82 " />
</g>

<g fill="#a5eecd" fill-opacity="1" stroke="#000000" stroke-opacity="1" stroke-width="1" stroke-linecap="square" stroke-linejoin="bevel" transform="matrix(4,0,0,4,-2650,-298)"
font-family="Helvetica" font-size="16" font-weight="400" font-style="normal" 
clip-path="url(#clip508)" >
<polyline fill="none" vector-effect="none" points="689,82 688,82 " />
</g>

<g fill="#a5eecd" fill-opacity="1" stroke="#000000" stroke-opacity="1" stroke-width="1" stroke-linecap="square" stroke-linejoin="bevel" transform="matrix(4,0,0,4,-2650,-298)"
font-family="Helvetica" font-size="16" font-weight="400" font-style="normal" 
clip-path="url(#clip508)" >
<polyline fill="none" vector-effect="none" points="688,82 687,82 " />
</g>

<g fill="#a5eecd" fill-opacity="1" stroke="#000000" stroke-opacity="1" stroke-width="1" stroke-linecap="square" stroke-linejoin="bevel" transform="matrix(4,0,0,4,-2650,-298)"
font-family="Helvetica" font-size="16" font-weight="400" font-style="normal" 
clip-path="url(#clip508)" >
<polyline fill="none" vector-effect="none" points="687,82 686,82 " />
</g>

<g fill="#a5eecd" fill-opacity="1" stroke="#000000" stroke-opacity="1" stroke-width="1" stroke-linecap="square" stroke-linejoin="bevel" transform="matrix(4,0,0,4,-2650,-298)"
font-family="Helvetica" font-size="16" font-weight="400" font-style="normal" 
clip-path="url(#clip508)" >
<polyline fill="none" vector-effect="none" points="686,82 685,82 " />
</g>

<g fill="#a5eecd" fill-opacity="1" stroke="#000000" stroke-opacity="1" stroke-width="1" stroke-linecap="square" stroke-linejoin="bevel" transform="matrix(4,0,0,4,-2650,-298)"
font-family="Helvetica" font-size="16" font-weight="400" font-style="normal" 
clip-path="url(#clip508)" >
<polyline fill="none" vector-effect="none" points="685,82 684,82 " />
</g>

<g fill="#a5eecd" fill-opacity="1" stroke="#000000" stroke-opacity="1" stroke-width="1" stroke-linecap="square" stroke-linejoin="bevel" transform="matrix(4,0,0,4,-2650,-298)"
font-family="Helvetica" font-size="16" font-weight="400" font-style="normal" 
clip-path="url(#clip508)" >
<polyline fill="none" vector-effect="none" points="684,82 683,82 " />
</g>

<g fill="#a5eecd" fill-opacity="1" stroke="#000000" stroke-opacity="1" stroke-width="1" stroke-linecap="square" stroke-linejoin="bevel" transform="matrix(4,0,0,4,-2650,-298)"
font-family="Helvetica" font-size="16" font-weight="400" font-style="normal" 
clip-path="url(#clip508)" >
<polyline fill="none" vector-effect="none" points="683,82 682,83 " />
</g>

<g fill="#a5eecd" fill-opacity="1" stroke="#000000" stroke-opacity="1" stroke-width="1" stroke-linecap="square" stroke-linejoin="bevel" transform="matrix(4,0,0,4,-2650,-298)"
font-family="Helvetica" font-size="16" font-weight="400" font-style="normal" 
clip-path="url(#clip508)" >
<polyline fill="none" vector-effect="none" points="682,83 681,83 " />
</g>

<g fill="#a5eecd" fill-opacity="1" stroke="#000000" stroke-opacity="1" stroke-width="1" stroke-linecap="square" stroke-linejoin="bevel" transform="matrix(4,0,0,4,-2650,-298)"
font-family="Helvetica" font-size="16" font-weight="400" font-style="normal" 
clip-path="url(#clip508)" >
<polyline fill="none" vector-effect="none" points="681,83 680,84 " />
</g>

<g fill="#a5eecd" fill-opacity="1" stroke="#000000" stroke-opacity="1" stroke-width="1" stroke-linecap="square" stroke-linejoin="bevel" transform="matrix(4,0,0,4,-2650,-298)"
font-family="Helvetica" font-size="16" font-weight="400" font-style="normal" 
clip-path="url(#clip508)" >
<polyline fill="none" vector-effect="none" points="680,84 679,84 " />
</g>

<g fill="#a5eecd" fill-opacity="1" stroke="#000000" stroke-opacity="1" stroke-width="1" stroke-linecap="square" stroke-linejoin="bevel" transform="matrix(4,0,0,4,-2650,-298)"
font-family="Helvetica" font-size="16" font-weight="400" font-style="normal" 
clip-path="url(#clip508)" >
<polyline fill="none" vector-effect="none" points="679,84 679,85 " />
</g>

<g fill="#a5eecd" fill-opacity="1" stroke="#000000" stroke-opacity="1" stroke-width="1" stroke-linecap="square" stroke-linejoin="bevel" transform="matrix(4,0,0,4,-2650,-298)"
font-family="Helvetica" font-size="16" font-weight="400" font-style="normal" 
clip-path="url(#clip508)" >
<polyline fill="none" vector-effect="none" points="679,85 678,86 " />
</g>

<g fill="#a5eecd" fill-opacity="1" stroke="#000000" stroke-opacity="1" stroke-width="1" stroke-linecap="square" stroke-linejoin="bevel" transform="matrix(4,0,0,4,-2650,-298)"
font-family="Helvetica" font-size="16" font-weight="400" font-style="normal" 
clip-path="url(#clip508)" >
<polyline fill="none" vector-effect="none" points="678,86 678,87 " />
</g>

<g fill="#a5eecd" fill-opacity="1" stroke="#000000" stroke-opacity="1" stroke-width="1" stroke-linecap="square" stroke-linejoin="bevel" transform="matrix(4,0,0,4,-2650,-298)"
font-family="Helvetica" font-size="16" font-weight="400" font-style="normal" 
clip-path="url(#clip508)" >
<polyline fill="none" vector-effect="none" points="678,87 677,87 " />
</g>

<g fill="#a5eecd" fill-opacity="1" stroke="#000000" stroke-opacity="1" stroke-width="1" stroke-linecap="square" stroke-linejoin="bevel" transform="matrix(4,0,0,4,-2650,-298)"
font-family="Helvetica" font-size="16" font-weight="400" font-style="normal" 
clip-path="url(#clip508)" >
<polyline fill="none" vector-effect="none" points="677,87 677,88 " />
</g>

<g fill="#a5eecd" fill-opacity="1" stroke="#000000" stroke-opacity="1" stroke-width="1" stroke-linecap="square" stroke-linejoin="bevel" transform="matrix(4,0,0,4,-2650,-298)"
font-family="Helvetica" font-size="16" font-weight="400" font-style="normal" 
clip-path="url(#clip508)" >
<polyline fill="none" vector-effect="none" points="677,88 677,89 " />
</g>

<g fill="#a5eecd" fill-opacity="1" stroke="#000000" stroke-opacity="1" stroke-width="1" stroke-linecap="square" stroke-linejoin="bevel" transform="matrix(4,0,0,4,-2650,-298)"
font-family="Helvetica" font-size="16" font-weight="400" font-style="normal" 
clip-path="url(#clip508)" >
<polyline fill="none" vector-effect="none" points="677,89 677,90 " />
</g>

<g fill="#a5eecd" fill-opacity="1" stroke="#000000" stroke-opacity="1" stroke-width="1" stroke-linecap="square" stroke-linejoin="bevel" transform="matrix(4,0,0,4,-2650,-298)"
font-family="Helvetica" font-size="16" font-weight="400" font-style="normal" 
clip-path="url(#clip508)" >
<polyline fill="none" vector-effect="none" points="677,90 677,91 " />
</g>

<g fill="#a5eecd" fill-opacity="1" stroke="#000000" stroke-opacity="1" stroke-width="1" stroke-linecap="square" stroke-linejoin="bevel" transform="matrix(4,0,0,4,-2650,-298)"
font-family="Helvetica" font-size="16" font-weight="400" font-style="normal" 
clip-path="url(#clip508)" >
<polyline fill="none" vector-effect="none" points="677,91 677,92 " />
</g>

<g fill="#a5eecd" fill-opacity="1" stroke="#000000" stroke-opacity="1" stroke-width="1" stroke-linecap="square" stroke-linejoin="bevel" transform="matrix(4,0,0,4,-2650,-298)"
font-family="Helvetica" font-size="16" font-weight="400" font-style="normal" 
clip-path="url(#clip508)" >
<polyline fill="none" vector-effect="none" points="677,92 677,93 " />
</g>

<g fill="#a5eecd" fill-opacity="1" stroke="#000000" stroke-opacity="1" stroke-width="1" stroke-linecap="square" stroke-linejoin="bevel" transform="matrix(4,0,0,4,-2650,-298)"
font-family="Helvetica" font-size="16" font-weight="400" font-style="normal" 
clip-path="url(#clip508)" >
<polyline fill="none" vector-effect="none" points="677,93 677,94 " />
</g>

<g fill="#a5eecd" fill-opacity="1" stroke="#000000" stroke-opacity="1" stroke-width="1" stroke-linecap="square" stroke-linejoin="bevel" transform="matrix(4,0,0,4,-2650,-298)"
font-family="Helvetica" font-size="16" font-weight="400" font-style="normal" 
clip-path="url(#clip508)" >
<polyline fill="none" vector-effect="none" points="677,94 678,94 " />
</g>

<g fill="#a5eecd" fill-opacity="1" stroke="#000000" stroke-opacity="1" stroke-width="1" stroke-linecap="square" stroke-linejoin="bevel" transform="matrix(4,0,0,4,-2650,-298)"
font-family="Helvetica" font-size="16" font-weight="400" font-style="normal" 
clip-path="url(#clip508)" >
<polyline fill="none" vector-effect="none" points="678,94 678,95 " />
</g>

<g fill="#a5eecd" fill-opacity="1" stroke="#000000" stroke-opacity="1" stroke-width="1" stroke-linecap="square" stroke-linejoin="bevel" transform="matrix(4,0,0,4,-2650,-298)"
font-family="Helvetica" font-size="16" font-weight="400" font-style="normal" 
clip-path="url(#clip508)" >
<polyline fill="none" vector-effect="none" points="678,95 679,96 " />
</g>

<g fill="#a5eecd" fill-opacity="1" stroke="#000000" stroke-opacity="1" stroke-width="1" stroke-linecap="square" stroke-linejoin="bevel" transform="matrix(4,0,0,4,-2650,-298)"
font-family="Helvetica" font-size="16" font-weight="400" font-style="normal" 
clip-path="url(#clip508)" >
<polyline fill="none" vector-effect="none" points="679,96 680,97 " />
</g>

<g fill="#a5eecd" fill-opacity="1" stroke="#000000" stroke-opacity="1" stroke-width="1" stroke-linecap="square" stroke-linejoin="bevel" transform="matrix(4,0,0,4,-2650,-298)"
font-family="Helvetica" font-size="16" font-weight="400" font-style="normal" 
clip-path="url(#clip508)" >
<polyline fill="none" vector-effect="none" points="680,97 681,98 " />
</g>

<g fill="#a5eecd" fill-opacity="1" stroke="#000000" stroke-opacity="1" stroke-width="1" stroke-linecap="square" stroke-linejoin="bevel" transform="matrix(4,0,0,4,-2650,-298)"
font-family="Helvetica" font-size="16" font-weight="400" font-style="normal" 
clip-path="url(#clip508)" >
<polyline fill="none" vector-effect="none" points="681,98 682,98 " />
</g>

<g fill="#a5eecd" fill-opacity="1" stroke="#000000" stroke-opacity="1" stroke-width="1" stroke-linecap="square" stroke-linejoin="bevel" transform="matrix(4,0,0,4,-2650,-298)"
font-family="Helvetica" font-size="16" font-weight="400" font-style="normal" 
clip-path="url(#clip508)" >
<polyline fill="none" vector-effect="none" points="682,98 683,99 " />
</g>

<g fill="#a5eecd" fill-opacity="1" stroke="#000000" stroke-opacity="1" stroke-width="1" stroke-linecap="square" stroke-linejoin="bevel" transform="matrix(4,0,0,4,-2650,-298)"
font-family="Helvetica" font-size="16" font-weight="400" font-style="normal" 
clip-path="url(#clip508)" >
<polyline fill="none" vector-effect="none" points="683,99 684,99 " />
</g>

<g fill="#a5eecd" fill-opacity="1" stroke="#000000" stroke-opacity="1" stroke-width="1" stroke-linecap="square" stroke-linejoin="bevel" transform="matrix(4,0,0,4,-2650,-298)"
font-family="Helvetica" font-size="16" font-weight="400" font-style="normal" 
clip-path="url(#clip508)" >
<polyline fill="none" vector-effect="none" points="684,99 685,99 " />
</g>

<g fill="#a5eecd" fill-opacity="1" stroke="#000000" stroke-opacity="1" stroke-width="1" stroke-linecap="square" stroke-linejoin="bevel" transform="matrix(4,0,0,4,-2650,-298)"
font-family="Helvetica" font-size="16" font-weight="400" font-style="normal" 
clip-path="url(#clip508)" >
<polyline fill="none" vector-effect="none" points="685,99 686,99 " />
</g>

<g fill="#a5eecd" fill-opacity="1" stroke="#000000" stroke-opacity="1" stroke-width="1" stroke-linecap="square" stroke-linejoin="bevel" transform="matrix(4,0,0,4,-2650,-298)"
font-family="Helvetica" font-size="16" font-weight="400" font-style="normal" 
clip-path="url(#clip508)" >
<polyline fill="none" vector-effect="none" points="686,99 687,99 " />
</g>

<g fill="#a5eecd" fill-opacity="1" stroke="#000000" stroke-opacity="1" stroke-width="1" stroke-linecap="square" stroke-linejoin="bevel" transform="matrix(4,0,0,4,-2650,-298)"
font-family="Helvetica" font-size="16" font-weight="400" font-style="normal" 
clip-path="url(#clip508)" >
<polyline fill="none" vector-effect="none" points="687,99 688,99 " />
</g>

<g fill="#a5eecd" fill-opacity="1" stroke="#000000" stroke-opacity="1" stroke-width="1" stroke-linecap="square" stroke-linejoin="bevel" transform="matrix(4,0,0,4,-2650,-298)"
font-family="Helvetica" font-size="16" font-weight="400" font-style="normal" 
clip-path="url(#clip508)" >
<polyline fill="none" vector-effect="none" points="688,99 689,99 " />
</g>

<g fill="#a5eecd" fill-opacity="1" stroke="#000000" stroke-opacity="1" stroke-width="1" stroke-linecap="square" stroke-linejoin="bevel" transform="matrix(4,0,0,4,-2650,-298)"
font-family="Helvetica" font-size="16" font-weight="400" font-style="normal" 
clip-path="url(#clip508)" >
<polyline fill="none" vector-effect="none" points="689,99 690,99 " />
</g>

<g fill="#a5eecd" fill-opacity="1" stroke="#000000" stroke-opacity="1" stroke-width="1" stroke-linecap="square" stroke-linejoin="bevel" transform="matrix(4,0,0,4,-2650,-298)"
font-family="Helvetica" font-size="16" font-weight="400" font-style="normal" 
clip-path="url(#clip508)" >
<polyline fill="none" vector-effect="none" points="690,99 691,99 " />
</g>

<g fill="#a5eecd" fill-opacity="1" stroke="#000000" stroke-opacity="1" stroke-width="1" stroke-linecap="square" stroke-linejoin="bevel" transform="matrix(4,0,0,4,-2650,-298)"
font-family="Helvetica" font-size="16" font-weight="400" font-style="normal" 
clip-path="url(#clip508)" >
<polyline fill="none" vector-effect="none" points="691,99 692,98 " />
</g>

<g fill="#a5eecd" fill-opacity="1" stroke="#000000" stroke-opacity="1" stroke-width="1" stroke-linecap="square" stroke-linejoin="bevel" transform="matrix(4,0,0,4,-2650,-298)"
font-family="Helvetica" font-size="16" font-weight="400" font-style="normal" 
clip-path="url(#clip508)" >
<polyline fill="none" vector-effect="none" points="692,98 693,98 " />
</g>

<g fill="#a5eecd" fill-opacity="1" stroke="#000000" stroke-opacity="1" stroke-width="1" stroke-linecap="square" stroke-linejoin="bevel" transform="matrix(4,0,0,4,-2650,-298)"
font-family="Helvetica" font-size="16" font-weight="400" font-style="normal" 
clip-path="url(#clip508)" >
<polyline fill="none" vector-effect="none" points="693,98 693,97 " />
</g>

<g fill="#a5eecd" fill-opacity="1" stroke="#000000" stroke-opacity="1" stroke-width="1" stroke-linecap="square" stroke-linejoin="bevel" transform="matrix(4,0,0,4,-2650,-298)"
font-family="Helvetica" font-size="16" font-weight="400" font-style="normal" 
clip-path="url(#clip508)" >
<polyline fill="none" vector-effect="none" points="693,97 694,97 " />
</g>

<g fill="#a5eecd" fill-opacity="1" stroke="#000000" stroke-opacity="1" stroke-width="1" stroke-linecap="square" stroke-linejoin="bevel" transform="matrix(4,0,0,4,-2650,-298)"
font-family="Helvetica" font-size="16" font-weight="400" font-style="normal" 
clip-path="url(#clip508)" >
<polyline fill="none" vector-effect="none" points="694,97 695,96 " />
</g>

<g fill="#a5eecd" fill-opacity="1" stroke="#000000" stroke-opacity="1" stroke-width="1" stroke-linecap="square" stroke-linejoin="bevel" transform="matrix(4,0,0,4,-2650,-298)"
font-family="Helvetica" font-size="16" font-weight="400" font-style="normal" 
clip-path="url(#clip508)" >
<polyline fill="none" vector-effect="none" points="695,96 696,95 " />
</g>

<g fill="#a5eecd" fill-opacity="1" stroke="#000000" stroke-opacity="1" stroke-width="1" stroke-linecap="square" stroke-linejoin="bevel" transform="matrix(4,0,0,4,-2650,-298)"
font-family="Helvetica" font-size="16" font-weight="400" font-style="normal" 
clip-path="url(#clip508)" >
<polyline fill="none" vector-effect="none" points="696,95 696,94 " />
</g>

<g fill="#a5eecd" fill-opacity="1" stroke="#000000" stroke-opacity="1" stroke-width="1" stroke-linecap="square" stroke-linejoin="bevel" transform="matrix(4,0,0,4,-2650,-298)"
font-family="Helvetica" font-size="16" font-weight="400" font-style="normal" 
clip-path="url(#clip508)" >
<polyline fill="none" vector-effect="none" points="696,94 697,93 " />
</g>

<g fill="#a5eecd" fill-opacity="1" stroke="#000000" stroke-opacity="1" stroke-width="1" stroke-linecap="square" stroke-linejoin="bevel" transform="matrix(4,0,0,4,-2650,-298)"
font-family="Helvetica" font-size="16" font-weight="400" font-style="normal" 
clip-path="url(#clip508)" >
<polyline fill="none" vector-effect="none" points="697,93 697,92 " />
</g>

<g fill="#a5eecd" fill-opacity="1" stroke="#000000" stroke-opacity="1" stroke-width="1" stroke-linecap="square" stroke-linejoin="bevel" transform="matrix(4,0,0,4,-2650,-298)"
font-family="Helvetica" font-size="16" font-weight="400" font-style="normal" 
clip-path="url(#clip508)" >
<polyline fill="none" vector-effect="none" points="697,92 697,91 " />
</g>

<g fill="#a5eecd" fill-opacity="1" stroke="#000000" stroke-opacity="1" stroke-width="1" stroke-linecap="square" stroke-linejoin="bevel" transform="matrix(4.12903,0,0,4.17391,-2650,-298)"
font-family="Helvetica" font-size="16" font-weight="400" font-style="normal" 
clip-path="url(#clip509)" >
<defs><clipPath id="clip509"><path vector-effect="none" fill-rule="evenodd" d="M-7,-2 L37,-2 L37,48 L-7,48 L-7,-2z "/>
</clipPath></defs></g>

<g fill="#a5eecd" fill-opacity="1" stroke="#000000" stroke-opacity="1" stroke-width="1" stroke-linecap="square" stroke-linejoin="bevel" transform="matrix(1,0,0,1,0,0)"
font-family="Helvetica" font-size="16" font-weight="400" font-style="normal" 
clip-path="url(#clip509)" >
</g>

<g fill="none" stroke="#000000" stroke-opacity="1" stroke-width="1" stroke-linecap="square" stroke-linejoin="bevel" transform="matrix(4,0,0,4,28,8)"
font-family="Helvetica" font-size="16" font-weight="400" font-style="normal" 
clip-path="url(#clip509)" >
</g>

<g fill="none" stroke="#000000" stroke-opacity="1" stroke-width="1" stroke-linecap="square" stroke-linejoin="bevel" transform="matrix(4,0,0,4,28,8)"
font-family="Helvetica" font-size="16" font-weight="400" font-style="normal" 
clip-path="url(#clip509)" >
</g>

<g fill="none" stroke="none" transform="matrix(4,0,0,4,28,8)"
font-family="Helvetica" font-size="16" font-weight="400" font-style="normal" 
clip-path="url(#clip509)" >
<path vector-effect="none" fill-rule="evenodd" d="M0,0 L35,0 L35,46 L0,46 L0,0z "/>
</g>

<g fill="none" stroke="#000000" stroke-opacity="1" stroke-width="1" stroke-linecap="square" stroke-linejoin="bevel" transform="matrix(4,0,0,4,28,8)"
font-family="Helvetica" font-size="16" font-weight="400" font-style="normal" 
clip-path="url(#clip509)" >
</g>

<g fill="none" stroke="#000000" stroke-opacity="1" stroke-width="1" stroke-linecap="square" stroke-linejoin="bevel" transform="matrix(4,0,0,4,28,8)"
font-family="Helvetica" font-size="16" font-weight="400" font-style="normal" 
clip-path="url(#clip509)" >
</g>

<g fill="none" stroke="#000000" stroke-opacity="1" stroke-width="0.25" stroke-linecap="butt" stroke-linejoin="miter" stroke-miterlimit="2" transform="matrix(4,0,0,4,28,8)"
font-family="Helvetica" font-size="16" font-weight="400" font-style="normal" 
clip-path="url(#clip509)" >
</g>

<g fill="none" stroke="#000000" stroke-opacity="1" stroke-width="1" stroke-linecap="square" stroke-linejoin="bevel" transform="matrix(4,0,0,4,28,8)"
font-family="Helvetica" font-size="16" font-weight="400" font-style="normal" 
clip-path="url(#clip509)" >
</g>

<g fill="none" stroke="#000000" stroke-opacity="1" stroke-width="1" stroke-linecap="square" stroke-linejoin="bevel" transform="matrix(4,0,0,4,98,200)"
font-family="Helvetica" font-size="16" font-weight="400" font-style="normal" 
clip-path="url(#clip510)" >
<defs><clipPath id="clip510"><path vector-effect="non-scaling-stroke" fill-rule="evenodd" d="M-24.5,-50 L19.5,-50 L19.5,0 L-24.5,0 L-24.5,-50z "/>
</clipPath></defs></g>

<g fill="none" stroke="#000000" stroke-opacity="1" stroke-width="1" stroke-linecap="square" stroke-linejoin="bevel" transform="matrix(4,0,0,4,98,200)"
font-family="Helvetica" font-size="16" font-weight="400" font-style="normal" 
clip-path="url(#clip510)" >
</g>

<g fill="none" stroke="#000000" stroke-opacity="1" stroke-width="1" stroke-linecap="square" stroke-linejoin="bevel" transform="matrix(1,0,0,1,0,0)"
font-family="Helvetica" font-size="16" font-weight="400" font-style="normal" 
>
</g>

<g fill="none" stroke="#000000" stroke-opacity="1" stroke-width="1" stroke-linecap="square" stroke-linejoin="bevel" transform="matrix(1,0,0,1,0,0)"
font-family="Helvetica" font-size="16" font-weight="400" font-style="normal" 
>
</g>

<g fill="none" stroke="#000000" stroke-opacity="1" stroke-width="1" stroke-linecap="square" stroke-linejoin="bevel" transform="matrix(1,0,0,1,0,0)"
font-family="Helvetica" font-size="16" font-weight="400" font-style="normal" 
clip-path="url(#clip511)" >
<defs><clipPath id="clip511"><path vector-effect="non-scaling-stroke" fill-rule="evenodd" d="M0,0 L176,0 L176,200 L0,200 L0,0z "/>
</clipPath></defs></g>

<g fill="none" stroke="#000000" stroke-opacity="1" stroke-width="1" stroke-linecap="square" stroke-linejoin="bevel" transform="matrix(1,0,0,1,0,0)"
font-family="Helvetica" font-size="16" font-weight="400" font-style="normal" 
>
</g>

<g fill="none" stroke="#000000" stroke-opacity="1" stroke-width="1" stroke-linecap="square" stroke-linejoin="bevel" transform="matrix(1,0,0,1,0,0)"
font-family="Helvetica" font-size="16" font-weight="400" font-style="normal" 
>
</g>

<g fill="none" stroke="#000000" stroke-opacity="1" stroke-width="1" stroke-linecap="square" stroke-linejoin="bevel" transform="matrix(1,0,0,1,0,0)"
font-family="Helvetica" font-size="16" font-weight="400" font-style="normal" 
clip-path="url(#clip512)" >
<defs><clipPath id="clip512"><path vector-effect="non-scaling-stroke" fill-rule="evenodd" d="M0,0 L1,0 L1,1 L0,1 L0,0z "/>
</clipPath></defs></g>

<g fill="none" stroke="#000000" stroke-opacity="1" stroke-width="1" stroke-linecap="square" stroke-linejoin="bevel" transform="matrix(1,0,0,1,0,0)"
font-family="Helvetica" font-size="16" font-weight="400" font-style="normal" 
>
</g>

<g fill="none" stroke="#000000" stroke-opacity="1" stroke-width="1" stroke-linecap="square" stroke-linejoin="bevel" transform="matrix(1,0,0,1,0,0)"
font-family="Helvetica" font-size="16" font-weight="400" font-style="normal" 
>
</g>
</g>
</svg>
