<?xml version="1.0" encoding="UTF-8" standalone="no"?>
<svg width="52.9167mm" height="42.8625mm"
 viewBox="0 0 200 162"
 xmlns="http://www.w3.org/2000/svg" xmlns:xlink="http://www.w3.org/1999/xlink"  version="1.2" baseProfile="tiny">
<defs>
</defs>
<g fill="none" stroke="black" stroke-width="1" fill-rule="evenodd" stroke-linecap="square" stroke-linejoin="bevel" >

<g fill="#ffffff" fill-opacity="0" stroke="none" transform="matrix(1,0,0,1,0,0)"
font-family="Helvetica" font-size="16" font-weight="400" font-style="normal" 
>
<path vector-effect="non-scaling-stroke" fill-rule="evenodd" d="M0,0 L200,0 L200,162 L0,162 L0,0z "/>
</g>

<g fill="none" stroke="#000000" stroke-opacity="1" stroke-width="1" stroke-linecap="square" stroke-linejoin="bevel" transform="matrix(1,0,0,1,0,0)"
font-family="Helvetica" font-size="16" font-weight="400" font-style="normal" 
>
</g>

<g fill="none" stroke="#000000" stroke-opacity="1" stroke-width="1" stroke-linecap="square" stroke-linejoin="bevel" transform="matrix(1,0,0,1,0,0)"
font-family="Helvetica" font-size="16" font-weight="400" font-style="normal" 
clip-path="url(#clip944)" >
<defs><clipPath id="clip944"><path vector-effect="non-scaling-stroke" fill-rule="evenodd" d="M0,0 L200,0 L200,162.963 L0,162.963 L0,0z "/>
</clipPath></defs></g>

<g fill="none" stroke="#000000" stroke-opacity="1" stroke-width="1" stroke-linecap="square" stroke-linejoin="bevel" transform="matrix(-3.7037,0,0,-3.7037,25.9259,81.4815)"
font-family="Helvetica" font-size="16" font-weight="400" font-style="normal" 
clip-path="url(#clip945)" >
<defs><clipPath id="clip945"><path vector-effect="non-scaling-stroke" fill-rule="evenodd" d="M7,22 L-47,22 L-47,-22 L7,-22 L7,22z "/>
</clipPath></defs></g>

<g fill="#000000" fill-opacity="0" stroke="#000000" stroke-opacity="1" stroke-width="2" stroke-linecap="round" stroke-linejoin="miter" stroke-miterlimit="2" transform="matrix(-3.7037,0,0,-3.7037,25.9259,81.4815)"
font-family="Helvetica" font-size="16" font-weight="400" font-style="normal" 
clip-path="url(#clip945)" >
<path vector-effect="none" fill-rule="evenodd" d="M5,-5 L0,0 L5,5"/>
</g>

<g fill="none" stroke="#000000" stroke-opacity="1" stroke-width="1" stroke-linecap="square" stroke-linejoin="bevel" transform="matrix(-3.7037,0,0,-3.7037,25.9259,81.4815)"
font-family="Helvetica" font-size="16" font-weight="400" font-style="normal" 
clip-path="url(#clip945)" >
</g>

<g fill="none" stroke="#000000" stroke-opacity="1" stroke-width="1" stroke-linecap="square" stroke-linejoin="bevel" transform="matrix(3.7037,0,0,3.7037,174.074,81.4815)"
font-family="Helvetica" font-size="16" font-weight="400" font-style="normal" 
clip-path="url(#clip946)" >
<defs><clipPath id="clip946"><path vector-effect="non-scaling-stroke" fill-rule="evenodd" d="M-47,-22 L7,-22 L7,22 L-47,22 L-47,-22z "/>
</clipPath></defs></g>

<g fill="#000000" fill-opacity="0" stroke="#000000" stroke-opacity="1" stroke-width="2" stroke-linecap="round" stroke-linejoin="miter" stroke-miterlimit="2" transform="matrix(3.7037,0,0,3.7037,174.074,81.4815)"
font-family="Helvetica" font-size="16" font-weight="400" font-style="normal" 
clip-path="url(#clip946)" >
<path vector-effect="none" fill-rule="evenodd" d="M0,-5 L5,0 L0,5"/>
</g>

<g fill="none" stroke="#000000" stroke-opacity="1" stroke-width="1" stroke-linecap="square" stroke-linejoin="bevel" transform="matrix(3.7037,0,0,3.7037,174.074,81.4815)"
font-family="Helvetica" font-size="16" font-weight="400" font-style="normal" 
clip-path="url(#clip946)" >
</g>

<g fill="none" stroke="#000000" stroke-opacity="1" stroke-width="1" stroke-linecap="square" stroke-linejoin="bevel" transform="matrix(3.7037,0,0,3.7037,25.9259,7.40741)"
font-family="Helvetica" font-size="16" font-weight="400" font-style="normal" 
clip-path="url(#clip947)" >
<defs><clipPath id="clip947"><path vector-effect="non-scaling-stroke" fill-rule="evenodd" d="M-7,-2 L47,-2 L47,42 L-7,42 L-7,-2z "/>
</clipPath></defs></g>

<g fill="#ffffff" fill-opacity="1" stroke="none" transform="matrix(3.7037,0,0,3.7037,25.9259,7.40741)"
font-family="Helvetica" font-size="16" font-weight="400" font-style="normal" 
clip-path="url(#clip947)" >
<path vector-effect="none" fill-rule="evenodd" d="M0,0 L40,0 L40,40 L0,40 L0,0z "/>
</g>

<g fill="none" stroke="#000000" stroke-opacity="1" stroke-width="1" stroke-linecap="square" stroke-linejoin="bevel" transform="matrix(3.7037,0,0,3.7037,25.9259,7.40741)"
font-family="Helvetica" font-size="16" font-weight="400" font-style="normal" 
clip-path="url(#clip947)" >
</g>

<g fill="none" stroke="#000000" stroke-opacity="1" stroke-width="1" stroke-linecap="square" stroke-linejoin="bevel" transform="matrix(3.7037,0,0,3.7037,25.9259,7.40741)"
font-family="Helvetica" font-size="16" font-weight="400" font-style="normal" 
clip-path="url(#clip947)" >
</g>

<g fill="none" stroke="#000000" stroke-opacity="1" stroke-width="1" stroke-linecap="square" stroke-linejoin="bevel" transform="matrix(3.7037,0,0,3.7037,25.9259,7.40741)"
font-family="Helvetica" font-size="16" font-weight="400" font-style="normal" 
clip-path="url(#clip948)" >
<defs><clipPath id="clip948"><path vector-effect="non-scaling-stroke" fill-rule="evenodd" d="M0,0 L40,0 L40,40 L0,40 L0,0z "/>
</clipPath></defs></g>

<g fill="#7896e6" fill-opacity="1" stroke="#7896e6" stroke-opacity="1" stroke-width="1" stroke-linecap="square" stroke-linejoin="bevel" transform="matrix(3.7037,0,0,3.7037,-48.1481,-325.926)"
font-family="Helvetica" font-size="16" font-weight="400" font-style="normal" 
clip-path="url(#clip949)" >
<defs><clipPath id="clip949"><path vector-effect="none" fill-rule="evenodd" d="M20,90 L60,90 L60,130 L20,130 L20,90z "/>
</clipPath></defs><path vector-effect="none" fill-rule="evenodd" d="M20,129 L59,129 L59,90 L20,90 L20,129z "/>
</g>

<g fill="#506499" fill-opacity="1" stroke="#506499" stroke-opacity="1" stroke-width="1" stroke-linecap="square" stroke-linejoin="bevel" transform="matrix(3.7037,0,0,3.7037,-48.1481,-325.926)"
font-family="Helvetica" font-size="16" font-weight="400" font-style="normal" 
clip-path="url(#clip949)" >
<path vector-effect="none" fill-rule="evenodd" d="M20,129 L59,129 L59,90 L57,92 L57,127 L22,127 L20,129z "/>
</g>

<g fill="#a5b9ee" fill-opacity="1" stroke="#a5b9ee" stroke-opacity="1" stroke-width="1" stroke-linecap="square" stroke-linejoin="bevel" transform="matrix(3.7037,0,0,3.7037,-48.1481,-325.926)"
font-family="Helvetica" font-size="16" font-weight="400" font-style="normal" 
clip-path="url(#clip949)" >
<path vector-effect="none" fill-rule="evenodd" d="M20,129 L20,90 L59,90 L57,92 L22,92 L22,127 L20,129z "/>
</g>

<g fill="#a5b9ee" fill-opacity="1" stroke="#ffffff" stroke-opacity="1" stroke-width="1" stroke-linecap="square" stroke-linejoin="bevel" transform="matrix(3.7037,0,0,3.7037,-46.2963,-324.074)"
font-family="Helvetica" font-size="16" font-weight="400" font-style="normal" 
clip-path="url(#clip949)" >
<polyline fill="none" vector-effect="none" points="26,110 53,110 " />
</g>

<g fill="#a5b9ee" fill-opacity="1" stroke="#ffffff" stroke-opacity="1" stroke-width="1" stroke-linecap="square" stroke-linejoin="bevel" transform="matrix(3.7037,0,0,3.7037,-46.2963,-324.074)"
font-family="Helvetica" font-size="16" font-weight="400" font-style="normal" 
clip-path="url(#clip949)" >
<polyline fill="none" vector-effect="none" points="40,123 40,96 " />
</g>

<g fill="#a5b9ee" fill-opacity="1" stroke="#000000" stroke-opacity="1" stroke-width="1" stroke-linecap="square" stroke-linejoin="bevel" transform="matrix(3.7037,0,0,3.7037,-46.2963,-324.074)"
font-family="Helvetica" font-size="16" font-weight="400" font-style="normal" 
clip-path="url(#clip949)" >
<polyline fill="none" vector-effect="none" points="26,123 53,96 " />
</g>

<g fill="#a5b9ee" fill-opacity="1" stroke="#000000" stroke-opacity="1" stroke-width="1" stroke-linecap="square" stroke-linejoin="bevel" transform="matrix(3.7037,0,0,3.7037,-46.2963,-324.074)"
font-family="Helvetica" font-size="16" font-weight="400" font-style="normal" 
clip-path="url(#clip949)" >
<polyline fill="none" vector-effect="none" points="20,129 59,129 " />
</g>

<g fill="#a5b9ee" fill-opacity="1" stroke="#000000" stroke-opacity="1" stroke-width="1" stroke-linecap="square" stroke-linejoin="bevel" transform="matrix(3.7037,0,0,3.7037,-46.2963,-324.074)"
font-family="Helvetica" font-size="16" font-weight="400" font-style="normal" 
clip-path="url(#clip949)" >
<polyline fill="none" vector-effect="none" points="59,129 59,90 " />
</g>

<g fill="#a5b9ee" fill-opacity="1" stroke="#000000" stroke-opacity="1" stroke-width="1" stroke-linecap="square" stroke-linejoin="bevel" transform="matrix(3.7037,0,0,3.7037,-46.2963,-324.074)"
font-family="Helvetica" font-size="16" font-weight="400" font-style="normal" 
clip-path="url(#clip949)" >
<polyline fill="none" vector-effect="none" points="59,90 20,90 " />
</g>

<g fill="#a5b9ee" fill-opacity="1" stroke="#000000" stroke-opacity="1" stroke-width="1" stroke-linecap="square" stroke-linejoin="bevel" transform="matrix(3.7037,0,0,3.7037,-46.2963,-324.074)"
font-family="Helvetica" font-size="16" font-weight="400" font-style="normal" 
clip-path="url(#clip949)" >
<polyline fill="none" vector-effect="none" points="20,90 20,129 " />
</g>

<g fill="#a5b9ee" fill-opacity="1" stroke="#000000" stroke-opacity="1" stroke-width="1" stroke-linecap="square" stroke-linejoin="bevel" transform="matrix(3.82318,0,0,3.86473,-46.2963,-324.074)"
font-family="Helvetica" font-size="16" font-weight="400" font-style="normal" 
clip-path="url(#clip950)" >
<defs><clipPath id="clip950"><path vector-effect="none" fill-rule="evenodd" d="M-7,-2 L47,-2 L47,42 L-7,42 L-7,-2z "/>
</clipPath></defs></g>

<g fill="#a5b9ee" fill-opacity="1" stroke="#000000" stroke-opacity="1" stroke-width="1" stroke-linecap="square" stroke-linejoin="bevel" transform="matrix(1,0,0,1,0,0)"
font-family="Helvetica" font-size="16" font-weight="400" font-style="normal" 
clip-path="url(#clip950)" >
</g>

<g fill="none" stroke="#000000" stroke-opacity="1" stroke-width="1" stroke-linecap="square" stroke-linejoin="bevel" transform="matrix(3.7037,0,0,3.7037,25.9259,7.40741)"
font-family="Helvetica" font-size="16" font-weight="400" font-style="normal" 
clip-path="url(#clip950)" >
</g>

<g fill="none" stroke="#000000" stroke-opacity="1" stroke-width="1" stroke-linecap="square" stroke-linejoin="bevel" transform="matrix(3.7037,0,0,3.7037,25.9259,7.40741)"
font-family="Helvetica" font-size="16" font-weight="400" font-style="normal" 
clip-path="url(#clip950)" >
</g>

<g fill="none" stroke="none" transform="matrix(3.7037,0,0,3.7037,25.9259,7.40741)"
font-family="Helvetica" font-size="16" font-weight="400" font-style="normal" 
clip-path="url(#clip950)" >
<path vector-effect="none" fill-rule="evenodd" d="M0,0 L40,0 L40,40 L0,40 L0,0z "/>
</g>

<g fill="none" stroke="#000000" stroke-opacity="1" stroke-width="1" stroke-linecap="square" stroke-linejoin="bevel" transform="matrix(3.7037,0,0,3.7037,25.9259,7.40741)"
font-family="Helvetica" font-size="16" font-weight="400" font-style="normal" 
clip-path="url(#clip950)" >
</g>

<g fill="none" stroke="#000000" stroke-opacity="1" stroke-width="1" stroke-linecap="square" stroke-linejoin="bevel" transform="matrix(3.7037,0,0,3.7037,25.9259,7.40741)"
font-family="Helvetica" font-size="16" font-weight="400" font-style="normal" 
clip-path="url(#clip950)" >
</g>

<g fill="none" stroke="#000000" stroke-opacity="1" stroke-width="0.27" stroke-linecap="butt" stroke-linejoin="miter" stroke-miterlimit="2" transform="matrix(3.7037,0,0,3.7037,25.9259,7.40741)"
font-family="Helvetica" font-size="16" font-weight="400" font-style="normal" 
clip-path="url(#clip950)" >
</g>

<g fill="none" stroke="#000000" stroke-opacity="1" stroke-width="1" stroke-linecap="square" stroke-linejoin="bevel" transform="matrix(3.7037,0,0,3.7037,25.9259,7.40741)"
font-family="Helvetica" font-size="16" font-weight="400" font-style="normal" 
clip-path="url(#clip950)" >
</g>

<g fill="none" stroke="#000000" stroke-opacity="1" stroke-width="1" stroke-linecap="square" stroke-linejoin="bevel" transform="matrix(3.7037,0,0,3.7037,100,162.963)"
font-family="Helvetica" font-size="16" font-weight="400" font-style="normal" 
clip-path="url(#clip951)" >
<defs><clipPath id="clip951"><path vector-effect="non-scaling-stroke" fill-rule="evenodd" d="M-27,-44 L27,-44 L27,-7.10543e-15 L-27,-7.10543e-15 L-27,-44z "/>
</clipPath></defs></g>

<g fill="none" stroke="#000000" stroke-opacity="1" stroke-width="1" stroke-linecap="square" stroke-linejoin="bevel" transform="matrix(3.7037,0,0,3.7037,100,162.963)"
font-family="Helvetica" font-size="16" font-weight="400" font-style="normal" 
clip-path="url(#clip951)" >
</g>

<g fill="none" stroke="#000000" stroke-opacity="1" stroke-width="1" stroke-linecap="square" stroke-linejoin="bevel" transform="matrix(1,0,0,1,0,0)"
font-family="Helvetica" font-size="16" font-weight="400" font-style="normal" 
>
</g>

<g fill="none" stroke="#000000" stroke-opacity="1" stroke-width="1" stroke-linecap="square" stroke-linejoin="bevel" transform="matrix(1,0,0,1,0,0)"
font-family="Helvetica" font-size="16" font-weight="400" font-style="normal" 
>
</g>

<g fill="none" stroke="#000000" stroke-opacity="1" stroke-width="1" stroke-linecap="square" stroke-linejoin="bevel" transform="matrix(1,0,0,1,0,0)"
font-family="Helvetica" font-size="16" font-weight="400" font-style="normal" 
clip-path="url(#clip952)" >
<defs><clipPath id="clip952"><path vector-effect="non-scaling-stroke" fill-rule="evenodd" d="M0,0 L200,0 L200,162 L0,162 L0,0z "/>
</clipPath></defs></g>

<g fill="none" stroke="#000000" stroke-opacity="1" stroke-width="1" stroke-linecap="square" stroke-linejoin="bevel" transform="matrix(1,0,0,1,0,0)"
font-family="Helvetica" font-size="16" font-weight="400" font-style="normal" 
>
</g>

<g fill="none" stroke="#000000" stroke-opacity="1" stroke-width="1" stroke-linecap="square" stroke-linejoin="bevel" transform="matrix(1,0,0,1,0,0)"
font-family="Helvetica" font-size="16" font-weight="400" font-style="normal" 
>
</g>

<g fill="none" stroke="#000000" stroke-opacity="1" stroke-width="1" stroke-linecap="square" stroke-linejoin="bevel" transform="matrix(1,0,0,1,0,0)"
font-family="Helvetica" font-size="16" font-weight="400" font-style="normal" 
clip-path="url(#clip953)" >
<defs><clipPath id="clip953"><path vector-effect="non-scaling-stroke" fill-rule="evenodd" d="M0,0 L1,0 L1,1 L0,1 L0,0z "/>
</clipPath></defs></g>

<g fill="none" stroke="#000000" stroke-opacity="1" stroke-width="1" stroke-linecap="square" stroke-linejoin="bevel" transform="matrix(1,0,0,1,0,0)"
font-family="Helvetica" font-size="16" font-weight="400" font-style="normal" 
>
</g>

<g fill="none" stroke="#000000" stroke-opacity="1" stroke-width="1" stroke-linecap="square" stroke-linejoin="bevel" transform="matrix(1,0,0,1,0,0)"
font-family="Helvetica" font-size="16" font-weight="400" font-style="normal" 
>
</g>
</g>
</svg>
