<?xml version="1.0" encoding="UTF-8" standalone="no"?>
<svg width="67.7333mm" height="65.3627mm"
 viewBox="0 0 200 193"
 xmlns="http://www.w3.org/2000/svg" xmlns:xlink="http://www.w3.org/1999/xlink"  version="1.2" baseProfile="tiny">
<defs>
</defs>
<g fill="none" stroke="black" stroke-width="1" fill-rule="evenodd" stroke-linecap="square" stroke-linejoin="bevel" >

<g fill="#ffffff" fill-opacity="0" stroke="none" transform="matrix(1,0,0,1,0,0)"
font-family="Helvetica" font-size="12.5" font-weight="400" font-style="normal" 
>
<path vector-effect="non-scaling-stroke" fill-rule="evenodd" d="M0,0 L200,0 L200,193 L0,193 L0,0z "/>
</g>

<g fill="none" stroke="#000000" stroke-opacity="1" stroke-width="1" stroke-linecap="square" stroke-linejoin="bevel" transform="matrix(1,0,0,1,0,0)"
font-family="Helvetica" font-size="12.5" font-weight="400" font-style="normal" 
>
</g>

<g fill="none" stroke="#000000" stroke-opacity="1" stroke-width="1" stroke-linecap="square" stroke-linejoin="bevel" transform="matrix(1,0,0,1,0,0)"
font-family="Helvetica" font-size="12.5" font-weight="400" font-style="normal" 
clip-path="url(#clip1346)" >
<defs><clipPath id="clip1346"><path vector-effect="non-scaling-stroke" fill-rule="evenodd" d="M0,0 L200,0 L200,193.258 L0,193.258 L0,0z "/>
</clipPath></defs></g>

<g fill="none" stroke="#000000" stroke-opacity="1" stroke-width="1" stroke-linecap="square" stroke-linejoin="bevel" transform="matrix(-2.24719,0,0,-2.24719,15.7303,141.573)"
font-family="Helvetica" font-size="12.5" font-weight="400" font-style="normal" 
clip-path="url(#clip1347)" >
<defs><clipPath id="clip1347"><path vector-effect="non-scaling-stroke" fill-rule="evenodd" d="M7,63 L-82,63 L-82,-23 L7,-23 L7,63z "/>
</clipPath></defs></g>

<g fill="#000000" fill-opacity="0" stroke="#000000" stroke-opacity="1" stroke-width="2" stroke-linecap="round" stroke-linejoin="miter" stroke-miterlimit="2" transform="matrix(-2.24719,0,0,-2.24719,15.7303,141.573)"
font-family="Helvetica" font-size="12.5" font-weight="400" font-style="normal" 
clip-path="url(#clip1347)" >
<path vector-effect="none" fill-rule="evenodd" d="M5,-5 L0,0 L5,5"/>
</g>

<g fill="none" stroke="#000000" stroke-opacity="1" stroke-width="1" stroke-linecap="square" stroke-linejoin="bevel" transform="matrix(-2.24719,0,0,-2.24719,15.7303,141.573)"
font-family="Helvetica" font-size="12.5" font-weight="400" font-style="normal" 
clip-path="url(#clip1347)" >
</g>

<g fill="none" stroke="#000000" stroke-opacity="1" stroke-width="1" stroke-linecap="square" stroke-linejoin="bevel" transform="matrix(-2.24719,0,0,-2.24719,15.7303,51.6854)"
font-family="Helvetica" font-size="12.5" font-weight="400" font-style="normal" 
clip-path="url(#clip1348)" >
<defs><clipPath id="clip1348"><path vector-effect="non-scaling-stroke" fill-rule="evenodd" d="M7,23 L-82,23 L-82,-63 L7,-63 L7,23z "/>
</clipPath></defs></g>

<g fill="#000000" fill-opacity="0" stroke="#000000" stroke-opacity="1" stroke-width="2" stroke-linecap="round" stroke-linejoin="miter" stroke-miterlimit="2" transform="matrix(-2.24719,0,0,-2.24719,15.7303,51.6854)"
font-family="Helvetica" font-size="12.5" font-weight="400" font-style="normal" 
clip-path="url(#clip1348)" >
<path vector-effect="none" fill-rule="evenodd" d="M5,-5 L0,0 L5,5"/>
</g>

<g fill="none" stroke="#000000" stroke-opacity="1" stroke-width="1" stroke-linecap="square" stroke-linejoin="bevel" transform="matrix(-2.24719,0,0,-2.24719,15.7303,51.6854)"
font-family="Helvetica" font-size="12.5" font-weight="400" font-style="normal" 
clip-path="url(#clip1348)" >
</g>

<g fill="none" stroke="#000000" stroke-opacity="1" stroke-width="1" stroke-linecap="square" stroke-linejoin="bevel" transform="matrix(2.24719,0,0,2.24719,15.7303,4.49438)"
font-family="Helvetica" font-size="12.5" font-weight="400" font-style="normal" 
clip-path="url(#clip1349)" >
<defs><clipPath id="clip1349"><path vector-effect="non-scaling-stroke" fill-rule="evenodd" d="M-7,-2 L82,-2 L82,84 L-7,84 L-7,-2z "/>
</clipPath></defs></g>

<g fill="#ffffff" fill-opacity="1" stroke="none" transform="matrix(2.24719,0,0,2.24719,15.7303,4.49438)"
font-family="Helvetica" font-size="12.5" font-weight="400" font-style="normal" 
clip-path="url(#clip1349)" >
<path vector-effect="none" fill-rule="evenodd" d="M0,0 L80,0 L80,82 L0,82 L0,0z "/>
</g>

<g fill="none" stroke="#000000" stroke-opacity="1" stroke-width="1" stroke-linecap="square" stroke-linejoin="bevel" transform="matrix(2.24719,0,0,2.24719,15.7303,4.49438)"
font-family="Helvetica" font-size="12.5" font-weight="400" font-style="normal" 
clip-path="url(#clip1349)" >
</g>

<g fill="none" stroke="#000000" stroke-opacity="1" stroke-width="1" stroke-linecap="square" stroke-linejoin="bevel" transform="matrix(2.24719,0,0,2.24719,15.7303,4.49438)"
font-family="Helvetica" font-size="12.5" font-weight="400" font-style="normal" 
clip-path="url(#clip1349)" >
</g>

<g fill="none" stroke="#000000" stroke-opacity="1" stroke-width="1" stroke-linecap="square" stroke-linejoin="bevel" transform="matrix(2.24719,0,0,2.24719,15.7303,4.49438)"
font-family="Helvetica" font-size="12.5" font-weight="400" font-style="normal" 
clip-path="url(#clip1350)" >
<defs><clipPath id="clip1350"><path vector-effect="non-scaling-stroke" fill-rule="evenodd" d="M0,0 L80,0 L80,82 L0,82 L0,0z "/>
</clipPath></defs></g>

<g fill="none" stroke="#000000" stroke-opacity="1" stroke-width="1" stroke-linecap="square" stroke-linejoin="bevel" transform="matrix(2.24719,0,0,2.24719,22.4719,56.1798)"
font-family="Liberation Sans" font-size="10" font-weight="400" font-style="normal" 
clip-path="url(#clip1351)" >
<defs><clipPath id="clip1351"><path vector-effect="none" fill-rule="evenodd" d="M-3,-23 L77,-23 L77,59 L-3,59 L-3,-23z "/>
</clipPath></defs></g>

<g fill="none" stroke="#000000" stroke-opacity="1" stroke-width="1" stroke-linecap="square" stroke-linejoin="bevel" transform="matrix(2.24719,0,0,2.24719,22.4719,56.1798)"
font-family="Liberation Sans" font-size="10" font-weight="400" font-style="normal" 
clip-path="url(#clip1351)" >
<text textLength="5" fill="#000000" fill-opacity="1" stroke="none" xml:space="preserve" x="0" y="0" font-family="Liberation Sans" font-size="10" font-weight="400" font-style="normal" 
 >x</text>
</g>

<g fill="none" stroke="#000000" stroke-opacity="1" stroke-width="1" stroke-linecap="square" stroke-linejoin="bevel" transform="matrix(2.24719,0,0,2.24719,22.4719,56.1798)"
font-family="Liberation Sans" font-size="10" font-weight="400" font-style="normal" 
clip-path="url(#clip1351)" >
</g>

<g fill="none" stroke="#000000" stroke-opacity="1" stroke-width="1" stroke-linecap="square" stroke-linejoin="bevel" transform="matrix(2.24719,0,0,2.24719,33.7079,67.4157)"
font-family="Liberation Sans" font-size="8" font-weight="400" font-style="normal" 
clip-path="url(#clip1352)" >
<defs><clipPath id="clip1352"><path vector-effect="none" fill-rule="evenodd" d="M-8,-28 L72,-28 L72,54 L-8,54 L-8,-28z "/>
</clipPath></defs></g>

<g fill="none" stroke="#000000" stroke-opacity="1" stroke-width="1" stroke-linecap="square" stroke-linejoin="bevel" transform="matrix(2.24719,0,0,2.24719,33.7079,67.4157)"
font-family="Liberation Sans" font-size="8" font-weight="400" font-style="normal" 
clip-path="url(#clip1352)" >
<text textLength="4" fill="#000000" fill-opacity="1" stroke="none" xml:space="preserve" x="0" y="0" font-family="Liberation Sans" font-size="8" font-weight="400" font-style="normal" 
 >e</text>
</g>

<g fill="none" stroke="#000000" stroke-opacity="1" stroke-width="1" stroke-linecap="square" stroke-linejoin="bevel" transform="matrix(2.24719,0,0,2.24719,33.7079,67.4157)"
font-family="Liberation Sans" font-size="8" font-weight="400" font-style="normal" 
clip-path="url(#clip1352)" >
</g>

<g fill="none" stroke="#000000" stroke-opacity="1" stroke-width="1" stroke-linecap="square" stroke-linejoin="bevel" transform="matrix(2.24719,0,0,2.24719,22.4719,152.809)"
font-family="Liberation Sans" font-size="10" font-weight="400" font-style="normal" 
clip-path="url(#clip1353)" >
<defs><clipPath id="clip1353"><path vector-effect="none" fill-rule="evenodd" d="M-3,-66 L77,-66 L77,16 L-3,16 L-3,-66z "/>
</clipPath></defs></g>

<g fill="none" stroke="#000000" stroke-opacity="1" stroke-width="1" stroke-linecap="square" stroke-linejoin="bevel" transform="matrix(2.24719,0,0,2.24719,22.4719,152.809)"
font-family="Liberation Sans" font-size="10" font-weight="400" font-style="normal" 
clip-path="url(#clip1353)" >
<text textLength="6" fill="#000000" fill-opacity="1" stroke="none" xml:space="preserve" x="0" y="0" font-family="Liberation Sans" font-size="10" font-weight="400" font-style="normal" 
 >φ</text>
</g>

<g fill="none" stroke="#000000" stroke-opacity="1" stroke-width="1" stroke-linecap="square" stroke-linejoin="bevel" transform="matrix(2.24719,0,0,2.24719,22.4719,152.809)"
font-family="Liberation Sans" font-size="10" font-weight="400" font-style="normal" 
clip-path="url(#clip1353)" >
</g>

<g fill="none" stroke="#000000" stroke-opacity="1" stroke-width="1" stroke-linecap="square" stroke-linejoin="bevel" transform="matrix(2.24719,0,0,2.24719,22.4719,152.809)"
font-family="Liberation Sans" font-size="10" font-weight="400" font-style="normal" 
clip-path="url(#clip1353)" >
</g>

<g fill="none" stroke="#000000" stroke-opacity="1" stroke-width="1" stroke-linecap="square" stroke-linejoin="bevel" transform="matrix(2.24719,0,0,2.24719,22.4719,152.809)"
font-family="Liberation Sans" font-size="10" font-weight="400" font-style="normal" 
clip-path="url(#clip1353)" >
</g>

<g fill="none" stroke="#000000" stroke-opacity="1" stroke-width="1" stroke-linecap="square" stroke-linejoin="bevel" transform="matrix(2.24719,0,0,2.24719,22.4719,152.809)"
font-family="Liberation Sans" font-size="10" font-weight="400" font-style="normal" 
clip-path="url(#clip1353)" >
<text textLength="6" fill="#000000" fill-opacity="1" stroke="none" xml:space="preserve" x="9" y="0" font-family="Liberation Sans" font-size="10" font-weight="400" font-style="normal" 
 >θ</text>
</g>

<g fill="none" stroke="#000000" stroke-opacity="1" stroke-width="1" stroke-linecap="square" stroke-linejoin="bevel" transform="matrix(2.24719,0,0,2.24719,22.4719,152.809)"
font-family="Liberation Sans" font-size="10" font-weight="400" font-style="normal" 
clip-path="url(#clip1353)" >
</g>

<g fill="none" stroke="#000000" stroke-opacity="1" stroke-width="1" stroke-linecap="square" stroke-linejoin="bevel" transform="matrix(2.24719,0,0,2.24719,22.4719,152.809)"
font-family="Liberation Sans" font-size="10" font-weight="400" font-style="normal" 
clip-path="url(#clip1353)" >
</g>

<g fill="none" stroke="#000000" stroke-opacity="1" stroke-width="1" stroke-linecap="square" stroke-linejoin="bevel" transform="matrix(2.24719,0,0,2.24719,22.4719,152.809)"
font-family="Liberation Sans" font-size="10" font-weight="400" font-style="normal" 
clip-path="url(#clip1353)" >
</g>

<g fill="none" stroke="#000000" stroke-opacity="1" stroke-width="1" stroke-linecap="square" stroke-linejoin="bevel" transform="matrix(2.24719,0,0,2.24719,22.4719,152.809)"
font-family="Liberation Sans" font-size="10" font-weight="400" font-style="normal" 
clip-path="url(#clip1353)" >
<text textLength="7" fill="#000000" fill-opacity="1" stroke="none" xml:space="preserve" x="18" y="0" font-family="Liberation Sans" font-size="10" font-weight="400" font-style="normal" 
 >ψ</text>
</g>

<g fill="none" stroke="#000000" stroke-opacity="1" stroke-width="1" stroke-linecap="square" stroke-linejoin="bevel" transform="matrix(2.24719,0,0,2.24719,22.4719,152.809)"
font-family="Liberation Sans" font-size="10" font-weight="400" font-style="normal" 
clip-path="url(#clip1353)" >
</g>

<g fill="#000000" fill-opacity="1" stroke="#000000" stroke-opacity="1" stroke-width="1" stroke-linecap="square" stroke-linejoin="bevel" transform="matrix(2.24719,0,0,2.24719,-400,-116.854)"
font-family="Liberation Sans" font-size="10" font-weight="400" font-style="normal" 
clip-path="url(#clip1354)" >
<defs><clipPath id="clip1354"><path vector-effect="none" fill-rule="evenodd" d="M185,54 L265,54 L265,136 L185,136 L185,54z "/>
</clipPath></defs><path vector-effect="none" fill-rule="evenodd" d="M215,89 L215,91 L213,91 L213,95 L215,95 L215,100 L220,100 L215,110 L217,110 L223,100 L226,100 L232,110 L234,110 L229,100 L234,100 L234,95 L239,100 L239,89 L234,94 L234,89 L230,89 L235,87 L236,83 L235,78 L230,77 L226,78 L225,83 L226,87 L230,89 L230,87 L229,86 L230,85 L232,86 L233,86 L232,84 L233,83 L234,84 L233,86 L232,86 L230,87 L230,89 L219,89 L223,87 L225,83 L223,78 L219,77 L214,78 L213,83 L214,87 L219,89 L219,87 L217,86 L219,85 L220,86 L221,86 L220,84 L221,83 L222,84 L221,86 L220,86 L219,87 L219,89 L215,89z "/>
</g>

<g fill="#000000" fill-opacity="1" stroke="#000000" stroke-opacity="1" stroke-width="1" stroke-linecap="square" stroke-linejoin="bevel" transform="matrix(2.24719,0,0,2.24719,-400,-116.854)"
font-family="Liberation Sans" font-size="10" font-weight="400" font-style="normal" 
clip-path="url(#clip1355)" >
<defs><clipPath id="clip1355"><path vector-effect="none" fill-rule="evenodd" d="M-7,-2 L82,-2 L82,84 L-7,84 L-7,-2z "/>
</clipPath></defs></g>

<g fill="#000000" fill-opacity="1" stroke="#000000" stroke-opacity="1" stroke-width="1" stroke-linecap="square" stroke-linejoin="bevel" transform="matrix(1,0,0,1,0,0)"
font-family="Liberation Sans" font-size="10" font-weight="400" font-style="normal" 
clip-path="url(#clip1355)" >
</g>

<g fill="none" stroke="#000000" stroke-opacity="1" stroke-width="1" stroke-linecap="square" stroke-linejoin="bevel" transform="matrix(2.24719,0,0,2.24719,15.7303,4.49438)"
font-family="Helvetica" font-size="12.5" font-weight="400" font-style="normal" 
clip-path="url(#clip1355)" >
</g>

<g fill="none" stroke="#000000" stroke-opacity="1" stroke-width="1" stroke-linecap="square" stroke-linejoin="bevel" transform="matrix(2.24719,0,0,2.24719,15.7303,4.49438)"
font-family="Helvetica" font-size="12.5" font-weight="400" font-style="normal" 
clip-path="url(#clip1355)" >
</g>

<g fill="none" stroke="#000000" stroke-opacity="1" stroke-width="1.44669" stroke-linecap="butt" stroke-linejoin="miter" stroke-miterlimit="2" transform="matrix(2.24719,0,0,2.24719,15.7303,4.49438)"
font-family="Helvetica" font-size="12.5" font-weight="400" font-style="normal" 
clip-path="url(#clip1355)" >
<path vector-effect="none" fill-rule="evenodd" d="M0,0 L80,0 L80,82 L0,82 L0,0z "/>
</g>

<g fill="none" stroke="#000000" stroke-opacity="1" stroke-width="1" stroke-linecap="square" stroke-linejoin="bevel" transform="matrix(2.24719,0,0,2.24719,15.7303,4.49438)"
font-family="Helvetica" font-size="12.5" font-weight="400" font-style="normal" 
clip-path="url(#clip1355)" >
</g>

<g fill="none" stroke="#000000" stroke-opacity="1" stroke-width="1" stroke-linecap="square" stroke-linejoin="bevel" transform="matrix(1,0,0,1,0,0)"
font-family="Helvetica" font-size="12.5" font-weight="400" font-style="normal" 
>
</g>

<g fill="none" stroke="#000000" stroke-opacity="1" stroke-width="1" stroke-linecap="square" stroke-linejoin="bevel" transform="matrix(1,0,0,1,0,0)"
font-family="Helvetica" font-size="12.5" font-weight="400" font-style="normal" 
>
</g>

<g fill="none" stroke="#000000" stroke-opacity="1" stroke-width="1" stroke-linecap="square" stroke-linejoin="bevel" transform="matrix(1,0,0,1,0,0)"
font-family="Helvetica" font-size="12.5" font-weight="400" font-style="normal" 
clip-path="url(#clip1356)" >
<defs><clipPath id="clip1356"><path vector-effect="non-scaling-stroke" fill-rule="evenodd" d="M0,0 L200,0 L200,193 L0,193 L0,0z "/>
</clipPath></defs></g>

<g fill="none" stroke="#000000" stroke-opacity="1" stroke-width="1" stroke-linecap="square" stroke-linejoin="bevel" transform="matrix(1,0,0,1,0,0)"
font-family="Helvetica" font-size="12.5" font-weight="400" font-style="normal" 
>
</g>

<g fill="none" stroke="#000000" stroke-opacity="1" stroke-width="1" stroke-linecap="square" stroke-linejoin="bevel" transform="matrix(1,0,0,1,0,0)"
font-family="Helvetica" font-size="12.5" font-weight="400" font-style="normal" 
>
</g>

<g fill="none" stroke="#000000" stroke-opacity="1" stroke-width="1" stroke-linecap="square" stroke-linejoin="bevel" transform="matrix(1,0,0,1,0,0)"
font-family="Helvetica" font-size="12.5" font-weight="400" font-style="normal" 
clip-path="url(#clip1357)" >
<defs><clipPath id="clip1357"><path vector-effect="non-scaling-stroke" fill-rule="evenodd" d="M0,0 L1,0 L1,1 L0,1 L0,0z "/>
</clipPath></defs></g>

<g fill="none" stroke="#000000" stroke-opacity="1" stroke-width="1" stroke-linecap="square" stroke-linejoin="bevel" transform="matrix(1,0,0,1,0,0)"
font-family="Helvetica" font-size="12.5" font-weight="400" font-style="normal" 
>
</g>

<g fill="none" stroke="#000000" stroke-opacity="1" stroke-width="1" stroke-linecap="square" stroke-linejoin="bevel" transform="matrix(1,0,0,1,0,0)"
font-family="Helvetica" font-size="12.5" font-weight="400" font-style="normal" 
>
</g>
</g>
</svg>
