<?xml version="1.0" encoding="UTF-8" standalone="no"?>
<svg width="67.7333mm" height="42.3333mm"
 viewBox="0 0 200 125"
 xmlns="http://www.w3.org/2000/svg" xmlns:xlink="http://www.w3.org/1999/xlink"  version="1.2" baseProfile="tiny">
<defs>
</defs>
<g fill="none" stroke="black" stroke-width="1" fill-rule="evenodd" stroke-linecap="square" stroke-linejoin="bevel" >

<g fill="#ffffff" fill-opacity="0" stroke="none" transform="matrix(1,0,0,1,0,0)"
font-family="Helvetica" font-size="12.5" font-weight="400" font-style="normal" 
>
<path vector-effect="non-scaling-stroke" fill-rule="evenodd" d="M0,0 L200,0 L200,125 L0,125 L0,0z "/>
</g>

<g fill="none" stroke="#000000" stroke-opacity="1" stroke-width="1" stroke-linecap="square" stroke-linejoin="bevel" transform="matrix(1,0,0,1,0,0)"
font-family="Helvetica" font-size="12.5" font-weight="400" font-style="normal" 
>
</g>

<g fill="none" stroke="#000000" stroke-opacity="1" stroke-width="1" stroke-linecap="square" stroke-linejoin="bevel" transform="matrix(1,0,0,1,0,0)"
font-family="Helvetica" font-size="12.5" font-weight="400" font-style="normal" 
clip-path="url(#clip2084)" >
<defs><clipPath id="clip2084"><path vector-effect="non-scaling-stroke" fill-rule="evenodd" d="M0,0 L200,0 L200,125.712 L0,125.712 L0,0z "/>
</clipPath></defs></g>

<g fill="none" stroke="#000000" stroke-opacity="1" stroke-width="1" stroke-linecap="square" stroke-linejoin="bevel" transform="matrix(-1.25712,0,0,-1.25712,8.85877,61.5989)"
font-family="Helvetica" font-size="12.5" font-weight="400" font-style="normal" 
clip-path="url(#clip2085)" >
<defs><clipPath id="clip2085"><path vector-effect="non-scaling-stroke" fill-rule="evenodd" d="M7.04688,49 L-152.047,49 L-152.047,-51 L7.04688,-51 L7.04688,49z "/>
</clipPath></defs></g>

<g fill="#000000" fill-opacity="0" stroke="#000000" stroke-opacity="1" stroke-width="2" stroke-linecap="round" stroke-linejoin="miter" stroke-miterlimit="2" transform="matrix(-1.25712,0,0,-1.25712,8.85877,61.5989)"
font-family="Helvetica" font-size="12.5" font-weight="400" font-style="normal" 
clip-path="url(#clip2085)" >
<path vector-effect="none" fill-rule="evenodd" d="M5,-5 L0,0 L5,5"/>
</g>

<g fill="none" stroke="#000000" stroke-opacity="1" stroke-width="1" stroke-linecap="square" stroke-linejoin="bevel" transform="matrix(-1.25712,0,0,-1.25712,8.85877,61.5989)"
font-family="Helvetica" font-size="12.5" font-weight="400" font-style="normal" 
clip-path="url(#clip2085)" >
</g>

<g fill="none" stroke="#000000" stroke-opacity="1" stroke-width="1" stroke-linecap="square" stroke-linejoin="bevel" transform="matrix(1.25712,0,0,1.25712,191.141,42.7421)"
font-family="Helvetica" font-size="12.5" font-weight="400" font-style="normal" 
clip-path="url(#clip2086)" >
<defs><clipPath id="clip2086"><path vector-effect="non-scaling-stroke" fill-rule="evenodd" d="M-152.047,-34 L7.04688,-34 L7.04688,66 L-152.047,66 L-152.047,-34z "/>
</clipPath></defs></g>

<g fill="#000000" fill-opacity="0" stroke="#000000" stroke-opacity="1" stroke-width="2" stroke-linecap="round" stroke-linejoin="miter" stroke-miterlimit="2" transform="matrix(1.25712,0,0,1.25712,191.141,42.7421)"
font-family="Helvetica" font-size="12.5" font-weight="400" font-style="normal" 
clip-path="url(#clip2086)" >
<path vector-effect="none" fill-rule="evenodd" d="M0,-5 L5,0 L0,5"/>
</g>

<g fill="none" stroke="#000000" stroke-opacity="1" stroke-width="1" stroke-linecap="square" stroke-linejoin="bevel" transform="matrix(1.25712,0,0,1.25712,191.141,42.7421)"
font-family="Helvetica" font-size="12.5" font-weight="400" font-style="normal" 
clip-path="url(#clip2086)" >
</g>

<g fill="none" stroke="#000000" stroke-opacity="1" stroke-width="1" stroke-linecap="square" stroke-linejoin="bevel" transform="matrix(-1.25712,0,0,-1.25712,8.85877,23.8853)"
font-family="Helvetica" font-size="12.5" font-weight="400" font-style="normal" 
clip-path="url(#clip2087)" >
<defs><clipPath id="clip2087"><path vector-effect="non-scaling-stroke" fill-rule="evenodd" d="M7.04688,19 L-152.047,19 L-152.047,-81 L7.04688,-81 L7.04688,19z "/>
</clipPath></defs></g>

<g fill="#000000" fill-opacity="0" stroke="#000000" stroke-opacity="1" stroke-width="2" stroke-linecap="round" stroke-linejoin="miter" stroke-miterlimit="2" transform="matrix(-1.25712,0,0,-1.25712,8.85877,23.8853)"
font-family="Helvetica" font-size="12.5" font-weight="400" font-style="normal" 
clip-path="url(#clip2087)" >
<path vector-effect="none" fill-rule="evenodd" d="M5,-5 L0,0 L5,5"/>
</g>

<g fill="none" stroke="#000000" stroke-opacity="1" stroke-width="1" stroke-linecap="square" stroke-linejoin="bevel" transform="matrix(-1.25712,0,0,-1.25712,8.85877,23.8853)"
font-family="Helvetica" font-size="12.5" font-weight="400" font-style="normal" 
clip-path="url(#clip2087)" >
</g>

<g fill="none" stroke="#000000" stroke-opacity="1" stroke-width="1" stroke-linecap="square" stroke-linejoin="bevel" transform="matrix(1.25712,0,0,1.25712,8.85877,2.51424)"
font-family="Helvetica" font-size="12.5" font-weight="400" font-style="normal" 
clip-path="url(#clip2088)" >
<defs><clipPath id="clip2088"><path vector-effect="non-scaling-stroke" fill-rule="evenodd" d="M-7.04688,-2 L152.047,-2 L152.047,98 L-7.04688,98 L-7.04688,-2z "/>
</clipPath></defs></g>

<g fill="#ffffff" fill-opacity="1" stroke="none" transform="matrix(1.25712,0,0,1.25712,8.85877,2.51424)"
font-family="Helvetica" font-size="12.5" font-weight="400" font-style="normal" 
clip-path="url(#clip2088)" >
<path vector-effect="none" fill-rule="evenodd" d="M0,0 L145,0 L145,64 L0,64 L0,0z "/>
</g>

<g fill="none" stroke="#000000" stroke-opacity="1" stroke-width="1" stroke-linecap="square" stroke-linejoin="bevel" transform="matrix(1.25712,0,0,1.25712,8.85877,2.51424)"
font-family="Helvetica" font-size="12.5" font-weight="400" font-style="normal" 
clip-path="url(#clip2088)" >
</g>

<g fill="none" stroke="#000000" stroke-opacity="1" stroke-width="1" stroke-linecap="square" stroke-linejoin="bevel" transform="matrix(1.25712,0,0,1.25712,8.85877,2.51424)"
font-family="Helvetica" font-size="12.5" font-weight="400" font-style="normal" 
clip-path="url(#clip2088)" >
</g>

<g fill="none" stroke="#000000" stroke-opacity="1" stroke-width="1" stroke-linecap="square" stroke-linejoin="bevel" transform="matrix(1.25712,0,0,1.25712,8.85877,2.51424)"
font-family="Helvetica" font-size="12.5" font-weight="400" font-style="normal" 
clip-path="url(#clip2089)" >
<defs><clipPath id="clip2089"><path vector-effect="non-scaling-stroke" fill-rule="evenodd" d="M0,0 L145,0 L145,64 L0,64 L0,0z "/>
</clipPath></defs></g>

<g fill="none" stroke="#000000" stroke-opacity="1" stroke-width="1" stroke-linecap="square" stroke-linejoin="bevel" transform="matrix(1.25712,0,0,1.25712,12.6301,30.1709)"
font-family="Liberation Sans" font-size="10" font-weight="400" font-style="normal" 
clip-path="url(#clip2090)" >
<defs><clipPath id="clip2090"><path vector-effect="none" fill-rule="evenodd" d="M-3,-22 L142,-22 L142,42 L-3,42 L-3,-22z "/>
</clipPath></defs></g>

<g fill="none" stroke="#000000" stroke-opacity="1" stroke-width="1" stroke-linecap="square" stroke-linejoin="bevel" transform="matrix(1.25712,0,0,1.25712,12.6301,30.1709)"
font-family="Liberation Sans" font-size="10" font-weight="400" font-style="normal" 
clip-path="url(#clip2090)" >
<text textLength="5" fill="#000000" fill-opacity="1" stroke="none" xml:space="preserve" x="0" y="0" font-family="Liberation Sans" font-size="10" font-weight="400" font-style="normal" 
 >λ</text>
</g>

<g fill="none" stroke="#000000" stroke-opacity="1" stroke-width="1" stroke-linecap="square" stroke-linejoin="bevel" transform="matrix(1.25712,0,0,1.25712,12.6301,30.1709)"
font-family="Liberation Sans" font-size="10" font-weight="400" font-style="normal" 
clip-path="url(#clip2090)" >
</g>

<g fill="none" stroke="#000000" stroke-opacity="1" stroke-width="1" stroke-linecap="square" stroke-linejoin="bevel" transform="matrix(1.25712,0,0,1.25712,12.6301,30.1709)"
font-family="Liberation Sans" font-size="10" font-weight="400" font-style="normal" 
clip-path="url(#clip2090)" >
<text textLength="27" fill="#000000" fill-opacity="1" stroke="none" xml:space="preserve" x="5" y="0" font-family="Liberation Sans" font-size="10" font-weight="400" font-style="normal" 
 > (deg)</text>
</g>

<g fill="none" stroke="#000000" stroke-opacity="1" stroke-width="1" stroke-linecap="square" stroke-linejoin="bevel" transform="matrix(1.25712,0,0,1.25712,12.6301,30.1709)"
font-family="Liberation Sans" font-size="10" font-weight="400" font-style="normal" 
clip-path="url(#clip2090)" >
</g>

<g fill="none" stroke="#000000" stroke-opacity="1" stroke-width="1" stroke-linecap="square" stroke-linejoin="bevel" transform="matrix(1.25712,0,0,1.25712,12.6301,67.8845)"
font-family="Liberation Sans" font-size="10" font-weight="400" font-style="normal" 
clip-path="url(#clip2091)" >
<defs><clipPath id="clip2091"><path vector-effect="none" fill-rule="evenodd" d="M-3,-52 L142,-52 L142,12 L-3,12 L-3,-52z "/>
</clipPath></defs></g>

<g fill="none" stroke="#000000" stroke-opacity="1" stroke-width="1" stroke-linecap="square" stroke-linejoin="bevel" transform="matrix(1.25712,0,0,1.25712,12.6301,67.8845)"
font-family="Liberation Sans" font-size="10" font-weight="400" font-style="normal" 
clip-path="url(#clip2091)" >
<text textLength="30" fill="#000000" fill-opacity="1" stroke="none" xml:space="preserve" x="0" y="0" font-family="Liberation Sans" font-size="10" font-weight="400" font-style="normal" 
 >l (deg)</text>
</g>

<g fill="none" stroke="#000000" stroke-opacity="1" stroke-width="1" stroke-linecap="square" stroke-linejoin="bevel" transform="matrix(1.25712,0,0,1.25712,12.6301,67.8845)"
font-family="Liberation Sans" font-size="10" font-weight="400" font-style="normal" 
clip-path="url(#clip2091)" >
</g>

<g fill="none" stroke="#000000" stroke-opacity="1" stroke-width="1" stroke-linecap="square" stroke-linejoin="bevel" transform="matrix(1.25712,0,0,1.25712,155.942,49.0277)"
font-family="Liberation Sans" font-size="10" font-weight="400" font-style="normal" 
clip-path="url(#clip2092)" >
<defs><clipPath id="clip2092"><path vector-effect="none" fill-rule="evenodd" d="M-117,-37 L28,-37 L28,27 L-117,27 L-117,-37z "/>
</clipPath></defs></g>

<g fill="none" stroke="#000000" stroke-opacity="1" stroke-width="1" stroke-linecap="square" stroke-linejoin="bevel" transform="matrix(1.25712,0,0,1.25712,155.942,49.0277)"
font-family="Liberation Sans" font-size="10" font-weight="400" font-style="normal" 
clip-path="url(#clip2092)" >
<text textLength="25" fill="#000000" fill-opacity="1" stroke="none" xml:space="preserve" x="0" y="0" font-family="Liberation Sans" font-size="10" font-weight="400" font-style="normal" 
 >N (m)</text>
</g>

<g fill="none" stroke="#000000" stroke-opacity="1" stroke-width="1" stroke-linecap="square" stroke-linejoin="bevel" transform="matrix(1.25712,0,0,1.25712,155.942,49.0277)"
font-family="Liberation Sans" font-size="10" font-weight="400" font-style="normal" 
clip-path="url(#clip2092)" >
</g>

<g fill="none" stroke="#000000" stroke-opacity="1" stroke-width="1" stroke-linecap="square" stroke-linejoin="bevel" transform="matrix(1.25712,0,0,1.25712,99.3714,36.4565)"
font-family="Liberation Sans" font-size="10" font-weight="400" font-style="normal" 
clip-path="url(#clip2093)" >
<defs><clipPath id="clip2093"><path vector-effect="none" fill-rule="evenodd" d="M-72,-27 L73,-27 L73,37 L-72,37 L-72,-27z "/>
</clipPath></defs></g>

<g fill="none" stroke="#000000" stroke-opacity="1" stroke-width="1" stroke-linecap="square" stroke-linejoin="bevel" transform="matrix(1.25712,0,0,1.25712,99.3714,36.4565)"
font-family="Liberation Sans" font-size="10" font-weight="400" font-style="normal" 
clip-path="url(#clip2093)" >
<text textLength="63" fill="#000000" fill-opacity="1" stroke="none" xml:space="preserve" x="-31" y="3" font-family="Liberation Sans" font-size="10" font-weight="400" font-style="normal" 
 >Geoid Height</text>
</g>

<g fill="none" stroke="#000000" stroke-opacity="1" stroke-width="1" stroke-linecap="square" stroke-linejoin="bevel" transform="matrix(1.25712,0,0,1.25712,99.3714,36.4565)"
font-family="Liberation Sans" font-size="10" font-weight="400" font-style="normal" 
clip-path="url(#clip2093)" >
</g>

<g fill="none" stroke="#000000" stroke-opacity="1" stroke-width="1" stroke-linecap="square" stroke-linejoin="bevel" transform="matrix(1.25712,0,0,1.25712,99.3714,49.0277)"
font-family="Liberation Sans" font-size="10" font-weight="400" font-style="normal" 
clip-path="url(#clip2094)" >
<defs><clipPath id="clip2094"><path vector-effect="none" fill-rule="evenodd" d="M-72,-37 L73,-37 L73,27 L-72,27 L-72,-37z "/>
</clipPath></defs></g>

<g fill="none" stroke="#000000" stroke-opacity="1" stroke-width="1" stroke-linecap="square" stroke-linejoin="bevel" transform="matrix(1.25712,0,0,1.25712,99.3714,49.0277)"
font-family="Liberation Sans" font-size="10" font-weight="400" font-style="normal" 
clip-path="url(#clip2094)" >
<text textLength="42" fill="#000000" fill-opacity="1" stroke="none" xml:space="preserve" x="-21" y="3" font-family="Liberation Sans" font-size="10" font-weight="400" font-style="normal" 
 >(EGM96)</text>
</g>

<g fill="none" stroke="#000000" stroke-opacity="1" stroke-width="1" stroke-linecap="square" stroke-linejoin="bevel" transform="matrix(1.25712,0,0,1.25712,99.3714,49.0277)"
font-family="Liberation Sans" font-size="10" font-weight="400" font-style="normal" 
clip-path="url(#clip2094)" >
</g>

<g fill="none" stroke="#000000" stroke-opacity="1" stroke-width="1" stroke-linecap="square" stroke-linejoin="bevel" transform="matrix(1.25712,0,0,1.25712,99.3714,49.0277)"
font-family="Liberation Sans" font-size="10" font-weight="400" font-style="normal" 
clip-path="url(#clip2095)" >
<defs><clipPath id="clip2095"><path vector-effect="none" fill-rule="evenodd" d="M-7.04688,-2 L152.047,-2 L152.047,98 L-7.04688,98 L-7.04688,-2z "/>
</clipPath></defs></g>

<g fill="none" stroke="#000000" stroke-opacity="1" stroke-width="1" stroke-linecap="square" stroke-linejoin="bevel" transform="matrix(1,0,0,1,0,0)"
font-family="Liberation Sans" font-size="10" font-weight="400" font-style="normal" 
clip-path="url(#clip2095)" >
</g>

<g fill="none" stroke="#000000" stroke-opacity="1" stroke-width="1" stroke-linecap="square" stroke-linejoin="bevel" transform="matrix(1.25712,0,0,1.25712,8.85877,2.51424)"
font-family="Helvetica" font-size="12.5" font-weight="400" font-style="normal" 
clip-path="url(#clip2095)" >
</g>

<g fill="none" stroke="#000000" stroke-opacity="1" stroke-width="1" stroke-linecap="square" stroke-linejoin="bevel" transform="matrix(1.25712,0,0,1.25712,8.85877,2.51424)"
font-family="Helvetica" font-size="12.5" font-weight="400" font-style="normal" 
clip-path="url(#clip2095)" >
</g>

<g fill="none" stroke="#000000" stroke-opacity="1" stroke-width="0.912534" stroke-linecap="butt" stroke-linejoin="miter" stroke-miterlimit="2" transform="matrix(1.25712,0,0,1.25712,8.85877,2.51424)"
font-family="Helvetica" font-size="12.5" font-weight="400" font-style="normal" 
clip-path="url(#clip2095)" >
<path vector-effect="none" fill-rule="evenodd" d="M0,0 L145,0 L145,64 L0,64 L0,0z "/>
</g>

<g fill="none" stroke="#000000" stroke-opacity="1" stroke-width="1" stroke-linecap="square" stroke-linejoin="bevel" transform="matrix(1.25712,0,0,1.25712,8.85877,2.51424)"
font-family="Helvetica" font-size="12.5" font-weight="400" font-style="normal" 
clip-path="url(#clip2095)" >
</g>

<g fill="none" stroke="#000000" stroke-opacity="1" stroke-width="1" stroke-linecap="square" stroke-linejoin="bevel" transform="matrix(1.25712,0,0,1.25712,100,104.341)"
font-family="Helvetica" font-size="12.5" font-weight="400" font-style="normal" 
clip-path="url(#clip2096)" >
<defs><clipPath id="clip2096"><path vector-effect="non-scaling-stroke" fill-rule="evenodd" d="M-79.5469,-83 L79.5469,-83 L79.5469,17 L-79.5469,17 L-79.5469,-83z "/>
</clipPath></defs></g>

<g fill="none" stroke="none" transform="matrix(1.25712,0,0,1.25712,100,104.341)"
font-family="Helvetica" font-size="12.5" font-weight="400" font-style="normal" 
clip-path="url(#clip2096)" >
<path vector-effect="none" fill-rule="evenodd" d="M-77.5469,0 L77.5469,0 L77.5469,15 L-77.5469,15 L-77.5469,0z "/>
</g>

<g fill="none" stroke="#000000" stroke-opacity="0.6" stroke-width="1" stroke-linecap="square" stroke-linejoin="bevel" transform="matrix(1.25712,0,0,1.25712,100,104.341)"
font-family="Helvetica" font-size="10" font-weight="400" font-style="normal" 
clip-path="url(#clip2096)" >
</g>

<g fill="none" stroke="#000000" stroke-opacity="0.6" stroke-width="1" stroke-linecap="square" stroke-linejoin="bevel" transform="matrix(1.25712,0,0,1.25712,2.51424,104.341)"
font-family="Helvetica" font-size="10" font-weight="400" font-style="normal" 
clip-path="url(#clip2097)" >
<defs><clipPath id="clip2097"><path vector-effect="non-scaling-stroke" fill-rule="evenodd" d="M-2,-83 L157.094,-83 L157.094,17 L-2,17 L-2,-83z "/>
</clipPath></defs></g>

<g fill="none" stroke="#000000" stroke-opacity="0.6" stroke-width="1" stroke-linecap="square" stroke-linejoin="bevel" transform="matrix(1.25712,0,0,1.25712,2.51424,104.341)"
font-family="Helvetica" font-size="10" font-weight="400" font-style="normal" 
clip-path="url(#clip2097)" >
</g>

<g fill="none" stroke="#000000" stroke-opacity="0.6" stroke-width="1" stroke-linecap="square" stroke-linejoin="bevel" transform="matrix(1.25712,0,0,1.25712,2.51424,104.341)"
font-family="Helvetica" font-size="10" font-weight="400" font-style="normal" 
clip-path="url(#clip2098)" >
<defs><clipPath id="clip2098"><path vector-effect="non-scaling-stroke" fill-rule="evenodd" d="M0,0 L155,0 L155,15 L0,15 L0,0z "/>
</clipPath></defs><text textLength="153.094" fill="#000000" fill-opacity="0.6" stroke="none" xml:space="preserve" x="1" y="11" font-family="Helvetica" font-size="10" font-weight="400" font-style="normal" 
 >EGM2008 Geoid Data Unavailable</text>
</g>

<g fill="none" stroke="#000000" stroke-opacity="0.6" stroke-width="1" stroke-linecap="square" stroke-linejoin="bevel" transform="matrix(1.25712,0,0,1.25712,2.51424,104.341)"
font-family="Helvetica" font-size="10" font-weight="400" font-style="normal" 
clip-path="url(#clip2099)" >
<defs><clipPath id="clip2099"><path vector-effect="non-scaling-stroke" fill-rule="evenodd" d="M-2,-83 L157.094,-83 L157.094,17 L-2,17 L-2,-83z "/>
</clipPath></defs></g>

<g fill="none" stroke="#000000" stroke-opacity="0.6" stroke-width="1" stroke-linecap="square" stroke-linejoin="bevel" transform="matrix(1,0,0,1,0,0)"
font-family="Helvetica" font-size="10" font-weight="400" font-style="normal" 
clip-path="url(#clip2099)" >
</g>

<g fill="none" stroke="#000000" stroke-opacity="0.6" stroke-width="1" stroke-linecap="square" stroke-linejoin="bevel" transform="matrix(1.25712,0,0,1.25712,2.51424,104.341)"
font-family="Helvetica" font-size="10" font-weight="400" font-style="normal" 
clip-path="url(#clip2099)" >
</g>

<g fill="none" stroke="#000000" stroke-opacity="0.6" stroke-width="1" stroke-linecap="square" stroke-linejoin="bevel" transform="matrix(1.25712,0,0,1.25712,2.51424,104.341)"
font-family="Helvetica" font-size="10" font-weight="400" font-style="normal" 
clip-path="url(#clip2099)" >
</g>

<g fill="none" stroke="#000000" stroke-opacity="0.6" stroke-width="1" stroke-linecap="square" stroke-linejoin="bevel" transform="matrix(1.25712,0,0,1.25712,100,104.341)"
font-family="Helvetica" font-size="10" font-weight="400" font-style="normal" 
clip-path="url(#clip2100)" >
<defs><clipPath id="clip2100"><path vector-effect="non-scaling-stroke" fill-rule="evenodd" d="M-79.5469,-83 L79.5469,-83 L79.5469,17 L-79.5469,17 L-79.5469,-83z "/>
</clipPath></defs></g>

<g fill="none" stroke="#000000" stroke-opacity="1" stroke-width="1" stroke-linecap="square" stroke-linejoin="bevel" transform="matrix(1.25712,0,0,1.25712,100,104.341)"
font-family="Helvetica" font-size="12.5" font-weight="400" font-style="normal" 
clip-path="url(#clip2100)" >
</g>

<g fill="none" stroke="#000000" stroke-opacity="1" stroke-width="1" stroke-linecap="square" stroke-linejoin="bevel" transform="matrix(1,0,0,1,0,0)"
font-family="Helvetica" font-size="12.5" font-weight="400" font-style="normal" 
>
</g>

<g fill="none" stroke="#000000" stroke-opacity="1" stroke-width="1" stroke-linecap="square" stroke-linejoin="bevel" transform="matrix(1,0,0,1,0,0)"
font-family="Helvetica" font-size="12.5" font-weight="400" font-style="normal" 
>
</g>

<g fill="none" stroke="#000000" stroke-opacity="1" stroke-width="1" stroke-linecap="square" stroke-linejoin="bevel" transform="matrix(1,0,0,1,0,0)"
font-family="Helvetica" font-size="12.5" font-weight="400" font-style="normal" 
clip-path="url(#clip2101)" >
<defs><clipPath id="clip2101"><path vector-effect="non-scaling-stroke" fill-rule="evenodd" d="M0,0 L200,0 L200,125 L0,125 L0,0z "/>
</clipPath></defs></g>

<g fill="none" stroke="#000000" stroke-opacity="1" stroke-width="1" stroke-linecap="square" stroke-linejoin="bevel" transform="matrix(1,0,0,1,0,0)"
font-family="Helvetica" font-size="12.5" font-weight="400" font-style="normal" 
>
</g>

<g fill="none" stroke="#000000" stroke-opacity="1" stroke-width="1" stroke-linecap="square" stroke-linejoin="bevel" transform="matrix(1,0,0,1,0,0)"
font-family="Helvetica" font-size="12.5" font-weight="400" font-style="normal" 
>
</g>

<g fill="none" stroke="#000000" stroke-opacity="1" stroke-width="1" stroke-linecap="square" stroke-linejoin="bevel" transform="matrix(1,0,0,1,0,0)"
font-family="Helvetica" font-size="12.5" font-weight="400" font-style="normal" 
clip-path="url(#clip2102)" >
<defs><clipPath id="clip2102"><path vector-effect="non-scaling-stroke" fill-rule="evenodd" d="M0,0 L1,0 L1,1 L0,1 L0,0z "/>
</clipPath></defs></g>

<g fill="none" stroke="#000000" stroke-opacity="1" stroke-width="1" stroke-linecap="square" stroke-linejoin="bevel" transform="matrix(1,0,0,1,0,0)"
font-family="Helvetica" font-size="12.5" font-weight="400" font-style="normal" 
>
</g>

<g fill="none" stroke="#000000" stroke-opacity="1" stroke-width="1" stroke-linecap="square" stroke-linejoin="bevel" transform="matrix(1,0,0,1,0,0)"
font-family="Helvetica" font-size="12.5" font-weight="400" font-style="normal" 
>
</g>
</g>
</svg>
