<?xml version="1.0" encoding="UTF-8" standalone="no"?>
<svg width="67.7333mm" height="28.448mm"
 viewBox="0 0 200 84"
 xmlns="http://www.w3.org/2000/svg" xmlns:xlink="http://www.w3.org/1999/xlink"  version="1.2" baseProfile="tiny">
<defs>
</defs>
<g fill="none" stroke="black" stroke-width="1" fill-rule="evenodd" stroke-linecap="square" stroke-linejoin="bevel" >

<g fill="#ffffff" fill-opacity="0" stroke="none" transform="matrix(1,0,0,1,0,0)"
font-family="Helvetica" font-size="12.5" font-weight="400" font-style="normal" 
>
<path vector-effect="non-scaling-stroke" fill-rule="evenodd" d="M0,0 L200,0 L200,84 L0,84 L0,0z "/>
</g>

<g fill="none" stroke="#000000" stroke-opacity="1" stroke-width="1" stroke-linecap="square" stroke-linejoin="bevel" transform="matrix(1,0,0,1,0,0)"
font-family="Helvetica" font-size="12.5" font-weight="400" font-style="normal" 
>
</g>

<g fill="none" stroke="#000000" stroke-opacity="1" stroke-width="1" stroke-linecap="square" stroke-linejoin="bevel" transform="matrix(1,0,0,1,0,0)"
font-family="Helvetica" font-size="12.5" font-weight="400" font-style="normal" 
clip-path="url(#clip3557)" >
<defs><clipPath id="clip3557"><path vector-effect="non-scaling-stroke" fill-rule="evenodd" d="M0,0 L200,0 L200,84.5361 L0,84.5361 L0,0z "/>
</clipPath></defs></g>

<g fill="none" stroke="#000000" stroke-opacity="1" stroke-width="1" stroke-linecap="square" stroke-linejoin="bevel" transform="matrix(1.03093,0,0,1.03093,192.784,62.8866)"
font-family="Helvetica" font-size="12.5" font-weight="400" font-style="normal" 
clip-path="url(#clip3558)" >
<defs><clipPath id="clip3558"><path vector-effect="non-scaling-stroke" fill-rule="evenodd" d="M-187,-61 L7,-61 L7,21 L-187,21 L-187,-61z "/>
</clipPath></defs></g>

<g fill="#000000" fill-opacity="0" stroke="#000000" stroke-opacity="1" stroke-width="2" stroke-linecap="round" stroke-linejoin="miter" stroke-miterlimit="2" transform="matrix(1.03093,0,0,1.03093,192.784,62.8866)"
font-family="Helvetica" font-size="12.5" font-weight="400" font-style="normal" 
clip-path="url(#clip3558)" >
<path vector-effect="none" fill-rule="evenodd" d="M0,-5 L5,0 L0,5"/>
</g>

<g fill="none" stroke="#000000" stroke-opacity="1" stroke-width="1" stroke-linecap="square" stroke-linejoin="bevel" transform="matrix(1.03093,0,0,1.03093,192.784,62.8866)"
font-family="Helvetica" font-size="12.5" font-weight="400" font-style="normal" 
clip-path="url(#clip3558)" >
</g>

<g fill="none" stroke="#000000" stroke-opacity="1" stroke-width="1" stroke-linecap="square" stroke-linejoin="bevel" transform="matrix(1.03093,0,0,1.03093,192.784,21.6495)"
font-family="Helvetica" font-size="12.5" font-weight="400" font-style="normal" 
clip-path="url(#clip3559)" >
<defs><clipPath id="clip3559"><path vector-effect="non-scaling-stroke" fill-rule="evenodd" d="M-187,-21 L7,-21 L7,61 L-187,61 L-187,-21z "/>
</clipPath></defs></g>

<g fill="#000000" fill-opacity="0" stroke="#000000" stroke-opacity="1" stroke-width="2" stroke-linecap="round" stroke-linejoin="miter" stroke-miterlimit="2" transform="matrix(1.03093,0,0,1.03093,192.784,21.6495)"
font-family="Helvetica" font-size="12.5" font-weight="400" font-style="normal" 
clip-path="url(#clip3559)" >
<path vector-effect="none" fill-rule="evenodd" d="M0,-5 L5,0 L0,5"/>
</g>

<g fill="none" stroke="#000000" stroke-opacity="1" stroke-width="1" stroke-linecap="square" stroke-linejoin="bevel" transform="matrix(1.03093,0,0,1.03093,192.784,21.6495)"
font-family="Helvetica" font-size="12.5" font-weight="400" font-style="normal" 
clip-path="url(#clip3559)" >
</g>

<g fill="none" stroke="#000000" stroke-opacity="1" stroke-width="1" stroke-linecap="square" stroke-linejoin="bevel" transform="matrix(-1.03093,0,0,-1.03093,7.21649,68.0412)"
font-family="Helvetica" font-size="12.5" font-weight="400" font-style="normal" 
clip-path="url(#clip3560)" >
<defs><clipPath id="clip3560"><path vector-effect="non-scaling-stroke" fill-rule="evenodd" d="M7,66 L-187,66 L-187,-16 L7,-16 L7,66z "/>
</clipPath></defs></g>

<g fill="#000000" fill-opacity="0" stroke="#000000" stroke-opacity="1" stroke-width="2" stroke-linecap="round" stroke-linejoin="miter" stroke-miterlimit="2" transform="matrix(-1.03093,0,0,-1.03093,7.21649,68.0412)"
font-family="Helvetica" font-size="12.5" font-weight="400" font-style="normal" 
clip-path="url(#clip3560)" >
<path vector-effect="none" fill-rule="evenodd" d="M5,-5 L0,0 L5,5"/>
</g>

<g fill="none" stroke="#000000" stroke-opacity="1" stroke-width="1" stroke-linecap="square" stroke-linejoin="bevel" transform="matrix(-1.03093,0,0,-1.03093,7.21649,68.0412)"
font-family="Helvetica" font-size="12.5" font-weight="400" font-style="normal" 
clip-path="url(#clip3560)" >
</g>

<g fill="none" stroke="#000000" stroke-opacity="1" stroke-width="1" stroke-linecap="square" stroke-linejoin="bevel" transform="matrix(-1.03093,0,0,-1.03093,7.21649,42.268)"
font-family="Helvetica" font-size="12.5" font-weight="400" font-style="normal" 
clip-path="url(#clip3561)" >
<defs><clipPath id="clip3561"><path vector-effect="non-scaling-stroke" fill-rule="evenodd" d="M7,41 L-187,41 L-187,-41 L7,-41 L7,41z "/>
</clipPath></defs></g>

<g fill="#000000" fill-opacity="0" stroke="#000000" stroke-opacity="1" stroke-width="2" stroke-linecap="round" stroke-linejoin="miter" stroke-miterlimit="2" transform="matrix(-1.03093,0,0,-1.03093,7.21649,42.268)"
font-family="Helvetica" font-size="12.5" font-weight="400" font-style="normal" 
clip-path="url(#clip3561)" >
<path vector-effect="none" fill-rule="evenodd" d="M5,-5 L0,0 L5,5"/>
</g>

<g fill="none" stroke="#000000" stroke-opacity="1" stroke-width="1" stroke-linecap="square" stroke-linejoin="bevel" transform="matrix(-1.03093,0,0,-1.03093,7.21649,42.268)"
font-family="Helvetica" font-size="12.5" font-weight="400" font-style="normal" 
clip-path="url(#clip3561)" >
</g>

<g fill="none" stroke="#000000" stroke-opacity="1" stroke-width="1" stroke-linecap="square" stroke-linejoin="bevel" transform="matrix(-1.03093,0,0,-1.03093,7.21649,16.4948)"
font-family="Helvetica" font-size="12.5" font-weight="400" font-style="normal" 
clip-path="url(#clip3562)" >
<defs><clipPath id="clip3562"><path vector-effect="non-scaling-stroke" fill-rule="evenodd" d="M7,16 L-187,16 L-187,-66 L7,-66 L7,16z "/>
</clipPath></defs></g>

<g fill="#000000" fill-opacity="0" stroke="#000000" stroke-opacity="1" stroke-width="2" stroke-linecap="round" stroke-linejoin="miter" stroke-miterlimit="2" transform="matrix(-1.03093,0,0,-1.03093,7.21649,16.4948)"
font-family="Helvetica" font-size="12.5" font-weight="400" font-style="normal" 
clip-path="url(#clip3562)" >
<path vector-effect="none" fill-rule="evenodd" d="M5,-5 L0,0 L5,5"/>
</g>

<g fill="none" stroke="#000000" stroke-opacity="1" stroke-width="1" stroke-linecap="square" stroke-linejoin="bevel" transform="matrix(-1.03093,0,0,-1.03093,7.21649,16.4948)"
font-family="Helvetica" font-size="12.5" font-weight="400" font-style="normal" 
clip-path="url(#clip3562)" >
</g>

<g fill="none" stroke="#000000" stroke-opacity="1" stroke-width="1" stroke-linecap="square" stroke-linejoin="bevel" transform="matrix(1.03093,0,0,1.03093,7.21649,2.06186)"
font-family="Helvetica" font-size="12.5" font-weight="400" font-style="normal" 
clip-path="url(#clip3563)" >
<defs><clipPath id="clip3563"><path vector-effect="non-scaling-stroke" fill-rule="evenodd" d="M-7,-2 L187,-2 L187,80 L-7,80 L-7,-2z "/>
</clipPath></defs></g>

<g fill="#ffffff" fill-opacity="1" stroke="none" transform="matrix(1.03093,0,0,1.03093,7.21649,2.06186)"
font-family="Helvetica" font-size="12.5" font-weight="400" font-style="normal" 
clip-path="url(#clip3563)" >
<path vector-effect="none" fill-rule="evenodd" d="M0,0 L180,0 L180,78 L0,78 L0,0z "/>
</g>

<g fill="none" stroke="#000000" stroke-opacity="1" stroke-width="1" stroke-linecap="square" stroke-linejoin="bevel" transform="matrix(1.03093,0,0,1.03093,7.21649,2.06186)"
font-family="Helvetica" font-size="12.5" font-weight="400" font-style="normal" 
clip-path="url(#clip3563)" >
</g>

<g fill="none" stroke="#000000" stroke-opacity="1" stroke-width="1" stroke-linecap="square" stroke-linejoin="bevel" transform="matrix(1.03093,0,0,1.03093,7.21649,2.06186)"
font-family="Helvetica" font-size="12.5" font-weight="400" font-style="normal" 
clip-path="url(#clip3563)" >
</g>

<g fill="none" stroke="#000000" stroke-opacity="1" stroke-width="1" stroke-linecap="square" stroke-linejoin="bevel" transform="matrix(1.03093,0,0,1.03093,7.21649,2.06186)"
font-family="Helvetica" font-size="12.5" font-weight="400" font-style="normal" 
clip-path="url(#clip3564)" >
<defs><clipPath id="clip3564"><path vector-effect="non-scaling-stroke" fill-rule="evenodd" d="M0,0 L180,0 L180,78 L0,78 L0,0z "/>
</clipPath></defs></g>

<g fill="none" stroke="#000000" stroke-opacity="1" stroke-width="1" stroke-linecap="square" stroke-linejoin="bevel" transform="matrix(1.03093,0,0,1.03093,10.3093,21.6495)"
font-family="Liberation Sans" font-size="10" font-weight="400" font-style="normal" 
clip-path="url(#clip3565)" >
<defs><clipPath id="clip3565"><path vector-effect="none" fill-rule="evenodd" d="M-3,-19 L177,-19 L177,59 L-3,59 L-3,-19z "/>
</clipPath></defs></g>

<g fill="none" stroke="#000000" stroke-opacity="1" stroke-width="1" stroke-linecap="square" stroke-linejoin="bevel" transform="matrix(1.03093,0,0,1.03093,10.3093,21.6495)"
font-family="Liberation Sans" font-size="10" font-weight="400" font-style="normal" 
clip-path="url(#clip3565)" >
<text textLength="24" fill="#000000" fill-opacity="1" stroke="none" xml:space="preserve" x="0" y="0" font-family="Liberation Sans" font-size="10" font-weight="400" font-style="normal" 
 >h (m)</text>
</g>

<g fill="none" stroke="#000000" stroke-opacity="1" stroke-width="1" stroke-linecap="square" stroke-linejoin="bevel" transform="matrix(1.03093,0,0,1.03093,10.3093,21.6495)"
font-family="Liberation Sans" font-size="10" font-weight="400" font-style="normal" 
clip-path="url(#clip3565)" >
</g>

<g fill="none" stroke="#000000" stroke-opacity="1" stroke-width="1" stroke-linecap="square" stroke-linejoin="bevel" transform="matrix(1.03093,0,0,1.03093,10.3093,47.4227)"
font-family="Liberation Sans" font-size="10" font-weight="400" font-style="normal" 
clip-path="url(#clip3566)" >
<defs><clipPath id="clip3566"><path vector-effect="none" fill-rule="evenodd" d="M-3,-44 L177,-44 L177,34 L-3,34 L-3,-44z "/>
</clipPath></defs></g>

<g fill="none" stroke="#000000" stroke-opacity="1" stroke-width="1" stroke-linecap="square" stroke-linejoin="bevel" transform="matrix(1.03093,0,0,1.03093,10.3093,47.4227)"
font-family="Liberation Sans" font-size="10" font-weight="400" font-style="normal" 
clip-path="url(#clip3566)" >
<text textLength="32" fill="#000000" fill-opacity="1" stroke="none" xml:space="preserve" x="0" y="0" font-family="Liberation Sans" font-size="10" font-weight="400" font-style="normal" 
 >V (m/s)</text>
</g>

<g fill="none" stroke="#000000" stroke-opacity="1" stroke-width="1" stroke-linecap="square" stroke-linejoin="bevel" transform="matrix(1.03093,0,0,1.03093,10.3093,47.4227)"
font-family="Liberation Sans" font-size="10" font-weight="400" font-style="normal" 
clip-path="url(#clip3566)" >
</g>

<g fill="none" stroke="#000000" stroke-opacity="1" stroke-width="1" stroke-linecap="square" stroke-linejoin="bevel" transform="matrix(1.03093,0,0,1.03093,10.3093,73.1959)"
font-family="Liberation Sans" font-size="10" font-weight="400" font-style="normal" 
clip-path="url(#clip3567)" >
<defs><clipPath id="clip3567"><path vector-effect="none" fill-rule="evenodd" d="M-3,-69 L177,-69 L177,9 L-3,9 L-3,-69z "/>
</clipPath></defs></g>

<g fill="none" stroke="#000000" stroke-opacity="1" stroke-width="1" stroke-linecap="square" stroke-linejoin="bevel" transform="matrix(1.03093,0,0,1.03093,10.3093,73.1959)"
font-family="Liberation Sans" font-size="10" font-weight="400" font-style="normal" 
clip-path="url(#clip3567)" >
<text textLength="23" fill="#000000" fill-opacity="1" stroke="none" xml:space="preserve" x="0" y="0" font-family="Liberation Sans" font-size="10" font-weight="400" font-style="normal" 
 >DCM</text>
</g>

<g fill="none" stroke="#000000" stroke-opacity="1" stroke-width="1" stroke-linecap="square" stroke-linejoin="bevel" transform="matrix(1.03093,0,0,1.03093,10.3093,73.1959)"
font-family="Liberation Sans" font-size="10" font-weight="400" font-style="normal" 
clip-path="url(#clip3567)" >
</g>

<g fill="none" stroke="#000000" stroke-opacity="1" stroke-width="1" stroke-linecap="square" stroke-linejoin="bevel" transform="matrix(1.03093,0,0,1.03093,139.175,23.7113)"
font-family="Liberation Sans" font-size="10" font-weight="400" font-style="normal" 
clip-path="url(#clip3568)" >
<defs><clipPath id="clip3568"><path vector-effect="none" fill-rule="evenodd" d="M-128,-21 L52,-21 L52,57 L-128,57 L-128,-21z "/>
</clipPath></defs></g>

<g fill="none" stroke="#000000" stroke-opacity="1" stroke-width="1" stroke-linecap="square" stroke-linejoin="bevel" transform="matrix(1.03093,0,0,1.03093,139.175,23.7113)"
font-family="Liberation Sans" font-size="10" font-weight="400" font-style="normal" 
clip-path="url(#clip3568)" >
<text textLength="7" fill="#000000" fill-opacity="1" stroke="none" xml:space="preserve" x="0" y="0" font-family="Liberation Sans" font-size="10" font-weight="400" font-style="normal" 
 >V</text>
</g>

<g fill="none" stroke="#000000" stroke-opacity="1" stroke-width="1" stroke-linecap="square" stroke-linejoin="bevel" transform="matrix(1.03093,0,0,1.03093,139.175,23.7113)"
font-family="Liberation Sans" font-size="10" font-weight="400" font-style="normal" 
clip-path="url(#clip3568)" >
</g>

<g fill="none" stroke="#000000" stroke-opacity="1" stroke-width="1" stroke-linecap="square" stroke-linejoin="bevel" transform="matrix(1.03093,0,0,1.03093,146.392,28.866)"
font-family="Liberation Sans" font-size="8" font-weight="400" font-style="normal" 
clip-path="url(#clip3569)" >
<defs><clipPath id="clip3569"><path vector-effect="none" fill-rule="evenodd" d="M-135,-26 L45,-26 L45,52 L-135,52 L-135,-26z "/>
</clipPath></defs></g>

<g fill="none" stroke="#000000" stroke-opacity="1" stroke-width="1" stroke-linecap="square" stroke-linejoin="bevel" transform="matrix(1.03093,0,0,1.03093,146.392,28.866)"
font-family="Liberation Sans" font-size="8" font-weight="400" font-style="normal" 
clip-path="url(#clip3569)" >
<text textLength="17" fill="#000000" fill-opacity="1" stroke="none" xml:space="preserve" x="0" y="0" font-family="Liberation Sans" font-size="8" font-weight="400" font-style="normal" 
 >Wind</text>
</g>

<g fill="none" stroke="#000000" stroke-opacity="1" stroke-width="1" stroke-linecap="square" stroke-linejoin="bevel" transform="matrix(1.03093,0,0,1.03093,146.392,28.866)"
font-family="Liberation Sans" font-size="8" font-weight="400" font-style="normal" 
clip-path="url(#clip3569)" >
</g>

<g fill="none" stroke="#000000" stroke-opacity="1" stroke-width="1" stroke-linecap="square" stroke-linejoin="bevel" transform="matrix(1.03093,0,0,1.03093,163.918,23.7113)"
font-family="Liberation Sans" font-size="10" font-weight="400" font-style="normal" 
clip-path="url(#clip3570)" >
<defs><clipPath id="clip3570"><path vector-effect="none" fill-rule="evenodd" d="M-152,-21 L28,-21 L28,57 L-152,57 L-152,-21z "/>
</clipPath></defs></g>

<g fill="none" stroke="#000000" stroke-opacity="1" stroke-width="1" stroke-linecap="square" stroke-linejoin="bevel" transform="matrix(1.03093,0,0,1.03093,163.918,23.7113)"
font-family="Liberation Sans" font-size="10" font-weight="400" font-style="normal" 
clip-path="url(#clip3570)" >
<text textLength="25" fill="#000000" fill-opacity="1" stroke="none" xml:space="preserve" x="0" y="0" font-family="Liberation Sans" font-size="10" font-weight="400" font-style="normal" 
 > (m/s)</text>
</g>

<g fill="none" stroke="#000000" stroke-opacity="1" stroke-width="1" stroke-linecap="square" stroke-linejoin="bevel" transform="matrix(1.03093,0,0,1.03093,163.918,23.7113)"
font-family="Liberation Sans" font-size="10" font-weight="400" font-style="normal" 
clip-path="url(#clip3570)" >
</g>

<g fill="none" stroke="#000000" stroke-opacity="1" stroke-width="1" stroke-linecap="square" stroke-linejoin="bevel" transform="matrix(1.03093,0,0,1.03093,134.021,64.9485)"
font-family="Liberation Sans" font-size="10" font-weight="400" font-style="normal" 
clip-path="url(#clip3571)" >
<defs><clipPath id="clip3571"><path vector-effect="none" fill-rule="evenodd" d="M-123,-61 L57,-61 L57,17 L-123,17 L-123,-61z "/>
</clipPath></defs></g>

<g fill="none" stroke="#000000" stroke-opacity="1" stroke-width="1" stroke-linecap="square" stroke-linejoin="bevel" transform="matrix(1.03093,0,0,1.03093,134.021,64.9485)"
font-family="Liberation Sans" font-size="10" font-weight="400" font-style="normal" 
clip-path="url(#clip3571)" >
<text textLength="8" fill="#000000" fill-opacity="1" stroke="none" xml:space="preserve" x="0" y="0" font-family="Liberation Sans" font-size="10" font-weight="400" font-style="normal" 
 >ω</text>
</g>

<g fill="none" stroke="#000000" stroke-opacity="1" stroke-width="1" stroke-linecap="square" stroke-linejoin="bevel" transform="matrix(1.03093,0,0,1.03093,134.021,64.9485)"
font-family="Liberation Sans" font-size="10" font-weight="400" font-style="normal" 
clip-path="url(#clip3571)" >
</g>

<g fill="none" stroke="#000000" stroke-opacity="1" stroke-width="1" stroke-linecap="square" stroke-linejoin="bevel" transform="matrix(1.03093,0,0,1.03093,142.268,70.1031)"
font-family="Liberation Sans" font-size="8" font-weight="400" font-style="normal" 
clip-path="url(#clip3572)" >
<defs><clipPath id="clip3572"><path vector-effect="none" fill-rule="evenodd" d="M-131,-66 L49,-66 L49,12 L-131,12 L-131,-66z "/>
</clipPath></defs></g>

<g fill="none" stroke="#000000" stroke-opacity="1" stroke-width="1" stroke-linecap="square" stroke-linejoin="bevel" transform="matrix(1.03093,0,0,1.03093,142.268,70.1031)"
font-family="Liberation Sans" font-size="8" font-weight="400" font-style="normal" 
clip-path="url(#clip3572)" >
<text textLength="15" fill="#000000" fill-opacity="1" stroke="none" xml:space="preserve" x="0" y="0" font-family="Liberation Sans" font-size="8" font-weight="400" font-style="normal" 
 >wind</text>
</g>

<g fill="none" stroke="#000000" stroke-opacity="1" stroke-width="1" stroke-linecap="square" stroke-linejoin="bevel" transform="matrix(1.03093,0,0,1.03093,142.268,70.1031)"
font-family="Liberation Sans" font-size="8" font-weight="400" font-style="normal" 
clip-path="url(#clip3572)" >
</g>

<g fill="none" stroke="#000000" stroke-opacity="1" stroke-width="1" stroke-linecap="square" stroke-linejoin="bevel" transform="matrix(1.03093,0,0,1.03093,157.732,64.9485)"
font-family="Liberation Sans" font-size="10" font-weight="400" font-style="normal" 
clip-path="url(#clip3573)" >
<defs><clipPath id="clip3573"><path vector-effect="none" fill-rule="evenodd" d="M-146,-61 L34,-61 L34,17 L-146,17 L-146,-61z "/>
</clipPath></defs></g>

<g fill="none" stroke="#000000" stroke-opacity="1" stroke-width="1" stroke-linecap="square" stroke-linejoin="bevel" transform="matrix(1.03093,0,0,1.03093,157.732,64.9485)"
font-family="Liberation Sans" font-size="10" font-weight="400" font-style="normal" 
clip-path="url(#clip3573)" >
<text textLength="31" fill="#000000" fill-opacity="1" stroke="none" xml:space="preserve" x="0" y="0" font-family="Liberation Sans" font-size="10" font-weight="400" font-style="normal" 
 > (rad/s)</text>
</g>

<g fill="none" stroke="#000000" stroke-opacity="1" stroke-width="1" stroke-linecap="square" stroke-linejoin="bevel" transform="matrix(1.03093,0,0,1.03093,157.732,64.9485)"
font-family="Liberation Sans" font-size="10" font-weight="400" font-style="normal" 
clip-path="url(#clip3573)" >
</g>

<g fill="none" stroke="#000000" stroke-opacity="1" stroke-width="1" stroke-linecap="square" stroke-linejoin="bevel" transform="matrix(1.03093,0,0,1.03093,-476.804,-153.093)"
font-family="Liberation Sans" font-size="10" font-weight="400" font-style="normal" 
clip-path="url(#clip3574)" >
<defs><clipPath id="clip3574"><path vector-effect="none" fill-rule="evenodd" d="M470,151 L650,151 L650,229 L470,229 L470,151z "/>
</clipPath></defs><polyline fill="none" vector-effect="none" points="545,165 545,201 " />
</g>

<g fill="none" stroke="#000000" stroke-opacity="1" stroke-width="1" stroke-linecap="square" stroke-linejoin="bevel" transform="matrix(1.03093,0,0,1.03093,-476.804,-153.093)"
font-family="Liberation Sans" font-size="10" font-weight="400" font-style="normal" 
clip-path="url(#clip3574)" >
<polyline fill="none" vector-effect="none" points="545,201 552,200 " />
</g>

<g fill="none" stroke="#000000" stroke-opacity="1" stroke-width="1" stroke-linecap="square" stroke-linejoin="bevel" transform="matrix(1.03093,0,0,1.03093,-476.804,-153.093)"
font-family="Liberation Sans" font-size="10" font-weight="400" font-style="normal" 
clip-path="url(#clip3574)" >
<polyline fill="none" vector-effect="none" points="552,200 556,199 " />
</g>

<g fill="none" stroke="#000000" stroke-opacity="1" stroke-width="1" stroke-linecap="square" stroke-linejoin="bevel" transform="matrix(1.03093,0,0,1.03093,-476.804,-153.093)"
font-family="Liberation Sans" font-size="10" font-weight="400" font-style="normal" 
clip-path="url(#clip3574)" >
<polyline fill="none" vector-effect="none" points="556,199 560,197 " />
</g>

<g fill="none" stroke="#000000" stroke-opacity="1" stroke-width="1" stroke-linecap="square" stroke-linejoin="bevel" transform="matrix(1.03093,0,0,1.03093,-476.804,-153.093)"
font-family="Liberation Sans" font-size="10" font-weight="400" font-style="normal" 
clip-path="url(#clip3574)" >
<polyline fill="none" vector-effect="none" points="560,197 564,194 " />
</g>

<g fill="none" stroke="#000000" stroke-opacity="1" stroke-width="1" stroke-linecap="square" stroke-linejoin="bevel" transform="matrix(1.03093,0,0,1.03093,-476.804,-153.093)"
font-family="Liberation Sans" font-size="10" font-weight="400" font-style="normal" 
clip-path="url(#clip3574)" >
<polyline fill="none" vector-effect="none" points="564,194 568,189 " />
</g>

<g fill="none" stroke="#000000" stroke-opacity="1" stroke-width="1" stroke-linecap="square" stroke-linejoin="bevel" transform="matrix(1.03093,0,0,1.03093,-476.804,-153.093)"
font-family="Liberation Sans" font-size="10" font-weight="400" font-style="normal" 
clip-path="url(#clip3574)" >
<polyline fill="none" vector-effect="none" points="568,189 571,179 " />
</g>

<g fill="none" stroke="#000000" stroke-opacity="1" stroke-width="1" stroke-linecap="square" stroke-linejoin="bevel" transform="matrix(1.03093,0,0,1.03093,-476.804,-153.093)"
font-family="Liberation Sans" font-size="10" font-weight="400" font-style="normal" 
clip-path="url(#clip3574)" >
<polyline fill="none" vector-effect="none" points="571,179 575,165 " />
</g>

<g fill="none" stroke="#000000" stroke-opacity="1" stroke-width="1" stroke-linecap="square" stroke-linejoin="bevel" transform="matrix(1.03093,0,0,1.03093,-476.804,-153.093)"
font-family="Liberation Sans" font-size="10" font-weight="400" font-style="normal" 
clip-path="url(#clip3574)" >
<polyline fill="none" vector-effect="none" points="546,168 571,168 " />
</g>

<g fill="none" stroke="#000000" stroke-opacity="1" stroke-width="1" stroke-linecap="square" stroke-linejoin="bevel" transform="matrix(1.03093,0,0,1.03093,-476.804,-153.093)"
font-family="Liberation Sans" font-size="10" font-weight="400" font-style="normal" 
clip-path="url(#clip3574)" >
<polyline fill="none" vector-effect="none" points="571,168 569,166 " />
</g>

<g fill="none" stroke="#000000" stroke-opacity="1" stroke-width="1" stroke-linecap="square" stroke-linejoin="bevel" transform="matrix(1.03093,0,0,1.03093,-476.804,-153.093)"
font-family="Liberation Sans" font-size="10" font-weight="400" font-style="normal" 
clip-path="url(#clip3574)" >
<polyline fill="none" vector-effect="none" points="569,166 569,169 " />
</g>

<g fill="none" stroke="#000000" stroke-opacity="1" stroke-width="1" stroke-linecap="square" stroke-linejoin="bevel" transform="matrix(1.03093,0,0,1.03093,-476.804,-153.093)"
font-family="Liberation Sans" font-size="10" font-weight="400" font-style="normal" 
clip-path="url(#clip3574)" >
<polyline fill="none" vector-effect="none" points="569,169 571,168 " />
</g>

<g fill="none" stroke="#000000" stroke-opacity="1" stroke-width="1" stroke-linecap="square" stroke-linejoin="bevel" transform="matrix(1.03093,0,0,1.03093,-476.804,-153.093)"
font-family="Liberation Sans" font-size="10" font-weight="400" font-style="normal" 
clip-path="url(#clip3574)" >
<polyline fill="none" vector-effect="none" points="546,176 569,176 " />
</g>

<g fill="none" stroke="#000000" stroke-opacity="1" stroke-width="1" stroke-linecap="square" stroke-linejoin="bevel" transform="matrix(1.03093,0,0,1.03093,-476.804,-153.093)"
font-family="Liberation Sans" font-size="10" font-weight="400" font-style="normal" 
clip-path="url(#clip3574)" >
<polyline fill="none" vector-effect="none" points="569,176 567,175 " />
</g>

<g fill="none" stroke="#000000" stroke-opacity="1" stroke-width="1" stroke-linecap="square" stroke-linejoin="bevel" transform="matrix(1.03093,0,0,1.03093,-476.804,-153.093)"
font-family="Liberation Sans" font-size="10" font-weight="400" font-style="normal" 
clip-path="url(#clip3574)" >
<polyline fill="none" vector-effect="none" points="567,175 567,178 " />
</g>

<g fill="none" stroke="#000000" stroke-opacity="1" stroke-width="1" stroke-linecap="square" stroke-linejoin="bevel" transform="matrix(1.03093,0,0,1.03093,-476.804,-153.093)"
font-family="Liberation Sans" font-size="10" font-weight="400" font-style="normal" 
clip-path="url(#clip3574)" >
<polyline fill="none" vector-effect="none" points="567,178 569,176 " />
</g>

<g fill="none" stroke="#000000" stroke-opacity="1" stroke-width="1" stroke-linecap="square" stroke-linejoin="bevel" transform="matrix(1.03093,0,0,1.03093,-476.804,-153.093)"
font-family="Liberation Sans" font-size="10" font-weight="400" font-style="normal" 
clip-path="url(#clip3574)" >
<polyline fill="none" vector-effect="none" points="546,185 566,185 " />
</g>

<g fill="none" stroke="#000000" stroke-opacity="1" stroke-width="1" stroke-linecap="square" stroke-linejoin="bevel" transform="matrix(1.03093,0,0,1.03093,-476.804,-153.093)"
font-family="Liberation Sans" font-size="10" font-weight="400" font-style="normal" 
clip-path="url(#clip3574)" >
<polyline fill="none" vector-effect="none" points="566,185 564,184 " />
</g>

<g fill="none" stroke="#000000" stroke-opacity="1" stroke-width="1" stroke-linecap="square" stroke-linejoin="bevel" transform="matrix(1.03093,0,0,1.03093,-476.804,-153.093)"
font-family="Liberation Sans" font-size="10" font-weight="400" font-style="normal" 
clip-path="url(#clip3574)" >
<polyline fill="none" vector-effect="none" points="564,184 564,186 " />
</g>

<g fill="none" stroke="#000000" stroke-opacity="1" stroke-width="1" stroke-linecap="square" stroke-linejoin="bevel" transform="matrix(1.03093,0,0,1.03093,-476.804,-153.093)"
font-family="Liberation Sans" font-size="10" font-weight="400" font-style="normal" 
clip-path="url(#clip3574)" >
<polyline fill="none" vector-effect="none" points="564,186 566,185 " />
</g>

<g fill="none" stroke="#000000" stroke-opacity="1" stroke-width="1" stroke-linecap="square" stroke-linejoin="bevel" transform="matrix(1.03093,0,0,1.03093,-476.804,-153.093)"
font-family="Liberation Sans" font-size="10" font-weight="400" font-style="normal" 
clip-path="url(#clip3574)" >
<polyline fill="none" vector-effect="none" points="546,194 560,194 " />
</g>

<g fill="none" stroke="#000000" stroke-opacity="1" stroke-width="1" stroke-linecap="square" stroke-linejoin="bevel" transform="matrix(1.03093,0,0,1.03093,-476.804,-153.093)"
font-family="Liberation Sans" font-size="10" font-weight="400" font-style="normal" 
clip-path="url(#clip3574)" >
<polyline fill="none" vector-effect="none" points="560,194 558,192 " />
</g>

<g fill="none" stroke="#000000" stroke-opacity="1" stroke-width="1" stroke-linecap="square" stroke-linejoin="bevel" transform="matrix(1.03093,0,0,1.03093,-476.804,-153.093)"
font-family="Liberation Sans" font-size="10" font-weight="400" font-style="normal" 
clip-path="url(#clip3574)" >
<polyline fill="none" vector-effect="none" points="558,192 558,195 " />
</g>

<g fill="none" stroke="#000000" stroke-opacity="1" stroke-width="1" stroke-linecap="square" stroke-linejoin="bevel" transform="matrix(1.03093,0,0,1.03093,-476.804,-153.093)"
font-family="Liberation Sans" font-size="10" font-weight="400" font-style="normal" 
clip-path="url(#clip3574)" >
<polyline fill="none" vector-effect="none" points="558,195 560,194 " />
</g>

<g fill="none" stroke="#000000" stroke-opacity="1" stroke-width="1" stroke-linecap="square" stroke-linejoin="bevel" transform="matrix(1.03093,0,0,1.03093,-476.804,-153.093)"
font-family="Liberation Sans" font-size="10" font-weight="400" font-style="normal" 
clip-path="url(#clip3574)" >
<polyline fill="none" vector-effect="none" points="541,201 579,201 " />
</g>

<g fill="none" stroke="#000000" stroke-opacity="1" stroke-width="1" stroke-linecap="square" stroke-linejoin="bevel" transform="matrix(1.03093,0,0,1.03093,98.9691,58.7629)"
font-family="Liberation Sans" font-size="10" font-weight="400" font-style="normal" 
clip-path="url(#clip3575)" >
<defs><clipPath id="clip3575"><path vector-effect="none" fill-rule="evenodd" d="M-89,-55 L91,-55 L91,23 L-89,23 L-89,-55z "/>
</clipPath></defs></g>

<g fill="none" stroke="#000000" stroke-opacity="1" stroke-width="1" stroke-linecap="square" stroke-linejoin="bevel" transform="matrix(1.03093,0,0,1.03093,98.9691,58.7629)"
font-family="Liberation Sans" font-size="10" font-weight="400" font-style="normal" 
clip-path="url(#clip3575)" >
<text textLength="33" fill="#000000" fill-opacity="1" stroke="none" xml:space="preserve" x="-16" y="9" font-family="Liberation Sans" font-size="10" font-weight="400" font-style="normal" 
 >Dryden</text>
</g>

<g fill="none" stroke="#000000" stroke-opacity="1" stroke-width="1" stroke-linecap="square" stroke-linejoin="bevel" transform="matrix(1.03093,0,0,1.03093,98.9691,58.7629)"
font-family="Liberation Sans" font-size="10" font-weight="400" font-style="normal" 
clip-path="url(#clip3575)" >
</g>

<g fill="none" stroke="#000000" stroke-opacity="1" stroke-width="1" stroke-linecap="square" stroke-linejoin="bevel" transform="matrix(1.03093,0,0,1.03093,98.9691,69.0722)"
font-family="Liberation Sans" font-size="10" font-weight="400" font-style="normal" 
clip-path="url(#clip3576)" >
<defs><clipPath id="clip3576"><path vector-effect="none" fill-rule="evenodd" d="M-89,-65 L91,-65 L91,13 L-89,13 L-89,-65z "/>
</clipPath></defs></g>

<g fill="none" stroke="#000000" stroke-opacity="1" stroke-width="1" stroke-linecap="square" stroke-linejoin="bevel" transform="matrix(1.03093,0,0,1.03093,98.9691,69.0722)"
font-family="Liberation Sans" font-size="10" font-weight="400" font-style="normal" 
clip-path="url(#clip3576)" >
<text textLength="30" fill="#000000" fill-opacity="1" stroke="none" xml:space="preserve" x="-15" y="9" font-family="Liberation Sans" font-size="10" font-weight="400" font-style="normal" 
 >(+q +r)</text>
</g>

<g fill="none" stroke="#000000" stroke-opacity="1" stroke-width="1" stroke-linecap="square" stroke-linejoin="bevel" transform="matrix(1.03093,0,0,1.03093,98.9691,69.0722)"
font-family="Liberation Sans" font-size="10" font-weight="400" font-style="normal" 
clip-path="url(#clip3576)" >
</g>

<g fill="none" stroke="#000000" stroke-opacity="1" stroke-width="1" stroke-linecap="square" stroke-linejoin="bevel" transform="matrix(1.03093,0,0,1.03093,98.9691,15.4639)"
font-family="Liberation Sans" font-size="10" font-weight="400" font-style="normal" 
clip-path="url(#clip3577)" >
<defs><clipPath id="clip3577"><path vector-effect="none" fill-rule="evenodd" d="M-89,-13 L91,-13 L91,65 L-89,65 L-89,-13z "/>
</clipPath></defs></g>

<g fill="none" stroke="#000000" stroke-opacity="1" stroke-width="1" stroke-linecap="square" stroke-linejoin="bevel" transform="matrix(1.03093,0,0,1.03093,98.9691,15.4639)"
font-family="Liberation Sans" font-size="10" font-weight="400" font-style="normal" 
clip-path="url(#clip3577)" >
<text textLength="38" fill="#000000" fill-opacity="1" stroke="none" xml:space="preserve" x="-19" y="-2" font-family="Liberation Sans" font-size="10" font-weight="400" font-style="normal" 
 >Discrete</text>
</g>

<g fill="none" stroke="#000000" stroke-opacity="1" stroke-width="1" stroke-linecap="square" stroke-linejoin="bevel" transform="matrix(1.03093,0,0,1.03093,98.9691,15.4639)"
font-family="Liberation Sans" font-size="10" font-weight="400" font-style="normal" 
clip-path="url(#clip3577)" >
</g>

<g fill="none" stroke="#000000" stroke-opacity="1" stroke-width="1" stroke-linecap="square" stroke-linejoin="bevel" transform="matrix(1.03093,0,0,1.03093,98.9691,15.4639)"
font-family="Liberation Sans" font-size="10" font-weight="400" font-style="normal" 
clip-path="url(#clip3578)" >
<defs><clipPath id="clip3578"><path vector-effect="none" fill-rule="evenodd" d="M-7,-2 L187,-2 L187,80 L-7,80 L-7,-2z "/>
</clipPath></defs></g>

<g fill="none" stroke="#000000" stroke-opacity="1" stroke-width="1" stroke-linecap="square" stroke-linejoin="bevel" transform="matrix(1,0,0,1,0,0)"
font-family="Liberation Sans" font-size="10" font-weight="400" font-style="normal" 
clip-path="url(#clip3578)" >
</g>

<g fill="none" stroke="#000000" stroke-opacity="1" stroke-width="1" stroke-linecap="square" stroke-linejoin="bevel" transform="matrix(1.03093,0,0,1.03093,7.21649,2.06186)"
font-family="Helvetica" font-size="12.5" font-weight="400" font-style="normal" 
clip-path="url(#clip3578)" >
</g>

<g fill="none" stroke="#000000" stroke-opacity="1" stroke-width="1" stroke-linecap="square" stroke-linejoin="bevel" transform="matrix(1.03093,0,0,1.03093,7.21649,2.06186)"
font-family="Helvetica" font-size="12.5" font-weight="400" font-style="normal" 
clip-path="url(#clip3578)" >
</g>

<g fill="none" stroke="#000000" stroke-opacity="1" stroke-width="0.98789" stroke-linecap="butt" stroke-linejoin="miter" stroke-miterlimit="2" transform="matrix(1.03093,0,0,1.03093,7.21649,2.06186)"
font-family="Helvetica" font-size="12.5" font-weight="400" font-style="normal" 
clip-path="url(#clip3578)" >
<path vector-effect="none" fill-rule="evenodd" d="M0,0 L180,0 L180,78 L0,78 L0,0z "/>
</g>

<g fill="none" stroke="#000000" stroke-opacity="1" stroke-width="1" stroke-linecap="square" stroke-linejoin="bevel" transform="matrix(1.03093,0,0,1.03093,7.21649,2.06186)"
font-family="Helvetica" font-size="12.5" font-weight="400" font-style="normal" 
clip-path="url(#clip3578)" >
</g>

<g fill="none" stroke="#000000" stroke-opacity="1" stroke-width="1" stroke-linecap="square" stroke-linejoin="bevel" transform="matrix(1,0,0,1,0,0)"
font-family="Helvetica" font-size="12.5" font-weight="400" font-style="normal" 
>
</g>

<g fill="none" stroke="#000000" stroke-opacity="1" stroke-width="1" stroke-linecap="square" stroke-linejoin="bevel" transform="matrix(1,0,0,1,0,0)"
font-family="Helvetica" font-size="12.5" font-weight="400" font-style="normal" 
>
</g>

<g fill="none" stroke="#000000" stroke-opacity="1" stroke-width="1" stroke-linecap="square" stroke-linejoin="bevel" transform="matrix(1,0,0,1,0,0)"
font-family="Helvetica" font-size="12.5" font-weight="400" font-style="normal" 
clip-path="url(#clip3579)" >
<defs><clipPath id="clip3579"><path vector-effect="non-scaling-stroke" fill-rule="evenodd" d="M0,0 L200,0 L200,84 L0,84 L0,0z "/>
</clipPath></defs></g>

<g fill="none" stroke="#000000" stroke-opacity="1" stroke-width="1" stroke-linecap="square" stroke-linejoin="bevel" transform="matrix(1,0,0,1,0,0)"
font-family="Helvetica" font-size="12.5" font-weight="400" font-style="normal" 
>
</g>

<g fill="none" stroke="#000000" stroke-opacity="1" stroke-width="1" stroke-linecap="square" stroke-linejoin="bevel" transform="matrix(1,0,0,1,0,0)"
font-family="Helvetica" font-size="12.5" font-weight="400" font-style="normal" 
>
</g>

<g fill="none" stroke="#000000" stroke-opacity="1" stroke-width="1" stroke-linecap="square" stroke-linejoin="bevel" transform="matrix(1,0,0,1,0,0)"
font-family="Helvetica" font-size="12.5" font-weight="400" font-style="normal" 
clip-path="url(#clip3580)" >
<defs><clipPath id="clip3580"><path vector-effect="non-scaling-stroke" fill-rule="evenodd" d="M0,0 L1,0 L1,1 L0,1 L0,0z "/>
</clipPath></defs></g>

<g fill="none" stroke="#000000" stroke-opacity="1" stroke-width="1" stroke-linecap="square" stroke-linejoin="bevel" transform="matrix(1,0,0,1,0,0)"
font-family="Helvetica" font-size="12.5" font-weight="400" font-style="normal" 
>
</g>

<g fill="none" stroke="#000000" stroke-opacity="1" stroke-width="1" stroke-linecap="square" stroke-linejoin="bevel" transform="matrix(1,0,0,1,0,0)"
font-family="Helvetica" font-size="12.5" font-weight="400" font-style="normal" 
>
</g>
</g>
</svg>
