<?xml version="1.0" encoding="UTF-8" standalone="no"?>
<svg width="67.7333mm" height="22.0133mm"
 viewBox="0 0 200 65"
 xmlns="http://www.w3.org/2000/svg" xmlns:xlink="http://www.w3.org/1999/xlink"  version="1.2" baseProfile="tiny">
<defs>
</defs>
<g fill="none" stroke="black" stroke-width="1" fill-rule="evenodd" stroke-linecap="square" stroke-linejoin="bevel" >

<g fill="#ffffff" fill-opacity="0" stroke="none" transform="matrix(1,0,0,1,0,0)"
font-family="Helvetica" font-size="12.5" font-weight="400" font-style="normal" 
>
<path vector-effect="non-scaling-stroke" fill-rule="evenodd" d="M0,0 L200,0 L200,65 L0,65 L0,0z "/>
</g>

<g fill="none" stroke="#000000" stroke-opacity="1" stroke-width="1" stroke-linecap="square" stroke-linejoin="bevel" transform="matrix(1,0,0,1,0,0)"
font-family="Helvetica" font-size="12.5" font-weight="400" font-style="normal" 
>
</g>

<g fill="none" stroke="#000000" stroke-opacity="1" stroke-width="1" stroke-linecap="square" stroke-linejoin="bevel" transform="matrix(1,0,0,1,0,0)"
font-family="Helvetica" font-size="12.5" font-weight="400" font-style="normal" 
clip-path="url(#clip1855)" >
<defs><clipPath id="clip1855"><path vector-effect="non-scaling-stroke" fill-rule="evenodd" d="M0,0 L200,0 L200,65.3846 L0,65.3846 L0,0z "/>
</clipPath></defs></g>

<g fill="none" stroke="#000000" stroke-opacity="1" stroke-width="1" stroke-linecap="square" stroke-linejoin="bevel" transform="matrix(-1.92308,0,0,-1.92308,13.4615,32.6923)"
font-family="Helvetica" font-size="12.5" font-weight="400" font-style="normal" 
clip-path="url(#clip1856)" >
<defs><clipPath id="clip1856"><path vector-effect="non-scaling-stroke" fill-rule="evenodd" d="M7,17 L-97,17 L-97,-17 L7,-17 L7,17z "/>
</clipPath></defs></g>

<g fill="#000000" fill-opacity="0" stroke="#000000" stroke-opacity="1" stroke-width="2" stroke-linecap="round" stroke-linejoin="miter" stroke-miterlimit="2" transform="matrix(-1.92308,0,0,-1.92308,13.4615,32.6923)"
font-family="Helvetica" font-size="12.5" font-weight="400" font-style="normal" 
clip-path="url(#clip1856)" >
<path vector-effect="none" fill-rule="evenodd" d="M5,-5 L0,0 L5,5"/>
</g>

<g fill="none" stroke="#000000" stroke-opacity="1" stroke-width="1" stroke-linecap="square" stroke-linejoin="bevel" transform="matrix(-1.92308,0,0,-1.92308,13.4615,32.6923)"
font-family="Helvetica" font-size="12.5" font-weight="400" font-style="normal" 
clip-path="url(#clip1856)" >
</g>

<g fill="none" stroke="#000000" stroke-opacity="1" stroke-width="1" stroke-linecap="square" stroke-linejoin="bevel" transform="matrix(1.92308,0,0,1.92308,186.538,32.6923)"
font-family="Helvetica" font-size="12.5" font-weight="400" font-style="normal" 
clip-path="url(#clip1857)" >
<defs><clipPath id="clip1857"><path vector-effect="non-scaling-stroke" fill-rule="evenodd" d="M-97,-17 L7,-17 L7,17 L-97,17 L-97,-17z "/>
</clipPath></defs></g>

<g fill="#000000" fill-opacity="0" stroke="#000000" stroke-opacity="1" stroke-width="2" stroke-linecap="round" stroke-linejoin="miter" stroke-miterlimit="2" transform="matrix(1.92308,0,0,1.92308,186.538,32.6923)"
font-family="Helvetica" font-size="12.5" font-weight="400" font-style="normal" 
clip-path="url(#clip1857)" >
<path vector-effect="none" fill-rule="evenodd" d="M0,-5 L5,0 L0,5"/>
</g>

<g fill="none" stroke="#000000" stroke-opacity="1" stroke-width="1" stroke-linecap="square" stroke-linejoin="bevel" transform="matrix(1.92308,0,0,1.92308,186.538,32.6923)"
font-family="Helvetica" font-size="12.5" font-weight="400" font-style="normal" 
clip-path="url(#clip1857)" >
</g>

<g fill="none" stroke="#000000" stroke-opacity="1" stroke-width="1" stroke-linecap="square" stroke-linejoin="bevel" transform="matrix(1.92308,0,0,1.92308,13.4615,3.84615)"
font-family="Helvetica" font-size="12.5" font-weight="400" font-style="normal" 
clip-path="url(#clip1858)" >
<defs><clipPath id="clip1858"><path vector-effect="non-scaling-stroke" fill-rule="evenodd" d="M-7,-2 L97,-2 L97,32 L-7,32 L-7,-2z "/>
</clipPath></defs></g>

<g fill="#ffffff" fill-opacity="1" stroke="none" transform="matrix(1.92308,0,0,1.92308,13.4615,3.84615)"
font-family="Helvetica" font-size="12.5" font-weight="400" font-style="normal" 
clip-path="url(#clip1858)" >
<path vector-effect="none" fill-rule="evenodd" d="M0,0 L90,0 L90,30 L0,30 L0,0z "/>
</g>

<g fill="none" stroke="#000000" stroke-opacity="1" stroke-width="1" stroke-linecap="square" stroke-linejoin="bevel" transform="matrix(1.92308,0,0,1.92308,13.4615,3.84615)"
font-family="Helvetica" font-size="12.5" font-weight="400" font-style="normal" 
clip-path="url(#clip1858)" >
</g>

<g fill="none" stroke="#000000" stroke-opacity="1" stroke-width="1" stroke-linecap="square" stroke-linejoin="bevel" transform="matrix(1.92308,0,0,1.92308,13.4615,3.84615)"
font-family="Helvetica" font-size="12.5" font-weight="400" font-style="normal" 
clip-path="url(#clip1858)" >
</g>

<g fill="none" stroke="#000000" stroke-opacity="1" stroke-width="1" stroke-linecap="square" stroke-linejoin="bevel" transform="matrix(1.92308,0,0,1.92308,13.4615,3.84615)"
font-family="Helvetica" font-size="12.5" font-weight="400" font-style="normal" 
clip-path="url(#clip1859)" >
<defs><clipPath id="clip1859"><path vector-effect="non-scaling-stroke" fill-rule="evenodd" d="M0,0 L90,0 L90,30 L0,30 L0,0z "/>
</clipPath></defs></g>

<g fill="none" stroke="#000000" stroke-opacity="1" stroke-width="1" stroke-linecap="square" stroke-linejoin="bevel" transform="matrix(1.92308,0,0,1.92308,19.2308,44.2308)"
font-family="Liberation Sans" font-size="10" font-weight="400" font-style="normal" 
clip-path="url(#clip1860)" >
<defs><clipPath id="clip1860"><path vector-effect="none" fill-rule="evenodd" d="M-3,-21 L87,-21 L87,9 L-3,9 L-3,-21z "/>
</clipPath></defs></g>

<g fill="none" stroke="#000000" stroke-opacity="1" stroke-width="1" stroke-linecap="square" stroke-linejoin="bevel" transform="matrix(1.92308,0,0,1.92308,19.2308,44.2308)"
font-family="Liberation Sans" font-size="10" font-weight="400" font-style="normal" 
clip-path="url(#clip1860)" >
<text textLength="25" fill="#000000" fill-opacity="1" stroke="none" xml:space="preserve" x="0" y="0" font-family="Liberation Sans" font-size="10" font-weight="400" font-style="normal" 
 >deg/s</text>
</g>

<g fill="none" stroke="#000000" stroke-opacity="1" stroke-width="1" stroke-linecap="square" stroke-linejoin="bevel" transform="matrix(1.92308,0,0,1.92308,19.2308,44.2308)"
font-family="Liberation Sans" font-size="10" font-weight="400" font-style="normal" 
clip-path="url(#clip1860)" >
</g>

<g fill="none" stroke="#000000" stroke-opacity="1" stroke-width="1" stroke-linecap="square" stroke-linejoin="bevel" transform="matrix(1.92308,0,0,1.92308,67.3077,34.6154)"
font-family="Liberation Sans" font-size="8" font-weight="400" font-style="normal" 
clip-path="url(#clip1861)" >
<defs><clipPath id="clip1861"><path vector-effect="none" fill-rule="evenodd" d="M-28,-16 L62,-16 L62,14 L-28,14 L-28,-16z "/>
</clipPath></defs></g>

<g fill="none" stroke="#000000" stroke-opacity="1" stroke-width="1" stroke-linecap="square" stroke-linejoin="bevel" transform="matrix(1.92308,0,0,1.92308,67.3077,34.6154)"
font-family="Liberation Sans" font-size="8" font-weight="400" font-style="normal" 
clip-path="url(#clip1861)" >
<text textLength="4" fill="#000000" fill-opacity="1" stroke="none" xml:space="preserve" x="0" y="0" font-family="Liberation Sans" font-size="8" font-weight="400" font-style="normal" 
 >2</text>
</g>

<g fill="none" stroke="#000000" stroke-opacity="1" stroke-width="1" stroke-linecap="square" stroke-linejoin="bevel" transform="matrix(1.92308,0,0,1.92308,67.3077,34.6154)"
font-family="Liberation Sans" font-size="8" font-weight="400" font-style="normal" 
clip-path="url(#clip1861)" >
</g>

<g fill="none" stroke="#000000" stroke-opacity="1" stroke-width="1" stroke-linecap="square" stroke-linejoin="bevel" transform="matrix(1.92308,0,0,1.92308,130.769,44.2308)"
font-family="Liberation Sans" font-size="10" font-weight="400" font-style="normal" 
clip-path="url(#clip1862)" >
<defs><clipPath id="clip1862"><path vector-effect="none" fill-rule="evenodd" d="M-61,-21 L29,-21 L29,9 L-61,9 L-61,-21z "/>
</clipPath></defs></g>

<g fill="none" stroke="#000000" stroke-opacity="1" stroke-width="1" stroke-linecap="square" stroke-linejoin="bevel" transform="matrix(1.92308,0,0,1.92308,130.769,44.2308)"
font-family="Liberation Sans" font-size="10" font-weight="400" font-style="normal" 
clip-path="url(#clip1862)" >
<text textLength="22" fill="#000000" fill-opacity="1" stroke="none" xml:space="preserve" x="0" y="0" font-family="Liberation Sans" font-size="10" font-weight="400" font-style="normal" 
 >rad/s</text>
</g>

<g fill="none" stroke="#000000" stroke-opacity="1" stroke-width="1" stroke-linecap="square" stroke-linejoin="bevel" transform="matrix(1.92308,0,0,1.92308,130.769,44.2308)"
font-family="Liberation Sans" font-size="10" font-weight="400" font-style="normal" 
clip-path="url(#clip1862)" >
</g>

<g fill="none" stroke="#000000" stroke-opacity="1" stroke-width="1" stroke-linecap="square" stroke-linejoin="bevel" transform="matrix(1.92308,0,0,1.92308,173.077,34.6154)"
font-family="Liberation Sans" font-size="8" font-weight="400" font-style="normal" 
clip-path="url(#clip1863)" >
<defs><clipPath id="clip1863"><path vector-effect="none" fill-rule="evenodd" d="M-83,-16 L7,-16 L7,14 L-83,14 L-83,-16z "/>
</clipPath></defs></g>

<g fill="none" stroke="#000000" stroke-opacity="1" stroke-width="1" stroke-linecap="square" stroke-linejoin="bevel" transform="matrix(1.92308,0,0,1.92308,173.077,34.6154)"
font-family="Liberation Sans" font-size="8" font-weight="400" font-style="normal" 
clip-path="url(#clip1863)" >
<text textLength="4" fill="#000000" fill-opacity="1" stroke="none" xml:space="preserve" x="0" y="0" font-family="Liberation Sans" font-size="8" font-weight="400" font-style="normal" 
 >2</text>
</g>

<g fill="none" stroke="#000000" stroke-opacity="1" stroke-width="1" stroke-linecap="square" stroke-linejoin="bevel" transform="matrix(1.92308,0,0,1.92308,173.077,34.6154)"
font-family="Liberation Sans" font-size="8" font-weight="400" font-style="normal" 
clip-path="url(#clip1863)" >
</g>

<g fill="#000000" fill-opacity="1" stroke="#000000" stroke-opacity="1" stroke-width="1" stroke-linecap="square" stroke-linejoin="bevel" transform="matrix(1.92308,0,0,1.92308,-505.769,-207.692)"
font-family="Liberation Sans" font-size="8" font-weight="400" font-style="normal" 
clip-path="url(#clip1864)" >
<defs><clipPath id="clip1864"><path vector-effect="none" fill-rule="evenodd" d="M270,110 L360,110 L360,140 L270,140 L270,110z "/>
</clipPath></defs><path vector-effect="none" fill-rule="evenodd" d="M309,125 L319,125 L319,128 L322,125 L319,121 L319,124 L309,124 L309,125z "/>
</g>

<g fill="#000000" fill-opacity="1" stroke="#000000" stroke-opacity="1" stroke-width="1" stroke-linecap="square" stroke-linejoin="bevel" transform="matrix(1.92308,0,0,1.92308,-505.769,-207.692)"
font-family="Liberation Sans" font-size="8" font-weight="400" font-style="normal" 
clip-path="url(#clip1865)" >
<defs><clipPath id="clip1865"><path vector-effect="none" fill-rule="evenodd" d="M-7,-2 L97,-2 L97,32 L-7,32 L-7,-2z "/>
</clipPath></defs></g>

<g fill="#000000" fill-opacity="1" stroke="#000000" stroke-opacity="1" stroke-width="1" stroke-linecap="square" stroke-linejoin="bevel" transform="matrix(1,0,0,1,0,0)"
font-family="Liberation Sans" font-size="8" font-weight="400" font-style="normal" 
clip-path="url(#clip1865)" >
</g>

<g fill="none" stroke="#000000" stroke-opacity="1" stroke-width="1" stroke-linecap="square" stroke-linejoin="bevel" transform="matrix(1.92308,0,0,1.92308,13.4615,3.84615)"
font-family="Helvetica" font-size="12.5" font-weight="400" font-style="normal" 
clip-path="url(#clip1865)" >
</g>

<g fill="none" stroke="#000000" stroke-opacity="1" stroke-width="1" stroke-linecap="square" stroke-linejoin="bevel" transform="matrix(1.92308,0,0,1.92308,13.4615,3.84615)"
font-family="Helvetica" font-size="12.5" font-weight="400" font-style="normal" 
clip-path="url(#clip1865)" >
</g>

<g fill="none" stroke="#000000" stroke-opacity="1" stroke-width="0.769842" stroke-linecap="butt" stroke-linejoin="miter" stroke-miterlimit="2" transform="matrix(1.92308,0,0,1.92308,13.4615,3.84615)"
font-family="Helvetica" font-size="12.5" font-weight="400" font-style="normal" 
clip-path="url(#clip1865)" >
<path vector-effect="none" fill-rule="evenodd" d="M0,0 L90,0 L90,30 L0,30 L0,0z "/>
</g>

<g fill="none" stroke="#000000" stroke-opacity="1" stroke-width="1" stroke-linecap="square" stroke-linejoin="bevel" transform="matrix(1.92308,0,0,1.92308,13.4615,3.84615)"
font-family="Helvetica" font-size="12.5" font-weight="400" font-style="normal" 
clip-path="url(#clip1865)" >
</g>

<g fill="none" stroke="#000000" stroke-opacity="1" stroke-width="1" stroke-linecap="square" stroke-linejoin="bevel" transform="matrix(1,0,0,1,0,0)"
font-family="Helvetica" font-size="12.5" font-weight="400" font-style="normal" 
>
</g>

<g fill="none" stroke="#000000" stroke-opacity="1" stroke-width="1" stroke-linecap="square" stroke-linejoin="bevel" transform="matrix(1,0,0,1,0,0)"
font-family="Helvetica" font-size="12.5" font-weight="400" font-style="normal" 
>
</g>

<g fill="none" stroke="#000000" stroke-opacity="1" stroke-width="1" stroke-linecap="square" stroke-linejoin="bevel" transform="matrix(1,0,0,1,0,0)"
font-family="Helvetica" font-size="12.5" font-weight="400" font-style="normal" 
clip-path="url(#clip1866)" >
<defs><clipPath id="clip1866"><path vector-effect="non-scaling-stroke" fill-rule="evenodd" d="M0,0 L200,0 L200,65 L0,65 L0,0z "/>
</clipPath></defs></g>

<g fill="none" stroke="#000000" stroke-opacity="1" stroke-width="1" stroke-linecap="square" stroke-linejoin="bevel" transform="matrix(1,0,0,1,0,0)"
font-family="Helvetica" font-size="12.5" font-weight="400" font-style="normal" 
>
</g>

<g fill="none" stroke="#000000" stroke-opacity="1" stroke-width="1" stroke-linecap="square" stroke-linejoin="bevel" transform="matrix(1,0,0,1,0,0)"
font-family="Helvetica" font-size="12.5" font-weight="400" font-style="normal" 
>
</g>

<g fill="none" stroke="#000000" stroke-opacity="1" stroke-width="1" stroke-linecap="square" stroke-linejoin="bevel" transform="matrix(1,0,0,1,0,0)"
font-family="Helvetica" font-size="12.5" font-weight="400" font-style="normal" 
clip-path="url(#clip1867)" >
<defs><clipPath id="clip1867"><path vector-effect="non-scaling-stroke" fill-rule="evenodd" d="M0,0 L1,0 L1,1 L0,1 L0,0z "/>
</clipPath></defs></g>

<g fill="none" stroke="#000000" stroke-opacity="1" stroke-width="1" stroke-linecap="square" stroke-linejoin="bevel" transform="matrix(1,0,0,1,0,0)"
font-family="Helvetica" font-size="12.5" font-weight="400" font-style="normal" 
>
</g>

<g fill="none" stroke="#000000" stroke-opacity="1" stroke-width="1" stroke-linecap="square" stroke-linejoin="bevel" transform="matrix(1,0,0,1,0,0)"
font-family="Helvetica" font-size="12.5" font-weight="400" font-style="normal" 
>
</g>
</g>
</svg>
