<?xml version="1.0" encoding="UTF-8" standalone="no"?>
<svg width="52.9167mm" height="29.8979mm"
 viewBox="0 0 200 113"
 xmlns="http://www.w3.org/2000/svg" xmlns:xlink="http://www.w3.org/1999/xlink"  version="1.2" baseProfile="tiny">
<defs>
</defs>
<g fill="none" stroke="black" stroke-width="1" fill-rule="evenodd" stroke-linecap="square" stroke-linejoin="bevel" >

<g fill="#ffffff" fill-opacity="0" stroke="none" transform="matrix(1,0,0,1,0,0)"
font-family="Helvetica" font-size="16" font-weight="400" font-style="normal" 
>
<path vector-effect="non-scaling-stroke" fill-rule="evenodd" d="M0,0 L200,0 L200,113 L0,113 L0,0z "/>
</g>

<g fill="none" stroke="#000000" stroke-opacity="1" stroke-width="1" stroke-linecap="square" stroke-linejoin="bevel" transform="matrix(1,0,0,1,0,0)"
font-family="Helvetica" font-size="16" font-weight="400" font-style="normal" 
>
</g>

<g fill="none" stroke="#000000" stroke-opacity="1" stroke-width="1" stroke-linecap="square" stroke-linejoin="bevel" transform="matrix(1,0,0,1,0,0)"
font-family="Helvetica" font-size="16" font-weight="400" font-style="normal" 
clip-path="url(#clip27251)" >
<defs><clipPath id="clip27251"><path vector-effect="non-scaling-stroke" fill-rule="evenodd" d="M0,0 L200,0 L200,113.761 L0,113.761 L0,0z "/>
</clipPath></defs></g>

<g fill="none" stroke="#000000" stroke-opacity="1" stroke-width="1" stroke-linecap="square" stroke-linejoin="bevel" transform="matrix(1.83486,0,0,1.83486,187.156,56.8807)"
font-family="Helvetica" font-size="16" font-weight="400" font-style="normal" 
clip-path="url(#clip27252)" >
<defs><clipPath id="clip27252"><path vector-effect="non-scaling-stroke" fill-rule="evenodd" d="M-102,-31 L7,-31 L7,31 L-102,31 L-102,-31z "/>
</clipPath></defs></g>

<g fill="#000000" fill-opacity="0" stroke="#000000" stroke-opacity="1" stroke-width="2" stroke-linecap="round" stroke-linejoin="miter" stroke-miterlimit="2" transform="matrix(1.83486,0,0,1.83486,187.156,56.8807)"
font-family="Helvetica" font-size="16" font-weight="400" font-style="normal" 
clip-path="url(#clip27252)" >
<path vector-effect="none" fill-rule="evenodd" d="M0,-5 L5,0 L0,5"/>
</g>

<g fill="none" stroke="#000000" stroke-opacity="1" stroke-width="1" stroke-linecap="square" stroke-linejoin="bevel" transform="matrix(1.83486,0,0,1.83486,187.156,56.8807)"
font-family="Helvetica" font-size="16" font-weight="400" font-style="normal" 
clip-path="url(#clip27252)" >
</g>

<g fill="none" stroke="#000000" stroke-opacity="1" stroke-width="1" stroke-linecap="square" stroke-linejoin="bevel" transform="matrix(-1.83486,0,0,-1.83486,12.844,56.8807)"
font-family="Helvetica" font-size="16" font-weight="400" font-style="normal" 
clip-path="url(#clip27253)" >
<defs><clipPath id="clip27253"><path vector-effect="non-scaling-stroke" fill-rule="evenodd" d="M7,31 L-102,31 L-102,-31 L7,-31 L7,31z "/>
</clipPath></defs></g>

<g fill="#000000" fill-opacity="0" stroke="#000000" stroke-opacity="1" stroke-width="2" stroke-linecap="round" stroke-linejoin="miter" stroke-miterlimit="2" transform="matrix(-1.83486,0,0,-1.83486,12.844,56.8807)"
font-family="Helvetica" font-size="16" font-weight="400" font-style="normal" 
clip-path="url(#clip27253)" >
<path vector-effect="none" fill-rule="evenodd" d="M5,-5 L0,0 L5,5"/>
</g>

<g fill="none" stroke="#000000" stroke-opacity="1" stroke-width="1" stroke-linecap="square" stroke-linejoin="bevel" transform="matrix(-1.83486,0,0,-1.83486,12.844,56.8807)"
font-family="Helvetica" font-size="16" font-weight="400" font-style="normal" 
clip-path="url(#clip27253)" >
</g>

<g fill="none" stroke="#000000" stroke-opacity="1" stroke-width="1" stroke-linecap="square" stroke-linejoin="bevel" transform="matrix(1.83486,0,0,1.83486,12.844,3.66972)"
font-family="Helvetica" font-size="16" font-weight="400" font-style="normal" 
clip-path="url(#clip27254)" >
<defs><clipPath id="clip27254"><path vector-effect="non-scaling-stroke" fill-rule="evenodd" d="M-7,-2 L102,-2 L102,60 L-7,60 L-7,-2z "/>
</clipPath></defs></g>

<g fill="#ffffff" fill-opacity="1" stroke="none" transform="matrix(1.83486,0,0,1.83486,12.844,3.66972)"
font-family="Helvetica" font-size="16" font-weight="400" font-style="normal" 
clip-path="url(#clip27254)" >
<path vector-effect="none" fill-rule="evenodd" d="M0,0 L95,0 L95,58 L0,58 L0,0z "/>
</g>

<g fill="none" stroke="#000000" stroke-opacity="1" stroke-width="1" stroke-linecap="square" stroke-linejoin="bevel" transform="matrix(1.83486,0,0,1.83486,12.844,3.66972)"
font-family="Helvetica" font-size="16" font-weight="400" font-style="normal" 
clip-path="url(#clip27254)" >
</g>

<g fill="none" stroke="#000000" stroke-opacity="1" stroke-width="1" stroke-linecap="square" stroke-linejoin="bevel" transform="matrix(1.83486,0,0,1.83486,12.844,3.66972)"
font-family="Helvetica" font-size="16" font-weight="400" font-style="normal" 
clip-path="url(#clip27254)" >
</g>

<g fill="none" stroke="#000000" stroke-opacity="1" stroke-width="1" stroke-linecap="square" stroke-linejoin="bevel" transform="matrix(1.83486,0,0,1.83486,12.844,3.66972)"
font-family="Helvetica" font-size="16" font-weight="400" font-style="normal" 
clip-path="url(#clip27255)" >
<defs><clipPath id="clip27255"><path vector-effect="non-scaling-stroke" fill-rule="evenodd" d="M0,0 L95,0 L95,58 L0,58 L0,0z "/>
</clipPath></defs></g>

<g fill="none" stroke="#000000" stroke-opacity="1" stroke-width="1" stroke-linecap="square" stroke-linejoin="bevel" transform="matrix(1.83486,0,0,1.83486,-32.1101,-98.1651)"
font-family="Helvetica" font-size="16" font-weight="400" font-style="normal" 
clip-path="url(#clip27256)" >
<defs><clipPath id="clip27256"><path vector-effect="none" fill-rule="evenodd" d="M24,55 L119,55 L119,113 L24,113 L24,55z "/>
</clipPath></defs><polyline fill="none" vector-effect="none" points="39,76 47,76 " />
</g>

<g fill="none" stroke="#000000" stroke-opacity="1" stroke-width="1" stroke-linecap="square" stroke-linejoin="bevel" transform="matrix(1.83486,0,0,1.83486,-32.1101,-98.1651)"
font-family="Helvetica" font-size="16" font-weight="400" font-style="normal" 
clip-path="url(#clip27256)" >
<polyline fill="none" vector-effect="none" points="47,76 43,76 " />
</g>

<g fill="none" stroke="#000000" stroke-opacity="1" stroke-width="1" stroke-linecap="square" stroke-linejoin="bevel" transform="matrix(1.83486,0,0,1.83486,-32.1101,-98.1651)"
font-family="Helvetica" font-size="16" font-weight="400" font-style="normal" 
clip-path="url(#clip27256)" >
<polyline fill="none" vector-effect="none" points="43,76 43,70 " />
</g>

<g fill="none" stroke="#000000" stroke-opacity="1" stroke-width="1" stroke-linecap="square" stroke-linejoin="bevel" transform="matrix(1.83486,0,0,1.83486,-32.1101,-98.1651)"
font-family="Helvetica" font-size="16" font-weight="400" font-style="normal" 
clip-path="url(#clip27256)" >
<polyline fill="none" vector-effect="none" points="43,70 39,67 " />
</g>

<g fill="none" stroke="#000000" stroke-opacity="1" stroke-width="1" stroke-linecap="square" stroke-linejoin="bevel" transform="matrix(1.83486,0,0,1.83486,-32.1101,-98.1651)"
font-family="Helvetica" font-size="16" font-weight="400" font-style="normal" 
clip-path="url(#clip27256)" >
<polyline fill="none" vector-effect="none" points="39,67 43,70 " />
</g>

<g fill="none" stroke="#000000" stroke-opacity="1" stroke-width="1" stroke-linecap="square" stroke-linejoin="bevel" transform="matrix(1.83486,0,0,1.83486,-32.1101,-98.1651)"
font-family="Helvetica" font-size="16" font-weight="400" font-style="normal" 
clip-path="url(#clip27256)" >
<polyline fill="none" vector-effect="none" points="43,70 49,72 " />
</g>

<g fill="none" stroke="#000000" stroke-opacity="1" stroke-width="1" stroke-linecap="square" stroke-linejoin="bevel" transform="matrix(1.83486,0,0,1.83486,-32.1101,-98.1651)"
font-family="Helvetica" font-size="16" font-weight="400" font-style="normal" 
clip-path="url(#clip27256)" >
<polyline fill="none" vector-effect="none" points="49,72 46,71 " />
</g>

<g fill="none" stroke="#000000" stroke-opacity="1" stroke-width="1" stroke-linecap="square" stroke-linejoin="bevel" transform="matrix(1.83486,0,0,1.83486,-32.1101,-98.1651)"
font-family="Helvetica" font-size="16" font-weight="400" font-style="normal" 
clip-path="url(#clip27256)" >
<polyline fill="none" vector-effect="none" points="46,71 45,68 " />
</g>

<g fill="none" stroke="#000000" stroke-opacity="1" stroke-width="1" stroke-linecap="square" stroke-linejoin="bevel" transform="matrix(1.83486,0,0,1.83486,-32.1101,-98.1651)"
font-family="Helvetica" font-size="16" font-weight="400" font-style="normal" 
clip-path="url(#clip27256)" >
<polyline fill="none" vector-effect="none" points="45,68 41,68 " />
</g>

<g fill="none" stroke="#000000" stroke-opacity="1" stroke-width="1" stroke-linecap="square" stroke-linejoin="bevel" transform="matrix(1.83486,0,0,1.83486,-32.1101,-98.1651)"
font-family="Helvetica" font-size="16" font-weight="400" font-style="normal" 
clip-path="url(#clip27256)" >
<polyline fill="none" vector-effect="none" points="41,68 45,68 " />
</g>

<g fill="none" stroke="#000000" stroke-opacity="1" stroke-width="1" stroke-linecap="square" stroke-linejoin="bevel" transform="matrix(1.83486,0,0,1.83486,-32.1101,-98.1651)"
font-family="Helvetica" font-size="16" font-weight="400" font-style="normal" 
clip-path="url(#clip27256)" >
<polyline fill="none" vector-effect="none" points="45,68 66,68 " />
</g>

<g fill="none" stroke="#000000" stroke-opacity="1" stroke-width="1" stroke-linecap="square" stroke-linejoin="bevel" transform="matrix(1.83486,0,0,1.83486,-32.1101,-98.1651)"
font-family="Helvetica" font-size="16" font-weight="400" font-style="normal" 
clip-path="url(#clip27256)" >
<polyline fill="none" vector-effect="none" points="66,68 68,69 " />
</g>

<g fill="none" stroke="#000000" stroke-opacity="1" stroke-width="1" stroke-linecap="square" stroke-linejoin="bevel" transform="matrix(1.83486,0,0,1.83486,-32.1101,-98.1651)"
font-family="Helvetica" font-size="16" font-weight="400" font-style="normal" 
clip-path="url(#clip27256)" >
<polyline fill="none" vector-effect="none" points="68,69 70,66 " />
</g>

<g fill="none" stroke="#000000" stroke-opacity="1" stroke-width="1" stroke-linecap="square" stroke-linejoin="bevel" transform="matrix(1.83486,0,0,1.83486,-32.1101,-98.1651)"
font-family="Helvetica" font-size="16" font-weight="400" font-style="normal" 
clip-path="url(#clip27256)" >
<polyline fill="none" vector-effect="none" points="70,66 73,69 " />
</g>

<g fill="none" stroke="#000000" stroke-opacity="1" stroke-width="1" stroke-linecap="square" stroke-linejoin="bevel" transform="matrix(1.83486,0,0,1.83486,-32.1101,-98.1651)"
font-family="Helvetica" font-size="16" font-weight="400" font-style="normal" 
clip-path="url(#clip27256)" >
<polyline fill="none" vector-effect="none" points="73,69 75,66 " />
</g>

<g fill="none" stroke="#000000" stroke-opacity="1" stroke-width="1" stroke-linecap="square" stroke-linejoin="bevel" transform="matrix(1.83486,0,0,1.83486,-32.1101,-98.1651)"
font-family="Helvetica" font-size="16" font-weight="400" font-style="normal" 
clip-path="url(#clip27256)" >
<polyline fill="none" vector-effect="none" points="75,66 78,69 " />
</g>

<g fill="none" stroke="#000000" stroke-opacity="1" stroke-width="1" stroke-linecap="square" stroke-linejoin="bevel" transform="matrix(1.83486,0,0,1.83486,-32.1101,-98.1651)"
font-family="Helvetica" font-size="16" font-weight="400" font-style="normal" 
clip-path="url(#clip27256)" >
<polyline fill="none" vector-effect="none" points="78,69 79,68 " />
</g>

<g fill="none" stroke="#000000" stroke-opacity="1" stroke-width="1" stroke-linecap="square" stroke-linejoin="bevel" transform="matrix(1.83486,0,0,1.83486,-32.1101,-98.1651)"
font-family="Helvetica" font-size="16" font-weight="400" font-style="normal" 
clip-path="url(#clip27256)" >
<polyline fill="none" vector-effect="none" points="79,68 100,68 " />
</g>

<g fill="none" stroke="#000000" stroke-opacity="1" stroke-width="1" stroke-linecap="square" stroke-linejoin="bevel" transform="matrix(1.83486,0,0,1.83486,-32.1101,-98.1651)"
font-family="Helvetica" font-size="16" font-weight="400" font-style="normal" 
clip-path="url(#clip27256)" >
<polyline fill="none" vector-effect="none" points="100,68 104,68 " />
</g>

<g fill="none" stroke="#000000" stroke-opacity="1" stroke-width="1" stroke-linecap="square" stroke-linejoin="bevel" transform="matrix(1.83486,0,0,1.83486,-32.1101,-98.1651)"
font-family="Helvetica" font-size="16" font-weight="400" font-style="normal" 
clip-path="url(#clip27256)" >
<polyline fill="none" vector-effect="none" points="104,68 100,68 " />
</g>

<g fill="none" stroke="#000000" stroke-opacity="1" stroke-width="1" stroke-linecap="square" stroke-linejoin="bevel" transform="matrix(1.83486,0,0,1.83486,-32.1101,-98.1651)"
font-family="Helvetica" font-size="16" font-weight="400" font-style="normal" 
clip-path="url(#clip27256)" >
<polyline fill="none" vector-effect="none" points="100,68 99,71 " />
</g>

<g fill="none" stroke="#000000" stroke-opacity="1" stroke-width="1" stroke-linecap="square" stroke-linejoin="bevel" transform="matrix(1.83486,0,0,1.83486,-32.1101,-98.1651)"
font-family="Helvetica" font-size="16" font-weight="400" font-style="normal" 
clip-path="url(#clip27256)" >
<polyline fill="none" vector-effect="none" points="99,71 96,72 " />
</g>

<g fill="none" stroke="#000000" stroke-opacity="1" stroke-width="1" stroke-linecap="square" stroke-linejoin="bevel" transform="matrix(1.83486,0,0,1.83486,-32.1101,-98.1651)"
font-family="Helvetica" font-size="16" font-weight="400" font-style="normal" 
clip-path="url(#clip27256)" >
<polyline fill="none" vector-effect="none" points="96,72 102,70 " />
</g>

<g fill="none" stroke="#000000" stroke-opacity="1" stroke-width="1" stroke-linecap="square" stroke-linejoin="bevel" transform="matrix(1.83486,0,0,1.83486,-32.1101,-98.1651)"
font-family="Helvetica" font-size="16" font-weight="400" font-style="normal" 
clip-path="url(#clip27256)" >
<polyline fill="none" vector-effect="none" points="102,70 106,67 " />
</g>

<g fill="none" stroke="#000000" stroke-opacity="1" stroke-width="1" stroke-linecap="square" stroke-linejoin="bevel" transform="matrix(1.83486,0,0,1.83486,-32.1101,-98.1651)"
font-family="Helvetica" font-size="16" font-weight="400" font-style="normal" 
clip-path="url(#clip27256)" >
<polyline fill="none" vector-effect="none" points="106,67 102,70 " />
</g>

<g fill="none" stroke="#000000" stroke-opacity="1" stroke-width="1" stroke-linecap="square" stroke-linejoin="bevel" transform="matrix(1.83486,0,0,1.83486,-32.1101,-98.1651)"
font-family="Helvetica" font-size="16" font-weight="400" font-style="normal" 
clip-path="url(#clip27256)" >
<polyline fill="none" vector-effect="none" points="102,70 102,76 " />
</g>

<g fill="none" stroke="#000000" stroke-opacity="1" stroke-width="1" stroke-linecap="square" stroke-linejoin="bevel" transform="matrix(1.83486,0,0,1.83486,-32.1101,-98.1651)"
font-family="Helvetica" font-size="16" font-weight="400" font-style="normal" 
clip-path="url(#clip27256)" >
<polyline fill="none" vector-effect="none" points="102,76 98,76 " />
</g>

<g fill="none" stroke="#000000" stroke-opacity="1" stroke-width="1" stroke-linecap="square" stroke-linejoin="bevel" transform="matrix(1.83486,0,0,1.83486,-32.1101,-98.1651)"
font-family="Helvetica" font-size="16" font-weight="400" font-style="normal" 
clip-path="url(#clip27256)" >
<polyline fill="none" vector-effect="none" points="98,76 106,76 " />
</g>

<g fill="none" stroke="#000000" stroke-opacity="1" stroke-width="1" stroke-linecap="square" stroke-linejoin="bevel" transform="matrix(1.83486,0,0,1.83486,99.0826,56.8807)"
font-family="FreeSans" font-size="13.7143" font-weight="400" font-style="normal" 
clip-path="url(#clip27257)" >
<defs><clipPath id="clip27257"><path vector-effect="none" fill-rule="evenodd" d="M-47,-29 L48,-29 L48,29 L-47,29 L-47,-29z "/>
</clipPath></defs></g>

<g fill="none" stroke="#000000" stroke-opacity="1" stroke-width="1" stroke-linecap="square" stroke-linejoin="bevel" transform="matrix(1.33792,0,0,1.33792,99.0826,56.8807)"
font-family="FreeSans" font-size="13.7143" font-weight="400" font-style="normal" 
clip-path="url(#clip27258)" >
<defs><clipPath id="clip27258"><path vector-effect="none" fill-rule="evenodd" d="M-64,-40 L66,-40 L66,40 L-64,40 L-64,-40z "/>
</clipPath></defs><text textLength="41" fill="#000000" fill-opacity="1" stroke="none" xml:space="preserve" x="-20.5625" y="4.125" font-family="FreeSans" font-size="13.7143" font-weight="400" font-style="normal" 
 >AWGN</text>
</g>

<g fill="none" stroke="#000000" stroke-opacity="1" stroke-width="1" stroke-linecap="square" stroke-linejoin="bevel" transform="matrix(1.83486,0,0,1.83486,99.0826,56.8807)"
font-family="FreeSans" font-size="13.7143" font-weight="400" font-style="normal" 
clip-path="url(#clip27259)" >
<defs><clipPath id="clip27259"><path vector-effect="none" fill-rule="evenodd" d="M-47,-29 L48,-29 L48,29 L-47,29 L-47,-29z "/>
</clipPath></defs></g>

<g fill="none" stroke="#000000" stroke-opacity="1" stroke-width="1" stroke-linecap="square" stroke-linejoin="bevel" transform="matrix(2.51638,0,0,2.51638,99.0826,56.8807)"
font-family="FreeSans" font-size="13.7143" font-weight="400" font-style="normal" 
clip-path="url(#clip27260)" >
<defs><clipPath id="clip27260"><path vector-effect="none" fill-rule="evenodd" d="M-7,-2 L102,-2 L102,60 L-7,60 L-7,-2z "/>
</clipPath></defs></g>

<g fill="none" stroke="#000000" stroke-opacity="1" stroke-width="1" stroke-linecap="square" stroke-linejoin="bevel" transform="matrix(1,0,0,1,0,0)"
font-family="FreeSans" font-size="13.7143" font-weight="400" font-style="normal" 
clip-path="url(#clip27260)" >
</g>

<g fill="none" stroke="#000000" stroke-opacity="1" stroke-width="1" stroke-linecap="square" stroke-linejoin="bevel" transform="matrix(1.83486,0,0,1.83486,12.844,3.66972)"
font-family="Helvetica" font-size="16" font-weight="400" font-style="normal" 
clip-path="url(#clip27260)" >
</g>

<g fill="none" stroke="#000000" stroke-opacity="1" stroke-width="1" stroke-linecap="square" stroke-linejoin="bevel" transform="matrix(1.83486,0,0,1.83486,12.844,3.66972)"
font-family="Helvetica" font-size="16" font-weight="400" font-style="normal" 
clip-path="url(#clip27260)" >
</g>

<g fill="none" stroke="#000000" stroke-opacity="1" stroke-width="0.784438" stroke-linecap="butt" stroke-linejoin="miter" stroke-miterlimit="2" transform="matrix(1.83486,0,0,1.83486,12.844,3.66972)"
font-family="Helvetica" font-size="16" font-weight="400" font-style="normal" 
clip-path="url(#clip27260)" >
<path vector-effect="none" fill-rule="evenodd" d="M0,0 L95,0 L95,58 L0,58 L0,0z "/>
</g>

<g fill="none" stroke="#000000" stroke-opacity="1" stroke-width="1" stroke-linecap="square" stroke-linejoin="bevel" transform="matrix(1.83486,0,0,1.83486,12.844,3.66972)"
font-family="Helvetica" font-size="16" font-weight="400" font-style="normal" 
clip-path="url(#clip27260)" >
</g>

<g fill="none" stroke="#000000" stroke-opacity="1" stroke-width="1" stroke-linecap="square" stroke-linejoin="bevel" transform="matrix(1.83486,0,0,1.83486,12.844,3.66972)"
font-family="Helvetica" font-size="16" font-weight="400" font-style="normal" 
clip-path="url(#clip27260)" >
</g>

<g fill="none" stroke="#000000" stroke-opacity="1" stroke-width="0.545" stroke-linecap="butt" stroke-linejoin="miter" stroke-miterlimit="2" transform="matrix(1.83486,0,0,1.83486,12.844,3.66972)"
font-family="Helvetica" font-size="16" font-weight="400" font-style="normal" 
clip-path="url(#clip27260)" >
</g>

<g fill="none" stroke="#000000" stroke-opacity="1" stroke-width="1" stroke-linecap="square" stroke-linejoin="bevel" transform="matrix(1.83486,0,0,1.83486,12.844,3.66972)"
font-family="Helvetica" font-size="16" font-weight="400" font-style="normal" 
clip-path="url(#clip27260)" >
</g>

<g fill="none" stroke="#000000" stroke-opacity="1" stroke-width="1" stroke-linecap="square" stroke-linejoin="bevel" transform="matrix(1.83486,0,0,1.83486,100,113.761)"
font-family="Helvetica" font-size="16" font-weight="400" font-style="normal" 
clip-path="url(#clip27261)" >
<defs><clipPath id="clip27261"><path vector-effect="non-scaling-stroke" fill-rule="evenodd" d="M-54.5,-62 L54.5,-62 L54.5,-7.10543e-15 L-54.5,-7.10543e-15 L-54.5,-62z "/>
</clipPath></defs></g>

<g fill="none" stroke="#000000" stroke-opacity="1" stroke-width="1" stroke-linecap="square" stroke-linejoin="bevel" transform="matrix(1.83486,0,0,1.83486,100,113.761)"
font-family="Helvetica" font-size="16" font-weight="400" font-style="normal" 
clip-path="url(#clip27261)" >
</g>

<g fill="none" stroke="#000000" stroke-opacity="1" stroke-width="1" stroke-linecap="square" stroke-linejoin="bevel" transform="matrix(1,0,0,1,0,0)"
font-family="Helvetica" font-size="16" font-weight="400" font-style="normal" 
>
</g>

<g fill="none" stroke="#000000" stroke-opacity="1" stroke-width="1" stroke-linecap="square" stroke-linejoin="bevel" transform="matrix(1,0,0,1,0,0)"
font-family="Helvetica" font-size="16" font-weight="400" font-style="normal" 
>
</g>

<g fill="none" stroke="#000000" stroke-opacity="1" stroke-width="1" stroke-linecap="square" stroke-linejoin="bevel" transform="matrix(1,0,0,1,0,0)"
font-family="Helvetica" font-size="16" font-weight="400" font-style="normal" 
clip-path="url(#clip27262)" >
<defs><clipPath id="clip27262"><path vector-effect="non-scaling-stroke" fill-rule="evenodd" d="M0,0 L200,0 L200,113 L0,113 L0,0z "/>
</clipPath></defs></g>

<g fill="none" stroke="#000000" stroke-opacity="1" stroke-width="1" stroke-linecap="square" stroke-linejoin="bevel" transform="matrix(1,0,0,1,0,0)"
font-family="Helvetica" font-size="16" font-weight="400" font-style="normal" 
>
</g>

<g fill="none" stroke="#000000" stroke-opacity="1" stroke-width="1" stroke-linecap="square" stroke-linejoin="bevel" transform="matrix(1,0,0,1,0,0)"
font-family="Helvetica" font-size="16" font-weight="400" font-style="normal" 
>
</g>

<g fill="none" stroke="#000000" stroke-opacity="1" stroke-width="1" stroke-linecap="square" stroke-linejoin="bevel" transform="matrix(1,0,0,1,0,0)"
font-family="Helvetica" font-size="16" font-weight="400" font-style="normal" 
clip-path="url(#clip27263)" >
<defs><clipPath id="clip27263"><path vector-effect="non-scaling-stroke" fill-rule="evenodd" d="M0,0 L1,0 L1,1 L0,1 L0,0z "/>
</clipPath></defs></g>

<g fill="none" stroke="#000000" stroke-opacity="1" stroke-width="1" stroke-linecap="square" stroke-linejoin="bevel" transform="matrix(1,0,0,1,0,0)"
font-family="Helvetica" font-size="16" font-weight="400" font-style="normal" 
>
</g>

<g fill="none" stroke="#000000" stroke-opacity="1" stroke-width="1" stroke-linecap="square" stroke-linejoin="bevel" transform="matrix(1,0,0,1,0,0)"
font-family="Helvetica" font-size="16" font-weight="400" font-style="normal" 
>
</g>
</g>
</svg>
