<?xml version="1.0" encoding="UTF-8" standalone="no"?>
<svg width="52.9167mm" height="30.9562mm"
 viewBox="0 0 200 117"
 xmlns="http://www.w3.org/2000/svg" xmlns:xlink="http://www.w3.org/1999/xlink"  version="1.2" baseProfile="tiny">
<defs>
</defs>
<g fill="none" stroke="black" stroke-width="1" fill-rule="evenodd" stroke-linecap="square" stroke-linejoin="bevel" >

<g fill="#ffffff" fill-opacity="0" stroke="none" transform="matrix(1,0,0,1,0,0)"
font-family="Helvetica" font-size="16" font-weight="400" font-style="normal" 
>
<path vector-effect="non-scaling-stroke" fill-rule="evenodd" d="M0,0 L200,0 L200,117 L0,117 L0,0z "/>
</g>

<g fill="none" stroke="#000000" stroke-opacity="1" stroke-width="1" stroke-linecap="square" stroke-linejoin="bevel" transform="matrix(1,0,0,1,0,0)"
font-family="Helvetica" font-size="16" font-weight="400" font-style="normal" 
>
</g>

<g fill="none" stroke="#000000" stroke-opacity="1" stroke-width="1" stroke-linecap="square" stroke-linejoin="bevel" transform="matrix(1,0,0,1,0,0)"
font-family="Helvetica" font-size="16" font-weight="400" font-style="normal" 
clip-path="url(#clip27264)" >
<defs><clipPath id="clip27264"><path vector-effect="non-scaling-stroke" fill-rule="evenodd" d="M0,0 L200,0 L200,117.431 L0,117.431 L0,0z "/>
</clipPath></defs></g>

<g fill="none" stroke="#000000" stroke-opacity="1" stroke-width="1" stroke-linecap="square" stroke-linejoin="bevel" transform="matrix(-1.83486,0,0,-1.83486,12.844,58.7156)"
font-family="Helvetica" font-size="16" font-weight="400" font-style="normal" 
clip-path="url(#clip27265)" >
<defs><clipPath id="clip27265"><path vector-effect="non-scaling-stroke" fill-rule="evenodd" d="M7,32 L-102,32 L-102,-32 L7,-32 L7,32z "/>
</clipPath></defs></g>

<g fill="#000000" fill-opacity="0" stroke="#000000" stroke-opacity="1" stroke-width="2" stroke-linecap="round" stroke-linejoin="miter" stroke-miterlimit="2" transform="matrix(-1.83486,0,0,-1.83486,12.844,58.7156)"
font-family="Helvetica" font-size="16" font-weight="400" font-style="normal" 
clip-path="url(#clip27265)" >
<path vector-effect="none" fill-rule="evenodd" d="M5,-5 L0,0 L5,5"/>
</g>

<g fill="none" stroke="#000000" stroke-opacity="1" stroke-width="1" stroke-linecap="square" stroke-linejoin="bevel" transform="matrix(-1.83486,0,0,-1.83486,12.844,58.7156)"
font-family="Helvetica" font-size="16" font-weight="400" font-style="normal" 
clip-path="url(#clip27265)" >
</g>

<g fill="none" stroke="#000000" stroke-opacity="1" stroke-width="1" stroke-linecap="square" stroke-linejoin="bevel" transform="matrix(1.83486,0,0,1.83486,187.156,86.2385)"
font-family="Helvetica" font-size="16" font-weight="400" font-style="normal" 
clip-path="url(#clip27266)" >
<defs><clipPath id="clip27266"><path vector-effect="non-scaling-stroke" fill-rule="evenodd" d="M-102,-47 L7,-47 L7,17 L-102,17 L-102,-47z "/>
</clipPath></defs></g>

<g fill="#000000" fill-opacity="0" stroke="#000000" stroke-opacity="1" stroke-width="2" stroke-linecap="round" stroke-linejoin="miter" stroke-miterlimit="2" transform="matrix(1.83486,0,0,1.83486,187.156,86.2385)"
font-family="Helvetica" font-size="16" font-weight="400" font-style="normal" 
clip-path="url(#clip27266)" >
<path vector-effect="none" fill-rule="evenodd" d="M0,-5 L5,0 L0,5"/>
</g>

<g fill="none" stroke="#000000" stroke-opacity="1" stroke-width="1" stroke-linecap="square" stroke-linejoin="bevel" transform="matrix(1.83486,0,0,1.83486,187.156,86.2385)"
font-family="Helvetica" font-size="16" font-weight="400" font-style="normal" 
clip-path="url(#clip27266)" >
</g>

<g fill="none" stroke="#000000" stroke-opacity="1" stroke-width="1" stroke-linecap="square" stroke-linejoin="bevel" transform="matrix(1.83486,0,0,1.83486,187.156,31.1927)"
font-family="Helvetica" font-size="16" font-weight="400" font-style="normal" 
clip-path="url(#clip27267)" >
<defs><clipPath id="clip27267"><path vector-effect="non-scaling-stroke" fill-rule="evenodd" d="M-102,-17 L7,-17 L7,47 L-102,47 L-102,-17z "/>
</clipPath></defs></g>

<g fill="#000000" fill-opacity="0" stroke="#000000" stroke-opacity="1" stroke-width="2" stroke-linecap="round" stroke-linejoin="miter" stroke-miterlimit="2" transform="matrix(1.83486,0,0,1.83486,187.156,31.1927)"
font-family="Helvetica" font-size="16" font-weight="400" font-style="normal" 
clip-path="url(#clip27267)" >
<path vector-effect="none" fill-rule="evenodd" d="M0,-5 L5,0 L0,5"/>
</g>

<g fill="none" stroke="#000000" stroke-opacity="1" stroke-width="1" stroke-linecap="square" stroke-linejoin="bevel" transform="matrix(1.83486,0,0,1.83486,187.156,31.1927)"
font-family="Helvetica" font-size="16" font-weight="400" font-style="normal" 
clip-path="url(#clip27267)" >
</g>

<g fill="none" stroke="#000000" stroke-opacity="1" stroke-width="1" stroke-linecap="square" stroke-linejoin="bevel" transform="matrix(1.83486,0,0,1.83486,12.844,3.66972)"
font-family="Helvetica" font-size="16" font-weight="400" font-style="normal" 
clip-path="url(#clip27268)" >
<defs><clipPath id="clip27268"><path vector-effect="non-scaling-stroke" fill-rule="evenodd" d="M-7,-2 L102,-2 L102,62 L-7,62 L-7,-2z "/>
</clipPath></defs></g>

<g fill="#ffffff" fill-opacity="1" stroke="none" transform="matrix(1.83486,0,0,1.83486,12.844,3.66972)"
font-family="Helvetica" font-size="16" font-weight="400" font-style="normal" 
clip-path="url(#clip27268)" >
<path vector-effect="none" fill-rule="evenodd" d="M0,0 L95,0 L95,60 L0,60 L0,0z "/>
</g>

<g fill="none" stroke="#000000" stroke-opacity="1" stroke-width="1" stroke-linecap="square" stroke-linejoin="bevel" transform="matrix(1.83486,0,0,1.83486,12.844,3.66972)"
font-family="Helvetica" font-size="16" font-weight="400" font-style="normal" 
clip-path="url(#clip27268)" >
</g>

<g fill="none" stroke="#000000" stroke-opacity="1" stroke-width="1" stroke-linecap="square" stroke-linejoin="bevel" transform="matrix(1.83486,0,0,1.83486,12.844,3.66972)"
font-family="Helvetica" font-size="16" font-weight="400" font-style="normal" 
clip-path="url(#clip27268)" >
</g>

<g fill="none" stroke="#000000" stroke-opacity="1" stroke-width="1" stroke-linecap="square" stroke-linejoin="bevel" transform="matrix(1.83486,0,0,1.83486,12.844,3.66972)"
font-family="Helvetica" font-size="16" font-weight="400" font-style="normal" 
clip-path="url(#clip27269)" >
<defs><clipPath id="clip27269"><path vector-effect="non-scaling-stroke" fill-rule="evenodd" d="M0,0 L95,0 L95,60 L0,60 L0,0z "/>
</clipPath></defs></g>

<g fill="none" stroke="#000000" stroke-opacity="1" stroke-width="1" stroke-linecap="square" stroke-linejoin="bevel" transform="matrix(1.83486,0,0,1.83486,-288.991,-96.3303)"
font-family="Helvetica" font-size="16" font-weight="400" font-style="normal" 
clip-path="url(#clip27270)" >
<defs><clipPath id="clip27270"><path vector-effect="none" fill-rule="evenodd" d="M165,54 L260,54 L260,114 L165,114 L165,54z "/>
</clipPath></defs><polyline fill="none" vector-effect="none" points="172,74 181,74 " />
</g>

<g fill="none" stroke="#000000" stroke-opacity="1" stroke-width="1" stroke-linecap="square" stroke-linejoin="bevel" transform="matrix(1.83486,0,0,1.83486,-288.991,-96.3303)"
font-family="Helvetica" font-size="16" font-weight="400" font-style="normal" 
clip-path="url(#clip27270)" >
<polyline fill="none" vector-effect="none" points="181,74 177,74 " />
</g>

<g fill="none" stroke="#000000" stroke-opacity="1" stroke-width="1" stroke-linecap="square" stroke-linejoin="bevel" transform="matrix(1.83486,0,0,1.83486,-288.991,-96.3303)"
font-family="Helvetica" font-size="16" font-weight="400" font-style="normal" 
clip-path="url(#clip27270)" >
<polyline fill="none" vector-effect="none" points="177,74 177,66 " />
</g>

<g fill="none" stroke="#000000" stroke-opacity="1" stroke-width="1" stroke-linecap="square" stroke-linejoin="bevel" transform="matrix(1.83486,0,0,1.83486,-288.991,-96.3303)"
font-family="Helvetica" font-size="16" font-weight="400" font-style="normal" 
clip-path="url(#clip27270)" >
<polyline fill="none" vector-effect="none" points="177,66 172,62 " />
</g>

<g fill="none" stroke="#000000" stroke-opacity="1" stroke-width="1" stroke-linecap="square" stroke-linejoin="bevel" transform="matrix(1.83486,0,0,1.83486,-288.991,-96.3303)"
font-family="Helvetica" font-size="16" font-weight="400" font-style="normal" 
clip-path="url(#clip27270)" >
<polyline fill="none" vector-effect="none" points="172,62 177,66 " />
</g>

<g fill="none" stroke="#000000" stroke-opacity="1" stroke-width="1" stroke-linecap="square" stroke-linejoin="bevel" transform="matrix(1.83486,0,0,1.83486,-288.991,-96.3303)"
font-family="Helvetica" font-size="16" font-weight="400" font-style="normal" 
clip-path="url(#clip27270)" >
<polyline fill="none" vector-effect="none" points="177,66 184,69 " />
</g>

<g fill="none" stroke="#000000" stroke-opacity="1" stroke-width="1" stroke-linecap="square" stroke-linejoin="bevel" transform="matrix(1.83486,0,0,1.83486,-288.991,-96.3303)"
font-family="Helvetica" font-size="16" font-weight="400" font-style="normal" 
clip-path="url(#clip27270)" >
<polyline fill="none" vector-effect="none" points="184,69 180,68 " />
</g>

<g fill="none" stroke="#000000" stroke-opacity="1" stroke-width="1" stroke-linecap="square" stroke-linejoin="bevel" transform="matrix(1.83486,0,0,1.83486,-288.991,-96.3303)"
font-family="Helvetica" font-size="16" font-weight="400" font-style="normal" 
clip-path="url(#clip27270)" >
<polyline fill="none" vector-effect="none" points="180,68 180,63 " />
</g>

<g fill="none" stroke="#000000" stroke-opacity="1" stroke-width="1" stroke-linecap="square" stroke-linejoin="bevel" transform="matrix(1.83486,0,0,1.83486,-288.991,-96.3303)"
font-family="Helvetica" font-size="16" font-weight="400" font-style="normal" 
clip-path="url(#clip27270)" >
<polyline fill="none" vector-effect="none" points="180,63 175,64 " />
</g>

<g fill="none" stroke="#000000" stroke-opacity="1" stroke-width="1" stroke-linecap="square" stroke-linejoin="bevel" transform="matrix(1.83486,0,0,1.83486,-288.991,-96.3303)"
font-family="Helvetica" font-size="16" font-weight="400" font-style="normal" 
clip-path="url(#clip27270)" >
<polyline fill="none" vector-effect="none" points="175,64 180,63 " />
</g>

<g fill="none" stroke="#000000" stroke-opacity="1" stroke-width="1" stroke-linecap="square" stroke-linejoin="bevel" transform="matrix(1.83486,0,0,1.83486,-288.991,-96.3303)"
font-family="Helvetica" font-size="16" font-weight="400" font-style="normal" 
clip-path="url(#clip27270)" >
<polyline fill="none" vector-effect="none" points="180,63 204,63 " />
</g>

<g fill="none" stroke="#000000" stroke-opacity="1" stroke-width="1" stroke-linecap="square" stroke-linejoin="bevel" transform="matrix(1.83486,0,0,1.83486,-288.991,-96.3303)"
font-family="Helvetica" font-size="16" font-weight="400" font-style="normal" 
clip-path="url(#clip27270)" >
<polyline fill="none" vector-effect="none" points="204,63 207,65 " />
</g>

<g fill="none" stroke="#000000" stroke-opacity="1" stroke-width="1" stroke-linecap="square" stroke-linejoin="bevel" transform="matrix(1.83486,0,0,1.83486,-288.991,-96.3303)"
font-family="Helvetica" font-size="16" font-weight="400" font-style="normal" 
clip-path="url(#clip27270)" >
<polyline fill="none" vector-effect="none" points="207,65 210,62 " />
</g>

<g fill="none" stroke="#000000" stroke-opacity="1" stroke-width="1" stroke-linecap="square" stroke-linejoin="bevel" transform="matrix(1.83486,0,0,1.83486,-288.991,-96.3303)"
font-family="Helvetica" font-size="16" font-weight="400" font-style="normal" 
clip-path="url(#clip27270)" >
<polyline fill="none" vector-effect="none" points="210,62 213,65 " />
</g>

<g fill="none" stroke="#000000" stroke-opacity="1" stroke-width="1" stroke-linecap="square" stroke-linejoin="bevel" transform="matrix(1.83486,0,0,1.83486,-288.991,-96.3303)"
font-family="Helvetica" font-size="16" font-weight="400" font-style="normal" 
clip-path="url(#clip27270)" >
<polyline fill="none" vector-effect="none" points="213,65 215,62 " />
</g>

<g fill="none" stroke="#000000" stroke-opacity="1" stroke-width="1" stroke-linecap="square" stroke-linejoin="bevel" transform="matrix(1.83486,0,0,1.83486,-288.991,-96.3303)"
font-family="Helvetica" font-size="16" font-weight="400" font-style="normal" 
clip-path="url(#clip27270)" >
<polyline fill="none" vector-effect="none" points="215,62 219,65 " />
</g>

<g fill="none" stroke="#000000" stroke-opacity="1" stroke-width="1" stroke-linecap="square" stroke-linejoin="bevel" transform="matrix(1.83486,0,0,1.83486,-288.991,-96.3303)"
font-family="Helvetica" font-size="16" font-weight="400" font-style="normal" 
clip-path="url(#clip27270)" >
<polyline fill="none" vector-effect="none" points="219,65 221,63 " />
</g>

<g fill="none" stroke="#000000" stroke-opacity="1" stroke-width="1" stroke-linecap="square" stroke-linejoin="bevel" transform="matrix(1.83486,0,0,1.83486,-288.991,-96.3303)"
font-family="Helvetica" font-size="16" font-weight="400" font-style="normal" 
clip-path="url(#clip27270)" >
<polyline fill="none" vector-effect="none" points="221,63 245,63 " />
</g>

<g fill="none" stroke="#000000" stroke-opacity="1" stroke-width="1" stroke-linecap="square" stroke-linejoin="bevel" transform="matrix(1.83486,0,0,1.83486,-288.991,-96.3303)"
font-family="Helvetica" font-size="16" font-weight="400" font-style="normal" 
clip-path="url(#clip27270)" >
<polyline fill="none" vector-effect="none" points="245,63 250,64 " />
</g>

<g fill="none" stroke="#000000" stroke-opacity="1" stroke-width="1" stroke-linecap="square" stroke-linejoin="bevel" transform="matrix(1.83486,0,0,1.83486,-288.991,-96.3303)"
font-family="Helvetica" font-size="16" font-weight="400" font-style="normal" 
clip-path="url(#clip27270)" >
<polyline fill="none" vector-effect="none" points="250,64 245,63 " />
</g>

<g fill="none" stroke="#000000" stroke-opacity="1" stroke-width="1" stroke-linecap="square" stroke-linejoin="bevel" transform="matrix(1.83486,0,0,1.83486,-288.991,-96.3303)"
font-family="Helvetica" font-size="16" font-weight="400" font-style="normal" 
clip-path="url(#clip27270)" >
<polyline fill="none" vector-effect="none" points="245,63 245,68 " />
</g>

<g fill="none" stroke="#000000" stroke-opacity="1" stroke-width="1" stroke-linecap="square" stroke-linejoin="bevel" transform="matrix(1.83486,0,0,1.83486,-288.991,-96.3303)"
font-family="Helvetica" font-size="16" font-weight="400" font-style="normal" 
clip-path="url(#clip27270)" >
<polyline fill="none" vector-effect="none" points="245,68 241,69 " />
</g>

<g fill="none" stroke="#000000" stroke-opacity="1" stroke-width="1" stroke-linecap="square" stroke-linejoin="bevel" transform="matrix(1.83486,0,0,1.83486,-288.991,-96.3303)"
font-family="Helvetica" font-size="16" font-weight="400" font-style="normal" 
clip-path="url(#clip27270)" >
<polyline fill="none" vector-effect="none" points="241,69 248,66 " />
</g>

<g fill="none" stroke="#000000" stroke-opacity="1" stroke-width="1" stroke-linecap="square" stroke-linejoin="bevel" transform="matrix(1.83486,0,0,1.83486,-288.991,-96.3303)"
font-family="Helvetica" font-size="16" font-weight="400" font-style="normal" 
clip-path="url(#clip27270)" >
<polyline fill="none" vector-effect="none" points="248,66 253,62 " />
</g>

<g fill="none" stroke="#000000" stroke-opacity="1" stroke-width="1" stroke-linecap="square" stroke-linejoin="bevel" transform="matrix(1.83486,0,0,1.83486,-288.991,-96.3303)"
font-family="Helvetica" font-size="16" font-weight="400" font-style="normal" 
clip-path="url(#clip27270)" >
<polyline fill="none" vector-effect="none" points="253,62 248,66 " />
</g>

<g fill="none" stroke="#000000" stroke-opacity="1" stroke-width="1" stroke-linecap="square" stroke-linejoin="bevel" transform="matrix(1.83486,0,0,1.83486,-288.991,-96.3303)"
font-family="Helvetica" font-size="16" font-weight="400" font-style="normal" 
clip-path="url(#clip27270)" >
<polyline fill="none" vector-effect="none" points="248,66 248,74 " />
</g>

<g fill="none" stroke="#000000" stroke-opacity="1" stroke-width="1" stroke-linecap="square" stroke-linejoin="bevel" transform="matrix(1.83486,0,0,1.83486,-288.991,-96.3303)"
font-family="Helvetica" font-size="16" font-weight="400" font-style="normal" 
clip-path="url(#clip27270)" >
<polyline fill="none" vector-effect="none" points="248,74 244,74 " />
</g>

<g fill="none" stroke="#000000" stroke-opacity="1" stroke-width="1" stroke-linecap="square" stroke-linejoin="bevel" transform="matrix(1.83486,0,0,1.83486,-288.991,-96.3303)"
font-family="Helvetica" font-size="16" font-weight="400" font-style="normal" 
clip-path="url(#clip27270)" >
<polyline fill="none" vector-effect="none" points="244,74 253,74 " />
</g>

<g fill="none" stroke="#000000" stroke-opacity="1" stroke-width="1" stroke-linecap="square" stroke-linejoin="bevel" transform="matrix(1.83486,0,0,1.83486,99.0826,58.7156)"
font-family="FreeSans" font-size="13.7143" font-weight="400" font-style="normal" 
clip-path="url(#clip27271)" >
<defs><clipPath id="clip27271"><path vector-effect="none" fill-rule="evenodd" d="M-47,-30 L48,-30 L48,30 L-47,30 L-47,-30z "/>
</clipPath></defs></g>

<g fill="none" stroke="#000000" stroke-opacity="1" stroke-width="1" stroke-linecap="square" stroke-linejoin="bevel" transform="matrix(1.33792,0,0,1.33792,99.0826,58.7156)"
font-family="FreeSans" font-size="13.7143" font-weight="400" font-style="normal" 
clip-path="url(#clip27272)" >
<defs><clipPath id="clip27272"><path vector-effect="none" fill-rule="evenodd" d="M-64,-41 L66,-41 L66,41 L-64,41 L-64,-41z "/>
</clipPath></defs><text textLength="28" fill="#000000" fill-opacity="1" stroke="none" xml:space="preserve" x="-13.7031" y="4.125" font-family="FreeSans" font-size="13.7143" font-weight="400" font-style="normal" 
 >BSC</text>
</g>

<g fill="none" stroke="#000000" stroke-opacity="1" stroke-width="1" stroke-linecap="square" stroke-linejoin="bevel" transform="matrix(1.83486,0,0,1.83486,99.0826,58.7156)"
font-family="FreeSans" font-size="13.7143" font-weight="400" font-style="normal" 
clip-path="url(#clip27273)" >
<defs><clipPath id="clip27273"><path vector-effect="none" fill-rule="evenodd" d="M-47,-30 L48,-30 L48,30 L-47,30 L-47,-30z "/>
</clipPath></defs></g>

<g fill="none" stroke="#000000" stroke-opacity="1" stroke-width="1" stroke-linecap="square" stroke-linejoin="bevel" transform="matrix(1.83486,0,0,1.83486,181.651,86.2385)"
font-family="FreeSans" font-size="13.7143" font-weight="400" font-style="normal" 
clip-path="url(#clip27274)" >
<defs><clipPath id="clip27274"><path vector-effect="none" fill-rule="evenodd" d="M-92,-45 L3,-45 L3,15 L-92,15 L-92,-45z "/>
</clipPath></defs></g>

<g fill="none" stroke="#000000" stroke-opacity="1" stroke-width="1" stroke-linecap="square" stroke-linejoin="bevel" transform="matrix(1.33792,0,0,1.33792,181.651,86.2385)"
font-family="FreeSans" font-size="13.7143" font-weight="400" font-style="normal" 
clip-path="url(#clip27275)" >
<defs><clipPath id="clip27275"><path vector-effect="none" fill-rule="evenodd" d="M-126,-62 L4,-62 L4,20 L-126,20 L-126,-62z "/>
</clipPath></defs><text textLength="18" fill="#000000" fill-opacity="1" stroke="none" xml:space="preserve" x="-20.5625" y="4.125" font-family="FreeSans" font-size="13.7143" font-weight="400" font-style="normal" 
 >Err</text>
</g>

<g fill="none" stroke="#000000" stroke-opacity="1" stroke-width="1" stroke-linecap="square" stroke-linejoin="bevel" transform="matrix(1.83486,0,0,1.83486,181.651,86.2385)"
font-family="FreeSans" font-size="13.7143" font-weight="400" font-style="normal" 
clip-path="url(#clip27276)" >
<defs><clipPath id="clip27276"><path vector-effect="none" fill-rule="evenodd" d="M-92,-45 L3,-45 L3,15 L-92,15 L-92,-45z "/>
</clipPath></defs></g>

<g fill="none" stroke="#000000" stroke-opacity="1" stroke-width="1" stroke-linecap="square" stroke-linejoin="bevel" transform="matrix(2.51638,0,0,2.51638,181.651,86.2385)"
font-family="FreeSans" font-size="13.7143" font-weight="400" font-style="normal" 
clip-path="url(#clip27277)" >
<defs><clipPath id="clip27277"><path vector-effect="none" fill-rule="evenodd" d="M-7,-2 L102,-2 L102,62 L-7,62 L-7,-2z "/>
</clipPath></defs></g>

<g fill="none" stroke="#000000" stroke-opacity="1" stroke-width="1" stroke-linecap="square" stroke-linejoin="bevel" transform="matrix(1,0,0,1,0,0)"
font-family="FreeSans" font-size="13.7143" font-weight="400" font-style="normal" 
clip-path="url(#clip27277)" >
</g>

<g fill="none" stroke="#000000" stroke-opacity="1" stroke-width="1" stroke-linecap="square" stroke-linejoin="bevel" transform="matrix(1.83486,0,0,1.83486,12.844,3.66972)"
font-family="Helvetica" font-size="16" font-weight="400" font-style="normal" 
clip-path="url(#clip27277)" >
</g>

<g fill="none" stroke="#000000" stroke-opacity="1" stroke-width="1" stroke-linecap="square" stroke-linejoin="bevel" transform="matrix(1.83486,0,0,1.83486,12.844,3.66972)"
font-family="Helvetica" font-size="16" font-weight="400" font-style="normal" 
clip-path="url(#clip27277)" >
</g>

<g fill="none" stroke="#000000" stroke-opacity="1" stroke-width="0.784438" stroke-linecap="butt" stroke-linejoin="miter" stroke-miterlimit="2" transform="matrix(1.83486,0,0,1.83486,12.844,3.66972)"
font-family="Helvetica" font-size="16" font-weight="400" font-style="normal" 
clip-path="url(#clip27277)" >
<path vector-effect="none" fill-rule="evenodd" d="M0,0 L95,0 L95,60 L0,60 L0,0z "/>
</g>

<g fill="none" stroke="#000000" stroke-opacity="1" stroke-width="1" stroke-linecap="square" stroke-linejoin="bevel" transform="matrix(1.83486,0,0,1.83486,12.844,3.66972)"
font-family="Helvetica" font-size="16" font-weight="400" font-style="normal" 
clip-path="url(#clip27277)" >
</g>

<g fill="none" stroke="#000000" stroke-opacity="1" stroke-width="1" stroke-linecap="square" stroke-linejoin="bevel" transform="matrix(1.83486,0,0,1.83486,12.844,3.66972)"
font-family="Helvetica" font-size="16" font-weight="400" font-style="normal" 
clip-path="url(#clip27277)" >
</g>

<g fill="none" stroke="#000000" stroke-opacity="1" stroke-width="0.545" stroke-linecap="butt" stroke-linejoin="miter" stroke-miterlimit="2" transform="matrix(1.83486,0,0,1.83486,12.844,3.66972)"
font-family="Helvetica" font-size="16" font-weight="400" font-style="normal" 
clip-path="url(#clip27277)" >
</g>

<g fill="none" stroke="#000000" stroke-opacity="1" stroke-width="1" stroke-linecap="square" stroke-linejoin="bevel" transform="matrix(1.83486,0,0,1.83486,12.844,3.66972)"
font-family="Helvetica" font-size="16" font-weight="400" font-style="normal" 
clip-path="url(#clip27277)" >
</g>

<g fill="none" stroke="#000000" stroke-opacity="1" stroke-width="1" stroke-linecap="square" stroke-linejoin="bevel" transform="matrix(1.83486,0,0,1.83486,100,117.431)"
font-family="Helvetica" font-size="16" font-weight="400" font-style="normal" 
clip-path="url(#clip27278)" >
<defs><clipPath id="clip27278"><path vector-effect="non-scaling-stroke" fill-rule="evenodd" d="M-54.5,-64 L54.5,-64 L54.5,0 L-54.5,0 L-54.5,-64z "/>
</clipPath></defs></g>

<g fill="none" stroke="#000000" stroke-opacity="1" stroke-width="1" stroke-linecap="square" stroke-linejoin="bevel" transform="matrix(1.83486,0,0,1.83486,100,117.431)"
font-family="Helvetica" font-size="16" font-weight="400" font-style="normal" 
clip-path="url(#clip27278)" >
</g>

<g fill="none" stroke="#000000" stroke-opacity="1" stroke-width="1" stroke-linecap="square" stroke-linejoin="bevel" transform="matrix(1,0,0,1,0,0)"
font-family="Helvetica" font-size="16" font-weight="400" font-style="normal" 
>
</g>

<g fill="none" stroke="#000000" stroke-opacity="1" stroke-width="1" stroke-linecap="square" stroke-linejoin="bevel" transform="matrix(1,0,0,1,0,0)"
font-family="Helvetica" font-size="16" font-weight="400" font-style="normal" 
>
</g>

<g fill="none" stroke="#000000" stroke-opacity="1" stroke-width="1" stroke-linecap="square" stroke-linejoin="bevel" transform="matrix(1,0,0,1,0,0)"
font-family="Helvetica" font-size="16" font-weight="400" font-style="normal" 
clip-path="url(#clip27279)" >
<defs><clipPath id="clip27279"><path vector-effect="non-scaling-stroke" fill-rule="evenodd" d="M0,0 L200,0 L200,117 L0,117 L0,0z "/>
</clipPath></defs></g>

<g fill="none" stroke="#000000" stroke-opacity="1" stroke-width="1" stroke-linecap="square" stroke-linejoin="bevel" transform="matrix(1,0,0,1,0,0)"
font-family="Helvetica" font-size="16" font-weight="400" font-style="normal" 
>
</g>

<g fill="none" stroke="#000000" stroke-opacity="1" stroke-width="1" stroke-linecap="square" stroke-linejoin="bevel" transform="matrix(1,0,0,1,0,0)"
font-family="Helvetica" font-size="16" font-weight="400" font-style="normal" 
>
</g>

<g fill="none" stroke="#000000" stroke-opacity="1" stroke-width="1" stroke-linecap="square" stroke-linejoin="bevel" transform="matrix(1,0,0,1,0,0)"
font-family="Helvetica" font-size="16" font-weight="400" font-style="normal" 
clip-path="url(#clip27280)" >
<defs><clipPath id="clip27280"><path vector-effect="non-scaling-stroke" fill-rule="evenodd" d="M0,0 L1,0 L1,1 L0,1 L0,0z "/>
</clipPath></defs></g>

<g fill="none" stroke="#000000" stroke-opacity="1" stroke-width="1" stroke-linecap="square" stroke-linejoin="bevel" transform="matrix(1,0,0,1,0,0)"
font-family="Helvetica" font-size="16" font-weight="400" font-style="normal" 
>
</g>

<g fill="none" stroke="#000000" stroke-opacity="1" stroke-width="1" stroke-linecap="square" stroke-linejoin="bevel" transform="matrix(1,0,0,1,0,0)"
font-family="Helvetica" font-size="16" font-weight="400" font-style="normal" 
>
</g>
</g>
</svg>
