<?xml version="1.0" encoding="UTF-8" standalone="no"?>
<svg width="52.9167mm" height="25.9292mm"
 viewBox="0 0 200 98"
 xmlns="http://www.w3.org/2000/svg" xmlns:xlink="http://www.w3.org/1999/xlink"  version="1.2" baseProfile="tiny">
<defs>
</defs>
<g fill="none" stroke="black" stroke-width="1" fill-rule="evenodd" stroke-linecap="square" stroke-linejoin="bevel" >

<g fill="#ffffff" fill-opacity="0" stroke="none" transform="matrix(1,0,0,1,0,0)"
font-family="Helvetica" font-size="16" font-weight="400" font-style="normal" 
>
<path vector-effect="non-scaling-stroke" fill-rule="evenodd" d="M0,0 L200,0 L200,98 L0,98 L0,0z "/>
</g>

<g fill="none" stroke="#000000" stroke-opacity="1" stroke-width="1" stroke-linecap="square" stroke-linejoin="bevel" transform="matrix(1,0,0,1,0,0)"
font-family="Helvetica" font-size="16" font-weight="400" font-style="normal" 
>
</g>

<g fill="none" stroke="#000000" stroke-opacity="1" stroke-width="1" stroke-linecap="square" stroke-linejoin="bevel" transform="matrix(1,0,0,1,0,0)"
font-family="Helvetica" font-size="16" font-weight="400" font-style="normal" 
clip-path="url(#clip28088)" >
<defs><clipPath id="clip28088"><path vector-effect="non-scaling-stroke" fill-rule="evenodd" d="M0,0 L200,0 L200,98.5075 L0,98.5075 L0,0z "/>
</clipPath></defs></g>

<g fill="none" stroke="#000000" stroke-opacity="1" stroke-width="1" stroke-linecap="square" stroke-linejoin="bevel" transform="matrix(1.49254,0,0,1.49254,189.552,49.2537)"
font-family="Helvetica" font-size="16" font-weight="400" font-style="normal" 
clip-path="url(#clip28089)" >
<defs><clipPath id="clip28089"><path vector-effect="non-scaling-stroke" fill-rule="evenodd" d="M-127,-33 L7,-33 L7,33 L-127,33 L-127,-33z "/>
</clipPath></defs></g>

<g fill="#000000" fill-opacity="0" stroke="#000000" stroke-opacity="1" stroke-width="2" stroke-linecap="round" stroke-linejoin="miter" stroke-miterlimit="2" transform="matrix(1.49254,0,0,1.49254,189.552,49.2537)"
font-family="Helvetica" font-size="16" font-weight="400" font-style="normal" 
clip-path="url(#clip28089)" >
<path vector-effect="none" fill-rule="evenodd" d="M0,-5 L5,0 L0,5"/>
</g>

<g fill="none" stroke="#000000" stroke-opacity="1" stroke-width="1" stroke-linecap="square" stroke-linejoin="bevel" transform="matrix(1.49254,0,0,1.49254,189.552,49.2537)"
font-family="Helvetica" font-size="16" font-weight="400" font-style="normal" 
clip-path="url(#clip28089)" >
</g>

<g fill="none" stroke="#000000" stroke-opacity="1" stroke-width="1" stroke-linecap="square" stroke-linejoin="bevel" transform="matrix(-1.49254,0,0,-1.49254,10.4478,49.2537)"
font-family="Helvetica" font-size="16" font-weight="400" font-style="normal" 
clip-path="url(#clip28090)" >
<defs><clipPath id="clip28090"><path vector-effect="non-scaling-stroke" fill-rule="evenodd" d="M7,33 L-127,33 L-127,-33 L7,-33 L7,33z "/>
</clipPath></defs></g>

<g fill="#000000" fill-opacity="0" stroke="#000000" stroke-opacity="1" stroke-width="2" stroke-linecap="round" stroke-linejoin="miter" stroke-miterlimit="2" transform="matrix(-1.49254,0,0,-1.49254,10.4478,49.2537)"
font-family="Helvetica" font-size="16" font-weight="400" font-style="normal" 
clip-path="url(#clip28090)" >
<path vector-effect="none" fill-rule="evenodd" d="M5,-5 L0,0 L5,5"/>
</g>

<g fill="none" stroke="#000000" stroke-opacity="1" stroke-width="1" stroke-linecap="square" stroke-linejoin="bevel" transform="matrix(-1.49254,0,0,-1.49254,10.4478,49.2537)"
font-family="Helvetica" font-size="16" font-weight="400" font-style="normal" 
clip-path="url(#clip28090)" >
</g>

<g fill="none" stroke="#000000" stroke-opacity="1" stroke-width="1" stroke-linecap="square" stroke-linejoin="bevel" transform="matrix(1.49254,0,0,1.49254,10.4478,2.98507)"
font-family="Helvetica" font-size="16" font-weight="400" font-style="normal" 
clip-path="url(#clip28091)" >
<defs><clipPath id="clip28091"><path vector-effect="non-scaling-stroke" fill-rule="evenodd" d="M-7,-2 L127,-2 L127,64 L-7,64 L-7,-2z "/>
</clipPath></defs></g>

<g fill="#ffffff" fill-opacity="1" stroke="none" transform="matrix(1.49254,0,0,1.49254,10.4478,2.98507)"
font-family="Helvetica" font-size="16" font-weight="400" font-style="normal" 
clip-path="url(#clip28091)" >
<path vector-effect="none" fill-rule="evenodd" d="M0,0 L120,0 L120,62 L0,62 L0,0z "/>
</g>

<g fill="none" stroke="#000000" stroke-opacity="1" stroke-width="1" stroke-linecap="square" stroke-linejoin="bevel" transform="matrix(1.49254,0,0,1.49254,10.4478,2.98507)"
font-family="Helvetica" font-size="16" font-weight="400" font-style="normal" 
clip-path="url(#clip28091)" >
</g>

<g fill="none" stroke="#000000" stroke-opacity="1" stroke-width="1" stroke-linecap="square" stroke-linejoin="bevel" transform="matrix(1.49254,0,0,1.49254,10.4478,2.98507)"
font-family="Helvetica" font-size="16" font-weight="400" font-style="normal" 
clip-path="url(#clip28091)" >
</g>

<g fill="none" stroke="#000000" stroke-opacity="1" stroke-width="1" stroke-linecap="square" stroke-linejoin="bevel" transform="matrix(1.49254,0,0,1.49254,10.4478,2.98507)"
font-family="Helvetica" font-size="16" font-weight="400" font-style="normal" 
clip-path="url(#clip28092)" >
<defs><clipPath id="clip28092"><path vector-effect="non-scaling-stroke" fill-rule="evenodd" d="M0,0 L120,0 L120,62 L0,62 L0,0z "/>
</clipPath></defs></g>

<g fill="none" stroke="#000000" stroke-opacity="1" stroke-width="1" stroke-linecap="square" stroke-linejoin="bevel" transform="matrix(1.49254,0,0,1.49254,-526.119,-136.567)"
font-family="Helvetica" font-size="16" font-weight="400" font-style="normal" 
clip-path="url(#clip28093)" >
<defs><clipPath id="clip28093"><path vector-effect="none" fill-rule="evenodd" d="M360,93 L480,93 L480,155 L360,155 L360,93z "/>
</clipPath></defs><polyline fill="none" vector-effect="none" points="392,108 403,108 " />
</g>

<g fill="none" stroke="#000000" stroke-opacity="1" stroke-width="1" stroke-linecap="square" stroke-linejoin="bevel" transform="matrix(1.49254,0,0,1.49254,-526.119,-136.567)"
font-family="Helvetica" font-size="16" font-weight="400" font-style="normal" 
clip-path="url(#clip28093)" >
<polyline fill="none" vector-effect="none" points="403,108 403,103 " />
</g>

<g fill="none" stroke="#000000" stroke-opacity="1" stroke-width="1" stroke-linecap="square" stroke-linejoin="bevel" transform="matrix(1.49254,0,0,1.49254,-526.119,-136.567)"
font-family="Helvetica" font-size="16" font-weight="400" font-style="normal" 
clip-path="url(#clip28093)" >
<polyline fill="none" vector-effect="none" points="403,103 392,103 " />
</g>

<g fill="none" stroke="#000000" stroke-opacity="1" stroke-width="1" stroke-linecap="square" stroke-linejoin="bevel" transform="matrix(1.49254,0,0,1.49254,-526.119,-136.567)"
font-family="Helvetica" font-size="16" font-weight="400" font-style="normal" 
clip-path="url(#clip28093)" >
<polyline fill="none" vector-effect="none" points="392,103 392,114 " />
</g>

<g fill="none" stroke="#000000" stroke-opacity="1" stroke-width="1" stroke-linecap="square" stroke-linejoin="bevel" transform="matrix(1.49254,0,0,1.49254,-526.119,-136.567)"
font-family="Helvetica" font-size="16" font-weight="400" font-style="normal" 
clip-path="url(#clip28093)" >
<polyline fill="none" vector-effect="none" points="392,114 403,114 " />
</g>

<g fill="none" stroke="#000000" stroke-opacity="1" stroke-width="1" stroke-linecap="square" stroke-linejoin="bevel" transform="matrix(1.49254,0,0,1.49254,-526.119,-136.567)"
font-family="Helvetica" font-size="16" font-weight="400" font-style="normal" 
clip-path="url(#clip28093)" >
<polyline fill="none" vector-effect="none" points="403,114 403,103 " />
</g>

<g fill="none" stroke="#000000" stroke-opacity="1" stroke-width="1" stroke-linecap="square" stroke-linejoin="bevel" transform="matrix(1.49254,0,0,1.49254,-526.119,-136.567)"
font-family="Helvetica" font-size="16" font-weight="400" font-style="normal" 
clip-path="url(#clip28093)" >
<polyline fill="none" vector-effect="none" points="403,103 403,108 " />
</g>

<g fill="none" stroke="#000000" stroke-opacity="1" stroke-width="1" stroke-linecap="square" stroke-linejoin="bevel" transform="matrix(1.49254,0,0,1.49254,-526.119,-136.567)"
font-family="Helvetica" font-size="16" font-weight="400" font-style="normal" 
clip-path="url(#clip28093)" >
<polyline fill="none" vector-effect="none" points="403,108 403,107 " />
</g>

<g fill="none" stroke="#000000" stroke-opacity="1" stroke-width="1" stroke-linecap="square" stroke-linejoin="bevel" transform="matrix(1.49254,0,0,1.49254,-526.119,-136.567)"
font-family="Helvetica" font-size="16" font-weight="400" font-style="normal" 
clip-path="url(#clip28093)" >
<polyline fill="none" vector-effect="none" points="403,107 409,108 " />
</g>

<g fill="none" stroke="#000000" stroke-opacity="1" stroke-width="1" stroke-linecap="square" stroke-linejoin="bevel" transform="matrix(1.49254,0,0,1.49254,-526.119,-136.567)"
font-family="Helvetica" font-size="16" font-weight="400" font-style="normal" 
clip-path="url(#clip28093)" >
<polyline fill="none" vector-effect="none" points="409,108 403,110 " />
</g>

<g fill="none" stroke="#000000" stroke-opacity="1" stroke-width="1" stroke-linecap="square" stroke-linejoin="bevel" transform="matrix(1.49254,0,0,1.49254,-526.119,-136.567)"
font-family="Helvetica" font-size="16" font-weight="400" font-style="normal" 
clip-path="url(#clip28093)" >
<polyline fill="none" vector-effect="none" points="403,110 426,110 " />
</g>

<g fill="none" stroke="#000000" stroke-opacity="1" stroke-width="1" stroke-linecap="square" stroke-linejoin="bevel" transform="matrix(1.49254,0,0,1.49254,-526.119,-136.567)"
font-family="Helvetica" font-size="16" font-weight="400" font-style="normal" 
clip-path="url(#clip28093)" >
<polyline fill="none" vector-effect="none" points="426,110 426,112 " />
</g>

<g fill="none" stroke="#000000" stroke-opacity="1" stroke-width="1" stroke-linecap="square" stroke-linejoin="bevel" transform="matrix(1.49254,0,0,1.49254,-526.119,-136.567)"
font-family="Helvetica" font-size="16" font-weight="400" font-style="normal" 
clip-path="url(#clip28093)" >
<polyline fill="none" vector-effect="none" points="426,112 437,108 " />
</g>

<g fill="none" stroke="#000000" stroke-opacity="1" stroke-width="1" stroke-linecap="square" stroke-linejoin="bevel" transform="matrix(1.49254,0,0,1.49254,-526.119,-136.567)"
font-family="Helvetica" font-size="16" font-weight="400" font-style="normal" 
clip-path="url(#clip28093)" >
<polyline fill="none" vector-effect="none" points="437,108 426,104 " />
</g>

<g fill="none" stroke="#000000" stroke-opacity="1" stroke-width="1" stroke-linecap="square" stroke-linejoin="bevel" transform="matrix(1.49254,0,0,1.49254,-526.119,-136.567)"
font-family="Helvetica" font-size="16" font-weight="400" font-style="normal" 
clip-path="url(#clip28093)" >
<polyline fill="none" vector-effect="none" points="426,104 426,107 " />
</g>

<g fill="none" stroke="#000000" stroke-opacity="1" stroke-width="1" stroke-linecap="square" stroke-linejoin="bevel" transform="matrix(1.49254,0,0,1.49254,-526.119,-136.567)"
font-family="Helvetica" font-size="16" font-weight="400" font-style="normal" 
clip-path="url(#clip28093)" >
<polyline fill="none" vector-effect="none" points="426,107 403,107 " />
</g>

<g fill="none" stroke="#000000" stroke-opacity="1" stroke-width="1" stroke-linecap="square" stroke-linejoin="bevel" transform="matrix(1.49254,0,0,1.49254,-526.119,-136.567)"
font-family="Helvetica" font-size="16" font-weight="400" font-style="normal" 
clip-path="url(#clip28093)" >
<polyline fill="none" vector-effect="none" points="403,107 426,107 " />
</g>

<g fill="none" stroke="#000000" stroke-opacity="1" stroke-width="1" stroke-linecap="square" stroke-linejoin="bevel" transform="matrix(1.49254,0,0,1.49254,-526.119,-136.567)"
font-family="Helvetica" font-size="16" font-weight="400" font-style="normal" 
clip-path="url(#clip28093)" >
<polyline fill="none" vector-effect="none" points="426,107 426,104 " />
</g>

<g fill="none" stroke="#000000" stroke-opacity="1" stroke-width="1" stroke-linecap="square" stroke-linejoin="bevel" transform="matrix(1.49254,0,0,1.49254,-526.119,-136.567)"
font-family="Helvetica" font-size="16" font-weight="400" font-style="normal" 
clip-path="url(#clip28093)" >
<polyline fill="none" vector-effect="none" points="426,104 437,108 " />
</g>

<g fill="none" stroke="#000000" stroke-opacity="1" stroke-width="1" stroke-linecap="square" stroke-linejoin="bevel" transform="matrix(1.49254,0,0,1.49254,-526.119,-136.567)"
font-family="Helvetica" font-size="16" font-weight="400" font-style="normal" 
clip-path="url(#clip28093)" >
<polyline fill="none" vector-effect="none" points="437,108 437,100 " />
</g>

<g fill="none" stroke="#000000" stroke-opacity="1" stroke-width="1" stroke-linecap="square" stroke-linejoin="bevel" transform="matrix(1.49254,0,0,1.49254,-526.119,-136.567)"
font-family="Helvetica" font-size="16" font-weight="400" font-style="normal" 
clip-path="url(#clip28093)" >
<polyline fill="none" vector-effect="none" points="437,100 449,100 " />
</g>

<g fill="none" stroke="#000000" stroke-opacity="1" stroke-width="1" stroke-linecap="square" stroke-linejoin="bevel" transform="matrix(1.49254,0,0,1.49254,-526.119,-136.567)"
font-family="Helvetica" font-size="16" font-weight="400" font-style="normal" 
clip-path="url(#clip28093)" >
<polyline fill="none" vector-effect="none" points="449,100 449,117 " />
</g>

<g fill="none" stroke="#000000" stroke-opacity="1" stroke-width="1" stroke-linecap="square" stroke-linejoin="bevel" transform="matrix(1.49254,0,0,1.49254,-526.119,-136.567)"
font-family="Helvetica" font-size="16" font-weight="400" font-style="normal" 
clip-path="url(#clip28093)" >
<polyline fill="none" vector-effect="none" points="449,117 437,117 " />
</g>

<g fill="none" stroke="#000000" stroke-opacity="1" stroke-width="1" stroke-linecap="square" stroke-linejoin="bevel" transform="matrix(1.49254,0,0,1.49254,-526.119,-136.567)"
font-family="Helvetica" font-size="16" font-weight="400" font-style="normal" 
clip-path="url(#clip28093)" >
<polyline fill="none" vector-effect="none" points="437,117 437,105 " />
</g>

<g fill="none" stroke="#000000" stroke-opacity="1" stroke-width="1" stroke-linecap="square" stroke-linejoin="bevel" transform="matrix(1.49254,0,0,1.49254,-526.119,-136.567)"
font-family="Helvetica" font-size="16" font-weight="400" font-style="normal" 
clip-path="url(#clip28093)" >
<polyline fill="none" vector-effect="none" points="437,105 449,105 " />
</g>

<g fill="none" stroke="#000000" stroke-opacity="1" stroke-width="1" stroke-linecap="square" stroke-linejoin="bevel" transform="matrix(1.49254,0,0,1.49254,-526.119,-136.567)"
font-family="Helvetica" font-size="16" font-weight="400" font-style="normal" 
clip-path="url(#clip28093)" >
<polyline fill="none" vector-effect="none" points="449,105 437,105 " />
</g>

<g fill="none" stroke="#000000" stroke-opacity="1" stroke-width="1" stroke-linecap="square" stroke-linejoin="bevel" transform="matrix(1.49254,0,0,1.49254,-526.119,-136.567)"
font-family="Helvetica" font-size="16" font-weight="400" font-style="normal" 
clip-path="url(#clip28093)" >
<polyline fill="none" vector-effect="none" points="437,105 437,111 " />
</g>

<g fill="none" stroke="#000000" stroke-opacity="1" stroke-width="1" stroke-linecap="square" stroke-linejoin="bevel" transform="matrix(1.49254,0,0,1.49254,-526.119,-136.567)"
font-family="Helvetica" font-size="16" font-weight="400" font-style="normal" 
clip-path="url(#clip28093)" >
<polyline fill="none" vector-effect="none" points="437,111 449,111 " />
</g>

<g fill="none" stroke="#000000" stroke-opacity="1" stroke-width="1" stroke-linecap="square" stroke-linejoin="bevel" transform="matrix(1.49254,0,0,1.49254,100,58.209)"
font-family="FreeSans" font-size="13.7143" font-weight="400" font-style="normal" 
clip-path="url(#clip28094)" >
<defs><clipPath id="clip28094"><path vector-effect="none" fill-rule="evenodd" d="M-60,-37 L60,-37 L60,25 L-60,25 L-60,-37z "/>
</clipPath></defs></g>

<g fill="none" stroke="#000000" stroke-opacity="1" stroke-width="1" stroke-linecap="square" stroke-linejoin="bevel" transform="matrix(1.08831,0,0,1.08831,100,58.209)"
font-family="FreeSans" font-size="13.7143" font-weight="400" font-style="normal" 
clip-path="url(#clip28095)" >
<defs><clipPath id="clip28095"><path vector-effect="none" fill-rule="evenodd" d="M-82,-51 L83,-51 L83,34 L-82,34 L-82,-51z "/>
</clipPath></defs><text textLength="84" fill="#000000" fill-opacity="1" stroke="none" xml:space="preserve" x="-42.5" y="4.125" font-family="FreeSans" font-size="13.7143" font-weight="400" font-style="normal" 
 >BCH Encoder</text>
</g>

<g fill="none" stroke="#000000" stroke-opacity="1" stroke-width="1" stroke-linecap="square" stroke-linejoin="bevel" transform="matrix(1.49254,0,0,1.49254,100,58.209)"
font-family="FreeSans" font-size="13.7143" font-weight="400" font-style="normal" 
clip-path="url(#clip28096)" >
<defs><clipPath id="clip28096"><path vector-effect="none" fill-rule="evenodd" d="M-60,-37 L60,-37 L60,25 L-60,25 L-60,-37z "/>
</clipPath></defs></g>

<g fill="none" stroke="#000000" stroke-opacity="1" stroke-width="1" stroke-linecap="square" stroke-linejoin="bevel" transform="matrix(2.04691,0,0,2.04691,100,58.209)"
font-family="FreeSans" font-size="13.7143" font-weight="400" font-style="normal" 
clip-path="url(#clip28097)" >
<defs><clipPath id="clip28097"><path vector-effect="none" fill-rule="evenodd" d="M-7,-2 L127,-2 L127,64 L-7,64 L-7,-2z "/>
</clipPath></defs></g>

<g fill="none" stroke="#000000" stroke-opacity="1" stroke-width="1" stroke-linecap="square" stroke-linejoin="bevel" transform="matrix(1,0,0,1,0,0)"
font-family="FreeSans" font-size="13.7143" font-weight="400" font-style="normal" 
clip-path="url(#clip28097)" >
</g>

<g fill="none" stroke="#000000" stroke-opacity="1" stroke-width="1" stroke-linecap="square" stroke-linejoin="bevel" transform="matrix(1.49254,0,0,1.49254,10.4478,2.98507)"
font-family="Helvetica" font-size="16" font-weight="400" font-style="normal" 
clip-path="url(#clip28097)" >
</g>

<g fill="none" stroke="#000000" stroke-opacity="1" stroke-width="1" stroke-linecap="square" stroke-linejoin="bevel" transform="matrix(1.49254,0,0,1.49254,10.4478,2.98507)"
font-family="Helvetica" font-size="16" font-weight="400" font-style="normal" 
clip-path="url(#clip28097)" >
</g>

<g fill="none" stroke="#000000" stroke-opacity="1" stroke-width="0.851981" stroke-linecap="butt" stroke-linejoin="miter" stroke-miterlimit="2" transform="matrix(1.49254,0,0,1.49254,10.4478,2.98507)"
font-family="Helvetica" font-size="16" font-weight="400" font-style="normal" 
clip-path="url(#clip28097)" >
<path vector-effect="none" fill-rule="evenodd" d="M0,0 L120,0 L120,62 L0,62 L0,0z "/>
</g>

<g fill="none" stroke="#000000" stroke-opacity="1" stroke-width="1" stroke-linecap="square" stroke-linejoin="bevel" transform="matrix(1.49254,0,0,1.49254,10.4478,2.98507)"
font-family="Helvetica" font-size="16" font-weight="400" font-style="normal" 
clip-path="url(#clip28097)" >
</g>

<g fill="none" stroke="#000000" stroke-opacity="1" stroke-width="1" stroke-linecap="square" stroke-linejoin="bevel" transform="matrix(1.49254,0,0,1.49254,10.4478,2.98507)"
font-family="Helvetica" font-size="16" font-weight="400" font-style="normal" 
clip-path="url(#clip28097)" >
</g>

<g fill="none" stroke="#000000" stroke-opacity="1" stroke-width="0.67" stroke-linecap="butt" stroke-linejoin="miter" stroke-miterlimit="2" transform="matrix(1.49254,0,0,1.49254,10.4478,2.98507)"
font-family="Helvetica" font-size="16" font-weight="400" font-style="normal" 
clip-path="url(#clip28097)" >
</g>

<g fill="none" stroke="#000000" stroke-opacity="1" stroke-width="1" stroke-linecap="square" stroke-linejoin="bevel" transform="matrix(1.49254,0,0,1.49254,10.4478,2.98507)"
font-family="Helvetica" font-size="16" font-weight="400" font-style="normal" 
clip-path="url(#clip28097)" >
</g>

<g fill="none" stroke="#000000" stroke-opacity="1" stroke-width="1" stroke-linecap="square" stroke-linejoin="bevel" transform="matrix(1.49254,0,0,1.49254,100,98.5075)"
font-family="Helvetica" font-size="16" font-weight="400" font-style="normal" 
clip-path="url(#clip28098)" >
<defs><clipPath id="clip28098"><path vector-effect="non-scaling-stroke" fill-rule="evenodd" d="M-67,-66 L67,-66 L67,0 L-67,0 L-67,-66z "/>
</clipPath></defs></g>

<g fill="none" stroke="#000000" stroke-opacity="1" stroke-width="1" stroke-linecap="square" stroke-linejoin="bevel" transform="matrix(1.49254,0,0,1.49254,100,98.5075)"
font-family="Helvetica" font-size="16" font-weight="400" font-style="normal" 
clip-path="url(#clip28098)" >
</g>

<g fill="none" stroke="#000000" stroke-opacity="1" stroke-width="1" stroke-linecap="square" stroke-linejoin="bevel" transform="matrix(1,0,0,1,0,0)"
font-family="Helvetica" font-size="16" font-weight="400" font-style="normal" 
>
</g>

<g fill="none" stroke="#000000" stroke-opacity="1" stroke-width="1" stroke-linecap="square" stroke-linejoin="bevel" transform="matrix(1,0,0,1,0,0)"
font-family="Helvetica" font-size="16" font-weight="400" font-style="normal" 
>
</g>

<g fill="none" stroke="#000000" stroke-opacity="1" stroke-width="1" stroke-linecap="square" stroke-linejoin="bevel" transform="matrix(1,0,0,1,0,0)"
font-family="Helvetica" font-size="16" font-weight="400" font-style="normal" 
clip-path="url(#clip28099)" >
<defs><clipPath id="clip28099"><path vector-effect="non-scaling-stroke" fill-rule="evenodd" d="M0,0 L200,0 L200,98 L0,98 L0,0z "/>
</clipPath></defs></g>

<g fill="none" stroke="#000000" stroke-opacity="1" stroke-width="1" stroke-linecap="square" stroke-linejoin="bevel" transform="matrix(1,0,0,1,0,0)"
font-family="Helvetica" font-size="16" font-weight="400" font-style="normal" 
>
</g>

<g fill="none" stroke="#000000" stroke-opacity="1" stroke-width="1" stroke-linecap="square" stroke-linejoin="bevel" transform="matrix(1,0,0,1,0,0)"
font-family="Helvetica" font-size="16" font-weight="400" font-style="normal" 
>
</g>

<g fill="none" stroke="#000000" stroke-opacity="1" stroke-width="1" stroke-linecap="square" stroke-linejoin="bevel" transform="matrix(1,0,0,1,0,0)"
font-family="Helvetica" font-size="16" font-weight="400" font-style="normal" 
clip-path="url(#clip28100)" >
<defs><clipPath id="clip28100"><path vector-effect="non-scaling-stroke" fill-rule="evenodd" d="M0,0 L1,0 L1,1 L0,1 L0,0z "/>
</clipPath></defs></g>

<g fill="none" stroke="#000000" stroke-opacity="1" stroke-width="1" stroke-linecap="square" stroke-linejoin="bevel" transform="matrix(1,0,0,1,0,0)"
font-family="Helvetica" font-size="16" font-weight="400" font-style="normal" 
>
</g>

<g fill="none" stroke="#000000" stroke-opacity="1" stroke-width="1" stroke-linecap="square" stroke-linejoin="bevel" transform="matrix(1,0,0,1,0,0)"
font-family="Helvetica" font-size="16" font-weight="400" font-style="normal" 
>
</g>
</g>
</svg>
