<?xml version="1.0" encoding="UTF-8" standalone="no"?>
<svg width="70.5556mm" height="52.9167mm"
 viewBox="0 0 200 150"
 xmlns="http://www.w3.org/2000/svg" xmlns:xlink="http://www.w3.org/1999/xlink"  version="1.2" baseProfile="tiny">
<defs>
</defs>
<g fill="none" stroke="black" stroke-width="1" fill-rule="evenodd" stroke-linecap="square" stroke-linejoin="bevel" >

<g fill="#ffffff" fill-opacity="0" stroke="none" transform="matrix(1,0,0,1,0,0)"
font-family="Helvetica" font-size="12" font-weight="400" font-style="normal" 
>
<path vector-effect="non-scaling-stroke" fill-rule="evenodd" d="M0,0 L200,0 L200,150 L0,150 L0,0z "/>
</g>

<g fill="none" stroke="#000000" stroke-opacity="1" stroke-width="1" stroke-linecap="square" stroke-linejoin="bevel" transform="matrix(1,0,0,1,0,0)"
font-family="Helvetica" font-size="12" font-weight="400" font-style="normal" 
>
</g>

<g fill="none" stroke="#000000" stroke-opacity="1" stroke-width="1" stroke-linecap="square" stroke-linejoin="bevel" transform="matrix(1,0,0,1,0,0)"
font-family="Helvetica" font-size="12" font-weight="400" font-style="normal" 
clip-path="url(#clip1186)" >
<defs><clipPath id="clip1186"><path vector-effect="non-scaling-stroke" fill-rule="evenodd" d="M0,0 L200,0 L200,150 L0,150 L0,0z "/>
</clipPath></defs></g>

<g fill="none" stroke="#000000" stroke-opacity="1" stroke-width="1" stroke-linecap="square" stroke-linejoin="bevel" transform="matrix(4.54545,0,0,4.54545,168.182,86.3636)"
font-family="Helvetica" font-size="12" font-weight="400" font-style="normal" 
clip-path="url(#clip1187)" >
<defs><clipPath id="clip1187"><path vector-effect="non-scaling-stroke" fill-rule="evenodd" d="M-37,-19 L7,-19 L7,14 L-37,14 L-37,-19z "/>
</clipPath></defs></g>

<g fill="#000000" fill-opacity="0" stroke="#000000" stroke-opacity="1" stroke-width="2" stroke-linecap="round" stroke-linejoin="miter" stroke-miterlimit="2" transform="matrix(4.54545,0,0,4.54545,168.182,86.3636)"
font-family="Helvetica" font-size="12" font-weight="400" font-style="normal" 
clip-path="url(#clip1187)" >
<path vector-effect="none" fill-rule="evenodd" d="M0,-5 L5,0 L0,5"/>
</g>

<g fill="none" stroke="#000000" stroke-opacity="1" stroke-width="1" stroke-linecap="square" stroke-linejoin="bevel" transform="matrix(4.54545,0,0,4.54545,168.182,86.3636)"
font-family="Helvetica" font-size="12" font-weight="400" font-style="normal" 
clip-path="url(#clip1187)" >
</g>

<g fill="none" stroke="#000000" stroke-opacity="1" stroke-width="1" stroke-linecap="square" stroke-linejoin="bevel" transform="matrix(-4.54545,0,0,-4.54545,31.8182,109.091)"
font-family="Helvetica" font-size="12" font-weight="400" font-style="normal" 
clip-path="url(#clip1188)" >
<defs><clipPath id="clip1188"><path vector-effect="non-scaling-stroke" fill-rule="evenodd" d="M7,24 L-37,24 L-37,-9 L7,-9 L7,24z "/>
</clipPath></defs></g>

<g fill="#000000" fill-opacity="0" stroke="#000000" stroke-opacity="1" stroke-width="2" stroke-linecap="round" stroke-linejoin="miter" stroke-miterlimit="2" transform="matrix(-4.54545,0,0,-4.54545,31.8182,109.091)"
font-family="Helvetica" font-size="12" font-weight="400" font-style="normal" 
clip-path="url(#clip1188)" >
<path vector-effect="none" fill-rule="evenodd" d="M5,-5 L0,0 L5,5"/>
</g>

<g fill="none" stroke="#000000" stroke-opacity="1" stroke-width="1" stroke-linecap="square" stroke-linejoin="bevel" transform="matrix(-4.54545,0,0,-4.54545,31.8182,109.091)"
font-family="Helvetica" font-size="12" font-weight="400" font-style="normal" 
clip-path="url(#clip1188)" >
</g>

<g fill="none" stroke="#000000" stroke-opacity="1" stroke-width="1" stroke-linecap="square" stroke-linejoin="bevel" transform="matrix(-4.54545,0,0,-4.54545,31.8182,40.9091)"
font-family="Helvetica" font-size="12" font-weight="400" font-style="normal" 
clip-path="url(#clip1189)" >
<defs><clipPath id="clip1189"><path vector-effect="non-scaling-stroke" fill-rule="evenodd" d="M7,9 L-37,9 L-37,-24 L7,-24 L7,9z "/>
</clipPath></defs></g>

<g fill="#000000" fill-opacity="0" stroke="#000000" stroke-opacity="1" stroke-width="2" stroke-linecap="round" stroke-linejoin="miter" stroke-miterlimit="2" transform="matrix(-4.54545,0,0,-4.54545,31.8182,40.9091)"
font-family="Helvetica" font-size="12" font-weight="400" font-style="normal" 
clip-path="url(#clip1189)" >
<path vector-effect="none" fill-rule="evenodd" d="M5,-5 L0,0 L5,5"/>
</g>

<g fill="none" stroke="#000000" stroke-opacity="1" stroke-width="1" stroke-linecap="square" stroke-linejoin="bevel" transform="matrix(-4.54545,0,0,-4.54545,31.8182,40.9091)"
font-family="Helvetica" font-size="12" font-weight="400" font-style="normal" 
clip-path="url(#clip1189)" >
</g>

<g fill="none" stroke="#000000" stroke-opacity="1" stroke-width="1" stroke-linecap="square" stroke-linejoin="bevel" transform="matrix(4.54545,0,0,4.54545,31.8182,9.09091)"
font-family="Helvetica" font-size="12" font-weight="400" font-style="normal" 
clip-path="url(#clip1190)" >
<defs><clipPath id="clip1190"><path vector-effect="non-scaling-stroke" fill-rule="evenodd" d="M-7,-2 L37,-2 L37,31 L-7,31 L-7,-2z "/>
</clipPath></defs></g>

<g fill="#ffffff" fill-opacity="1" stroke="none" transform="matrix(4.54545,0,0,4.54545,31.8182,9.09091)"
font-family="Helvetica" font-size="12" font-weight="400" font-style="normal" 
clip-path="url(#clip1190)" >
<path vector-effect="none" fill-rule="evenodd" d="M0,0 L30,0 L30,29 L0,29 L0,0z "/>
</g>

<g fill="none" stroke="#000000" stroke-opacity="1" stroke-width="1" stroke-linecap="square" stroke-linejoin="bevel" transform="matrix(4.54545,0,0,4.54545,31.8182,9.09091)"
font-family="Helvetica" font-size="12" font-weight="400" font-style="normal" 
clip-path="url(#clip1190)" >
</g>

<g fill="none" stroke="#000000" stroke-opacity="1" stroke-width="1" stroke-linecap="square" stroke-linejoin="bevel" transform="matrix(4.54545,0,0,4.54545,31.8182,9.09091)"
font-family="Helvetica" font-size="12" font-weight="400" font-style="normal" 
clip-path="url(#clip1190)" >
</g>

<g fill="none" stroke="#000000" stroke-opacity="1" stroke-width="1" stroke-linecap="square" stroke-linejoin="bevel" transform="matrix(4.54545,0,0,4.54545,31.8182,9.09091)"
font-family="Helvetica" font-size="12" font-weight="400" font-style="normal" 
clip-path="url(#clip1191)" >
<defs><clipPath id="clip1191"><path vector-effect="non-scaling-stroke" fill-rule="evenodd" d="M0,0 L30,0 L30,29 L0,29 L0,0z "/>
</clipPath></defs></g>

<g fill="none" stroke="#000000" stroke-opacity="1" stroke-width="1" stroke-linecap="square" stroke-linejoin="bevel" transform="matrix(4.54545,0,0,4.54545,45.4545,40.9091)"
font-family="Helvetica" font-size="10" font-weight="400" font-style="normal" 
clip-path="url(#clip1192)" >
<defs><clipPath id="clip1192"><path vector-effect="none" fill-rule="evenodd" d="M-3,-7 L27,-7 L27,22 L-3,22 L-3,-7z "/>
</clipPath></defs><text textLength="10.7344" fill="#000000" fill-opacity="1" stroke="none" xml:space="preserve" x="0" y="2.375" font-family="Helvetica" font-size="10" font-weight="400" font-style="normal" 
 >|u|</text>
</g>

<g fill="none" stroke="#000000" stroke-opacity="1" stroke-width="1" stroke-linecap="square" stroke-linejoin="bevel" transform="matrix(4.54545,0,0,4.54545,-693.182,-2797.73)"
font-family="Helvetica" font-size="10" font-weight="400" font-style="normal" 
clip-path="url(#clip1193)" >
<defs><clipPath id="clip1193"><path vector-effect="none" fill-rule="evenodd" d="M160,618 L190,618 L190,647 L160,647 L160,618z "/>
</clipPath></defs><polyline fill="none" vector-effect="none" points="166,636 163,642 166,642 " />
</g>

<g fill="none" stroke="#000000" stroke-opacity="1" stroke-width="1" stroke-linecap="square" stroke-linejoin="bevel" transform="matrix(4.54545,0,0,4.54545,63.6364,104.545)"
font-family="Helvetica" font-size="10" font-weight="400" font-style="normal" 
clip-path="url(#clip1194)" >
<defs><clipPath id="clip1194"><path vector-effect="none" fill-rule="evenodd" d="M-7,-21 L23,-21 L23,8 L-7,8 L-7,-21z "/>
</clipPath></defs><text textLength="5.54688" fill="#000000" fill-opacity="1" stroke="none" xml:space="preserve" x="0" y="2.375" font-family="Helvetica" font-size="10" font-weight="400" font-style="normal" 
 >u</text>
</g>

<g fill="none" stroke="#000000" stroke-opacity="1" stroke-width="1" stroke-linecap="square" stroke-linejoin="bevel" transform="matrix(4.54545,0,0,4.54545,-693.182,-2797.73)"
font-family="Helvetica" font-size="10" font-weight="400" font-style="normal" 
clip-path="url(#clip1195)" >
<defs><clipPath id="clip1195"><path vector-effect="none" fill-rule="evenodd" d="M160,618 L190,618 L190,647 L160,647 L160,618z "/>
</clipPath></defs><polyline fill="none" vector-effect="none" points="175,625 179,625 182,631 187,631 " />
</g>

<g fill="none" stroke="#000000" stroke-opacity="1" stroke-width="1" stroke-linecap="square" stroke-linejoin="bevel" transform="matrix(4.54545,0,0,4.54545,-693.182,-2797.73)"
font-family="Helvetica" font-size="10" font-weight="400" font-style="normal" 
clip-path="url(#clip1195)" >
<polyline fill="none" vector-effect="none" points="175,639 179,639 182,633 187,633 " />
</g>

<g fill="none" stroke="#000000" stroke-opacity="1" stroke-width="1" stroke-linecap="square" stroke-linejoin="bevel" transform="matrix(4.54545,0,0,4.54545,-693.182,-2797.73)"
font-family="Helvetica" font-size="10" font-weight="400" font-style="normal" 
clip-path="url(#clip1196)" >
<defs><clipPath id="clip1196"><path vector-effect="none" fill-rule="evenodd" d="M-7,-2 L37,-2 L37,31 L-7,31 L-7,-2z "/>
</clipPath></defs></g>

<g fill="none" stroke="#000000" stroke-opacity="1" stroke-width="1" stroke-linecap="square" stroke-linejoin="bevel" transform="matrix(1,0,0,1,0,0)"
font-family="Helvetica" font-size="10" font-weight="400" font-style="normal" 
clip-path="url(#clip1196)" >
</g>

<g fill="none" stroke="#000000" stroke-opacity="1" stroke-width="1" stroke-linecap="square" stroke-linejoin="bevel" transform="matrix(4.54545,0,0,4.54545,31.8182,9.09091)"
font-family="Helvetica" font-size="12" font-weight="400" font-style="normal" 
clip-path="url(#clip1196)" >
</g>

<g fill="none" stroke="#000000" stroke-opacity="1" stroke-width="1" stroke-linecap="square" stroke-linejoin="bevel" transform="matrix(4.54545,0,0,4.54545,31.8182,9.09091)"
font-family="Helvetica" font-size="12" font-weight="400" font-style="normal" 
clip-path="url(#clip1196)" >
</g>

<g fill="none" stroke="#000000" stroke-opacity="1" stroke-width="0.545719" stroke-linecap="butt" stroke-linejoin="miter" stroke-miterlimit="2" transform="matrix(4.54545,0,0,4.54545,31.8182,9.09091)"
font-family="Helvetica" font-size="12" font-weight="400" font-style="normal" 
clip-path="url(#clip1196)" >
<path vector-effect="none" fill-rule="evenodd" d="M0,0 L30,0 L30,29 L0,29 L0,0z "/>
</g>

<g fill="none" stroke="#000000" stroke-opacity="1" stroke-width="1" stroke-linecap="square" stroke-linejoin="bevel" transform="matrix(4.54545,0,0,4.54545,31.8182,9.09091)"
font-family="Helvetica" font-size="12" font-weight="400" font-style="normal" 
clip-path="url(#clip1196)" >
</g>

<g fill="none" stroke="#000000" stroke-opacity="1" stroke-width="1" stroke-linecap="square" stroke-linejoin="bevel" transform="matrix(1,0,0,1,0,0)"
font-family="Helvetica" font-size="12" font-weight="400" font-style="normal" 
>
</g>

<g fill="none" stroke="#000000" stroke-opacity="1" stroke-width="1" stroke-linecap="square" stroke-linejoin="bevel" transform="matrix(1,0,0,1,0,0)"
font-family="Helvetica" font-size="12" font-weight="400" font-style="normal" 
>
</g>

<g fill="none" stroke="#000000" stroke-opacity="1" stroke-width="1" stroke-linecap="square" stroke-linejoin="bevel" transform="matrix(1,0,0,1,0,0)"
font-family="Helvetica" font-size="12" font-weight="400" font-style="normal" 
clip-path="url(#clip1197)" >
<defs><clipPath id="clip1197"><path vector-effect="non-scaling-stroke" fill-rule="evenodd" d="M0,0 L200,0 L200,150 L0,150 L0,0z "/>
</clipPath></defs></g>

<g fill="none" stroke="#000000" stroke-opacity="1" stroke-width="1" stroke-linecap="square" stroke-linejoin="bevel" transform="matrix(1,0,0,1,0,0)"
font-family="Helvetica" font-size="12" font-weight="400" font-style="normal" 
>
</g>

<g fill="none" stroke="#000000" stroke-opacity="1" stroke-width="1" stroke-linecap="square" stroke-linejoin="bevel" transform="matrix(1,0,0,1,0,0)"
font-family="Helvetica" font-size="12" font-weight="400" font-style="normal" 
>
</g>

<g fill="none" stroke="#000000" stroke-opacity="1" stroke-width="1" stroke-linecap="square" stroke-linejoin="bevel" transform="matrix(1,0,0,1,0,0)"
font-family="Helvetica" font-size="12" font-weight="400" font-style="normal" 
clip-path="url(#clip1198)" >
<defs><clipPath id="clip1198"><path vector-effect="non-scaling-stroke" fill-rule="evenodd" d="M0,0 L1,0 L1,1 L0,1 L0,0z "/>
</clipPath></defs></g>

<g fill="none" stroke="#000000" stroke-opacity="1" stroke-width="1" stroke-linecap="square" stroke-linejoin="bevel" transform="matrix(1,0,0,1,0,0)"
font-family="Helvetica" font-size="12" font-weight="400" font-style="normal" 
>
</g>

<g fill="none" stroke="#000000" stroke-opacity="1" stroke-width="1" stroke-linecap="square" stroke-linejoin="bevel" transform="matrix(1,0,0,1,0,0)"
font-family="Helvetica" font-size="12" font-weight="400" font-style="normal" 
>
</g>
</g>
</svg>
