<?xml version="1.0" encoding="UTF-8" standalone="no"?>
<svg width="67.7333mm" height="37.2533mm"
 viewBox="0 0 200 110"
 xmlns="http://www.w3.org/2000/svg" xmlns:xlink="http://www.w3.org/1999/xlink"  version="1.2" baseProfile="tiny">
<defs>
</defs>
<g fill="none" stroke="black" stroke-width="1" fill-rule="evenodd" stroke-linecap="square" stroke-linejoin="bevel" >

<g fill="#ffffff" fill-opacity="0" stroke="none" transform="matrix(1,0,0,1,0,0)"
font-family="Helvetica" font-size="12.5" font-weight="400" font-style="normal" 
>
<path vector-effect="non-scaling-stroke" fill-rule="evenodd" d="M0,0 L200,0 L200,110 L0,110 L0,0z "/>
</g>

<g fill="none" stroke="#000000" stroke-opacity="1" stroke-width="1" stroke-linecap="square" stroke-linejoin="bevel" transform="matrix(1,0,0,1,0,0)"
font-family="Helvetica" font-size="12.5" font-weight="400" font-style="normal" 
>
</g>

<g fill="none" stroke="#000000" stroke-opacity="1" stroke-width="1" stroke-linecap="square" stroke-linejoin="bevel" transform="matrix(1,0,0,1,0,0)"
font-family="Helvetica" font-size="12.5" font-weight="400" font-style="normal" 
clip-path="url(#clip274)" >
<defs><clipPath id="clip274"><path vector-effect="non-scaling-stroke" fill-rule="evenodd" d="M0,0 L200,0 L200,110.092 L0,110.092 L0,0z "/>
</clipPath></defs></g>

<g fill="none" stroke="#000000" stroke-opacity="1" stroke-width="1" stroke-linecap="square" stroke-linejoin="bevel" transform="matrix(-1.83486,0,0,-1.83486,12.844,55.0459)"
font-family="Helvetica" font-size="12.5" font-weight="400" font-style="normal" 
clip-path="url(#clip275)" >
<defs><clipPath id="clip275"><path vector-effect="non-scaling-stroke" fill-rule="evenodd" d="M7,30 L-102,30 L-102,-30 L7,-30 L7,30z "/>
</clipPath></defs></g>

<g fill="#000000" fill-opacity="0" stroke="#000000" stroke-opacity="1" stroke-width="2" stroke-linecap="round" stroke-linejoin="miter" stroke-miterlimit="2" transform="matrix(-1.83486,0,0,-1.83486,12.844,55.0459)"
font-family="Helvetica" font-size="12.5" font-weight="400" font-style="normal" 
clip-path="url(#clip275)" >
<path vector-effect="none" fill-rule="evenodd" d="M5,-5 L0,0 L5,5"/>
</g>

<g fill="none" stroke="#000000" stroke-opacity="1" stroke-width="1" stroke-linecap="square" stroke-linejoin="bevel" transform="matrix(-1.83486,0,0,-1.83486,12.844,55.0459)"
font-family="Helvetica" font-size="12.5" font-weight="400" font-style="normal" 
clip-path="url(#clip275)" >
</g>

<g fill="none" stroke="#000000" stroke-opacity="1" stroke-width="1" stroke-linecap="square" stroke-linejoin="bevel" transform="matrix(1.83486,0,0,1.83486,187.156,55.0459)"
font-family="Helvetica" font-size="12.5" font-weight="400" font-style="normal" 
clip-path="url(#clip276)" >
<defs><clipPath id="clip276"><path vector-effect="non-scaling-stroke" fill-rule="evenodd" d="M-102,-30 L7,-30 L7,30 L-102,30 L-102,-30z "/>
</clipPath></defs></g>

<g fill="#000000" fill-opacity="0" stroke="#000000" stroke-opacity="1" stroke-width="2" stroke-linecap="round" stroke-linejoin="miter" stroke-miterlimit="2" transform="matrix(1.83486,0,0,1.83486,187.156,55.0459)"
font-family="Helvetica" font-size="12.5" font-weight="400" font-style="normal" 
clip-path="url(#clip276)" >
<path vector-effect="none" fill-rule="evenodd" d="M0,-5 L5,0 L0,5"/>
</g>

<g fill="none" stroke="#000000" stroke-opacity="1" stroke-width="1" stroke-linecap="square" stroke-linejoin="bevel" transform="matrix(1.83486,0,0,1.83486,187.156,55.0459)"
font-family="Helvetica" font-size="12.5" font-weight="400" font-style="normal" 
clip-path="url(#clip276)" >
</g>

<g fill="none" stroke="#000000" stroke-opacity="1" stroke-width="1" stroke-linecap="square" stroke-linejoin="bevel" transform="matrix(1.83486,0,0,1.83486,12.844,3.66972)"
font-family="Helvetica" font-size="12.5" font-weight="400" font-style="normal" 
clip-path="url(#clip277)" >
<defs><clipPath id="clip277"><path vector-effect="non-scaling-stroke" fill-rule="evenodd" d="M-7,-2 L102,-2 L102,58 L-7,58 L-7,-2z "/>
</clipPath></defs></g>

<g fill="#ffffff" fill-opacity="1" stroke="none" transform="matrix(1.83486,0,0,1.83486,12.844,3.66972)"
font-family="Helvetica" font-size="12.5" font-weight="400" font-style="normal" 
clip-path="url(#clip277)" >
<path vector-effect="none" fill-rule="evenodd" d="M0,0 L95,0 L95,56 L0,56 L0,0z "/>
</g>

<g fill="none" stroke="#000000" stroke-opacity="1" stroke-width="1" stroke-linecap="square" stroke-linejoin="bevel" transform="matrix(1.83486,0,0,1.83486,12.844,3.66972)"
font-family="Helvetica" font-size="12.5" font-weight="400" font-style="normal" 
clip-path="url(#clip277)" >
</g>

<g fill="none" stroke="#000000" stroke-opacity="1" stroke-width="1" stroke-linecap="square" stroke-linejoin="bevel" transform="matrix(1.83486,0,0,1.83486,12.844,3.66972)"
font-family="Helvetica" font-size="12.5" font-weight="400" font-style="normal" 
clip-path="url(#clip277)" >
</g>

<g fill="none" stroke="#000000" stroke-opacity="1" stroke-width="1" stroke-linecap="square" stroke-linejoin="bevel" transform="matrix(1.83486,0,0,1.83486,12.844,3.66972)"
font-family="Helvetica" font-size="12.5" font-weight="400" font-style="normal" 
clip-path="url(#clip278)" >
<defs><clipPath id="clip278"><path vector-effect="non-scaling-stroke" fill-rule="evenodd" d="M0,0 L95,0 L95,56 L0,56 L0,0z "/>
</clipPath></defs></g>

<g fill="none" stroke="#000000" stroke-opacity="1" stroke-width="1" stroke-linecap="square" stroke-linejoin="bevel" transform="matrix(1.83486,0,0,1.83486,-243.119,-90.8257)"
font-family="Helvetica" font-size="12.5" font-weight="400" font-style="normal" 
clip-path="url(#clip279)" >
<defs><clipPath id="clip279"><path vector-effect="none" fill-rule="evenodd" d="M139,52 L234,52 L234,108 L139,108 L139,52z "/>
</clipPath></defs><polyline fill="none" vector-effect="none" points="186,96 200,96 " />
</g>

<g fill="none" stroke="#000000" stroke-opacity="1" stroke-width="1" stroke-linecap="square" stroke-linejoin="bevel" transform="matrix(1.83486,0,0,1.83486,-243.119,-90.8257)"
font-family="Helvetica" font-size="12.5" font-weight="400" font-style="normal" 
clip-path="url(#clip279)" >
<polyline fill="none" vector-effect="none" points="200,96 186,70 " />
</g>

<g fill="none" stroke="#000000" stroke-opacity="1" stroke-width="1" stroke-linecap="square" stroke-linejoin="bevel" transform="matrix(1.83486,0,0,1.83486,-243.119,-90.8257)"
font-family="Helvetica" font-size="12.5" font-weight="400" font-style="normal" 
clip-path="url(#clip279)" >
<polyline fill="none" vector-effect="none" points="186,70 186,96 " />
</g>

<g fill="none" stroke="#000000" stroke-opacity="1" stroke-width="1" stroke-linecap="square" stroke-linejoin="bevel" transform="matrix(1.83486,0,0,1.83486,-243.119,-90.8257)"
font-family="Helvetica" font-size="12.5" font-weight="400" font-style="normal" 
clip-path="url(#clip279)" >
<polyline fill="none" vector-effect="none" points="210,96 195,70 " />
</g>

<g fill="none" stroke="#000000" stroke-opacity="1" stroke-width="1" stroke-linecap="square" stroke-linejoin="bevel" transform="matrix(1.83486,0,0,1.83486,-243.119,-90.8257)"
font-family="Helvetica" font-size="12.5" font-weight="400" font-style="normal" 
clip-path="url(#clip279)" >
<polyline fill="none" vector-effect="none" points="195,70 210,70 " />
</g>

<g fill="none" stroke="#000000" stroke-opacity="1" stroke-width="1" stroke-linecap="square" stroke-linejoin="bevel" transform="matrix(1.83486,0,0,1.83486,-243.119,-90.8257)"
font-family="Helvetica" font-size="12.5" font-weight="400" font-style="normal" 
clip-path="url(#clip279)" >
<polyline fill="none" vector-effect="none" points="210,70 210,96 " />
</g>

<g fill="none" stroke="#000000" stroke-opacity="1" stroke-width="1" stroke-linecap="square" stroke-linejoin="bevel" transform="matrix(1.83486,0,0,1.83486,-243.119,-90.8257)"
font-family="Helvetica" font-size="12.5" font-weight="400" font-style="normal" 
clip-path="url(#clip279)" >
<polyline fill="none" vector-effect="none" points="205,96 190,70 " />
</g>

<g fill="none" stroke="#000000" stroke-opacity="1" stroke-width="1" stroke-linecap="square" stroke-linejoin="bevel" transform="matrix(1.83486,0,0,1.83486,-243.119,-90.8257)"
font-family="Helvetica" font-size="12.5" font-weight="400" font-style="normal" 
clip-path="url(#clip279)" >
<polyline fill="none" vector-effect="none" points="153,96 176,96 " />
</g>

<g fill="none" stroke="#000000" stroke-opacity="1" stroke-width="1" stroke-linecap="square" stroke-linejoin="bevel" transform="matrix(1.83486,0,0,1.83486,-243.119,-90.8257)"
font-family="Helvetica" font-size="12.5" font-weight="400" font-style="normal" 
clip-path="url(#clip279)" >
<polyline fill="none" vector-effect="none" points="176,96 176,70 " />
</g>

<g fill="none" stroke="#000000" stroke-opacity="1" stroke-width="1" stroke-linecap="square" stroke-linejoin="bevel" transform="matrix(1.83486,0,0,1.83486,-243.119,-90.8257)"
font-family="Helvetica" font-size="12.5" font-weight="400" font-style="normal" 
clip-path="url(#clip279)" >
<polyline fill="none" vector-effect="none" points="176,70 153,70 " />
</g>

<g fill="none" stroke="#000000" stroke-opacity="1" stroke-width="1" stroke-linecap="square" stroke-linejoin="bevel" transform="matrix(1.83486,0,0,1.83486,-243.119,-90.8257)"
font-family="Helvetica" font-size="12.5" font-weight="400" font-style="normal" 
clip-path="url(#clip279)" >
<polyline fill="none" vector-effect="none" points="153,70 153,96 " />
</g>

<g fill="none" stroke="#000000" stroke-opacity="1" stroke-width="1" stroke-linecap="square" stroke-linejoin="bevel" transform="matrix(1.83486,0,0,1.83486,-243.119,-90.8257)"
font-family="Helvetica" font-size="12.5" font-weight="400" font-style="normal" 
clip-path="url(#clip279)" >
<polyline fill="none" vector-effect="none" points="153,70 176,96 " />
</g>

<g fill="none" stroke="#000000" stroke-opacity="1" stroke-width="1" stroke-linecap="square" stroke-linejoin="bevel" transform="matrix(1.83486,0,0,1.83486,-243.119,-90.8257)"
font-family="Helvetica" font-size="12.5" font-weight="400" font-style="normal" 
clip-path="url(#clip279)" >
<polyline fill="none" vector-effect="none" points="181,86 181,84 " />
</g>

<g fill="none" stroke="#000000" stroke-opacity="1" stroke-width="1" stroke-linecap="square" stroke-linejoin="bevel" transform="matrix(1.83486,0,0,1.83486,-243.119,-90.8257)"
font-family="Helvetica" font-size="12.5" font-weight="400" font-style="normal" 
clip-path="url(#clip279)" >
<polyline fill="none" vector-effect="none" points="181,84 178,84 " />
</g>

<g fill="none" stroke="#000000" stroke-opacity="1" stroke-width="1" stroke-linecap="square" stroke-linejoin="bevel" transform="matrix(1.83486,0,0,1.83486,-243.119,-90.8257)"
font-family="Helvetica" font-size="12.5" font-weight="400" font-style="normal" 
clip-path="url(#clip279)" >
<polyline fill="none" vector-effect="none" points="178,84 178,82 " />
</g>

<g fill="none" stroke="#000000" stroke-opacity="1" stroke-width="1" stroke-linecap="square" stroke-linejoin="bevel" transform="matrix(1.83486,0,0,1.83486,-243.119,-90.8257)"
font-family="Helvetica" font-size="12.5" font-weight="400" font-style="normal" 
clip-path="url(#clip279)" >
<polyline fill="none" vector-effect="none" points="178,82 181,82 " />
</g>

<g fill="none" stroke="#000000" stroke-opacity="1" stroke-width="1" stroke-linecap="square" stroke-linejoin="bevel" transform="matrix(1.83486,0,0,1.83486,-243.119,-90.8257)"
font-family="Helvetica" font-size="12.5" font-weight="400" font-style="normal" 
clip-path="url(#clip279)" >
<polyline fill="none" vector-effect="none" points="181,82 181,80 " />
</g>

<g fill="none" stroke="#000000" stroke-opacity="1" stroke-width="1" stroke-linecap="square" stroke-linejoin="bevel" transform="matrix(1.83486,0,0,1.83486,-243.119,-90.8257)"
font-family="Helvetica" font-size="12.5" font-weight="400" font-style="normal" 
clip-path="url(#clip279)" >
<polyline fill="none" vector-effect="none" points="181,80 184,83 " />
</g>

<g fill="none" stroke="#000000" stroke-opacity="1" stroke-width="1" stroke-linecap="square" stroke-linejoin="bevel" transform="matrix(1.83486,0,0,1.83486,-243.119,-90.8257)"
font-family="Helvetica" font-size="12.5" font-weight="400" font-style="normal" 
clip-path="url(#clip279)" >
<polyline fill="none" vector-effect="none" points="184,83 181,86 " />
</g>

<g fill="none" stroke="#000000" stroke-opacity="1" stroke-width="1" stroke-linecap="square" stroke-linejoin="bevel" transform="matrix(1.83486,0,0,1.83486,55.0459,16.5138)"
font-family="Liberation Sans" font-size="10" font-weight="400" font-style="normal" 
clip-path="url(#clip280)" >
<defs><clipPath id="clip280"><path vector-effect="none" fill-rule="evenodd" d="M-23,-7 L72,-7 L72,49 L-23,49 L-23,-7z "/>
</clipPath></defs></g>

<g fill="none" stroke="#000000" stroke-opacity="1" stroke-width="1" stroke-linecap="square" stroke-linejoin="bevel" transform="matrix(1.83486,0,0,1.83486,55.0459,16.5138)"
font-family="Liberation Sans" font-size="10" font-weight="400" font-style="normal" 
clip-path="url(#clip280)" >
<text textLength="46" fill="#000000" fill-opacity="1" stroke="none" xml:space="preserve" x="0" y="3" font-family="Liberation Sans" font-size="10" font-weight="400" font-style="normal" 
 >S = L D L'</text>
</g>

<g fill="none" stroke="#000000" stroke-opacity="1" stroke-width="1" stroke-linecap="square" stroke-linejoin="bevel" transform="matrix(1.83486,0,0,1.83486,55.0459,16.5138)"
font-family="Liberation Sans" font-size="10" font-weight="400" font-style="normal" 
clip-path="url(#clip280)" >
</g>

<g fill="none" stroke="#000000" stroke-opacity="1" stroke-width="1" stroke-linecap="square" stroke-linejoin="bevel" transform="matrix(1.83486,0,0,1.83486,18.3486,55.0459)"
font-family="Liberation Sans" font-size="10" font-weight="400" font-style="normal" 
clip-path="url(#clip281)" >
<defs><clipPath id="clip281"><path vector-effect="none" fill-rule="evenodd" d="M-3,-28 L92,-28 L92,28 L-3,28 L-3,-28z "/>
</clipPath></defs></g>

<g fill="none" stroke="#000000" stroke-opacity="1" stroke-width="1" stroke-linecap="square" stroke-linejoin="bevel" transform="matrix(1.83486,0,0,1.83486,18.3486,55.0459)"
font-family="Liberation Sans" font-size="10" font-weight="400" font-style="normal" 
clip-path="url(#clip281)" >
<text textLength="7" fill="#000000" fill-opacity="1" stroke="none" xml:space="preserve" x="0" y="3" font-family="Liberation Sans" font-size="10" font-weight="400" font-style="normal" 
 >S</text>
</g>

<g fill="none" stroke="#000000" stroke-opacity="1" stroke-width="1" stroke-linecap="square" stroke-linejoin="bevel" transform="matrix(1.83486,0,0,1.83486,18.3486,55.0459)"
font-family="Liberation Sans" font-size="10" font-weight="400" font-style="normal" 
clip-path="url(#clip281)" >
</g>

<g fill="none" stroke="#000000" stroke-opacity="1" stroke-width="1" stroke-linecap="square" stroke-linejoin="bevel" transform="matrix(1.83486,0,0,1.83486,181.651,55.0459)"
font-family="Liberation Sans" font-size="10" font-weight="400" font-style="normal" 
clip-path="url(#clip282)" >
<defs><clipPath id="clip282"><path vector-effect="none" fill-rule="evenodd" d="M-92,-28 L3,-28 L3,28 L-92,28 L-92,-28z "/>
</clipPath></defs></g>

<g fill="none" stroke="#000000" stroke-opacity="1" stroke-width="1" stroke-linecap="square" stroke-linejoin="bevel" transform="matrix(1.83486,0,0,1.83486,181.651,55.0459)"
font-family="Liberation Sans" font-size="10" font-weight="400" font-style="normal" 
clip-path="url(#clip282)" >
<text textLength="21" fill="#000000" fill-opacity="1" stroke="none" xml:space="preserve" x="-21" y="3" font-family="Liberation Sans" font-size="10" font-weight="400" font-style="normal" 
 >LDL'</text>
</g>

<g fill="none" stroke="#000000" stroke-opacity="1" stroke-width="1" stroke-linecap="square" stroke-linejoin="bevel" transform="matrix(1.83486,0,0,1.83486,181.651,55.0459)"
font-family="Liberation Sans" font-size="10" font-weight="400" font-style="normal" 
clip-path="url(#clip282)" >
</g>

<g fill="none" stroke="#000000" stroke-opacity="1" stroke-width="1" stroke-linecap="square" stroke-linejoin="bevel" transform="matrix(1.83486,0,0,1.83486,181.651,55.0459)"
font-family="Liberation Sans" font-size="10" font-weight="400" font-style="normal" 
clip-path="url(#clip283)" >
<defs><clipPath id="clip283"><path vector-effect="none" fill-rule="evenodd" d="M-7,-2 L102,-2 L102,58 L-7,58 L-7,-2z "/>
</clipPath></defs></g>

<g fill="none" stroke="#000000" stroke-opacity="1" stroke-width="1" stroke-linecap="square" stroke-linejoin="bevel" transform="matrix(1,0,0,1,0,0)"
font-family="Liberation Sans" font-size="10" font-weight="400" font-style="normal" 
clip-path="url(#clip283)" >
</g>

<g fill="none" stroke="#000000" stroke-opacity="1" stroke-width="1" stroke-linecap="square" stroke-linejoin="bevel" transform="matrix(1.83486,0,0,1.83486,12.844,3.66972)"
font-family="Helvetica" font-size="12.5" font-weight="400" font-style="normal" 
clip-path="url(#clip283)" >
</g>

<g fill="none" stroke="#000000" stroke-opacity="1" stroke-width="1" stroke-linecap="square" stroke-linejoin="bevel" transform="matrix(1.83486,0,0,1.83486,12.844,3.66972)"
font-family="Helvetica" font-size="12.5" font-weight="400" font-style="normal" 
clip-path="url(#clip283)" >
</g>

<g fill="none" stroke="#000000" stroke-opacity="1" stroke-width="0.784438" stroke-linecap="butt" stroke-linejoin="miter" stroke-miterlimit="2" transform="matrix(1.83486,0,0,1.83486,12.844,3.66972)"
font-family="Helvetica" font-size="12.5" font-weight="400" font-style="normal" 
clip-path="url(#clip283)" >
<path vector-effect="none" fill-rule="evenodd" d="M0,0 L95,0 L95,56 L0,56 L0,0z "/>
</g>

<g fill="none" stroke="#000000" stroke-opacity="1" stroke-width="1" stroke-linecap="square" stroke-linejoin="bevel" transform="matrix(1.83486,0,0,1.83486,12.844,3.66972)"
font-family="Helvetica" font-size="12.5" font-weight="400" font-style="normal" 
clip-path="url(#clip283)" >
</g>

<g fill="none" stroke="#000000" stroke-opacity="1" stroke-width="1" stroke-linecap="square" stroke-linejoin="bevel" transform="matrix(1,0,0,1,0,0)"
font-family="Helvetica" font-size="12.5" font-weight="400" font-style="normal" 
>
</g>

<g fill="none" stroke="#000000" stroke-opacity="1" stroke-width="1" stroke-linecap="square" stroke-linejoin="bevel" transform="matrix(1,0,0,1,0,0)"
font-family="Helvetica" font-size="12.5" font-weight="400" font-style="normal" 
>
</g>

<g fill="none" stroke="#000000" stroke-opacity="1" stroke-width="1" stroke-linecap="square" stroke-linejoin="bevel" transform="matrix(1,0,0,1,0,0)"
font-family="Helvetica" font-size="12.5" font-weight="400" font-style="normal" 
clip-path="url(#clip284)" >
<defs><clipPath id="clip284"><path vector-effect="non-scaling-stroke" fill-rule="evenodd" d="M0,0 L200,0 L200,110 L0,110 L0,0z "/>
</clipPath></defs></g>

<g fill="none" stroke="#000000" stroke-opacity="1" stroke-width="1" stroke-linecap="square" stroke-linejoin="bevel" transform="matrix(1,0,0,1,0,0)"
font-family="Helvetica" font-size="12.5" font-weight="400" font-style="normal" 
>
</g>

<g fill="none" stroke="#000000" stroke-opacity="1" stroke-width="1" stroke-linecap="square" stroke-linejoin="bevel" transform="matrix(1,0,0,1,0,0)"
font-family="Helvetica" font-size="12.5" font-weight="400" font-style="normal" 
>
</g>

<g fill="none" stroke="#000000" stroke-opacity="1" stroke-width="1" stroke-linecap="square" stroke-linejoin="bevel" transform="matrix(1,0,0,1,0,0)"
font-family="Helvetica" font-size="12.5" font-weight="400" font-style="normal" 
clip-path="url(#clip285)" >
<defs><clipPath id="clip285"><path vector-effect="non-scaling-stroke" fill-rule="evenodd" d="M0,0 L1,0 L1,1 L0,1 L0,0z "/>
</clipPath></defs></g>

<g fill="none" stroke="#000000" stroke-opacity="1" stroke-width="1" stroke-linecap="square" stroke-linejoin="bevel" transform="matrix(1,0,0,1,0,0)"
font-family="Helvetica" font-size="12.5" font-weight="400" font-style="normal" 
>
</g>

<g fill="none" stroke="#000000" stroke-opacity="1" stroke-width="1" stroke-linecap="square" stroke-linejoin="bevel" transform="matrix(1,0,0,1,0,0)"
font-family="Helvetica" font-size="12.5" font-weight="400" font-style="normal" 
>
</g>
</g>
</svg>
