<?xml version="1.0" encoding="UTF-8" standalone="no"?>
<svg width="67.7333mm" height="23.7067mm"
 viewBox="0 0 200 70"
 xmlns="http://www.w3.org/2000/svg" xmlns:xlink="http://www.w3.org/1999/xlink"  version="1.2" baseProfile="tiny">
<defs>
</defs>
<g fill="none" stroke="black" stroke-width="1" fill-rule="evenodd" stroke-linecap="square" stroke-linejoin="bevel" >

<g fill="#ffffff" fill-opacity="0" stroke="none" transform="matrix(1,0,0,1,0,0)"
font-family="Helvetica" font-size="12.5" font-weight="400" font-style="normal" 
>
<path vector-effect="non-scaling-stroke" fill-rule="evenodd" d="M0,0 L200,0 L200,70 L0,70 L0,0z "/>
</g>

<g fill="none" stroke="#000000" stroke-opacity="1" stroke-width="1" stroke-linecap="square" stroke-linejoin="bevel" transform="matrix(1,0,0,1,0,0)"
font-family="Helvetica" font-size="12.5" font-weight="400" font-style="normal" 
>
</g>

<g fill="none" stroke="#000000" stroke-opacity="1" stroke-width="1" stroke-linecap="square" stroke-linejoin="bevel" transform="matrix(1,0,0,1,0,0)"
font-family="Helvetica" font-size="12.5" font-weight="400" font-style="normal" 
clip-path="url(#clip1330)" >
<defs><clipPath id="clip1330"><path vector-effect="non-scaling-stroke" fill-rule="evenodd" d="M0,0 L200,0 L200,70.5882 L0,70.5882 L0,0z "/>
</clipPath></defs></g>

<g fill="none" stroke="#000000" stroke-opacity="1" stroke-width="1" stroke-linecap="square" stroke-linejoin="bevel" transform="matrix(-1.68067,0,0,-1.68067,11.7647,18.4874)"
font-family="Helvetica" font-size="12.5" font-weight="400" font-style="normal" 
clip-path="url(#clip1331)" >
<defs><clipPath id="clip1331"><path vector-effect="non-scaling-stroke" fill-rule="evenodd" d="M7,11 L-112,11 L-112,-31 L7,-31 L7,11z "/>
</clipPath></defs></g>

<g fill="#000000" fill-opacity="0" stroke="#000000" stroke-opacity="1" stroke-width="2" stroke-linecap="round" stroke-linejoin="miter" stroke-miterlimit="2" transform="matrix(-1.68067,0,0,-1.68067,11.7647,18.4874)"
font-family="Helvetica" font-size="12.5" font-weight="400" font-style="normal" 
clip-path="url(#clip1331)" >
<path vector-effect="none" fill-rule="evenodd" d="M5,-5 L0,0 L5,5"/>
</g>

<g fill="none" stroke="#000000" stroke-opacity="1" stroke-width="1" stroke-linecap="square" stroke-linejoin="bevel" transform="matrix(-1.68067,0,0,-1.68067,11.7647,18.4874)"
font-family="Helvetica" font-size="12.5" font-weight="400" font-style="normal" 
clip-path="url(#clip1331)" >
</g>

<g fill="none" stroke="#000000" stroke-opacity="1" stroke-width="1" stroke-linecap="square" stroke-linejoin="bevel" transform="matrix(1.68067,0,0,1.68067,188.235,35.2941)"
font-family="Helvetica" font-size="12.5" font-weight="400" font-style="normal" 
clip-path="url(#clip1332)" >
<defs><clipPath id="clip1332"><path vector-effect="non-scaling-stroke" fill-rule="evenodd" d="M-112,-21 L7,-21 L7,21 L-112,21 L-112,-21z "/>
</clipPath></defs></g>

<g fill="#000000" fill-opacity="0" stroke="#000000" stroke-opacity="1" stroke-width="2" stroke-linecap="round" stroke-linejoin="miter" stroke-miterlimit="2" transform="matrix(1.68067,0,0,1.68067,188.235,35.2941)"
font-family="Helvetica" font-size="12.5" font-weight="400" font-style="normal" 
clip-path="url(#clip1332)" >
<path vector-effect="none" fill-rule="evenodd" d="M0,-5 L5,0 L0,5"/>
</g>

<g fill="none" stroke="#000000" stroke-opacity="1" stroke-width="1" stroke-linecap="square" stroke-linejoin="bevel" transform="matrix(1.68067,0,0,1.68067,188.235,35.2941)"
font-family="Helvetica" font-size="12.5" font-weight="400" font-style="normal" 
clip-path="url(#clip1332)" >
</g>

<g fill="none" stroke="#000000" stroke-opacity="1" stroke-width="1" stroke-linecap="square" stroke-linejoin="bevel" transform="matrix(-1.68067,0,0,-1.68067,11.7647,52.1008)"
font-family="Helvetica" font-size="12.5" font-weight="400" font-style="normal" 
clip-path="url(#clip1333)" >
<defs><clipPath id="clip1333"><path vector-effect="non-scaling-stroke" fill-rule="evenodd" d="M7,31 L-112,31 L-112,-11 L7,-11 L7,31z "/>
</clipPath></defs></g>

<g fill="#000000" fill-opacity="0" stroke="#000000" stroke-opacity="1" stroke-width="2" stroke-linecap="round" stroke-linejoin="miter" stroke-miterlimit="2" transform="matrix(-1.68067,0,0,-1.68067,11.7647,52.1008)"
font-family="Helvetica" font-size="12.5" font-weight="400" font-style="normal" 
clip-path="url(#clip1333)" >
<path vector-effect="none" fill-rule="evenodd" d="M5,-5 L0,0 L5,5"/>
</g>

<g fill="none" stroke="#000000" stroke-opacity="1" stroke-width="1" stroke-linecap="square" stroke-linejoin="bevel" transform="matrix(-1.68067,0,0,-1.68067,11.7647,52.1008)"
font-family="Helvetica" font-size="12.5" font-weight="400" font-style="normal" 
clip-path="url(#clip1333)" >
</g>

<g fill="none" stroke="#000000" stroke-opacity="1" stroke-width="1" stroke-linecap="square" stroke-linejoin="bevel" transform="matrix(1.68067,0,0,1.68067,11.7647,3.36134)"
font-family="Helvetica" font-size="12.5" font-weight="400" font-style="normal" 
clip-path="url(#clip1334)" >
<defs><clipPath id="clip1334"><path vector-effect="non-scaling-stroke" fill-rule="evenodd" d="M-7,-2 L112,-2 L112,40 L-7,40 L-7,-2z "/>
</clipPath></defs></g>

<g fill="#ffffff" fill-opacity="1" stroke="none" transform="matrix(1.68067,0,0,1.68067,11.7647,3.36134)"
font-family="Helvetica" font-size="12.5" font-weight="400" font-style="normal" 
clip-path="url(#clip1334)" >
<path vector-effect="none" fill-rule="evenodd" d="M0,0 L105,0 L105,38 L0,38 L0,0z "/>
</g>

<g fill="none" stroke="#000000" stroke-opacity="1" stroke-width="1" stroke-linecap="square" stroke-linejoin="bevel" transform="matrix(1.68067,0,0,1.68067,11.7647,3.36134)"
font-family="Helvetica" font-size="12.5" font-weight="400" font-style="normal" 
clip-path="url(#clip1334)" >
</g>

<g fill="none" stroke="#000000" stroke-opacity="1" stroke-width="1" stroke-linecap="square" stroke-linejoin="bevel" transform="matrix(1.68067,0,0,1.68067,11.7647,3.36134)"
font-family="Helvetica" font-size="12.5" font-weight="400" font-style="normal" 
clip-path="url(#clip1334)" >
</g>

<g fill="none" stroke="#000000" stroke-opacity="1" stroke-width="1" stroke-linecap="square" stroke-linejoin="bevel" transform="matrix(1.68067,0,0,1.68067,11.7647,3.36134)"
font-family="Helvetica" font-size="12.5" font-weight="400" font-style="normal" 
clip-path="url(#clip1335)" >
<defs><clipPath id="clip1335"><path vector-effect="non-scaling-stroke" fill-rule="evenodd" d="M0,0 L105,0 L105,38 L0,38 L0,0z "/>
</clipPath></defs></g>

<g fill="none" stroke="#000000" stroke-opacity="1" stroke-width="1" stroke-linecap="square" stroke-linejoin="bevel" transform="matrix(1.68067,0,0,1.68067,16.8067,18.4874)"
font-family="Liberation Sans" font-size="10" font-weight="400" font-style="normal" 
clip-path="url(#clip1336)" >
<defs><clipPath id="clip1336"><path vector-effect="none" fill-rule="evenodd" d="M-3,-9 L102,-9 L102,29 L-3,29 L-3,-9z "/>
</clipPath></defs></g>

<g fill="none" stroke="#000000" stroke-opacity="1" stroke-width="1" stroke-linecap="square" stroke-linejoin="bevel" transform="matrix(1.68067,0,0,1.68067,16.8067,18.4874)"
font-family="Liberation Sans" font-size="10" font-weight="400" font-style="normal" 
clip-path="url(#clip1336)" >
<text textLength="9" fill="#000000" fill-opacity="1" stroke="none" xml:space="preserve" x="0" y="3" font-family="Liberation Sans" font-size="10" font-weight="400" font-style="normal" 
 >In</text>
</g>

<g fill="none" stroke="#000000" stroke-opacity="1" stroke-width="1" stroke-linecap="square" stroke-linejoin="bevel" transform="matrix(1.68067,0,0,1.68067,16.8067,18.4874)"
font-family="Liberation Sans" font-size="10" font-weight="400" font-style="normal" 
clip-path="url(#clip1336)" >
</g>

<g fill="none" stroke="#000000" stroke-opacity="1" stroke-width="1" stroke-linecap="square" stroke-linejoin="bevel" transform="matrix(1.68067,0,0,1.68067,16.8067,52.1008)"
font-family="Liberation Sans" font-size="10" font-weight="400" font-style="normal" 
clip-path="url(#clip1337)" >
<defs><clipPath id="clip1337"><path vector-effect="none" fill-rule="evenodd" d="M-3,-29 L102,-29 L102,9 L-3,9 L-3,-29z "/>
</clipPath></defs></g>

<g fill="none" stroke="#000000" stroke-opacity="1" stroke-width="1" stroke-linecap="square" stroke-linejoin="bevel" transform="matrix(1.68067,0,0,1.68067,16.8067,52.1008)"
font-family="Liberation Sans" font-size="10" font-weight="400" font-style="normal" 
clip-path="url(#clip1337)" >
<text textLength="29" fill="#000000" fill-opacity="1" stroke="none" xml:space="preserve" x="0" y="3" font-family="Liberation Sans" font-size="10" font-weight="400" font-style="normal" 
 >Coeffs</text>
</g>

<g fill="none" stroke="#000000" stroke-opacity="1" stroke-width="1" stroke-linecap="square" stroke-linejoin="bevel" transform="matrix(1.68067,0,0,1.68067,16.8067,52.1008)"
font-family="Liberation Sans" font-size="10" font-weight="400" font-style="normal" 
clip-path="url(#clip1337)" >
</g>

<g fill="none" stroke="#000000" stroke-opacity="1" stroke-width="1" stroke-linecap="square" stroke-linejoin="bevel" transform="matrix(1.68067,0,0,1.68067,183.193,35.2941)"
font-family="Liberation Sans" font-size="10" font-weight="400" font-style="normal" 
clip-path="url(#clip1338)" >
<defs><clipPath id="clip1338"><path vector-effect="none" fill-rule="evenodd" d="M-102,-19 L3,-19 L3,19 L-102,19 L-102,-19z "/>
</clipPath></defs></g>

<g fill="none" stroke="#000000" stroke-opacity="1" stroke-width="1" stroke-linecap="square" stroke-linejoin="bevel" transform="matrix(1.68067,0,0,1.68067,183.193,35.2941)"
font-family="Liberation Sans" font-size="10" font-weight="400" font-style="normal" 
clip-path="url(#clip1338)" >
<text textLength="17" fill="#000000" fill-opacity="1" stroke="none" xml:space="preserve" x="-17" y="3" font-family="Liberation Sans" font-size="10" font-weight="400" font-style="normal" 
 >Out</text>
</g>

<g fill="none" stroke="#000000" stroke-opacity="1" stroke-width="1" stroke-linecap="square" stroke-linejoin="bevel" transform="matrix(1.68067,0,0,1.68067,183.193,35.2941)"
font-family="Liberation Sans" font-size="10" font-weight="400" font-style="normal" 
clip-path="url(#clip1338)" >
</g>

<g fill="none" stroke="#000000" stroke-opacity="1" stroke-width="1" stroke-linecap="square" stroke-linejoin="bevel" transform="matrix(1.68067,0,0,1.68067,99.1597,35.2941)"
font-family="Liberation Sans" font-size="10" font-weight="400" font-style="normal" 
clip-path="url(#clip1339)" >
<defs><clipPath id="clip1339"><path vector-effect="none" fill-rule="evenodd" d="M-52,-19 L53,-19 L53,19 L-52,19 L-52,-19z "/>
</clipPath></defs></g>

<g fill="none" stroke="#000000" stroke-opacity="1" stroke-width="1" stroke-linecap="square" stroke-linejoin="bevel" transform="matrix(1.68067,0,0,1.68067,99.1597,35.2941)"
font-family="Liberation Sans" font-size="10" font-weight="400" font-style="normal" 
clip-path="url(#clip1339)" >
<text textLength="35" fill="#000000" fill-opacity="1" stroke="none" xml:space="preserve" x="-17" y="3" font-family="Liberation Sans" font-size="10" font-weight="400" font-style="normal" 
 >Polyval</text>
</g>

<g fill="none" stroke="#000000" stroke-opacity="1" stroke-width="1" stroke-linecap="square" stroke-linejoin="bevel" transform="matrix(1.68067,0,0,1.68067,99.1597,35.2941)"
font-family="Liberation Sans" font-size="10" font-weight="400" font-style="normal" 
clip-path="url(#clip1339)" >
</g>

<g fill="none" stroke="#000000" stroke-opacity="1" stroke-width="1" stroke-linecap="square" stroke-linejoin="bevel" transform="matrix(1.68067,0,0,1.68067,99.1597,35.2941)"
font-family="Liberation Sans" font-size="10" font-weight="400" font-style="normal" 
clip-path="url(#clip1340)" >
<defs><clipPath id="clip1340"><path vector-effect="none" fill-rule="evenodd" d="M-7,-2 L112,-2 L112,40 L-7,40 L-7,-2z "/>
</clipPath></defs></g>

<g fill="none" stroke="#000000" stroke-opacity="1" stroke-width="1" stroke-linecap="square" stroke-linejoin="bevel" transform="matrix(1,0,0,1,0,0)"
font-family="Liberation Sans" font-size="10" font-weight="400" font-style="normal" 
clip-path="url(#clip1340)" >
</g>

<g fill="none" stroke="#000000" stroke-opacity="1" stroke-width="1" stroke-linecap="square" stroke-linejoin="bevel" transform="matrix(1.68067,0,0,1.68067,11.7647,3.36134)"
font-family="Helvetica" font-size="12.5" font-weight="400" font-style="normal" 
clip-path="url(#clip1340)" >
</g>

<g fill="none" stroke="#000000" stroke-opacity="1" stroke-width="1" stroke-linecap="square" stroke-linejoin="bevel" transform="matrix(1.68067,0,0,1.68067,11.7647,3.36134)"
font-family="Helvetica" font-size="12.5" font-weight="400" font-style="normal" 
clip-path="url(#clip1340)" >
</g>

<g fill="none" stroke="#000000" stroke-opacity="1" stroke-width="0.812469" stroke-linecap="butt" stroke-linejoin="miter" stroke-miterlimit="2" transform="matrix(1.68067,0,0,1.68067,11.7647,3.36134)"
font-family="Helvetica" font-size="12.5" font-weight="400" font-style="normal" 
clip-path="url(#clip1340)" >
<path vector-effect="none" fill-rule="evenodd" d="M0,0 L105,0 L105,38 L0,38 L0,0z "/>
</g>

<g fill="none" stroke="#000000" stroke-opacity="1" stroke-width="1" stroke-linecap="square" stroke-linejoin="bevel" transform="matrix(1.68067,0,0,1.68067,11.7647,3.36134)"
font-family="Helvetica" font-size="12.5" font-weight="400" font-style="normal" 
clip-path="url(#clip1340)" >
</g>

<g fill="none" stroke="#000000" stroke-opacity="1" stroke-width="1" stroke-linecap="square" stroke-linejoin="bevel" transform="matrix(1,0,0,1,0,0)"
font-family="Helvetica" font-size="12.5" font-weight="400" font-style="normal" 
>
</g>

<g fill="none" stroke="#000000" stroke-opacity="1" stroke-width="1" stroke-linecap="square" stroke-linejoin="bevel" transform="matrix(1,0,0,1,0,0)"
font-family="Helvetica" font-size="12.5" font-weight="400" font-style="normal" 
>
</g>

<g fill="none" stroke="#000000" stroke-opacity="1" stroke-width="1" stroke-linecap="square" stroke-linejoin="bevel" transform="matrix(1,0,0,1,0,0)"
font-family="Helvetica" font-size="12.5" font-weight="400" font-style="normal" 
clip-path="url(#clip1341)" >
<defs><clipPath id="clip1341"><path vector-effect="non-scaling-stroke" fill-rule="evenodd" d="M0,0 L200,0 L200,70 L0,70 L0,0z "/>
</clipPath></defs></g>

<g fill="none" stroke="#000000" stroke-opacity="1" stroke-width="1" stroke-linecap="square" stroke-linejoin="bevel" transform="matrix(1,0,0,1,0,0)"
font-family="Helvetica" font-size="12.5" font-weight="400" font-style="normal" 
>
</g>

<g fill="none" stroke="#000000" stroke-opacity="1" stroke-width="1" stroke-linecap="square" stroke-linejoin="bevel" transform="matrix(1,0,0,1,0,0)"
font-family="Helvetica" font-size="12.5" font-weight="400" font-style="normal" 
>
</g>

<g fill="none" stroke="#000000" stroke-opacity="1" stroke-width="1" stroke-linecap="square" stroke-linejoin="bevel" transform="matrix(1,0,0,1,0,0)"
font-family="Helvetica" font-size="12.5" font-weight="400" font-style="normal" 
clip-path="url(#clip1342)" >
<defs><clipPath id="clip1342"><path vector-effect="non-scaling-stroke" fill-rule="evenodd" d="M0,0 L1,0 L1,1 L0,1 L0,0z "/>
</clipPath></defs></g>

<g fill="none" stroke="#000000" stroke-opacity="1" stroke-width="1" stroke-linecap="square" stroke-linejoin="bevel" transform="matrix(1,0,0,1,0,0)"
font-family="Helvetica" font-size="12.5" font-weight="400" font-style="normal" 
>
</g>

<g fill="none" stroke="#000000" stroke-opacity="1" stroke-width="1" stroke-linecap="square" stroke-linejoin="bevel" transform="matrix(1,0,0,1,0,0)"
font-family="Helvetica" font-size="12.5" font-weight="400" font-style="normal" 
>
</g>
</g>
</svg>
