<?xml version="1.0" encoding="UTF-8" standalone="no"?>
<svg width="67.7333mm" height="23.0293mm"
 viewBox="0 0 200 68"
 xmlns="http://www.w3.org/2000/svg" xmlns:xlink="http://www.w3.org/1999/xlink"  version="1.2" baseProfile="tiny">
<defs>
</defs>
<g fill="none" stroke="black" stroke-width="1" fill-rule="evenodd" stroke-linecap="square" stroke-linejoin="bevel" >

<g fill="#ffffff" fill-opacity="0" stroke="none" transform="matrix(1,0,0,1,0,0)"
font-family="Helvetica" font-size="12.5" font-weight="400" font-style="normal" 
>
<path vector-effect="non-scaling-stroke" fill-rule="evenodd" d="M0,0 L200,0 L200,68 L0,68 L0,0z "/>
</g>

<g fill="none" stroke="#000000" stroke-opacity="1" stroke-width="1" stroke-linecap="square" stroke-linejoin="bevel" transform="matrix(1,0,0,1,0,0)"
font-family="Helvetica" font-size="12.5" font-weight="400" font-style="normal" 
>
</g>

<g fill="none" stroke="#000000" stroke-opacity="1" stroke-width="1" stroke-linecap="square" stroke-linejoin="bevel" transform="matrix(1,0,0,1,0,0)"
font-family="Helvetica" font-size="12.5" font-weight="400" font-style="normal" 
clip-path="url(#clip1783)" >
<defs><clipPath id="clip1783"><path vector-effect="non-scaling-stroke" fill-rule="evenodd" d="M0,0 L200,0 L200,68.6869 L0,68.6869 L0,0z "/>
</clipPath></defs></g>

<g fill="none" stroke="#000000" stroke-opacity="1" stroke-width="1" stroke-linecap="square" stroke-linejoin="bevel" transform="matrix(-2.0202,0,0,-2.0202,14.1414,34.3434)"
font-family="Helvetica" font-size="12.5" font-weight="400" font-style="normal" 
clip-path="url(#clip1784)" >
<defs><clipPath id="clip1784"><path vector-effect="non-scaling-stroke" fill-rule="evenodd" d="M7,17 L-92,17 L-92,-17 L7,-17 L7,17z "/>
</clipPath></defs></g>

<g fill="#000000" fill-opacity="0" stroke="#000000" stroke-opacity="1" stroke-width="2" stroke-linecap="round" stroke-linejoin="miter" stroke-miterlimit="2" transform="matrix(-2.0202,0,0,-2.0202,14.1414,34.3434)"
font-family="Helvetica" font-size="12.5" font-weight="400" font-style="normal" 
clip-path="url(#clip1784)" >
<path vector-effect="none" fill-rule="evenodd" d="M5,-5 L0,0 L5,5"/>
</g>

<g fill="none" stroke="#000000" stroke-opacity="1" stroke-width="1" stroke-linecap="square" stroke-linejoin="bevel" transform="matrix(-2.0202,0,0,-2.0202,14.1414,34.3434)"
font-family="Helvetica" font-size="12.5" font-weight="400" font-style="normal" 
clip-path="url(#clip1784)" >
</g>

<g fill="none" stroke="#000000" stroke-opacity="1" stroke-width="1" stroke-linecap="square" stroke-linejoin="bevel" transform="matrix(2.0202,0,0,2.0202,14.1414,4.0404)"
font-family="Helvetica" font-size="12.5" font-weight="400" font-style="normal" 
clip-path="url(#clip1785)" >
<defs><clipPath id="clip1785"><path vector-effect="non-scaling-stroke" fill-rule="evenodd" d="M-7,-2 L92,-2 L92,32 L-7,32 L-7,-2z "/>
</clipPath></defs></g>

<g fill="#ffffff" fill-opacity="1" stroke="none" transform="matrix(2.0202,0,0,2.0202,14.1414,4.0404)"
font-family="Helvetica" font-size="12.5" font-weight="400" font-style="normal" 
clip-path="url(#clip1785)" >
<path vector-effect="none" fill-rule="evenodd" d="M0,0 L90,0 L90,30 L0,30 L0,0z "/>
</g>

<g fill="none" stroke="#000000" stroke-opacity="1" stroke-width="1" stroke-linecap="square" stroke-linejoin="bevel" transform="matrix(2.0202,0,0,2.0202,14.1414,4.0404)"
font-family="Helvetica" font-size="12.5" font-weight="400" font-style="normal" 
clip-path="url(#clip1785)" >
</g>

<g fill="none" stroke="#000000" stroke-opacity="1" stroke-width="1" stroke-linecap="square" stroke-linejoin="bevel" transform="matrix(2.0202,0,0,2.0202,14.1414,4.0404)"
font-family="Helvetica" font-size="12.5" font-weight="400" font-style="normal" 
clip-path="url(#clip1785)" >
</g>

<g fill="none" stroke="#000000" stroke-opacity="1" stroke-width="1" stroke-linecap="square" stroke-linejoin="bevel" transform="matrix(2.0202,0,0,2.0202,14.1414,4.0404)"
font-family="Helvetica" font-size="12.5" font-weight="400" font-style="normal" 
clip-path="url(#clip1786)" >
<defs><clipPath id="clip1786"><path vector-effect="non-scaling-stroke" fill-rule="evenodd" d="M0,0 L90,0 L90,30 L0,30 L0,0z "/>
</clipPath></defs></g>

<g fill="none" stroke="#000000" stroke-opacity="1" stroke-width="1" stroke-linecap="square" stroke-linejoin="bevel" transform="matrix(2.0202,0,0,2.0202,14.1414,4.0404)"
font-family="Helvetica" font-size="12.5" font-weight="400" font-style="normal" 
clip-path="url(#clip1787)" >
<defs><clipPath id="clip1787"><path vector-effect="non-scaling-stroke" fill-rule="evenodd" d="M-7,-2 L92,-2 L92,32 L-7,32 L-7,-2z "/>
</clipPath></defs></g>

<g fill="none" stroke="#000000" stroke-opacity="1" stroke-width="1" stroke-linecap="square" stroke-linejoin="bevel" transform="matrix(1,0,0,1,0,0)"
font-family="Helvetica" font-size="12.5" font-weight="400" font-style="normal" 
clip-path="url(#clip1787)" >
</g>

<g fill="none" stroke="#000000" stroke-opacity="1" stroke-width="1" stroke-linecap="square" stroke-linejoin="bevel" transform="matrix(2.0202,0,0,2.0202,14.1414,4.0404)"
font-family="Helvetica" font-size="12.5" font-weight="400" font-style="normal" 
clip-path="url(#clip1787)" >
</g>

<g fill="none" stroke="#000000" stroke-opacity="1" stroke-width="1" stroke-linecap="square" stroke-linejoin="bevel" transform="matrix(2.0202,0,0,2.0202,14.1414,4.0404)"
font-family="Helvetica" font-size="12.5" font-weight="400" font-style="normal" 
clip-path="url(#clip1787)" >
</g>

<g fill="none" stroke="#000000" stroke-opacity="1" stroke-width="0.754818" stroke-linecap="butt" stroke-linejoin="miter" stroke-miterlimit="2" transform="matrix(2.0202,0,0,2.0202,14.1414,4.0404)"
font-family="Helvetica" font-size="12.5" font-weight="400" font-style="normal" 
clip-path="url(#clip1787)" >
<path vector-effect="none" fill-rule="evenodd" d="M0,0 L90,0 L90,30 L0,30 L0,0z "/>
</g>

<g fill="none" stroke="#000000" stroke-opacity="1" stroke-width="1" stroke-linecap="square" stroke-linejoin="bevel" transform="matrix(2.0202,0,0,2.0202,14.1414,4.0404)"
font-family="Helvetica" font-size="12.5" font-weight="400" font-style="normal" 
clip-path="url(#clip1787)" >
</g>

<g fill="none" stroke="#000000" stroke-opacity="1" stroke-width="1" stroke-linecap="square" stroke-linejoin="bevel" transform="matrix(2.0202,0,0,2.0202,14.1414,4.0404)"
font-family="Helvetica" font-size="12.5" font-weight="400" font-style="normal" 
clip-path="url(#clip1787)" >
</g>

<g fill="none" stroke="#000000" stroke-opacity="1" stroke-width="1" stroke-linecap="square" stroke-linejoin="bevel" transform="matrix(2.0202,0,0,2.0202,14.1414,4.0404)"
font-family="Helvetica" font-size="12.5" font-weight="400" font-style="normal" 
clip-path="url(#clip1788)" >
<defs><clipPath id="clip1788"><path vector-effect="non-scaling-stroke" fill-rule="evenodd" d="M0,1 L88,1 L88,29 L0,29 L0,1z "/>
</clipPath></defs></g>

<g fill="none" stroke="none" transform="matrix(2.0202,0,0,2.0202,14.1414,4.0404)"
font-family="Helvetica" font-size="12.5" font-weight="400" font-style="normal" 
clip-path="url(#clip1788)" >
<path vector-effect="none" fill-rule="evenodd" d="M0,1 L88,1 L88,29 L0,29 L0,1z "/>
</g>

<g fill="none" stroke="none" transform="matrix(2.0202,0,0,2.0202,14.1414,4.0404)"
font-family="Helvetica" font-size="12.5" font-weight="400" font-style="normal" 
clip-path="url(#clip1789)" >
<defs><clipPath id="clip1789"><path vector-effect="none" fill-rule="evenodd" d="M-7,-2 L92,-2 L92,32 L-7,32 L-7,-2z "/>
</clipPath></defs></g>

<g fill="none" stroke="none" transform="matrix(1,0,0,1,0,0)"
font-family="Helvetica" font-size="12.5" font-weight="400" font-style="normal" 
clip-path="url(#clip1789)" >
</g>

<g fill="none" stroke="#000000" stroke-opacity="1" stroke-width="1" stroke-linecap="square" stroke-linejoin="bevel" transform="matrix(2.0202,0,0,2.0202,14.1414,4.0404)"
font-family="Helvetica" font-size="12.5" font-weight="400" font-style="normal" 
clip-path="url(#clip1789)" >
</g>

<g fill="none" stroke="#000000" stroke-opacity="1" stroke-width="1" stroke-linecap="square" stroke-linejoin="bevel" transform="matrix(2.0202,0,0,2.0202,14.1414,4.0404)"
font-family="Helvetica" font-size="12.5" font-weight="400" font-style="normal" 
clip-path="url(#clip1790)" >
<defs><clipPath id="clip1790"><path vector-effect="non-scaling-stroke" fill-rule="evenodd" d="M0,1 L88,1 L88,29 L0,29 L0,1z "/>
</clipPath></defs></g>

<g fill="none" stroke="#000000" stroke-opacity="1" stroke-width="1" stroke-linecap="square" stroke-linejoin="bevel" transform="matrix(2.0202,0,0,2.0202,14.1414,4.0404)"
font-family="Helvetica" font-size="12.5" font-weight="400" font-style="normal" 
clip-path="url(#clip1790)" >
</g>

<g fill="none" stroke="#000000" stroke-opacity="1" stroke-width="1" stroke-linecap="square" stroke-linejoin="bevel" transform="matrix(2.0202,0,0,2.0202,14.1414,4.0404)"
font-family="Helvetica" font-size="12.5" font-weight="400" font-style="normal" 
clip-path="url(#clip1791)" >
<defs><clipPath id="clip1791"><path vector-effect="non-scaling-stroke" fill-rule="evenodd" d="M0,1 L65,1 L65,21 L0,21 L0,1z "/>
</clipPath></defs></g>

<g fill="none" stroke="none" transform="matrix(2.0202,0,0,2.0202,14.1414,4.0404)"
font-family="Helvetica" font-size="12.5" font-weight="400" font-style="normal" 
clip-path="url(#clip1791)" >
<path vector-effect="none" fill-rule="evenodd" d="M0,3 C0,1.34315 1.34315,0 3,0 L61.4688,0 C63.1256,0 64.4688,1.34315 64.4688,3 L64.4688,18 C64.4688,19.6569 63.1256,21 61.4688,21 L3,21 C1.34315,21 0,19.6569 0,18 L0,3z "/>
</g>

<g fill="none" stroke="none" transform="matrix(2.0202,0,0,2.0202,14.1414,4.0404)"
font-family="Helvetica" font-size="12.5" font-weight="400" font-style="normal" 
clip-path="url(#clip1792)" >
<defs><clipPath id="clip1792"><path vector-effect="none" fill-rule="evenodd" d="M0,1 L88,1 L88,29 L0,29 L0,1z "/>
</clipPath></defs></g>

<g fill="none" stroke="none" transform="matrix(1,0,0,1,0,0)"
font-family="Helvetica" font-size="12.5" font-weight="400" font-style="normal" 
clip-path="url(#clip1792)" >
</g>

<g fill="none" stroke="none" transform="matrix(2.0202,0,0,2.0202,14.1414,4.0404)"
font-family="Helvetica" font-size="12.5" font-weight="400" font-style="normal" 
clip-path="url(#clip1792)" >
</g>

<g fill="none" stroke="#000000" stroke-opacity="1" stroke-width="1" stroke-linecap="square" stroke-linejoin="bevel" transform="matrix(2.0202,0,0,2.0202,14.1414,4.0404)"
font-family="Helvetica" font-size="12.5" font-weight="400" font-style="normal" 
clip-path="url(#clip1792)" >
</g>

<g fill="none" stroke="#000000" stroke-opacity="1" stroke-width="1" stroke-linecap="square" stroke-linejoin="bevel" transform="matrix(2.0202,0,0,2.0202,14.1414,4.0404)"
font-family="Helvetica" font-size="12.5" font-weight="400" font-style="normal" 
clip-path="url(#clip1793)" >
<defs><clipPath id="clip1793"><path vector-effect="non-scaling-stroke" fill-rule="evenodd" d="M1,1 L64,1 L64,3 L64,19 L64,21 L1,21 L1,19 L0,19 L0,3 L1,3"/>
</clipPath></defs></g>

<g fill="none" stroke="#000000" stroke-opacity="1" stroke-width="1" stroke-linecap="square" stroke-linejoin="bevel" transform="matrix(2.0202,0,0,2.0202,20.202,10.101)"
font-family="Helvetica" font-size="12.5" font-weight="400" font-style="normal" 
clip-path="url(#clip1794)" >
<defs><clipPath id="clip1794"><path vector-effect="non-scaling-stroke" fill-rule="evenodd" d="M-2,-2 L61,-2 L61,0 L61,16 L61,18 L-2,18 L-2,16 L-3,16 L-3,0 L-2,0"/>
</clipPath></defs></g>

<g fill="none" stroke="#000000" stroke-opacity="1" stroke-width="0.495" stroke-linecap="butt" stroke-linejoin="miter" stroke-miterlimit="2" transform="matrix(2.0202,0,0,2.0202,20.202,10.101)"
font-family="Helvetica" font-size="12.5" font-weight="400" font-style="normal" 
clip-path="url(#clip1794)" >
<path vector-effect="none" fill-rule="evenodd" d="M0,0 L58.4688,0 L58.4688,15 L0,15 L0,0z "/>
</g>

<g fill="none" stroke="#000000" stroke-opacity="1" stroke-width="1" stroke-linecap="square" stroke-linejoin="bevel" transform="matrix(2.0202,0,0,2.0202,20.202,10.101)"
font-family="Helvetica" font-size="12.5" font-weight="400" font-style="normal" 
clip-path="url(#clip1794)" >
</g>

<g fill="none" stroke="#000000" stroke-opacity="1" stroke-width="1" stroke-linecap="square" stroke-linejoin="bevel" transform="matrix(2.0202,0,0,2.0202,138.321,25.2525)"
font-family="Helvetica" font-size="12.5" font-weight="400" font-style="normal" 
clip-path="url(#clip1795)" >
<defs><clipPath id="clip1795"><path vector-effect="non-scaling-stroke" fill-rule="evenodd" d="M-61,-9 L3,-9 L3,10 L2,10 L2,11 L-61,11 L-61,10"/>
</clipPath></defs></g>

<g fill="none" stroke="none" transform="matrix(2.0202,0,0,2.0202,138.321,25.2525)"
font-family="Helvetica" font-size="12.5" font-weight="400" font-style="normal" 
clip-path="url(#clip1795)" >
<path vector-effect="none" fill-rule="evenodd" d="M-2,-7.5 L0,-7.5 L0,7.5 L-2,7.5 L-2,-7.5z "/>
</g>

<g fill="none" stroke="#000000" stroke-opacity="1" stroke-width="1" stroke-linecap="square" stroke-linejoin="bevel" transform="matrix(2.0202,0,0,2.0202,138.321,25.2525)"
font-family="Helvetica" font-size="10" font-weight="400" font-style="normal" 
clip-path="url(#clip1795)" >
</g>

<g fill="none" stroke="#000000" stroke-opacity="1" stroke-width="1" stroke-linecap="square" stroke-linejoin="bevel" transform="matrix(2.0202,0,0,2.0202,134.28,10.101)"
font-family="Helvetica" font-size="10" font-weight="400" font-style="normal" 
clip-path="url(#clip1796)" >
<defs><clipPath id="clip1796"><path vector-effect="non-scaling-stroke" fill-rule="evenodd" d="M-59,-2 L4,-2 L4,-1 L5,-1 L5,17 L4,17 L4,18 L-59,18 L-59,17 L-59,-1"/>
</clipPath></defs></g>

<g fill="none" stroke="#000000" stroke-opacity="1" stroke-width="1" stroke-linecap="square" stroke-linejoin="bevel" transform="matrix(2.0202,0,0,2.0202,134.28,10.101)"
font-family="Helvetica" font-size="10" font-weight="400" font-style="normal" 
clip-path="url(#clip1796)" >
</g>

<g fill="none" stroke="#000000" stroke-opacity="1" stroke-width="1" stroke-linecap="square" stroke-linejoin="bevel" transform="matrix(2.0202,0,0,2.0202,134.28,10.101)"
font-family="Helvetica" font-size="10" font-weight="400" font-style="normal" 
clip-path="url(#clip1797)" >
<defs><clipPath id="clip1797"><path vector-effect="non-scaling-stroke" fill-rule="evenodd" d="M0,0 L2,0 L2,15 L0,15 L0,0z "/>
</clipPath></defs></g>

<g fill="none" stroke="#000000" stroke-opacity="1" stroke-width="1" stroke-linecap="square" stroke-linejoin="bevel" transform="matrix(2.0202,0,0,2.0202,134.28,10.101)"
font-family="Helvetica" font-size="10" font-weight="400" font-style="normal" 
clip-path="url(#clip1798)" >
<defs><clipPath id="clip1798"><path vector-effect="non-scaling-stroke" fill-rule="evenodd" d="M-59,-2 L4,-2 L4,-1 L5,-1 L5,17 L4,17 L4,18 L-59,18 L-59,17 L-59,-1"/>
</clipPath></defs></g>

<g fill="none" stroke="#000000" stroke-opacity="1" stroke-width="1" stroke-linecap="square" stroke-linejoin="bevel" transform="matrix(1,0,0,1,0,0)"
font-family="Helvetica" font-size="10" font-weight="400" font-style="normal" 
clip-path="url(#clip1798)" >
</g>

<g fill="none" stroke="#000000" stroke-opacity="1" stroke-width="1" stroke-linecap="square" stroke-linejoin="bevel" transform="matrix(2.0202,0,0,2.0202,14.1414,4.0404)"
font-family="Helvetica" font-size="10" font-weight="400" font-style="normal" 
clip-path="url(#clip1798)" >
</g>

<g fill="none" stroke="#000000" stroke-opacity="1" stroke-width="1" stroke-linecap="square" stroke-linejoin="bevel" transform="matrix(2.0202,0,0,2.0202,14.1414,4.0404)"
font-family="Helvetica" font-size="10" font-weight="400" font-style="normal" 
clip-path="url(#clip1798)" >
</g>

<g fill="none" stroke="#000000" stroke-opacity="1" stroke-width="1" stroke-linecap="square" stroke-linejoin="bevel" transform="matrix(2.0202,0,0,2.0202,134.28,10.101)"
font-family="Helvetica" font-size="10" font-weight="400" font-style="normal" 
clip-path="url(#clip1798)" >
</g>

<g fill="none" stroke="#000000" stroke-opacity="1" stroke-width="1" stroke-linecap="square" stroke-linejoin="bevel" transform="matrix(2.0202,0,0,2.0202,134.28,10.101)"
font-family="Helvetica" font-size="10" font-weight="400" font-style="normal" 
clip-path="url(#clip1798)" >
</g>

<g fill="none" stroke="#000000" stroke-opacity="1" stroke-width="1" stroke-linecap="square" stroke-linejoin="bevel" transform="matrix(2.0202,0,0,2.0202,138.321,25.2525)"
font-family="Helvetica" font-size="10" font-weight="400" font-style="normal" 
clip-path="url(#clip1799)" >
<defs><clipPath id="clip1799"><path vector-effect="non-scaling-stroke" fill-rule="evenodd" d="M-61,-9 L3,-9 L3,10 L2,10 L2,11 L-61,11 L-61,10"/>
</clipPath></defs></g>

<g fill="none" stroke="#000000" stroke-opacity="1" stroke-width="1" stroke-linecap="square" stroke-linejoin="bevel" transform="matrix(2.0202,0,0,2.0202,138.321,25.2525)"
font-family="Helvetica" font-size="12.5" font-weight="400" font-style="normal" 
clip-path="url(#clip1799)" >
</g>

<g fill="none" stroke="#000000" stroke-opacity="1" stroke-width="1" stroke-linecap="square" stroke-linejoin="bevel" transform="matrix(2.0202,0,0,2.0202,138.321,25.2525)"
font-family="Helvetica" font-size="12.5" font-weight="400" font-style="normal" 
clip-path="url(#clip1800)" >
<defs><clipPath id="clip1800"><path vector-effect="non-scaling-stroke" fill-rule="evenodd" d="M0,1 L88,1 L88,29 L0,29 L0,1z "/>
</clipPath></defs></g>

<g fill="none" stroke="#000000" stroke-opacity="1" stroke-width="1" stroke-linecap="square" stroke-linejoin="bevel" transform="matrix(1,0,0,1,0,0)"
font-family="Helvetica" font-size="12.5" font-weight="400" font-style="normal" 
clip-path="url(#clip1800)" >
</g>

<g fill="none" stroke="#000000" stroke-opacity="1" stroke-width="1" stroke-linecap="square" stroke-linejoin="bevel" transform="matrix(2.0202,0,0,2.0202,14.1414,4.0404)"
font-family="Helvetica" font-size="12.5" font-weight="400" font-style="normal" 
clip-path="url(#clip1800)" >
</g>

<g fill="none" stroke="#000000" stroke-opacity="1" stroke-width="1" stroke-linecap="square" stroke-linejoin="bevel" transform="matrix(2.0202,0,0,2.0202,14.1414,4.0404)"
font-family="Helvetica" font-size="12.5" font-weight="400" font-style="normal" 
clip-path="url(#clip1800)" >
</g>

<g fill="none" stroke="#000000" stroke-opacity="1" stroke-width="1" stroke-linecap="square" stroke-linejoin="bevel" transform="matrix(2.0202,0,0,2.0202,14.1414,4.0404)"
font-family="Helvetica" font-size="12.5" font-weight="400" font-style="normal" 
clip-path="url(#clip1801)" >
<defs><clipPath id="clip1801"><path vector-effect="non-scaling-stroke" fill-rule="evenodd" d="M-7,-2 L92,-2 L92,32 L-7,32 L-7,-2z "/>
</clipPath></defs></g>

<g fill="none" stroke="#000000" stroke-opacity="1" stroke-width="1" stroke-linecap="square" stroke-linejoin="bevel" transform="matrix(1,0,0,1,0,0)"
font-family="Helvetica" font-size="12.5" font-weight="400" font-style="normal" 
clip-path="url(#clip1801)" >
</g>

<g fill="none" stroke="#000000" stroke-opacity="1" stroke-width="1" stroke-linecap="square" stroke-linejoin="bevel" transform="matrix(2.0202,0,0,2.0202,14.1414,4.0404)"
font-family="Helvetica" font-size="12.5" font-weight="400" font-style="normal" 
clip-path="url(#clip1801)" >
</g>

<g fill="none" stroke="#000000" stroke-opacity="1" stroke-width="1" stroke-linecap="square" stroke-linejoin="bevel" transform="matrix(1,0,0,1,0,0)"
font-family="Helvetica" font-size="12.5" font-weight="400" font-style="normal" 
>
</g>

<g fill="none" stroke="#000000" stroke-opacity="1" stroke-width="1" stroke-linecap="square" stroke-linejoin="bevel" transform="matrix(1,0,0,1,0,0)"
font-family="Helvetica" font-size="12.5" font-weight="400" font-style="normal" 
>
</g>

<g fill="none" stroke="#000000" stroke-opacity="1" stroke-width="1" stroke-linecap="square" stroke-linejoin="bevel" transform="matrix(1,0,0,1,0,0)"
font-family="Helvetica" font-size="12.5" font-weight="400" font-style="normal" 
clip-path="url(#clip1802)" >
<defs><clipPath id="clip1802"><path vector-effect="non-scaling-stroke" fill-rule="evenodd" d="M0,0 L200,0 L200,68 L0,68 L0,0z "/>
</clipPath></defs></g>

<g fill="none" stroke="#000000" stroke-opacity="1" stroke-width="1" stroke-linecap="square" stroke-linejoin="bevel" transform="matrix(1,0,0,1,0,0)"
font-family="Helvetica" font-size="12.5" font-weight="400" font-style="normal" 
>
</g>

<g fill="none" stroke="#000000" stroke-opacity="1" stroke-width="1" stroke-linecap="square" stroke-linejoin="bevel" transform="matrix(1,0,0,1,0,0)"
font-family="Helvetica" font-size="12.5" font-weight="400" font-style="normal" 
>
</g>

<g fill="none" stroke="#000000" stroke-opacity="1" stroke-width="1" stroke-linecap="square" stroke-linejoin="bevel" transform="matrix(1,0,0,1,0,0)"
font-family="Helvetica" font-size="12.5" font-weight="400" font-style="normal" 
clip-path="url(#clip1803)" >
<defs><clipPath id="clip1803"><path vector-effect="non-scaling-stroke" fill-rule="evenodd" d="M0,0 L1,0 L1,1 L0,1 L0,0z "/>
</clipPath></defs></g>

<g fill="none" stroke="#000000" stroke-opacity="1" stroke-width="1" stroke-linecap="square" stroke-linejoin="bevel" transform="matrix(1,0,0,1,0,0)"
font-family="Helvetica" font-size="12.5" font-weight="400" font-style="normal" 
>
</g>

<g fill="none" stroke="#000000" stroke-opacity="1" stroke-width="1" stroke-linecap="square" stroke-linejoin="bevel" transform="matrix(1,0,0,1,0,0)"
font-family="Helvetica" font-size="12.5" font-weight="400" font-style="normal" 
>
</g>
</g>
</svg>
