<?xml version="1.0" encoding="UTF-8" standalone="no"?>
<svg width="52.9167mm" height="21.9604mm"
 viewBox="0 0 200 83"
 xmlns="http://www.w3.org/2000/svg" xmlns:xlink="http://www.w3.org/1999/xlink"  version="1.2" baseProfile="tiny">
<defs>
</defs>
<g fill="none" stroke="black" stroke-width="1" fill-rule="evenodd" stroke-linecap="square" stroke-linejoin="bevel" >

<g fill="#ffffff" fill-opacity="0" stroke="none" transform="matrix(1,0,0,1,0,0)"
font-family="Helvetica" font-size="16" font-weight="400" font-style="normal" 
>
<path vector-effect="non-scaling-stroke" fill-rule="evenodd" d="M0,0 L200,0 L200,83 L0,83 L0,0z "/>
</g>

<g fill="none" stroke="#000000" stroke-opacity="1" stroke-width="1" stroke-linecap="square" stroke-linejoin="bevel" transform="matrix(1,0,0,1,0,0)"
font-family="Helvetica" font-size="16" font-weight="400" font-style="normal" 
>
</g>

<g fill="none" stroke="#000000" stroke-opacity="1" stroke-width="1" stroke-linecap="square" stroke-linejoin="bevel" transform="matrix(1,0,0,1,0,0)"
font-family="Helvetica" font-size="16" font-weight="400" font-style="normal" 
clip-path="url(#clip274)" >
<defs><clipPath id="clip274"><path vector-effect="non-scaling-stroke" fill-rule="evenodd" d="M0,0 L200,0 L200,83.3333 L0,83.3333 L0,0z "/>
</clipPath></defs></g>

<g fill="none" stroke="#000000" stroke-opacity="1" stroke-width="1" stroke-linecap="square" stroke-linejoin="bevel" transform="matrix(1.38889,0,0,1.38889,190.278,41.6667)"
font-family="Helvetica" font-size="16" font-weight="400" font-style="normal" 
clip-path="url(#clip275)" >
<defs><clipPath id="clip275"><path vector-effect="non-scaling-stroke" fill-rule="evenodd" d="M-137,-30 L7,-30 L7,30 L-137,30 L-137,-30z "/>
</clipPath></defs></g>

<g fill="#000000" fill-opacity="0" stroke="#000000" stroke-opacity="1" stroke-width="2" stroke-linecap="round" stroke-linejoin="miter" stroke-miterlimit="2" transform="matrix(1.38889,0,0,1.38889,190.278,41.6667)"
font-family="Helvetica" font-size="16" font-weight="400" font-style="normal" 
clip-path="url(#clip275)" >
<path vector-effect="none" fill-rule="evenodd" d="M0,-5 L5,0 L0,5"/>
</g>

<g fill="none" stroke="#000000" stroke-opacity="1" stroke-width="1" stroke-linecap="square" stroke-linejoin="bevel" transform="matrix(1.38889,0,0,1.38889,190.278,41.6667)"
font-family="Helvetica" font-size="16" font-weight="400" font-style="normal" 
clip-path="url(#clip275)" >
</g>

<g fill="none" stroke="#000000" stroke-opacity="1" stroke-width="1" stroke-linecap="square" stroke-linejoin="bevel" transform="matrix(-1.38889,0,0,-1.38889,9.72222,62.5)"
font-family="Helvetica" font-size="16" font-weight="400" font-style="normal" 
clip-path="url(#clip276)" >
<defs><clipPath id="clip276"><path vector-effect="non-scaling-stroke" fill-rule="evenodd" d="M7,45 L-137,45 L-137,-15 L7,-15 L7,45z "/>
</clipPath></defs></g>

<g fill="#000000" fill-opacity="0" stroke="#000000" stroke-opacity="1" stroke-width="2" stroke-linecap="round" stroke-linejoin="miter" stroke-miterlimit="2" transform="matrix(-1.38889,0,0,-1.38889,9.72222,62.5)"
font-family="Helvetica" font-size="16" font-weight="400" font-style="normal" 
clip-path="url(#clip276)" >
<path vector-effect="none" fill-rule="evenodd" d="M5,-5 L0,0 L5,5"/>
</g>

<g fill="none" stroke="#000000" stroke-opacity="1" stroke-width="1" stroke-linecap="square" stroke-linejoin="bevel" transform="matrix(-1.38889,0,0,-1.38889,9.72222,62.5)"
font-family="Helvetica" font-size="16" font-weight="400" font-style="normal" 
clip-path="url(#clip276)" >
</g>

<g fill="none" stroke="#000000" stroke-opacity="1" stroke-width="1" stroke-linecap="square" stroke-linejoin="bevel" transform="matrix(-1.38889,0,0,-1.38889,9.72222,20.8333)"
font-family="Helvetica" font-size="16" font-weight="400" font-style="normal" 
clip-path="url(#clip277)" >
<defs><clipPath id="clip277"><path vector-effect="non-scaling-stroke" fill-rule="evenodd" d="M7,15 L-137,15 L-137,-45 L7,-45 L7,15z "/>
</clipPath></defs></g>

<g fill="#000000" fill-opacity="0" stroke="#000000" stroke-opacity="1" stroke-width="2" stroke-linecap="round" stroke-linejoin="miter" stroke-miterlimit="2" transform="matrix(-1.38889,0,0,-1.38889,9.72222,20.8333)"
font-family="Helvetica" font-size="16" font-weight="400" font-style="normal" 
clip-path="url(#clip277)" >
<path vector-effect="none" fill-rule="evenodd" d="M5,-5 L0,0 L5,5"/>
</g>

<g fill="none" stroke="#000000" stroke-opacity="1" stroke-width="1" stroke-linecap="square" stroke-linejoin="bevel" transform="matrix(-1.38889,0,0,-1.38889,9.72222,20.8333)"
font-family="Helvetica" font-size="16" font-weight="400" font-style="normal" 
clip-path="url(#clip277)" >
</g>

<g fill="none" stroke="#000000" stroke-opacity="1" stroke-width="1" stroke-linecap="square" stroke-linejoin="bevel" transform="matrix(1.38889,0,0,1.38889,9.72222,2.77778)"
font-family="Helvetica" font-size="16" font-weight="400" font-style="normal" 
clip-path="url(#clip278)" >
<defs><clipPath id="clip278"><path vector-effect="non-scaling-stroke" fill-rule="evenodd" d="M-7,-2 L137,-2 L137,58 L-7,58 L-7,-2z "/>
</clipPath></defs></g>

<g fill="#ffffff" fill-opacity="1" stroke="#000000" stroke-opacity="1" stroke-width="0.876866" stroke-linecap="butt" stroke-linejoin="miter" stroke-miterlimit="2" transform="matrix(1.38889,0,0,1.38889,9.72222,2.77778)"
font-family="Helvetica" font-size="16" font-weight="400" font-style="normal" 
clip-path="url(#clip278)" >
<path vector-effect="none" fill-rule="evenodd" d="M0,0 L130,0 L130,56 L0,56 L0,0z "/>
</g>

<g fill="none" stroke="#000000" stroke-opacity="1" stroke-width="1" stroke-linecap="square" stroke-linejoin="bevel" transform="matrix(1.38889,0,0,1.38889,9.72222,2.77778)"
font-family="Helvetica" font-size="16" font-weight="400" font-style="normal" 
clip-path="url(#clip278)" >
</g>

<g fill="none" stroke="#000000" stroke-opacity="1" stroke-width="1" stroke-linecap="square" stroke-linejoin="bevel" transform="matrix(1.38889,0,0,1.38889,9.72222,2.77778)"
font-family="Helvetica" font-size="16" font-weight="400" font-style="normal" 
clip-path="url(#clip278)" >
</g>

<g fill="none" stroke="#000000" stroke-opacity="1" stroke-width="1" stroke-linecap="square" stroke-linejoin="bevel" transform="matrix(1.38889,0,0,1.38889,9.72222,2.77778)"
font-family="Helvetica" font-size="16" font-weight="400" font-style="normal" 
clip-path="url(#clip279)" >
<defs><clipPath id="clip279"><path vector-effect="non-scaling-stroke" fill-rule="evenodd" d="M0,0 L130,0 L130,56 L0,56 L0,0z "/>
</clipPath></defs></g>

<g fill="none" stroke="#000000" stroke-opacity="1" stroke-width="1" stroke-linecap="square" stroke-linejoin="bevel" transform="matrix(1.38889,0,0,1.38889,100,34.7222)"
font-family="FreeSans" font-size="11.1628" font-weight="400" font-style="normal" 
clip-path="url(#clip280)" >
<defs><clipPath id="clip280"><path vector-effect="none" fill-rule="evenodd" d="M-65,-23 L65,-23 L65,33 L-65,33 L-65,-23z "/>
</clipPath></defs></g>

<g fill="none" stroke="#000000" stroke-opacity="1" stroke-width="1" stroke-linecap="square" stroke-linejoin="bevel" transform="matrix(1.24421,0,0,1.24421,100,34.7222)"
font-family="FreeSans" font-size="11.1628" font-weight="400" font-style="normal" 
clip-path="url(#clip281)" >
<defs><clipPath id="clip281"><path vector-effect="none" fill-rule="evenodd" d="M-73,-26 L72,-26 L72,37 L-73,37 L-73,-26z "/>
</clipPath></defs><text textLength="39" fill="#000000" fill-opacity="1" stroke="none" xml:space="preserve" x="-18.9688" y="3.35938" font-family="FreeSans" font-size="11.1628" font-weight="400" font-style="normal" 
 >ADPCA</text>
</g>

<g fill="none" stroke="#000000" stroke-opacity="1" stroke-width="1" stroke-linecap="square" stroke-linejoin="bevel" transform="matrix(1.38889,0,0,1.38889,100,34.7222)"
font-family="FreeSans" font-size="11.1628" font-weight="400" font-style="normal" 
clip-path="url(#clip282)" >
<defs><clipPath id="clip282"><path vector-effect="none" fill-rule="evenodd" d="M-65,-23 L65,-23 L65,33 L-65,33 L-65,-23z "/>
</clipPath></defs></g>

<g fill="none" stroke="#000000" stroke-opacity="1" stroke-width="1" stroke-linecap="square" stroke-linejoin="bevel" transform="matrix(1.38889,0,0,1.38889,100,48.6111)"
font-family="FreeSans" font-size="11.1628" font-weight="400" font-style="normal" 
clip-path="url(#clip283)" >
<defs><clipPath id="clip283"><path vector-effect="none" fill-rule="evenodd" d="M-65,-33 L65,-33 L65,23 L-65,23 L-65,-33z "/>
</clipPath></defs></g>

<g fill="none" stroke="#000000" stroke-opacity="1" stroke-width="1" stroke-linecap="square" stroke-linejoin="bevel" transform="matrix(1.24421,0,0,1.24421,100,48.6111)"
font-family="FreeSans" font-size="11.1628" font-weight="400" font-style="normal" 
clip-path="url(#clip284)" >
<defs><clipPath id="clip284"><path vector-effect="none" fill-rule="evenodd" d="M-73,-37 L72,-37 L72,26 L-73,26 L-73,-37z "/>
</clipPath></defs><text textLength="46" fill="#000000" fill-opacity="1" stroke="none" xml:space="preserve" x="-22.875" y="3.35938" font-family="FreeSans" font-size="11.1628" font-weight="400" font-style="normal" 
 >Canceller</text>
</g>

<g fill="none" stroke="#000000" stroke-opacity="1" stroke-width="1" stroke-linecap="square" stroke-linejoin="bevel" transform="matrix(1.38889,0,0,1.38889,100,48.6111)"
font-family="FreeSans" font-size="11.1628" font-weight="400" font-style="normal" 
clip-path="url(#clip285)" >
<defs><clipPath id="clip285"><path vector-effect="none" fill-rule="evenodd" d="M-65,-33 L65,-33 L65,23 L-65,23 L-65,-33z "/>
</clipPath></defs></g>

<g fill="none" stroke="#000000" stroke-opacity="1" stroke-width="1" stroke-linecap="square" stroke-linejoin="bevel" transform="matrix(1.38889,0,0,1.38889,13.8889,20.8333)"
font-family="FreeSans" font-size="11.1628" font-weight="400" font-style="normal" 
clip-path="url(#clip286)" >
<defs><clipPath id="clip286"><path vector-effect="none" fill-rule="evenodd" d="M-3,-13 L127,-13 L127,43 L-3,43 L-3,-13z "/>
</clipPath></defs></g>

<g fill="none" stroke="#000000" stroke-opacity="1" stroke-width="1" stroke-linecap="square" stroke-linejoin="bevel" transform="matrix(1.24421,0,0,1.24421,13.8889,20.8333)"
font-family="FreeSans" font-size="11.1628" font-weight="400" font-style="normal" 
clip-path="url(#clip287)" >
<defs><clipPath id="clip287"><path vector-effect="none" fill-rule="evenodd" d="M-3,-15 L142,-15 L142,48 L-3,48 L-3,-15z "/>
</clipPath></defs><text textLength="9" fill="#000000" fill-opacity="1" stroke="none" xml:space="preserve" x="0" y="3.35938" font-family="FreeSans" font-size="11.1628" font-weight="400" font-style="normal" 
 >X</text>
</g>

<g fill="none" stroke="#000000" stroke-opacity="1" stroke-width="1" stroke-linecap="square" stroke-linejoin="bevel" transform="matrix(1.38889,0,0,1.38889,13.8889,20.8333)"
font-family="FreeSans" font-size="11.1628" font-weight="400" font-style="normal" 
clip-path="url(#clip288)" >
<defs><clipPath id="clip288"><path vector-effect="none" fill-rule="evenodd" d="M-3,-13 L127,-13 L127,43 L-3,43 L-3,-13z "/>
</clipPath></defs></g>

<g fill="none" stroke="#000000" stroke-opacity="1" stroke-width="1" stroke-linecap="square" stroke-linejoin="bevel" transform="matrix(1.38889,0,0,1.38889,13.8889,62.5)"
font-family="FreeSans" font-size="11.1628" font-weight="400" font-style="normal" 
clip-path="url(#clip289)" >
<defs><clipPath id="clip289"><path vector-effect="none" fill-rule="evenodd" d="M-3,-43 L127,-43 L127,13 L-3,13 L-3,-43z "/>
</clipPath></defs></g>

<g fill="none" stroke="#000000" stroke-opacity="1" stroke-width="1" stroke-linecap="square" stroke-linejoin="bevel" transform="matrix(1.24421,0,0,1.24421,13.8889,62.5)"
font-family="FreeSans" font-size="11.1628" font-weight="400" font-style="normal" 
clip-path="url(#clip290)" >
<defs><clipPath id="clip290"><path vector-effect="none" fill-rule="evenodd" d="M-3,-48 L142,-48 L142,15 L-3,15 L-3,-48z "/>
</clipPath></defs><text textLength="16" fill="#000000" fill-opacity="1" stroke="none" xml:space="preserve" x="0" y="3.35938" font-family="FreeSans" font-size="11.1628" font-weight="400" font-style="normal" 
 >Idx</text>
</g>

<g fill="none" stroke="#000000" stroke-opacity="1" stroke-width="1" stroke-linecap="square" stroke-linejoin="bevel" transform="matrix(1.38889,0,0,1.38889,13.8889,62.5)"
font-family="FreeSans" font-size="11.1628" font-weight="400" font-style="normal" 
clip-path="url(#clip291)" >
<defs><clipPath id="clip291"><path vector-effect="none" fill-rule="evenodd" d="M-3,-43 L127,-43 L127,13 L-3,13 L-3,-43z "/>
</clipPath></defs></g>

<g fill="none" stroke="#000000" stroke-opacity="1" stroke-width="1" stroke-linecap="square" stroke-linejoin="bevel" transform="matrix(1.38889,0,0,1.38889,186.111,41.6667)"
font-family="FreeSans" font-size="11.1628" font-weight="400" font-style="normal" 
clip-path="url(#clip292)" >
<defs><clipPath id="clip292"><path vector-effect="none" fill-rule="evenodd" d="M-127,-28 L3,-28 L3,28 L-127,28 L-127,-28z "/>
</clipPath></defs></g>

<g fill="none" stroke="#000000" stroke-opacity="1" stroke-width="1" stroke-linecap="square" stroke-linejoin="bevel" transform="matrix(1.24421,0,0,1.24421,186.111,41.6667)"
font-family="FreeSans" font-size="11.1628" font-weight="400" font-style="normal" 
clip-path="url(#clip293)" >
<defs><clipPath id="clip293"><path vector-effect="none" fill-rule="evenodd" d="M-142,-31 L3,-31 L3,32 L-142,32 L-142,-31z "/>
</clipPath></defs><text textLength="8" fill="#000000" fill-opacity="1" stroke="none" xml:space="preserve" x="-7.54688" y="3.35938" font-family="FreeSans" font-size="11.1628" font-weight="400" font-style="normal" 
 >Y</text>
</g>

<g fill="none" stroke="#000000" stroke-opacity="1" stroke-width="1" stroke-linecap="square" stroke-linejoin="bevel" transform="matrix(1.38889,0,0,1.38889,186.111,41.6667)"
font-family="FreeSans" font-size="11.1628" font-weight="400" font-style="normal" 
clip-path="url(#clip294)" >
<defs><clipPath id="clip294"><path vector-effect="none" fill-rule="evenodd" d="M-127,-28 L3,-28 L3,28 L-127,28 L-127,-28z "/>
</clipPath></defs></g>

<g fill="none" stroke="#000000" stroke-opacity="1" stroke-width="1" stroke-linecap="square" stroke-linejoin="bevel" transform="matrix(1.56863,0,0,1.55039,186.111,41.6667)"
font-family="FreeSans" font-size="11.1628" font-weight="400" font-style="normal" 
clip-path="url(#clip295)" >
<defs><clipPath id="clip295"><path vector-effect="none" fill-rule="evenodd" d="M-7,-2 L137,-2 L137,58 L-7,58 L-7,-2z "/>
</clipPath></defs></g>

<g fill="none" stroke="#000000" stroke-opacity="1" stroke-width="1" stroke-linecap="square" stroke-linejoin="bevel" transform="matrix(1,0,0,1,0,0)"
font-family="FreeSans" font-size="11.1628" font-weight="400" font-style="normal" 
clip-path="url(#clip295)" >
</g>

<g fill="none" stroke="#000000" stroke-opacity="1" stroke-width="1" stroke-linecap="square" stroke-linejoin="bevel" transform="matrix(1.38889,0,0,1.38889,9.72222,2.77778)"
font-family="Helvetica" font-size="16" font-weight="400" font-style="normal" 
clip-path="url(#clip295)" >
</g>

<g fill="none" stroke="#000000" stroke-opacity="1" stroke-width="1" stroke-linecap="square" stroke-linejoin="bevel" transform="matrix(1.38889,0,0,1.38889,9.72222,2.77778)"
font-family="Helvetica" font-size="16" font-weight="400" font-style="normal" 
clip-path="url(#clip295)" >
</g>

<g fill="none" stroke="#000000" stroke-opacity="1" stroke-width="0.876866" stroke-linecap="butt" stroke-linejoin="miter" stroke-miterlimit="2" transform="matrix(1.38889,0,0,1.38889,9.72222,2.77778)"
font-family="Helvetica" font-size="16" font-weight="400" font-style="normal" 
clip-path="url(#clip295)" >
<path vector-effect="none" fill-rule="evenodd" d="M0,0 L130,0 L130,56 L0,56 L0,0z "/>
</g>

<g fill="none" stroke="#000000" stroke-opacity="1" stroke-width="1" stroke-linecap="square" stroke-linejoin="bevel" transform="matrix(1.38889,0,0,1.38889,9.72222,2.77778)"
font-family="Helvetica" font-size="16" font-weight="400" font-style="normal" 
clip-path="url(#clip295)" >
</g>

<g fill="none" stroke="#000000" stroke-opacity="1" stroke-width="1" stroke-linecap="square" stroke-linejoin="bevel" transform="matrix(1.38889,0,0,1.38889,100,83.3333)"
font-family="Helvetica" font-size="16" font-weight="400" font-style="normal" 
clip-path="url(#clip296)" >
<defs><clipPath id="clip296"><path vector-effect="non-scaling-stroke" fill-rule="evenodd" d="M-72,-60 L72,-60 L72,-1.42109e-14 L-72,-1.42109e-14 L-72,-60z "/>
</clipPath></defs></g>

<g fill="none" stroke="#000000" stroke-opacity="1" stroke-width="1" stroke-linecap="square" stroke-linejoin="bevel" transform="matrix(1.38889,0,0,1.38889,100,83.3333)"
font-family="Helvetica" font-size="16" font-weight="400" font-style="normal" 
clip-path="url(#clip296)" >
</g>

<g fill="none" stroke="#000000" stroke-opacity="1" stroke-width="1" stroke-linecap="square" stroke-linejoin="bevel" transform="matrix(1,0,0,1,0,0)"
font-family="Helvetica" font-size="16" font-weight="400" font-style="normal" 
>
</g>

<g fill="none" stroke="#000000" stroke-opacity="1" stroke-width="1" stroke-linecap="square" stroke-linejoin="bevel" transform="matrix(1,0,0,1,0,0)"
font-family="Helvetica" font-size="16" font-weight="400" font-style="normal" 
>
</g>

<g fill="none" stroke="#000000" stroke-opacity="1" stroke-width="1" stroke-linecap="square" stroke-linejoin="bevel" transform="matrix(1,0,0,1,0,0)"
font-family="Helvetica" font-size="16" font-weight="400" font-style="normal" 
clip-path="url(#clip297)" >
<defs><clipPath id="clip297"><path vector-effect="non-scaling-stroke" fill-rule="evenodd" d="M0,0 L200,0 L200,83 L0,83 L0,0z "/>
</clipPath></defs></g>

<g fill="none" stroke="#000000" stroke-opacity="1" stroke-width="1" stroke-linecap="square" stroke-linejoin="bevel" transform="matrix(1,0,0,1,0,0)"
font-family="Helvetica" font-size="16" font-weight="400" font-style="normal" 
>
</g>

<g fill="none" stroke="#000000" stroke-opacity="1" stroke-width="1" stroke-linecap="square" stroke-linejoin="bevel" transform="matrix(1,0,0,1,0,0)"
font-family="Helvetica" font-size="16" font-weight="400" font-style="normal" 
>
</g>

<g fill="none" stroke="#000000" stroke-opacity="1" stroke-width="1" stroke-linecap="square" stroke-linejoin="bevel" transform="matrix(1,0,0,1,0,0)"
font-family="Helvetica" font-size="16" font-weight="400" font-style="normal" 
clip-path="url(#clip298)" >
<defs><clipPath id="clip298"><path vector-effect="non-scaling-stroke" fill-rule="evenodd" d="M0,0 L1,0 L1,1 L0,1 L0,0z "/>
</clipPath></defs></g>

<g fill="none" stroke="#000000" stroke-opacity="1" stroke-width="1" stroke-linecap="square" stroke-linejoin="bevel" transform="matrix(1,0,0,1,0,0)"
font-family="Helvetica" font-size="16" font-weight="400" font-style="normal" 
>
</g>

<g fill="none" stroke="#000000" stroke-opacity="1" stroke-width="1" stroke-linecap="square" stroke-linejoin="bevel" transform="matrix(1,0,0,1,0,0)"
font-family="Helvetica" font-size="16" font-weight="400" font-style="normal" 
>
</g>
</g>
</svg>
