<?xml version="1.0" encoding="UTF-8" standalone="no"?>
<svg width="67.7333mm" height="49.4453mm"
 viewBox="0 0 200 146"
 xmlns="http://www.w3.org/2000/svg" xmlns:xlink="http://www.w3.org/1999/xlink"  version="1.2" baseProfile="tiny">
<defs>
</defs>
<g fill="none" stroke="black" stroke-width="1" fill-rule="evenodd" stroke-linecap="square" stroke-linejoin="bevel" >

<g fill="#ffffff" fill-opacity="0" stroke="none" transform="matrix(1,0,0,1,0,0)"
font-family="Helvetica" font-size="12.5" font-weight="400" font-style="normal" 
>
<path vector-effect="non-scaling-stroke" fill-rule="evenodd" d="M0,0 L200,0 L200,146 L0,146 L0,0z "/>
</g>

<g fill="none" stroke="#000000" stroke-opacity="1" stroke-width="1" stroke-linecap="square" stroke-linejoin="bevel" transform="matrix(1,0,0,1,0,0)"
font-family="Helvetica" font-size="12.5" font-weight="400" font-style="normal" 
>
</g>

<g fill="none" stroke="#000000" stroke-opacity="1" stroke-width="1" stroke-linecap="square" stroke-linejoin="bevel" transform="matrix(1,0,0,1,0,0)"
font-family="Helvetica" font-size="12.5" font-weight="400" font-style="normal" 
clip-path="url(#clip1)" >
<defs><clipPath id="clip1"><path vector-effect="non-scaling-stroke" fill-rule="evenodd" d="M0,0 L200,0 L200,146.667 L0,146.667 L0,0z "/>
</clipPath></defs></g>

<g fill="none" stroke="#000000" stroke-opacity="1" stroke-width="1" stroke-linecap="square" stroke-linejoin="bevel" transform="matrix(-3.33333,0,0,3.33333,33.3333,60)"
font-family="Helvetica" font-size="12.5" font-weight="400" font-style="normal" 
clip-path="url(#clip2)" >
<defs><clipPath id="clip2"><path vector-effect="non-scaling-stroke" fill-rule="evenodd" d="M10,-18 L-50,-18 L-50,26 L10,26 L10,-18z "/>
</clipPath></defs></g>

<g fill="#000000" fill-opacity="1" stroke="#000000" stroke-opacity="1" stroke-width="1" stroke-linecap="square" stroke-linejoin="miter" stroke-miterlimit="2" transform="matrix(-3.33333,0,0,3.33333,33.3333,60)"
font-family="Helvetica" font-size="12.5" font-weight="400" font-style="normal" 
clip-path="url(#clip2)" >
</g>

<g fill="#000000" fill-opacity="1" stroke="#000000" stroke-opacity="1" stroke-width="1" stroke-linecap="square" stroke-linejoin="miter" stroke-miterlimit="2" transform="matrix(-3.33333,0,0,3.33333,33.3333,60)"
font-family="Helvetica" font-size="12.5" font-weight="400" font-style="normal" 
clip-path="url(#clip3)" >
<defs><clipPath id="clip3"><path vector-effect="non-scaling-stroke" fill-rule="evenodd" d="M0,0 L10,0 L10,10 L0,10 L0,0z "/>
</clipPath></defs></g>

<g fill="#000000" fill-opacity="1" stroke="#000000" stroke-opacity="1" stroke-width="1" stroke-linecap="square" stroke-linejoin="miter" stroke-miterlimit="2" transform="matrix(-3.33333,0,0,3.33333,33.3333,60)"
font-family="Helvetica" font-size="12.5" font-weight="400" font-style="normal" 
clip-path="url(#clip3)" >
</g>

<g fill="#000000" fill-opacity="1" stroke="#000000" stroke-opacity="1" stroke-width="1" stroke-linecap="square" stroke-linejoin="miter" stroke-miterlimit="2" transform="matrix(-3.33333,0,0,3.33333,33.3333,60)"
font-family="Helvetica" font-size="12.5" font-weight="400" font-style="normal" 
clip-path="url(#clip3)" >
</g>

<g fill="#000000" fill-opacity="1" stroke="#000000" stroke-opacity="1" stroke-width="1" stroke-linecap="square" stroke-linejoin="miter" stroke-miterlimit="2" transform="matrix(1,0,0,1,0,0)"
font-family="Helvetica" font-size="12.5" font-weight="400" font-style="normal" 
clip-path="url(#clip3)" >
</g>

<g fill="#000000" fill-opacity="1" stroke="#000000" stroke-opacity="1" stroke-width="1" stroke-linecap="square" stroke-linejoin="miter" stroke-miterlimit="2" transform="matrix(-3.33333,0,0,3.33333,33.3333,60)"
font-family="Helvetica" font-size="12.5" font-weight="400" font-style="normal" 
clip-path="url(#clip3)" >
</g>

<g fill="#000000" fill-opacity="1" stroke="#000000" stroke-opacity="1" stroke-width="1" stroke-linecap="square" stroke-linejoin="miter" stroke-miterlimit="2" transform="matrix(-3.33333,0,0,3.33333,33.3333,60)"
font-family="Helvetica" font-size="12.5" font-weight="400" font-style="normal" 
clip-path="url(#clip3)" >
</g>

<g fill="#000000" fill-opacity="1" stroke="#000000" stroke-opacity="1" stroke-width="1" stroke-linecap="square" stroke-linejoin="miter" stroke-miterlimit="2" transform="matrix(-3.33333,0,0,3.33333,33.3333,60)"
font-family="Helvetica" font-size="12.5" font-weight="400" font-style="normal" 
clip-path="url(#clip3)" >
</g>

<g fill="#000000" fill-opacity="1" stroke="#000000" stroke-opacity="1" stroke-width="1" stroke-linecap="square" stroke-linejoin="miter" stroke-miterlimit="2" transform="matrix(-3.33333,0,0,3.33333,33.3333,60)"
font-family="Helvetica" font-size="12.5" font-weight="400" font-style="normal" 
clip-path="url(#clip3)" >
</g>

<g fill="#000000" fill-opacity="1" stroke="#000000" stroke-opacity="1" stroke-width="1" stroke-linecap="square" stroke-linejoin="miter" stroke-miterlimit="2" transform="matrix(1,0,0,1,0,0)"
font-family="Helvetica" font-size="12.5" font-weight="400" font-style="normal" 
clip-path="url(#clip3)" >
</g>

<g fill="#000000" fill-opacity="1" stroke="#000000" stroke-opacity="1" stroke-width="1" stroke-linecap="square" stroke-linejoin="miter" stroke-miterlimit="2" transform="matrix(-3.33333,0,0,3.33333,33.3333,60)"
font-family="Helvetica" font-size="12.5" font-weight="400" font-style="normal" 
clip-path="url(#clip3)" >
</g>

<g fill="#000000" fill-opacity="1" stroke="#000000" stroke-opacity="1" stroke-width="1" stroke-linecap="square" stroke-linejoin="miter" stroke-miterlimit="2" transform="matrix(-3.33333,0,0,3.33333,33.3333,60)"
font-family="Helvetica" font-size="12.5" font-weight="400" font-style="normal" 
clip-path="url(#clip3)" >
</g>

<g fill="#000000" fill-opacity="1" stroke="#000000" stroke-opacity="1" stroke-width="1" stroke-linecap="square" stroke-linejoin="miter" stroke-miterlimit="2" transform="matrix(-3.33333,0,0,3.33333,33.3333,60)"
font-family="Helvetica" font-size="12.5" font-weight="400" font-style="normal" 
clip-path="url(#clip3)" >
</g>

<g fill="#b3b3b3" fill-opacity="1" stroke="none" transform="matrix(-3.33333,0,0,3.33333,33.3333,60)"
font-family="Helvetica" font-size="12.5" font-weight="400" font-style="normal" 
clip-path="url(#clip3)" >
<path vector-effect="non-scaling-stroke" fill-rule="evenodd" d="M0.5,3.5 L3.5,3.5 L3.5,6.5 L0.5,6.5 L0.5,3.5z "/>
</g>

<g fill="#000000" fill-opacity="1" stroke="#000000" stroke-opacity="1" stroke-width="1" stroke-linecap="square" stroke-linejoin="miter" stroke-miterlimit="2" transform="matrix(-3.33333,0,0,3.33333,33.3333,60)"
font-family="Helvetica" font-size="12.5" font-weight="400" font-style="normal" 
clip-path="url(#clip3)" >
</g>

<g fill="#000000" fill-opacity="1" stroke="none" transform="matrix(-3.33333,0,0,3.33333,33.3333,60)"
font-family="Helvetica" font-size="12.5" font-weight="400" font-style="normal" 
clip-path="url(#clip3)" >
<path vector-effect="non-scaling-stroke" fill-rule="nonzero" d="M3,4 L3,6 L1,6 L1,4 L3,4 M4,3 L0,3 L0,7 L4,7 L4,3"/>
</g>

<g fill="#000000" fill-opacity="1" stroke="#000000" stroke-opacity="1" stroke-width="1" stroke-linecap="square" stroke-linejoin="miter" stroke-miterlimit="2" transform="matrix(-3.33333,0,0,3.33333,33.3333,60)"
font-family="Helvetica" font-size="12.5" font-weight="400" font-style="normal" 
clip-path="url(#clip3)" >
</g>

<g fill="#000000" fill-opacity="1" stroke="#000000" stroke-opacity="1" stroke-width="1" stroke-linecap="square" stroke-linejoin="miter" stroke-miterlimit="2" transform="matrix(-3.33333,0,0,3.33333,33.3333,60)"
font-family="Helvetica" font-size="12.5" font-weight="400" font-style="normal" 
clip-path="url(#clip3)" >
</g>

<g fill="#000000" fill-opacity="1" stroke="#000000" stroke-opacity="1" stroke-width="1" stroke-linecap="square" stroke-linejoin="miter" stroke-miterlimit="2" transform="matrix(1,0,0,1,0,0)"
font-family="Helvetica" font-size="12.5" font-weight="400" font-style="normal" 
clip-path="url(#clip3)" >
</g>

<g fill="#000000" fill-opacity="1" stroke="#000000" stroke-opacity="1" stroke-width="1" stroke-linecap="square" stroke-linejoin="miter" stroke-miterlimit="2" transform="matrix(-3.33333,0,0,3.33333,33.3333,60)"
font-family="Helvetica" font-size="12.5" font-weight="400" font-style="normal" 
clip-path="url(#clip3)" >
</g>

<g fill="#000000" fill-opacity="1" stroke="#000000" stroke-opacity="1" stroke-width="1" stroke-linecap="square" stroke-linejoin="miter" stroke-miterlimit="2" transform="matrix(-3.33333,0,0,3.33333,33.3333,60)"
font-family="Helvetica" font-size="12.5" font-weight="400" font-style="normal" 
clip-path="url(#clip3)" >
</g>

<g fill="#000000" fill-opacity="1" stroke="#000000" stroke-opacity="1" stroke-width="1" stroke-linecap="square" stroke-linejoin="miter" stroke-miterlimit="2" transform="matrix(-3.33333,0,0,3.33333,33.3333,60)"
font-family="Helvetica" font-size="12.5" font-weight="400" font-style="normal" 
clip-path="url(#clip3)" >
</g>

<g fill="#000000" fill-opacity="1" stroke="#000000" stroke-opacity="1" stroke-width="1" stroke-linecap="square" stroke-linejoin="miter" stroke-miterlimit="2" transform="matrix(-3.33333,0,0,3.33333,33.3333,60)"
font-family="Helvetica" font-size="12.5" font-weight="400" font-style="normal" 
clip-path="url(#clip3)" >
</g>

<g fill="#000000" fill-opacity="1" stroke="#000000" stroke-opacity="1" stroke-width="1" stroke-linecap="square" stroke-linejoin="miter" stroke-miterlimit="2" transform="matrix(1,0,0,1,0,0)"
font-family="Helvetica" font-size="12.5" font-weight="400" font-style="normal" 
clip-path="url(#clip3)" >
</g>

<g fill="#000000" fill-opacity="1" stroke="#000000" stroke-opacity="1" stroke-width="1" stroke-linecap="square" stroke-linejoin="miter" stroke-miterlimit="2" transform="matrix(-3.33333,0,0,3.33333,33.3333,60)"
font-family="Helvetica" font-size="12.5" font-weight="400" font-style="normal" 
clip-path="url(#clip3)" >
</g>

<g fill="#000000" fill-opacity="1" stroke="#000000" stroke-opacity="1" stroke-width="1" stroke-linecap="square" stroke-linejoin="miter" stroke-miterlimit="2" transform="matrix(-3.33333,0,0,3.33333,33.3333,60)"
font-family="Helvetica" font-size="12.5" font-weight="400" font-style="normal" 
clip-path="url(#clip3)" >
</g>

<g fill="#000000" fill-opacity="1" stroke="#000000" stroke-opacity="1" stroke-width="1" stroke-linecap="square" stroke-linejoin="miter" stroke-miterlimit="2" transform="matrix(-3.33333,0,0,3.33333,33.3333,60)"
font-family="Helvetica" font-size="12.5" font-weight="400" font-style="normal" 
clip-path="url(#clip3)" >
</g>

<g fill="#000000" fill-opacity="1" stroke="#000000" stroke-opacity="1" stroke-width="1" stroke-linecap="square" stroke-linejoin="miter" stroke-miterlimit="2" transform="matrix(-3.33333,0,0,3.33333,33.3333,60)"
font-family="Helvetica" font-size="12.5" font-weight="400" font-style="normal" 
clip-path="url(#clip3)" >
</g>

<g fill="#000000" fill-opacity="1" stroke="#000000" stroke-opacity="1" stroke-width="1" stroke-linecap="square" stroke-linejoin="miter" stroke-miterlimit="2" transform="matrix(1,0,0,1,0,0)"
font-family="Helvetica" font-size="12.5" font-weight="400" font-style="normal" 
clip-path="url(#clip3)" >
</g>

<g fill="#000000" fill-opacity="1" stroke="#000000" stroke-opacity="1" stroke-width="1" stroke-linecap="square" stroke-linejoin="miter" stroke-miterlimit="2" transform="matrix(-3.33333,0,0,3.33333,33.3333,60)"
font-family="Helvetica" font-size="12.5" font-weight="400" font-style="normal" 
clip-path="url(#clip3)" >
</g>

<g fill="#000000" fill-opacity="1" stroke="#000000" stroke-opacity="1" stroke-width="1" stroke-linecap="square" stroke-linejoin="miter" stroke-miterlimit="2" transform="matrix(-3.33333,0,0,3.33333,33.3333,60)"
font-family="Helvetica" font-size="12.5" font-weight="400" font-style="normal" 
clip-path="url(#clip3)" >
</g>

<g fill="#000000" fill-opacity="1" stroke="#000000" stroke-opacity="1" stroke-width="1" stroke-linecap="square" stroke-linejoin="miter" stroke-miterlimit="2" transform="matrix(-3.33333,0,0,3.33333,33.3333,60)"
font-family="Helvetica" font-size="12.5" font-weight="400" font-style="normal" 
clip-path="url(#clip4)" >
<defs><clipPath id="clip4"><path vector-effect="non-scaling-stroke" fill-rule="evenodd" d="M10,-18 L-50,-18 L-50,26 L10,26 L10,-18z "/>
</clipPath></defs></g>

<g fill="#000000" fill-opacity="1" stroke="#000000" stroke-opacity="1" stroke-width="1" stroke-linecap="square" stroke-linejoin="miter" stroke-miterlimit="2" transform="matrix(1,0,0,1,0,0)"
font-family="Helvetica" font-size="12.5" font-weight="400" font-style="normal" 
clip-path="url(#clip4)" >
</g>

<g fill="#000000" fill-opacity="1" stroke="#000000" stroke-opacity="1" stroke-width="1" stroke-linecap="square" stroke-linejoin="miter" stroke-miterlimit="2" transform="matrix(-3.33333,0,0,3.33333,33.3333,60)"
font-family="Helvetica" font-size="12.5" font-weight="400" font-style="normal" 
clip-path="url(#clip4)" >
</g>

<g fill="none" stroke="#000000" stroke-opacity="1" stroke-width="1" stroke-linecap="square" stroke-linejoin="bevel" transform="matrix(-3.33333,0,0,3.33333,33.3333,60)"
font-family="Helvetica" font-size="12.5" font-weight="400" font-style="normal" 
clip-path="url(#clip4)" >
</g>

<g fill="none" stroke="#000000" stroke-opacity="1" stroke-width="1" stroke-linecap="square" stroke-linejoin="bevel" transform="matrix(-3.33333,0,0,3.33333,33.3333,60)"
font-family="Helvetica" font-size="12.5" font-weight="400" font-style="normal" 
clip-path="url(#clip4)" >
</g>

<g fill="none" stroke="#000000" stroke-opacity="1" stroke-width="1" stroke-linecap="square" stroke-linejoin="bevel" transform="matrix(3.33333,0,0,3.33333,166.667,60)"
font-family="Helvetica" font-size="12.5" font-weight="400" font-style="normal" 
clip-path="url(#clip5)" >
<defs><clipPath id="clip5"><path vector-effect="non-scaling-stroke" fill-rule="evenodd" d="M-50,-18 L10,-18 L10,26 L-50,26 L-50,-18z "/>
</clipPath></defs></g>

<g fill="#000000" fill-opacity="1" stroke="#000000" stroke-opacity="1" stroke-width="1" stroke-linecap="square" stroke-linejoin="miter" stroke-miterlimit="2" transform="matrix(3.33333,0,0,3.33333,166.667,60)"
font-family="Helvetica" font-size="12.5" font-weight="400" font-style="normal" 
clip-path="url(#clip5)" >
</g>

<g fill="#000000" fill-opacity="1" stroke="#000000" stroke-opacity="1" stroke-width="1" stroke-linecap="square" stroke-linejoin="miter" stroke-miterlimit="2" transform="matrix(3.33333,0,0,3.33333,166.667,60)"
font-family="Helvetica" font-size="12.5" font-weight="400" font-style="normal" 
clip-path="url(#clip6)" >
<defs><clipPath id="clip6"><path vector-effect="non-scaling-stroke" fill-rule="evenodd" d="M0,0 L10,0 L10,10 L0,10 L0,0z "/>
</clipPath></defs></g>

<g fill="#000000" fill-opacity="1" stroke="#000000" stroke-opacity="1" stroke-width="1" stroke-linecap="square" stroke-linejoin="miter" stroke-miterlimit="2" transform="matrix(3.33333,0,0,3.33333,166.667,60)"
font-family="Helvetica" font-size="12.5" font-weight="400" font-style="normal" 
clip-path="url(#clip6)" >
</g>

<g fill="#000000" fill-opacity="1" stroke="#000000" stroke-opacity="1" stroke-width="1" stroke-linecap="square" stroke-linejoin="miter" stroke-miterlimit="2" transform="matrix(3.33333,0,0,3.33333,166.667,60)"
font-family="Helvetica" font-size="12.5" font-weight="400" font-style="normal" 
clip-path="url(#clip6)" >
</g>

<g fill="#000000" fill-opacity="1" stroke="#000000" stroke-opacity="1" stroke-width="1" stroke-linecap="square" stroke-linejoin="miter" stroke-miterlimit="2" transform="matrix(1,0,0,1,0,0)"
font-family="Helvetica" font-size="12.5" font-weight="400" font-style="normal" 
clip-path="url(#clip6)" >
</g>

<g fill="#000000" fill-opacity="1" stroke="#000000" stroke-opacity="1" stroke-width="1" stroke-linecap="square" stroke-linejoin="miter" stroke-miterlimit="2" transform="matrix(3.33333,0,0,3.33333,166.667,60)"
font-family="Helvetica" font-size="12.5" font-weight="400" font-style="normal" 
clip-path="url(#clip6)" >
</g>

<g fill="#000000" fill-opacity="1" stroke="#000000" stroke-opacity="1" stroke-width="1" stroke-linecap="square" stroke-linejoin="miter" stroke-miterlimit="2" transform="matrix(3.33333,0,0,3.33333,166.667,60)"
font-family="Helvetica" font-size="12.5" font-weight="400" font-style="normal" 
clip-path="url(#clip6)" >
</g>

<g fill="#000000" fill-opacity="1" stroke="#000000" stroke-opacity="1" stroke-width="1" stroke-linecap="square" stroke-linejoin="miter" stroke-miterlimit="2" transform="matrix(3.33333,0,0,3.33333,166.667,60)"
font-family="Helvetica" font-size="12.5" font-weight="400" font-style="normal" 
clip-path="url(#clip6)" >
</g>

<g fill="#000000" fill-opacity="1" stroke="#000000" stroke-opacity="1" stroke-width="1" stroke-linecap="square" stroke-linejoin="miter" stroke-miterlimit="2" transform="matrix(3.33333,0,0,3.33333,166.667,60)"
font-family="Helvetica" font-size="12.5" font-weight="400" font-style="normal" 
clip-path="url(#clip6)" >
</g>

<g fill="#000000" fill-opacity="1" stroke="#000000" stroke-opacity="1" stroke-width="1" stroke-linecap="square" stroke-linejoin="miter" stroke-miterlimit="2" transform="matrix(1,0,0,1,0,0)"
font-family="Helvetica" font-size="12.5" font-weight="400" font-style="normal" 
clip-path="url(#clip6)" >
</g>

<g fill="#000000" fill-opacity="1" stroke="#000000" stroke-opacity="1" stroke-width="1" stroke-linecap="square" stroke-linejoin="miter" stroke-miterlimit="2" transform="matrix(3.33333,0,0,3.33333,166.667,60)"
font-family="Helvetica" font-size="12.5" font-weight="400" font-style="normal" 
clip-path="url(#clip6)" >
</g>

<g fill="#000000" fill-opacity="1" stroke="#000000" stroke-opacity="1" stroke-width="1" stroke-linecap="square" stroke-linejoin="miter" stroke-miterlimit="2" transform="matrix(3.33333,0,0,3.33333,166.667,60)"
font-family="Helvetica" font-size="12.5" font-weight="400" font-style="normal" 
clip-path="url(#clip6)" >
</g>

<g fill="#000000" fill-opacity="1" stroke="#000000" stroke-opacity="1" stroke-width="1" stroke-linecap="square" stroke-linejoin="miter" stroke-miterlimit="2" transform="matrix(3.33333,0,0,3.33333,166.667,60)"
font-family="Helvetica" font-size="12.5" font-weight="400" font-style="normal" 
clip-path="url(#clip6)" >
</g>

<g fill="#b3b3b3" fill-opacity="1" stroke="none" transform="matrix(3.33333,0,0,3.33333,166.667,60)"
font-family="Helvetica" font-size="12.5" font-weight="400" font-style="normal" 
clip-path="url(#clip6)" >
<path vector-effect="non-scaling-stroke" fill-rule="evenodd" d="M0.5,3.5 L3.5,3.5 L3.5,6.5 L0.5,6.5 L0.5,3.5z "/>
</g>

<g fill="#000000" fill-opacity="1" stroke="#000000" stroke-opacity="1" stroke-width="1" stroke-linecap="square" stroke-linejoin="miter" stroke-miterlimit="2" transform="matrix(3.33333,0,0,3.33333,166.667,60)"
font-family="Helvetica" font-size="12.5" font-weight="400" font-style="normal" 
clip-path="url(#clip6)" >
</g>

<g fill="#000000" fill-opacity="1" stroke="none" transform="matrix(3.33333,0,0,3.33333,166.667,60)"
font-family="Helvetica" font-size="12.5" font-weight="400" font-style="normal" 
clip-path="url(#clip6)" >
<path vector-effect="non-scaling-stroke" fill-rule="nonzero" d="M3,4 L3,6 L1,6 L1,4 L3,4 M4,3 L0,3 L0,7 L4,7 L4,3"/>
</g>

<g fill="#000000" fill-opacity="1" stroke="#000000" stroke-opacity="1" stroke-width="1" stroke-linecap="square" stroke-linejoin="miter" stroke-miterlimit="2" transform="matrix(3.33333,0,0,3.33333,166.667,60)"
font-family="Helvetica" font-size="12.5" font-weight="400" font-style="normal" 
clip-path="url(#clip6)" >
</g>

<g fill="#000000" fill-opacity="1" stroke="#000000" stroke-opacity="1" stroke-width="1" stroke-linecap="square" stroke-linejoin="miter" stroke-miterlimit="2" transform="matrix(3.33333,0,0,3.33333,166.667,60)"
font-family="Helvetica" font-size="12.5" font-weight="400" font-style="normal" 
clip-path="url(#clip6)" >
</g>

<g fill="#000000" fill-opacity="1" stroke="#000000" stroke-opacity="1" stroke-width="1" stroke-linecap="square" stroke-linejoin="miter" stroke-miterlimit="2" transform="matrix(1,0,0,1,0,0)"
font-family="Helvetica" font-size="12.5" font-weight="400" font-style="normal" 
clip-path="url(#clip6)" >
</g>

<g fill="#000000" fill-opacity="1" stroke="#000000" stroke-opacity="1" stroke-width="1" stroke-linecap="square" stroke-linejoin="miter" stroke-miterlimit="2" transform="matrix(3.33333,0,0,3.33333,166.667,60)"
font-family="Helvetica" font-size="12.5" font-weight="400" font-style="normal" 
clip-path="url(#clip6)" >
</g>

<g fill="#000000" fill-opacity="1" stroke="#000000" stroke-opacity="1" stroke-width="1" stroke-linecap="square" stroke-linejoin="miter" stroke-miterlimit="2" transform="matrix(3.33333,0,0,3.33333,166.667,60)"
font-family="Helvetica" font-size="12.5" font-weight="400" font-style="normal" 
clip-path="url(#clip6)" >
</g>

<g fill="#000000" fill-opacity="1" stroke="#000000" stroke-opacity="1" stroke-width="1" stroke-linecap="square" stroke-linejoin="miter" stroke-miterlimit="2" transform="matrix(3.33333,0,0,3.33333,166.667,60)"
font-family="Helvetica" font-size="12.5" font-weight="400" font-style="normal" 
clip-path="url(#clip6)" >
</g>

<g fill="#000000" fill-opacity="1" stroke="#000000" stroke-opacity="1" stroke-width="1" stroke-linecap="square" stroke-linejoin="miter" stroke-miterlimit="2" transform="matrix(3.33333,0,0,3.33333,166.667,60)"
font-family="Helvetica" font-size="12.5" font-weight="400" font-style="normal" 
clip-path="url(#clip6)" >
</g>

<g fill="#000000" fill-opacity="1" stroke="#000000" stroke-opacity="1" stroke-width="1" stroke-linecap="square" stroke-linejoin="miter" stroke-miterlimit="2" transform="matrix(1,0,0,1,0,0)"
font-family="Helvetica" font-size="12.5" font-weight="400" font-style="normal" 
clip-path="url(#clip6)" >
</g>

<g fill="#000000" fill-opacity="1" stroke="#000000" stroke-opacity="1" stroke-width="1" stroke-linecap="square" stroke-linejoin="miter" stroke-miterlimit="2" transform="matrix(3.33333,0,0,3.33333,166.667,60)"
font-family="Helvetica" font-size="12.5" font-weight="400" font-style="normal" 
clip-path="url(#clip6)" >
</g>

<g fill="#000000" fill-opacity="1" stroke="#000000" stroke-opacity="1" stroke-width="1" stroke-linecap="square" stroke-linejoin="miter" stroke-miterlimit="2" transform="matrix(3.33333,0,0,3.33333,166.667,60)"
font-family="Helvetica" font-size="12.5" font-weight="400" font-style="normal" 
clip-path="url(#clip6)" >
</g>

<g fill="#000000" fill-opacity="1" stroke="#000000" stroke-opacity="1" stroke-width="1" stroke-linecap="square" stroke-linejoin="miter" stroke-miterlimit="2" transform="matrix(3.33333,0,0,3.33333,166.667,60)"
font-family="Helvetica" font-size="12.5" font-weight="400" font-style="normal" 
clip-path="url(#clip6)" >
</g>

<g fill="#000000" fill-opacity="1" stroke="#000000" stroke-opacity="1" stroke-width="1" stroke-linecap="square" stroke-linejoin="miter" stroke-miterlimit="2" transform="matrix(3.33333,0,0,3.33333,166.667,60)"
font-family="Helvetica" font-size="12.5" font-weight="400" font-style="normal" 
clip-path="url(#clip6)" >
</g>

<g fill="#000000" fill-opacity="1" stroke="#000000" stroke-opacity="1" stroke-width="1" stroke-linecap="square" stroke-linejoin="miter" stroke-miterlimit="2" transform="matrix(1,0,0,1,0,0)"
font-family="Helvetica" font-size="12.5" font-weight="400" font-style="normal" 
clip-path="url(#clip6)" >
</g>

<g fill="#000000" fill-opacity="1" stroke="#000000" stroke-opacity="1" stroke-width="1" stroke-linecap="square" stroke-linejoin="miter" stroke-miterlimit="2" transform="matrix(3.33333,0,0,3.33333,166.667,60)"
font-family="Helvetica" font-size="12.5" font-weight="400" font-style="normal" 
clip-path="url(#clip6)" >
</g>

<g fill="#000000" fill-opacity="1" stroke="#000000" stroke-opacity="1" stroke-width="1" stroke-linecap="square" stroke-linejoin="miter" stroke-miterlimit="2" transform="matrix(3.33333,0,0,3.33333,166.667,60)"
font-family="Helvetica" font-size="12.5" font-weight="400" font-style="normal" 
clip-path="url(#clip6)" >
</g>

<g fill="#000000" fill-opacity="1" stroke="#000000" stroke-opacity="1" stroke-width="1" stroke-linecap="square" stroke-linejoin="miter" stroke-miterlimit="2" transform="matrix(3.33333,0,0,3.33333,166.667,60)"
font-family="Helvetica" font-size="12.5" font-weight="400" font-style="normal" 
clip-path="url(#clip7)" >
<defs><clipPath id="clip7"><path vector-effect="non-scaling-stroke" fill-rule="evenodd" d="M-50,-18 L10,-18 L10,26 L-50,26 L-50,-18z "/>
</clipPath></defs></g>

<g fill="#000000" fill-opacity="1" stroke="#000000" stroke-opacity="1" stroke-width="1" stroke-linecap="square" stroke-linejoin="miter" stroke-miterlimit="2" transform="matrix(1,0,0,1,0,0)"
font-family="Helvetica" font-size="12.5" font-weight="400" font-style="normal" 
clip-path="url(#clip7)" >
</g>

<g fill="#000000" fill-opacity="1" stroke="#000000" stroke-opacity="1" stroke-width="1" stroke-linecap="square" stroke-linejoin="miter" stroke-miterlimit="2" transform="matrix(3.33333,0,0,3.33333,166.667,60)"
font-family="Helvetica" font-size="12.5" font-weight="400" font-style="normal" 
clip-path="url(#clip7)" >
</g>

<g fill="none" stroke="#000000" stroke-opacity="1" stroke-width="1" stroke-linecap="square" stroke-linejoin="bevel" transform="matrix(3.33333,0,0,3.33333,166.667,60)"
font-family="Helvetica" font-size="12.5" font-weight="400" font-style="normal" 
clip-path="url(#clip7)" >
</g>

<g fill="none" stroke="#000000" stroke-opacity="1" stroke-width="1" stroke-linecap="square" stroke-linejoin="bevel" transform="matrix(3.33333,0,0,3.33333,166.667,60)"
font-family="Helvetica" font-size="12.5" font-weight="400" font-style="normal" 
clip-path="url(#clip7)" >
</g>

<g fill="none" stroke="#000000" stroke-opacity="1" stroke-width="1" stroke-linecap="square" stroke-linejoin="bevel" transform="matrix(3.33333,0,0,3.33333,33.3333,6.66667)"
font-family="Helvetica" font-size="12.5" font-weight="400" font-style="normal" 
clip-path="url(#clip8)" >
<defs><clipPath id="clip8"><path vector-effect="non-scaling-stroke" fill-rule="evenodd" d="M-10,-2 L50,-2 L50,42 L-10,42 L-10,-2z "/>
</clipPath></defs></g>

<g fill="#ffffff" fill-opacity="1" stroke="none" transform="matrix(3.33333,0,0,3.33333,33.3333,6.66667)"
font-family="Helvetica" font-size="12.5" font-weight="400" font-style="normal" 
clip-path="url(#clip8)" >
<path vector-effect="none" fill-rule="evenodd" d="M0,0 L40,0 L40,40 L0,40 L0,0z "/>
</g>

<g fill="none" stroke="#000000" stroke-opacity="1" stroke-width="1" stroke-linecap="square" stroke-linejoin="bevel" transform="matrix(3.33333,0,0,3.33333,33.3333,6.66667)"
font-family="Helvetica" font-size="12.5" font-weight="400" font-style="normal" 
clip-path="url(#clip8)" >
</g>

<g fill="none" stroke="#000000" stroke-opacity="1" stroke-width="1" stroke-linecap="square" stroke-linejoin="bevel" transform="matrix(3.33333,0,0,3.33333,33.3333,6.66667)"
font-family="Helvetica" font-size="12.5" font-weight="400" font-style="normal" 
clip-path="url(#clip8)" >
</g>

<g fill="none" stroke="#000000" stroke-opacity="1" stroke-width="1" stroke-linecap="square" stroke-linejoin="bevel" transform="matrix(3.33333,0,0,3.33333,33.3333,6.66667)"
font-family="Helvetica" font-size="12.5" font-weight="400" font-style="normal" 
clip-path="url(#clip9)" >
<defs><clipPath id="clip9"><path vector-effect="non-scaling-stroke" fill-rule="evenodd" d="M0,0 L40,0 L40,40 L0,40 L0,0z "/>
</clipPath></defs></g>

<g fill="none" stroke="none" transform="matrix(3.33333,0,0,3.33333,33.3333,6.66667)"
font-family="Helvetica" font-size="12.5" font-weight="400" font-style="normal" 
clip-path="url(#clip9)" >
<path vector-effect="none" fill-rule="evenodd" d="M0,0 L40,0 L40,40 L0,40 L0,0z "/>
</g>

<g fill="none" stroke="none" transform="matrix(3.33333,0,0,3.33333,33.3333,6.66667)"
font-family="Helvetica" font-size="12.5" font-weight="400" font-style="normal" 
clip-path="url(#clip10)" >
<defs><clipPath id="clip10"><path vector-effect="none" fill-rule="evenodd" d="M-10,-2 L50,-2 L50,42 L-10,42 L-10,-2z "/>
</clipPath></defs></g>

<g fill="none" stroke="none" transform="matrix(1,0,0,1,0,0)"
font-family="Helvetica" font-size="12.5" font-weight="400" font-style="normal" 
clip-path="url(#clip10)" >
</g>

<g fill="none" stroke="#000000" stroke-opacity="1" stroke-width="1" stroke-linecap="square" stroke-linejoin="bevel" transform="matrix(3.33333,0,0,3.33333,33.3333,6.66667)"
font-family="Helvetica" font-size="12.5" font-weight="400" font-style="normal" 
clip-path="url(#clip10)" >
</g>

<g fill="none" stroke="#000000" stroke-opacity="1" stroke-width="1" stroke-linecap="square" stroke-linejoin="bevel" transform="matrix(3.33333,0,0,3.33333,33.3333,6.66667)"
font-family="Helvetica" font-size="12.5" font-weight="400" font-style="normal" 
clip-path="url(#clip11)" >
<defs><clipPath id="clip11"><path vector-effect="non-scaling-stroke" fill-rule="evenodd" d="M0,0 L40,0 L40,40 L0,40 L0,0z "/>
</clipPath></defs></g>

<g fill="none" stroke="#000000" stroke-opacity="1" stroke-width="1" stroke-linecap="square" stroke-linejoin="bevel" transform="matrix(3.33333,0,0,3.33333,30,3.33333)"
font-family="Helvetica" font-size="12.5" font-weight="400" font-style="normal" 
clip-path="url(#clip12)" >
<defs><clipPath id="clip12"><path vector-effect="non-scaling-stroke" fill-rule="evenodd" d="M1,1 L41,1 L41,41 L1,41 L1,1z "/>
</clipPath></defs></g>

<g fill="none" stroke="#000000" stroke-opacity="1" stroke-width="1" stroke-linecap="square" stroke-linejoin="bevel" transform="matrix(3.33333,0,0,3.33333,30,3.33333)"
font-family="Helvetica" font-size="12.5" font-weight="400" font-style="normal" 
clip-path="url(#clip12)" >
</g>

<g fill="none" stroke="#000000" stroke-opacity="1" stroke-width="1" stroke-linecap="square" stroke-linejoin="bevel" transform="matrix(3.33333,0,0,3.33333,30,3.33333)"
font-family="Helvetica" font-size="12.5" font-weight="400" font-style="normal" 
clip-path="url(#clip12)" >
</g>

<g fill="#000000" fill-opacity="1" stroke="#000000" stroke-opacity="1" stroke-width="1" stroke-linecap="square" stroke-linejoin="miter" stroke-miterlimit="2" transform="matrix(3.33333,0,0,3.33333,30,3.33333)"
font-family="Helvetica" font-size="12.5" font-weight="400" font-style="normal" 
clip-path="url(#clip12)" >
</g>

<g fill="#000000" fill-opacity="1" stroke="#000000" stroke-opacity="1" stroke-width="1" stroke-linecap="square" stroke-linejoin="miter" stroke-miterlimit="2" transform="matrix(3.33333,0,0,3.33333,30,3.33333)"
font-family="Helvetica" font-size="12.5" font-weight="400" font-style="normal" 
clip-path="url(#clip12)" >
</g>

<g fill="#000000" fill-opacity="1" stroke="#000000" stroke-opacity="1" stroke-width="1" stroke-linecap="square" stroke-linejoin="miter" stroke-miterlimit="2" transform="matrix(3.33333,0,0,3.33333,30,3.33333)"
font-family="Helvetica" font-size="12.5" font-weight="400" font-style="normal" 
>
</g>

<g fill="#000000" fill-opacity="1" stroke="#000000" stroke-opacity="1" stroke-width="1" stroke-linecap="square" stroke-linejoin="miter" stroke-miterlimit="2" transform="matrix(3.33333,0,0,3.33333,30,3.33333)"
font-family="Helvetica" font-size="12.5" font-weight="400" font-style="normal" 
clip-path="url(#clip12)" >
</g>

<g fill="#000000" fill-opacity="1" stroke="#000000" stroke-opacity="1" stroke-width="1" stroke-linecap="square" stroke-linejoin="miter" stroke-miterlimit="2" transform="matrix(3.33333,0,0,3.33333,30,3.33333)"
font-family="Helvetica" font-size="12.5" font-weight="400" font-style="normal" 
clip-path="url(#clip12)" >
</g>

<g fill="#000000" fill-opacity="1" stroke="#000000" stroke-opacity="1" stroke-width="1" stroke-linecap="square" stroke-linejoin="miter" stroke-miterlimit="2" transform="matrix(3.33333,0,0,3.33333,30,3.33333)"
font-family="Helvetica" font-size="12.5" font-weight="400" font-style="normal" 
clip-path="url(#clip12)" >
</g>

<g fill="#000000" fill-opacity="1" stroke="#000000" stroke-opacity="1" stroke-width="1" stroke-linecap="square" stroke-linejoin="miter" stroke-miterlimit="2" transform="matrix(3.33333,0,0,3.33333,30,3.33333)"
font-family="Helvetica" font-size="12.5" font-weight="400" font-style="normal" 
>
</g>

<g fill="#000000" fill-opacity="1" stroke="#000000" stroke-opacity="1" stroke-width="1" stroke-linecap="square" stroke-linejoin="miter" stroke-miterlimit="2" transform="matrix(3.33333,0,0,3.33333,30,3.33333)"
font-family="Helvetica" font-size="12.5" font-weight="400" font-style="normal" 
clip-path="url(#clip12)" >
</g>

<g fill="#000000" fill-opacity="1" stroke="#000000" stroke-opacity="1" stroke-width="1" stroke-linecap="square" stroke-linejoin="miter" stroke-miterlimit="2" transform="matrix(3.33333,0,0,3.33333,30,3.33333)"
font-family="Helvetica" font-size="12.5" font-weight="400" font-style="normal" 
clip-path="url(#clip12)" >
</g>

<g fill="#000000" fill-opacity="1" stroke="#000000" stroke-opacity="1" stroke-width="1" stroke-linecap="square" stroke-linejoin="miter" stroke-miterlimit="2" transform="matrix(3.33333,0,0,3.33333,30,3.33333)"
font-family="Helvetica" font-size="12.5" font-weight="400" font-style="normal" 
clip-path="url(#clip12)" >
</g>

<g fill="none" stroke="#000000" stroke-opacity="1" stroke-width="1" stroke-linecap="butt" stroke-linejoin="miter" stroke-miterlimit="20" transform="matrix(3.33333,0,0,3.33333,30,3.33333)"
font-family="Helvetica" font-size="12.5" font-weight="400" font-style="normal" 
clip-path="url(#clip12)" >
<path vector-effect="none" fill-rule="nonzero" d="M1.00001,21 L18.3334,21"/>
</g>

<g fill="none" stroke="#000000" stroke-opacity="1" stroke-width="1" stroke-linecap="butt" stroke-linejoin="miter" stroke-miterlimit="20" transform="matrix(3.33333,0,0,3.33333,30,3.33333)"
font-family="Helvetica" font-size="12.5" font-weight="400" font-style="normal" 
clip-path="url(#clip12)" >
<path vector-effect="none" fill-rule="nonzero" d="M23.6667,21 L41.0001,21"/>
</g>

<g fill="#000000" fill-opacity="1" stroke="none" transform="matrix(0.823047,0,0,0.823047,25.9259,-0.740733)"
font-family="Helvetica" font-size="12.5" font-weight="400" font-style="normal" 
clip-path="url(#clip13)" >
<defs><clipPath id="clip13"><path vector-effect="non-scaling-stroke" fill-rule="evenodd" d="M9,9 L171,9 L171,171 L9,171 L9,9z "/>
</clipPath></defs><path vector-effect="non-scaling-stroke" fill-rule="nonzero" d="M79.2,57.6 L84.6,57.6 L84.6,122.4 L79.2,122.4 L79.2,57.6z "/>
</g>

<g fill="none" stroke="#000000" stroke-opacity="1" stroke-width="1" stroke-linecap="butt" stroke-linejoin="miter" stroke-miterlimit="20" transform="matrix(3.33333,0,0,3.33333,30,3.33333)"
font-family="Helvetica" font-size="12.5" font-weight="400" font-style="normal" 
clip-path="url(#clip14)" >
<defs><clipPath id="clip14"><path vector-effect="none" fill-rule="evenodd" d="M1,1 L41,1 L41,41 L1,41 L1,1z "/>
</clipPath></defs><path vector-effect="none" fill-rule="nonzero" d="M18.3334,13 L19.6667,13 L19.6667,29.0001 L18.3334,29.0001 L18.3334,13z "/>
</g>

<g fill="#000000" fill-opacity="1" stroke="none" transform="matrix(0.823047,0,0,0.823047,25.9259,-0.740733)"
font-family="Helvetica" font-size="12.5" font-weight="400" font-style="normal" 
clip-path="url(#clip15)" >
<defs><clipPath id="clip15"><path vector-effect="non-scaling-stroke" fill-rule="evenodd" d="M9,9 L171,9 L171,171 L9,171 L9,9z "/>
</clipPath></defs><path vector-effect="non-scaling-stroke" fill-rule="nonzero" d="M95.4,57.6 L100.8,57.6 L100.8,122.4 L95.4,122.4 L95.4,57.6z "/>
</g>

<g fill="none" stroke="#000000" stroke-opacity="1" stroke-width="1" stroke-linecap="butt" stroke-linejoin="miter" stroke-miterlimit="20" transform="matrix(3.33333,0,0,3.33333,30,3.33333)"
font-family="Helvetica" font-size="12.5" font-weight="400" font-style="normal" 
clip-path="url(#clip16)" >
<defs><clipPath id="clip16"><path vector-effect="none" fill-rule="evenodd" d="M1,1 L41,1 L41,41 L1,41 L1,1z "/>
</clipPath></defs><path vector-effect="none" fill-rule="nonzero" d="M22.3334,13 L23.6667,13 L23.6667,29.0001 L22.3334,29.0001 L22.3334,13z "/>
</g>

<g fill="none" stroke="#ffffff" stroke-opacity="1" stroke-width="1" stroke-linecap="butt" stroke-linejoin="miter" stroke-miterlimit="20" transform="matrix(3.33333,0,0,3.33333,30,3.33333)"
font-family="Helvetica" font-size="12.5" font-weight="400" font-style="normal" 
clip-path="url(#clip16)" >
<path vector-effect="none" fill-rule="nonzero" d="M1.00001,1.00001 L41.0001,1.00001 L41.0001,41.0001 L1.00001,41.0001 L1.00001,1.00001z "/>
</g>

<g fill="#000000" fill-opacity="1" stroke="#000000" stroke-opacity="1" stroke-width="1" stroke-linecap="square" stroke-linejoin="miter" stroke-miterlimit="2" transform="matrix(3.33333,0,0,3.33333,30,3.33333)"
font-family="Helvetica" font-size="12.5" font-weight="400" font-style="normal" 
>
</g>

<g fill="#000000" fill-opacity="1" stroke="#000000" stroke-opacity="1" stroke-width="1" stroke-linecap="square" stroke-linejoin="miter" stroke-miterlimit="2" transform="matrix(3.33333,0,0,3.33333,30,3.33333)"
font-family="Helvetica" font-size="12.5" font-weight="400" font-style="normal" 
clip-path="url(#clip16)" >
</g>

<g fill="#000000" fill-opacity="1" stroke="#000000" stroke-opacity="1" stroke-width="1" stroke-linecap="square" stroke-linejoin="miter" stroke-miterlimit="2" transform="matrix(3.33333,0,0,3.33333,30,3.33333)"
font-family="Helvetica" font-size="12.5" font-weight="400" font-style="normal" 
clip-path="url(#clip16)" >
</g>

<g fill="#000000" fill-opacity="1" stroke="#000000" stroke-opacity="1" stroke-width="1" stroke-linecap="square" stroke-linejoin="miter" stroke-miterlimit="2" transform="matrix(3.33333,0,0,3.33333,30,3.33333)"
font-family="Helvetica" font-size="12.5" font-weight="400" font-style="normal" 
clip-path="url(#clip16)" >
</g>

<g fill="#000000" fill-opacity="1" stroke="#000000" stroke-opacity="1" stroke-width="1" stroke-linecap="square" stroke-linejoin="miter" stroke-miterlimit="2" transform="matrix(3.33333,0,0,3.33333,30,3.33333)"
font-family="Helvetica" font-size="12.5" font-weight="400" font-style="normal" 
>
</g>

<g fill="#000000" fill-opacity="1" stroke="#000000" stroke-opacity="1" stroke-width="1" stroke-linecap="square" stroke-linejoin="miter" stroke-miterlimit="2" transform="matrix(3.33333,0,0,3.33333,30,3.33333)"
font-family="Helvetica" font-size="12.5" font-weight="400" font-style="normal" 
clip-path="url(#clip16)" >
</g>

<g fill="#000000" fill-opacity="1" stroke="#000000" stroke-opacity="1" stroke-width="1" stroke-linecap="square" stroke-linejoin="miter" stroke-miterlimit="2" transform="matrix(3.33333,0,0,3.33333,30,3.33333)"
font-family="Helvetica" font-size="12.5" font-weight="400" font-style="normal" 
clip-path="url(#clip16)" >
</g>

<g fill="#000000" fill-opacity="1" stroke="#000000" stroke-opacity="1" stroke-width="1" stroke-linecap="square" stroke-linejoin="miter" stroke-miterlimit="2" transform="matrix(3.33333,0,0,3.33333,30,3.33333)"
font-family="Helvetica" font-size="12.5" font-weight="400" font-style="normal" 
clip-path="url(#clip16)" >
</g>

<g fill="#000000" fill-opacity="1" stroke="#000000" stroke-opacity="1" stroke-width="1" stroke-linecap="square" stroke-linejoin="miter" stroke-miterlimit="2" transform="matrix(3.33333,0,0,3.33333,30,3.33333)"
font-family="Helvetica" font-size="12.5" font-weight="400" font-style="normal" 
>
</g>

<g fill="#000000" fill-opacity="1" stroke="#000000" stroke-opacity="1" stroke-width="1" stroke-linecap="square" stroke-linejoin="miter" stroke-miterlimit="2" transform="matrix(3.33333,0,0,3.33333,30,3.33333)"
font-family="Helvetica" font-size="12.5" font-weight="400" font-style="normal" 
clip-path="url(#clip16)" >
</g>

<g fill="#000000" fill-opacity="1" stroke="#000000" stroke-opacity="1" stroke-width="1" stroke-linecap="square" stroke-linejoin="miter" stroke-miterlimit="2" transform="matrix(3.33333,0,0,3.33333,30,3.33333)"
font-family="Helvetica" font-size="12.5" font-weight="400" font-style="normal" 
clip-path="url(#clip16)" >
</g>

<g fill="#000000" fill-opacity="1" stroke="#000000" stroke-opacity="1" stroke-width="1" stroke-linecap="square" stroke-linejoin="miter" stroke-miterlimit="2" transform="matrix(3.33333,0,0,3.33333,30,3.33333)"
font-family="Helvetica" font-size="12.5" font-weight="400" font-style="normal" 
>
</g>

<g fill="#000000" fill-opacity="1" stroke="#000000" stroke-opacity="1" stroke-width="1" stroke-linecap="square" stroke-linejoin="miter" stroke-miterlimit="2" transform="matrix(3.33333,0,0,3.33333,30,3.33333)"
font-family="Helvetica" font-size="12.5" font-weight="400" font-style="normal" 
clip-path="url(#clip16)" >
</g>

<g fill="#000000" fill-opacity="1" stroke="#000000" stroke-opacity="1" stroke-width="1" stroke-linecap="square" stroke-linejoin="miter" stroke-miterlimit="2" transform="matrix(3.33333,0,0,3.33333,30,3.33333)"
font-family="Helvetica" font-size="12.5" font-weight="400" font-style="normal" 
clip-path="url(#clip16)" >
</g>

<g fill="#000000" fill-opacity="1" stroke="#000000" stroke-opacity="1" stroke-width="1" stroke-linecap="square" stroke-linejoin="miter" stroke-miterlimit="2" transform="matrix(1,0,0,1,0,0)"
font-family="Helvetica" font-size="12.5" font-weight="400" font-style="normal" 
clip-path="url(#clip16)" >
</g>

<g fill="#000000" fill-opacity="1" stroke="#000000" stroke-opacity="1" stroke-width="1" stroke-linecap="square" stroke-linejoin="miter" stroke-miterlimit="2" transform="matrix(3.33333,0,0,3.33333,33.3333,6.66667)"
font-family="Helvetica" font-size="12.5" font-weight="400" font-style="normal" 
clip-path="url(#clip16)" >
</g>

<g fill="none" stroke="#000000" stroke-opacity="1" stroke-width="1" stroke-linecap="square" stroke-linejoin="bevel" transform="matrix(3.33333,0,0,3.33333,30,3.33333)"
font-family="Helvetica" font-size="12.5" font-weight="400" font-style="normal" 
clip-path="url(#clip16)" >
</g>

<g fill="none" stroke="#000000" stroke-opacity="1" stroke-width="1" stroke-linecap="square" stroke-linejoin="bevel" transform="matrix(3.33333,0,0,3.33333,30,3.33333)"
font-family="Helvetica" font-size="12.5" font-weight="400" font-style="normal" 
clip-path="url(#clip17)" >
<defs><clipPath id="clip17"><path vector-effect="non-scaling-stroke" fill-rule="evenodd" d="M-10,-2 L50,-2 L50,42 L-10,42 L-10,-2z "/>
</clipPath></defs></g>

<g fill="none" stroke="#000000" stroke-opacity="1" stroke-width="1" stroke-linecap="square" stroke-linejoin="bevel" transform="matrix(1,0,0,1,0,0)"
font-family="Helvetica" font-size="12.5" font-weight="400" font-style="normal" 
clip-path="url(#clip17)" >
</g>

<g fill="none" stroke="#000000" stroke-opacity="1" stroke-width="1" stroke-linecap="square" stroke-linejoin="bevel" transform="matrix(3.33333,0,0,3.33333,33.3333,6.66667)"
font-family="Helvetica" font-size="12.5" font-weight="400" font-style="normal" 
clip-path="url(#clip17)" >
</g>

<g fill="none" stroke="#000000" stroke-opacity="1" stroke-width="1" stroke-linecap="square" stroke-linejoin="bevel" transform="matrix(3.33333,0,0,3.33333,33.3333,6.66667)"
font-family="Helvetica" font-size="12.5" font-weight="400" font-style="normal" 
clip-path="url(#clip17)" >
</g>

<g fill="none" stroke="#000000" stroke-opacity="1" stroke-width="1" stroke-linecap="square" stroke-linejoin="bevel" transform="matrix(3.33333,0,0,3.33333,33.3333,6.66667)"
font-family="Helvetica" font-size="12.5" font-weight="400" font-style="normal" 
clip-path="url(#clip18)" >
<defs><clipPath id="clip18"><path vector-effect="non-scaling-stroke" fill-rule="evenodd" d="M0,0 L40,0 L40,40 L0,40 L0,0z "/>
</clipPath></defs></g>

<g fill="none" stroke="#e60000" stroke-opacity="1" stroke-width="1" stroke-linecap="square" stroke-linejoin="bevel" transform="matrix(3.33333,0,0,3.33333,156.667,73.3333)"
font-family="Liberation Sans" font-size="10" font-weight="400" font-style="normal" 
clip-path="url(#clip19)" >
<defs><clipPath id="clip19"><path vector-effect="none" fill-rule="evenodd" d="M-37,-20 L3,-20 L3,20 L-37,20 L-37,-20z "/>
</clipPath></defs></g>

<g fill="none" stroke="#e60000" stroke-opacity="1" stroke-width="1" stroke-linecap="square" stroke-linejoin="bevel" transform="matrix(3.33333,0,0,3.33333,156.667,73.3333)"
font-family="Liberation Sans" font-size="10" font-weight="400" font-style="normal" 
clip-path="url(#clip19)" >
<text textLength="3" fill="#e60000" fill-opacity="1" stroke="none" xml:space="preserve" x="-3" y="3" font-family="Liberation Sans" font-size="10" font-weight="400" font-style="normal" 
 >-</text>
</g>

<g fill="none" stroke="#e60000" stroke-opacity="1" stroke-width="1" stroke-linecap="square" stroke-linejoin="bevel" transform="matrix(3.33333,0,0,3.33333,156.667,73.3333)"
font-family="Liberation Sans" font-size="10" font-weight="400" font-style="normal" 
clip-path="url(#clip19)" >
</g>

<g fill="none" stroke="#e60000" stroke-opacity="1" stroke-width="1" stroke-linecap="square" stroke-linejoin="bevel" transform="matrix(3.33333,0,0,3.33333,43.3333,73.3333)"
font-family="Liberation Sans" font-size="10" font-weight="400" font-style="normal" 
clip-path="url(#clip20)" >
<defs><clipPath id="clip20"><path vector-effect="none" fill-rule="evenodd" d="M-3,-20 L37,-20 L37,20 L-3,20 L-3,-20z "/>
</clipPath></defs></g>

<g fill="none" stroke="#e60000" stroke-opacity="1" stroke-width="1" stroke-linecap="square" stroke-linejoin="bevel" transform="matrix(3.33333,0,0,3.33333,43.3333,73.3333)"
font-family="Liberation Sans" font-size="10" font-weight="400" font-style="normal" 
clip-path="url(#clip20)" >
<text textLength="6" fill="#e60000" fill-opacity="1" stroke="none" xml:space="preserve" x="0" y="3" font-family="Liberation Sans" font-size="10" font-weight="400" font-style="normal" 
 >+</text>
</g>

<g fill="none" stroke="#e60000" stroke-opacity="1" stroke-width="1" stroke-linecap="square" stroke-linejoin="bevel" transform="matrix(3.33333,0,0,3.33333,43.3333,73.3333)"
font-family="Liberation Sans" font-size="10" font-weight="400" font-style="normal" 
clip-path="url(#clip20)" >
</g>

<g fill="none" stroke="#e60000" stroke-opacity="1" stroke-width="1" stroke-linecap="square" stroke-linejoin="bevel" transform="matrix(3.33333,0,0,3.33333,43.3333,73.3333)"
font-family="Liberation Sans" font-size="10" font-weight="400" font-style="normal" 
clip-path="url(#clip21)" >
<defs><clipPath id="clip21"><path vector-effect="none" fill-rule="evenodd" d="M-10,-2 L50,-2 L50,42 L-10,42 L-10,-2z "/>
</clipPath></defs></g>

<g fill="none" stroke="#e60000" stroke-opacity="1" stroke-width="1" stroke-linecap="square" stroke-linejoin="bevel" transform="matrix(1,0,0,1,0,0)"
font-family="Liberation Sans" font-size="10" font-weight="400" font-style="normal" 
clip-path="url(#clip21)" >
</g>

<g fill="none" stroke="#000000" stroke-opacity="1" stroke-width="1" stroke-linecap="square" stroke-linejoin="bevel" transform="matrix(3.33333,0,0,3.33333,33.3333,6.66667)"
font-family="Helvetica" font-size="12.5" font-weight="400" font-style="normal" 
clip-path="url(#clip21)" >
</g>

<g fill="none" stroke="#000000" stroke-opacity="1" stroke-width="1" stroke-linecap="square" stroke-linejoin="bevel" transform="matrix(3.33333,0,0,3.33333,33.3333,6.66667)"
font-family="Helvetica" font-size="12.5" font-weight="400" font-style="normal" 
clip-path="url(#clip21)" >
</g>

<g fill="none" stroke="none" transform="matrix(3.33333,0,0,3.33333,33.3333,6.66667)"
font-family="Helvetica" font-size="12.5" font-weight="400" font-style="normal" 
clip-path="url(#clip21)" >
<path vector-effect="none" fill-rule="evenodd" d="M0,0 L40,0 L40,40 L0,40 L0,0z "/>
</g>

<g fill="none" stroke="#000000" stroke-opacity="1" stroke-width="1" stroke-linecap="square" stroke-linejoin="bevel" transform="matrix(3.33333,0,0,3.33333,33.3333,6.66667)"
font-family="Helvetica" font-size="12.5" font-weight="400" font-style="normal" 
clip-path="url(#clip21)" >
</g>

<g fill="none" stroke="#000000" stroke-opacity="1" stroke-width="1" stroke-linecap="square" stroke-linejoin="bevel" transform="matrix(1,0,0,1,0,0)"
font-family="Helvetica" font-size="12.5" font-weight="400" font-style="normal" 
>
</g>

<g fill="none" stroke="#000000" stroke-opacity="1" stroke-width="1" stroke-linecap="square" stroke-linejoin="bevel" transform="matrix(1,0,0,1,0,0)"
font-family="Helvetica" font-size="12.5" font-weight="400" font-style="normal" 
>
</g>

<g fill="none" stroke="#000000" stroke-opacity="1" stroke-width="1" stroke-linecap="square" stroke-linejoin="bevel" transform="matrix(1,0,0,1,0,0)"
font-family="Helvetica" font-size="12.5" font-weight="400" font-style="normal" 
clip-path="url(#clip22)" >
<defs><clipPath id="clip22"><path vector-effect="non-scaling-stroke" fill-rule="evenodd" d="M0,0 L200,0 L200,146 L0,146 L0,0z "/>
</clipPath></defs></g>

<g fill="none" stroke="#000000" stroke-opacity="1" stroke-width="1" stroke-linecap="square" stroke-linejoin="bevel" transform="matrix(1,0,0,1,0,0)"
font-family="Helvetica" font-size="12.5" font-weight="400" font-style="normal" 
>
</g>

<g fill="none" stroke="#000000" stroke-opacity="1" stroke-width="1" stroke-linecap="square" stroke-linejoin="bevel" transform="matrix(1,0,0,1,0,0)"
font-family="Helvetica" font-size="12.5" font-weight="400" font-style="normal" 
>
</g>

<g fill="none" stroke="#000000" stroke-opacity="1" stroke-width="1" stroke-linecap="square" stroke-linejoin="bevel" transform="matrix(1,0,0,1,0,0)"
font-family="Helvetica" font-size="12.5" font-weight="400" font-style="normal" 
clip-path="url(#clip23)" >
<defs><clipPath id="clip23"><path vector-effect="non-scaling-stroke" fill-rule="evenodd" d="M0,0 L1,0 L1,1 L0,1 L0,0z "/>
</clipPath></defs></g>

<g fill="none" stroke="#000000" stroke-opacity="1" stroke-width="1" stroke-linecap="square" stroke-linejoin="bevel" transform="matrix(1,0,0,1,0,0)"
font-family="Helvetica" font-size="12.5" font-weight="400" font-style="normal" 
>
</g>

<g fill="none" stroke="#000000" stroke-opacity="1" stroke-width="1" stroke-linecap="square" stroke-linejoin="bevel" transform="matrix(1,0,0,1,0,0)"
font-family="Helvetica" font-size="12.5" font-weight="400" font-style="normal" 
>
</g>
</g>
</svg>
