<?xml version="1.0" encoding="UTF-8" standalone="no"?>
<svg width="70.5556mm" height="25.7528mm"
 viewBox="0 0 200 73"
 xmlns="http://www.w3.org/2000/svg" xmlns:xlink="http://www.w3.org/1999/xlink"  version="1.2" baseProfile="tiny">
<defs>
</defs>
<g fill="none" stroke="black" stroke-width="1" fill-rule="evenodd" stroke-linecap="square" stroke-linejoin="bevel" >

<g fill="#ffffff" fill-opacity="0" stroke="none" transform="matrix(1,0,0,1,0,0)"
font-family="Helvetica" font-size="12" font-weight="400" font-style="normal" 
>
<path vector-effect="non-scaling-stroke" fill-rule="evenodd" d="M0,0 L200,0 L200,73 L0,73 L0,0z "/>
</g>

<g fill="none" stroke="#000000" stroke-opacity="1" stroke-width="1" stroke-linecap="square" stroke-linejoin="bevel" transform="matrix(1,0,0,1,0,0)"
font-family="Helvetica" font-size="12" font-weight="400" font-style="normal" 
>
</g>

<g fill="none" stroke="#000000" stroke-opacity="1" stroke-width="1" stroke-linecap="square" stroke-linejoin="bevel" transform="matrix(1,0,0,1,0,0)"
font-family="Helvetica" font-size="12" font-weight="400" font-style="normal" 
clip-path="url(#clip1810)" >
<defs><clipPath id="clip1810"><path vector-effect="non-scaling-stroke" fill-rule="evenodd" d="M0,0 L200,0 L200,73.6842 L0,73.6842 L0,0z "/>
</clipPath></defs></g>

<g fill="none" stroke="#000000" stroke-opacity="1" stroke-width="1" stroke-linecap="square" stroke-linejoin="bevel" transform="matrix(1.75439,0,0,1.75439,187.719,54.386)"
font-family="Helvetica" font-size="12" font-weight="400" font-style="normal" 
clip-path="url(#clip1811)" >
<defs><clipPath id="clip1811"><path vector-effect="non-scaling-stroke" fill-rule="evenodd" d="M-107,-31 L7,-31 L7,11 L-107,11 L-107,-31z "/>
</clipPath></defs></g>

<g fill="#000000" fill-opacity="0" stroke="#000000" stroke-opacity="1" stroke-width="2" stroke-linecap="round" stroke-linejoin="miter" stroke-miterlimit="2" transform="matrix(1.75439,0,0,1.75439,187.719,54.386)"
font-family="Helvetica" font-size="12" font-weight="400" font-style="normal" 
clip-path="url(#clip1811)" >
<path vector-effect="none" fill-rule="evenodd" d="M0,-5 L5,0 L0,5"/>
</g>

<g fill="none" stroke="#000000" stroke-opacity="1" stroke-width="1" stroke-linecap="square" stroke-linejoin="bevel" transform="matrix(1.75439,0,0,1.75439,187.719,54.386)"
font-family="Helvetica" font-size="12" font-weight="400" font-style="normal" 
clip-path="url(#clip1811)" >
</g>

<g fill="none" stroke="#000000" stroke-opacity="1" stroke-width="1" stroke-linecap="square" stroke-linejoin="bevel" transform="matrix(-1.75439,0,0,-1.75439,12.2807,36.8421)"
font-family="Helvetica" font-size="12" font-weight="400" font-style="normal" 
clip-path="url(#clip1812)" >
<defs><clipPath id="clip1812"><path vector-effect="non-scaling-stroke" fill-rule="evenodd" d="M7,21 L-107,21 L-107,-21 L7,-21 L7,21z "/>
</clipPath></defs></g>

<g fill="#000000" fill-opacity="0" stroke="#000000" stroke-opacity="1" stroke-width="2" stroke-linecap="round" stroke-linejoin="miter" stroke-miterlimit="2" transform="matrix(-1.75439,0,0,-1.75439,12.2807,36.8421)"
font-family="Helvetica" font-size="12" font-weight="400" font-style="normal" 
clip-path="url(#clip1812)" >
<path vector-effect="none" fill-rule="evenodd" d="M5,-5 L0,0 L5,5"/>
</g>

<g fill="none" stroke="#000000" stroke-opacity="1" stroke-width="1" stroke-linecap="square" stroke-linejoin="bevel" transform="matrix(-1.75439,0,0,-1.75439,12.2807,36.8421)"
font-family="Helvetica" font-size="12" font-weight="400" font-style="normal" 
clip-path="url(#clip1812)" >
</g>

<g fill="none" stroke="#000000" stroke-opacity="1" stroke-width="1" stroke-linecap="square" stroke-linejoin="bevel" transform="matrix(1.75439,0,0,1.75439,12.2807,3.50877)"
font-family="Helvetica" font-size="12" font-weight="400" font-style="normal" 
clip-path="url(#clip1813)" >
<defs><clipPath id="clip1813"><path vector-effect="non-scaling-stroke" fill-rule="evenodd" d="M-7,-2 L107,-2 L107,40 L-7,40 L-7,-2z "/>
</clipPath></defs></g>

<g fill="#ffffff" fill-opacity="1" stroke="none" transform="matrix(1.75439,0,0,1.75439,12.2807,3.50877)"
font-family="Helvetica" font-size="12" font-weight="400" font-style="normal" 
clip-path="url(#clip1813)" >
<path vector-effect="none" fill-rule="evenodd" d="M0,0 L100,0 L100,38 L0,38 L0,0z "/>
</g>

<g fill="none" stroke="#000000" stroke-opacity="1" stroke-width="1" stroke-linecap="square" stroke-linejoin="bevel" transform="matrix(1.75439,0,0,1.75439,12.2807,3.50877)"
font-family="Helvetica" font-size="12" font-weight="400" font-style="normal" 
clip-path="url(#clip1813)" >
</g>

<g fill="none" stroke="#000000" stroke-opacity="1" stroke-width="1" stroke-linecap="square" stroke-linejoin="bevel" transform="matrix(1.75439,0,0,1.75439,12.2807,3.50877)"
font-family="Helvetica" font-size="12" font-weight="400" font-style="normal" 
clip-path="url(#clip1813)" >
</g>

<g fill="none" stroke="#000000" stroke-opacity="1" stroke-width="1" stroke-linecap="square" stroke-linejoin="bevel" transform="matrix(1.75439,0,0,1.75439,12.2807,3.50877)"
font-family="Helvetica" font-size="12" font-weight="400" font-style="normal" 
clip-path="url(#clip1814)" >
<defs><clipPath id="clip1814"><path vector-effect="non-scaling-stroke" fill-rule="evenodd" d="M0,0 L100,0 L100,38 L0,38 L0,0z "/>
</clipPath></defs></g>

<g fill="none" stroke="#000000" stroke-opacity="1" stroke-width="1" stroke-linecap="square" stroke-linejoin="bevel" transform="matrix(1.75439,0,0,1.75439,17.5439,36.8421)"
font-family="Helvetica" font-size="9" font-weight="400" font-style="normal" 
clip-path="url(#clip1815)" >
<defs><clipPath id="clip1815"><path vector-effect="none" fill-rule="evenodd" d="M-3,-19 L97,-19 L97,19 L-3,19 L-3,-19z "/>
</clipPath></defs><text textLength="10" fill="#000000" fill-opacity="1" stroke="none" xml:space="preserve" x="0" y="1.84375" font-family="Helvetica" font-size="9" font-weight="400" font-style="normal" 
 >u1</text>
</g>

<g fill="none" stroke="#000000" stroke-opacity="1" stroke-width="1" stroke-linecap="square" stroke-linejoin="bevel" transform="matrix(1.75439,0,0,1.75439,182.456,19.2982)"
font-family="Helvetica" font-size="9" font-weight="400" font-style="normal" 
clip-path="url(#clip1816)" >
<defs><clipPath id="clip1816"><path vector-effect="none" fill-rule="evenodd" d="M-97,-9 L3,-9 L3,29 L-97,29 L-97,-9z "/>
</clipPath></defs><text textLength="39" fill="#000000" fill-opacity="1" stroke="none" xml:space="preserve" x="-39" y="1.84375" font-family="Helvetica" font-size="9" font-weight="400" font-style="normal" 
 >case [ 1 ]:</text>
</g>

<g fill="none" stroke="#000000" stroke-opacity="1" stroke-width="1" stroke-linecap="square" stroke-linejoin="bevel" transform="matrix(1.75439,0,0,1.75439,182.456,54.386)"
font-family="Helvetica" font-size="9" font-weight="400" font-style="normal" 
clip-path="url(#clip1817)" >
<defs><clipPath id="clip1817"><path vector-effect="none" fill-rule="evenodd" d="M-97,-29 L3,-29 L3,9 L-97,9 L-97,-29z "/>
</clipPath></defs><text textLength="29.4844" fill="#000000" fill-opacity="1" stroke="none" xml:space="preserve" x="-29.4844" y="1.84375" font-family="Helvetica" font-size="9" font-weight="400" font-style="normal" 
 >default:</text>
</g>

<g fill="none" stroke="#000000" stroke-opacity="1" stroke-width="1" stroke-linecap="square" stroke-linejoin="bevel" transform="matrix(1.75439,0,0,1.75439,182.456,54.386)"
font-family="Helvetica" font-size="9" font-weight="400" font-style="normal" 
clip-path="url(#clip1818)" >
<defs><clipPath id="clip1818"><path vector-effect="none" fill-rule="evenodd" d="M-7,-2 L107,-2 L107,40 L-7,40 L-7,-2z "/>
</clipPath></defs></g>

<g fill="none" stroke="#000000" stroke-opacity="1" stroke-width="1" stroke-linecap="square" stroke-linejoin="bevel" transform="matrix(1,0,0,1,0,0)"
font-family="Helvetica" font-size="9" font-weight="400" font-style="normal" 
clip-path="url(#clip1818)" >
</g>

<g fill="none" stroke="#000000" stroke-opacity="1" stroke-width="1" stroke-linecap="square" stroke-linejoin="bevel" transform="matrix(1.75439,0,0,1.75439,12.2807,3.50877)"
font-family="Helvetica" font-size="12" font-weight="400" font-style="normal" 
clip-path="url(#clip1818)" >
</g>

<g fill="none" stroke="#000000" stroke-opacity="1" stroke-width="1" stroke-linecap="square" stroke-linejoin="bevel" transform="matrix(1.75439,0,0,1.75439,12.2807,3.50877)"
font-family="Helvetica" font-size="12" font-weight="400" font-style="normal" 
clip-path="url(#clip1818)" >
</g>

<g fill="none" stroke="#000000" stroke-opacity="1" stroke-width="0.798638" stroke-linecap="butt" stroke-linejoin="miter" stroke-miterlimit="2" transform="matrix(1.75439,0,0,1.75439,12.2807,3.50877)"
font-family="Helvetica" font-size="12" font-weight="400" font-style="normal" 
clip-path="url(#clip1818)" >
<path vector-effect="none" fill-rule="evenodd" d="M0,0 L100,0 L100,38 L0,38 L0,0z "/>
</g>

<g fill="none" stroke="#000000" stroke-opacity="1" stroke-width="1" stroke-linecap="square" stroke-linejoin="bevel" transform="matrix(1.75439,0,0,1.75439,12.2807,3.50877)"
font-family="Helvetica" font-size="12" font-weight="400" font-style="normal" 
clip-path="url(#clip1818)" >
</g>

<g fill="none" stroke="#000000" stroke-opacity="1" stroke-width="1" stroke-linecap="square" stroke-linejoin="bevel" transform="matrix(1,0,0,1,0,0)"
font-family="Helvetica" font-size="12" font-weight="400" font-style="normal" 
>
</g>

<g fill="none" stroke="#000000" stroke-opacity="1" stroke-width="1" stroke-linecap="square" stroke-linejoin="bevel" transform="matrix(1,0,0,1,0,0)"
font-family="Helvetica" font-size="12" font-weight="400" font-style="normal" 
>
</g>

<g fill="none" stroke="#000000" stroke-opacity="1" stroke-width="1" stroke-linecap="square" stroke-linejoin="bevel" transform="matrix(1,0,0,1,0,0)"
font-family="Helvetica" font-size="12" font-weight="400" font-style="normal" 
clip-path="url(#clip1819)" >
<defs><clipPath id="clip1819"><path vector-effect="non-scaling-stroke" fill-rule="evenodd" d="M0,0 L200,0 L200,73 L0,73 L0,0z "/>
</clipPath></defs></g>

<g fill="none" stroke="#000000" stroke-opacity="1" stroke-width="1" stroke-linecap="square" stroke-linejoin="bevel" transform="matrix(1,0,0,1,0,0)"
font-family="Helvetica" font-size="12" font-weight="400" font-style="normal" 
>
</g>

<g fill="none" stroke="#000000" stroke-opacity="1" stroke-width="1" stroke-linecap="square" stroke-linejoin="bevel" transform="matrix(1,0,0,1,0,0)"
font-family="Helvetica" font-size="12" font-weight="400" font-style="normal" 
>
</g>

<g fill="none" stroke="#000000" stroke-opacity="1" stroke-width="1" stroke-linecap="square" stroke-linejoin="bevel" transform="matrix(1,0,0,1,0,0)"
font-family="Helvetica" font-size="12" font-weight="400" font-style="normal" 
clip-path="url(#clip1820)" >
<defs><clipPath id="clip1820"><path vector-effect="non-scaling-stroke" fill-rule="evenodd" d="M0,0 L1,0 L1,1 L0,1 L0,0z "/>
</clipPath></defs></g>

<g fill="none" stroke="#000000" stroke-opacity="1" stroke-width="1" stroke-linecap="square" stroke-linejoin="bevel" transform="matrix(1,0,0,1,0,0)"
font-family="Helvetica" font-size="12" font-weight="400" font-style="normal" 
>
</g>

<g fill="none" stroke="#000000" stroke-opacity="1" stroke-width="1" stroke-linecap="square" stroke-linejoin="bevel" transform="matrix(1,0,0,1,0,0)"
font-family="Helvetica" font-size="12" font-weight="400" font-style="normal" 
>
</g>
</g>
</svg>
