<?xml version="1.0" encoding="UTF-8" standalone="no"?>
<svg width="70.5556mm" height="63.1472mm"
 viewBox="0 0 200 179"
 xmlns="http://www.w3.org/2000/svg" xmlns:xlink="http://www.w3.org/1999/xlink"  version="1.2" baseProfile="tiny">
<defs>
</defs>
<g fill="none" stroke="black" stroke-width="1" fill-rule="evenodd" stroke-linecap="square" stroke-linejoin="bevel" >

<g fill="#ffffff" fill-opacity="0" stroke="none" transform="matrix(1,0,0,1,0,0)"
font-family="Helvetica" font-size="12" font-weight="400" font-style="normal" 
>
<path vector-effect="non-scaling-stroke" fill-rule="evenodd" d="M0,0 L200,0 L200,179 L0,179 L0,0z "/>
</g>

<g fill="none" stroke="#000000" stroke-opacity="1" stroke-width="1" stroke-linecap="square" stroke-linejoin="bevel" transform="matrix(1,0,0,1,0,0)"
font-family="Helvetica" font-size="12" font-weight="400" font-style="normal" 
>
</g>

<g fill="none" stroke="#000000" stroke-opacity="1" stroke-width="1" stroke-linecap="square" stroke-linejoin="bevel" transform="matrix(1,0,0,1,0,0)"
font-family="Helvetica" font-size="12" font-weight="400" font-style="normal" 
clip-path="url(#clip2726)" >
<defs><clipPath id="clip2726"><path vector-effect="non-scaling-stroke" fill-rule="evenodd" d="M0,0 L200,0 L200,179.592 L0,179.592 L0,0z "/>
</clipPath></defs></g>

<g fill="none" stroke="#000000" stroke-opacity="1" stroke-width="1" stroke-linecap="square" stroke-linejoin="bevel" transform="matrix(4.08163,0,0,4.08163,171.429,89.7959)"
font-family="Helvetica" font-size="12" font-weight="400" font-style="normal" 
clip-path="url(#clip2727)" >
<defs><clipPath id="clip2727"><path vector-effect="non-scaling-stroke" fill-rule="evenodd" d="M-42,-22 L7,-22 L7,22 L-42,22 L-42,-22z "/>
</clipPath></defs></g>

<g fill="#000000" fill-opacity="0" stroke="#000000" stroke-opacity="1" stroke-width="2" stroke-linecap="round" stroke-linejoin="miter" stroke-miterlimit="2" transform="matrix(4.08163,0,0,4.08163,171.429,89.7959)"
font-family="Helvetica" font-size="12" font-weight="400" font-style="normal" 
clip-path="url(#clip2727)" >
<path vector-effect="none" fill-rule="evenodd" d="M0,-5 L5,0 L0,5"/>
</g>

<g fill="none" stroke="#000000" stroke-opacity="1" stroke-width="1" stroke-linecap="square" stroke-linejoin="bevel" transform="matrix(4.08163,0,0,4.08163,171.429,89.7959)"
font-family="Helvetica" font-size="12" font-weight="400" font-style="normal" 
clip-path="url(#clip2727)" >
</g>

<g fill="none" stroke="#000000" stroke-opacity="1" stroke-width="1" stroke-linecap="square" stroke-linejoin="bevel" transform="matrix(-4.08163,0,0,-4.08163,28.5714,151.02)"
font-family="Helvetica" font-size="12" font-weight="400" font-style="normal" 
clip-path="url(#clip2728)" >
<defs><clipPath id="clip2728"><path vector-effect="non-scaling-stroke" fill-rule="evenodd" d="M7,37 L-42,37 L-42,-7 L7,-7 L7,37z "/>
</clipPath></defs></g>

<g fill="#000000" fill-opacity="0" stroke="#000000" stroke-opacity="1" stroke-width="2" stroke-linecap="round" stroke-linejoin="miter" stroke-miterlimit="2" transform="matrix(-4.08163,0,0,-4.08163,28.5714,151.02)"
font-family="Helvetica" font-size="12" font-weight="400" font-style="normal" 
clip-path="url(#clip2728)" >
<path vector-effect="none" fill-rule="evenodd" d="M5,-5 L0,0 L5,5"/>
</g>

<g fill="none" stroke="#000000" stroke-opacity="1" stroke-width="1" stroke-linecap="square" stroke-linejoin="bevel" transform="matrix(-4.08163,0,0,-4.08163,28.5714,151.02)"
font-family="Helvetica" font-size="12" font-weight="400" font-style="normal" 
clip-path="url(#clip2728)" >
</g>

<g fill="none" stroke="#000000" stroke-opacity="1" stroke-width="1" stroke-linecap="square" stroke-linejoin="bevel" transform="matrix(-4.08163,0,0,-4.08163,28.5714,110.204)"
font-family="Helvetica" font-size="12" font-weight="400" font-style="normal" 
clip-path="url(#clip2729)" >
<defs><clipPath id="clip2729"><path vector-effect="non-scaling-stroke" fill-rule="evenodd" d="M7,27 L-42,27 L-42,-17 L7,-17 L7,27z "/>
</clipPath></defs></g>

<g fill="#000000" fill-opacity="0" stroke="#000000" stroke-opacity="1" stroke-width="2" stroke-linecap="round" stroke-linejoin="miter" stroke-miterlimit="2" transform="matrix(-4.08163,0,0,-4.08163,28.5714,110.204)"
font-family="Helvetica" font-size="12" font-weight="400" font-style="normal" 
clip-path="url(#clip2729)" >
<path vector-effect="none" fill-rule="evenodd" d="M5,-5 L0,0 L5,5"/>
</g>

<g fill="none" stroke="#000000" stroke-opacity="1" stroke-width="1" stroke-linecap="square" stroke-linejoin="bevel" transform="matrix(-4.08163,0,0,-4.08163,28.5714,110.204)"
font-family="Helvetica" font-size="12" font-weight="400" font-style="normal" 
clip-path="url(#clip2729)" >
</g>

<g fill="none" stroke="#000000" stroke-opacity="1" stroke-width="1" stroke-linecap="square" stroke-linejoin="bevel" transform="matrix(-4.08163,0,0,-4.08163,28.5714,69.3878)"
font-family="Helvetica" font-size="12" font-weight="400" font-style="normal" 
clip-path="url(#clip2730)" >
<defs><clipPath id="clip2730"><path vector-effect="non-scaling-stroke" fill-rule="evenodd" d="M7,17 L-42,17 L-42,-27 L7,-27 L7,17z "/>
</clipPath></defs></g>

<g fill="#000000" fill-opacity="0" stroke="#000000" stroke-opacity="1" stroke-width="2" stroke-linecap="round" stroke-linejoin="miter" stroke-miterlimit="2" transform="matrix(-4.08163,0,0,-4.08163,28.5714,69.3878)"
font-family="Helvetica" font-size="12" font-weight="400" font-style="normal" 
clip-path="url(#clip2730)" >
<path vector-effect="none" fill-rule="evenodd" d="M5,-5 L0,0 L5,5"/>
</g>

<g fill="none" stroke="#000000" stroke-opacity="1" stroke-width="1" stroke-linecap="square" stroke-linejoin="bevel" transform="matrix(-4.08163,0,0,-4.08163,28.5714,69.3878)"
font-family="Helvetica" font-size="12" font-weight="400" font-style="normal" 
clip-path="url(#clip2730)" >
</g>

<g fill="none" stroke="#000000" stroke-opacity="1" stroke-width="1" stroke-linecap="square" stroke-linejoin="bevel" transform="matrix(-4.08163,0,0,-4.08163,28.5714,28.5714)"
font-family="Helvetica" font-size="12" font-weight="400" font-style="normal" 
clip-path="url(#clip2731)" >
<defs><clipPath id="clip2731"><path vector-effect="non-scaling-stroke" fill-rule="evenodd" d="M7,7 L-42,7 L-42,-37 L7,-37 L7,7z "/>
</clipPath></defs></g>

<g fill="#000000" fill-opacity="0" stroke="#000000" stroke-opacity="1" stroke-width="2" stroke-linecap="round" stroke-linejoin="miter" stroke-miterlimit="2" transform="matrix(-4.08163,0,0,-4.08163,28.5714,28.5714)"
font-family="Helvetica" font-size="12" font-weight="400" font-style="normal" 
clip-path="url(#clip2731)" >
<path vector-effect="none" fill-rule="evenodd" d="M5,-5 L0,0 L5,5"/>
</g>

<g fill="none" stroke="#000000" stroke-opacity="1" stroke-width="1" stroke-linecap="square" stroke-linejoin="bevel" transform="matrix(-4.08163,0,0,-4.08163,28.5714,28.5714)"
font-family="Helvetica" font-size="12" font-weight="400" font-style="normal" 
clip-path="url(#clip2731)" >
</g>

<g fill="none" stroke="#000000" stroke-opacity="1" stroke-width="1" stroke-linecap="square" stroke-linejoin="bevel" transform="matrix(4.08163,0,0,4.08163,28.5714,16.3265)"
font-family="Helvetica" font-size="12" font-weight="400" font-style="normal" 
clip-path="url(#clip2732)" >
<defs><clipPath id="clip2732"><path vector-effect="non-scaling-stroke" fill-rule="evenodd" d="M-7,-4 L42,-4 L42,40 L-7,40 L-7,-4z "/>
</clipPath></defs></g>

<g fill="#ffffff" fill-opacity="1" stroke="none" transform="matrix(4.08163,0,0,4.08163,28.5714,16.3265)"
font-family="Helvetica" font-size="12" font-weight="400" font-style="normal" 
clip-path="url(#clip2732)" >
<path vector-effect="none" fill-rule="evenodd" d="M0,0 L35,0 L35,36 L0,36 L0,0z "/>
</g>

<g fill="none" stroke="#000000" stroke-opacity="1" stroke-width="1" stroke-linecap="square" stroke-linejoin="bevel" transform="matrix(4.08163,0,0,4.08163,28.5714,16.3265)"
font-family="Helvetica" font-size="12" font-weight="400" font-style="normal" 
clip-path="url(#clip2732)" >
</g>

<g fill="none" stroke="#000000" stroke-opacity="1" stroke-width="1" stroke-linecap="square" stroke-linejoin="bevel" transform="matrix(4.08163,0,0,4.08163,28.5714,16.3265)"
font-family="Helvetica" font-size="12" font-weight="400" font-style="normal" 
clip-path="url(#clip2732)" >
</g>

<g fill="none" stroke="#000000" stroke-opacity="1" stroke-width="1" stroke-linecap="square" stroke-linejoin="bevel" transform="matrix(4.08163,0,0,4.08163,28.5714,16.3265)"
font-family="Helvetica" font-size="12" font-weight="400" font-style="normal" 
clip-path="url(#clip2733)" >
<defs><clipPath id="clip2733"><path vector-effect="non-scaling-stroke" fill-rule="evenodd" d="M0,0 L35,0 L35,36 L0,36 L0,0z "/>
</clipPath></defs></g>

<g fill="none" stroke="#000000" stroke-opacity="1" stroke-width="1" stroke-linecap="square" stroke-linejoin="bevel" transform="matrix(4.08163,0,0,4.08163,40.8163,36.7347)"
font-family="Helvetica" font-size="9" font-weight="400" font-style="normal" 
clip-path="url(#clip2734)" >
<defs><clipPath id="clip2734"><path vector-effect="none" fill-rule="evenodd" d="M-3,-5 L32,-5 L32,31 L-3,31 L-3,-5z "/>
</clipPath></defs><text textLength="5" fill="#000000" fill-opacity="1" stroke="none" xml:space="preserve" x="0" y="1.84375" font-family="Helvetica" font-size="9" font-weight="400" font-style="normal" 
 >u</text>
</g>

<g fill="none" stroke="#000000" stroke-opacity="1" stroke-width="1" stroke-linecap="square" stroke-linejoin="bevel" transform="matrix(4.08163,0,0,4.08163,40.8163,69.3878)"
font-family="Helvetica" font-size="9" font-weight="400" font-style="normal" 
clip-path="url(#clip2735)" >
<defs><clipPath id="clip2735"><path vector-effect="none" fill-rule="evenodd" d="M-3,-13 L32,-13 L32,23 L-3,23 L-3,-13z "/>
</clipPath></defs><text textLength="6" fill="#000000" fill-opacity="1" stroke="none" xml:space="preserve" x="0" y="1.84375" font-family="Helvetica" font-size="9" font-weight="400" font-style="normal" 
 >E</text>
</g>

<g fill="none" stroke="#000000" stroke-opacity="1" stroke-width="1" stroke-linecap="square" stroke-linejoin="bevel" transform="matrix(4.08163,0,0,4.08163,40.8163,110.204)"
font-family="Helvetica" font-size="9" font-weight="400" font-style="normal" 
clip-path="url(#clip2736)" >
<defs><clipPath id="clip2736"><path vector-effect="none" fill-rule="evenodd" d="M-3,-23 L32,-23 L32,13 L-3,13 L-3,-23z "/>
</clipPath></defs><text textLength="6.48438" fill="#000000" fill-opacity="1" stroke="none" xml:space="preserve" x="0" y="1.84375" font-family="Helvetica" font-size="9" font-weight="400" font-style="normal" 
 >R</text>
</g>

<g fill="none" stroke="#000000" stroke-opacity="1" stroke-width="1" stroke-linecap="square" stroke-linejoin="bevel" transform="matrix(4.08163,0,0,4.08163,40.8163,142.857)"
font-family="Helvetica" font-size="9" font-weight="400" font-style="normal" 
clip-path="url(#clip2737)" >
<defs><clipPath id="clip2737"><path vector-effect="none" fill-rule="evenodd" d="M-3,-31 L32,-31 L32,5 L-3,5 L-3,-31z "/>
</clipPath></defs><text textLength="8.98438" fill="#000000" fill-opacity="1" stroke="none" xml:space="preserve" x="0" y="1.84375" font-family="Helvetica" font-size="9" font-weight="400" font-style="normal" 
 >IC</text>
</g>

<g fill="none" stroke="#000000" stroke-opacity="1" stroke-width="1" stroke-linecap="square" stroke-linejoin="bevel" transform="matrix(4.08163,0,0,4.08163,159.184,89.7959)"
font-family="Helvetica" font-size="9" font-weight="400" font-style="normal" 
clip-path="url(#clip2738)" >
<defs><clipPath id="clip2738"><path vector-effect="none" fill-rule="evenodd" d="M-32,-18 L3,-18 L3,18 L-32,18 L-32,-18z "/>
</clipPath></defs><text textLength="4.5" fill="#000000" fill-opacity="1" stroke="none" xml:space="preserve" x="-4.5" y="1.84375" font-family="Helvetica" font-size="9" font-weight="400" font-style="normal" 
 >y</text>
</g>

<g fill="none" stroke="#000000" stroke-opacity="1" stroke-width="1" stroke-linecap="square" stroke-linejoin="bevel" transform="matrix(4.08163,0,0,4.08163,85.7143,77.551)"
font-family="Helvetica" font-size="10" font-weight="400" font-style="normal" 
clip-path="url(#clip2739)" >
<defs><clipPath id="clip2739"><path vector-effect="none" fill-rule="evenodd" d="M-14,-15 L21,-15 L21,21 L-14,21 L-14,-15z "/>
</clipPath></defs><text textLength="5.54688" fill="#000000" fill-opacity="1" stroke="none" xml:space="preserve" x="0" y="-0.625" font-family="Helvetica" font-size="10" font-weight="400" font-style="normal" 
 >1</text>
</g>

<g fill="none" stroke="#000000" stroke-opacity="1" stroke-width="1" stroke-linecap="square" stroke-linejoin="bevel" transform="matrix(4.08163,0,0,4.08163,89.7959,134.694)"
font-family="Helvetica" font-size="10" font-weight="400" font-style="normal" 
clip-path="url(#clip2740)" >
<defs><clipPath id="clip2740"><path vector-effect="none" fill-rule="evenodd" d="M-15,-29 L20,-29 L20,7 L-15,7 L-15,-29z "/>
</clipPath></defs><text textLength="5" fill="#000000" fill-opacity="1" stroke="none" xml:space="preserve" x="0" y="-0.625" font-family="Helvetica" font-size="10" font-weight="400" font-style="normal" 
 >z</text>
</g>

<g fill="none" stroke="#000000" stroke-opacity="1" stroke-width="1" stroke-linecap="square" stroke-linejoin="bevel" transform="matrix(4.08163,0,0,4.08163,-1316.33,-908.163)"
font-family="Helvetica" font-size="10" font-weight="400" font-style="normal" 
clip-path="url(#clip2741)" >
<defs><clipPath id="clip2741"><path vector-effect="none" fill-rule="evenodd" d="M330,227 L365,227 L365,263 L330,263 L330,227z "/>
</clipPath></defs><polyline fill="none" vector-effect="none" points="344,245 350,245 " />
</g>

<g fill="none" stroke="#000000" stroke-opacity="1" stroke-width="1" stroke-linecap="square" stroke-linejoin="bevel" transform="matrix(4.08163,0,0,4.08163,-1316.33,-908.163)"
font-family="Helvetica" font-size="10" font-weight="400" font-style="normal" 
clip-path="url(#clip2742)" >
<defs><clipPath id="clip2742"><path vector-effect="none" fill-rule="evenodd" d="M-7,-4 L42,-4 L42,40 L-7,40 L-7,-4z "/>
</clipPath></defs></g>

<g fill="none" stroke="#000000" stroke-opacity="1" stroke-width="1" stroke-linecap="square" stroke-linejoin="bevel" transform="matrix(1,0,0,1,0,0)"
font-family="Helvetica" font-size="10" font-weight="400" font-style="normal" 
clip-path="url(#clip2742)" >
</g>

<g fill="none" stroke="#000000" stroke-opacity="1" stroke-width="1" stroke-linecap="square" stroke-linejoin="bevel" transform="matrix(4.08163,0,0,4.08163,28.5714,16.3265)"
font-family="Helvetica" font-size="12" font-weight="400" font-style="normal" 
clip-path="url(#clip2742)" >
</g>

<g fill="none" stroke="#000000" stroke-opacity="1" stroke-width="1" stroke-linecap="square" stroke-linejoin="bevel" transform="matrix(4.08163,0,0,4.08163,28.5714,16.3265)"
font-family="Helvetica" font-size="12" font-weight="400" font-style="normal" 
clip-path="url(#clip2742)" >
</g>

<g fill="none" stroke="#000000" stroke-opacity="1" stroke-width="0.569727" stroke-linecap="butt" stroke-linejoin="miter" stroke-miterlimit="2" transform="matrix(4.08163,0,0,4.08163,28.5714,16.3265)"
font-family="Helvetica" font-size="12" font-weight="400" font-style="normal" 
clip-path="url(#clip2742)" >
<path vector-effect="none" fill-rule="evenodd" d="M0,0 L35,0 L35,36 L0,36 L0,0z "/>
</g>

<g fill="none" stroke="#000000" stroke-opacity="1" stroke-width="1" stroke-linecap="square" stroke-linejoin="bevel" transform="matrix(4.08163,0,0,4.08163,28.5714,16.3265)"
font-family="Helvetica" font-size="12" font-weight="400" font-style="normal" 
clip-path="url(#clip2742)" >
</g>

<g fill="none" stroke="#000000" stroke-opacity="1" stroke-width="1" stroke-linecap="square" stroke-linejoin="bevel" transform="matrix(1,0,0,1,0,0)"
font-family="Helvetica" font-size="12" font-weight="400" font-style="normal" 
>
</g>

<g fill="none" stroke="#000000" stroke-opacity="1" stroke-width="1" stroke-linecap="square" stroke-linejoin="bevel" transform="matrix(1,0,0,1,0,0)"
font-family="Helvetica" font-size="12" font-weight="400" font-style="normal" 
>
</g>

<g fill="none" stroke="#000000" stroke-opacity="1" stroke-width="1" stroke-linecap="square" stroke-linejoin="bevel" transform="matrix(1,0,0,1,0,0)"
font-family="Helvetica" font-size="12" font-weight="400" font-style="normal" 
clip-path="url(#clip2743)" >
<defs><clipPath id="clip2743"><path vector-effect="non-scaling-stroke" fill-rule="evenodd" d="M0,0 L200,0 L200,179 L0,179 L0,0z "/>
</clipPath></defs></g>

<g fill="none" stroke="#000000" stroke-opacity="1" stroke-width="1" stroke-linecap="square" stroke-linejoin="bevel" transform="matrix(1,0,0,1,0,0)"
font-family="Helvetica" font-size="12" font-weight="400" font-style="normal" 
>
</g>

<g fill="none" stroke="#000000" stroke-opacity="1" stroke-width="1" stroke-linecap="square" stroke-linejoin="bevel" transform="matrix(1,0,0,1,0,0)"
font-family="Helvetica" font-size="12" font-weight="400" font-style="normal" 
>
</g>

<g fill="none" stroke="#000000" stroke-opacity="1" stroke-width="1" stroke-linecap="square" stroke-linejoin="bevel" transform="matrix(1,0,0,1,0,0)"
font-family="Helvetica" font-size="12" font-weight="400" font-style="normal" 
clip-path="url(#clip2744)" >
<defs><clipPath id="clip2744"><path vector-effect="non-scaling-stroke" fill-rule="evenodd" d="M0,0 L1,0 L1,1 L0,1 L0,0z "/>
</clipPath></defs></g>

<g fill="none" stroke="#000000" stroke-opacity="1" stroke-width="1" stroke-linecap="square" stroke-linejoin="bevel" transform="matrix(1,0,0,1,0,0)"
font-family="Helvetica" font-size="12" font-weight="400" font-style="normal" 
>
</g>

<g fill="none" stroke="#000000" stroke-opacity="1" stroke-width="1" stroke-linecap="square" stroke-linejoin="bevel" transform="matrix(1,0,0,1,0,0)"
font-family="Helvetica" font-size="12" font-weight="400" font-style="normal" 
>
</g>
</g>
</svg>
