<?xml version="1.0" encoding="UTF-8" standalone="no"?>
<svg width="52.9167mm" height="16.6687mm"
 viewBox="0 0 200 63"
 xmlns="http://www.w3.org/2000/svg" xmlns:xlink="http://www.w3.org/1999/xlink"  version="1.2" baseProfile="tiny">
<defs>
</defs>
<g fill="none" stroke="black" stroke-width="1" fill-rule="evenodd" stroke-linecap="square" stroke-linejoin="bevel" >

<g fill="#ffffff" fill-opacity="0" stroke="none" transform="matrix(1,0,0,1,0,0)"
font-family="Helvetica" font-size="16" font-weight="400" font-style="normal" 
>
<path vector-effect="non-scaling-stroke" fill-rule="evenodd" d="M0,0 L200,0 L200,63 L0,63 L0,0z "/>
</g>

<g fill="none" stroke="#000000" stroke-opacity="1" stroke-width="1" stroke-linecap="square" stroke-linejoin="bevel" transform="matrix(1,0,0,1,0,0)"
font-family="Helvetica" font-size="16" font-weight="400" font-style="normal" 
>
</g>

<g fill="none" stroke="#000000" stroke-opacity="1" stroke-width="1" stroke-linecap="square" stroke-linejoin="bevel" transform="matrix(1,0,0,1,0,0)"
font-family="Helvetica" font-size="16" font-weight="400" font-style="normal" 
clip-path="url(#clip483)" >
<defs><clipPath id="clip483"><path vector-effect="non-scaling-stroke" fill-rule="evenodd" d="M0,0 L200,0 L200,63.3094 L0,63.3094 L0,0z "/>
</clipPath></defs></g>

<g fill="none" stroke="#000000" stroke-opacity="1" stroke-width="1" stroke-linecap="square" stroke-linejoin="bevel" transform="matrix(1.43885,0,0,1.43885,2.8777,2.8777)"
font-family="Helvetica" font-size="16" font-weight="400" font-style="normal" 
clip-path="url(#clip484)" >
<defs><clipPath id="clip484"><path vector-effect="non-scaling-stroke" fill-rule="evenodd" d="M-2,-2 L137,-2 L137,42 L-2,42 L-2,-2z "/>
</clipPath></defs></g>

<g fill="#61bdfc" fill-opacity="1" stroke="#000000" stroke-opacity="1" stroke-width="0.864558" stroke-linecap="butt" stroke-linejoin="miter" stroke-miterlimit="2" transform="matrix(1.43885,0,0,1.43885,2.8777,2.8777)"
font-family="Helvetica" font-size="16" font-weight="400" font-style="normal" 
clip-path="url(#clip484)" >
<path vector-effect="none" fill-rule="evenodd" d="M0,0 L135,0 L135,40 L0,40 L0,0z "/>
</g>

<g fill="none" stroke="#000000" stroke-opacity="1" stroke-width="1" stroke-linecap="square" stroke-linejoin="bevel" transform="matrix(1.43885,0,0,1.43885,2.8777,2.8777)"
font-family="Helvetica" font-size="16" font-weight="400" font-style="normal" 
clip-path="url(#clip484)" >
</g>

<g fill="none" stroke="#000000" stroke-opacity="1" stroke-width="1" stroke-linecap="square" stroke-linejoin="bevel" transform="matrix(1.43885,0,0,1.43885,2.8777,2.8777)"
font-family="Helvetica" font-size="16" font-weight="400" font-style="normal" 
clip-path="url(#clip484)" >
</g>

<g fill="none" stroke="#000000" stroke-opacity="1" stroke-width="1" stroke-linecap="square" stroke-linejoin="bevel" transform="matrix(1.43885,0,0,1.43885,2.8777,2.8777)"
font-family="Helvetica" font-size="16" font-weight="400" font-style="normal" 
clip-path="url(#clip485)" >
<defs><clipPath id="clip485"><path vector-effect="non-scaling-stroke" fill-rule="evenodd" d="M0,0 L135,0 L135,40 L0,40 L0,0z "/>
</clipPath></defs></g>

<g fill="none" stroke="#000000" stroke-opacity="1" stroke-width="1" stroke-linecap="square" stroke-linejoin="bevel" transform="matrix(1.43885,0,0,1.43885,99.2806,23.0216)"
font-family="FreeSans" font-size="10.1053" font-weight="400" font-style="normal" 
clip-path="url(#clip486)" >
<defs><clipPath id="clip486"><path vector-effect="none" fill-rule="evenodd" d="M-67,-14 L68,-14 L68,26 L-67,26 L-67,-14z "/>
</clipPath></defs></g>

<g fill="none" stroke="#000000" stroke-opacity="1" stroke-width="1" stroke-linecap="square" stroke-linejoin="bevel" transform="matrix(1.42386,0,0,1.42386,99.2806,23.0216)"
font-family="FreeSans" font-size="10.1053" font-weight="400" font-style="normal" 
clip-path="url(#clip487)" >
<defs><clipPath id="clip487"><path vector-effect="none" fill-rule="evenodd" d="M-68,-14 L68,-14 L68,26 L-68,26 L-68,-14z "/>
</clipPath></defs><text textLength="76" fill="#000000" fill-opacity="1" stroke="none" xml:space="preserve" x="-38.3906" y="3.04688" font-family="FreeSans" font-size="10.1053" font-weight="400" font-style="normal" 
 >Configure Model</text>
</g>

<g fill="none" stroke="#000000" stroke-opacity="1" stroke-width="1" stroke-linecap="square" stroke-linejoin="bevel" transform="matrix(1.43885,0,0,1.43885,99.2806,23.0216)"
font-family="FreeSans" font-size="10.1053" font-weight="400" font-style="normal" 
clip-path="url(#clip488)" >
<defs><clipPath id="clip488"><path vector-effect="none" fill-rule="evenodd" d="M-67,-14 L68,-14 L68,26 L-67,26 L-67,-14z "/>
</clipPath></defs></g>

<g fill="none" stroke="#000000" stroke-opacity="1" stroke-width="1" stroke-linecap="square" stroke-linejoin="bevel" transform="matrix(1.43885,0,0,1.43885,99.2806,40.2878)"
font-family="FreeSans" font-size="10.1053" font-weight="400" font-style="normal" 
clip-path="url(#clip489)" >
<defs><clipPath id="clip489"><path vector-effect="none" fill-rule="evenodd" d="M-67,-26 L68,-26 L68,14 L-67,14 L-67,-26z "/>
</clipPath></defs></g>

<g fill="none" stroke="#000000" stroke-opacity="1" stroke-width="1" stroke-linecap="square" stroke-linejoin="bevel" transform="matrix(1.42386,0,0,1.42386,99.2806,40.2878)"
font-family="FreeSans" font-size="10.1053" font-weight="400" font-style="normal" 
clip-path="url(#clip490)" >
<defs><clipPath id="clip490"><path vector-effect="none" fill-rule="evenodd" d="M-68,-26 L68,-26 L68,14 L-68,14 L-68,-26z "/>
</clipPath></defs><text textLength="111" fill="#000000" fill-opacity="1" stroke="none" xml:space="preserve" x="-55.5781" y="3.04688" font-family="FreeSans" font-size="10.1053" font-weight="400" font-style="normal" 
 >(double-click to activate)</text>
</g>

<g fill="none" stroke="#000000" stroke-opacity="1" stroke-width="1" stroke-linecap="square" stroke-linejoin="bevel" transform="matrix(1.43885,0,0,1.43885,99.2806,40.2878)"
font-family="FreeSans" font-size="10.1053" font-weight="400" font-style="normal" 
clip-path="url(#clip491)" >
<defs><clipPath id="clip491"><path vector-effect="none" fill-rule="evenodd" d="M-67,-26 L68,-26 L68,14 L-67,14 L-67,-26z "/>
</clipPath></defs></g>

<g fill="none" stroke="#000000" stroke-opacity="1" stroke-width="1" stroke-linecap="square" stroke-linejoin="bevel" transform="matrix(1.45399,0,0,1.45399,99.2806,40.2878)"
font-family="FreeSans" font-size="10.1053" font-weight="400" font-style="normal" 
clip-path="url(#clip492)" >
<defs><clipPath id="clip492"><path vector-effect="none" fill-rule="evenodd" d="M-2,-2 L137,-2 L137,42 L-2,42 L-2,-2z "/>
</clipPath></defs></g>

<g fill="none" stroke="#000000" stroke-opacity="1" stroke-width="1" stroke-linecap="square" stroke-linejoin="bevel" transform="matrix(1,0,0,1,0,0)"
font-family="FreeSans" font-size="10.1053" font-weight="400" font-style="normal" 
clip-path="url(#clip492)" >
</g>

<g fill="none" stroke="#000000" stroke-opacity="1" stroke-width="1" stroke-linecap="square" stroke-linejoin="bevel" transform="matrix(1.43885,0,0,1.43885,2.8777,2.8777)"
font-family="Helvetica" font-size="16" font-weight="400" font-style="normal" 
clip-path="url(#clip492)" >
</g>

<g fill="none" stroke="#000000" stroke-opacity="1" stroke-width="1" stroke-linecap="square" stroke-linejoin="bevel" transform="matrix(1.43885,0,0,1.43885,2.8777,2.8777)"
font-family="Helvetica" font-size="16" font-weight="400" font-style="normal" 
clip-path="url(#clip492)" >
</g>

<g fill="none" stroke="#000000" stroke-opacity="1" stroke-width="0.864558" stroke-linecap="butt" stroke-linejoin="miter" stroke-miterlimit="2" transform="matrix(1.43885,0,0,1.43885,2.8777,2.8777)"
font-family="Helvetica" font-size="16" font-weight="400" font-style="normal" 
clip-path="url(#clip492)" >
<path vector-effect="none" fill-rule="evenodd" d="M0,0 L135,0 L135,40 L0,40 L0,0z "/>
</g>

<g fill="none" stroke="#000000" stroke-opacity="1" stroke-width="1" stroke-linecap="square" stroke-linejoin="bevel" transform="matrix(1.43885,0,0,1.43885,2.8777,2.8777)"
font-family="Helvetica" font-size="16" font-weight="400" font-style="normal" 
clip-path="url(#clip492)" >
</g>

<g fill="none" stroke="#000000" stroke-opacity="1" stroke-width="1" stroke-linecap="square" stroke-linejoin="bevel" transform="matrix(1.43885,0,0,1.43885,100,63.3094)"
font-family="Helvetica" font-size="16" font-weight="400" font-style="normal" 
clip-path="url(#clip493)" >
<defs><clipPath id="clip493"><path vector-effect="non-scaling-stroke" fill-rule="evenodd" d="M-69.5,-44 L69.5,-44 L69.5,-7.10543e-15 L-69.5,-7.10543e-15 L-69.5,-44z "/>
</clipPath></defs></g>

<g fill="none" stroke="#000000" stroke-opacity="1" stroke-width="1" stroke-linecap="square" stroke-linejoin="bevel" transform="matrix(1.43885,0,0,1.43885,100,63.3094)"
font-family="Helvetica" font-size="16" font-weight="400" font-style="normal" 
clip-path="url(#clip493)" >
</g>

<g fill="none" stroke="#000000" stroke-opacity="1" stroke-width="1" stroke-linecap="square" stroke-linejoin="bevel" transform="matrix(1,0,0,1,0,0)"
font-family="Helvetica" font-size="16" font-weight="400" font-style="normal" 
>
</g>

<g fill="none" stroke="#000000" stroke-opacity="1" stroke-width="1" stroke-linecap="square" stroke-linejoin="bevel" transform="matrix(1,0,0,1,0,0)"
font-family="Helvetica" font-size="16" font-weight="400" font-style="normal" 
>
</g>

<g fill="none" stroke="#000000" stroke-opacity="1" stroke-width="1" stroke-linecap="square" stroke-linejoin="bevel" transform="matrix(1,0,0,1,0,0)"
font-family="Helvetica" font-size="16" font-weight="400" font-style="normal" 
clip-path="url(#clip494)" >
<defs><clipPath id="clip494"><path vector-effect="non-scaling-stroke" fill-rule="evenodd" d="M0,0 L200,0 L200,63 L0,63 L0,0z "/>
</clipPath></defs></g>

<g fill="none" stroke="#000000" stroke-opacity="1" stroke-width="1" stroke-linecap="square" stroke-linejoin="bevel" transform="matrix(1,0,0,1,0,0)"
font-family="Helvetica" font-size="16" font-weight="400" font-style="normal" 
>
</g>

<g fill="none" stroke="#000000" stroke-opacity="1" stroke-width="1" stroke-linecap="square" stroke-linejoin="bevel" transform="matrix(1,0,0,1,0,0)"
font-family="Helvetica" font-size="16" font-weight="400" font-style="normal" 
>
</g>

<g fill="none" stroke="#000000" stroke-opacity="1" stroke-width="1" stroke-linecap="square" stroke-linejoin="bevel" transform="matrix(1,0,0,1,0,0)"
font-family="Helvetica" font-size="16" font-weight="400" font-style="normal" 
clip-path="url(#clip495)" >
<defs><clipPath id="clip495"><path vector-effect="non-scaling-stroke" fill-rule="evenodd" d="M0,0 L1,0 L1,1 L0,1 L0,0z "/>
</clipPath></defs></g>

<g fill="none" stroke="#000000" stroke-opacity="1" stroke-width="1" stroke-linecap="square" stroke-linejoin="bevel" transform="matrix(1,0,0,1,0,0)"
font-family="Helvetica" font-size="16" font-weight="400" font-style="normal" 
>
</g>

<g fill="none" stroke="#000000" stroke-opacity="1" stroke-width="1" stroke-linecap="square" stroke-linejoin="bevel" transform="matrix(1,0,0,1,0,0)"
font-family="Helvetica" font-size="16" font-weight="400" font-style="normal" 
>
</g>
</g>
</svg>
