<?xml version="1.0" encoding="UTF-8" standalone="no"?>
<svg width="70.5556mm" height="65.2639mm"
 viewBox="0 0 200 185"
 xmlns="http://www.w3.org/2000/svg" xmlns:xlink="http://www.w3.org/1999/xlink"  version="1.2" baseProfile="tiny">
<defs>
</defs>
<g fill="none" stroke="black" stroke-width="1" fill-rule="evenodd" stroke-linecap="square" stroke-linejoin="bevel" >

<g fill="#ffffff" fill-opacity="0" stroke="none" transform="matrix(1,0,0,1,0,0)"
font-family="Helvetica" font-size="12" font-weight="400" font-style="normal" 
>
<path vector-effect="non-scaling-stroke" fill-rule="evenodd" d="M0,0 L200,0 L200,185 L0,185 L0,0z "/>
</g>

<g fill="none" stroke="#000000" stroke-opacity="1" stroke-width="1" stroke-linecap="square" stroke-linejoin="bevel" transform="matrix(1,0,0,1,0,0)"
font-family="Helvetica" font-size="12" font-weight="400" font-style="normal" 
>
</g>

<g fill="none" stroke="#000000" stroke-opacity="1" stroke-width="1" stroke-linecap="square" stroke-linejoin="bevel" transform="matrix(1,0,0,1,0,0)"
font-family="Helvetica" font-size="12" font-weight="400" font-style="normal" 
clip-path="url(#clip90)" >
<defs><clipPath id="clip90"><path vector-effect="non-scaling-stroke" fill-rule="evenodd" d="M0,0 L200,0 L200,185.075 L0,185.075 L0,0z "/>
</clipPath></defs></g>

<g fill="none" stroke="#000000" stroke-opacity="1" stroke-width="1" stroke-linecap="square" stroke-linejoin="bevel" transform="matrix(-1.49254,0,0,-1.49254,10.4478,92.5373)"
font-family="Helvetica" font-size="12" font-weight="400" font-style="normal" 
clip-path="url(#clip91)" >
<defs><clipPath id="clip91"><path vector-effect="non-scaling-stroke" fill-rule="evenodd" d="M7,62 L-127,62 L-127,-62 L7,-62 L7,62z "/>
</clipPath></defs></g>

<g fill="#000000" fill-opacity="0" stroke="#000000" stroke-opacity="1" stroke-width="2" stroke-linecap="round" stroke-linejoin="miter" stroke-miterlimit="2" transform="matrix(-1.49254,0,0,-1.49254,10.4478,92.5373)"
font-family="Helvetica" font-size="12" font-weight="400" font-style="normal" 
clip-path="url(#clip91)" >
<path vector-effect="none" fill-rule="evenodd" d="M0,-5 L5,0 L0,5"/>
</g>

<g fill="none" stroke="#000000" stroke-opacity="1" stroke-width="1" stroke-linecap="square" stroke-linejoin="bevel" transform="matrix(-1.49254,0,0,-1.49254,10.4478,92.5373)"
font-family="Helvetica" font-size="12" font-weight="400" font-style="normal" 
clip-path="url(#clip91)" >
</g>

<g fill="none" stroke="#000000" stroke-opacity="1" stroke-width="1" stroke-linecap="square" stroke-linejoin="bevel" transform="matrix(1.49254,0,0,1.49254,189.552,114.925)"
font-family="Helvetica" font-size="12" font-weight="400" font-style="normal" 
clip-path="url(#clip92)" >
<defs><clipPath id="clip92"><path vector-effect="non-scaling-stroke" fill-rule="evenodd" d="M-127,-77 L7,-77 L7,47 L-127,47 L-127,-77z "/>
</clipPath></defs></g>

<g fill="#000000" fill-opacity="0" stroke="#000000" stroke-opacity="1" stroke-width="2" stroke-linecap="round" stroke-linejoin="miter" stroke-miterlimit="2" transform="matrix(1.49254,0,0,1.49254,189.552,114.925)"
font-family="Helvetica" font-size="12" font-weight="400" font-style="normal" 
clip-path="url(#clip92)" >
<path vector-effect="none" fill-rule="evenodd" d="M5,-5 L0,0 L5,5"/>
</g>

<g fill="none" stroke="#000000" stroke-opacity="1" stroke-width="1" stroke-linecap="square" stroke-linejoin="bevel" transform="matrix(1.49254,0,0,1.49254,189.552,114.925)"
font-family="Helvetica" font-size="12" font-weight="400" font-style="normal" 
clip-path="url(#clip92)" >
</g>

<g fill="none" stroke="#000000" stroke-opacity="1" stroke-width="1" stroke-linecap="square" stroke-linejoin="bevel" transform="matrix(1.49254,0,0,1.49254,189.552,159.701)"
font-family="Helvetica" font-size="12" font-weight="400" font-style="normal" 
clip-path="url(#clip93)" >
<defs><clipPath id="clip93"><path vector-effect="non-scaling-stroke" fill-rule="evenodd" d="M-127,-107 L7,-107 L7,17 L-127,17 L-127,-107z "/>
</clipPath></defs></g>

<g fill="#000000" fill-opacity="0" stroke="#000000" stroke-opacity="1" stroke-width="2" stroke-linecap="round" stroke-linejoin="miter" stroke-miterlimit="2" transform="matrix(1.49254,0,0,1.49254,189.552,159.701)"
font-family="Helvetica" font-size="12" font-weight="400" font-style="normal" 
clip-path="url(#clip93)" >
<path vector-effect="none" fill-rule="evenodd" d="M5,-5 L0,0 L5,5"/>
</g>

<g fill="none" stroke="#000000" stroke-opacity="1" stroke-width="1" stroke-linecap="square" stroke-linejoin="bevel" transform="matrix(1.49254,0,0,1.49254,189.552,159.701)"
font-family="Helvetica" font-size="12" font-weight="400" font-style="normal" 
clip-path="url(#clip93)" >
</g>

<g fill="none" stroke="#000000" stroke-opacity="1" stroke-width="1" stroke-linecap="square" stroke-linejoin="bevel" transform="matrix(1.49254,0,0,1.49254,189.552,70.1493)"
font-family="Helvetica" font-size="12" font-weight="400" font-style="normal" 
clip-path="url(#clip94)" >
<defs><clipPath id="clip94"><path vector-effect="non-scaling-stroke" fill-rule="evenodd" d="M-127,-47 L7,-47 L7,77 L-127,77 L-127,-47z "/>
</clipPath></defs></g>

<g fill="#000000" fill-opacity="0" stroke="#000000" stroke-opacity="1" stroke-width="2" stroke-linecap="round" stroke-linejoin="miter" stroke-miterlimit="2" transform="matrix(1.49254,0,0,1.49254,189.552,70.1493)"
font-family="Helvetica" font-size="12" font-weight="400" font-style="normal" 
clip-path="url(#clip94)" >
<path vector-effect="none" fill-rule="evenodd" d="M5,-5 L0,0 L5,5"/>
</g>

<g fill="none" stroke="#000000" stroke-opacity="1" stroke-width="1" stroke-linecap="square" stroke-linejoin="bevel" transform="matrix(1.49254,0,0,1.49254,189.552,70.1493)"
font-family="Helvetica" font-size="12" font-weight="400" font-style="normal" 
clip-path="url(#clip94)" >
</g>

<g fill="none" stroke="#000000" stroke-opacity="1" stroke-width="1" stroke-linecap="square" stroke-linejoin="bevel" transform="matrix(1.49254,0,0,1.49254,189.552,25.3731)"
font-family="Helvetica" font-size="12" font-weight="400" font-style="normal" 
clip-path="url(#clip95)" >
<defs><clipPath id="clip95"><path vector-effect="non-scaling-stroke" fill-rule="evenodd" d="M-127,-17 L7,-17 L7,107 L-127,107 L-127,-17z "/>
</clipPath></defs></g>

<g fill="#000000" fill-opacity="0" stroke="#000000" stroke-opacity="1" stroke-width="2" stroke-linecap="round" stroke-linejoin="miter" stroke-miterlimit="2" transform="matrix(1.49254,0,0,1.49254,189.552,25.3731)"
font-family="Helvetica" font-size="12" font-weight="400" font-style="normal" 
clip-path="url(#clip95)" >
<path vector-effect="none" fill-rule="evenodd" d="M5,-5 L0,0 L5,5"/>
</g>

<g fill="none" stroke="#000000" stroke-opacity="1" stroke-width="1" stroke-linecap="square" stroke-linejoin="bevel" transform="matrix(1.49254,0,0,1.49254,189.552,25.3731)"
font-family="Helvetica" font-size="12" font-weight="400" font-style="normal" 
clip-path="url(#clip95)" >
</g>

<g fill="none" stroke="#000000" stroke-opacity="1" stroke-width="1" stroke-linecap="square" stroke-linejoin="bevel" transform="matrix(1.49254,0,0,1.49254,10.4478,2.98507)"
font-family="Helvetica" font-size="12" font-weight="400" font-style="normal" 
clip-path="url(#clip96)" >
<defs><clipPath id="clip96"><path vector-effect="non-scaling-stroke" fill-rule="evenodd" d="M-7,-2 L127,-2 L127,122 L-7,122 L-7,-2z "/>
</clipPath></defs></g>

<g fill="#ffffff" fill-opacity="1" stroke="none" transform="matrix(1.49254,0,0,1.49254,10.4478,2.98507)"
font-family="Helvetica" font-size="12" font-weight="400" font-style="normal" 
clip-path="url(#clip96)" >
<path vector-effect="none" fill-rule="evenodd" d="M0,0 L120,0 L120,120 L0,120 L0,0z "/>
</g>

<g fill="none" stroke="#000000" stroke-opacity="1" stroke-width="1" stroke-linecap="square" stroke-linejoin="bevel" transform="matrix(1.49254,0,0,1.49254,10.4478,2.98507)"
font-family="Helvetica" font-size="12" font-weight="400" font-style="normal" 
clip-path="url(#clip96)" >
</g>

<g fill="none" stroke="#000000" stroke-opacity="1" stroke-width="1" stroke-linecap="square" stroke-linejoin="bevel" transform="matrix(1.49254,0,0,1.49254,10.4478,2.98507)"
font-family="Helvetica" font-size="12" font-weight="400" font-style="normal" 
clip-path="url(#clip96)" >
</g>

<g fill="none" stroke="#000000" stroke-opacity="1" stroke-width="1" stroke-linecap="square" stroke-linejoin="bevel" transform="matrix(1.49254,0,0,1.49254,10.4478,2.98507)"
font-family="Helvetica" font-size="12" font-weight="400" font-style="normal" 
clip-path="url(#clip97)" >
<defs><clipPath id="clip97"><path vector-effect="non-scaling-stroke" fill-rule="evenodd" d="M0,0 L120,0 L120,120 L0,120 L0,0z "/>
</clipPath></defs></g>

<g fill="none" stroke="#000000" stroke-opacity="1" stroke-width="1" stroke-linecap="square" stroke-linejoin="bevel" transform="matrix(1.49254,0,0,1.49254,100,83.5821)"
font-family="Helvetica" font-size="7.5" font-weight="400" font-style="normal" 
clip-path="url(#clip98)" >
<defs><clipPath id="clip98"><path vector-effect="none" fill-rule="evenodd" d="M-60,-54 L60,-54 L60,66 L-60,66 L-60,-54z "/>
</clipPath></defs></g>

<g fill="none" stroke="#000000" stroke-opacity="1" stroke-width="1" stroke-linecap="square" stroke-linejoin="bevel" transform="matrix(1.99005,0,0,1.99005,100,83.5821)"
font-family="Helvetica" font-size="7.5" font-weight="400" font-style="normal" 
clip-path="url(#clip99)" >
<defs><clipPath id="clip99"><path vector-effect="none" fill-rule="evenodd" d="M-45,-40 L45,-40 L45,50 L-45,50 L-45,-40z "/>
</clipPath></defs><text textLength="27" fill="#000000" fill-opacity="1" stroke="none" xml:space="preserve" x="-14.25" y="2.25" font-family="Helvetica" font-size="7.5" font-weight="400" font-style="normal" 
 >Multiple</text>
</g>

<g fill="none" stroke="#000000" stroke-opacity="1" stroke-width="1" stroke-linecap="square" stroke-linejoin="bevel" transform="matrix(1.49254,0,0,1.49254,100,83.5821)"
font-family="Helvetica" font-size="7.5" font-weight="400" font-style="normal" 
clip-path="url(#clip100)" >
<defs><clipPath id="clip100"><path vector-effect="none" fill-rule="evenodd" d="M-60,-54 L60,-54 L60,66 L-60,66 L-60,-54z "/>
</clipPath></defs></g>

<g fill="none" stroke="#000000" stroke-opacity="1" stroke-width="1" stroke-linecap="square" stroke-linejoin="bevel" transform="matrix(1.49254,0,0,1.49254,100,101.493)"
font-family="Helvetica" font-size="7.5" font-weight="400" font-style="normal" 
clip-path="url(#clip101)" >
<defs><clipPath id="clip101"><path vector-effect="none" fill-rule="evenodd" d="M-60,-66 L60,-66 L60,54 L-60,54 L-60,-66z "/>
</clipPath></defs></g>

<g fill="none" stroke="#000000" stroke-opacity="1" stroke-width="1" stroke-linecap="square" stroke-linejoin="bevel" transform="matrix(1.99005,0,0,1.99005,100,101.493)"
font-family="Helvetica" font-size="7.5" font-weight="400" font-style="normal" 
clip-path="url(#clip102)" >
<defs><clipPath id="clip102"><path vector-effect="none" fill-rule="evenodd" d="M-45,-49 L45,-49 L45,41 L-45,41 L-45,-49z "/>
</clipPath></defs><text textLength="18" fill="#000000" fill-opacity="1" stroke="none" xml:space="preserve" x="-8.25" y="2.25" font-family="Helvetica" font-size="7.5" font-weight="400" font-style="normal" 
 >MPC</text>
</g>

<g fill="none" stroke="#000000" stroke-opacity="1" stroke-width="1" stroke-linecap="square" stroke-linejoin="bevel" transform="matrix(1.49254,0,0,1.49254,100,101.493)"
font-family="Helvetica" font-size="7.5" font-weight="400" font-style="normal" 
clip-path="url(#clip103)" >
<defs><clipPath id="clip103"><path vector-effect="none" fill-rule="evenodd" d="M-60,-66 L60,-66 L60,54 L-60,54 L-60,-66z "/>
</clipPath></defs></g>

<g fill="none" stroke="#000000" stroke-opacity="1" stroke-width="1" stroke-linecap="square" stroke-linejoin="bevel" transform="matrix(1.49254,0,0,1.49254,14.9254,92.5373)"
font-family="Helvetica" font-size="7.5" font-weight="400" font-style="normal" 
clip-path="url(#clip104)" >
<defs><clipPath id="clip104"><path vector-effect="none" fill-rule="evenodd" d="M-3,-60 L117,-60 L117,60 L-3,60 L-3,-60z "/>
</clipPath></defs></g>

<g fill="none" stroke="#000000" stroke-opacity="1" stroke-width="1" stroke-linecap="square" stroke-linejoin="bevel" transform="matrix(1.99005,0,0,1.99005,14.9254,92.5373)"
font-family="Helvetica" font-size="7.5" font-weight="400" font-style="normal" 
clip-path="url(#clip105)" >
<defs><clipPath id="clip105"><path vector-effect="none" fill-rule="evenodd" d="M-2,-45 L88,-45 L88,45 L-2,45 L-2,-45z "/>
</clipPath></defs><text textLength="9" fill="#000000" fill-opacity="1" stroke="none" xml:space="preserve" x="0" y="2.25" font-family="Helvetica" font-size="7.5" font-weight="400" font-style="normal" 
 >mv</text>
</g>

<g fill="none" stroke="#000000" stroke-opacity="1" stroke-width="1" stroke-linecap="square" stroke-linejoin="bevel" transform="matrix(1.49254,0,0,1.49254,14.9254,92.5373)"
font-family="Helvetica" font-size="7.5" font-weight="400" font-style="normal" 
clip-path="url(#clip106)" >
<defs><clipPath id="clip106"><path vector-effect="none" fill-rule="evenodd" d="M-3,-60 L117,-60 L117,60 L-3,60 L-3,-60z "/>
</clipPath></defs></g>

<g fill="none" stroke="#000000" stroke-opacity="1" stroke-width="1" stroke-linecap="square" stroke-linejoin="bevel" transform="matrix(1.49254,0,0,1.49254,185.075,25.3731)"
font-family="Helvetica" font-size="7.5" font-weight="400" font-style="normal" 
clip-path="url(#clip107)" >
<defs><clipPath id="clip107"><path vector-effect="none" fill-rule="evenodd" d="M-117,-15 L3,-15 L3,105 L-117,105 L-117,-15z "/>
</clipPath></defs></g>

<g fill="none" stroke="#000000" stroke-opacity="1" stroke-width="1" stroke-linecap="square" stroke-linejoin="bevel" transform="matrix(1.99005,0,0,1.99005,185.075,25.3731)"
font-family="Helvetica" font-size="7.5" font-weight="400" font-style="normal" 
clip-path="url(#clip108)" >
<defs><clipPath id="clip108"><path vector-effect="none" fill-rule="evenodd" d="M-88,-11 L2,-11 L2,79 L-88,79 L-88,-11z "/>
</clipPath></defs><text textLength="21" fill="#000000" fill-opacity="1" stroke="none" xml:space="preserve" x="-21" y="2.25" font-family="Helvetica" font-size="7.5" font-weight="400" font-style="normal" 
 >switch</text>
</g>

<g fill="none" stroke="#000000" stroke-opacity="1" stroke-width="1" stroke-linecap="square" stroke-linejoin="bevel" transform="matrix(1.49254,0,0,1.49254,185.075,25.3731)"
font-family="Helvetica" font-size="7.5" font-weight="400" font-style="normal" 
clip-path="url(#clip109)" >
<defs><clipPath id="clip109"><path vector-effect="none" fill-rule="evenodd" d="M-117,-15 L3,-15 L3,105 L-117,105 L-117,-15z "/>
</clipPath></defs></g>

<g fill="none" stroke="#000000" stroke-opacity="1" stroke-width="1" stroke-linecap="square" stroke-linejoin="bevel" transform="matrix(1.49254,0,0,1.49254,185.075,70.1493)"
font-family="Helvetica" font-size="7.5" font-weight="400" font-style="normal" 
clip-path="url(#clip110)" >
<defs><clipPath id="clip110"><path vector-effect="none" fill-rule="evenodd" d="M-117,-45 L3,-45 L3,75 L-117,75 L-117,-45z "/>
</clipPath></defs></g>

<g fill="none" stroke="#000000" stroke-opacity="1" stroke-width="1" stroke-linecap="square" stroke-linejoin="bevel" transform="matrix(1.99005,0,0,1.99005,185.075,70.1493)"
font-family="Helvetica" font-size="7.5" font-weight="400" font-style="normal" 
clip-path="url(#clip111)" >
<defs><clipPath id="clip111"><path vector-effect="none" fill-rule="evenodd" d="M-88,-34 L2,-34 L2,56 L-88,56 L-88,-34z "/>
</clipPath></defs><text textLength="10" fill="#000000" fill-opacity="1" stroke="none" xml:space="preserve" x="-11.25" y="2.25" font-family="Helvetica" font-size="7.5" font-weight="400" font-style="normal" 
 >mo</text>
</g>

<g fill="none" stroke="#000000" stroke-opacity="1" stroke-width="1" stroke-linecap="square" stroke-linejoin="bevel" transform="matrix(1.49254,0,0,1.49254,185.075,70.1493)"
font-family="Helvetica" font-size="7.5" font-weight="400" font-style="normal" 
clip-path="url(#clip112)" >
<defs><clipPath id="clip112"><path vector-effect="none" fill-rule="evenodd" d="M-117,-45 L3,-45 L3,75 L-117,75 L-117,-45z "/>
</clipPath></defs></g>

<g fill="none" stroke="#000000" stroke-opacity="1" stroke-width="1" stroke-linecap="square" stroke-linejoin="bevel" transform="matrix(1.49254,0,0,1.49254,185.075,114.925)"
font-family="Helvetica" font-size="7.5" font-weight="400" font-style="normal" 
clip-path="url(#clip113)" >
<defs><clipPath id="clip113"><path vector-effect="none" fill-rule="evenodd" d="M-117,-75 L3,-75 L3,45 L-117,45 L-117,-75z "/>
</clipPath></defs></g>

<g fill="none" stroke="#000000" stroke-opacity="1" stroke-width="1" stroke-linecap="square" stroke-linejoin="bevel" transform="matrix(1.99005,0,0,1.99005,185.075,114.925)"
font-family="Helvetica" font-size="7.5" font-weight="400" font-style="normal" 
clip-path="url(#clip114)" >
<defs><clipPath id="clip114"><path vector-effect="none" fill-rule="evenodd" d="M-88,-56 L2,-56 L2,34 L-88,34 L-88,-56z "/>
</clipPath></defs><text textLength="10" fill="#000000" fill-opacity="1" stroke="none" xml:space="preserve" x="-9" y="2.25" font-family="Helvetica" font-size="7.5" font-weight="400" font-style="normal" 
 >ref</text>
</g>

<g fill="none" stroke="#000000" stroke-opacity="1" stroke-width="1" stroke-linecap="square" stroke-linejoin="bevel" transform="matrix(1.49254,0,0,1.49254,185.075,114.925)"
font-family="Helvetica" font-size="7.5" font-weight="400" font-style="normal" 
clip-path="url(#clip115)" >
<defs><clipPath id="clip115"><path vector-effect="none" fill-rule="evenodd" d="M-117,-75 L3,-75 L3,45 L-117,45 L-117,-75z "/>
</clipPath></defs></g>

<g fill="none" stroke="#000000" stroke-opacity="1" stroke-width="1" stroke-linecap="square" stroke-linejoin="bevel" transform="matrix(1.49254,0,0,1.49254,185.075,159.701)"
font-family="Helvetica" font-size="7.5" font-weight="400" font-style="normal" 
clip-path="url(#clip116)" >
<defs><clipPath id="clip116"><path vector-effect="none" fill-rule="evenodd" d="M-117,-105 L3,-105 L3,15 L-117,15 L-117,-105z "/>
</clipPath></defs></g>

<g fill="none" stroke="#000000" stroke-opacity="1" stroke-width="1" stroke-linecap="square" stroke-linejoin="bevel" transform="matrix(1.99005,0,0,1.99005,185.075,159.701)"
font-family="Helvetica" font-size="7.5" font-weight="400" font-style="normal" 
clip-path="url(#clip117)" >
<defs><clipPath id="clip117"><path vector-effect="none" fill-rule="evenodd" d="M-88,-79 L2,-79 L2,11 L-88,11 L-88,-79z "/>
</clipPath></defs><text textLength="10" fill="#000000" fill-opacity="1" stroke="none" xml:space="preserve" x="-11.25" y="2.25" font-family="Helvetica" font-size="7.5" font-weight="400" font-style="normal" 
 >md</text>
</g>

<g fill="none" stroke="#000000" stroke-opacity="1" stroke-width="1" stroke-linecap="square" stroke-linejoin="bevel" transform="matrix(1.49254,0,0,1.49254,185.075,159.701)"
font-family="Helvetica" font-size="7.5" font-weight="400" font-style="normal" 
clip-path="url(#clip118)" >
<defs><clipPath id="clip118"><path vector-effect="none" fill-rule="evenodd" d="M-117,-105 L3,-105 L3,15 L-117,15 L-117,-105z "/>
</clipPath></defs></g>

<g fill="none" stroke="#000000" stroke-opacity="1" stroke-width="1" stroke-linecap="square" stroke-linejoin="bevel" transform="matrix(1.1194,0,0,1.1194,185.075,159.701)"
font-family="Helvetica" font-size="7.5" font-weight="400" font-style="normal" 
clip-path="url(#clip119)" >
<defs><clipPath id="clip119"><path vector-effect="none" fill-rule="evenodd" d="M-7,-2 L127,-2 L127,122 L-7,122 L-7,-2z "/>
</clipPath></defs></g>

<g fill="none" stroke="#000000" stroke-opacity="1" stroke-width="1" stroke-linecap="square" stroke-linejoin="bevel" transform="matrix(1,0,0,1,0,0)"
font-family="Helvetica" font-size="7.5" font-weight="400" font-style="normal" 
clip-path="url(#clip119)" >
</g>

<g fill="none" stroke="#000000" stroke-opacity="1" stroke-width="1" stroke-linecap="square" stroke-linejoin="bevel" transform="matrix(1.49254,0,0,1.49254,10.4478,2.98507)"
font-family="Helvetica" font-size="12" font-weight="400" font-style="normal" 
clip-path="url(#clip119)" >
</g>

<g fill="none" stroke="#000000" stroke-opacity="1" stroke-width="1" stroke-linecap="square" stroke-linejoin="bevel" transform="matrix(1.49254,0,0,1.49254,10.4478,2.98507)"
font-family="Helvetica" font-size="12" font-weight="400" font-style="normal" 
clip-path="url(#clip119)" >
</g>

<g fill="none" stroke="#000000" stroke-opacity="1" stroke-width="0.851981" stroke-linecap="butt" stroke-linejoin="miter" stroke-miterlimit="2" transform="matrix(1.49254,0,0,1.49254,10.4478,2.98507)"
font-family="Helvetica" font-size="12" font-weight="400" font-style="normal" 
clip-path="url(#clip119)" >
<path vector-effect="none" fill-rule="evenodd" d="M0,0 L120,0 L120,120 L0,120 L0,0z "/>
</g>

<g fill="none" stroke="#000000" stroke-opacity="1" stroke-width="1" stroke-linecap="square" stroke-linejoin="bevel" transform="matrix(1.49254,0,0,1.49254,10.4478,2.98507)"
font-family="Helvetica" font-size="12" font-weight="400" font-style="normal" 
clip-path="url(#clip119)" >
</g>

<g fill="none" stroke="#000000" stroke-opacity="1" stroke-width="1" stroke-linecap="square" stroke-linejoin="bevel" transform="matrix(1,0,0,1,0,0)"
font-family="Helvetica" font-size="12" font-weight="400" font-style="normal" 
>
</g>

<g fill="none" stroke="#000000" stroke-opacity="1" stroke-width="1" stroke-linecap="square" stroke-linejoin="bevel" transform="matrix(1,0,0,1,0,0)"
font-family="Helvetica" font-size="12" font-weight="400" font-style="normal" 
>
</g>

<g fill="none" stroke="#000000" stroke-opacity="1" stroke-width="1" stroke-linecap="square" stroke-linejoin="bevel" transform="matrix(1,0,0,1,0,0)"
font-family="Helvetica" font-size="12" font-weight="400" font-style="normal" 
clip-path="url(#clip120)" >
<defs><clipPath id="clip120"><path vector-effect="non-scaling-stroke" fill-rule="evenodd" d="M0,0 L200,0 L200,185 L0,185 L0,0z "/>
</clipPath></defs></g>

<g fill="none" stroke="#000000" stroke-opacity="1" stroke-width="1" stroke-linecap="square" stroke-linejoin="bevel" transform="matrix(1,0,0,1,0,0)"
font-family="Helvetica" font-size="12" font-weight="400" font-style="normal" 
>
</g>

<g fill="none" stroke="#000000" stroke-opacity="1" stroke-width="1" stroke-linecap="square" stroke-linejoin="bevel" transform="matrix(1,0,0,1,0,0)"
font-family="Helvetica" font-size="12" font-weight="400" font-style="normal" 
>
</g>

<g fill="none" stroke="#000000" stroke-opacity="1" stroke-width="1" stroke-linecap="square" stroke-linejoin="bevel" transform="matrix(1,0,0,1,0,0)"
font-family="Helvetica" font-size="12" font-weight="400" font-style="normal" 
clip-path="url(#clip121)" >
<defs><clipPath id="clip121"><path vector-effect="non-scaling-stroke" fill-rule="evenodd" d="M0,0 L1,0 L1,1 L0,1 L0,0z "/>
</clipPath></defs></g>

<g fill="none" stroke="#000000" stroke-opacity="1" stroke-width="1" stroke-linecap="square" stroke-linejoin="bevel" transform="matrix(1,0,0,1,0,0)"
font-family="Helvetica" font-size="12" font-weight="400" font-style="normal" 
>
</g>

<g fill="none" stroke="#000000" stroke-opacity="1" stroke-width="1" stroke-linecap="square" stroke-linejoin="bevel" transform="matrix(1,0,0,1,0,0)"
font-family="Helvetica" font-size="12" font-weight="400" font-style="normal" 
>
</g>
</g>
</svg>
