<?xml version="1.0" encoding="UTF-8" standalone="no"?>
<svg width="52.9167mm" height="30.1625mm"
 viewBox="0 0 200 114"
 xmlns="http://www.w3.org/2000/svg" xmlns:xlink="http://www.w3.org/1999/xlink"  version="1.2" baseProfile="tiny">
<defs>
</defs>
<g fill="none" stroke="black" stroke-width="1" fill-rule="evenodd" stroke-linecap="square" stroke-linejoin="bevel" >

<g fill="#ffffff" fill-opacity="0" stroke="none" transform="matrix(1,0,0,1,0,0)"
font-family="Helvetica" font-size="16" font-weight="400" font-style="normal" 
>
<path vector-effect="non-scaling-stroke" fill-rule="evenodd" d="M0,0 L200,0 L200,114 L0,114 L0,0z "/>
</g>

<g fill="none" stroke="#000000" stroke-opacity="1" stroke-width="1" stroke-linecap="square" stroke-linejoin="bevel" transform="matrix(1,0,0,1,0,0)"
font-family="Helvetica" font-size="16" font-weight="400" font-style="normal" 
>
</g>

<g fill="none" stroke="#000000" stroke-opacity="1" stroke-width="1" stroke-linecap="square" stroke-linejoin="bevel" transform="matrix(1,0,0,1,0,0)"
font-family="Helvetica" font-size="16" font-weight="400" font-style="normal" 
clip-path="url(#clip134)" >
<defs><clipPath id="clip134"><path vector-effect="non-scaling-stroke" fill-rule="evenodd" d="M0,0 L200,0 L200,114.894 L0,114.894 L0,0z "/>
</clipPath></defs></g>

<g fill="none" stroke="#000000" stroke-opacity="1" stroke-width="1" stroke-linecap="square" stroke-linejoin="bevel" transform="matrix(2.12766,0,0,2.12766,185.106,57.4468)"
font-family="Helvetica" font-size="16" font-weight="400" font-style="normal" 
clip-path="url(#clip135)" >
<defs><clipPath id="clip135"><path vector-effect="non-scaling-stroke" fill-rule="evenodd" d="M-87,-27 L7,-27 L7,27 L-87,27 L-87,-27z "/>
</clipPath></defs></g>

<g fill="#000000" fill-opacity="0" stroke="#000000" stroke-opacity="1" stroke-width="2" stroke-linecap="round" stroke-linejoin="miter" stroke-miterlimit="2" transform="matrix(2.12766,0,0,2.12766,185.106,57.4468)"
font-family="Helvetica" font-size="16" font-weight="400" font-style="normal" 
clip-path="url(#clip135)" >
<path vector-effect="none" fill-rule="evenodd" d="M0,-5 L5,0 L0,5"/>
</g>

<g fill="none" stroke="#000000" stroke-opacity="1" stroke-width="1" stroke-linecap="square" stroke-linejoin="bevel" transform="matrix(2.12766,0,0,2.12766,185.106,57.4468)"
font-family="Helvetica" font-size="16" font-weight="400" font-style="normal" 
clip-path="url(#clip135)" >
</g>

<g fill="none" stroke="#000000" stroke-opacity="1" stroke-width="1" stroke-linecap="square" stroke-linejoin="bevel" transform="matrix(2.12766,0,0,2.12766,4.25532,4.25532)"
font-family="Helvetica" font-size="16" font-weight="400" font-style="normal" 
clip-path="url(#clip136)" >
<defs><clipPath id="clip136"><path vector-effect="non-scaling-stroke" fill-rule="evenodd" d="M-2,-2 L92,-2 L92,52 L-2,52 L-2,-2z "/>
</clipPath></defs></g>

<g fill="#ffffff" fill-opacity="1" stroke="#000000" stroke-opacity="1" stroke-width="0.739331" stroke-linecap="butt" stroke-linejoin="miter" stroke-miterlimit="2" transform="matrix(2.12766,0,0,2.12766,4.25532,4.25532)"
font-family="Helvetica" font-size="16" font-weight="400" font-style="normal" 
clip-path="url(#clip136)" >
<path vector-effect="none" fill-rule="evenodd" d="M0,0 L85,0 L85,50 L0,50 L0,0z "/>
</g>

<g fill="none" stroke="#000000" stroke-opacity="1" stroke-width="1" stroke-linecap="square" stroke-linejoin="bevel" transform="matrix(2.12766,0,0,2.12766,4.25532,4.25532)"
font-family="Helvetica" font-size="16" font-weight="400" font-style="normal" 
clip-path="url(#clip136)" >
</g>

<g fill="none" stroke="#000000" stroke-opacity="1" stroke-width="1" stroke-linecap="square" stroke-linejoin="bevel" transform="matrix(2.12766,0,0,2.12766,4.25532,4.25532)"
font-family="Helvetica" font-size="16" font-weight="400" font-style="normal" 
clip-path="url(#clip136)" >
</g>

<g fill="none" stroke="#000000" stroke-opacity="1" stroke-width="1" stroke-linecap="square" stroke-linejoin="bevel" transform="matrix(2.12766,0,0,2.12766,4.25532,4.25532)"
font-family="Helvetica" font-size="16" font-weight="400" font-style="normal" 
clip-path="url(#clip137)" >
<defs><clipPath id="clip137"><path vector-effect="non-scaling-stroke" fill-rule="evenodd" d="M0,0 L85,0 L85,50 L0,50 L0,0z "/>
</clipPath></defs></g>

<g fill="none" stroke="#000000" stroke-opacity="1" stroke-width="1" stroke-linecap="square" stroke-linejoin="bevel" transform="matrix(2.12766,0,0,2.12766,21.2766,59.5745)"
font-family="FreeSans" font-size="9.6" font-weight="400" font-style="normal" 
clip-path="url(#clip138)" >
<defs><clipPath id="clip138"><path vector-effect="none" fill-rule="evenodd" d="M-8,-26 L77,-26 L77,24 L-8,24 L-8,-26z "/>
</clipPath></defs></g>

<g fill="none" stroke="#000000" stroke-opacity="1" stroke-width="1" stroke-linecap="square" stroke-linejoin="bevel" transform="matrix(2.21631,0,0,2.21631,21.2766,59.5745)"
font-family="FreeSans" font-size="9.6" font-weight="400" font-style="normal" 
clip-path="url(#clip139)" >
<defs><clipPath id="clip139"><path vector-effect="none" fill-rule="evenodd" d="M-8,-25 L74,-25 L74,23 L-8,23 L-8,-25z "/>
</clipPath></defs><text textLength="13" fill="#000000" fill-opacity="1" stroke="none" xml:space="preserve" x="0" y="2.89062" font-family="FreeSans" font-size="9.6" font-weight="400" font-style="normal" 
 >VR</text>
</g>

<g fill="none" stroke="#000000" stroke-opacity="1" stroke-width="1" stroke-linecap="square" stroke-linejoin="bevel" transform="matrix(2.12766,0,0,2.12766,21.2766,59.5745)"
font-family="FreeSans" font-size="9.6" font-weight="400" font-style="normal" 
clip-path="url(#clip140)" >
<defs><clipPath id="clip140"><path vector-effect="none" fill-rule="evenodd" d="M-8,-26 L77,-26 L77,24 L-8,24 L-8,-26z "/>
</clipPath></defs></g>

<g fill="none" stroke="#000000" stroke-opacity="1" stroke-width="1" stroke-linecap="square" stroke-linejoin="bevel" transform="matrix(2.12766,0,0,2.12766,-590.426,-239.362)"
font-family="FreeSans" font-size="9.6" font-weight="400" font-style="normal" 
clip-path="url(#clip141)" >
<defs><clipPath id="clip141"><path vector-effect="none" fill-rule="evenodd" d="M280,115 L365,115 L365,165 L280,165 L280,115z "/>
</clipPath></defs><polyline fill="none" vector-effect="none" points="315,149 315,131 " />
</g>

<g fill="none" stroke="#000000" stroke-opacity="1" stroke-width="1" stroke-linecap="square" stroke-linejoin="bevel" transform="matrix(2.12766,0,0,2.12766,-590.426,-239.362)"
font-family="FreeSans" font-size="9.6" font-weight="400" font-style="normal" 
clip-path="url(#clip141)" >
<polyline fill="none" vector-effect="none" points="315,142 354,142 " />
</g>

<g fill="none" stroke="#000000" stroke-opacity="1" stroke-width="1" stroke-linecap="square" stroke-linejoin="bevel" transform="matrix(2.12766,0,0,2.12766,-590.426,-239.362)"
font-family="FreeSans" font-size="9.6" font-weight="400" font-style="normal" 
clip-path="url(#clip141)" >
<polyline fill="none" vector-effect="none" points="315,140 354,140 " />
</g>

<g fill="none" stroke="#000000" stroke-opacity="1" stroke-width="1" stroke-linecap="square" stroke-linejoin="bevel" transform="matrix(2.12766,0,0,2.12766,-590.426,-239.362)"
font-family="FreeSans" font-size="9.6" font-weight="400" font-style="normal" 
clip-path="url(#clip141)" >
<polyline fill="none" vector-effect="none" points="315,138 354,138 " />
</g>

<g fill="none" stroke="#000000" stroke-opacity="1" stroke-width="1" stroke-linecap="square" stroke-linejoin="bevel" transform="matrix(2.04255,0,0,2.04255,-590.426,-239.362)"
font-family="FreeSans" font-size="9.6" font-weight="400" font-style="normal" 
clip-path="url(#clip142)" >
<defs><clipPath id="clip142"><path vector-effect="none" fill-rule="evenodd" d="M-2,-2 L92,-2 L92,52 L-2,52 L-2,-2z "/>
</clipPath></defs></g>

<g fill="none" stroke="#000000" stroke-opacity="1" stroke-width="1" stroke-linecap="square" stroke-linejoin="bevel" transform="matrix(1,0,0,1,0,0)"
font-family="FreeSans" font-size="9.6" font-weight="400" font-style="normal" 
clip-path="url(#clip142)" >
</g>

<g fill="none" stroke="#000000" stroke-opacity="1" stroke-width="1" stroke-linecap="square" stroke-linejoin="bevel" transform="matrix(2.12766,0,0,2.12766,4.25532,4.25532)"
font-family="Helvetica" font-size="16" font-weight="400" font-style="normal" 
clip-path="url(#clip142)" >
</g>

<g fill="none" stroke="#000000" stroke-opacity="1" stroke-width="1" stroke-linecap="square" stroke-linejoin="bevel" transform="matrix(2.12766,0,0,2.12766,4.25532,4.25532)"
font-family="Helvetica" font-size="16" font-weight="400" font-style="normal" 
clip-path="url(#clip142)" >
</g>

<g fill="none" stroke="#000000" stroke-opacity="1" stroke-width="0.739331" stroke-linecap="butt" stroke-linejoin="miter" stroke-miterlimit="2" transform="matrix(2.12766,0,0,2.12766,4.25532,4.25532)"
font-family="Helvetica" font-size="16" font-weight="400" font-style="normal" 
clip-path="url(#clip142)" >
<path vector-effect="none" fill-rule="evenodd" d="M0,0 L85,0 L85,50 L0,50 L0,0z "/>
</g>

<g fill="none" stroke="#000000" stroke-opacity="1" stroke-width="1" stroke-linecap="square" stroke-linejoin="bevel" transform="matrix(2.12766,0,0,2.12766,4.25532,4.25532)"
font-family="Helvetica" font-size="16" font-weight="400" font-style="normal" 
clip-path="url(#clip142)" >
</g>

<g fill="none" stroke="#000000" stroke-opacity="1" stroke-width="1" stroke-linecap="square" stroke-linejoin="bevel" transform="matrix(2.12766,0,0,2.12766,94.6809,114.894)"
font-family="Helvetica" font-size="16" font-weight="400" font-style="normal" 
clip-path="url(#clip143)" >
<defs><clipPath id="clip143"><path vector-effect="non-scaling-stroke" fill-rule="evenodd" d="M-44.5,-54 L49.5,-54 L49.5,-7.10543e-15 L-44.5,-7.10543e-15 L-44.5,-54z "/>
</clipPath></defs></g>

<g fill="none" stroke="#000000" stroke-opacity="1" stroke-width="1" stroke-linecap="square" stroke-linejoin="bevel" transform="matrix(2.12766,0,0,2.12766,94.6809,114.894)"
font-family="Helvetica" font-size="16" font-weight="400" font-style="normal" 
clip-path="url(#clip143)" >
</g>

<g fill="none" stroke="#000000" stroke-opacity="1" stroke-width="1" stroke-linecap="square" stroke-linejoin="bevel" transform="matrix(1,0,0,1,0,0)"
font-family="Helvetica" font-size="16" font-weight="400" font-style="normal" 
>
</g>

<g fill="none" stroke="#000000" stroke-opacity="1" stroke-width="1" stroke-linecap="square" stroke-linejoin="bevel" transform="matrix(1,0,0,1,0,0)"
font-family="Helvetica" font-size="16" font-weight="400" font-style="normal" 
>
</g>

<g fill="none" stroke="#000000" stroke-opacity="1" stroke-width="1" stroke-linecap="square" stroke-linejoin="bevel" transform="matrix(1,0,0,1,0,0)"
font-family="Helvetica" font-size="16" font-weight="400" font-style="normal" 
clip-path="url(#clip144)" >
<defs><clipPath id="clip144"><path vector-effect="non-scaling-stroke" fill-rule="evenodd" d="M0,0 L200,0 L200,114 L0,114 L0,0z "/>
</clipPath></defs></g>

<g fill="none" stroke="#000000" stroke-opacity="1" stroke-width="1" stroke-linecap="square" stroke-linejoin="bevel" transform="matrix(1,0,0,1,0,0)"
font-family="Helvetica" font-size="16" font-weight="400" font-style="normal" 
>
</g>

<g fill="none" stroke="#000000" stroke-opacity="1" stroke-width="1" stroke-linecap="square" stroke-linejoin="bevel" transform="matrix(1,0,0,1,0,0)"
font-family="Helvetica" font-size="16" font-weight="400" font-style="normal" 
>
</g>

<g fill="none" stroke="#000000" stroke-opacity="1" stroke-width="1" stroke-linecap="square" stroke-linejoin="bevel" transform="matrix(1,0,0,1,0,0)"
font-family="Helvetica" font-size="16" font-weight="400" font-style="normal" 
clip-path="url(#clip145)" >
<defs><clipPath id="clip145"><path vector-effect="non-scaling-stroke" fill-rule="evenodd" d="M0,0 L1,0 L1,1 L0,1 L0,0z "/>
</clipPath></defs></g>

<g fill="none" stroke="#000000" stroke-opacity="1" stroke-width="1" stroke-linecap="square" stroke-linejoin="bevel" transform="matrix(1,0,0,1,0,0)"
font-family="Helvetica" font-size="16" font-weight="400" font-style="normal" 
>
</g>

<g fill="none" stroke="#000000" stroke-opacity="1" stroke-width="1" stroke-linecap="square" stroke-linejoin="bevel" transform="matrix(1,0,0,1,0,0)"
font-family="Helvetica" font-size="16" font-weight="400" font-style="normal" 
>
</g>
</g>
</svg>
