<?xml version="1.0" encoding="UTF-8" standalone="no"?>
<svg width="67.7333mm" height="45.3813mm"
 viewBox="0 0 200 134"
 xmlns="http://www.w3.org/2000/svg" xmlns:xlink="http://www.w3.org/1999/xlink"  version="1.2" baseProfile="tiny">
<defs>
</defs>
<g fill="none" stroke="black" stroke-width="1" fill-rule="evenodd" stroke-linecap="square" stroke-linejoin="bevel" >

<g fill="#ffffff" fill-opacity="0" stroke="none" transform="matrix(1,0,0,1,0,0)"
font-family="Helvetica" font-size="12.5" font-weight="400" font-style="normal" 
>
<path vector-effect="non-scaling-stroke" fill-rule="evenodd" d="M0,0 L200,0 L200,134 L0,134 L0,0z "/>
</g>

<g fill="none" stroke="#000000" stroke-opacity="1" stroke-width="1" stroke-linecap="square" stroke-linejoin="bevel" transform="matrix(1,0,0,1,0,0)"
font-family="Helvetica" font-size="12.5" font-weight="400" font-style="normal" 
>
</g>

<g fill="none" stroke="#000000" stroke-opacity="1" stroke-width="1" stroke-linecap="square" stroke-linejoin="bevel" transform="matrix(1,0,0,1,0,0)"
font-family="Helvetica" font-size="12.5" font-weight="400" font-style="normal" 
clip-path="url(#clip2930)" >
<defs><clipPath id="clip2930"><path vector-effect="non-scaling-stroke" fill-rule="evenodd" d="M0,0 L200,0 L200,134.177 L0,134.177 L0,0z "/>
</clipPath></defs></g>

<g fill="none" stroke="#000000" stroke-opacity="1" stroke-width="1" stroke-linecap="square" stroke-linejoin="bevel" transform="matrix(2.53165,0,0,2.53165,182.278,98.7342)"
font-family="Helvetica" font-size="12.5" font-weight="400" font-style="normal" 
clip-path="url(#clip2931)" >
<defs><clipPath id="clip2931"><path vector-effect="non-scaling-stroke" fill-rule="evenodd" d="M-72,-39 L7,-39 L7,14 L-72,14 L-72,-39z "/>
</clipPath></defs></g>

<g fill="#000000" fill-opacity="0" stroke="#000000" stroke-opacity="1" stroke-width="2" stroke-linecap="round" stroke-linejoin="miter" stroke-miterlimit="2" transform="matrix(2.53165,0,0,2.53165,182.278,98.7342)"
font-family="Helvetica" font-size="12.5" font-weight="400" font-style="normal" 
clip-path="url(#clip2931)" >
<path vector-effect="none" fill-rule="evenodd" d="M0,-5 L5,0 L0,5"/>
</g>

<g fill="none" stroke="#000000" stroke-opacity="1" stroke-width="1" stroke-linecap="square" stroke-linejoin="bevel" transform="matrix(2.53165,0,0,2.53165,182.278,98.7342)"
font-family="Helvetica" font-size="12.5" font-weight="400" font-style="normal" 
clip-path="url(#clip2931)" >
</g>

<g fill="none" stroke="#000000" stroke-opacity="1" stroke-width="1" stroke-linecap="square" stroke-linejoin="bevel" transform="matrix(2.53165,0,0,2.53165,182.278,35.443)"
font-family="Helvetica" font-size="12.5" font-weight="400" font-style="normal" 
clip-path="url(#clip2932)" >
<defs><clipPath id="clip2932"><path vector-effect="non-scaling-stroke" fill-rule="evenodd" d="M-72,-14 L7,-14 L7,39 L-72,39 L-72,-14z "/>
</clipPath></defs></g>

<g fill="#000000" fill-opacity="0" stroke="#000000" stroke-opacity="1" stroke-width="2" stroke-linecap="round" stroke-linejoin="miter" stroke-miterlimit="2" transform="matrix(2.53165,0,0,2.53165,182.278,35.443)"
font-family="Helvetica" font-size="12.5" font-weight="400" font-style="normal" 
clip-path="url(#clip2932)" >
<path vector-effect="none" fill-rule="evenodd" d="M0,-5 L5,0 L0,5"/>
</g>

<g fill="none" stroke="#000000" stroke-opacity="1" stroke-width="1" stroke-linecap="square" stroke-linejoin="bevel" transform="matrix(2.53165,0,0,2.53165,182.278,35.443)"
font-family="Helvetica" font-size="12.5" font-weight="400" font-style="normal" 
clip-path="url(#clip2932)" >
</g>

<g fill="none" stroke="#000000" stroke-opacity="1" stroke-width="1" stroke-linecap="square" stroke-linejoin="bevel" transform="matrix(-2.53165,0,0,-2.53165,17.7215,98.7342)"
font-family="Helvetica" font-size="12.5" font-weight="400" font-style="normal" 
clip-path="url(#clip2933)" >
<defs><clipPath id="clip2933"><path vector-effect="non-scaling-stroke" fill-rule="evenodd" d="M7,39 L-72,39 L-72,-14 L7,-14 L7,39z "/>
</clipPath></defs></g>

<g fill="#000000" fill-opacity="0" stroke="#000000" stroke-opacity="1" stroke-width="2" stroke-linecap="round" stroke-linejoin="miter" stroke-miterlimit="2" transform="matrix(-2.53165,0,0,-2.53165,17.7215,98.7342)"
font-family="Helvetica" font-size="12.5" font-weight="400" font-style="normal" 
clip-path="url(#clip2933)" >
<path vector-effect="none" fill-rule="evenodd" d="M5,-5 L0,0 L5,5"/>
</g>

<g fill="none" stroke="#000000" stroke-opacity="1" stroke-width="1" stroke-linecap="square" stroke-linejoin="bevel" transform="matrix(-2.53165,0,0,-2.53165,17.7215,98.7342)"
font-family="Helvetica" font-size="12.5" font-weight="400" font-style="normal" 
clip-path="url(#clip2933)" >
</g>

<g fill="none" stroke="#000000" stroke-opacity="1" stroke-width="1" stroke-linecap="square" stroke-linejoin="bevel" transform="matrix(-2.53165,0,0,-2.53165,17.7215,35.443)"
font-family="Helvetica" font-size="12.5" font-weight="400" font-style="normal" 
clip-path="url(#clip2934)" >
<defs><clipPath id="clip2934"><path vector-effect="non-scaling-stroke" fill-rule="evenodd" d="M7,14 L-72,14 L-72,-39 L7,-39 L7,14z "/>
</clipPath></defs></g>

<g fill="#000000" fill-opacity="0" stroke="#000000" stroke-opacity="1" stroke-width="2" stroke-linecap="round" stroke-linejoin="miter" stroke-miterlimit="2" transform="matrix(-2.53165,0,0,-2.53165,17.7215,35.443)"
font-family="Helvetica" font-size="12.5" font-weight="400" font-style="normal" 
clip-path="url(#clip2934)" >
<path vector-effect="none" fill-rule="evenodd" d="M5,-5 L0,0 L5,5"/>
</g>

<g fill="none" stroke="#000000" stroke-opacity="1" stroke-width="1" stroke-linecap="square" stroke-linejoin="bevel" transform="matrix(-2.53165,0,0,-2.53165,17.7215,35.443)"
font-family="Helvetica" font-size="12.5" font-weight="400" font-style="normal" 
clip-path="url(#clip2934)" >
</g>

<g fill="none" stroke="#000000" stroke-opacity="1" stroke-width="1" stroke-linecap="square" stroke-linejoin="bevel" transform="matrix(2.53165,0,0,2.53165,17.7215,5.06329)"
font-family="Helvetica" font-size="12.5" font-weight="400" font-style="normal" 
clip-path="url(#clip2935)" >
<defs><clipPath id="clip2935"><path vector-effect="non-scaling-stroke" fill-rule="evenodd" d="M-7,-2 L72,-2 L72,51 L-7,51 L-7,-2z "/>
</clipPath></defs></g>

<g fill="#ffffff" fill-opacity="1" stroke="none" transform="matrix(2.53165,0,0,2.53165,17.7215,5.06329)"
font-family="Helvetica" font-size="12.5" font-weight="400" font-style="normal" 
clip-path="url(#clip2935)" >
<path vector-effect="none" fill-rule="evenodd" d="M0,0 L65,0 L65,49 L0,49 L0,0z "/>
</g>

<g fill="none" stroke="#000000" stroke-opacity="1" stroke-width="1" stroke-linecap="square" stroke-linejoin="bevel" transform="matrix(2.53165,0,0,2.53165,17.7215,5.06329)"
font-family="Helvetica" font-size="12.5" font-weight="400" font-style="normal" 
clip-path="url(#clip2935)" >
</g>

<g fill="none" stroke="#000000" stroke-opacity="1" stroke-width="1" stroke-linecap="square" stroke-linejoin="bevel" transform="matrix(2.53165,0,0,2.53165,17.7215,5.06329)"
font-family="Helvetica" font-size="12.5" font-weight="400" font-style="normal" 
clip-path="url(#clip2935)" >
</g>

<g fill="none" stroke="#000000" stroke-opacity="1" stroke-width="1" stroke-linecap="square" stroke-linejoin="bevel" transform="matrix(2.53165,0,0,2.53165,17.7215,5.06329)"
font-family="Helvetica" font-size="12.5" font-weight="400" font-style="normal" 
clip-path="url(#clip2936)" >
<defs><clipPath id="clip2936"><path vector-effect="non-scaling-stroke" fill-rule="evenodd" d="M0,0 L65,0 L65,49 L0,49 L0,0z "/>
</clipPath></defs></g>

<g fill="none" stroke="#000000" stroke-opacity="1" stroke-width="1" stroke-linecap="square" stroke-linejoin="bevel" transform="matrix(2.53165,0,0,2.53165,25.3165,40.5063)"
font-family="Liberation Sans" font-size="10" font-weight="400" font-style="normal" 
clip-path="url(#clip2937)" >
<defs><clipPath id="clip2937"><path vector-effect="none" fill-rule="evenodd" d="M-3,-14 L62,-14 L62,35 L-3,35 L-3,-14z "/>
</clipPath></defs></g>

<g fill="none" stroke="#000000" stroke-opacity="1" stroke-width="1" stroke-linecap="square" stroke-linejoin="bevel" transform="matrix(2.53165,0,0,2.53165,25.3165,40.5063)"
font-family="Liberation Sans" font-size="10" font-weight="400" font-style="normal" 
clip-path="url(#clip2937)" >
<text textLength="3" fill="#000000" fill-opacity="1" stroke="none" xml:space="preserve" x="0" y="0" font-family="Liberation Sans" font-size="10" font-weight="400" font-style="normal" 
 >r</text>
</g>

<g fill="none" stroke="#000000" stroke-opacity="1" stroke-width="1" stroke-linecap="square" stroke-linejoin="bevel" transform="matrix(2.53165,0,0,2.53165,25.3165,40.5063)"
font-family="Liberation Sans" font-size="10" font-weight="400" font-style="normal" 
clip-path="url(#clip2937)" >
</g>

<g fill="none" stroke="#000000" stroke-opacity="1" stroke-width="1" stroke-linecap="square" stroke-linejoin="bevel" transform="matrix(2.53165,0,0,2.53165,32.9114,53.1646)"
font-family="Liberation Sans" font-size="8" font-weight="400" font-style="normal" 
clip-path="url(#clip2938)" >
<defs><clipPath id="clip2938"><path vector-effect="none" fill-rule="evenodd" d="M-6,-19 L59,-19 L59,30 L-6,30 L-6,-19z "/>
</clipPath></defs></g>

<g fill="none" stroke="#000000" stroke-opacity="1" stroke-width="1" stroke-linecap="square" stroke-linejoin="bevel" transform="matrix(2.53165,0,0,2.53165,32.9114,53.1646)"
font-family="Liberation Sans" font-size="8" font-weight="400" font-style="normal" 
clip-path="url(#clip2938)" >
<text textLength="20" fill="#000000" fill-opacity="1" stroke="none" xml:space="preserve" x="0" y="0" font-family="Liberation Sans" font-size="8" font-weight="400" font-style="normal" 
 >J2000</text>
</g>

<g fill="none" stroke="#000000" stroke-opacity="1" stroke-width="1" stroke-linecap="square" stroke-linejoin="bevel" transform="matrix(2.53165,0,0,2.53165,32.9114,53.1646)"
font-family="Liberation Sans" font-size="8" font-weight="400" font-style="normal" 
clip-path="url(#clip2938)" >
</g>

<g fill="none" stroke="#000000" stroke-opacity="1" stroke-width="1" stroke-linecap="square" stroke-linejoin="bevel" transform="matrix(2.53165,0,0,2.53165,25.3165,103.797)"
font-family="Liberation Sans" font-size="10" font-weight="400" font-style="normal" 
clip-path="url(#clip2939)" >
<defs><clipPath id="clip2939"><path vector-effect="none" fill-rule="evenodd" d="M-3,-39 L62,-39 L62,10 L-3,10 L-3,-39z "/>
</clipPath></defs></g>

<g fill="none" stroke="#000000" stroke-opacity="1" stroke-width="1" stroke-linecap="square" stroke-linejoin="bevel" transform="matrix(2.53165,0,0,2.53165,25.3165,103.797)"
font-family="Liberation Sans" font-size="10" font-weight="400" font-style="normal" 
clip-path="url(#clip2939)" >
<text textLength="5" fill="#000000" fill-opacity="1" stroke="none" xml:space="preserve" x="0" y="0" font-family="Liberation Sans" font-size="10" font-weight="400" font-style="normal" 
 >v</text>
</g>

<g fill="none" stroke="#000000" stroke-opacity="1" stroke-width="1" stroke-linecap="square" stroke-linejoin="bevel" transform="matrix(2.53165,0,0,2.53165,25.3165,103.797)"
font-family="Liberation Sans" font-size="10" font-weight="400" font-style="normal" 
clip-path="url(#clip2939)" >
</g>

<g fill="none" stroke="#000000" stroke-opacity="1" stroke-width="1" stroke-linecap="square" stroke-linejoin="bevel" transform="matrix(2.53165,0,0,2.53165,37.9747,116.456)"
font-family="Liberation Sans" font-size="8" font-weight="400" font-style="normal" 
clip-path="url(#clip2940)" >
<defs><clipPath id="clip2940"><path vector-effect="none" fill-rule="evenodd" d="M-8,-44 L57,-44 L57,5 L-8,5 L-8,-44z "/>
</clipPath></defs></g>

<g fill="none" stroke="#000000" stroke-opacity="1" stroke-width="1" stroke-linecap="square" stroke-linejoin="bevel" transform="matrix(2.53165,0,0,2.53165,37.9747,116.456)"
font-family="Liberation Sans" font-size="8" font-weight="400" font-style="normal" 
clip-path="url(#clip2940)" >
<text textLength="20" fill="#000000" fill-opacity="1" stroke="none" xml:space="preserve" x="0" y="0" font-family="Liberation Sans" font-size="8" font-weight="400" font-style="normal" 
 >J2000</text>
</g>

<g fill="none" stroke="#000000" stroke-opacity="1" stroke-width="1" stroke-linecap="square" stroke-linejoin="bevel" transform="matrix(2.53165,0,0,2.53165,37.9747,116.456)"
font-family="Liberation Sans" font-size="8" font-weight="400" font-style="normal" 
clip-path="url(#clip2940)" >
</g>

<g fill="none" stroke="#000000" stroke-opacity="1" stroke-width="1" stroke-linecap="square" stroke-linejoin="bevel" transform="matrix(2.53165,0,0,2.53165,113.924,40.5063)"
font-family="Liberation Sans" font-size="10" font-weight="400" font-style="normal" 
clip-path="url(#clip2941)" >
<defs><clipPath id="clip2941"><path vector-effect="none" fill-rule="evenodd" d="M-38,-14 L27,-14 L27,35 L-38,35 L-38,-14z "/>
</clipPath></defs></g>

<g fill="none" stroke="#000000" stroke-opacity="1" stroke-width="1" stroke-linecap="square" stroke-linejoin="bevel" transform="matrix(2.53165,0,0,2.53165,113.924,40.5063)"
font-family="Liberation Sans" font-size="10" font-weight="400" font-style="normal" 
clip-path="url(#clip2941)" >
<text textLength="3" fill="#000000" fill-opacity="1" stroke="none" xml:space="preserve" x="0" y="0" font-family="Liberation Sans" font-size="10" font-weight="400" font-style="normal" 
 >r</text>
</g>

<g fill="none" stroke="#000000" stroke-opacity="1" stroke-width="1" stroke-linecap="square" stroke-linejoin="bevel" transform="matrix(2.53165,0,0,2.53165,113.924,40.5063)"
font-family="Liberation Sans" font-size="10" font-weight="400" font-style="normal" 
clip-path="url(#clip2941)" >
</g>

<g fill="none" stroke="#000000" stroke-opacity="1" stroke-width="1" stroke-linecap="square" stroke-linejoin="bevel" transform="matrix(2.53165,0,0,2.53165,121.519,53.1646)"
font-family="Liberation Sans" font-size="8" font-weight="400" font-style="normal" 
clip-path="url(#clip2942)" >
<defs><clipPath id="clip2942"><path vector-effect="none" fill-rule="evenodd" d="M-41,-19 L24,-19 L24,30 L-41,30 L-41,-19z "/>
</clipPath></defs></g>

<g fill="none" stroke="#000000" stroke-opacity="1" stroke-width="1" stroke-linecap="square" stroke-linejoin="bevel" transform="matrix(2.53165,0,0,2.53165,121.519,53.1646)"
font-family="Liberation Sans" font-size="8" font-weight="400" font-style="normal" 
clip-path="url(#clip2942)" >
<text textLength="21" fill="#000000" fill-opacity="1" stroke="none" xml:space="preserve" x="0" y="0" font-family="Liberation Sans" font-size="8" font-weight="400" font-style="normal" 
 >B1950</text>
</g>

<g fill="none" stroke="#000000" stroke-opacity="1" stroke-width="1" stroke-linecap="square" stroke-linejoin="bevel" transform="matrix(2.53165,0,0,2.53165,121.519,53.1646)"
font-family="Liberation Sans" font-size="8" font-weight="400" font-style="normal" 
clip-path="url(#clip2942)" >
</g>

<g fill="none" stroke="#000000" stroke-opacity="1" stroke-width="1" stroke-linecap="square" stroke-linejoin="bevel" transform="matrix(2.53165,0,0,2.53165,108.861,103.797)"
font-family="Liberation Sans" font-size="10" font-weight="400" font-style="normal" 
clip-path="url(#clip2943)" >
<defs><clipPath id="clip2943"><path vector-effect="none" fill-rule="evenodd" d="M-36,-39 L29,-39 L29,10 L-36,10 L-36,-39z "/>
</clipPath></defs></g>

<g fill="none" stroke="#000000" stroke-opacity="1" stroke-width="1" stroke-linecap="square" stroke-linejoin="bevel" transform="matrix(2.53165,0,0,2.53165,108.861,103.797)"
font-family="Liberation Sans" font-size="10" font-weight="400" font-style="normal" 
clip-path="url(#clip2943)" >
<text textLength="5" fill="#000000" fill-opacity="1" stroke="none" xml:space="preserve" x="0" y="0" font-family="Liberation Sans" font-size="10" font-weight="400" font-style="normal" 
 >v</text>
</g>

<g fill="none" stroke="#000000" stroke-opacity="1" stroke-width="1" stroke-linecap="square" stroke-linejoin="bevel" transform="matrix(2.53165,0,0,2.53165,108.861,103.797)"
font-family="Liberation Sans" font-size="10" font-weight="400" font-style="normal" 
clip-path="url(#clip2943)" >
</g>

<g fill="none" stroke="#000000" stroke-opacity="1" stroke-width="1" stroke-linecap="square" stroke-linejoin="bevel" transform="matrix(2.53165,0,0,2.53165,121.519,116.456)"
font-family="Liberation Sans" font-size="8" font-weight="400" font-style="normal" 
clip-path="url(#clip2944)" >
<defs><clipPath id="clip2944"><path vector-effect="none" fill-rule="evenodd" d="M-41,-44 L24,-44 L24,5 L-41,5 L-41,-44z "/>
</clipPath></defs></g>

<g fill="none" stroke="#000000" stroke-opacity="1" stroke-width="1" stroke-linecap="square" stroke-linejoin="bevel" transform="matrix(2.53165,0,0,2.53165,121.519,116.456)"
font-family="Liberation Sans" font-size="8" font-weight="400" font-style="normal" 
clip-path="url(#clip2944)" >
<text textLength="21" fill="#000000" fill-opacity="1" stroke="none" xml:space="preserve" x="0" y="0" font-family="Liberation Sans" font-size="8" font-weight="400" font-style="normal" 
 >B1950</text>
</g>

<g fill="none" stroke="#000000" stroke-opacity="1" stroke-width="1" stroke-linecap="square" stroke-linejoin="bevel" transform="matrix(2.53165,0,0,2.53165,121.519,116.456)"
font-family="Liberation Sans" font-size="8" font-weight="400" font-style="normal" 
clip-path="url(#clip2944)" >
</g>

<g fill="none" stroke="#000000" stroke-opacity="1" stroke-width="1" stroke-linecap="square" stroke-linejoin="bevel" transform="matrix(2.53165,0,0,2.53165,121.519,116.456)"
font-family="Liberation Sans" font-size="8" font-weight="400" font-style="normal" 
clip-path="url(#clip2945)" >
<defs><clipPath id="clip2945"><path vector-effect="none" fill-rule="evenodd" d="M-7,-2 L72,-2 L72,51 L-7,51 L-7,-2z "/>
</clipPath></defs></g>

<g fill="none" stroke="#000000" stroke-opacity="1" stroke-width="1" stroke-linecap="square" stroke-linejoin="bevel" transform="matrix(1,0,0,1,0,0)"
font-family="Liberation Sans" font-size="8" font-weight="400" font-style="normal" 
clip-path="url(#clip2945)" >
</g>

<g fill="none" stroke="#000000" stroke-opacity="1" stroke-width="1" stroke-linecap="square" stroke-linejoin="bevel" transform="matrix(2.53165,0,0,2.53165,17.7215,5.06329)"
font-family="Helvetica" font-size="12.5" font-weight="400" font-style="normal" 
clip-path="url(#clip2945)" >
</g>

<g fill="none" stroke="#000000" stroke-opacity="1" stroke-width="1" stroke-linecap="square" stroke-linejoin="bevel" transform="matrix(2.53165,0,0,2.53165,17.7215,5.06329)"
font-family="Helvetica" font-size="12.5" font-weight="400" font-style="normal" 
clip-path="url(#clip2945)" >
</g>

<g fill="none" stroke="#000000" stroke-opacity="1" stroke-width="0.689666" stroke-linecap="butt" stroke-linejoin="miter" stroke-miterlimit="2" transform="matrix(2.53165,0,0,2.53165,17.7215,5.06329)"
font-family="Helvetica" font-size="12.5" font-weight="400" font-style="normal" 
clip-path="url(#clip2945)" >
<path vector-effect="none" fill-rule="evenodd" d="M0,0 L65,0 L65,49 L0,49 L0,0z "/>
</g>

<g fill="none" stroke="#000000" stroke-opacity="1" stroke-width="1" stroke-linecap="square" stroke-linejoin="bevel" transform="matrix(2.53165,0,0,2.53165,17.7215,5.06329)"
font-family="Helvetica" font-size="12.5" font-weight="400" font-style="normal" 
clip-path="url(#clip2945)" >
</g>

<g fill="none" stroke="#000000" stroke-opacity="1" stroke-width="1" stroke-linecap="square" stroke-linejoin="bevel" transform="matrix(1,0,0,1,0,0)"
font-family="Helvetica" font-size="12.5" font-weight="400" font-style="normal" 
>
</g>

<g fill="none" stroke="#000000" stroke-opacity="1" stroke-width="1" stroke-linecap="square" stroke-linejoin="bevel" transform="matrix(1,0,0,1,0,0)"
font-family="Helvetica" font-size="12.5" font-weight="400" font-style="normal" 
>
</g>

<g fill="none" stroke="#000000" stroke-opacity="1" stroke-width="1" stroke-linecap="square" stroke-linejoin="bevel" transform="matrix(1,0,0,1,0,0)"
font-family="Helvetica" font-size="12.5" font-weight="400" font-style="normal" 
clip-path="url(#clip2946)" >
<defs><clipPath id="clip2946"><path vector-effect="non-scaling-stroke" fill-rule="evenodd" d="M0,0 L200,0 L200,134 L0,134 L0,0z "/>
</clipPath></defs></g>

<g fill="none" stroke="#000000" stroke-opacity="1" stroke-width="1" stroke-linecap="square" stroke-linejoin="bevel" transform="matrix(1,0,0,1,0,0)"
font-family="Helvetica" font-size="12.5" font-weight="400" font-style="normal" 
>
</g>

<g fill="none" stroke="#000000" stroke-opacity="1" stroke-width="1" stroke-linecap="square" stroke-linejoin="bevel" transform="matrix(1,0,0,1,0,0)"
font-family="Helvetica" font-size="12.5" font-weight="400" font-style="normal" 
>
</g>

<g fill="none" stroke="#000000" stroke-opacity="1" stroke-width="1" stroke-linecap="square" stroke-linejoin="bevel" transform="matrix(1,0,0,1,0,0)"
font-family="Helvetica" font-size="12.5" font-weight="400" font-style="normal" 
clip-path="url(#clip2947)" >
<defs><clipPath id="clip2947"><path vector-effect="non-scaling-stroke" fill-rule="evenodd" d="M0,0 L1,0 L1,1 L0,1 L0,0z "/>
</clipPath></defs></g>

<g fill="none" stroke="#000000" stroke-opacity="1" stroke-width="1" stroke-linecap="square" stroke-linejoin="bevel" transform="matrix(1,0,0,1,0,0)"
font-family="Helvetica" font-size="12.5" font-weight="400" font-style="normal" 
>
</g>

<g fill="none" stroke="#000000" stroke-opacity="1" stroke-width="1" stroke-linecap="square" stroke-linejoin="bevel" transform="matrix(1,0,0,1,0,0)"
font-family="Helvetica" font-size="12.5" font-weight="400" font-style="normal" 
>
</g>
</g>
</svg>
