<?xml version="1.0" encoding="UTF-8" standalone="no"?>
<svg width="52.9167mm" height="34.925mm"
 viewBox="0 0 200 132"
 xmlns="http://www.w3.org/2000/svg" xmlns:xlink="http://www.w3.org/1999/xlink"  version="1.2" baseProfile="tiny">
<defs>
</defs>
<g fill="none" stroke="black" stroke-width="1" fill-rule="evenodd" stroke-linecap="square" stroke-linejoin="bevel" >

<g fill="#ffffff" fill-opacity="0" stroke="none" transform="matrix(1,0,0,1,0,0)"
font-family="Helvetica" font-size="16" font-weight="400" font-style="normal" 
>
<path vector-effect="non-scaling-stroke" fill-rule="evenodd" d="M0,0 L200,0 L200,132 L0,132 L0,0z "/>
</g>

<g fill="none" stroke="#000000" stroke-opacity="1" stroke-width="1" stroke-linecap="square" stroke-linejoin="bevel" transform="matrix(1,0,0,1,0,0)"
font-family="Helvetica" font-size="16" font-weight="400" font-style="normal" 
>
</g>

<g fill="none" stroke="#000000" stroke-opacity="1" stroke-width="1" stroke-linecap="square" stroke-linejoin="bevel" transform="matrix(1,0,0,1,0,0)"
font-family="Helvetica" font-size="16" font-weight="400" font-style="normal" 
clip-path="url(#clip27468)" >
<defs><clipPath id="clip27468"><path vector-effect="non-scaling-stroke" fill-rule="evenodd" d="M0,0 L200,0 L200,132.653 L0,132.653 L0,0z "/>
</clipPath></defs></g>

<g fill="none" stroke="#000000" stroke-opacity="1" stroke-width="1" stroke-linecap="square" stroke-linejoin="bevel" transform="matrix(2.04082,0,0,2.04082,4.08163,4.08163)"
font-family="Helvetica" font-size="16" font-weight="400" font-style="normal" 
clip-path="url(#clip27469)" >
<defs><clipPath id="clip27469"><path vector-effect="non-scaling-stroke" fill-rule="evenodd" d="M-2,-2 L96,-2 L96,63 L-2,63 L-2,-2z "/>
</clipPath></defs></g>

<g fill="#e8d152" fill-opacity="1" stroke="none" transform="matrix(2.04082,0,0,2.04082,4.08163,4.08163)"
font-family="Helvetica" font-size="16" font-weight="400" font-style="normal" 
clip-path="url(#clip27469)" >
<path vector-effect="none" fill-rule="evenodd" d="M0,0 L94,0 L94,61 L0,61 L0,0z "/>
</g>

<g fill="none" stroke="#000000" stroke-opacity="1" stroke-width="1" stroke-linecap="square" stroke-linejoin="bevel" transform="matrix(2.04082,0,0,2.04082,4.08163,4.08163)"
font-family="Helvetica" font-size="16" font-weight="400" font-style="normal" 
clip-path="url(#clip27469)" >
</g>

<g fill="none" stroke="#000000" stroke-opacity="1" stroke-width="1" stroke-linecap="square" stroke-linejoin="bevel" transform="matrix(2.04082,0,0,2.04082,4.08163,4.08163)"
font-family="Helvetica" font-size="16" font-weight="400" font-style="normal" 
clip-path="url(#clip27469)" >
</g>

<g fill="none" stroke="#000000" stroke-opacity="1" stroke-width="1" stroke-linecap="square" stroke-linejoin="bevel" transform="matrix(2.04082,0,0,2.04082,4.08163,4.08163)"
font-family="Helvetica" font-size="16" font-weight="400" font-style="normal" 
clip-path="url(#clip27470)" >
<defs><clipPath id="clip27470"><path vector-effect="non-scaling-stroke" fill-rule="evenodd" d="M0,0 L94,0 L94,61 L0,61 L0,0z "/>
</clipPath></defs></g>

<g fill="none" stroke="#000000" stroke-opacity="1" stroke-width="1" stroke-linecap="square" stroke-linejoin="bevel" transform="matrix(2.04082,0,0,2.04082,100,51.0204)"
font-family="FreeSans" font-size="16.4571" font-weight="400" font-style="normal" 
clip-path="url(#clip27471)" >
<defs><clipPath id="clip27471"><path vector-effect="none" fill-rule="evenodd" d="M-47,-23 L47,-23 L47,38 L-47,38 L-47,-23z "/>
</clipPath></defs></g>

<g fill="none" stroke="#000000" stroke-opacity="1" stroke-width="1" stroke-linecap="square" stroke-linejoin="bevel" transform="matrix(1.4881,0,0,1.4881,100,51.0204)"
font-family="FreeSans" font-size="16.4571" font-weight="400" font-style="normal" 
clip-path="url(#clip27472)" >
<defs><clipPath id="clip27472"><path vector-effect="none" fill-rule="evenodd" d="M-64,-32 L65,-32 L65,52 L-64,52 L-64,-32z "/>
</clipPath></defs><text textLength="41" fill="#000000" fill-opacity="1" stroke="none" xml:space="preserve" x="-21.9375" y="5.5" font-family="FreeSans" font-size="16.4571" font-weight="400" font-style="normal" 
 >Noise</text>
</g>

<g fill="none" stroke="#000000" stroke-opacity="1" stroke-width="1" stroke-linecap="square" stroke-linejoin="bevel" transform="matrix(2.04082,0,0,2.04082,100,51.0204)"
font-family="FreeSans" font-size="16.4571" font-weight="400" font-style="normal" 
clip-path="url(#clip27473)" >
<defs><clipPath id="clip27473"><path vector-effect="none" fill-rule="evenodd" d="M-47,-23 L47,-23 L47,38 L-47,38 L-47,-23z "/>
</clipPath></defs></g>

<g fill="none" stroke="#000000" stroke-opacity="1" stroke-width="1" stroke-linecap="square" stroke-linejoin="bevel" transform="matrix(2.04082,0,0,2.04082,100,81.6327)"
font-family="FreeSans" font-size="16.4571" font-weight="400" font-style="normal" 
clip-path="url(#clip27474)" >
<defs><clipPath id="clip27474"><path vector-effect="none" fill-rule="evenodd" d="M-47,-38 L47,-38 L47,23 L-47,23 L-47,-38z "/>
</clipPath></defs></g>

<g fill="none" stroke="#000000" stroke-opacity="1" stroke-width="1" stroke-linecap="square" stroke-linejoin="bevel" transform="matrix(1.4881,0,0,1.4881,100,81.6327)"
font-family="FreeSans" font-size="16.4571" font-weight="400" font-style="normal" 
clip-path="url(#clip27475)" >
<defs><clipPath id="clip27475"><path vector-effect="none" fill-rule="evenodd" d="M-64,-52 L65,-52 L65,32 L-64,32 L-64,-52z "/>
</clipPath></defs><text textLength="81" fill="#000000" fill-opacity="1" stroke="none" xml:space="preserve" x="-42.5" y="5.5" font-family="FreeSans" font-size="16.4571" font-weight="400" font-style="normal" 
 >Generators</text>
</g>

<g fill="none" stroke="#000000" stroke-opacity="1" stroke-width="1" stroke-linecap="square" stroke-linejoin="bevel" transform="matrix(2.04082,0,0,2.04082,100,81.6327)"
font-family="FreeSans" font-size="16.4571" font-weight="400" font-style="normal" 
clip-path="url(#clip27476)" >
<defs><clipPath id="clip27476"><path vector-effect="none" fill-rule="evenodd" d="M-47,-38 L47,-38 L47,23 L-47,23 L-47,-38z "/>
</clipPath></defs></g>

<g fill="none" stroke="#000000" stroke-opacity="1" stroke-width="1" stroke-linecap="square" stroke-linejoin="bevel" transform="matrix(2.79883,0,0,2.79883,100,81.6327)"
font-family="FreeSans" font-size="16.4571" font-weight="400" font-style="normal" 
clip-path="url(#clip27477)" >
<defs><clipPath id="clip27477"><path vector-effect="none" fill-rule="evenodd" d="M-2,-2 L96,-2 L96,63 L-2,63 L-2,-2z "/>
</clipPath></defs></g>

<g fill="none" stroke="#000000" stroke-opacity="1" stroke-width="1" stroke-linecap="square" stroke-linejoin="bevel" transform="matrix(1,0,0,1,0,0)"
font-family="FreeSans" font-size="16.4571" font-weight="400" font-style="normal" 
clip-path="url(#clip27477)" >
</g>

<g fill="none" stroke="#000000" stroke-opacity="1" stroke-width="1" stroke-linecap="square" stroke-linejoin="bevel" transform="matrix(2.04082,0,0,2.04082,4.08163,4.08163)"
font-family="Helvetica" font-size="16" font-weight="400" font-style="normal" 
clip-path="url(#clip27477)" >
</g>

<g fill="none" stroke="#000000" stroke-opacity="1" stroke-width="1" stroke-linecap="square" stroke-linejoin="bevel" transform="matrix(2.04082,0,0,2.04082,4.08163,4.08163)"
font-family="Helvetica" font-size="16" font-weight="400" font-style="normal" 
clip-path="url(#clip27477)" >
</g>

<g fill="none" stroke="#000000" stroke-opacity="1" stroke-width="0.751759" stroke-linecap="butt" stroke-linejoin="miter" stroke-miterlimit="2" transform="matrix(2.04082,0,0,2.04082,4.08163,4.08163)"
font-family="Helvetica" font-size="16" font-weight="400" font-style="normal" 
clip-path="url(#clip27477)" >
<path vector-effect="none" fill-rule="evenodd" d="M0,0 L94,0 L94,61 L0,61 L0,0z "/>
</g>

<g fill="none" stroke="#000000" stroke-opacity="1" stroke-width="1" stroke-linecap="square" stroke-linejoin="bevel" transform="matrix(2.04082,0,0,2.04082,4.08163,4.08163)"
font-family="Helvetica" font-size="16" font-weight="400" font-style="normal" 
clip-path="url(#clip27477)" >
</g>

<g fill="none" stroke="#000000" stroke-opacity="1" stroke-width="1" stroke-linecap="square" stroke-linejoin="bevel" transform="matrix(2.04082,0,0,2.04082,4.08163,4.08163)"
font-family="Helvetica" font-size="16" font-weight="400" font-style="normal" 
clip-path="url(#clip27477)" >
</g>

<g fill="none" stroke="#000000" stroke-opacity="1" stroke-width="0.49" stroke-linecap="butt" stroke-linejoin="miter" stroke-miterlimit="2" transform="matrix(2.04082,0,0,2.04082,4.08163,4.08163)"
font-family="Helvetica" font-size="16" font-weight="400" font-style="normal" 
clip-path="url(#clip27477)" >
</g>

<g fill="none" stroke="#000000" stroke-opacity="1" stroke-width="1" stroke-linecap="square" stroke-linejoin="bevel" transform="matrix(2.04082,0,0,2.04082,4.08163,4.08163)"
font-family="Helvetica" font-size="16" font-weight="400" font-style="normal" 
clip-path="url(#clip27477)" >
</g>

<g fill="none" stroke="#000000" stroke-opacity="1" stroke-width="1" stroke-linecap="square" stroke-linejoin="bevel" transform="matrix(1,0,0,1,0,0)"
font-family="Helvetica" font-size="16" font-weight="400" font-style="normal" 
>
</g>

<g fill="none" stroke="#000000" stroke-opacity="1" stroke-width="1" stroke-linecap="square" stroke-linejoin="bevel" transform="matrix(1,0,0,1,0,0)"
font-family="Helvetica" font-size="16" font-weight="400" font-style="normal" 
>
</g>

<g fill="none" stroke="#000000" stroke-opacity="1" stroke-width="1" stroke-linecap="square" stroke-linejoin="bevel" transform="matrix(1,0,0,1,0,0)"
font-family="Helvetica" font-size="16" font-weight="400" font-style="normal" 
clip-path="url(#clip27478)" >
<defs><clipPath id="clip27478"><path vector-effect="non-scaling-stroke" fill-rule="evenodd" d="M0,0 L200,0 L200,132 L0,132 L0,0z "/>
</clipPath></defs></g>

<g fill="none" stroke="#000000" stroke-opacity="1" stroke-width="1" stroke-linecap="square" stroke-linejoin="bevel" transform="matrix(1,0,0,1,0,0)"
font-family="Helvetica" font-size="16" font-weight="400" font-style="normal" 
>
</g>

<g fill="none" stroke="#000000" stroke-opacity="1" stroke-width="1" stroke-linecap="square" stroke-linejoin="bevel" transform="matrix(1,0,0,1,0,0)"
font-family="Helvetica" font-size="16" font-weight="400" font-style="normal" 
>
</g>

<g fill="none" stroke="#000000" stroke-opacity="1" stroke-width="1" stroke-linecap="square" stroke-linejoin="bevel" transform="matrix(1,0,0,1,0,0)"
font-family="Helvetica" font-size="16" font-weight="400" font-style="normal" 
clip-path="url(#clip27479)" >
<defs><clipPath id="clip27479"><path vector-effect="non-scaling-stroke" fill-rule="evenodd" d="M0,0 L1,0 L1,1 L0,1 L0,0z "/>
</clipPath></defs></g>

<g fill="none" stroke="#000000" stroke-opacity="1" stroke-width="1" stroke-linecap="square" stroke-linejoin="bevel" transform="matrix(1,0,0,1,0,0)"
font-family="Helvetica" font-size="16" font-weight="400" font-style="normal" 
>
</g>

<g fill="none" stroke="#000000" stroke-opacity="1" stroke-width="1" stroke-linecap="square" stroke-linejoin="bevel" transform="matrix(1,0,0,1,0,0)"
font-family="Helvetica" font-size="16" font-weight="400" font-style="normal" 
>
</g>
</g>
</svg>
